  0
SECTION
  2
HEADER
  9
$ACADVER
  1
AC1027
  9
$ACADMAINTVER
 70
    55
  9
$DWGCODEPAGE
  3
ANSI_1252
  9
$LASTSAVEDBY
  1
crinne
  9
$REQUIREDVERSIONS
160
                 0
  9
$INSBASE
 10
0.0
 20
0.0
 30
0.0
  9
$EXTMIN
 10
-0.1604089113737141
 20
-20.99914505697776
 30
0.0
  9
$EXTMAX
 10
2.291604717213225
 20
-18.82167107118772
 30
0.0
  9
$LIMMIN
 10
-2600.0
 20
-2600.0
  9
$LIMMAX
 10
2000.0
 20
200.0
  9
$ORTHOMODE
 70
     0
  9
$REGENMODE
 70
     1
  9
$FILLMODE
 70
     1
  9
$QTEXTMODE
 70
     0
  9
$MIRRTEXT
 70
     1
  9
$LTSCALE
 40
25.0
  9
$ATTMODE
 70
     1
  9
$TEXTSIZE
 40
3.5
  9
$TRACEWID
 40
1.0
  9
$TEXTSTYLE
  7
STANDARD
  9
$CLAYER
  8
GRABUNGSGRENZE
  9
$CELTYPE
  6
ByLayer
  9
$CECOLOR
 62
   256
  9
$CELTSCALE
 40
1.0
  9
$DISPSILH
 70
     0
  9
$DIMSCALE
 40
1.0
  9
$DIMASZ
 40
3.5
  9
$DIMEXO
 40
0.1
  9
$DIMDLI
 40
7.0
  9
$DIMRND
 40
0.0
  9
$DIMDLE
 40
0.0
  9
$DIMEXE
 40
1.8
  9
$DIMTP
 40
0.0
  9
$DIMTM
 40
0.0
  9
$DIMTXT
 40
3.5
  9
$DIMCEN
 40
1.5
  9
$DIMTSZ
 40
0.0
  9
$DIMTOL
 70
     0
  9
$DIMLIM
 70
     0
  9
$DIMTIH
 70
     0
  9
$DIMTOH
 70
     0
  9
$DIMSE1
 70
     0
  9
$DIMSE2
 70
     0
  9
$DIMTAD
 70
     0
  9
$DIMZIN
 70
     0
  9
$DIMBLK
  1

  9
$DIMASO
 70
     1
  9
$DIMSHO
 70
     0
  9
$DIMPOST
  1

  9
$DIMAPOST
  1

  9
$DIMALT
 70
     0
  9
$DIMALTD
 70
     2
  9
$DIMALTF
 40
25.4
  9
$DIMLFAC
 40
1.0
  9
$DIMTOFL
 70
     0
  9
$DIMTVP
 40
0.0
  9
$DIMTIX
 70
     0
  9
$DIMSOXD
 70
     0
  9
$DIMSAH
 70
     0
  9
$DIMBLK1
  1

  9
$DIMBLK2
  1

  9
$DIMSTYLE
  2
Standard
  9
$DIMCLRD
 70
     0
  9
$DIMCLRE
 70
     0
  9
$DIMCLRT
 70
     0
  9
$DIMTFAC
 40
1.0
  9
$DIMGAP
 40
0.09
  9
$DIMJUST
 70
     0
  9
$DIMSD1
 70
     0
  9
$DIMSD2
 70
     0
  9
$DIMTOLJ
 70
     1
  9
$DIMTZIN
 70
     0
  9
$DIMALTZ
 70
     0
  9
$DIMALTTZ
 70
     0
  9
$DIMUPT
 70
     0
  9
$DIMDEC
 70
     2
  9
$DIMTDEC
 70
     2
  9
$DIMALTU
 70
     2
  9
$DIMALTTD
 70
     2
  9
$DIMTXSTY
  7
STANDARD
  9
$DIMAUNIT
 70
     0
  9
$DIMADEC
 70
     0
  9
$DIMALTRND
 40
0.0
  9
$DIMAZIN
 70
     0
  9
$DIMDSEP
 70
    46
  9
$DIMATFIT
 70
     3
  9
$DIMFRAC
 70
     0
  9
$DIMLDRBLK
  1

  9
$DIMLUNIT
 70
     2
  9
$DIMLWD
 70
    -2
  9
$DIMLWE
 70
    -2
  9
$DIMTMOVE
 70
     2
  9
$DIMFXL
 40
1.0
  9
$DIMFXLON
 70
     0
  9
$DIMJOGANG
 40
0.7853981633974483
  9
$DIMTFILL
 70
     0
  9
$DIMTFILLCLR
 70
     0
  9
$DIMARCSYM
 70
     0
  9
$DIMLTYPE
  6

  9
$DIMLTEX1
  6

  9
$DIMLTEX2
  6

  9
$DIMTXTDIRECTION
 70
     0
  9
$LUNITS
 70
     2
  9
$LUPREC
 70
     2
  9
$SKETCHINC
 40
1.0
  9
$FILLETRAD
 40
0.0
  9
$AUNITS
 70
     0
  9
$AUPREC
 70
     0
  9
$MENU
  1
ACAD
  9
$ELEVATION
 40
0.0
  9
$PELEVATION
 40
0.0
  9
$THICKNESS
 40
0.0
  9
$LIMCHECK
 70
     0
  9
$CHAMFERA
 40
0.0
  9
$CHAMFERB
 40
0.0
  9
$CHAMFERC
 40
0.0
  9
$CHAMFERD
 40
0.0
  9
$SKPOLY
 70
     0
  9
$TDCREATE
 40
2450567.642341551
  9
$TDUCREATE
 40
2450567.559008217
  9
$TDUPDATE
 40
2459796.510694595
  9
$TDUUPDATE
 40
2459796.427361262
  9
$TDINDWG
 40
0.0028021644
  9
$TDUSRTIMER
 40
0.0028021644
  9
$USRTIMER
 70
     1
  9
$ANGBASE
 50
0.0
  9
$ANGDIR
 70
     0
  9
$PDMODE
 70
     0
  9
$PDSIZE
 40
0.0
  9
$PLINEWID
 40
0.0
  9
$SPLFRAME
 70
     0
  9
$SPLINETYPE
 70
     6
  9
$SPLINESEGS
 70
     8
  9
$HANDSEED
  5
5B5
  9
$SURFTAB1
 70
     6
  9
$SURFTAB2
 70
     6
  9
$SURFTYPE
 70
     6
  9
$SURFU
 70
     6
  9
$SURFV
 70
     6
  9
$UCSBASE
  2

  9
$UCSNAME
  2

  9
$UCSORG
 10
0.0
 20
0.0
 30
0.0
  9
$UCSXDIR
 10
1.0
 20
0.0
 30
0.0
  9
$UCSYDIR
 10
0.0
 20
1.0
 30
0.0
  9
$UCSORTHOREF
  2

  9
$UCSORTHOVIEW
 70
     0
  9
$UCSORGTOP
 10
0.0
 20
0.0
 30
0.0
  9
$UCSORGBOTTOM
 10
0.0
 20
0.0
 30
0.0
  9
$UCSORGLEFT
 10
0.0
 20
0.0
 30
0.0
  9
$UCSORGRIGHT
 10
0.0
 20
0.0
 30
0.0
  9
$UCSORGFRONT
 10
0.0
 20
0.0
 30
0.0
  9
$UCSORGBACK
 10
0.0
 20
0.0
 30
0.0
  9
$PUCSBASE
  2

  9
$PUCSNAME
  2

  9
$PUCSORG
 10
0.0
 20
0.0
 30
0.0
  9
$PUCSXDIR
 10
1.0
 20
0.0
 30
0.0
  9
$PUCSYDIR
 10
0.0
 20
1.0
 30
0.0
  9
$PUCSORTHOREF
  2

  9
$PUCSORTHOVIEW
 70
     0
  9
$PUCSORGTOP
 10
0.0
 20
0.0
 30
0.0
  9
$PUCSORGBOTTOM
 10
0.0
 20
0.0
 30
0.0
  9
$PUCSORGLEFT
 10
0.0
 20
0.0
 30
0.0
  9
$PUCSORGRIGHT
 10
0.0
 20
0.0
 30
0.0
  9
$PUCSORGFRONT
 10
0.0
 20
0.0
 30
0.0
  9
$PUCSORGBACK
 10
0.0
 20
0.0
 30
0.0
  9
$USERI1
 70
     0
  9
$USERI2
 70
     0
  9
$USERI3
 70
     0
  9
$USERI4
 70
     0
  9
$USERI5
 70
     0
  9
$USERR1
 40
0.0
  9
$USERR2
 40
0.0
  9
$USERR3
 40
0.0
  9
$USERR4
 40
0.0
  9
$USERR5
 40
0.0
  9
$WORLDVIEW
 70
     1
  9
$SHADEDGE
 70
     3
  9
$SHADEDIF
 70
    70
  9
$TILEMODE
 70
     1
  9
$MAXACTVP
 70
    16
  9
$PINSBASE
 10
0.0
 20
0.0
 30
0.0
  9
$PLIMCHECK
 70
     0
  9
$PEXTMIN
 10
1.000000000000000E+20
 20
1.000000000000000E+20
 30
1.000000000000000E+20
  9
$PEXTMAX
 10
-1.000000000000000E+20
 20
-1.000000000000000E+20
 30
-1.000000000000000E+20
  9
$PLIMMIN
 10
0.0
 20
0.0
  9
$PLIMMAX
 10
12.0
 20
9.0
  9
$UNITMODE
 70
     0
  9
$VISRETAIN
 70
     0
  9
$PLINEGEN
 70
     0
  9
$PSLTSCALE
 70
     0
  9
$TREEDEPTH
 70
  3020
  9
$CMLSTYLE
  2
Standard
  9
$CMLJUST
 70
     0
  9
$CMLSCALE
 40
1.0
  9
$PROXYGRAPHICS
 70
     1
  9
$MEASUREMENT
 70
     0
  9
$CELWEIGHT
370
    -1
  9
$ENDCAPS
280
     0
  9
$JOINSTYLE
280
     0
  9
$LWDISPLAY
290
     0
  9
$INSUNITS
 70
     6
  9
$HYPERLINKBASE
  1

  9
$STYLESHEET
  1

  9
$XEDIT
290
     1
  9
$CEPSNTYPE
380
     0
  9
$PSTYLEMODE
290
     1
  9
$FINGERPRINTGUID
  2
{3D7C4149-F1DD-495B-A5EA-CF7B456A6B3A}
  9
$VERSIONGUID
  2
{2B4129AC-8F4E-4689-8808-C709D328C324}
  9
$EXTNAMES
290
     1
  9
$PSVPSCALE
 40
0.0
  9
$OLESTARTUP
290
     0
  9
$SORTENTS
280
   127
  9
$INDEXCTL
280
     0
  9
$HIDETEXT
280
     1
  9
$XCLIPFRAME
280
     2
  9
$HALOGAP
280
     0
  9
$OBSCOLOR
 70
   257
  9
$OBSLTYPE
280
     0
  9
$INTERSECTIONDISPLAY
280
     0
  9
$INTERSECTIONCOLOR
 70
   257
  9
$DIMASSOC
280
     2
  9
$PROJECTNAME
  1

  9
$CAMERADISPLAY
290
     0
  9
$LENSLENGTH
 40
50.0
  9
$CAMERAHEIGHT
 40
0.0
  9
$STEPSPERSEC
 40
2.0
  9
$STEPSIZE
 40
6.0
  9
$3DDWFPREC
 40
2.0
  9
$PSOLWIDTH
 40
0.25
  9
$PSOLHEIGHT
 40
4.0
  9
$LOFTANG1
 40
1.570796326794896
  9
$LOFTANG2
 40
1.570796326794896
  9
$LOFTMAG1
 40
0.0
  9
$LOFTMAG2
 40
0.0
  9
$LOFTPARAM
 70
     7
  9
$LOFTNORMALS
280
     1
  9
$LATITUDE
 40
37.795
  9
$LONGITUDE
 40
-122.394
  9
$NORTHDIRECTION
 40
0.0
  9
$TIMEZONE
 70
 -8000
  9
$LIGHTGLYPHDISPLAY
280
     1
  9
$TILEMODELIGHTSYNCH
280
     1
  9
$CMATERIAL
347
11
  9
$SOLIDHIST
280
     0
  9
$SHOWHIST
280
     1
  9
$DWFFRAME
280
     2
  9
$DGNFRAME
280
     0
  9
$REALWORLDSCALE
290
     1
  9
$INTERFERECOLOR
 62
     1
  9
$INTERFEREOBJVS
345
33
  9
$INTERFEREVPVS
346
30
  9
$CSHADOW
280
     0
  9
$SHADOWPLANELOCATION
 40
0.0
  0
ENDSEC
  0
SECTION
  2
CLASSES
  0
CLASS
  1
ACDBDICTIONARYWDFLT
  2
AcDbDictionaryWithDefault
  3
ObjectDBX Classes
 90
        0
 91
        1
280
     0
281
     0
  0
CLASS
  1
MATERIAL
  2
AcDbMaterial
  3
ObjectDBX Classes
 90
     1153
 91
        3
280
     0
281
     0
  0
CLASS
  1
VISUALSTYLE
  2
AcDbVisualStyle
  3
ObjectDBX Classes
 90
     4095
 91
       24
280
     0
281
     0
  0
CLASS
  1
SCALE
  2
AcDbScale
  3
ObjectDBX Classes
 90
     1153
 91
       17
280
     0
281
     0
  0
CLASS
  1
TABLESTYLE
  2
AcDbTableStyle
  3
ObjectDBX Classes
 90
     4095
 91
        1
280
     0
281
     0
  0
CLASS
  1
MLEADERSTYLE
  2
AcDbMLeaderStyle
  3
ACDB_MLEADERSTYLE_CLASS
 90
     4095
 91
        1
280
     0
281
     0
  0
CLASS
  1
ACDBSECTIONVIEWSTYLE
  2
AcDbSectionViewStyle
  3
ObjectDBX Classes
 90
     1025
 91
        1
280
     0
281
     0
  0
CLASS
  1
ACDBDETAILVIEWSTYLE
  2
AcDbDetailViewStyle
  3
ObjectDBX Classes
 90
     1025
 91
        1
280
     0
281
     0
  0
CLASS
  1
DICTIONARYVAR
  2
AcDbDictionaryVar
  3
ObjectDBX Classes
 90
        0
 91
        5
280
     0
281
     0
  0
CLASS
  1
CELLSTYLEMAP
  2
AcDbCellStyleMap
  3
ObjectDBX Classes
 90
     1152
 91
        1
280
     0
281
     0
  0
ENDSEC
  0
SECTION
  2
TABLES
  0
TABLE
  2
VPORT
  5
8
330
0
100
AcDbSymbolTable
 70
     1
  0
VPORT
  5
8F
330
8
100
AcDbSymbolTableRecord
100
AcDbViewportTableRecord
  2
*ACTIVE
 70
     0
 10
0.0
 20
0.0
 11
1.0
 21
1.0
 12
1.065597902919755
 22
-19.91040806408274
 13
0.0
 23
0.0
 14
5.0
 24
5.0
 15
100.0
 25
100.0
 16
0.0
 26
0.0
 36
1.0
 17
0.0
 27
0.0
 37
0.0
 40
2.195273500660256
 41
1.649386084583901
 42
50.0
 43
0.0
 44
0.0
 50
0.0
 51
0.0
 71
     0
 72
   100
 73
     1
 74
     0
 75
     0
 76
     1
 77
     0
 78
     0
281
     0
 65
     1
110
0.0
120
0.0
130
0.0
111
1.0
121
0.0
131
0.0
112
0.0
122
1.0
132
0.0
 79
     0
146
0.0
348
2F
 60
     3
 61
     5
292
     1
282
     0
141
0.0
142
0.0
 63
   250
421
  3355443
1001
ACAD_NAV_VCDISPLAY
1070
     3
  0
ENDTAB
  0
TABLE
  2
LTYPE
  5
5
330
0
100
AcDbSymbolTable
 70
    25
  0
LTYPE
  5
5A
330
5
100
AcDbSymbolTableRecord
100
AcDbLinetypeTableRecord
  2
ByBlock
 70
     0
  3

 72
    65
 73
     0
 40
0.0
  0
LTYPE
  5
5B
330
5
100
AcDbSymbolTableRecord
100
AcDbLinetypeTableRecord
  2
ByLayer
 70
     0
  3

 72
    65
 73
     0
 40
0.0
  0
LTYPE
  5
5C
330
5
100
AcDbSymbolTableRecord
100
AcDbLinetypeTableRecord
  2
CONTINUOUS
 70
     0
  3
Ausgezogene Linie
 72
    65
 73
     0
 40
0.0
  0
LTYPE
  5
76
330
5
100
AcDbSymbolTableRecord
100
AcDbLinetypeTableRecord
  2
RAND
 70
     0
  3
__ __ . __ __ . __ __ . __ __ . __ __ . __ __ .
 72
    65
 73
     6
 40
1.75
 49
0.5
 74
     0
 49
-0.25
 74
     0
 49
0.5
 74
     0
 49
-0.25
 74
     0
 49
0.0
 74
     0
 49
-0.25
 74
     0
  0
LTYPE
  5
77
330
5
100
AcDbSymbolTableRecord
100
AcDbLinetypeTableRecord
  2
RAND2
 70
     0
  3
__.__.__.__.__.__.__.__.__.__.__.__.__.__.__.__
 72
    65
 73
     6
 40
0.875
 49
0.25
 74
     0
 49
-0.125
 74
     0
 49
0.25
 74
     0
 49
-0.125
 74
     0
 49
0.0
 74
     0
 49
-0.125
 74
     0
  0
LTYPE
  5
78
330
5
100
AcDbSymbolTableRecord
100
AcDbLinetypeTableRecord
  2
RANDX2
 70
     0
  3
____  ____  .  ____  ____  .  ____  ____  .  __
 72
    65
 73
     6
 40
3.5
 49
1.0
 74
     0
 49
-0.5
 74
     0
 49
1.0
 74
     0
 49
-0.5
 74
     0
 49
0.0
 74
     0
 49
-0.5
 74
     0
  0
LTYPE
  5
79
330
5
100
AcDbSymbolTableRecord
100
AcDbLinetypeTableRecord
  2
MITTE
 70
     0
  3
____ _ ____ _ ____ _ ____ _ ____ _ ____ _ ____ 
 72
    65
 73
     4
 40
2.0
 49
1.25
 74
     0
 49
-0.25
 74
     0
 49
0.25
 74
     0
 49
-0.25
 74
     0
  0
LTYPE
  5
7A
330
5
100
AcDbSymbolTableRecord
100
AcDbLinetypeTableRecord
  2
MITTE2
 70
     0
  3
___ _ ___ _ ___ _ ___ _ ___ _ ___ _ ___ _ ___ _
 72
    65
 73
     4
 40
1.125
 49
0.75
 74
     0
 49
-0.125
 74
     0
 49
0.125
 74
     0
 49
-0.125
 74
     0
  0
LTYPE
  5
7B
330
5
100
AcDbSymbolTableRecord
100
AcDbLinetypeTableRecord
  2
MITTEX2
 70
     0
  3
________  __  ________  __  ________  __  _____
 72
    65
 73
     4
 40
4.0
 49
2.5
 74
     0
 49
-0.5
 74
     0
 49
0.5
 74
     0
 49
-0.5
 74
     0
  0
LTYPE
  5
7C
330
5
100
AcDbSymbolTableRecord
100
AcDbLinetypeTableRecord
  2
STRICHPUNKT
 70
     0
  3
__ . __ . __ . __ . __ . __ . __ . __ . __ . __
 72
    65
 73
     4
 40
1.0
 49
0.5
 74
     0
 49
-0.25
 74
     0
 49
0.0
 74
     0
 49
-0.25
 74
     0
  0
LTYPE
  5
7D
330
5
100
AcDbSymbolTableRecord
100
AcDbLinetypeTableRecord
  2
STRICHPUNKT2
 70
     0
  3
_._._._._._._._._._._._._._._._._._._._._._._._
 72
    65
 73
     4
 40
0.5
 49
0.25
 74
     0
 49
-0.125
 74
     0
 49
0.0
 74
     0
 49
-0.125
 74
     0
  0
LTYPE
  5
7E
330
5
100
AcDbSymbolTableRecord
100
AcDbLinetypeTableRecord
  2
STRICHPUNKTX2
 70
     0
  3
____  .  ____  .  ____  .  ____  .  ____  .  __
 72
    65
 73
     4
 40
2.0
 49
1.0
 74
     0
 49
-0.5
 74
     0
 49
0.0
 74
     0
 49
-0.5
 74
     0
  0
LTYPE
  5
7F
330
5
100
AcDbSymbolTableRecord
100
AcDbLinetypeTableRecord
  2
GESTRICHELT
 70
     0
  3
__ __ __ __ __ __ __ __ __ __ __ __ __ __ __ __
 72
    65
 73
     2
 40
0.75
 49
0.5
 74
     0
 49
-0.25
 74
     0
  0
LTYPE
  5
80
330
5
100
AcDbSymbolTableRecord
100
AcDbLinetypeTableRecord
  2
GESTRICHELT2
 70
     0
  3
_ _ _ _ _ _ _ _ _ _ _ _ _ _ _ _ _ _ _ _ _ _ _ _
 72
    65
 73
     2
 40
0.375
 49
0.25
 74
     0
 49
-0.125
 74
     0
  0
LTYPE
  5
81
330
5
100
AcDbSymbolTableRecord
100
AcDbLinetypeTableRecord
  2
GESTRICHELTX2
 70
     0
  3
____  ____  ____  ____  ____  ____  ____  ____ 
 72
    65
 73
     2
 40
1.5
 49
1.0
 74
     0
 49
-0.5
 74
     0
  0
LTYPE
  5
82
330
5
100
AcDbSymbolTableRecord
100
AcDbLinetypeTableRecord
  2
GETRENNT
 70
     0
  3
____ . . ____ . . ____ . . ____ . . ____ . . __
 72
    65
 73
     6
 40
1.25
 49
0.5
 74
     0
 49
-0.25
 74
     0
 49
0.0
 74
     0
 49
-0.25
 74
     0
 49
0.0
 74
     0
 49
-0.25
 74
     0
  0
LTYPE
  5
83
330
5
100
AcDbSymbolTableRecord
100
AcDbLinetypeTableRecord
  2
GETRENNT2
 70
     0
  3
__..__..__..__..__..__..__..__..__..__..__..__.
 72
    65
 73
     6
 40
0.625
 49
0.25
 74
     0
 49
-0.125
 74
     0
 49
0.0
 74
     0
 49
-0.125
 74
     0
 49
0.0
 74
     0
 49
-0.125
 74
     0
  0
LTYPE
  5
84
330
5
100
AcDbSymbolTableRecord
100
AcDbLinetypeTableRecord
  2
GETRENNTX2
 70
     0
  3
________  .  .  ________  .  .  ________  .  . 
 72
    65
 73
     6
 40
2.5
 49
1.0
 74
     0
 49
-0.5
 74
     0
 49
0.0
 74
     0
 49
-0.5
 74
     0
 49
0.0
 74
     0
 49
-0.5
 74
     0
  0
LTYPE
  5
85
330
5
100
AcDbSymbolTableRecord
100
AcDbLinetypeTableRecord
  2
PUNKT
 70
     0
  3
. . . . . . . . . . . . . . . . . . . . . . . .
 72
    65
 73
     2
 40
0.25
 49
0.0
 74
     0
 49
-0.25
 74
     0
  0
LTYPE
  5
86
330
5
100
AcDbSymbolTableRecord
100
AcDbLinetypeTableRecord
  2
PUNKT2
 70
     0
  3
...............................................
 72
    65
 73
     2
 40
0.125
 49
0.0
 74
     0
 49
-0.125
 74
     0
  0
LTYPE
  5
87
330
5
100
AcDbSymbolTableRecord
100
AcDbLinetypeTableRecord
  2
PUNKTX2
 70
     0
  3
.  .  .  .  .  .  .  .  .  .  .  .  .  .  .  . 
 72
    65
 73
     2
 40
0.5
 49
0.0
 74
     0
 49
-0.5
 74
     0
  0
LTYPE
  5
88
330
5
100
AcDbSymbolTableRecord
100
AcDbLinetypeTableRecord
  2
VERDECKT
 70
     0
  3
__ __ __ __ __ __ __ __ __ __ __ __ __ __ __ __
 72
    65
 73
     2
 40
0.375
 49
0.25
 74
     0
 49
-0.125
 74
     0
  0
LTYPE
  5
89
330
5
100
AcDbSymbolTableRecord
100
AcDbLinetypeTableRecord
  2
VERDECKT2
 70
     0
  3
_ _ _ _ _ _ _ _ _ _ _ _ _ _ _ _ _ _ _ _ _ _ _ _
 72
    65
 73
     2
 40
0.1875
 49
0.125
 74
     0
 49
-0.0625
 74
     0
  0
LTYPE
  5
8A
330
5
100
AcDbSymbolTableRecord
100
AcDbLinetypeTableRecord
  2
VERDECKTX2
 70
     0
  3
____ ____ ____ ____ ____ ____ ____ ____ ____ __
 72
    65
 73
     2
 40
0.75
 49
0.5
 74
     0
 49
-0.25
 74
     0
  0
LTYPE
  5
8B
330
5
100
AcDbSymbolTableRecord
100
AcDbLinetypeTableRecord
  2
PHANTOM
 70
     0
  3
______  __  __  ______  __  __  ______  __  __ 
 72
    65
 73
     6
 40
2.5
 49
1.25
 74
     0
 49
-0.25
 74
     0
 49
0.25
 74
     0
 49
-0.25
 74
     0
 49
0.25
 74
     0
 49
-0.25
 74
     0
  0
LTYPE
  5
8C
330
5
100
AcDbSymbolTableRecord
100
AcDbLinetypeTableRecord
  2
PHANTOM2
 70
     0
  3
___ _ _ ___ _ _ ___ _ _ ___ _ _ ___ _ _ ___ _ _
 72
    65
 73
     6
 40
1.25
 49
0.625
 74
     0
 49
-0.125
 74
     0
 49
0.125
 74
     0
 49
-0.125
 74
     0
 49
0.125
 74
     0
 49
-0.125
 74
     0
  0
LTYPE
  5
8D
330
5
100
AcDbSymbolTableRecord
100
AcDbLinetypeTableRecord
  2
PHANTOMX2
 70
     0
  3
____________    ____    ____    ____________   
 72
    65
 73
     6
 40
5.0
 49
2.5
 74
     0
 49
-0.5
 74
     0
 49
0.5
 74
     0
 49
-0.5
 74
     0
 49
0.5
 74
     0
 49
-0.5
 74
     0
  0
ENDTAB
  0
TABLE
  2
LAYER
  5
2
102
{ACAD_XDICTIONARY
360
50D
102
}
330
0
100
AcDbSymbolTable
 70
    10
  0
LAYER
  5
54
330
2
100
AcDbSymbolTableRecord
100
AcDbLayerTableRecord
  2
0
 70
     0
 62
     7
  6
CONTINUOUS
370
    -3
390
F
347
21
348
0
  0
LAYER
  5
90
330
2
100
AcDbSymbolTableRecord
100
AcDbLayerTableRecord
  2
GRABUNGSGRENZE
 70
     0
 62
     3
  6
STRICHPUNKTX2
370
    -3
390
F
347
21
348
0
  0
LAYER
  5
91
330
2
100
AcDbSymbolTableRecord
100
AcDbLayerTableRecord
  2
BEFUND
 70
     0
 62
     1
  6
CONTINUOUS
370
    -3
390
F
347
21
348
0
  0
LAYER
  5
92
330
2
100
AcDbSymbolTableRecord
100
AcDbLayerTableRecord
  2
STEINE
 70
     0
 62
     4
  6
CONTINUOUS
370
    -3
390
F
347
21
348
0
  0
LAYER
  5
93
330
2
100
AcDbSymbolTableRecord
100
AcDbLayerTableRecord
  2
KNOCHEN
 70
     0
 62
     2
  6
CONTINUOUS
370
    -3
390
F
347
21
348
0
  0
LAYER
  5
94
330
2
100
AcDbSymbolTableRecord
100
AcDbLayerTableRecord
  2
BEFUND_UNSICHER
 70
     0
 62
     1
  6
GESTRICHELT
370
    -3
390
F
347
21
348
0
  0
LAYER
  5
95
330
2
100
AcDbSymbolTableRecord
100
AcDbLayerTableRecord
  2
FEUER
 70
     0
 62
     1
  6
CONTINUOUS
370
    -3
390
F
347
21
348
0
  0
LAYER
  5
96
330
2
100
AcDbSymbolTableRecord
100
AcDbLayerTableRecord
  2
KNOCHENSCHRAFF
 70
     0
 62
     2
  6
CONTINUOUS
370
    -3
390
F
347
21
348
0
  0
LAYER
  5
97
330
2
100
AcDbSymbolTableRecord
100
AcDbLayerTableRecord
  2
TPROFIL
 70
     0
 62
     3
  6
CONTINUOUS
370
    -3
390
F
347
21
348
0
  0
LAYER
  5
98
330
2
100
AcDbSymbolTableRecord
100
AcDbLayerTableRecord
  2
STEINESCHRAFF
 70
     0
 62
     4
  6
CONTINUOUS
370
    -3
390
F
347
21
348
0
  0
ENDTAB
  0
TABLE
  2
STYLE
  5
3
330
0
100
AcDbSymbolTable
 70
     2
  0
STYLE
  5
55
330
3
100
AcDbSymbolTableRecord
100
AcDbTextStyleTableRecord
  2
STANDARD
 70
     0
 40
0.0
 41
1.0
 50
0.0
 71
     0
 42
3.5
  3
txt.shx
  4

  0
STYLE
  5
59
330
3
100
AcDbSymbolTableRecord
100
AcDbTextStyleTableRecord
  2
Annotative
 70
     0
 40
0.0
 41
1.0
 50
0.0
 71
     0
 42
3.5
  3
txt
  4

1001
AcadAnnotative
1000
AnnotativeData
1002
{
1070
     1
1070
     1
1002
}
  0
ENDTAB
  0
TABLE
  2
VIEW
  5
6
330
0
100
AcDbSymbolTable
 70
     1
  0
ENDTAB
  0
TABLE
  2
UCS
  5
7
330
0
100
AcDbSymbolTable
 70
     0
  0
ENDTAB
  0
TABLE
  2
APPID
  5
9
330
0
100
AcDbSymbolTable
 70
     3
  0
APPID
  5
56
330
9
100
AcDbSymbolTableRecord
100
AcDbRegAppTableRecord
  2
ACAD
 70
     0
  0
APPID
  5
5D
330
9
100
AcDbSymbolTableRecord
100
AcDbRegAppTableRecord
  2
AcadAnnotative
 70
     0
  0
APPID
  5
513
330
9
100
AcDbSymbolTableRecord
100
AcDbRegAppTableRecord
  2
ACAD_NAV_VCDISPLAY
 70
     0
  0
ENDTAB
  0
TABLE
  2
DIMSTYLE
  5
A
330
0
100
AcDbSymbolTable
 70
     2
100
AcDbDimStyleTable
 71
     0
  0
DIMSTYLE
105
57
330
A
100
AcDbSymbolTableRecord
100
AcDbDimStyleTableRecord
  2
Standard
 70
     0
340
55
  0
DIMSTYLE
105
58
330
A
100
AcDbSymbolTableRecord
100
AcDbDimStyleTableRecord
  2
Annotative
 70
     0
340
55
1001
AcadAnnotative
1000
AnnotativeData
1002
{
1070
     1
1070
     1
1002
}
  0
ENDTAB
  0
TABLE
  2
BLOCK_RECORD
  5
1
330
0
100
AcDbSymbolTable
 70
     2
  0
BLOCK_RECORD
  5
6F
330
1
100
AcDbSymbolTableRecord
100
AcDbBlockTableRecord
  2
*Model_Space
340
72
 70
     0
280
     1
281
     0
  0
BLOCK_RECORD
  5
6B
330
1
100
AcDbSymbolTableRecord
100
AcDbBlockTableRecord
  2
*Paper_Space
340
6E
 70
     0
280
     1
281
     0
  0
BLOCK_RECORD
  5
73
330
1
100
AcDbSymbolTableRecord
100
AcDbBlockTableRecord
  2
TPFEIL
340
0
 70
     0
280
     1
281
     0
  0
BLOCK_RECORD
  5
75
330
1
100
AcDbSymbolTableRecord
100
AcDbBlockTableRecord
  2
*X1
340
0
102
{BLKREFS
331
506
102
}
 70
     0
280
     1
281
     0
  0
ENDTAB
  0
ENDSEC
  0
SECTION
  2
BLOCKS
  0
BLOCK
  5
9B
330
6F
100
AcDbEntity
  8
0
100
AcDbBlockBegin
  2
*Model_Space
 70
     0
 10
0.0
 20
0.0
 30
0.0
  3
*Model_Space
  1

  0
ENDBLK
  5
9C
330
6F
100
AcDbEntity
  8
0
100
AcDbBlockEnd
  0
BLOCK
  5
99
330
6B
100
AcDbEntity
 67
     1
  8
0
100
AcDbBlockBegin
  2
*Paper_Space
 70
     0
 10
0.0
 20
0.0
 30
0.0
  3
*Paper_Space
  1

  0
ENDBLK
  5
9A
330
6B
100
AcDbEntity
 67
     1
  8
0
100
AcDbBlockEnd
  0
BLOCK
  5
9D
330
73
100
AcDbEntity
  8
0
100
AcDbBlockBegin
  2
TPFEIL
 70
     0
 10
0.0
 20
0.0
 30
0.0
  3
TPFEIL
  1

  0
LWPOLYLINE
  5
9E
330
73
100
AcDbEntity
  8
GRABUNGSGRENZE
100
AcDbPolyline
 90
        2
 70
     0
 10
0.0
 20
-10.0
 40
5.0
 41
0.0
 10
0.0
 20
0.0
 40
0.0
 41
0.0
  0
ENDBLK
  5
A2
330
73
100
AcDbEntity
  8
0
100
AcDbBlockEnd
  0
BLOCK
  5
A3
330
75
100
AcDbEntity
  8
0
100
AcDbBlockBegin
  2
*X1
 70
     1
 10
0.0
 20
0.0
 30
0.0
  3
*X1
  1

  0
LINE
  5
A4
330
75
100
AcDbEntity
  8
0
 62
     0
100
AcDbLine
 10
-7.499999999999989
 20
-1950.0
 30
0.0
 11
-7.499999999999989
 21
-1950.0
 31
0.0
  0
LINE
  5
A5
330
75
100
AcDbEntity
  8
0
 62
     0
100
AcDbLine
 10
-6.249999999999989
 20
-1950.0
 30
0.0
 11
-6.249999999999989
 21
-1950.0
 31
0.0
  0
LINE
  5
A6
330
75
100
AcDbEntity
  8
0
 62
     0
100
AcDbLine
 10
-4.999999999999989
 20
-1950.0
 30
0.0
 11
-4.999999999999989
 21
-1950.0
 31
0.0
  0
LINE
  5
A7
330
75
100
AcDbEntity
  8
0
 62
     0
100
AcDbLine
 10
-3.749999999999989
 20
-1950.0
 30
0.0
 11
-3.749999999999989
 21
-1950.0
 31
0.0
  0
LINE
  5
A8
330
75
100
AcDbEntity
  8
0
 62
     0
100
AcDbLine
 10
-2.499999999999989
 20
-1950.0
 30
0.0
 11
-2.499999999999989
 21
-1950.0
 31
0.0
  0
LINE
  5
A9
330
75
100
AcDbEntity
  8
0
 62
     0
100
AcDbLine
 10
-1.249999999999989
 20
-1950.0
 30
0.0
 11
-1.249999999999989
 21
-1950.0
 31
0.0
  0
LINE
  5
AA
330
75
100
AcDbEntity
  8
0
 62
     0
100
AcDbLine
 10
0.0000000000000107
 20
-1950.0
 30
0.0
 11
0.0000000000000107
 21
-1950.0
 31
0.0
  0
LINE
  5
AB
330
75
100
AcDbEntity
  8
0
 62
     0
100
AcDbLine
 10
1.25000000000001
 20
-1950.0
 30
0.0
 11
1.25000000000001
 21
-1950.0
 31
0.0
  0
LINE
  5
AC
330
75
100
AcDbEntity
  8
0
 62
     0
100
AcDbLine
 10
2.50000000000001
 20
-1950.0
 30
0.0
 11
2.50000000000001
 21
-1950.0
 31
0.0
  0
LINE
  5
AD
330
75
100
AcDbEntity
  8
0
 62
     0
100
AcDbLine
 10
3.75000000000001
 20
-1950.0
 30
0.0
 11
3.75000000000001
 21
-1950.0
 31
0.0
  0
LINE
  5
AE
330
75
100
AcDbEntity
  8
0
 62
     0
100
AcDbLine
 10
5.00000000000001
 20
-1950.0
 30
0.0
 11
5.00000000000001
 21
-1950.0
 31
0.0
  0
LINE
  5
AF
330
75
100
AcDbEntity
  8
0
 62
     0
100
AcDbLine
 10
6.25000000000001
 20
-1950.0
 30
0.0
 11
6.25000000000001
 21
-1950.0
 31
0.0
  0
LINE
  5
B0
330
75
100
AcDbEntity
  8
0
 62
     0
100
AcDbLine
 10
7.499999999999984
 20
-1950.0
 30
0.0
 11
7.499999999999984
 21
-1950.0
 31
0.0
  0
LINE
  5
B1
330
75
100
AcDbEntity
  8
0
 62
     0
100
AcDbLine
 10
8.749999999999984
 20
-1950.0
 30
0.0
 11
8.749999999999984
 21
-1950.0
 31
0.0
  0
LINE
  5
B2
330
75
100
AcDbEntity
  8
0
 62
     0
100
AcDbLine
 10
9.999999999999984
 20
-1950.0
 30
0.0
 11
9.999999999999984
 21
-1950.0
 31
0.0
  0
LINE
  5
B3
330
75
100
AcDbEntity
  8
0
 62
     0
100
AcDbLine
 10
11.24999999999998
 20
-1950.0
 30
0.0
 11
11.24999999999998
 21
-1950.0
 31
0.0
  0
LINE
  5
B4
330
75
100
AcDbEntity
  8
0
 62
     0
100
AcDbLine
 10
12.49999999999998
 20
-1950.0
 30
0.0
 11
12.49999999999998
 21
-1950.0
 31
0.0
  0
LINE
  5
B5
330
75
100
AcDbEntity
  8
0
 62
     0
100
AcDbLine
 10
13.74999999999998
 20
-1950.0
 30
0.0
 11
13.74999999999998
 21
-1950.0
 31
0.0
  0
LINE
  5
B6
330
75
100
AcDbEntity
  8
0
 62
     0
100
AcDbLine
 10
14.99999999999998
 20
-1950.0
 30
0.0
 11
14.99999999999998
 21
-1950.0
 31
0.0
  0
LINE
  5
B7
330
75
100
AcDbEntity
  8
0
 62
     0
100
AcDbLine
 10
16.24999999999998
 20
-1950.0
 30
0.0
 11
16.24999999999998
 21
-1950.0
 31
0.0
  0
LINE
  5
B8
330
75
100
AcDbEntity
  8
0
 62
     0
100
AcDbLine
 10
17.49999999999998
 20
-1950.0
 30
0.0
 11
17.49999999999998
 21
-1950.0
 31
0.0
  0
LINE
  5
B9
330
75
100
AcDbEntity
  8
0
 62
     0
100
AcDbLine
 10
18.74999999999998
 20
-1950.0
 30
0.0
 11
18.74999999999998
 21
-1950.0
 31
0.0
  0
LINE
  5
BA
330
75
100
AcDbEntity
  8
0
 62
     0
100
AcDbLine
 10
19.99999999999998
 20
-1950.0
 30
0.0
 11
19.99999999999998
 21
-1950.0
 31
0.0
  0
LINE
  5
BB
330
75
100
AcDbEntity
  8
0
 62
     0
100
AcDbLine
 10
21.24999999999999
 20
-1950.0
 30
0.0
 11
21.24999999999999
 21
-1950.0
 31
0.0
  0
LINE
  5
BC
330
75
100
AcDbEntity
  8
0
 62
     0
100
AcDbLine
 10
22.49999999999999
 20
-1950.0
 30
0.0
 11
22.49999999999999
 21
-1950.0
 31
0.0
  0
LINE
  5
BD
330
75
100
AcDbEntity
  8
0
 62
     0
100
AcDbLine
 10
23.74999999999999
 20
-1950.0
 30
0.0
 11
23.74999999999999
 21
-1950.0
 31
0.0
  0
LINE
  5
BE
330
75
100
AcDbEntity
  8
0
 62
     0
100
AcDbLine
 10
24.99999999999999
 20
-1950.0
 30
0.0
 11
24.99999999999999
 21
-1950.0
 31
0.0
  0
LINE
  5
BF
330
75
100
AcDbEntity
  8
0
 62
     0
100
AcDbLine
 10
26.24999999999999
 20
-1950.0
 30
0.0
 11
26.24999999999999
 21
-1950.0
 31
0.0
  0
LINE
  5
C0
330
75
100
AcDbEntity
  8
0
 62
     0
100
AcDbLine
 10
27.49999999999999
 20
-1950.0
 30
0.0
 11
27.49999999999999
 21
-1950.0
 31
0.0
  0
LINE
  5
C1
330
75
100
AcDbEntity
  8
0
 62
     0
100
AcDbLine
 10
28.74999999999999
 20
-1950.0
 30
0.0
 11
28.74999999999999
 21
-1950.0
 31
0.0
  0
LINE
  5
C2
330
75
100
AcDbEntity
  8
0
 62
     0
100
AcDbLine
 10
29.99999999999999
 20
-1950.0
 30
0.0
 11
29.99999999999999
 21
-1950.0
 31
0.0
  0
LINE
  5
C3
330
75
100
AcDbEntity
  8
0
 62
     0
100
AcDbLine
 10
31.24999999999999
 20
-1950.0
 30
0.0
 11
31.24999999999999
 21
-1950.0
 31
0.0
  0
LINE
  5
C4
330
75
100
AcDbEntity
  8
0
 62
     0
100
AcDbLine
 10
32.49999999999999
 20
-1950.0
 30
0.0
 11
32.49999999999999
 21
-1950.0
 31
0.0
  0
LINE
  5
C5
330
75
100
AcDbEntity
  8
0
 62
     0
100
AcDbLine
 10
33.74999999999999
 20
-1950.0
 30
0.0
 11
33.74999999999999
 21
-1950.0
 31
0.0
  0
LINE
  5
C6
330
75
100
AcDbEntity
  8
0
 62
     0
100
AcDbLine
 10
34.99999999999999
 20
-1950.0
 30
0.0
 11
34.99999999999999
 21
-1950.0
 31
0.0
  0
LINE
  5
C7
330
75
100
AcDbEntity
  8
0
 62
     0
100
AcDbLine
 10
36.24999999999999
 20
-1950.0
 30
0.0
 11
36.24999999999999
 21
-1950.0
 31
0.0
  0
LINE
  5
C8
330
75
100
AcDbEntity
  8
0
 62
     0
100
AcDbLine
 10
-6.875000000000045
 20
-1948.75
 30
0.0
 11
-6.875000000000045
 21
-1948.75
 31
0.0
  0
LINE
  5
C9
330
75
100
AcDbEntity
  8
0
 62
     0
100
AcDbLine
 10
-5.625000000000045
 20
-1948.75
 30
0.0
 11
-5.625000000000045
 21
-1948.75
 31
0.0
  0
LINE
  5
CA
330
75
100
AcDbEntity
  8
0
 62
     0
100
AcDbLine
 10
-4.375000000000045
 20
-1948.75
 30
0.0
 11
-4.375000000000045
 21
-1948.75
 31
0.0
  0
LINE
  5
CB
330
75
100
AcDbEntity
  8
0
 62
     0
100
AcDbLine
 10
-3.125000000000045
 20
-1948.75
 30
0.0
 11
-3.125000000000045
 21
-1948.75
 31
0.0
  0
LINE
  5
CC
330
75
100
AcDbEntity
  8
0
 62
     0
100
AcDbLine
 10
-1.875000000000045
 20
-1948.75
 30
0.0
 11
-1.875000000000045
 21
-1948.75
 31
0.0
  0
LINE
  5
CD
330
75
100
AcDbEntity
  8
0
 62
     0
100
AcDbLine
 10
-0.6250000000000453
 20
-1948.75
 30
0.0
 11
-0.6250000000000453
 21
-1948.75
 31
0.0
  0
LINE
  5
CE
330
75
100
AcDbEntity
  8
0
 62
     0
100
AcDbLine
 10
0.6249999999999547
 20
-1948.75
 30
0.0
 11
0.6249999999999547
 21
-1948.75
 31
0.0
  0
LINE
  5
CF
330
75
100
AcDbEntity
  8
0
 62
     0
100
AcDbLine
 10
1.874999999999954
 20
-1948.75
 30
0.0
 11
1.874999999999954
 21
-1948.75
 31
0.0
  0
LINE
  5
D0
330
75
100
AcDbEntity
  8
0
 62
     0
100
AcDbLine
 10
3.124999999999954
 20
-1948.75
 30
0.0
 11
3.124999999999954
 21
-1948.75
 31
0.0
  0
LINE
  5
D1
330
75
100
AcDbEntity
  8
0
 62
     0
100
AcDbLine
 10
4.374999999999954
 20
-1948.75
 30
0.0
 11
4.374999999999954
 21
-1948.75
 31
0.0
  0
LINE
  5
D2
330
75
100
AcDbEntity
  8
0
 62
     0
100
AcDbLine
 10
5.624999999999954
 20
-1948.75
 30
0.0
 11
5.624999999999954
 21
-1948.75
 31
0.0
  0
LINE
  5
D3
330
75
100
AcDbEntity
  8
0
 62
     0
100
AcDbLine
 10
6.874999999999954
 20
-1948.75
 30
0.0
 11
6.874999999999954
 21
-1948.75
 31
0.0
  0
LINE
  5
D4
330
75
100
AcDbEntity
  8
0
 62
     0
100
AcDbLine
 10
8.124999999999953
 20
-1948.75
 30
0.0
 11
8.124999999999953
 21
-1948.75
 31
0.0
  0
LINE
  5
D5
330
75
100
AcDbEntity
  8
0
 62
     0
100
AcDbLine
 10
9.374999999999953
 20
-1948.75
 30
0.0
 11
9.374999999999953
 21
-1948.75
 31
0.0
  0
LINE
  5
D6
330
75
100
AcDbEntity
  8
0
 62
     0
100
AcDbLine
 10
10.62499999999995
 20
-1948.75
 30
0.0
 11
10.62499999999995
 21
-1948.75
 31
0.0
  0
LINE
  5
D7
330
75
100
AcDbEntity
  8
0
 62
     0
100
AcDbLine
 10
11.87499999999995
 20
-1948.75
 30
0.0
 11
11.87499999999995
 21
-1948.75
 31
0.0
  0
LINE
  5
D8
330
75
100
AcDbEntity
  8
0
 62
     0
100
AcDbLine
 10
13.12499999999995
 20
-1948.75
 30
0.0
 11
13.12499999999995
 21
-1948.75
 31
0.0
  0
LINE
  5
D9
330
75
100
AcDbEntity
  8
0
 62
     0
100
AcDbLine
 10
14.37499999999995
 20
-1948.75
 30
0.0
 11
14.37499999999995
 21
-1948.75
 31
0.0
  0
LINE
  5
DA
330
75
100
AcDbEntity
  8
0
 62
     0
100
AcDbLine
 10
15.62499999999995
 20
-1948.75
 30
0.0
 11
15.62499999999995
 21
-1948.75
 31
0.0
  0
LINE
  5
DB
330
75
100
AcDbEntity
  8
0
 62
     0
100
AcDbLine
 10
16.87499999999995
 20
-1948.75
 30
0.0
 11
16.87499999999995
 21
-1948.75
 31
0.0
  0
LINE
  5
DC
330
75
100
AcDbEntity
  8
0
 62
     0
100
AcDbLine
 10
18.12499999999995
 20
-1948.75
 30
0.0
 11
18.12499999999995
 21
-1948.75
 31
0.0
  0
LINE
  5
DD
330
75
100
AcDbEntity
  8
0
 62
     0
100
AcDbLine
 10
19.37499999999995
 20
-1948.75
 30
0.0
 11
19.37499999999995
 21
-1948.75
 31
0.0
  0
LINE
  5
DE
330
75
100
AcDbEntity
  8
0
 62
     0
100
AcDbLine
 10
20.62499999999996
 20
-1948.75
 30
0.0
 11
20.62499999999996
 21
-1948.75
 31
0.0
  0
LINE
  5
DF
330
75
100
AcDbEntity
  8
0
 62
     0
100
AcDbLine
 10
21.87499999999996
 20
-1948.75
 30
0.0
 11
21.87499999999996
 21
-1948.75
 31
0.0
  0
LINE
  5
E0
330
75
100
AcDbEntity
  8
0
 62
     0
100
AcDbLine
 10
23.12499999999996
 20
-1948.75
 30
0.0
 11
23.12499999999996
 21
-1948.75
 31
0.0
  0
LINE
  5
E1
330
75
100
AcDbEntity
  8
0
 62
     0
100
AcDbLine
 10
24.37499999999996
 20
-1948.75
 30
0.0
 11
24.37499999999996
 21
-1948.75
 31
0.0
  0
LINE
  5
E2
330
75
100
AcDbEntity
  8
0
 62
     0
100
AcDbLine
 10
25.62499999999996
 20
-1948.75
 30
0.0
 11
25.62499999999996
 21
-1948.75
 31
0.0
  0
LINE
  5
E3
330
75
100
AcDbEntity
  8
0
 62
     0
100
AcDbLine
 10
26.87499999999996
 20
-1948.75
 30
0.0
 11
26.87499999999996
 21
-1948.75
 31
0.0
  0
LINE
  5
E4
330
75
100
AcDbEntity
  8
0
 62
     0
100
AcDbLine
 10
28.12499999999996
 20
-1948.75
 30
0.0
 11
28.12499999999996
 21
-1948.75
 31
0.0
  0
LINE
  5
E5
330
75
100
AcDbEntity
  8
0
 62
     0
100
AcDbLine
 10
29.37499999999996
 20
-1948.75
 30
0.0
 11
29.37499999999996
 21
-1948.75
 31
0.0
  0
LINE
  5
E6
330
75
100
AcDbEntity
  8
0
 62
     0
100
AcDbLine
 10
30.62499999999996
 20
-1948.75
 30
0.0
 11
30.62499999999996
 21
-1948.75
 31
0.0
  0
LINE
  5
E7
330
75
100
AcDbEntity
  8
0
 62
     0
100
AcDbLine
 10
31.87499999999996
 20
-1948.75
 30
0.0
 11
31.87499999999996
 21
-1948.75
 31
0.0
  0
LINE
  5
E8
330
75
100
AcDbEntity
  8
0
 62
     0
100
AcDbLine
 10
33.12499999999996
 20
-1948.75
 30
0.0
 11
33.12499999999996
 21
-1948.75
 31
0.0
  0
LINE
  5
E9
330
75
100
AcDbEntity
  8
0
 62
     0
100
AcDbLine
 10
34.37499999999996
 20
-1948.75
 30
0.0
 11
34.37499999999996
 21
-1948.75
 31
0.0
  0
LINE
  5
EA
330
75
100
AcDbEntity
  8
0
 62
     0
100
AcDbLine
 10
35.62499999999996
 20
-1948.75
 30
0.0
 11
35.62499999999996
 21
-1948.75
 31
0.0
  0
LINE
  5
EB
330
75
100
AcDbEntity
  8
0
 62
     0
100
AcDbLine
 10
36.87499999999996
 20
-1948.75
 30
0.0
 11
36.87499999999996
 21
-1948.75
 31
0.0
  0
LINE
  5
EC
330
75
100
AcDbEntity
  8
0
 62
     0
100
AcDbLine
 10
-6.25
 20
-1947.5
 30
0.0
 11
-6.25
 21
-1947.5
 31
0.0
  0
LINE
  5
ED
330
75
100
AcDbEntity
  8
0
 62
     0
100
AcDbLine
 10
-5.0
 20
-1947.5
 30
0.0
 11
-5.0
 21
-1947.5
 31
0.0
  0
LINE
  5
EE
330
75
100
AcDbEntity
  8
0
 62
     0
100
AcDbLine
 10
-3.75
 20
-1947.5
 30
0.0
 11
-3.75
 21
-1947.5
 31
0.0
  0
LINE
  5
EF
330
75
100
AcDbEntity
  8
0
 62
     0
100
AcDbLine
 10
-2.5
 20
-1947.5
 30
0.0
 11
-2.5
 21
-1947.5
 31
0.0
  0
LINE
  5
F0
330
75
100
AcDbEntity
  8
0
 62
     0
100
AcDbLine
 10
-1.25
 20
-1947.5
 30
0.0
 11
-1.25
 21
-1947.5
 31
0.0
  0
LINE
  5
F1
330
75
100
AcDbEntity
  8
0
 62
     0
100
AcDbLine
 10
-0.0000000000000009
 20
-1947.5
 30
0.0
 11
-0.0000000000000009
 21
-1947.5
 31
0.0
  0
LINE
  5
F2
330
75
100
AcDbEntity
  8
0
 62
     0
100
AcDbLine
 10
1.249999999999999
 20
-1947.5
 30
0.0
 11
1.249999999999999
 21
-1947.5
 31
0.0
  0
LINE
  5
F3
330
75
100
AcDbEntity
  8
0
 62
     0
100
AcDbLine
 10
2.499999999999999
 20
-1947.5
 30
0.0
 11
2.499999999999999
 21
-1947.5
 31
0.0
  0
LINE
  5
F4
330
75
100
AcDbEntity
  8
0
 62
     0
100
AcDbLine
 10
3.749999999999999
 20
-1947.5
 30
0.0
 11
3.749999999999999
 21
-1947.5
 31
0.0
  0
LINE
  5
F5
330
75
100
AcDbEntity
  8
0
 62
     0
100
AcDbLine
 10
4.999999999999999
 20
-1947.5
 30
0.0
 11
4.999999999999999
 21
-1947.5
 31
0.0
  0
LINE
  5
F6
330
75
100
AcDbEntity
  8
0
 62
     0
100
AcDbLine
 10
6.249999999999999
 20
-1947.5
 30
0.0
 11
6.249999999999999
 21
-1947.5
 31
0.0
  0
LINE
  5
F7
330
75
100
AcDbEntity
  8
0
 62
     0
100
AcDbLine
 10
7.500000000000039
 20
-1947.5
 30
0.0
 11
7.500000000000039
 21
-1947.5
 31
0.0
  0
LINE
  5
F8
330
75
100
AcDbEntity
  8
0
 62
     0
100
AcDbLine
 10
8.750000000000039
 20
-1947.5
 30
0.0
 11
8.750000000000039
 21
-1947.5
 31
0.0
  0
LINE
  5
F9
330
75
100
AcDbEntity
  8
0
 62
     0
100
AcDbLine
 10
10.00000000000004
 20
-1947.5
 30
0.0
 11
10.00000000000004
 21
-1947.5
 31
0.0
  0
LINE
  5
FA
330
75
100
AcDbEntity
  8
0
 62
     0
100
AcDbLine
 10
11.25000000000004
 20
-1947.5
 30
0.0
 11
11.25000000000004
 21
-1947.5
 31
0.0
  0
LINE
  5
FB
330
75
100
AcDbEntity
  8
0
 62
     0
100
AcDbLine
 10
12.50000000000004
 20
-1947.5
 30
0.0
 11
12.50000000000004
 21
-1947.5
 31
0.0
  0
LINE
  5
FC
330
75
100
AcDbEntity
  8
0
 62
     0
100
AcDbLine
 10
13.75000000000004
 20
-1947.5
 30
0.0
 11
13.75000000000004
 21
-1947.5
 31
0.0
  0
LINE
  5
FD
330
75
100
AcDbEntity
  8
0
 62
     0
100
AcDbLine
 10
15.00000000000004
 20
-1947.5
 30
0.0
 11
15.00000000000004
 21
-1947.5
 31
0.0
  0
LINE
  5
FE
330
75
100
AcDbEntity
  8
0
 62
     0
100
AcDbLine
 10
16.25000000000004
 20
-1947.5
 30
0.0
 11
16.25000000000004
 21
-1947.5
 31
0.0
  0
LINE
  5
FF
330
75
100
AcDbEntity
  8
0
 62
     0
100
AcDbLine
 10
17.50000000000004
 20
-1947.5
 30
0.0
 11
17.50000000000004
 21
-1947.5
 31
0.0
  0
LINE
  5
100
330
75
100
AcDbEntity
  8
0
 62
     0
100
AcDbLine
 10
18.75000000000004
 20
-1947.5
 30
0.0
 11
18.75000000000004
 21
-1947.5
 31
0.0
  0
LINE
  5
101
330
75
100
AcDbEntity
  8
0
 62
     0
100
AcDbLine
 10
20.00000000000004
 20
-1947.5
 30
0.0
 11
20.00000000000004
 21
-1947.5
 31
0.0
  0
LINE
  5
102
330
75
100
AcDbEntity
  8
0
 62
     0
100
AcDbLine
 10
21.25000000000004
 20
-1947.5
 30
0.0
 11
21.25000000000004
 21
-1947.5
 31
0.0
  0
LINE
  5
103
330
75
100
AcDbEntity
  8
0
 62
     0
100
AcDbLine
 10
22.50000000000004
 20
-1947.5
 30
0.0
 11
22.50000000000004
 21
-1947.5
 31
0.0
  0
LINE
  5
104
330
75
100
AcDbEntity
  8
0
 62
     0
100
AcDbLine
 10
23.75000000000004
 20
-1947.5
 30
0.0
 11
23.75000000000004
 21
-1947.5
 31
0.0
  0
LINE
  5
105
330
75
100
AcDbEntity
  8
0
 62
     0
100
AcDbLine
 10
25.00000000000004
 20
-1947.5
 30
0.0
 11
25.00000000000004
 21
-1947.5
 31
0.0
  0
LINE
  5
106
330
75
100
AcDbEntity
  8
0
 62
     0
100
AcDbLine
 10
26.25000000000004
 20
-1947.5
 30
0.0
 11
26.25000000000004
 21
-1947.5
 31
0.0
  0
LINE
  5
107
330
75
100
AcDbEntity
  8
0
 62
     0
100
AcDbLine
 10
27.50000000000004
 20
-1947.5
 30
0.0
 11
27.50000000000004
 21
-1947.5
 31
0.0
  0
LINE
  5
108
330
75
100
AcDbEntity
  8
0
 62
     0
100
AcDbLine
 10
28.75000000000004
 20
-1947.5
 30
0.0
 11
28.75000000000004
 21
-1947.5
 31
0.0
  0
LINE
  5
109
330
75
100
AcDbEntity
  8
0
 62
     0
100
AcDbLine
 10
30.00000000000004
 20
-1947.5
 30
0.0
 11
30.00000000000004
 21
-1947.5
 31
0.0
  0
LINE
  5
10A
330
75
100
AcDbEntity
  8
0
 62
     0
100
AcDbLine
 10
31.25000000000004
 20
-1947.5
 30
0.0
 11
31.25000000000004
 21
-1947.5
 31
0.0
  0
LINE
  5
10B
330
75
100
AcDbEntity
  8
0
 62
     0
100
AcDbLine
 10
32.50000000000004
 20
-1947.5
 30
0.0
 11
32.50000000000004
 21
-1947.5
 31
0.0
  0
LINE
  5
10C
330
75
100
AcDbEntity
  8
0
 62
     0
100
AcDbLine
 10
33.75000000000004
 20
-1947.5
 30
0.0
 11
33.75000000000004
 21
-1947.5
 31
0.0
  0
LINE
  5
10D
330
75
100
AcDbEntity
  8
0
 62
     0
100
AcDbLine
 10
35.00000000000004
 20
-1947.5
 30
0.0
 11
35.00000000000004
 21
-1947.5
 31
0.0
  0
LINE
  5
10E
330
75
100
AcDbEntity
  8
0
 62
     0
100
AcDbLine
 10
36.25000000000004
 20
-1947.5
 30
0.0
 11
36.25000000000004
 21
-1947.5
 31
0.0
  0
LINE
  5
10F
330
75
100
AcDbEntity
  8
0
 62
     0
100
AcDbLine
 10
37.50000000000004
 20
-1947.5
 30
0.0
 11
37.50000000000004
 21
-1947.5
 31
0.0
  0
LINE
  5
110
330
75
100
AcDbEntity
  8
0
 62
     0
100
AcDbLine
 10
-5.624999999999956
 20
-1946.25
 30
0.0
 11
-5.624999999999956
 21
-1946.25
 31
0.0
  0
LINE
  5
111
330
75
100
AcDbEntity
  8
0
 62
     0
100
AcDbLine
 10
-4.374999999999956
 20
-1946.25
 30
0.0
 11
-4.374999999999956
 21
-1946.25
 31
0.0
  0
LINE
  5
112
330
75
100
AcDbEntity
  8
0
 62
     0
100
AcDbLine
 10
-3.124999999999956
 20
-1946.25
 30
0.0
 11
-3.124999999999956
 21
-1946.25
 31
0.0
  0
LINE
  5
113
330
75
100
AcDbEntity
  8
0
 62
     0
100
AcDbLine
 10
-1.874999999999956
 20
-1946.25
 30
0.0
 11
-1.874999999999956
 21
-1946.25
 31
0.0
  0
LINE
  5
114
330
75
100
AcDbEntity
  8
0
 62
     0
100
AcDbLine
 10
-0.6249999999999565
 20
-1946.25
 30
0.0
 11
-0.6249999999999565
 21
-1946.25
 31
0.0
  0
LINE
  5
115
330
75
100
AcDbEntity
  8
0
 62
     0
100
AcDbLine
 10
0.6250000000000436
 20
-1946.25
 30
0.0
 11
0.6250000000000436
 21
-1946.25
 31
0.0
  0
LINE
  5
116
330
75
100
AcDbEntity
  8
0
 62
     0
100
AcDbLine
 10
1.875000000000043
 20
-1946.25
 30
0.0
 11
1.875000000000043
 21
-1946.25
 31
0.0
  0
LINE
  5
117
330
75
100
AcDbEntity
  8
0
 62
     0
100
AcDbLine
 10
3.125000000000043
 20
-1946.25
 30
0.0
 11
3.125000000000043
 21
-1946.25
 31
0.0
  0
LINE
  5
118
330
75
100
AcDbEntity
  8
0
 62
     0
100
AcDbLine
 10
4.375000000000043
 20
-1946.25
 30
0.0
 11
4.375000000000043
 21
-1946.25
 31
0.0
  0
LINE
  5
119
330
75
100
AcDbEntity
  8
0
 62
     0
100
AcDbLine
 10
5.625000000000043
 20
-1946.25
 30
0.0
 11
5.625000000000043
 21
-1946.25
 31
0.0
  0
LINE
  5
11A
330
75
100
AcDbEntity
  8
0
 62
     0
100
AcDbLine
 10
6.87500000000001
 20
-1946.25
 30
0.0
 11
6.87500000000001
 21
-1946.25
 31
0.0
  0
LINE
  5
11B
330
75
100
AcDbEntity
  8
0
 62
     0
100
AcDbLine
 10
8.12500000000001
 20
-1946.25
 30
0.0
 11
8.12500000000001
 21
-1946.25
 31
0.0
  0
LINE
  5
11C
330
75
100
AcDbEntity
  8
0
 62
     0
100
AcDbLine
 10
9.37500000000001
 20
-1946.25
 30
0.0
 11
9.37500000000001
 21
-1946.25
 31
0.0
  0
LINE
  5
11D
330
75
100
AcDbEntity
  8
0
 62
     0
100
AcDbLine
 10
10.62500000000001
 20
-1946.25
 30
0.0
 11
10.62500000000001
 21
-1946.25
 31
0.0
  0
LINE
  5
11E
330
75
100
AcDbEntity
  8
0
 62
     0
100
AcDbLine
 10
11.87500000000001
 20
-1946.25
 30
0.0
 11
11.87500000000001
 21
-1946.25
 31
0.0
  0
LINE
  5
11F
330
75
100
AcDbEntity
  8
0
 62
     0
100
AcDbLine
 10
13.12500000000001
 20
-1946.25
 30
0.0
 11
13.12500000000001
 21
-1946.25
 31
0.0
  0
LINE
  5
120
330
75
100
AcDbEntity
  8
0
 62
     0
100
AcDbLine
 10
14.37500000000001
 20
-1946.25
 30
0.0
 11
14.37500000000001
 21
-1946.25
 31
0.0
  0
LINE
  5
121
330
75
100
AcDbEntity
  8
0
 62
     0
100
AcDbLine
 10
15.62500000000001
 20
-1946.25
 30
0.0
 11
15.62500000000001
 21
-1946.25
 31
0.0
  0
LINE
  5
122
330
75
100
AcDbEntity
  8
0
 62
     0
100
AcDbLine
 10
16.87500000000001
 20
-1946.25
 30
0.0
 11
16.87500000000001
 21
-1946.25
 31
0.0
  0
LINE
  5
123
330
75
100
AcDbEntity
  8
0
 62
     0
100
AcDbLine
 10
18.12500000000001
 20
-1946.25
 30
0.0
 11
18.12500000000001
 21
-1946.25
 31
0.0
  0
LINE
  5
124
330
75
100
AcDbEntity
  8
0
 62
     0
100
AcDbLine
 10
19.37500000000001
 20
-1946.25
 30
0.0
 11
19.37500000000001
 21
-1946.25
 31
0.0
  0
LINE
  5
125
330
75
100
AcDbEntity
  8
0
 62
     0
100
AcDbLine
 10
20.62500000000001
 20
-1946.25
 30
0.0
 11
20.62500000000001
 21
-1946.25
 31
0.0
  0
LINE
  5
126
330
75
100
AcDbEntity
  8
0
 62
     0
100
AcDbLine
 10
21.87500000000001
 20
-1946.25
 30
0.0
 11
21.87500000000001
 21
-1946.25
 31
0.0
  0
LINE
  5
127
330
75
100
AcDbEntity
  8
0
 62
     0
100
AcDbLine
 10
23.12500000000001
 20
-1946.25
 30
0.0
 11
23.12500000000001
 21
-1946.25
 31
0.0
  0
LINE
  5
128
330
75
100
AcDbEntity
  8
0
 62
     0
100
AcDbLine
 10
24.37500000000001
 20
-1946.25
 30
0.0
 11
24.37500000000001
 21
-1946.25
 31
0.0
  0
LINE
  5
129
330
75
100
AcDbEntity
  8
0
 62
     0
100
AcDbLine
 10
25.62500000000001
 20
-1946.25
 30
0.0
 11
25.62500000000001
 21
-1946.25
 31
0.0
  0
LINE
  5
12A
330
75
100
AcDbEntity
  8
0
 62
     0
100
AcDbLine
 10
26.87500000000001
 20
-1946.25
 30
0.0
 11
26.87500000000001
 21
-1946.25
 31
0.0
  0
LINE
  5
12B
330
75
100
AcDbEntity
  8
0
 62
     0
100
AcDbLine
 10
28.12500000000001
 20
-1946.25
 30
0.0
 11
28.12500000000001
 21
-1946.25
 31
0.0
  0
LINE
  5
12C
330
75
100
AcDbEntity
  8
0
 62
     0
100
AcDbLine
 10
29.37500000000001
 20
-1946.25
 30
0.0
 11
29.37500000000001
 21
-1946.25
 31
0.0
  0
LINE
  5
12D
330
75
100
AcDbEntity
  8
0
 62
     0
100
AcDbLine
 10
30.62500000000001
 20
-1946.25
 30
0.0
 11
30.62500000000001
 21
-1946.25
 31
0.0
  0
LINE
  5
12E
330
75
100
AcDbEntity
  8
0
 62
     0
100
AcDbLine
 10
31.87500000000001
 20
-1946.25
 30
0.0
 11
31.87500000000001
 21
-1946.25
 31
0.0
  0
LINE
  5
12F
330
75
100
AcDbEntity
  8
0
 62
     0
100
AcDbLine
 10
33.12500000000002
 20
-1946.25
 30
0.0
 11
33.12500000000002
 21
-1946.25
 31
0.0
  0
LINE
  5
130
330
75
100
AcDbEntity
  8
0
 62
     0
100
AcDbLine
 10
34.37500000000002
 20
-1946.25
 30
0.0
 11
34.37500000000002
 21
-1946.25
 31
0.0
  0
LINE
  5
131
330
75
100
AcDbEntity
  8
0
 62
     0
100
AcDbLine
 10
35.62500000000002
 20
-1946.25
 30
0.0
 11
35.62500000000002
 21
-1946.25
 31
0.0
  0
LINE
  5
132
330
75
100
AcDbEntity
  8
0
 62
     0
100
AcDbLine
 10
36.87500000000002
 20
-1946.25
 30
0.0
 11
36.87500000000002
 21
-1946.25
 31
0.0
  0
LINE
  5
133
330
75
100
AcDbEntity
  8
0
 62
     0
100
AcDbLine
 10
-5.000000000000048
 20
-1945.0
 30
0.0
 11
-5.000000000000048
 21
-1945.0
 31
0.0
  0
LINE
  5
134
330
75
100
AcDbEntity
  8
0
 62
     0
100
AcDbLine
 10
-3.750000000000048
 20
-1945.0
 30
0.0
 11
-3.750000000000048
 21
-1945.0
 31
0.0
  0
LINE
  5
135
330
75
100
AcDbEntity
  8
0
 62
     0
100
AcDbLine
 10
-2.500000000000048
 20
-1945.0
 30
0.0
 11
-2.500000000000048
 21
-1945.0
 31
0.0
  0
LINE
  5
136
330
75
100
AcDbEntity
  8
0
 62
     0
100
AcDbLine
 10
-1.250000000000048
 20
-1945.0
 30
0.0
 11
-1.250000000000048
 21
-1945.0
 31
0.0
  0
LINE
  5
137
330
75
100
AcDbEntity
  8
0
 62
     0
100
AcDbLine
 10
-0.0000000000000488
 20
-1945.0
 30
0.0
 11
-0.0000000000000488
 21
-1945.0
 31
0.0
  0
LINE
  5
138
330
75
100
AcDbEntity
  8
0
 62
     0
100
AcDbLine
 10
1.249999999999951
 20
-1945.0
 30
0.0
 11
1.249999999999951
 21
-1945.0
 31
0.0
  0
LINE
  5
139
330
75
100
AcDbEntity
  8
0
 62
     0
100
AcDbLine
 10
2.499999999999951
 20
-1945.0
 30
0.0
 11
2.499999999999951
 21
-1945.0
 31
0.0
  0
LINE
  5
13A
330
75
100
AcDbEntity
  8
0
 62
     0
100
AcDbLine
 10
3.749999999999951
 20
-1945.0
 30
0.0
 11
3.749999999999951
 21
-1945.0
 31
0.0
  0
LINE
  5
13B
330
75
100
AcDbEntity
  8
0
 62
     0
100
AcDbLine
 10
7.499999999999967
 20
-1945.0
 30
0.0
 11
7.499999999999967
 21
-1945.0
 31
0.0
  0
LINE
  5
13C
330
75
100
AcDbEntity
  8
0
 62
     0
100
AcDbLine
 10
8.749999999999968
 20
-1945.0
 30
0.0
 11
8.749999999999968
 21
-1945.0
 31
0.0
  0
LINE
  5
13D
330
75
100
AcDbEntity
  8
0
 62
     0
100
AcDbLine
 10
9.999999999999968
 20
-1945.0
 30
0.0
 11
9.999999999999968
 21
-1945.0
 31
0.0
  0
LINE
  5
13E
330
75
100
AcDbEntity
  8
0
 62
     0
100
AcDbLine
 10
11.24999999999997
 20
-1945.0
 30
0.0
 11
11.24999999999997
 21
-1945.0
 31
0.0
  0
LINE
  5
13F
330
75
100
AcDbEntity
  8
0
 62
     0
100
AcDbLine
 10
12.49999999999997
 20
-1945.0
 30
0.0
 11
12.49999999999997
 21
-1945.0
 31
0.0
  0
LINE
  5
140
330
75
100
AcDbEntity
  8
0
 62
     0
100
AcDbLine
 10
13.74999999999997
 20
-1945.0
 30
0.0
 11
13.74999999999997
 21
-1945.0
 31
0.0
  0
LINE
  5
141
330
75
100
AcDbEntity
  8
0
 62
     0
100
AcDbLine
 10
14.99999999999997
 20
-1945.0
 30
0.0
 11
14.99999999999997
 21
-1945.0
 31
0.0
  0
LINE
  5
142
330
75
100
AcDbEntity
  8
0
 62
     0
100
AcDbLine
 10
16.24999999999997
 20
-1945.0
 30
0.0
 11
16.24999999999997
 21
-1945.0
 31
0.0
  0
LINE
  5
143
330
75
100
AcDbEntity
  8
0
 62
     0
100
AcDbLine
 10
17.49999999999997
 20
-1945.0
 30
0.0
 11
17.49999999999997
 21
-1945.0
 31
0.0
  0
LINE
  5
144
330
75
100
AcDbEntity
  8
0
 62
     0
100
AcDbLine
 10
18.74999999999997
 20
-1945.0
 30
0.0
 11
18.74999999999997
 21
-1945.0
 31
0.0
  0
LINE
  5
145
330
75
100
AcDbEntity
  8
0
 62
     0
100
AcDbLine
 10
19.99999999999997
 20
-1945.0
 30
0.0
 11
19.99999999999997
 21
-1945.0
 31
0.0
  0
LINE
  5
146
330
75
100
AcDbEntity
  8
0
 62
     0
100
AcDbLine
 10
21.24999999999997
 20
-1945.0
 30
0.0
 11
21.24999999999997
 21
-1945.0
 31
0.0
  0
LINE
  5
147
330
75
100
AcDbEntity
  8
0
 62
     0
100
AcDbLine
 10
22.49999999999997
 20
-1945.0
 30
0.0
 11
22.49999999999997
 21
-1945.0
 31
0.0
  0
LINE
  5
148
330
75
100
AcDbEntity
  8
0
 62
     0
100
AcDbLine
 10
23.74999999999997
 20
-1945.0
 30
0.0
 11
23.74999999999997
 21
-1945.0
 31
0.0
  0
LINE
  5
149
330
75
100
AcDbEntity
  8
0
 62
     0
100
AcDbLine
 10
24.99999999999997
 20
-1945.0
 30
0.0
 11
24.99999999999997
 21
-1945.0
 31
0.0
  0
LINE
  5
14A
330
75
100
AcDbEntity
  8
0
 62
     0
100
AcDbLine
 10
26.24999999999997
 20
-1945.0
 30
0.0
 11
26.24999999999997
 21
-1945.0
 31
0.0
  0
LINE
  5
14B
330
75
100
AcDbEntity
  8
0
 62
     0
100
AcDbLine
 10
27.49999999999997
 20
-1945.0
 30
0.0
 11
27.49999999999997
 21
-1945.0
 31
0.0
  0
LINE
  5
14C
330
75
100
AcDbEntity
  8
0
 62
     0
100
AcDbLine
 10
28.74999999999997
 20
-1945.0
 30
0.0
 11
28.74999999999997
 21
-1945.0
 31
0.0
  0
LINE
  5
14D
330
75
100
AcDbEntity
  8
0
 62
     0
100
AcDbLine
 10
29.99999999999997
 20
-1945.0
 30
0.0
 11
29.99999999999997
 21
-1945.0
 31
0.0
  0
LINE
  5
14E
330
75
100
AcDbEntity
  8
0
 62
     0
100
AcDbLine
 10
31.24999999999997
 20
-1945.0
 30
0.0
 11
31.24999999999997
 21
-1945.0
 31
0.0
  0
LINE
  5
14F
330
75
100
AcDbEntity
  8
0
 62
     0
100
AcDbLine
 10
32.49999999999997
 20
-1945.0
 30
0.0
 11
32.49999999999997
 21
-1945.0
 31
0.0
  0
LINE
  5
150
330
75
100
AcDbEntity
  8
0
 62
     0
100
AcDbLine
 10
33.74999999999997
 20
-1945.0
 30
0.0
 11
33.74999999999997
 21
-1945.0
 31
0.0
  0
LINE
  5
151
330
75
100
AcDbEntity
  8
0
 62
     0
100
AcDbLine
 10
34.99999999999997
 20
-1945.0
 30
0.0
 11
34.99999999999997
 21
-1945.0
 31
0.0
  0
LINE
  5
152
330
75
100
AcDbEntity
  8
0
 62
     0
100
AcDbLine
 10
36.24999999999997
 20
-1945.0
 30
0.0
 11
36.24999999999997
 21
-1945.0
 31
0.0
  0
LINE
  5
153
330
75
100
AcDbEntity
  8
0
 62
     0
100
AcDbLine
 10
-4.374999999999992
 20
-1943.75
 30
0.0
 11
-4.374999999999992
 21
-1943.75
 31
0.0
  0
LINE
  5
154
330
75
100
AcDbEntity
  8
0
 62
     0
100
AcDbLine
 10
-3.124999999999992
 20
-1943.75
 30
0.0
 11
-3.124999999999992
 21
-1943.75
 31
0.0
  0
LINE
  5
155
330
75
100
AcDbEntity
  8
0
 62
     0
100
AcDbLine
 10
-1.874999999999992
 20
-1943.75
 30
0.0
 11
-1.874999999999992
 21
-1943.75
 31
0.0
  0
LINE
  5
156
330
75
100
AcDbEntity
  8
0
 62
     0
100
AcDbLine
 10
-0.624999999999992
 20
-1943.75
 30
0.0
 11
-0.624999999999992
 21
-1943.75
 31
0.0
  0
LINE
  5
157
330
75
100
AcDbEntity
  8
0
 62
     0
100
AcDbLine
 10
0.625000000000008
 20
-1943.75
 30
0.0
 11
0.625000000000008
 21
-1943.75
 31
0.0
  0
LINE
  5
158
330
75
100
AcDbEntity
  8
0
 62
     0
100
AcDbLine
 10
1.875000000000007
 20
-1943.75
 30
0.0
 11
1.875000000000007
 21
-1943.75
 31
0.0
  0
LINE
  5
159
330
75
100
AcDbEntity
  8
0
 62
     0
100
AcDbLine
 10
8.12499999999996
 20
-1943.75
 30
0.0
 11
8.12499999999996
 21
-1943.75
 31
0.0
  0
LINE
  5
15A
330
75
100
AcDbEntity
  8
0
 62
     0
100
AcDbLine
 10
9.37499999999996
 20
-1943.75
 30
0.0
 11
9.37499999999996
 21
-1943.75
 31
0.0
  0
LINE
  5
15B
330
75
100
AcDbEntity
  8
0
 62
     0
100
AcDbLine
 10
10.62499999999996
 20
-1943.75
 30
0.0
 11
10.62499999999996
 21
-1943.75
 31
0.0
  0
LINE
  5
15C
330
75
100
AcDbEntity
  8
0
 62
     0
100
AcDbLine
 10
11.87499999999996
 20
-1943.75
 30
0.0
 11
11.87499999999996
 21
-1943.75
 31
0.0
  0
LINE
  5
15D
330
75
100
AcDbEntity
  8
0
 62
     0
100
AcDbLine
 10
13.12499999999996
 20
-1943.75
 30
0.0
 11
13.12499999999996
 21
-1943.75
 31
0.0
  0
LINE
  5
15E
330
75
100
AcDbEntity
  8
0
 62
     0
100
AcDbLine
 10
14.37499999999996
 20
-1943.75
 30
0.0
 11
14.37499999999996
 21
-1943.75
 31
0.0
  0
LINE
  5
15F
330
75
100
AcDbEntity
  8
0
 62
     0
100
AcDbLine
 10
15.62499999999996
 20
-1943.75
 30
0.0
 11
15.62499999999996
 21
-1943.75
 31
0.0
  0
LINE
  5
160
330
75
100
AcDbEntity
  8
0
 62
     0
100
AcDbLine
 10
16.87499999999996
 20
-1943.75
 30
0.0
 11
16.87499999999996
 21
-1943.75
 31
0.0
  0
LINE
  5
161
330
75
100
AcDbEntity
  8
0
 62
     0
100
AcDbLine
 10
18.12499999999996
 20
-1943.75
 30
0.0
 11
18.12499999999996
 21
-1943.75
 31
0.0
  0
LINE
  5
162
330
75
100
AcDbEntity
  8
0
 62
     0
100
AcDbLine
 10
19.37499999999996
 20
-1943.75
 30
0.0
 11
19.37499999999996
 21
-1943.75
 31
0.0
  0
LINE
  5
163
330
75
100
AcDbEntity
  8
0
 62
     0
100
AcDbLine
 10
20.62499999999996
 20
-1943.75
 30
0.0
 11
20.62499999999996
 21
-1943.75
 31
0.0
  0
LINE
  5
164
330
75
100
AcDbEntity
  8
0
 62
     0
100
AcDbLine
 10
21.87499999999996
 20
-1943.75
 30
0.0
 11
21.87499999999996
 21
-1943.75
 31
0.0
  0
LINE
  5
165
330
75
100
AcDbEntity
  8
0
 62
     0
100
AcDbLine
 10
23.12499999999996
 20
-1943.75
 30
0.0
 11
23.12499999999996
 21
-1943.75
 31
0.0
  0
LINE
  5
166
330
75
100
AcDbEntity
  8
0
 62
     0
100
AcDbLine
 10
24.37499999999996
 20
-1943.75
 30
0.0
 11
24.37499999999996
 21
-1943.75
 31
0.0
  0
LINE
  5
167
330
75
100
AcDbEntity
  8
0
 62
     0
100
AcDbLine
 10
25.62499999999996
 20
-1943.75
 30
0.0
 11
25.62499999999996
 21
-1943.75
 31
0.0
  0
LINE
  5
168
330
75
100
AcDbEntity
  8
0
 62
     0
100
AcDbLine
 10
26.87499999999996
 20
-1943.75
 30
0.0
 11
26.87499999999996
 21
-1943.75
 31
0.0
  0
LINE
  5
169
330
75
100
AcDbEntity
  8
0
 62
     0
100
AcDbLine
 10
28.12499999999996
 20
-1943.75
 30
0.0
 11
28.12499999999996
 21
-1943.75
 31
0.0
  0
LINE
  5
16A
330
75
100
AcDbEntity
  8
0
 62
     0
100
AcDbLine
 10
29.37499999999996
 20
-1943.75
 30
0.0
 11
29.37499999999996
 21
-1943.75
 31
0.0
  0
LINE
  5
16B
330
75
100
AcDbEntity
  8
0
 62
     0
100
AcDbLine
 10
30.62499999999996
 20
-1943.75
 30
0.0
 11
30.62499999999996
 21
-1943.75
 31
0.0
  0
LINE
  5
16C
330
75
100
AcDbEntity
  8
0
 62
     0
100
AcDbLine
 10
31.87499999999996
 20
-1943.75
 30
0.0
 11
31.87499999999996
 21
-1943.75
 31
0.0
  0
LINE
  5
16D
330
75
100
AcDbEntity
  8
0
 62
     0
100
AcDbLine
 10
33.12499999999996
 20
-1943.75
 30
0.0
 11
33.12499999999996
 21
-1943.75
 31
0.0
  0
LINE
  5
16E
330
75
100
AcDbEntity
  8
0
 62
     0
100
AcDbLine
 10
34.37499999999996
 20
-1943.75
 30
0.0
 11
34.37499999999996
 21
-1943.75
 31
0.0
  0
LINE
  5
16F
330
75
100
AcDbEntity
  8
0
 62
     0
100
AcDbLine
 10
35.62499999999996
 20
-1943.75
 30
0.0
 11
35.62499999999996
 21
-1943.75
 31
0.0
  0
LINE
  5
170
330
75
100
AcDbEntity
  8
0
 62
     0
100
AcDbLine
 10
1.249999999999966
 20
-1942.5
 30
0.0
 11
1.249999999999966
 21
-1942.5
 31
0.0
  0
LINE
  5
171
330
75
100
AcDbEntity
  8
0
 62
     0
100
AcDbLine
 10
8.749999999999964
 20
-1942.5
 30
0.0
 11
8.749999999999964
 21
-1942.5
 31
0.0
  0
LINE
  5
172
330
75
100
AcDbEntity
  8
0
 62
     0
100
AcDbLine
 10
9.999999999999964
 20
-1942.5
 30
0.0
 11
9.999999999999964
 21
-1942.5
 31
0.0
  0
LINE
  5
173
330
75
100
AcDbEntity
  8
0
 62
     0
100
AcDbLine
 10
11.24999999999996
 20
-1942.5
 30
0.0
 11
11.24999999999996
 21
-1942.5
 31
0.0
  0
LINE
  5
174
330
75
100
AcDbEntity
  8
0
 62
     0
100
AcDbLine
 10
12.49999999999996
 20
-1942.5
 30
0.0
 11
12.49999999999996
 21
-1942.5
 31
0.0
  0
LINE
  5
175
330
75
100
AcDbEntity
  8
0
 62
     0
100
AcDbLine
 10
13.74999999999996
 20
-1942.5
 30
0.0
 11
13.74999999999996
 21
-1942.5
 31
0.0
  0
LINE
  5
176
330
75
100
AcDbEntity
  8
0
 62
     0
100
AcDbLine
 10
14.99999999999996
 20
-1942.5
 30
0.0
 11
14.99999999999996
 21
-1942.5
 31
0.0
  0
LINE
  5
177
330
75
100
AcDbEntity
  8
0
 62
     0
100
AcDbLine
 10
16.24999999999996
 20
-1942.5
 30
0.0
 11
16.24999999999996
 21
-1942.5
 31
0.0
  0
LINE
  5
178
330
75
100
AcDbEntity
  8
0
 62
     0
100
AcDbLine
 10
17.49999999999996
 20
-1942.5
 30
0.0
 11
17.49999999999996
 21
-1942.5
 31
0.0
  0
LINE
  5
179
330
75
100
AcDbEntity
  8
0
 62
     0
100
AcDbLine
 10
18.74999999999996
 20
-1942.5
 30
0.0
 11
18.74999999999996
 21
-1942.5
 31
0.0
  0
LINE
  5
17A
330
75
100
AcDbEntity
  8
0
 62
     0
100
AcDbLine
 10
19.99999999999996
 20
-1942.5
 30
0.0
 11
19.99999999999996
 21
-1942.5
 31
0.0
  0
LINE
  5
17B
330
75
100
AcDbEntity
  8
0
 62
     0
100
AcDbLine
 10
21.24999999999996
 20
-1942.5
 30
0.0
 11
21.24999999999996
 21
-1942.5
 31
0.0
  0
LINE
  5
17C
330
75
100
AcDbEntity
  8
0
 62
     0
100
AcDbLine
 10
22.49999999999996
 20
-1942.5
 30
0.0
 11
22.49999999999996
 21
-1942.5
 31
0.0
  0
LINE
  5
17D
330
75
100
AcDbEntity
  8
0
 62
     0
100
AcDbLine
 10
23.74999999999996
 20
-1942.5
 30
0.0
 11
23.74999999999996
 21
-1942.5
 31
0.0
  0
LINE
  5
17E
330
75
100
AcDbEntity
  8
0
 62
     0
100
AcDbLine
 10
24.99999999999996
 20
-1942.5
 30
0.0
 11
24.99999999999996
 21
-1942.5
 31
0.0
  0
LINE
  5
17F
330
75
100
AcDbEntity
  8
0
 62
     0
100
AcDbLine
 10
26.24999999999996
 20
-1942.5
 30
0.0
 11
26.24999999999996
 21
-1942.5
 31
0.0
  0
LINE
  5
180
330
75
100
AcDbEntity
  8
0
 62
     0
100
AcDbLine
 10
27.49999999999996
 20
-1942.5
 30
0.0
 11
27.49999999999996
 21
-1942.5
 31
0.0
  0
LINE
  5
181
330
75
100
AcDbEntity
  8
0
 62
     0
100
AcDbLine
 10
28.74999999999996
 20
-1942.5
 30
0.0
 11
28.74999999999996
 21
-1942.5
 31
0.0
  0
LINE
  5
182
330
75
100
AcDbEntity
  8
0
 62
     0
100
AcDbLine
 10
29.99999999999996
 20
-1942.5
 30
0.0
 11
29.99999999999996
 21
-1942.5
 31
0.0
  0
LINE
  5
183
330
75
100
AcDbEntity
  8
0
 62
     0
100
AcDbLine
 10
31.24999999999996
 20
-1942.5
 30
0.0
 11
31.24999999999996
 21
-1942.5
 31
0.0
  0
LINE
  5
184
330
75
100
AcDbEntity
  8
0
 62
     0
100
AcDbLine
 10
32.49999999999996
 20
-1942.5
 30
0.0
 11
32.49999999999996
 21
-1942.5
 31
0.0
  0
LINE
  5
185
330
75
100
AcDbEntity
  8
0
 62
     0
100
AcDbLine
 10
33.74999999999996
 20
-1942.5
 30
0.0
 11
33.74999999999996
 21
-1942.5
 31
0.0
  0
LINE
  5
186
330
75
100
AcDbEntity
  8
0
 62
     0
100
AcDbLine
 10
34.99999999999996
 20
-1942.5
 30
0.0
 11
34.99999999999996
 21
-1942.5
 31
0.0
  0
LINE
  5
187
330
75
100
AcDbEntity
  8
0
 62
     0
100
AcDbLine
 10
9.375000000000031
 20
-1941.25
 30
0.0
 11
9.375000000000031
 21
-1941.25
 31
0.0
  0
LINE
  5
188
330
75
100
AcDbEntity
  8
0
 62
     0
100
AcDbLine
 10
10.62500000000003
 20
-1941.25
 30
0.0
 11
10.62500000000003
 21
-1941.25
 31
0.0
  0
LINE
  5
189
330
75
100
AcDbEntity
  8
0
 62
     0
100
AcDbLine
 10
11.87500000000003
 20
-1941.25
 30
0.0
 11
11.87500000000003
 21
-1941.25
 31
0.0
  0
LINE
  5
18A
330
75
100
AcDbEntity
  8
0
 62
     0
100
AcDbLine
 10
13.12500000000003
 20
-1941.25
 30
0.0
 11
13.12500000000003
 21
-1941.25
 31
0.0
  0
LINE
  5
18B
330
75
100
AcDbEntity
  8
0
 62
     0
100
AcDbLine
 10
14.37500000000003
 20
-1941.25
 30
0.0
 11
14.37500000000003
 21
-1941.25
 31
0.0
  0
LINE
  5
18C
330
75
100
AcDbEntity
  8
0
 62
     0
100
AcDbLine
 10
15.62500000000003
 20
-1941.25
 30
0.0
 11
15.62500000000003
 21
-1941.25
 31
0.0
  0
LINE
  5
18D
330
75
100
AcDbEntity
  8
0
 62
     0
100
AcDbLine
 10
16.87500000000003
 20
-1941.25
 30
0.0
 11
16.87500000000003
 21
-1941.25
 31
0.0
  0
LINE
  5
18E
330
75
100
AcDbEntity
  8
0
 62
     0
100
AcDbLine
 10
18.12500000000003
 20
-1941.25
 30
0.0
 11
18.12500000000003
 21
-1941.25
 31
0.0
  0
LINE
  5
18F
330
75
100
AcDbEntity
  8
0
 62
     0
100
AcDbLine
 10
19.37500000000003
 20
-1941.25
 30
0.0
 11
19.37500000000003
 21
-1941.25
 31
0.0
  0
LINE
  5
190
330
75
100
AcDbEntity
  8
0
 62
     0
100
AcDbLine
 10
20.62500000000003
 20
-1941.25
 30
0.0
 11
20.62500000000003
 21
-1941.25
 31
0.0
  0
LINE
  5
191
330
75
100
AcDbEntity
  8
0
 62
     0
100
AcDbLine
 10
21.87500000000003
 20
-1941.25
 30
0.0
 11
21.87500000000003
 21
-1941.25
 31
0.0
  0
LINE
  5
192
330
75
100
AcDbEntity
  8
0
 62
     0
100
AcDbLine
 10
23.12500000000003
 20
-1941.25
 30
0.0
 11
23.12500000000003
 21
-1941.25
 31
0.0
  0
LINE
  5
193
330
75
100
AcDbEntity
  8
0
 62
     0
100
AcDbLine
 10
24.37500000000003
 20
-1941.25
 30
0.0
 11
24.37500000000003
 21
-1941.25
 31
0.0
  0
LINE
  5
194
330
75
100
AcDbEntity
  8
0
 62
     0
100
AcDbLine
 10
25.62500000000003
 20
-1941.25
 30
0.0
 11
25.62500000000003
 21
-1941.25
 31
0.0
  0
LINE
  5
195
330
75
100
AcDbEntity
  8
0
 62
     0
100
AcDbLine
 10
26.87500000000003
 20
-1941.25
 30
0.0
 11
26.87500000000003
 21
-1941.25
 31
0.0
  0
LINE
  5
196
330
75
100
AcDbEntity
  8
0
 62
     0
100
AcDbLine
 10
28.12500000000003
 20
-1941.25
 30
0.0
 11
28.12500000000003
 21
-1941.25
 31
0.0
  0
LINE
  5
197
330
75
100
AcDbEntity
  8
0
 62
     0
100
AcDbLine
 10
29.37500000000003
 20
-1941.25
 30
0.0
 11
29.37500000000003
 21
-1941.25
 31
0.0
  0
LINE
  5
198
330
75
100
AcDbEntity
  8
0
 62
     0
100
AcDbLine
 10
30.62500000000003
 20
-1941.25
 30
0.0
 11
30.62500000000003
 21
-1941.25
 31
0.0
  0
LINE
  5
199
330
75
100
AcDbEntity
  8
0
 62
     0
100
AcDbLine
 10
31.87500000000003
 20
-1941.25
 30
0.0
 11
31.87500000000003
 21
-1941.25
 31
0.0
  0
LINE
  5
19A
330
75
100
AcDbEntity
  8
0
 62
     0
100
AcDbLine
 10
33.12500000000003
 20
-1941.25
 30
0.0
 11
33.12500000000003
 21
-1941.25
 31
0.0
  0
LINE
  5
19B
330
75
100
AcDbEntity
  8
0
 62
     0
100
AcDbLine
 10
34.37500000000003
 20
-1941.25
 30
0.0
 11
34.37500000000003
 21
-1941.25
 31
0.0
  0
LINE
  5
19C
330
75
100
AcDbEntity
  8
0
 62
     0
100
AcDbLine
 10
16.25000000000001
 20
-1940.0
 30
0.0
 11
16.25000000000001
 21
-1940.0
 31
0.0
  0
LINE
  5
19D
330
75
100
AcDbEntity
  8
0
 62
     0
100
AcDbLine
 10
17.50000000000001
 20
-1940.0
 30
0.0
 11
17.50000000000001
 21
-1940.0
 31
0.0
  0
LINE
  5
19E
330
75
100
AcDbEntity
  8
0
 62
     0
100
AcDbLine
 10
18.75000000000001
 20
-1940.0
 30
0.0
 11
18.75000000000001
 21
-1940.0
 31
0.0
  0
LINE
  5
19F
330
75
100
AcDbEntity
  8
0
 62
     0
100
AcDbLine
 10
20.00000000000001
 20
-1940.0
 30
0.0
 11
20.00000000000001
 21
-1940.0
 31
0.0
  0
LINE
  5
1A0
330
75
100
AcDbEntity
  8
0
 62
     0
100
AcDbLine
 10
21.25000000000001
 20
-1940.0
 30
0.0
 11
21.25000000000001
 21
-1940.0
 31
0.0
  0
LINE
  5
1A1
330
75
100
AcDbEntity
  8
0
 62
     0
100
AcDbLine
 10
22.50000000000001
 20
-1940.0
 30
0.0
 11
22.50000000000001
 21
-1940.0
 31
0.0
  0
LINE
  5
1A2
330
75
100
AcDbEntity
  8
0
 62
     0
100
AcDbLine
 10
23.75000000000001
 20
-1940.0
 30
0.0
 11
23.75000000000001
 21
-1940.0
 31
0.0
  0
LINE
  5
1A3
330
75
100
AcDbEntity
  8
0
 62
     0
100
AcDbLine
 10
25.00000000000002
 20
-1940.0
 30
0.0
 11
25.00000000000002
 21
-1940.0
 31
0.0
  0
LINE
  5
1A4
330
75
100
AcDbEntity
  8
0
 62
     0
100
AcDbLine
 10
26.25000000000002
 20
-1940.0
 30
0.0
 11
26.25000000000002
 21
-1940.0
 31
0.0
  0
LINE
  5
1A5
330
75
100
AcDbEntity
  8
0
 62
     0
100
AcDbLine
 10
27.50000000000002
 20
-1940.0
 30
0.0
 11
27.50000000000002
 21
-1940.0
 31
0.0
  0
LINE
  5
1A6
330
75
100
AcDbEntity
  8
0
 62
     0
100
AcDbLine
 10
28.75000000000002
 20
-1940.0
 30
0.0
 11
28.75000000000002
 21
-1940.0
 31
0.0
  0
LINE
  5
1A7
330
75
100
AcDbEntity
  8
0
 62
     0
100
AcDbLine
 10
30.00000000000002
 20
-1940.0
 30
0.0
 11
30.00000000000002
 21
-1940.0
 31
0.0
  0
LINE
  5
1A8
330
75
100
AcDbEntity
  8
0
 62
     0
100
AcDbLine
 10
31.25000000000002
 20
-1940.0
 30
0.0
 11
31.25000000000002
 21
-1940.0
 31
0.0
  0
LINE
  5
1A9
330
75
100
AcDbEntity
  8
0
 62
     0
100
AcDbLine
 10
32.50000000000002
 20
-1940.0
 30
0.0
 11
32.50000000000002
 21
-1940.0
 31
0.0
  0
LINE
  5
1AA
330
75
100
AcDbEntity
  8
0
 62
     0
100
AcDbLine
 10
33.75000000000002
 20
-1940.0
 30
0.0
 11
33.75000000000002
 21
-1940.0
 31
0.0
  0
LINE
  5
1AB
330
75
100
AcDbEntity
  8
0
 62
     0
100
AcDbLine
 10
23.12500000000003
 20
-1938.75
 30
0.0
 11
23.12500000000003
 21
-1938.75
 31
0.0
  0
LINE
  5
1AC
330
75
100
AcDbEntity
  8
0
 62
     0
100
AcDbLine
 10
24.37500000000003
 20
-1938.75
 30
0.0
 11
24.37500000000003
 21
-1938.75
 31
0.0
  0
LINE
  5
1AD
330
75
100
AcDbEntity
  8
0
 62
     0
100
AcDbLine
 10
25.62500000000003
 20
-1938.75
 30
0.0
 11
25.62500000000003
 21
-1938.75
 31
0.0
  0
LINE
  5
1AE
330
75
100
AcDbEntity
  8
0
 62
     0
100
AcDbLine
 10
26.87500000000003
 20
-1938.75
 30
0.0
 11
26.87500000000003
 21
-1938.75
 31
0.0
  0
LINE
  5
1AF
330
75
100
AcDbEntity
  8
0
 62
     0
100
AcDbLine
 10
28.12500000000003
 20
-1938.75
 30
0.0
 11
28.12500000000003
 21
-1938.75
 31
0.0
  0
LINE
  5
1B0
330
75
100
AcDbEntity
  8
0
 62
     0
100
AcDbLine
 10
29.37500000000003
 20
-1938.75
 30
0.0
 11
29.37500000000003
 21
-1938.75
 31
0.0
  0
LINE
  5
1B1
330
75
100
AcDbEntity
  8
0
 62
     0
100
AcDbLine
 10
30.62500000000003
 20
-1938.75
 30
0.0
 11
30.62500000000003
 21
-1938.75
 31
0.0
  0
LINE
  5
1B2
330
75
100
AcDbEntity
  8
0
 62
     0
100
AcDbLine
 10
31.87500000000003
 20
-1938.75
 30
0.0
 11
31.87500000000003
 21
-1938.75
 31
0.0
  0
LINE
  5
1B3
330
75
100
AcDbEntity
  8
0
 62
     0
100
AcDbLine
 10
33.12500000000003
 20
-1938.75
 30
0.0
 11
33.12500000000003
 21
-1938.75
 31
0.0
  0
LINE
  5
1B4
330
75
100
AcDbEntity
  8
0
 62
     0
100
AcDbLine
 10
30.00000000000003
 20
-1937.5
 30
0.0
 11
30.00000000000003
 21
-1937.5
 31
0.0
  0
LINE
  5
1B5
330
75
100
AcDbEntity
  8
0
 62
     0
100
AcDbLine
 10
31.25000000000003
 20
-1937.5
 30
0.0
 11
31.25000000000003
 21
-1937.5
 31
0.0
  0
LINE
  5
1B6
330
75
100
AcDbEntity
  8
0
 62
     0
100
AcDbLine
 10
-8.124999999999973
 20
-1951.25
 30
0.0
 11
-8.124999999999973
 21
-1951.25
 31
0.0
  0
LINE
  5
1B7
330
75
100
AcDbEntity
  8
0
 62
     0
100
AcDbLine
 10
-6.874999999999973
 20
-1951.25
 30
0.0
 11
-6.874999999999973
 21
-1951.25
 31
0.0
  0
LINE
  5
1B8
330
75
100
AcDbEntity
  8
0
 62
     0
100
AcDbLine
 10
-5.624999999999973
 20
-1951.25
 30
0.0
 11
-5.624999999999973
 21
-1951.25
 31
0.0
  0
LINE
  5
1B9
330
75
100
AcDbEntity
  8
0
 62
     0
100
AcDbLine
 10
-4.374999999999973
 20
-1951.25
 30
0.0
 11
-4.374999999999973
 21
-1951.25
 31
0.0
  0
LINE
  5
1BA
330
75
100
AcDbEntity
  8
0
 62
     0
100
AcDbLine
 10
-3.124999999999973
 20
-1951.25
 30
0.0
 11
-3.124999999999973
 21
-1951.25
 31
0.0
  0
LINE
  5
1BB
330
75
100
AcDbEntity
  8
0
 62
     0
100
AcDbLine
 10
-1.874999999999973
 20
-1951.25
 30
0.0
 11
-1.874999999999973
 21
-1951.25
 31
0.0
  0
LINE
  5
1BC
330
75
100
AcDbEntity
  8
0
 62
     0
100
AcDbLine
 10
-0.6249999999999734
 20
-1951.25
 30
0.0
 11
-0.6249999999999734
 21
-1951.25
 31
0.0
  0
LINE
  5
1BD
330
75
100
AcDbEntity
  8
0
 62
     0
100
AcDbLine
 10
0.6250000000000267
 20
-1951.25
 30
0.0
 11
0.6250000000000267
 21
-1951.25
 31
0.0
  0
LINE
  5
1BE
330
75
100
AcDbEntity
  8
0
 62
     0
100
AcDbLine
 10
1.875000000000026
 20
-1951.25
 30
0.0
 11
1.875000000000026
 21
-1951.25
 31
0.0
  0
LINE
  5
1BF
330
75
100
AcDbEntity
  8
0
 62
     0
100
AcDbLine
 10
3.125000000000026
 20
-1951.25
 30
0.0
 11
3.125000000000026
 21
-1951.25
 31
0.0
  0
LINE
  5
1C0
330
75
100
AcDbEntity
  8
0
 62
     0
100
AcDbLine
 10
4.375000000000026
 20
-1951.25
 30
0.0
 11
4.375000000000026
 21
-1951.25
 31
0.0
  0
LINE
  5
1C1
330
75
100
AcDbEntity
  8
0
 62
     0
100
AcDbLine
 10
5.625000000000026
 20
-1951.25
 30
0.0
 11
5.625000000000026
 21
-1951.25
 31
0.0
  0
LINE
  5
1C2
330
75
100
AcDbEntity
  8
0
 62
     0
100
AcDbLine
 10
6.874999999999971
 20
-1951.25
 30
0.0
 11
6.874999999999971
 21
-1951.25
 31
0.0
  0
LINE
  5
1C3
330
75
100
AcDbEntity
  8
0
 62
     0
100
AcDbLine
 10
8.124999999999971
 20
-1951.25
 30
0.0
 11
8.124999999999971
 21
-1951.25
 31
0.0
  0
LINE
  5
1C4
330
75
100
AcDbEntity
  8
0
 62
     0
100
AcDbLine
 10
9.374999999999971
 20
-1951.25
 30
0.0
 11
9.374999999999971
 21
-1951.25
 31
0.0
  0
LINE
  5
1C5
330
75
100
AcDbEntity
  8
0
 62
     0
100
AcDbLine
 10
10.62499999999997
 20
-1951.25
 30
0.0
 11
10.62499999999997
 21
-1951.25
 31
0.0
  0
LINE
  5
1C6
330
75
100
AcDbEntity
  8
0
 62
     0
100
AcDbLine
 10
11.87499999999997
 20
-1951.25
 30
0.0
 11
11.87499999999997
 21
-1951.25
 31
0.0
  0
LINE
  5
1C7
330
75
100
AcDbEntity
  8
0
 62
     0
100
AcDbLine
 10
13.12499999999997
 20
-1951.25
 30
0.0
 11
13.12499999999997
 21
-1951.25
 31
0.0
  0
LINE
  5
1C8
330
75
100
AcDbEntity
  8
0
 62
     0
100
AcDbLine
 10
14.37499999999997
 20
-1951.25
 30
0.0
 11
14.37499999999997
 21
-1951.25
 31
0.0
  0
LINE
  5
1C9
330
75
100
AcDbEntity
  8
0
 62
     0
100
AcDbLine
 10
15.62499999999997
 20
-1951.25
 30
0.0
 11
15.62499999999997
 21
-1951.25
 31
0.0
  0
LINE
  5
1CA
330
75
100
AcDbEntity
  8
0
 62
     0
100
AcDbLine
 10
16.87499999999997
 20
-1951.25
 30
0.0
 11
16.87499999999997
 21
-1951.25
 31
0.0
  0
LINE
  5
1CB
330
75
100
AcDbEntity
  8
0
 62
     0
100
AcDbLine
 10
18.12499999999997
 20
-1951.25
 30
0.0
 11
18.12499999999997
 21
-1951.25
 31
0.0
  0
LINE
  5
1CC
330
75
100
AcDbEntity
  8
0
 62
     0
100
AcDbLine
 10
19.37499999999997
 20
-1951.25
 30
0.0
 11
19.37499999999997
 21
-1951.25
 31
0.0
  0
LINE
  5
1CD
330
75
100
AcDbEntity
  8
0
 62
     0
100
AcDbLine
 10
20.62499999999997
 20
-1951.25
 30
0.0
 11
20.62499999999997
 21
-1951.25
 31
0.0
  0
LINE
  5
1CE
330
75
100
AcDbEntity
  8
0
 62
     0
100
AcDbLine
 10
21.87499999999997
 20
-1951.25
 30
0.0
 11
21.87499999999997
 21
-1951.25
 31
0.0
  0
LINE
  5
1CF
330
75
100
AcDbEntity
  8
0
 62
     0
100
AcDbLine
 10
23.12499999999997
 20
-1951.25
 30
0.0
 11
23.12499999999997
 21
-1951.25
 31
0.0
  0
LINE
  5
1D0
330
75
100
AcDbEntity
  8
0
 62
     0
100
AcDbLine
 10
24.37499999999997
 20
-1951.25
 30
0.0
 11
24.37499999999997
 21
-1951.25
 31
0.0
  0
LINE
  5
1D1
330
75
100
AcDbEntity
  8
0
 62
     0
100
AcDbLine
 10
25.62499999999997
 20
-1951.25
 30
0.0
 11
25.62499999999997
 21
-1951.25
 31
0.0
  0
LINE
  5
1D2
330
75
100
AcDbEntity
  8
0
 62
     0
100
AcDbLine
 10
26.87499999999997
 20
-1951.25
 30
0.0
 11
26.87499999999997
 21
-1951.25
 31
0.0
  0
LINE
  5
1D3
330
75
100
AcDbEntity
  8
0
 62
     0
100
AcDbLine
 10
28.12499999999997
 20
-1951.25
 30
0.0
 11
28.12499999999997
 21
-1951.25
 31
0.0
  0
LINE
  5
1D4
330
75
100
AcDbEntity
  8
0
 62
     0
100
AcDbLine
 10
29.37499999999997
 20
-1951.25
 30
0.0
 11
29.37499999999997
 21
-1951.25
 31
0.0
  0
LINE
  5
1D5
330
75
100
AcDbEntity
  8
0
 62
     0
100
AcDbLine
 10
30.62499999999997
 20
-1951.25
 30
0.0
 11
30.62499999999997
 21
-1951.25
 31
0.0
  0
LINE
  5
1D6
330
75
100
AcDbEntity
  8
0
 62
     0
100
AcDbLine
 10
31.87499999999997
 20
-1951.25
 30
0.0
 11
31.87499999999997
 21
-1951.25
 31
0.0
  0
LINE
  5
1D7
330
75
100
AcDbEntity
  8
0
 62
     0
100
AcDbLine
 10
33.12499999999997
 20
-1951.25
 30
0.0
 11
33.12499999999997
 21
-1951.25
 31
0.0
  0
LINE
  5
1D8
330
75
100
AcDbEntity
  8
0
 62
     0
100
AcDbLine
 10
34.37499999999997
 20
-1951.25
 30
0.0
 11
34.37499999999997
 21
-1951.25
 31
0.0
  0
LINE
  5
1D9
330
75
100
AcDbEntity
  8
0
 62
     0
100
AcDbLine
 10
35.62499999999997
 20
-1951.25
 30
0.0
 11
35.62499999999997
 21
-1951.25
 31
0.0
  0
LINE
  5
1DA
330
75
100
AcDbEntity
  8
0
 62
     0
100
AcDbLine
 10
-8.75000000000004
 20
-1952.5
 30
0.0
 11
-8.75000000000004
 21
-1952.5
 31
0.0
  0
LINE
  5
1DB
330
75
100
AcDbEntity
  8
0
 62
     0
100
AcDbLine
 10
-7.50000000000004
 20
-1952.5
 30
0.0
 11
-7.50000000000004
 21
-1952.5
 31
0.0
  0
LINE
  5
1DC
330
75
100
AcDbEntity
  8
0
 62
     0
100
AcDbLine
 10
-6.25000000000004
 20
-1952.5
 30
0.0
 11
-6.25000000000004
 21
-1952.5
 31
0.0
  0
LINE
  5
1DD
330
75
100
AcDbEntity
  8
0
 62
     0
100
AcDbLine
 10
-5.00000000000004
 20
-1952.5
 30
0.0
 11
-5.00000000000004
 21
-1952.5
 31
0.0
  0
LINE
  5
1DE
330
75
100
AcDbEntity
  8
0
 62
     0
100
AcDbLine
 10
-3.75000000000004
 20
-1952.5
 30
0.0
 11
-3.75000000000004
 21
-1952.5
 31
0.0
  0
LINE
  5
1DF
330
75
100
AcDbEntity
  8
0
 62
     0
100
AcDbLine
 10
-2.50000000000004
 20
-1952.5
 30
0.0
 11
-2.50000000000004
 21
-1952.5
 31
0.0
  0
LINE
  5
1E0
330
75
100
AcDbEntity
  8
0
 62
     0
100
AcDbLine
 10
-1.25000000000004
 20
-1952.5
 30
0.0
 11
-1.25000000000004
 21
-1952.5
 31
0.0
  0
LINE
  5
1E1
330
75
100
AcDbEntity
  8
0
 62
     0
100
AcDbLine
 10
-0.0000000000000409
 20
-1952.5
 30
0.0
 11
-0.0000000000000409
 21
-1952.5
 31
0.0
  0
LINE
  5
1E2
330
75
100
AcDbEntity
  8
0
 62
     0
100
AcDbLine
 10
1.249999999999959
 20
-1952.5
 30
0.0
 11
1.249999999999959
 21
-1952.5
 31
0.0
  0
LINE
  5
1E3
330
75
100
AcDbEntity
  8
0
 62
     0
100
AcDbLine
 10
2.499999999999959
 20
-1952.5
 30
0.0
 11
2.499999999999959
 21
-1952.5
 31
0.0
  0
LINE
  5
1E4
330
75
100
AcDbEntity
  8
0
 62
     0
100
AcDbLine
 10
3.749999999999959
 20
-1952.5
 30
0.0
 11
3.749999999999959
 21
-1952.5
 31
0.0
  0
LINE
  5
1E5
330
75
100
AcDbEntity
  8
0
 62
     0
100
AcDbLine
 10
4.999999999999959
 20
-1952.5
 30
0.0
 11
4.999999999999959
 21
-1952.5
 31
0.0
  0
LINE
  5
1E6
330
75
100
AcDbEntity
  8
0
 62
     0
100
AcDbLine
 10
6.249999999999956
 20
-1952.5
 30
0.0
 11
6.249999999999956
 21
-1952.5
 31
0.0
  0
LINE
  5
1E7
330
75
100
AcDbEntity
  8
0
 62
     0
100
AcDbLine
 10
7.499999999999956
 20
-1952.5
 30
0.0
 11
7.499999999999956
 21
-1952.5
 31
0.0
  0
LINE
  5
1E8
330
75
100
AcDbEntity
  8
0
 62
     0
100
AcDbLine
 10
8.749999999999957
 20
-1952.5
 30
0.0
 11
8.749999999999957
 21
-1952.5
 31
0.0
  0
LINE
  5
1E9
330
75
100
AcDbEntity
  8
0
 62
     0
100
AcDbLine
 10
9.999999999999957
 20
-1952.5
 30
0.0
 11
9.999999999999957
 21
-1952.5
 31
0.0
  0
LINE
  5
1EA
330
75
100
AcDbEntity
  8
0
 62
     0
100
AcDbLine
 10
11.24999999999996
 20
-1952.5
 30
0.0
 11
11.24999999999996
 21
-1952.5
 31
0.0
  0
LINE
  5
1EB
330
75
100
AcDbEntity
  8
0
 62
     0
100
AcDbLine
 10
12.49999999999996
 20
-1952.5
 30
0.0
 11
12.49999999999996
 21
-1952.5
 31
0.0
  0
LINE
  5
1EC
330
75
100
AcDbEntity
  8
0
 62
     0
100
AcDbLine
 10
13.74999999999996
 20
-1952.5
 30
0.0
 11
13.74999999999996
 21
-1952.5
 31
0.0
  0
LINE
  5
1ED
330
75
100
AcDbEntity
  8
0
 62
     0
100
AcDbLine
 10
14.99999999999996
 20
-1952.5
 30
0.0
 11
14.99999999999996
 21
-1952.5
 31
0.0
  0
LINE
  5
1EE
330
75
100
AcDbEntity
  8
0
 62
     0
100
AcDbLine
 10
16.24999999999996
 20
-1952.5
 30
0.0
 11
16.24999999999996
 21
-1952.5
 31
0.0
  0
LINE
  5
1EF
330
75
100
AcDbEntity
  8
0
 62
     0
100
AcDbLine
 10
17.49999999999996
 20
-1952.5
 30
0.0
 11
17.49999999999996
 21
-1952.5
 31
0.0
  0
LINE
  5
1F0
330
75
100
AcDbEntity
  8
0
 62
     0
100
AcDbLine
 10
18.74999999999996
 20
-1952.5
 30
0.0
 11
18.74999999999996
 21
-1952.5
 31
0.0
  0
LINE
  5
1F1
330
75
100
AcDbEntity
  8
0
 62
     0
100
AcDbLine
 10
19.99999999999996
 20
-1952.5
 30
0.0
 11
19.99999999999996
 21
-1952.5
 31
0.0
  0
LINE
  5
1F2
330
75
100
AcDbEntity
  8
0
 62
     0
100
AcDbLine
 10
21.24999999999996
 20
-1952.5
 30
0.0
 11
21.24999999999996
 21
-1952.5
 31
0.0
  0
LINE
  5
1F3
330
75
100
AcDbEntity
  8
0
 62
     0
100
AcDbLine
 10
22.49999999999996
 20
-1952.5
 30
0.0
 11
22.49999999999996
 21
-1952.5
 31
0.0
  0
LINE
  5
1F4
330
75
100
AcDbEntity
  8
0
 62
     0
100
AcDbLine
 10
23.74999999999996
 20
-1952.5
 30
0.0
 11
23.74999999999996
 21
-1952.5
 31
0.0
  0
LINE
  5
1F5
330
75
100
AcDbEntity
  8
0
 62
     0
100
AcDbLine
 10
24.99999999999996
 20
-1952.5
 30
0.0
 11
24.99999999999996
 21
-1952.5
 31
0.0
  0
LINE
  5
1F6
330
75
100
AcDbEntity
  8
0
 62
     0
100
AcDbLine
 10
26.24999999999996
 20
-1952.5
 30
0.0
 11
26.24999999999996
 21
-1952.5
 31
0.0
  0
LINE
  5
1F7
330
75
100
AcDbEntity
  8
0
 62
     0
100
AcDbLine
 10
27.49999999999996
 20
-1952.5
 30
0.0
 11
27.49999999999996
 21
-1952.5
 31
0.0
  0
LINE
  5
1F8
330
75
100
AcDbEntity
  8
0
 62
     0
100
AcDbLine
 10
28.74999999999996
 20
-1952.5
 30
0.0
 11
28.74999999999996
 21
-1952.5
 31
0.0
  0
LINE
  5
1F9
330
75
100
AcDbEntity
  8
0
 62
     0
100
AcDbLine
 10
29.99999999999996
 20
-1952.5
 30
0.0
 11
29.99999999999996
 21
-1952.5
 31
0.0
  0
LINE
  5
1FA
330
75
100
AcDbEntity
  8
0
 62
     0
100
AcDbLine
 10
31.24999999999996
 20
-1952.5
 30
0.0
 11
31.24999999999996
 21
-1952.5
 31
0.0
  0
LINE
  5
1FB
330
75
100
AcDbEntity
  8
0
 62
     0
100
AcDbLine
 10
32.49999999999996
 20
-1952.5
 30
0.0
 11
32.49999999999996
 21
-1952.5
 31
0.0
  0
LINE
  5
1FC
330
75
100
AcDbEntity
  8
0
 62
     0
100
AcDbLine
 10
33.74999999999996
 20
-1952.5
 30
0.0
 11
33.74999999999996
 21
-1952.5
 31
0.0
  0
LINE
  5
1FD
330
75
100
AcDbEntity
  8
0
 62
     0
100
AcDbLine
 10
34.99999999999996
 20
-1952.5
 30
0.0
 11
34.99999999999996
 21
-1952.5
 31
0.0
  0
LINE
  5
1FE
330
75
100
AcDbEntity
  8
0
 62
     0
100
AcDbLine
 10
-9.375000000000035
 20
-1953.75
 30
0.0
 11
-9.375000000000035
 21
-1953.75
 31
0.0
  0
LINE
  5
1FF
330
75
100
AcDbEntity
  8
0
 62
     0
100
AcDbLine
 10
-8.125000000000035
 20
-1953.75
 30
0.0
 11
-8.125000000000035
 21
-1953.75
 31
0.0
  0
LINE
  5
200
330
75
100
AcDbEntity
  8
0
 62
     0
100
AcDbLine
 10
-6.875000000000035
 20
-1953.75
 30
0.0
 11
-6.875000000000035
 21
-1953.75
 31
0.0
  0
LINE
  5
201
330
75
100
AcDbEntity
  8
0
 62
     0
100
AcDbLine
 10
-5.625000000000035
 20
-1953.75
 30
0.0
 11
-5.625000000000035
 21
-1953.75
 31
0.0
  0
LINE
  5
202
330
75
100
AcDbEntity
  8
0
 62
     0
100
AcDbLine
 10
-4.375000000000035
 20
-1953.75
 30
0.0
 11
-4.375000000000035
 21
-1953.75
 31
0.0
  0
LINE
  5
203
330
75
100
AcDbEntity
  8
0
 62
     0
100
AcDbLine
 10
-3.125000000000035
 20
-1953.75
 30
0.0
 11
-3.125000000000035
 21
-1953.75
 31
0.0
  0
LINE
  5
204
330
75
100
AcDbEntity
  8
0
 62
     0
100
AcDbLine
 10
-1.875000000000035
 20
-1953.75
 30
0.0
 11
-1.875000000000035
 21
-1953.75
 31
0.0
  0
LINE
  5
205
330
75
100
AcDbEntity
  8
0
 62
     0
100
AcDbLine
 10
-0.6250000000000356
 20
-1953.75
 30
0.0
 11
-0.6250000000000356
 21
-1953.75
 31
0.0
  0
LINE
  5
206
330
75
100
AcDbEntity
  8
0
 62
     0
100
AcDbLine
 10
0.6249999999999645
 20
-1953.75
 30
0.0
 11
0.6249999999999645
 21
-1953.75
 31
0.0
  0
LINE
  5
207
330
75
100
AcDbEntity
  8
0
 62
     0
100
AcDbLine
 10
1.874999999999964
 20
-1953.75
 30
0.0
 11
1.874999999999964
 21
-1953.75
 31
0.0
  0
LINE
  5
208
330
75
100
AcDbEntity
  8
0
 62
     0
100
AcDbLine
 10
3.124999999999964
 20
-1953.75
 30
0.0
 11
3.124999999999964
 21
-1953.75
 31
0.0
  0
LINE
  5
209
330
75
100
AcDbEntity
  8
0
 62
     0
100
AcDbLine
 10
4.374999999999964
 20
-1953.75
 30
0.0
 11
4.374999999999964
 21
-1953.75
 31
0.0
  0
LINE
  5
20A
330
75
100
AcDbEntity
  8
0
 62
     0
100
AcDbLine
 10
5.624999999999964
 20
-1953.75
 30
0.0
 11
5.624999999999964
 21
-1953.75
 31
0.0
  0
LINE
  5
20B
330
75
100
AcDbEntity
  8
0
 62
     0
100
AcDbLine
 10
6.875000000000054
 20
-1953.75
 30
0.0
 11
6.875000000000054
 21
-1953.75
 31
0.0
  0
LINE
  5
20C
330
75
100
AcDbEntity
  8
0
 62
     0
100
AcDbLine
 10
8.125000000000053
 20
-1953.75
 30
0.0
 11
8.125000000000053
 21
-1953.75
 31
0.0
  0
LINE
  5
20D
330
75
100
AcDbEntity
  8
0
 62
     0
100
AcDbLine
 10
9.375000000000053
 20
-1953.75
 30
0.0
 11
9.375000000000053
 21
-1953.75
 31
0.0
  0
LINE
  5
20E
330
75
100
AcDbEntity
  8
0
 62
     0
100
AcDbLine
 10
10.62500000000005
 20
-1953.75
 30
0.0
 11
10.62500000000005
 21
-1953.75
 31
0.0
  0
LINE
  5
20F
330
75
100
AcDbEntity
  8
0
 62
     0
100
AcDbLine
 10
11.87500000000005
 20
-1953.75
 30
0.0
 11
11.87500000000005
 21
-1953.75
 31
0.0
  0
LINE
  5
210
330
75
100
AcDbEntity
  8
0
 62
     0
100
AcDbLine
 10
13.12500000000005
 20
-1953.75
 30
0.0
 11
13.12500000000005
 21
-1953.75
 31
0.0
  0
LINE
  5
211
330
75
100
AcDbEntity
  8
0
 62
     0
100
AcDbLine
 10
14.37500000000005
 20
-1953.75
 30
0.0
 11
14.37500000000005
 21
-1953.75
 31
0.0
  0
LINE
  5
212
330
75
100
AcDbEntity
  8
0
 62
     0
100
AcDbLine
 10
15.62500000000005
 20
-1953.75
 30
0.0
 11
15.62500000000005
 21
-1953.75
 31
0.0
  0
LINE
  5
213
330
75
100
AcDbEntity
  8
0
 62
     0
100
AcDbLine
 10
16.87500000000005
 20
-1953.75
 30
0.0
 11
16.87500000000005
 21
-1953.75
 31
0.0
  0
LINE
  5
214
330
75
100
AcDbEntity
  8
0
 62
     0
100
AcDbLine
 10
18.12500000000005
 20
-1953.75
 30
0.0
 11
18.12500000000005
 21
-1953.75
 31
0.0
  0
LINE
  5
215
330
75
100
AcDbEntity
  8
0
 62
     0
100
AcDbLine
 10
19.37500000000005
 20
-1953.75
 30
0.0
 11
19.37500000000005
 21
-1953.75
 31
0.0
  0
LINE
  5
216
330
75
100
AcDbEntity
  8
0
 62
     0
100
AcDbLine
 10
20.62500000000005
 20
-1953.75
 30
0.0
 11
20.62500000000005
 21
-1953.75
 31
0.0
  0
LINE
  5
217
330
75
100
AcDbEntity
  8
0
 62
     0
100
AcDbLine
 10
21.87500000000005
 20
-1953.75
 30
0.0
 11
21.87500000000005
 21
-1953.75
 31
0.0
  0
LINE
  5
218
330
75
100
AcDbEntity
  8
0
 62
     0
100
AcDbLine
 10
23.12500000000005
 20
-1953.75
 30
0.0
 11
23.12500000000005
 21
-1953.75
 31
0.0
  0
LINE
  5
219
330
75
100
AcDbEntity
  8
0
 62
     0
100
AcDbLine
 10
24.37500000000005
 20
-1953.75
 30
0.0
 11
24.37500000000005
 21
-1953.75
 31
0.0
  0
LINE
  5
21A
330
75
100
AcDbEntity
  8
0
 62
     0
100
AcDbLine
 10
25.62500000000005
 20
-1953.75
 30
0.0
 11
25.62500000000005
 21
-1953.75
 31
0.0
  0
LINE
  5
21B
330
75
100
AcDbEntity
  8
0
 62
     0
100
AcDbLine
 10
26.87500000000005
 20
-1953.75
 30
0.0
 11
26.87500000000005
 21
-1953.75
 31
0.0
  0
LINE
  5
21C
330
75
100
AcDbEntity
  8
0
 62
     0
100
AcDbLine
 10
28.12500000000005
 20
-1953.75
 30
0.0
 11
28.12500000000005
 21
-1953.75
 31
0.0
  0
LINE
  5
21D
330
75
100
AcDbEntity
  8
0
 62
     0
100
AcDbLine
 10
29.37500000000005
 20
-1953.75
 30
0.0
 11
29.37500000000005
 21
-1953.75
 31
0.0
  0
LINE
  5
21E
330
75
100
AcDbEntity
  8
0
 62
     0
100
AcDbLine
 10
30.62500000000005
 20
-1953.75
 30
0.0
 11
30.62500000000005
 21
-1953.75
 31
0.0
  0
LINE
  5
21F
330
75
100
AcDbEntity
  8
0
 62
     0
100
AcDbLine
 10
31.87500000000005
 20
-1953.75
 30
0.0
 11
31.87500000000005
 21
-1953.75
 31
0.0
  0
LINE
  5
220
330
75
100
AcDbEntity
  8
0
 62
     0
100
AcDbLine
 10
33.12500000000006
 20
-1953.75
 30
0.0
 11
33.12500000000006
 21
-1953.75
 31
0.0
  0
LINE
  5
221
330
75
100
AcDbEntity
  8
0
 62
     0
100
AcDbLine
 10
34.37500000000006
 20
-1953.75
 30
0.0
 11
34.37500000000006
 21
-1953.75
 31
0.0
  0
LINE
  5
222
330
75
100
AcDbEntity
  8
0
 62
     0
100
AcDbLine
 10
35.62500000000006
 20
-1953.75
 30
0.0
 11
35.62500000000006
 21
-1953.75
 31
0.0
  0
LINE
  5
223
330
75
100
AcDbEntity
  8
0
 62
     0
100
AcDbLine
 10
-8.75000000000003
 20
-1955.0
 30
0.0
 11
-8.75000000000003
 21
-1955.0
 31
0.0
  0
LINE
  5
224
330
75
100
AcDbEntity
  8
0
 62
     0
100
AcDbLine
 10
-7.50000000000003
 20
-1955.0
 30
0.0
 11
-7.50000000000003
 21
-1955.0
 31
0.0
  0
LINE
  5
225
330
75
100
AcDbEntity
  8
0
 62
     0
100
AcDbLine
 10
-6.25000000000003
 20
-1955.0
 30
0.0
 11
-6.25000000000003
 21
-1955.0
 31
0.0
  0
LINE
  5
226
330
75
100
AcDbEntity
  8
0
 62
     0
100
AcDbLine
 10
-5.00000000000003
 20
-1955.0
 30
0.0
 11
-5.00000000000003
 21
-1955.0
 31
0.0
  0
LINE
  5
227
330
75
100
AcDbEntity
  8
0
 62
     0
100
AcDbLine
 10
-3.75000000000003
 20
-1955.0
 30
0.0
 11
-3.75000000000003
 21
-1955.0
 31
0.0
  0
LINE
  5
228
330
75
100
AcDbEntity
  8
0
 62
     0
100
AcDbLine
 10
-2.50000000000003
 20
-1955.0
 30
0.0
 11
-2.50000000000003
 21
-1955.0
 31
0.0
  0
LINE
  5
229
330
75
100
AcDbEntity
  8
0
 62
     0
100
AcDbLine
 10
-1.25000000000003
 20
-1955.0
 30
0.0
 11
-1.25000000000003
 21
-1955.0
 31
0.0
  0
LINE
  5
22A
330
75
100
AcDbEntity
  8
0
 62
     0
100
AcDbLine
 10
-0.0000000000000302
 20
-1955.0
 30
0.0
 11
-0.0000000000000302
 21
-1955.0
 31
0.0
  0
LINE
  5
22B
330
75
100
AcDbEntity
  8
0
 62
     0
100
AcDbLine
 10
1.249999999999969
 20
-1955.0
 30
0.0
 11
1.249999999999969
 21
-1955.0
 31
0.0
  0
LINE
  5
22C
330
75
100
AcDbEntity
  8
0
 62
     0
100
AcDbLine
 10
2.499999999999969
 20
-1955.0
 30
0.0
 11
2.499999999999969
 21
-1955.0
 31
0.0
  0
LINE
  5
22D
330
75
100
AcDbEntity
  8
0
 62
     0
100
AcDbLine
 10
3.749999999999969
 20
-1955.0
 30
0.0
 11
3.749999999999969
 21
-1955.0
 31
0.0
  0
LINE
  5
22E
330
75
100
AcDbEntity
  8
0
 62
     0
100
AcDbLine
 10
4.999999999999969
 20
-1955.0
 30
0.0
 11
4.999999999999969
 21
-1955.0
 31
0.0
  0
LINE
  5
22F
330
75
100
AcDbEntity
  8
0
 62
     0
100
AcDbLine
 10
6.250000000000006
 20
-1955.0
 30
0.0
 11
6.250000000000006
 21
-1955.0
 31
0.0
  0
LINE
  5
230
330
75
100
AcDbEntity
  8
0
 62
     0
100
AcDbLine
 10
7.500000000000006
 20
-1955.0
 30
0.0
 11
7.500000000000006
 21
-1955.0
 31
0.0
  0
LINE
  5
231
330
75
100
AcDbEntity
  8
0
 62
     0
100
AcDbLine
 10
8.750000000000007
 20
-1955.0
 30
0.0
 11
8.750000000000007
 21
-1955.0
 31
0.0
  0
LINE
  5
232
330
75
100
AcDbEntity
  8
0
 62
     0
100
AcDbLine
 10
10.0
 20
-1955.0
 30
0.0
 11
10.0
 21
-1955.0
 31
0.0
  0
LINE
  5
233
330
75
100
AcDbEntity
  8
0
 62
     0
100
AcDbLine
 10
11.25
 20
-1955.0
 30
0.0
 11
11.25
 21
-1955.0
 31
0.0
  0
LINE
  5
234
330
75
100
AcDbEntity
  8
0
 62
     0
100
AcDbLine
 10
12.50000000000001
 20
-1955.0
 30
0.0
 11
12.50000000000001
 21
-1955.0
 31
0.0
  0
LINE
  5
235
330
75
100
AcDbEntity
  8
0
 62
     0
100
AcDbLine
 10
13.75000000000001
 20
-1955.0
 30
0.0
 11
13.75000000000001
 21
-1955.0
 31
0.0
  0
LINE
  5
236
330
75
100
AcDbEntity
  8
0
 62
     0
100
AcDbLine
 10
15.00000000000001
 20
-1955.0
 30
0.0
 11
15.00000000000001
 21
-1955.0
 31
0.0
  0
LINE
  5
237
330
75
100
AcDbEntity
  8
0
 62
     0
100
AcDbLine
 10
16.25000000000001
 20
-1955.0
 30
0.0
 11
16.25000000000001
 21
-1955.0
 31
0.0
  0
LINE
  5
238
330
75
100
AcDbEntity
  8
0
 62
     0
100
AcDbLine
 10
17.50000000000001
 20
-1955.0
 30
0.0
 11
17.50000000000001
 21
-1955.0
 31
0.0
  0
LINE
  5
239
330
75
100
AcDbEntity
  8
0
 62
     0
100
AcDbLine
 10
18.75000000000001
 20
-1955.0
 30
0.0
 11
18.75000000000001
 21
-1955.0
 31
0.0
  0
LINE
  5
23A
330
75
100
AcDbEntity
  8
0
 62
     0
100
AcDbLine
 10
20.00000000000001
 20
-1955.0
 30
0.0
 11
20.00000000000001
 21
-1955.0
 31
0.0
  0
LINE
  5
23B
330
75
100
AcDbEntity
  8
0
 62
     0
100
AcDbLine
 10
21.25000000000001
 20
-1955.0
 30
0.0
 11
21.25000000000001
 21
-1955.0
 31
0.0
  0
LINE
  5
23C
330
75
100
AcDbEntity
  8
0
 62
     0
100
AcDbLine
 10
22.50000000000001
 20
-1955.0
 30
0.0
 11
22.50000000000001
 21
-1955.0
 31
0.0
  0
LINE
  5
23D
330
75
100
AcDbEntity
  8
0
 62
     0
100
AcDbLine
 10
23.75000000000001
 20
-1955.0
 30
0.0
 11
23.75000000000001
 21
-1955.0
 31
0.0
  0
LINE
  5
23E
330
75
100
AcDbEntity
  8
0
 62
     0
100
AcDbLine
 10
25.00000000000001
 20
-1955.0
 30
0.0
 11
25.00000000000001
 21
-1955.0
 31
0.0
  0
LINE
  5
23F
330
75
100
AcDbEntity
  8
0
 62
     0
100
AcDbLine
 10
26.25000000000001
 20
-1955.0
 30
0.0
 11
26.25000000000001
 21
-1955.0
 31
0.0
  0
LINE
  5
240
330
75
100
AcDbEntity
  8
0
 62
     0
100
AcDbLine
 10
27.50000000000001
 20
-1955.0
 30
0.0
 11
27.50000000000001
 21
-1955.0
 31
0.0
  0
LINE
  5
241
330
75
100
AcDbEntity
  8
0
 62
     0
100
AcDbLine
 10
28.75000000000001
 20
-1955.0
 30
0.0
 11
28.75000000000001
 21
-1955.0
 31
0.0
  0
LINE
  5
242
330
75
100
AcDbEntity
  8
0
 62
     0
100
AcDbLine
 10
30.00000000000001
 20
-1955.0
 30
0.0
 11
30.00000000000001
 21
-1955.0
 31
0.0
  0
LINE
  5
243
330
75
100
AcDbEntity
  8
0
 62
     0
100
AcDbLine
 10
31.25000000000001
 20
-1955.0
 30
0.0
 11
31.25000000000001
 21
-1955.0
 31
0.0
  0
LINE
  5
244
330
75
100
AcDbEntity
  8
0
 62
     0
100
AcDbLine
 10
32.50000000000001
 20
-1955.0
 30
0.0
 11
32.50000000000001
 21
-1955.0
 31
0.0
  0
LINE
  5
245
330
75
100
AcDbEntity
  8
0
 62
     0
100
AcDbLine
 10
33.75000000000001
 20
-1955.0
 30
0.0
 11
33.75000000000001
 21
-1955.0
 31
0.0
  0
LINE
  5
246
330
75
100
AcDbEntity
  8
0
 62
     0
100
AcDbLine
 10
35.00000000000001
 20
-1955.0
 30
0.0
 11
35.00000000000001
 21
-1955.0
 31
0.0
  0
LINE
  5
247
330
75
100
AcDbEntity
  8
0
 62
     0
100
AcDbLine
 10
-9.375000000000026
 20
-1956.25
 30
0.0
 11
-9.375000000000026
 21
-1956.25
 31
0.0
  0
LINE
  5
248
330
75
100
AcDbEntity
  8
0
 62
     0
100
AcDbLine
 10
-8.125000000000026
 20
-1956.25
 30
0.0
 11
-8.125000000000026
 21
-1956.25
 31
0.0
  0
LINE
  5
249
330
75
100
AcDbEntity
  8
0
 62
     0
100
AcDbLine
 10
-6.875000000000026
 20
-1956.25
 30
0.0
 11
-6.875000000000026
 21
-1956.25
 31
0.0
  0
LINE
  5
24A
330
75
100
AcDbEntity
  8
0
 62
     0
100
AcDbLine
 10
-5.625000000000026
 20
-1956.25
 30
0.0
 11
-5.625000000000026
 21
-1956.25
 31
0.0
  0
LINE
  5
24B
330
75
100
AcDbEntity
  8
0
 62
     0
100
AcDbLine
 10
-4.375000000000026
 20
-1956.25
 30
0.0
 11
-4.375000000000026
 21
-1956.25
 31
0.0
  0
LINE
  5
24C
330
75
100
AcDbEntity
  8
0
 62
     0
100
AcDbLine
 10
-3.125000000000026
 20
-1956.25
 30
0.0
 11
-3.125000000000026
 21
-1956.25
 31
0.0
  0
LINE
  5
24D
330
75
100
AcDbEntity
  8
0
 62
     0
100
AcDbLine
 10
-1.875000000000026
 20
-1956.25
 30
0.0
 11
-1.875000000000026
 21
-1956.25
 31
0.0
  0
LINE
  5
24E
330
75
100
AcDbEntity
  8
0
 62
     0
100
AcDbLine
 10
-0.6250000000000267
 20
-1956.25
 30
0.0
 11
-0.6250000000000267
 21
-1956.25
 31
0.0
  0
LINE
  5
24F
330
75
100
AcDbEntity
  8
0
 62
     0
100
AcDbLine
 10
0.6249999999999734
 20
-1956.25
 30
0.0
 11
0.6249999999999734
 21
-1956.25
 31
0.0
  0
LINE
  5
250
330
75
100
AcDbEntity
  8
0
 62
     0
100
AcDbLine
 10
1.874999999999973
 20
-1956.25
 30
0.0
 11
1.874999999999973
 21
-1956.25
 31
0.0
  0
LINE
  5
251
330
75
100
AcDbEntity
  8
0
 62
     0
100
AcDbLine
 10
3.124999999999973
 20
-1956.25
 30
0.0
 11
3.124999999999973
 21
-1956.25
 31
0.0
  0
LINE
  5
252
330
75
100
AcDbEntity
  8
0
 62
     0
100
AcDbLine
 10
4.374999999999973
 20
-1956.25
 30
0.0
 11
4.374999999999973
 21
-1956.25
 31
0.0
  0
LINE
  5
253
330
75
100
AcDbEntity
  8
0
 62
     0
100
AcDbLine
 10
5.624999999999973
 20
-1956.25
 30
0.0
 11
5.624999999999973
 21
-1956.25
 31
0.0
  0
LINE
  5
254
330
75
100
AcDbEntity
  8
0
 62
     0
100
AcDbLine
 10
6.874999999999973
 20
-1956.25
 30
0.0
 11
6.874999999999973
 21
-1956.25
 31
0.0
  0
LINE
  5
255
330
75
100
AcDbEntity
  8
0
 62
     0
100
AcDbLine
 10
8.124999999999973
 20
-1956.25
 30
0.0
 11
8.124999999999973
 21
-1956.25
 31
0.0
  0
LINE
  5
256
330
75
100
AcDbEntity
  8
0
 62
     0
100
AcDbLine
 10
9.375000000000026
 20
-1956.25
 30
0.0
 11
9.375000000000026
 21
-1956.25
 31
0.0
  0
LINE
  5
257
330
75
100
AcDbEntity
  8
0
 62
     0
100
AcDbLine
 10
10.62500000000002
 20
-1956.25
 30
0.0
 11
10.62500000000002
 21
-1956.25
 31
0.0
  0
LINE
  5
258
330
75
100
AcDbEntity
  8
0
 62
     0
100
AcDbLine
 10
11.87500000000002
 20
-1956.25
 30
0.0
 11
11.87500000000002
 21
-1956.25
 31
0.0
  0
LINE
  5
259
330
75
100
AcDbEntity
  8
0
 62
     0
100
AcDbLine
 10
13.12500000000002
 20
-1956.25
 30
0.0
 11
13.12500000000002
 21
-1956.25
 31
0.0
  0
LINE
  5
25A
330
75
100
AcDbEntity
  8
0
 62
     0
100
AcDbLine
 10
14.37500000000002
 20
-1956.25
 30
0.0
 11
14.37500000000002
 21
-1956.25
 31
0.0
  0
LINE
  5
25B
330
75
100
AcDbEntity
  8
0
 62
     0
100
AcDbLine
 10
15.62500000000002
 20
-1956.25
 30
0.0
 11
15.62500000000002
 21
-1956.25
 31
0.0
  0
LINE
  5
25C
330
75
100
AcDbEntity
  8
0
 62
     0
100
AcDbLine
 10
16.87500000000003
 20
-1956.25
 30
0.0
 11
16.87500000000003
 21
-1956.25
 31
0.0
  0
LINE
  5
25D
330
75
100
AcDbEntity
  8
0
 62
     0
100
AcDbLine
 10
18.12500000000003
 20
-1956.25
 30
0.0
 11
18.12500000000003
 21
-1956.25
 31
0.0
  0
LINE
  5
25E
330
75
100
AcDbEntity
  8
0
 62
     0
100
AcDbLine
 10
19.37500000000003
 20
-1956.25
 30
0.0
 11
19.37500000000003
 21
-1956.25
 31
0.0
  0
LINE
  5
25F
330
75
100
AcDbEntity
  8
0
 62
     0
100
AcDbLine
 10
20.62500000000003
 20
-1956.25
 30
0.0
 11
20.62500000000003
 21
-1956.25
 31
0.0
  0
LINE
  5
260
330
75
100
AcDbEntity
  8
0
 62
     0
100
AcDbLine
 10
21.87500000000003
 20
-1956.25
 30
0.0
 11
21.87500000000003
 21
-1956.25
 31
0.0
  0
LINE
  5
261
330
75
100
AcDbEntity
  8
0
 62
     0
100
AcDbLine
 10
23.12500000000003
 20
-1956.25
 30
0.0
 11
23.12500000000003
 21
-1956.25
 31
0.0
  0
LINE
  5
262
330
75
100
AcDbEntity
  8
0
 62
     0
100
AcDbLine
 10
24.37500000000003
 20
-1956.25
 30
0.0
 11
24.37500000000003
 21
-1956.25
 31
0.0
  0
LINE
  5
263
330
75
100
AcDbEntity
  8
0
 62
     0
100
AcDbLine
 10
25.62500000000003
 20
-1956.25
 30
0.0
 11
25.62500000000003
 21
-1956.25
 31
0.0
  0
LINE
  5
264
330
75
100
AcDbEntity
  8
0
 62
     0
100
AcDbLine
 10
26.87500000000003
 20
-1956.25
 30
0.0
 11
26.87500000000003
 21
-1956.25
 31
0.0
  0
LINE
  5
265
330
75
100
AcDbEntity
  8
0
 62
     0
100
AcDbLine
 10
28.12500000000003
 20
-1956.25
 30
0.0
 11
28.12500000000003
 21
-1956.25
 31
0.0
  0
LINE
  5
266
330
75
100
AcDbEntity
  8
0
 62
     0
100
AcDbLine
 10
29.37500000000003
 20
-1956.25
 30
0.0
 11
29.37500000000003
 21
-1956.25
 31
0.0
  0
LINE
  5
267
330
75
100
AcDbEntity
  8
0
 62
     0
100
AcDbLine
 10
30.62500000000003
 20
-1956.25
 30
0.0
 11
30.62500000000003
 21
-1956.25
 31
0.0
  0
LINE
  5
268
330
75
100
AcDbEntity
  8
0
 62
     0
100
AcDbLine
 10
31.87500000000003
 20
-1956.25
 30
0.0
 11
31.87500000000003
 21
-1956.25
 31
0.0
  0
LINE
  5
269
330
75
100
AcDbEntity
  8
0
 62
     0
100
AcDbLine
 10
-8.749999999999998
 20
-1957.5
 30
0.0
 11
-8.749999999999998
 21
-1957.5
 31
0.0
  0
LINE
  5
26A
330
75
100
AcDbEntity
  8
0
 62
     0
100
AcDbLine
 10
-7.499999999999998
 20
-1957.5
 30
0.0
 11
-7.499999999999998
 21
-1957.5
 31
0.0
  0
LINE
  5
26B
330
75
100
AcDbEntity
  8
0
 62
     0
100
AcDbLine
 10
-6.249999999999998
 20
-1957.5
 30
0.0
 11
-6.249999999999998
 21
-1957.5
 31
0.0
  0
LINE
  5
26C
330
75
100
AcDbEntity
  8
0
 62
     0
100
AcDbLine
 10
-4.999999999999998
 20
-1957.5
 30
0.0
 11
-4.999999999999998
 21
-1957.5
 31
0.0
  0
LINE
  5
26D
330
75
100
AcDbEntity
  8
0
 62
     0
100
AcDbLine
 10
-3.749999999999998
 20
-1957.5
 30
0.0
 11
-3.749999999999998
 21
-1957.5
 31
0.0
  0
LINE
  5
26E
330
75
100
AcDbEntity
  8
0
 62
     0
100
AcDbLine
 10
-2.499999999999998
 20
-1957.5
 30
0.0
 11
-2.499999999999998
 21
-1957.5
 31
0.0
  0
LINE
  5
26F
330
75
100
AcDbEntity
  8
0
 62
     0
100
AcDbLine
 10
-1.249999999999998
 20
-1957.5
 30
0.0
 11
-1.249999999999998
 21
-1957.5
 31
0.0
  0
LINE
  5
270
330
75
100
AcDbEntity
  8
0
 62
     0
100
AcDbLine
 10
0.0000000000000018
 20
-1957.5
 30
0.0
 11
0.0000000000000018
 21
-1957.5
 31
0.0
  0
LINE
  5
271
330
75
100
AcDbEntity
  8
0
 62
     0
100
AcDbLine
 10
1.250000000000001
 20
-1957.5
 30
0.0
 11
1.250000000000001
 21
-1957.5
 31
0.0
  0
LINE
  5
272
330
75
100
AcDbEntity
  8
0
 62
     0
100
AcDbLine
 10
2.500000000000001
 20
-1957.5
 30
0.0
 11
2.500000000000001
 21
-1957.5
 31
0.0
  0
LINE
  5
273
330
75
100
AcDbEntity
  8
0
 62
     0
100
AcDbLine
 10
3.750000000000001
 20
-1957.5
 30
0.0
 11
3.750000000000001
 21
-1957.5
 31
0.0
  0
LINE
  5
274
330
75
100
AcDbEntity
  8
0
 62
     0
100
AcDbLine
 10
5.000000000000001
 20
-1957.5
 30
0.0
 11
5.000000000000001
 21
-1957.5
 31
0.0
  0
LINE
  5
275
330
75
100
AcDbEntity
  8
0
 62
     0
100
AcDbLine
 10
6.250000000000001
 20
-1957.5
 30
0.0
 11
6.250000000000001
 21
-1957.5
 31
0.0
  0
LINE
  5
276
330
75
100
AcDbEntity
  8
0
 62
     0
100
AcDbLine
 10
7.500000000000001
 20
-1957.5
 30
0.0
 11
7.500000000000001
 21
-1957.5
 31
0.0
  0
LINE
  5
277
330
75
100
AcDbEntity
  8
0
 62
     0
100
AcDbLine
 10
8.750000000000001
 20
-1957.5
 30
0.0
 11
8.750000000000001
 21
-1957.5
 31
0.0
  0
LINE
  5
278
330
75
100
AcDbEntity
  8
0
 62
     0
100
AcDbLine
 10
10.0
 20
-1957.5
 30
0.0
 11
10.0
 21
-1957.5
 31
0.0
  0
LINE
  5
279
330
75
100
AcDbEntity
  8
0
 62
     0
100
AcDbLine
 10
11.25
 20
-1957.5
 30
0.0
 11
11.25
 21
-1957.5
 31
0.0
  0
LINE
  5
27A
330
75
100
AcDbEntity
  8
0
 62
     0
100
AcDbLine
 10
12.50000000000004
 20
-1957.5
 30
0.0
 11
12.50000000000004
 21
-1957.5
 31
0.0
  0
LINE
  5
27B
330
75
100
AcDbEntity
  8
0
 62
     0
100
AcDbLine
 10
13.75000000000004
 20
-1957.5
 30
0.0
 11
13.75000000000004
 21
-1957.5
 31
0.0
  0
LINE
  5
27C
330
75
100
AcDbEntity
  8
0
 62
     0
100
AcDbLine
 10
15.00000000000004
 20
-1957.5
 30
0.0
 11
15.00000000000004
 21
-1957.5
 31
0.0
  0
LINE
  5
27D
330
75
100
AcDbEntity
  8
0
 62
     0
100
AcDbLine
 10
16.25000000000004
 20
-1957.5
 30
0.0
 11
16.25000000000004
 21
-1957.5
 31
0.0
  0
LINE
  5
27E
330
75
100
AcDbEntity
  8
0
 62
     0
100
AcDbLine
 10
17.50000000000004
 20
-1957.5
 30
0.0
 11
17.50000000000004
 21
-1957.5
 31
0.0
  0
LINE
  5
27F
330
75
100
AcDbEntity
  8
0
 62
     0
100
AcDbLine
 10
18.75000000000004
 20
-1957.5
 30
0.0
 11
18.75000000000004
 21
-1957.5
 31
0.0
  0
LINE
  5
280
330
75
100
AcDbEntity
  8
0
 62
     0
100
AcDbLine
 10
20.00000000000004
 20
-1957.5
 30
0.0
 11
20.00000000000004
 21
-1957.5
 31
0.0
  0
LINE
  5
281
330
75
100
AcDbEntity
  8
0
 62
     0
100
AcDbLine
 10
21.25000000000004
 20
-1957.5
 30
0.0
 11
21.25000000000004
 21
-1957.5
 31
0.0
  0
LINE
  5
282
330
75
100
AcDbEntity
  8
0
 62
     0
100
AcDbLine
 10
22.50000000000004
 20
-1957.5
 30
0.0
 11
22.50000000000004
 21
-1957.5
 31
0.0
  0
LINE
  5
283
330
75
100
AcDbEntity
  8
0
 62
     0
100
AcDbLine
 10
23.75000000000004
 20
-1957.5
 30
0.0
 11
23.75000000000004
 21
-1957.5
 31
0.0
  0
LINE
  5
284
330
75
100
AcDbEntity
  8
0
 62
     0
100
AcDbLine
 10
25.00000000000004
 20
-1957.5
 30
0.0
 11
25.00000000000004
 21
-1957.5
 31
0.0
  0
LINE
  5
285
330
75
100
AcDbEntity
  8
0
 62
     0
100
AcDbLine
 10
26.25000000000004
 20
-1957.5
 30
0.0
 11
26.25000000000004
 21
-1957.5
 31
0.0
  0
LINE
  5
286
330
75
100
AcDbEntity
  8
0
 62
     0
100
AcDbLine
 10
27.50000000000004
 20
-1957.5
 30
0.0
 11
27.50000000000004
 21
-1957.5
 31
0.0
  0
LINE
  5
287
330
75
100
AcDbEntity
  8
0
 62
     0
100
AcDbLine
 10
-8.124999999999971
 20
-1958.75
 30
0.0
 11
-8.124999999999971
 21
-1958.75
 31
0.0
  0
LINE
  5
288
330
75
100
AcDbEntity
  8
0
 62
     0
100
AcDbLine
 10
-6.874999999999971
 20
-1958.75
 30
0.0
 11
-6.874999999999971
 21
-1958.75
 31
0.0
  0
LINE
  5
289
330
75
100
AcDbEntity
  8
0
 62
     0
100
AcDbLine
 10
-5.624999999999971
 20
-1958.75
 30
0.0
 11
-5.624999999999971
 21
-1958.75
 31
0.0
  0
LINE
  5
28A
330
75
100
AcDbEntity
  8
0
 62
     0
100
AcDbLine
 10
-4.374999999999971
 20
-1958.75
 30
0.0
 11
-4.374999999999971
 21
-1958.75
 31
0.0
  0
LINE
  5
28B
330
75
100
AcDbEntity
  8
0
 62
     0
100
AcDbLine
 10
-3.124999999999971
 20
-1958.75
 30
0.0
 11
-3.124999999999971
 21
-1958.75
 31
0.0
  0
LINE
  5
28C
330
75
100
AcDbEntity
  8
0
 62
     0
100
AcDbLine
 10
-1.874999999999971
 20
-1958.75
 30
0.0
 11
-1.874999999999971
 21
-1958.75
 31
0.0
  0
LINE
  5
28D
330
75
100
AcDbEntity
  8
0
 62
     0
100
AcDbLine
 10
-0.6249999999999716
 20
-1958.75
 30
0.0
 11
-0.6249999999999716
 21
-1958.75
 31
0.0
  0
LINE
  5
28E
330
75
100
AcDbEntity
  8
0
 62
     0
100
AcDbLine
 10
0.6250000000000285
 20
-1958.75
 30
0.0
 11
0.6250000000000285
 21
-1958.75
 31
0.0
  0
LINE
  5
28F
330
75
100
AcDbEntity
  8
0
 62
     0
100
AcDbLine
 10
1.875000000000028
 20
-1958.75
 30
0.0
 11
1.875000000000028
 21
-1958.75
 31
0.0
  0
LINE
  5
290
330
75
100
AcDbEntity
  8
0
 62
     0
100
AcDbLine
 10
3.125000000000028
 20
-1958.75
 30
0.0
 11
3.125000000000028
 21
-1958.75
 31
0.0
  0
LINE
  5
291
330
75
100
AcDbEntity
  8
0
 62
     0
100
AcDbLine
 10
4.375000000000028
 20
-1958.75
 30
0.0
 11
4.375000000000028
 21
-1958.75
 31
0.0
  0
LINE
  5
292
330
75
100
AcDbEntity
  8
0
 62
     0
100
AcDbLine
 10
5.625000000000028
 20
-1958.75
 30
0.0
 11
5.625000000000028
 21
-1958.75
 31
0.0
  0
LINE
  5
293
330
75
100
AcDbEntity
  8
0
 62
     0
100
AcDbLine
 10
6.875000000000028
 20
-1958.75
 30
0.0
 11
6.875000000000028
 21
-1958.75
 31
0.0
  0
LINE
  5
294
330
75
100
AcDbEntity
  8
0
 62
     0
100
AcDbLine
 10
8.125000000000028
 20
-1958.75
 30
0.0
 11
8.125000000000028
 21
-1958.75
 31
0.0
  0
LINE
  5
295
330
75
100
AcDbEntity
  8
0
 62
     0
100
AcDbLine
 10
9.375000000000028
 20
-1958.75
 30
0.0
 11
9.375000000000028
 21
-1958.75
 31
0.0
  0
LINE
  5
296
330
75
100
AcDbEntity
  8
0
 62
     0
100
AcDbLine
 10
10.62500000000003
 20
-1958.75
 30
0.0
 11
10.62500000000003
 21
-1958.75
 31
0.0
  0
LINE
  5
297
330
75
100
AcDbEntity
  8
0
 62
     0
100
AcDbLine
 10
11.87500000000003
 20
-1958.75
 30
0.0
 11
11.87500000000003
 21
-1958.75
 31
0.0
  0
LINE
  5
298
330
75
100
AcDbEntity
  8
0
 62
     0
100
AcDbLine
 10
13.12500000000003
 20
-1958.75
 30
0.0
 11
13.12500000000003
 21
-1958.75
 31
0.0
  0
LINE
  5
299
330
75
100
AcDbEntity
  8
0
 62
     0
100
AcDbLine
 10
14.37500000000003
 20
-1958.75
 30
0.0
 11
14.37500000000003
 21
-1958.75
 31
0.0
  0
LINE
  5
29A
330
75
100
AcDbEntity
  8
0
 62
     0
100
AcDbLine
 10
15.62500000000003
 20
-1958.75
 30
0.0
 11
15.62500000000003
 21
-1958.75
 31
0.0
  0
LINE
  5
29B
330
75
100
AcDbEntity
  8
0
 62
     0
100
AcDbLine
 10
16.87500000000003
 20
-1958.75
 30
0.0
 11
16.87500000000003
 21
-1958.75
 31
0.0
  0
LINE
  5
29C
330
75
100
AcDbEntity
  8
0
 62
     0
100
AcDbLine
 10
18.12500000000003
 20
-1958.75
 30
0.0
 11
18.12500000000003
 21
-1958.75
 31
0.0
  0
LINE
  5
29D
330
75
100
AcDbEntity
  8
0
 62
     0
100
AcDbLine
 10
19.37500000000004
 20
-1958.75
 30
0.0
 11
19.37500000000004
 21
-1958.75
 31
0.0
  0
LINE
  5
29E
330
75
100
AcDbEntity
  8
0
 62
     0
100
AcDbLine
 10
20.62500000000004
 20
-1958.75
 30
0.0
 11
20.62500000000004
 21
-1958.75
 31
0.0
  0
LINE
  5
29F
330
75
100
AcDbEntity
  8
0
 62
     0
100
AcDbLine
 10
21.87500000000004
 20
-1958.75
 30
0.0
 11
21.87500000000004
 21
-1958.75
 31
0.0
  0
LINE
  5
2A0
330
75
100
AcDbEntity
  8
0
 62
     0
100
AcDbLine
 10
23.12500000000004
 20
-1958.75
 30
0.0
 11
23.12500000000004
 21
-1958.75
 31
0.0
  0
LINE
  5
2A1
330
75
100
AcDbEntity
  8
0
 62
     0
100
AcDbLine
 10
24.37500000000004
 20
-1958.75
 30
0.0
 11
24.37500000000004
 21
-1958.75
 31
0.0
  0
LINE
  5
2A2
330
75
100
AcDbEntity
  8
0
 62
     0
100
AcDbLine
 10
-6.249999999999944
 20
-1960.0
 30
0.0
 11
-6.249999999999944
 21
-1960.0
 31
0.0
  0
LINE
  5
2A3
330
75
100
AcDbEntity
  8
0
 62
     0
100
AcDbLine
 10
-4.999999999999944
 20
-1960.0
 30
0.0
 11
-4.999999999999944
 21
-1960.0
 31
0.0
  0
LINE
  5
2A4
330
75
100
AcDbEntity
  8
0
 62
     0
100
AcDbLine
 10
-3.749999999999944
 20
-1960.0
 30
0.0
 11
-3.749999999999944
 21
-1960.0
 31
0.0
  0
LINE
  5
2A5
330
75
100
AcDbEntity
  8
0
 62
     0
100
AcDbLine
 10
-2.499999999999944
 20
-1960.0
 30
0.0
 11
-2.499999999999944
 21
-1960.0
 31
0.0
  0
LINE
  5
2A6
330
75
100
AcDbEntity
  8
0
 62
     0
100
AcDbLine
 10
-1.249999999999944
 20
-1960.0
 30
0.0
 11
-1.249999999999944
 21
-1960.0
 31
0.0
  0
LINE
  5
2A7
330
75
100
AcDbEntity
  8
0
 62
     0
100
AcDbLine
 10
0.000000000000056
 20
-1960.0
 30
0.0
 11
0.000000000000056
 21
-1960.0
 31
0.0
  0
LINE
  5
2A8
330
75
100
AcDbEntity
  8
0
 62
     0
100
AcDbLine
 10
1.250000000000055
 20
-1960.0
 30
0.0
 11
1.250000000000055
 21
-1960.0
 31
0.0
  0
LINE
  5
2A9
330
75
100
AcDbEntity
  8
0
 62
     0
100
AcDbLine
 10
2.500000000000055
 20
-1960.0
 30
0.0
 11
2.500000000000055
 21
-1960.0
 31
0.0
  0
LINE
  5
2AA
330
75
100
AcDbEntity
  8
0
 62
     0
100
AcDbLine
 10
3.750000000000055
 20
-1960.0
 30
0.0
 11
3.750000000000055
 21
-1960.0
 31
0.0
  0
LINE
  5
2AB
330
75
100
AcDbEntity
  8
0
 62
     0
100
AcDbLine
 10
5.000000000000055
 20
-1960.0
 30
0.0
 11
5.000000000000055
 21
-1960.0
 31
0.0
  0
LINE
  5
2AC
330
75
100
AcDbEntity
  8
0
 62
     0
100
AcDbLine
 10
6.250000000000055
 20
-1960.0
 30
0.0
 11
6.250000000000055
 21
-1960.0
 31
0.0
  0
LINE
  5
2AD
330
75
100
AcDbEntity
  8
0
 62
     0
100
AcDbLine
 10
7.500000000000055
 20
-1960.0
 30
0.0
 11
7.500000000000055
 21
-1960.0
 31
0.0
  0
LINE
  5
2AE
330
75
100
AcDbEntity
  8
0
 62
     0
100
AcDbLine
 10
8.750000000000056
 20
-1960.0
 30
0.0
 11
8.750000000000056
 21
-1960.0
 31
0.0
  0
LINE
  5
2AF
330
75
100
AcDbEntity
  8
0
 62
     0
100
AcDbLine
 10
10.00000000000005
 20
-1960.0
 30
0.0
 11
10.00000000000005
 21
-1960.0
 31
0.0
  0
LINE
  5
2B0
330
75
100
AcDbEntity
  8
0
 62
     0
100
AcDbLine
 10
11.25000000000005
 20
-1960.0
 30
0.0
 11
11.25000000000005
 21
-1960.0
 31
0.0
  0
LINE
  5
2B1
330
75
100
AcDbEntity
  8
0
 62
     0
100
AcDbLine
 10
12.50000000000005
 20
-1960.0
 30
0.0
 11
12.50000000000005
 21
-1960.0
 31
0.0
  0
LINE
  5
2B2
330
75
100
AcDbEntity
  8
0
 62
     0
100
AcDbLine
 10
13.75000000000005
 20
-1960.0
 30
0.0
 11
13.75000000000005
 21
-1960.0
 31
0.0
  0
LINE
  5
2B3
330
75
100
AcDbEntity
  8
0
 62
     0
100
AcDbLine
 10
15.00000000000006
 20
-1960.0
 30
0.0
 11
15.00000000000006
 21
-1960.0
 31
0.0
  0
LINE
  5
2B4
330
75
100
AcDbEntity
  8
0
 62
     0
100
AcDbLine
 10
16.25000000000006
 20
-1960.0
 30
0.0
 11
16.25000000000006
 21
-1960.0
 31
0.0
  0
LINE
  5
2B5
330
75
100
AcDbEntity
  8
0
 62
     0
100
AcDbLine
 10
17.50000000000006
 20
-1960.0
 30
0.0
 11
17.50000000000006
 21
-1960.0
 31
0.0
  0
LINE
  5
2B6
330
75
100
AcDbEntity
  8
0
 62
     0
100
AcDbLine
 10
18.75000000000006
 20
-1960.0
 30
0.0
 11
18.75000000000006
 21
-1960.0
 31
0.0
  0
LINE
  5
2B7
330
75
100
AcDbEntity
  8
0
 62
     0
100
AcDbLine
 10
20.00000000000006
 20
-1960.0
 30
0.0
 11
20.00000000000006
 21
-1960.0
 31
0.0
  0
LINE
  5
2B8
330
75
100
AcDbEntity
  8
0
 62
     0
100
AcDbLine
 10
21.25000000000006
 20
-1960.0
 30
0.0
 11
21.25000000000006
 21
-1960.0
 31
0.0
  0
LINE
  5
2B9
330
75
100
AcDbEntity
  8
0
 62
     0
100
AcDbLine
 10
22.50000000000006
 20
-1960.0
 30
0.0
 11
22.50000000000006
 21
-1960.0
 31
0.0
  0
LINE
  5
2BA
330
75
100
AcDbEntity
  8
0
 62
     0
100
AcDbLine
 10
23.75000000000006
 20
-1960.0
 30
0.0
 11
23.75000000000006
 21
-1960.0
 31
0.0
  0
LINE
  5
2BB
330
75
100
AcDbEntity
  8
0
 62
     0
100
AcDbLine
 10
-5.624999999999994
 20
-1961.25
 30
0.0
 11
-5.624999999999994
 21
-1961.25
 31
0.0
  0
LINE
  5
2BC
330
75
100
AcDbEntity
  8
0
 62
     0
100
AcDbLine
 10
-4.374999999999994
 20
-1961.25
 30
0.0
 11
-4.374999999999994
 21
-1961.25
 31
0.0
  0
LINE
  5
2BD
330
75
100
AcDbEntity
  8
0
 62
     0
100
AcDbLine
 10
-3.124999999999994
 20
-1961.25
 30
0.0
 11
-3.124999999999994
 21
-1961.25
 31
0.0
  0
LINE
  5
2BE
330
75
100
AcDbEntity
  8
0
 62
     0
100
AcDbLine
 10
-1.874999999999994
 20
-1961.25
 30
0.0
 11
-1.874999999999994
 21
-1961.25
 31
0.0
  0
LINE
  5
2BF
330
75
100
AcDbEntity
  8
0
 62
     0
100
AcDbLine
 10
-0.6249999999999947
 20
-1961.25
 30
0.0
 11
-0.6249999999999947
 21
-1961.25
 31
0.0
  0
LINE
  5
2C0
330
75
100
AcDbEntity
  8
0
 62
     0
100
AcDbLine
 10
0.6250000000000054
 20
-1961.25
 30
0.0
 11
0.6250000000000054
 21
-1961.25
 31
0.0
  0
LINE
  5
2C1
330
75
100
AcDbEntity
  8
0
 62
     0
100
AcDbLine
 10
1.875000000000005
 20
-1961.25
 30
0.0
 11
1.875000000000005
 21
-1961.25
 31
0.0
  0
LINE
  5
2C2
330
75
100
AcDbEntity
  8
0
 62
     0
100
AcDbLine
 10
3.125000000000005
 20
-1961.25
 30
0.0
 11
3.125000000000005
 21
-1961.25
 31
0.0
  0
LINE
  5
2C3
330
75
100
AcDbEntity
  8
0
 62
     0
100
AcDbLine
 10
4.375000000000005
 20
-1961.25
 30
0.0
 11
4.375000000000005
 21
-1961.25
 31
0.0
  0
LINE
  5
2C4
330
75
100
AcDbEntity
  8
0
 62
     0
100
AcDbLine
 10
5.625000000000005
 20
-1961.25
 30
0.0
 11
5.625000000000005
 21
-1961.25
 31
0.0
  0
LINE
  5
2C5
330
75
100
AcDbEntity
  8
0
 62
     0
100
AcDbLine
 10
6.875000000000005
 20
-1961.25
 30
0.0
 11
6.875000000000005
 21
-1961.25
 31
0.0
  0
LINE
  5
2C6
330
75
100
AcDbEntity
  8
0
 62
     0
100
AcDbLine
 10
8.125000000000005
 20
-1961.25
 30
0.0
 11
8.125000000000005
 21
-1961.25
 31
0.0
  0
LINE
  5
2C7
330
75
100
AcDbEntity
  8
0
 62
     0
100
AcDbLine
 10
9.375000000000005
 20
-1961.25
 30
0.0
 11
9.375000000000005
 21
-1961.25
 31
0.0
  0
LINE
  5
2C8
330
75
100
AcDbEntity
  8
0
 62
     0
100
AcDbLine
 10
10.625
 20
-1961.25
 30
0.0
 11
10.625
 21
-1961.25
 31
0.0
  0
LINE
  5
2C9
330
75
100
AcDbEntity
  8
0
 62
     0
100
AcDbLine
 10
11.875
 20
-1961.25
 30
0.0
 11
11.875
 21
-1961.25
 31
0.0
  0
LINE
  5
2CA
330
75
100
AcDbEntity
  8
0
 62
     0
100
AcDbLine
 10
13.125
 20
-1961.25
 30
0.0
 11
13.125
 21
-1961.25
 31
0.0
  0
LINE
  5
2CB
330
75
100
AcDbEntity
  8
0
 62
     0
100
AcDbLine
 10
14.375
 20
-1961.25
 30
0.0
 11
14.375
 21
-1961.25
 31
0.0
  0
LINE
  5
2CC
330
75
100
AcDbEntity
  8
0
 62
     0
100
AcDbLine
 10
15.625
 20
-1961.25
 30
0.0
 11
15.625
 21
-1961.25
 31
0.0
  0
LINE
  5
2CD
330
75
100
AcDbEntity
  8
0
 62
     0
100
AcDbLine
 10
16.87500000000001
 20
-1961.25
 30
0.0
 11
16.87500000000001
 21
-1961.25
 31
0.0
  0
LINE
  5
2CE
330
75
100
AcDbEntity
  8
0
 62
     0
100
AcDbLine
 10
18.12500000000001
 20
-1961.25
 30
0.0
 11
18.12500000000001
 21
-1961.25
 31
0.0
  0
LINE
  5
2CF
330
75
100
AcDbEntity
  8
0
 62
     0
100
AcDbLine
 10
19.37500000000001
 20
-1961.25
 30
0.0
 11
19.37500000000001
 21
-1961.25
 31
0.0
  0
LINE
  5
2D0
330
75
100
AcDbEntity
  8
0
 62
     0
100
AcDbLine
 10
20.62500000000001
 20
-1961.25
 30
0.0
 11
20.62500000000001
 21
-1961.25
 31
0.0
  0
LINE
  5
2D1
330
75
100
AcDbEntity
  8
0
 62
     0
100
AcDbLine
 10
21.87500000000001
 20
-1961.25
 30
0.0
 11
21.87500000000001
 21
-1961.25
 31
0.0
  0
LINE
  5
2D2
330
75
100
AcDbEntity
  8
0
 62
     0
100
AcDbLine
 10
-3.750000000000039
 20
-1962.5
 30
0.0
 11
-3.750000000000039
 21
-1962.5
 31
0.0
  0
LINE
  5
2D3
330
75
100
AcDbEntity
  8
0
 62
     0
100
AcDbLine
 10
-2.500000000000039
 20
-1962.5
 30
0.0
 11
-2.500000000000039
 21
-1962.5
 31
0.0
  0
LINE
  5
2D4
330
75
100
AcDbEntity
  8
0
 62
     0
100
AcDbLine
 10
-1.250000000000039
 20
-1962.5
 30
0.0
 11
-1.250000000000039
 21
-1962.5
 31
0.0
  0
LINE
  5
2D5
330
75
100
AcDbEntity
  8
0
 62
     0
100
AcDbLine
 10
-0.00000000000004
 20
-1962.5
 30
0.0
 11
-0.00000000000004
 21
-1962.5
 31
0.0
  0
LINE
  5
2D6
330
75
100
AcDbEntity
  8
0
 62
     0
100
AcDbLine
 10
1.24999999999996
 20
-1962.5
 30
0.0
 11
1.24999999999996
 21
-1962.5
 31
0.0
  0
LINE
  5
2D7
330
75
100
AcDbEntity
  8
0
 62
     0
100
AcDbLine
 10
2.49999999999996
 20
-1962.5
 30
0.0
 11
2.49999999999996
 21
-1962.5
 31
0.0
  0
LINE
  5
2D8
330
75
100
AcDbEntity
  8
0
 62
     0
100
AcDbLine
 10
3.74999999999996
 20
-1962.5
 30
0.0
 11
3.74999999999996
 21
-1962.5
 31
0.0
  0
LINE
  5
2D9
330
75
100
AcDbEntity
  8
0
 62
     0
100
AcDbLine
 10
4.99999999999996
 20
-1962.5
 30
0.0
 11
4.99999999999996
 21
-1962.5
 31
0.0
  0
LINE
  5
2DA
330
75
100
AcDbEntity
  8
0
 62
     0
100
AcDbLine
 10
6.24999999999996
 20
-1962.5
 30
0.0
 11
6.24999999999996
 21
-1962.5
 31
0.0
  0
LINE
  5
2DB
330
75
100
AcDbEntity
  8
0
 62
     0
100
AcDbLine
 10
7.49999999999996
 20
-1962.5
 30
0.0
 11
7.49999999999996
 21
-1962.5
 31
0.0
  0
LINE
  5
2DC
330
75
100
AcDbEntity
  8
0
 62
     0
100
AcDbLine
 10
8.74999999999996
 20
-1962.5
 30
0.0
 11
8.74999999999996
 21
-1962.5
 31
0.0
  0
LINE
  5
2DD
330
75
100
AcDbEntity
  8
0
 62
     0
100
AcDbLine
 10
9.99999999999996
 20
-1962.5
 30
0.0
 11
9.99999999999996
 21
-1962.5
 31
0.0
  0
LINE
  5
2DE
330
75
100
AcDbEntity
  8
0
 62
     0
100
AcDbLine
 10
11.24999999999996
 20
-1962.5
 30
0.0
 11
11.24999999999996
 21
-1962.5
 31
0.0
  0
LINE
  5
2DF
330
75
100
AcDbEntity
  8
0
 62
     0
100
AcDbLine
 10
12.49999999999996
 20
-1962.5
 30
0.0
 11
12.49999999999996
 21
-1962.5
 31
0.0
  0
LINE
  5
2E0
330
75
100
AcDbEntity
  8
0
 62
     0
100
AcDbLine
 10
13.74999999999996
 20
-1962.5
 30
0.0
 11
13.74999999999996
 21
-1962.5
 31
0.0
  0
LINE
  5
2E1
330
75
100
AcDbEntity
  8
0
 62
     0
100
AcDbLine
 10
14.99999999999996
 20
-1962.5
 30
0.0
 11
14.99999999999996
 21
-1962.5
 31
0.0
  0
LINE
  5
2E2
330
75
100
AcDbEntity
  8
0
 62
     0
100
AcDbLine
 10
16.24999999999996
 20
-1962.5
 30
0.0
 11
16.24999999999996
 21
-1962.5
 31
0.0
  0
LINE
  5
2E3
330
75
100
AcDbEntity
  8
0
 62
     0
100
AcDbLine
 10
17.49999999999996
 20
-1962.5
 30
0.0
 11
17.49999999999996
 21
-1962.5
 31
0.0
  0
LINE
  5
2E4
330
75
100
AcDbEntity
  8
0
 62
     0
100
AcDbLine
 10
18.74999999999996
 20
-1962.5
 30
0.0
 11
18.74999999999996
 21
-1962.5
 31
0.0
  0
LINE
  5
2E5
330
75
100
AcDbEntity
  8
0
 62
     0
100
AcDbLine
 10
19.99999999999996
 20
-1962.5
 30
0.0
 11
19.99999999999996
 21
-1962.5
 31
0.0
  0
LINE
  5
2E6
330
75
100
AcDbEntity
  8
0
 62
     0
100
AcDbLine
 10
-0.6249999999999445
 20
-1963.75
 30
0.0
 11
-0.6249999999999445
 21
-1963.75
 31
0.0
  0
LINE
  5
2E7
330
75
100
AcDbEntity
  8
0
 62
     0
100
AcDbLine
 10
0.6250000000000555
 20
-1963.75
 30
0.0
 11
0.6250000000000555
 21
-1963.75
 31
0.0
  0
LINE
  5
2E8
330
75
100
AcDbEntity
  8
0
 62
     0
100
AcDbLine
 10
1.875000000000055
 20
-1963.75
 30
0.0
 11
1.875000000000055
 21
-1963.75
 31
0.0
  0
LINE
  5
2E9
330
75
100
AcDbEntity
  8
0
 62
     0
100
AcDbLine
 10
3.125000000000055
 20
-1963.75
 30
0.0
 11
3.125000000000055
 21
-1963.75
 31
0.0
  0
LINE
  5
2EA
330
75
100
AcDbEntity
  8
0
 62
     0
100
AcDbLine
 10
4.375000000000055
 20
-1963.75
 30
0.0
 11
4.375000000000055
 21
-1963.75
 31
0.0
  0
LINE
  5
2EB
330
75
100
AcDbEntity
  8
0
 62
     0
100
AcDbLine
 10
5.625000000000055
 20
-1963.75
 30
0.0
 11
5.625000000000055
 21
-1963.75
 31
0.0
  0
LINE
  5
2EC
330
75
100
AcDbEntity
  8
0
 62
     0
100
AcDbLine
 10
6.875000000000055
 20
-1963.75
 30
0.0
 11
6.875000000000055
 21
-1963.75
 31
0.0
  0
LINE
  5
2ED
330
75
100
AcDbEntity
  8
0
 62
     0
100
AcDbLine
 10
8.125000000000055
 20
-1963.75
 30
0.0
 11
8.125000000000055
 21
-1963.75
 31
0.0
  0
LINE
  5
2EE
330
75
100
AcDbEntity
  8
0
 62
     0
100
AcDbLine
 10
9.375000000000055
 20
-1963.75
 30
0.0
 11
9.375000000000055
 21
-1963.75
 31
0.0
  0
LINE
  5
2EF
330
75
100
AcDbEntity
  8
0
 62
     0
100
AcDbLine
 10
10.62500000000005
 20
-1963.75
 30
0.0
 11
10.62500000000005
 21
-1963.75
 31
0.0
  0
LINE
  5
2F0
330
75
100
AcDbEntity
  8
0
 62
     0
100
AcDbLine
 10
11.87500000000005
 20
-1963.75
 30
0.0
 11
11.87500000000005
 21
-1963.75
 31
0.0
  0
LINE
  5
2F1
330
75
100
AcDbEntity
  8
0
 62
     0
100
AcDbLine
 10
13.12500000000005
 20
-1963.75
 30
0.0
 11
13.12500000000005
 21
-1963.75
 31
0.0
  0
LINE
  5
2F2
330
75
100
AcDbEntity
  8
0
 62
     0
100
AcDbLine
 10
14.37500000000005
 20
-1963.75
 30
0.0
 11
14.37500000000005
 21
-1963.75
 31
0.0
  0
LINE
  5
2F3
330
75
100
AcDbEntity
  8
0
 62
     0
100
AcDbLine
 10
15.62500000000005
 20
-1963.75
 30
0.0
 11
15.62500000000005
 21
-1963.75
 31
0.0
  0
LINE
  5
2F4
330
75
100
AcDbEntity
  8
0
 62
     0
100
AcDbLine
 10
16.87500000000006
 20
-1963.75
 30
0.0
 11
16.87500000000006
 21
-1963.75
 31
0.0
  0
LINE
  5
2F5
330
75
100
AcDbEntity
  8
0
 62
     0
100
AcDbLine
 10
8.749999999999966
 20
-1965.0
 30
0.0
 11
8.749999999999966
 21
-1965.0
 31
0.0
  0
LINE
  5
2F6
330
75
100
AcDbEntity
  8
0
 62
     0
100
AcDbLine
 10
9.999999999999966
 20
-1965.0
 30
0.0
 11
9.999999999999966
 21
-1965.0
 31
0.0
  0
LINE
  5
2F7
330
75
100
AcDbEntity
  8
0
 62
     0
100
AcDbLine
 10
11.24999999999996
 20
-1965.0
 30
0.0
 11
11.24999999999996
 21
-1965.0
 31
0.0
  0
LINE
  5
2F8
330
75
100
AcDbEntity
  8
0
 62
     0
100
AcDbLine
 10
12.49999999999996
 20
-1965.0
 30
0.0
 11
12.49999999999996
 21
-1965.0
 31
0.0
  0
LINE
  5
2F9
330
75
100
AcDbEntity
  8
0
 62
     0
100
AcDbLine
 10
13.74999999999996
 20
-1965.0
 30
0.0
 11
13.74999999999996
 21
-1965.0
 31
0.0
  0
ENDBLK
  5
2FA
330
75
100
AcDbEntity
  8
0
100
AcDbBlockEnd
  0
ENDSEC
  0
SECTION
  2
ENTITIES
  0
LWPOLYLINE
  5
2FB
330
6F
100
AcDbEntity
  8
GRABUNGSGRENZE
100
AcDbPolyline
 90
        9
 70
   128
 43
0.0
 10
-0.1604089113737141
 20
-20.01321291028771
 10
0.0080386361624078
 20
-19.63386665429286
 10
0.0914937849789192
 20
-19.42051854996509
 10
0.5526528566010674
 20
-18.82167107118772
 10
1.013987876720365
 20
-19.07105530185311
 10
1.728418348496125
 20
-19.56884867285762
 10
1.536525102054427
 20
-19.82702382848241
 10
1.374674864679972
 20
-20.10250360425111
 10
1.01030676456303
 20
-20.96099378507011
  0
LWPOLYLINE
  5
306
330
6F
100
AcDbEntity
  8
GRABUNGSGRENZE
100
AcDbPolyline
 90
        7
 70
   128
 43
0.0
 10
1.176295199986576
 20
-20.99914505697776
 10
1.53457101378222
 20
-20.22466468614676
 10
1.75648371796171
 20
-19.87025533241511
 10
1.871508459002938
 20
-19.6701383899353
 10
2.157181755172025
 20
-19.88340992603951
 10
2.00813485769676
 20
-20.51936008090367
 10
2.176167890313317
 20
-20.59620577425409
  0
LWPOLYLINE
  5
30F
330
6F
100
AcDbEntity
  8
GRABUNGSGRENZE
100
AcDbPolyline
 90
        2
 70
     0
 43
0.0
 10
2.169838295304685
 20
-19.53617197612811
 10
1.363753163671809
 20
-18.99512048713251
  0
LWPOLYLINE
  5
313
330
6F
100
AcDbEntity
  8
STEINE
100
AcDbPolyline
 90
        8
 70
     0
 43
0.0
 10
1.187285538766546
 20
-19.98289393878166
 10
1.188295586447283
 20
-19.94318059830535
 10
1.167916255274508
 20
-19.87750541668576
 10
1.22188031030036
 20
-19.85305537311196
 10
1.230031240123265
 20
-19.87545596137098
 10
1.275860735084351
 20
-19.90752244536267
 10
1.215791086708004
 20
-19.95183032089939
 10
1.187285538766546
 20
-19.98289393878166
  0
LWPOLYLINE
  5
31D
330
6F
100
AcDbEntity
  8
STEINE
100
AcDbPolyline
 90
       14
 70
     0
 43
0.0
 10
1.283495657487233
 20
-19.89682886485501
 10
1.242755477126678
 20
-19.85457847109512
 10
1.293155744596045
 20
-19.8311474521662
 10
1.404135964849269
 20
-19.76900902159934
 10
1.433152028420922
 20
-19.74456415298133
 10
1.458606311051603
 20
-19.73081201998024
 10
1.474899721789986
 20
-19.73488178187918
 10
1.49170797822362
 20
-19.76644514303467
 10
1.508000966516632
 20
-19.76847833420266
 10
1.516148727999252
 20
-19.77560464197951
 10
1.516156120793249
 20
-19.81124462977123
 10
1.569636168635956
 20
-19.9079706503006
 10
1.569636168635956
 20
-19.9079706503006
 10
1.569636168635956
 20
-19.9079706503006
  0
LWPOLYLINE
  5
32D
330
6F
100
AcDbEntity
  8
STEINE
100
AcDbPolyline
 90
        3
 70
     0
 43
0.0
 10
1.492744851185435
 20
-19.85605404397401
 10
1.492744851185435
 20
-19.85605404397401
 10
1.492744851185435
 20
-19.85605404397401
  0
LWPOLYLINE
  5
332
330
6F
100
AcDbEntity
  8
STEINE
100
AcDbPolyline
 90
        2
 70
     0
 43
0.0
 10
1.538053269382043
 20
-19.83058751042756
 10
1.538053269382043
 20
-19.83058751042756
  0
LWPOLYLINE
  5
336
330
6F
100
AcDbEntity
  8
STEINE
100
AcDbPolyline
 90
        5
 70
     0
 43
0.0
 10
1.432674041084317
 20
-19.89476135000061
 10
1.466269009237649
 20
-19.85402296503288
 10
1.569636168635956
 20
-19.9079706503006
 10
1.52737922697281
 20
-19.91714398433135
 10
1.47290719098899
 20
-19.94719470302662
  0
LWPOLYLINE
  5
33D
330
6F
100
AcDbEntity
  8
STEINE
100
AcDbPolyline
 90
        2
 70
     0
 43
0.0
 10
1.538053269382043
 20
-19.83058751042756
 10
1.538053269382043
 20
-19.83058751042756
  0
LWPOLYLINE
  5
341
330
6F
100
AcDbEntity
  8
STEINE
100
AcDbPolyline
 90
       10
 70
     0
 43
0.0
 10
1.410781539394608
 20
-19.89782074738478
 10
1.432674041084317
 20
-19.89476135000061
 10
1.457622771817916
 20
-19.89832017382398
 10
1.478509344669259
 20
-19.95483068154293
 10
1.461707741750223
 20
-19.95534330939998
 10
1.437269526646819
 20
-19.95840323484087
 10
1.414359162037003
 20
-19.96349941417868
 10
1.394501435685421
 20
-19.95790296351093
 10
1.401623519008565
 20
-19.92938949471876
 10
1.410781539394608
 20
-19.89782074738478
  0
LWPOLYLINE
  5
34D
330
6F
100
AcDbEntity
  8
STEINE
100
AcDbPolyline
 90
        5
 70
     0
 43
0.0
 10
1.414359162037003
 20
-19.96349941417868
 10
1.418944931355966
 20
-19.98030017220697
 10
1.462221108886675
 20
-19.97570891109819
 10
1.468329131298054
 20
-19.96756136083825
 10
1.461707741750223
 20
-19.95534330939998
  0
LWPOLYLINE
  5
354
330
6F
100
AcDbEntity
  8
STEINE
100
AcDbPolyline
 90
        8
 70
     0
 43
0.0
 10
1.414359162037003
 20
-19.96349941417868
 10
1.381774980843809
 20
-19.96808845744927
 10
1.375163624373545
 20
-20.00423896087118
 10
1.372626254255935
 20
-20.04446176086426
 10
1.417938474460885
 20
-20.0373243638964
 10
1.403168056094319
 20
-20.01187029248841
 10
1.41640439289807
 20
-20.00524869171789
 10
1.418944931355966
 20
-19.98030017220697
  0
LWPOLYLINE
  5
35E
330
6F
100
AcDbEntity
  8
STEINE
100
AcDbPolyline
 90
       12
 70
     0
 43
0.0
 10
1.417938474460885
 20
-20.0373243638964
 10
1.411831508162933
 20
-20.05056334098373
 10
1.424564299685115
 20
-20.07092640800971
 10
1.424564299685115
 20
-20.07092640800971
 10
1.455116451435096
 20
-20.08823092254225
 10
1.487205008197435
 20
-20.14881224827357
 10
1.510626944550874
 20
-20.1554262450274
 10
1.516214101420461
 20
-20.09076396259481
 10
1.545228897656001
 20
-20.06020938178394
 10
1.497353749388477
 20
-19.98435704952209
 10
1.482588611589053
 20
-19.98436011225103
 10
1.41640439289807
 20
-20.00524869171789
  0
LWPOLYLINE
  5
36C
330
6F
100
AcDbEntity
  8
STEINE
100
AcDbPolyline
 90
        7
 70
     0
 43
0.0
 10
1.411831508162933
 20
-20.05056334098373
 10
1.377210861850126
 20
-20.05566194938243
 10
1.385364220733916
 20
-20.08977281934444
 10
1.379767347620788
 20
-20.10759397496507
 10
1.397078832501963
 20
-20.11064524027584
 10
1.421005264639057
 20
-20.09485685337783
 10
1.424564299685115
 20
-20.07092640800971
  0
LWPOLYLINE
  5
375
330
6F
100
AcDbEntity
  8
STEINE
100
AcDbPolyline
 90
        9
 70
     0
 43
0.0
 10
1.238717609853272
 20
-20.02463297202061
 10
1.20918194807594
 20
-19.99867282065882
 10
1.222412581867178
 20
-19.9645575150204
 10
1.272300327090836
 20
-19.92483403585518
 10
1.305900153365937
 20
-19.90751621429344
 10
1.345106357775021
 20
-19.91820007855755
 10
1.365472276307257
 20
-19.91921413946932
 10
1.379218283850461
 20
-19.91513814650115
 10
1.401623519008565
 20
-19.92938949471876
  0
LWPOLYLINE
  5
380
330
6F
100
AcDbEntity
  8
STEINE
100
AcDbPolyline
 90
        5
 70
     0
 43
0.0
 10
1.238717609853272
 20
-20.02463297202061
 10
1.294224089738022
 20
-20.07248087256169
 10
1.311021890648716
 20
-20.05363910812604
 10
1.351747391032619
 20
-20.02511866898524
 10
1.375163624373545
 20
-20.00423896087118
  0
LWPOLYLINE
  5
387
330
6F
100
AcDbEntity
  8
STEINE
100
AcDbPolyline
 90
        7
 70
     0
 43
0.0
 10
1.612918260401863
 20
-19.93189137942518
 10
1.616477929115978
 20
-19.91101579015349
 10
1.64956819026297
 20
-19.89166150347213
 10
1.666881153702945
 20
-19.90184076634125
 10
1.661793528883898
 20
-19.92017095903327
 10
1.637863717183834
 20
-19.91966678008365
 10
1.612918260401863
 20
-19.93189137942518
  0
LWPOLYLINE
  5
390
330
6F
100
AcDbEntity
  8
STEINE
100
AcDbPolyline
 90
        6
 70
     0
 43
0.0
 10
1.404135964849269
 20
-19.76900902159934
 10
1.391397575925917
 20
-19.7216613923882
 10
1.382736658529531
 20
-19.69518776827861
 10
1.393936741436355
 20
-19.69009401800168
 10
1.416338068974775
 20
-19.68550708695795
 10
1.433152028420922
 20
-19.74456415298133
  0
LWPOLYLINE
  5
398
330
6F
100
AcDbEntity
  8
STEINE
100
AcDbPolyline
 90
       23
 70
     0
 43
0.0
 10
1.532534759885294
 20
-20.22619253664035
 10
1.524889487570815
 20
-20.1869901342396
 10
1.531500104761678
 20
-20.14727563203853
 10
1.54677100568087
 20
-20.1309798978506
 10
1.629240186202809
 20
-20.07342966566358
 10
1.672506436267292
 20
-20.02097899237735
 10
1.694387637543319
 20
-19.96344132794012
 10
1.731547554977908
 20
-19.92728448783765
 10
1.788077917629305
 20
-20.00211673934119
 10
1.778918524295806
 20
-20.02706663179957
 10
1.770772663817357
 20
-20.02910489231201
 10
1.767721926563295
 20
-20.04896209060687
 10
1.776382315902967
 20
-20.07289000130277
 10
1.760611882933233
 20
-20.13551782523126
 10
1.744323752761992
 20
-20.15690519746926
 10
1.723958151063784
 20
-20.15741856460571
 10
1.717342464528465
 20
-20.17269421803533
 10
1.707669070390457
 20
-20.17422365269906
 10
1.691891878294783
 20
-20.20426634493228
 10
1.660836181263232
 20
-20.21394649819622
 10
1.593631248145887
 20
-20.22312500718277
 10
1.544243246195457
 20
-20.21753468197291
 10
1.532534759885294
 20
-20.22619253664035
  0
LWPOLYLINE
  5
3B1
330
6F
100
AcDbEntity
  8
STEINE
100
AcDbPolyline
 90
        5
 70
     0
 43
0.0
 10
1.928079059575953
 20
-19.93895400356231
 10
1.928074940733582
 20
-19.9190974389355
 10
1.946404288534863
 20
-19.92011192229264
 10
1.957099875658033
 20
-19.93742055566755
 10
1.928079059575953
 20
-19.93895400356231
  0
LWPOLYLINE
  5
3B8
330
6F
100
AcDbEntity
  8
STEINE
100
AcDbPolyline
 90
       12
 70
     0
 43
0.0
 10
2.113377741750897
 20
-19.79788303791488
 10
2.121024492624175
 20
-19.84421343787397
 10
2.152604962817203
 20
-19.90988629604401
 10
2.19588293574074
 20
-19.91395046054178
 10
2.212684961105147
 20
-19.91547440341568
 10
2.242716036090651
 20
-19.8752459004101
 10
2.268171163612075
 20
-19.86556690887092
 10
2.262563729364664
 20
-19.83247379621767
 10
2.219797856241465
 20
-19.84266552122524
 10
2.18110301235332
 20
-19.8426735476873
 10
2.144949234979784
 20
-19.82027876805213
 10
2.113377741750897
 20
-19.79788303791488
  0
LWPOLYLINE
  5
3C6
330
6F
100
AcDbEntity
  8
STEINE
100
AcDbPolyline
 90
        6
 70
     0
 43
0.0
 10
2.19588293574074
 20
-19.91395046054178
 10
2.204545120473239
 20
-19.94653379684424
 10
2.256984598957132
 20
-19.93583092253841
 10
2.248835147693027
 20
-19.92055833183773
 10
2.252395344463856
 20
-19.90222845597974
 10
2.212684961105147
 20
-19.91547440341568
  0
LWPOLYLINE
  5
3CE
330
6F
100
AcDbEntity
  8
STEINE
100
AcDbPolyline
 90
        4
 70
     0
 43
0.0
 10
2.256984598957132
 20
-19.93583092253841
 10
2.274804909687017
 20
-19.93735465418963
 10
2.291604717213225
 20
-19.92818660072602
 10
2.252395344463856
 20
-19.90222845597974
  0
LWPOLYLINE
  5
3D4
330
6F
100
AcDbEntity
  8
STEINE
100
AcDbPolyline
 90
        3
 70
     0
 43
0.0
 10
1.909701764225028
 20
-19.70678874224178
 10
1.873046131351409
 20
-19.71952491332693
 10
1.853186715218341
 20
-19.70578217973536
  0
LWPOLYLINE
  5
3D9
330
6F
100
AcDbEntity
  8
STEINE
100
AcDbPolyline
 90
       13
 70
     0
 43
0.0
 10
1.597558329120668
 20
-19.51897983206433
 10
1.553783041984789
 20
-19.57193975364464
 10
1.539022023027735
 20
-19.5917993810004
 10
1.537497129651747
 20
-19.60401912222016
 10
1.562453147568
 20
-19.6427087911525
 10
1.597086678464632
 20
-19.69972559004793
 10
1.611850654539285
 20
-19.69412195780886
 10
1.660716523611809
 20
-19.63708783865321
 10
1.686163413448493
 20
-19.58769571786041
 10
1.689212883366441
 20
-19.56172880737268
 10
1.658151377711035
 20
-19.543406113086
 10
1.606213754727226
 20
-19.5189780366715
 10
1.597558329120668
 20
-19.51897983206433
  0
LWPOLYLINE
  5
3E8
330
6F
100
AcDbEntity
  8
STEINE
100
AcDbPolyline
 90
        6
 70
     0
 43
0.0
 10
1.513563304720655
 20
-19.58416752132646
 10
1.499810326828824
 20
-19.55464009723387
 10
1.513550314525487
 20
-19.52154297134959
 10
1.523726514665664
 20
-19.48946487011019
 10
1.531358796784975
 20
-19.46604272253407
 10
1.597558329120668
 20
-19.51897983206433
  0
LWPOLYLINE
  5
3F0
330
6F
100
AcDbEntity
  8
STEINE
100
AcDbPolyline
 90
        2
 70
     0
 43
0.0
 10
1.539022023027735
 20
-19.5917993810004
 10
1.513563304720655
 20
-19.58416752132646
  0
LWPOLYLINE
  5
3F4
330
6F
100
AcDbEntity
  8
STEINE
100
AcDbPolyline
 90
        6
 70
     0
 43
0.0
 10
1.531358796784975
 20
-19.46604272253407
 10
1.507936543597507
 20
-19.45790129773202
 10
1.485027446323806
 20
-19.4691071892627
 10
1.478925338147624
 20
-19.505766729756
 10
1.49878581039412
 20
-19.52460089017496
 10
1.499810326828824
 20
-19.55464009723387
  0
LWPOLYLINE
  5
3FC
330
6F
100
AcDbEntity
  8
STEINE
100
AcDbPolyline
 90
        6
 70
     0
 43
0.0
 10
1.478925338147624
 20
-19.505766729756
 10
1.461102915190882
 20
-19.49406014445001
 10
1.423427729615671
 20
-19.50068681456498
 10
1.429541560650906
 20
-19.52054211185568
 10
1.448380684802983
 20
-19.5246113456979
 10
1.478925338147624
 20
-19.505766729756
  0
LWPOLYLINE
  5
404
330
6F
100
AcDbEntity
  8
STEINE
100
AcDbPolyline
 90
        3
 70
     0
 43
0.0
 10
1.429541560650906
 20
-19.52054211185568
 10
1.43973444738325
 20
-19.568908554489
 10
1.499810326828824
 20
-19.55464009723387
  0
LWPOLYLINE
  5
409
330
6F
100
AcDbEntity
  8
STEINE
100
AcDbPolyline
 90
        6
 70
     0
 43
0.0
 10
1.43973444738325
 20
-19.568908554489
 10
1.452980500430541
 20
-19.60912808053045
 10
1.471317346637163
 20
-19.64629169436204
 10
1.488124758180054
 20
-19.67378191405562
 10
1.510528303556673
 20
-19.6798869793494
 10
1.562453147568
 20
-19.6427087911525
  0
LWPOLYLINE
  5
411
330
6F
100
AcDbEntity
  8
STEINE
100
AcDbPolyline
 90
       13
 70
     0
 43
0.0
 10
1.109722437165332
 20
-19.14689770664873
 10
1.09394197111803
 20
-19.16115697571704
 10
1.091907618225275
 20
-19.17184939449992
 10
1.10005706948938
 20
-19.1871219852006
 10
1.085297106645754
 20
-19.21207303938374
 10
1.093449303804773
 20
-19.24058333983563
 10
1.089888050920515
 20
-19.25382178886624
 10
1.124003779004296
 20
-19.26908899338843
 10
1.154046893682882
 20
-19.28690275621506
 10
1.177466400975436
 20
-19.2818064712659
 10
1.186624738195507
 20
-19.25176515198015
 10
1.197821652762047
 20
-19.23139712122105
 10
1.210546629044859
 20
-19.21408362972437
  0
LWPOLYLINE
  5
420
330
6F
100
AcDbEntity
  8
STEINE
100
AcDbPolyline
 90
        8
 70
     0
 43
0.0
 10
1.210546629044859
 20
-19.21408362972437
 10
1.232455500492707
 20
-19.2899413481647
 10
1.197840662803755
 20
-19.32304280411403
 10
1.181549153069544
 20
-19.32813761050439
 10
1.110775996719314
 20
-19.31695115146079
 10
1.096518417432487
 20
-19.3093169683373
 10
1.082257352971346
 20
-19.28488107668345
 10
1.089888050920515
 20
-19.25382178886624
  0
LWPOLYLINE
  5
42A
330
6F
100
AcDbEntity
  8
STEINE
100
AcDbPolyline
 90
        8
 70
     0
 43
0.0
 10
1.05167140559166
 20
-19.10465090367449
 10
1.021640330606156
 20
-19.14487940668008
 10
1.008915354323344
 20
-19.16219289817677
 10
0.9788730845355011
 20
-19.14845227681205
 10
0.9686834717547851
 20
-19.11586925734363
 10
0.9722437741369574
 20
-19.09804852416837
 10
0.9859883031213618
 20
-19.08684453364186
 10
1.025191233578817
 20
-19.08174497474108
  0
LWPOLYLINE
  5
434
330
6F
100
AcDbEntity
  8
STEINE
100
AcDbPolyline
 90
        2
 70
     0
 43
0.0
 10
1.101573302735256
 20
-19.13315254399627
 10
1.021640330606156
 20
-19.14487940668008
  0
LWPOLYLINE
  5
438
330
6F
100
AcDbEntity
  8
STEINE
100
AcDbPolyline
 90
        4
 70
     0
 43
0.0
 10
1.008915354323344
 20
-19.16219289817677
 10
0.9804036809240022
 20
-19.16372624046019
 10
0.9518895784637756
 20
-19.15354930104061
 10
0.9686834717547851
 20
-19.11586925734363
  0
LWPOLYLINE
  5
43E
330
6F
100
AcDbEntity
  8
STEINE
100
AcDbPolyline
 90
        9
 70
     0
 43
0.0
 10
0.8444461092632733
 20
-19.08432818018147
 10
0.8749911850532855
 20
-19.06752013497053
 10
0.9203031940355495
 20
-19.05936445263719
 10
0.9488226826742605
 20
-19.09550766887645
 10
0.9518838754512627
 20
-19.12605559617271
 10
0.9142124918843933
 20
-19.15101140286628
 10
0.8999553350429369
 20
-19.14541379047376
 10
0.8541265793612506
 20
-19.11691130526124
 10
0.8444461092632733
 20
-19.08432818018147
  0
LWPOLYLINE
  5
449
330
6F
100
AcDbEntity
  8
STEINE
100
AcDbPolyline
 90
        7
 70
     0
 43
0.0
 10
0.8805787643682439
 20
-19.00489442326889
 10
0.8714178924759455
 20
-19.02271631816892
 10
0.8795701952463065
 20
-19.05173576130354
 10
0.8897542106258528
 20
-19.05733421858681
 10
0.9182644054663951
 20
-19.04867287874505
 10
0.9121520529899594
 20
-19.0359455790127
 10
0.9177496653824864
 20
-19.02168842217124
  0
LWPOLYLINE
  5
452
330
6F
100
AcDbEntity
  8
STEINE
100
AcDbPolyline
 90
        6
 70
     0
 43
0.0
 10
0.7746665252243002
 20
-18.95400212215432
 10
0.7593926671875088
 20
-18.95604186122556
 10
0.7334283969833458
 20
-18.96572095837608
 10
0.724261610855849
 20
-18.95503086304274
 10
0.712544358804231
 20
-18.92142987504286
 10
0.7166165497640554
 20
-18.91684674600747
  0
LWPOLYLINE
  5
45A
330
6F
100
AcDbEntity
  8
STEINE
100
AcDbPolyline
 90
        9
 70
     0
 43
0.0
 10
0.7593926671875088
 20
-18.95604186122556
 10
0.749724025559928
 20
-18.98048271661253
 10
0.7476938971208856
 20
-19.01154084270497
 10
0.7405719194090841
 20
-19.04056345417988
 10
0.7578835099016016
 20
-19.04412386217339
 10
0.805233673784963
 20
-19.04360489763577
 10
0.8266151317877628
 20
-19.03138103757364
 10
0.8515627007965907
 20
-19.02933929188689
 10
0.873450978032587
 20
-19.00591418719317
  0
LWPOLYLINE
  5
465
330
6F
100
AcDbEntity
  8
STEINE
100
AcDbPolyline
 90
       11
 70
     0
 43
0.0
 10
0.712544358804231
 20
-18.92142987504286
 10
0.724261610855849
 20
-18.95503086304274
 10
0.7196834455535704
 20
-18.97488837817164
 10
0.6743712253486207
 20
-18.98202577513949
 10
0.6519689473081155
 20
-18.98203042203857
 10
0.6188691811402692
 20
-18.95556186727344
 10
0.6071470709668812
 20
-18.89854031586759
 10
0.5816870853236872
 20
-18.88479874400078
 10
0.5781205518722878
 20
-18.87258005889445
 10
0.5674257040285177
 20
-18.8588354242987
 10
0.5755690298347388
 20
-18.84457773940053
  0
LWPOLYLINE
  5
472
330
6F
100
AcDbEntity
  8
STEINE
100
AcDbPolyline
 90
        4
 70
     0
 43
0.0
 10
0.5424744386226911
 20
-18.8430571760896
 10
0.5603024589806023
 20
-18.88174832358075
 10
0.5404485346373616
 20
-18.89448100949159
 10
0.5017532683038449
 20
-18.89245246522268
  0
LWPOLYLINE
  5
478
330
6F
100
AcDbEntity
  8
STEINE
100
AcDbPolyline
 90
       11
 70
     0
 43
0.0
 10
0.4920807190565795
 20
-18.89805504134833
 10
0.5272129371130104
 20
-18.90466660904127
 10
0.5633609058626911
 20
-18.89905854112581
 10
0.560828816312222
 20
-18.96473847525582
 10
0.5516680500312662
 20
-18.98306951283859
 10
0.5246910918627956
 20
-19.01973338339695
 10
0.4987287226628036
 20
-19.03857704883677
 10
0.4788697289751072
 20
-19.02687088597614
 10
0.4539216319095653
 20
-19.0263669182492
 10
0.4238810519032075
 20
-19.0207725798083
 10
0.4030029279592909
 20
-19.00499348670846
  0
LWPOLYLINE
  5
485
330
6F
100
AcDbEntity
  8
STEINE
100
AcDbPolyline
 90
        7
 70
     0
 43
0.0
 10
0.1357784260202226
 20
-19.36857680813892
 10
0.345030154390653
 20
-19.34002141164364
 10
0.3689572201958038
 20
-19.32728788084206
 10
0.3628399039862553
 20
-19.29063087502099
 10
0.3419415026645158
 20
-19.1770963868353
 10
0.3261493137581597
 20
-19.13484081811961
 10
0.3032371537555158
 20
-19.13128157185086
  0
LWPOLYLINE
  5
48E
330
6F
100
AcDbEntity
  8
STEINE
100
AcDbPolyline
 90
       18
 70
     0
 43
0.0
 10
0.069604768463523
 20
-19.44037965587965
 10
0.0634989638903425
 20
-19.4592192024771
 10
0.0624907116024336
 20
-19.50758796855996
 10
0.0589346336739743
 20
-19.54577440904477
 10
0.0660645322364878
 20
-19.55493749877527
 10
0.132766976185692
 20
-19.5778350844126
 10
0.2239068959588998
 20
-19.59410874582988
 10
0.2468176830140869
 20
-19.59104913722302
 10
0.3384558675017222
 20
-19.55488099670685
 10
0.3588200962524729
 20
-19.5477487746948
 10
0.3583060954479641
 20
-19.52432831690016
 10
0.3766263606737619
 20
-19.48155652954176
 10
0.3679628029938053
 20
-19.44235433836371
 10
0.3516636892429099
 20
-19.41079087159687
 10
0.343005200907409
 20
-19.39602752919028
 10
0.3114331796218075
 20
-19.37108608563933
 10
0.2152091202038673
 20
-19.38994432544446
 10
0.0884374503236871
 20
-19.41339118607481
  0
LWPOLYLINE
  5
4A2
330
6F
100
AcDbEntity
  8
STEINE
100
AcDbPolyline
 90
        7
 70
     0
 43
0.0
 10
0.3246689883688443
 20
-19.36191877145512
 10
0.3557248966230804
 20
-19.35325690355665
 10
0.368965035435173
 20
-19.36496443936473
 10
0.3567497298918132
 20
-19.38482353866377
 10
0.3348555384206184
 20
-19.37973665312412
 10
0.3190696861948319
 20
-19.36802964537276
 10
0.3246689883688443
 20
-19.36191877145512
  0
LWPOLYLINE
  5
4AB
330
6F
100
AcDbEntity
  8
STEINE
100
AcDbPolyline
 90
        6
 70
     0
 43
0.0
 10
0.3592975555323635
 20
-19.39500586426183
 10
0.3715176135861506
 20
-19.39805818568603
 10
0.3750841470375498
 20
-19.41027687079236
 10
0.362356108025795
 20
-19.41282522448963
 10
0.352170719698792
 20
-19.40060791233075
 10
0.3592975555323635
 20
-19.39500586426183
  0
LWPOLYLINE
  5
4B3
330
6F
100
AcDbEntity
  8
STEINE
100
AcDbPolyline
 90
        2
 70
     0
 43
0.0
 10
0.069604768463523
 20
-19.44037965587965
 10
0.0884374503236871
 20
-19.41339118607481
  0
LWPOLYLINE
  5
4B7
330
6F
100
AcDbEntity
  8
STEINE
100
AcDbPolyline
 90
       14
 70
     0
 43
0.0
 10
0.0634989638903425
 20
-19.4592192024771
 10
0.009013092820612
 20
-19.42257222973359
 10
-0.0576807966098232
 20
-19.44091520139809
 10
-0.0571673238620286
 20
-19.46178994577904
 10
-0.0739636462139233
 20
-19.48775970777303
 10
-0.092285178775835
 20
-19.52442178293856
 10
-0.0973698464772816
 20
-19.55700797074727
 10
-0.07393998927313
 20
-19.60180766870651
 10
-0.0403310804225451
 20
-19.6282761178603
 10
0.0080405371665787
 20
-19.64303122258215
 10
0.0996880154523829
 20
-19.65166763814701
 10
0.1378738222691324
 20
-19.65216885997903
 10
0.2234022945639027
 20
-19.61600198679898
 10
0.2468176830140869
 20
-19.59104913722302
  0
LWPOLYLINE
  5
4C7
330
6F
100
AcDbEntity
  8
BEFUND
100
AcDbPolyline
 90
       14
 70
     0
 43
0.0
 10
2.108857662687173
 20
-20.0977690285501
 10
2.038086196118429
 20
-20.09472885243032
 10
1.97546756037676
 20
-20.12325383285886
 10
1.905716174566322
 20
-20.12886887112296
 10
1.831888690176374
 20
-20.12022875916111
 10
1.812022409306023
 20
-20.07339175119151
 10
1.810994407697005
 20
-20.02655083560223
 10
1.849684710297409
 20
-20.00464967378241
 10
1.859348916248591
 20
-19.9588248257204
 10
1.859342473956678
 20
-19.92776712207334
 10
1.914316576663268
 20
-19.86360373802323
 10
1.918888827730348
 20
-19.81523423266096
 10
1.870000991498516
 20
-19.76636667380695
 10
1.873046131351409
 20
-19.71952491332693
  0
LWPOLYLINE
  5
4D7
330
6F
100
AcDbEntity
  8
BEFUND
100
AcDbPolyline
 90
       15
 70
     0
 43
0.0
 10
1.391397575925917
 20
-19.7216613923882
 10
1.336921526711069
 20
-19.7323646891394
 10
1.264624955543651
 20
-19.7405259688739
 10
1.221345398449972
 20
-19.72882466413505
 10
1.167874538794091
 20
-19.67639405700395
 10
1.15309831180367
 20
-19.62293713804532
 10
1.110316174533676
 20
-19.55472088991113
 10
1.126601136364633
 20
-19.51805923719097
 10
1.152561815783139
 20
-19.49106928882733
 10
1.234523332181139
 20
-19.44064715981
 10
1.297151789777691
 20
-19.45947244887616
 10
1.363866167808634
 20
-19.53990315766297
 10
1.367445057787144
 20
-19.61169153664974
 10
1.38425637694972
 20
-19.65802003560465
 10
1.393936741436355
 20
-19.69009401800168
  0
LWPOLYLINE
  5
4E8
330
6F
100
AcDbEntity
  8
STEINE
100
AcDbPolyline
 90
        6
 70
     0
 43
0.0
 10
1.223352820450306
 20
-19.58830086125378
 10
1.219275771368712
 20
-19.56946342688319
 10
1.236073994724777
 20
-19.5526582331785
 10
1.250840505471658
 20
-19.55927402532516
 10
1.248299967013763
 20
-19.58422254483607
 10
1.223352820450306
 20
-19.58830086125378
  0
LWPOLYLINE
  5
4F0
330
6F
100
AcDbEntity
  8
STEINE
100
AcDbPolyline
 90
        6
 70
     0
 43
0.0
 10
1.238612420955816
 20
-19.51752686001281
 10
1.230464870695882
 20
-19.51141883760143
 10
1.233007310157948
 20
-19.49563488637981
 10
1.255918308435821
 20
-19.49359356313843
 10
1.255412862150081
 20
-19.51141366264563
 10
1.238612420955816
 20
-19.51752686001281
  0
LWPOLYLINE
  5
4F8
330
6F
100
AcDbEntity
  8
STEINE
100
AcDbPolyline
 90
        5
 70
     0
 43
0.0
 10
1.179053816266378
 20
-19.57099919822749
 10
1.173450712084024
 20
-19.55878093556653
 10
1.19585225084513
 20
-19.55521228988827
 10
1.190763464301313
 20
-19.56794191307017
 10
1.179053816266378
 20
-19.57099919822749
  0
LWPOLYLINE
  5
4FF
330
6F
100
AcDbEntity
  8
STEINE
100
AcDbPolyline
 90
        5
 70
     0
 43
0.0
 10
1.239652884703287
 20
-19.62444661216526
 10
1.230486521021162
 20
-19.61579308756287
 10
1.23557573001035
 20
-19.60510003511193
 10
1.243723069047598
 20
-19.61018977215783
 10
1.239652884703287
 20
-19.62444661216526
  0
INSERT
  5
506
330
6F
100
AcDbEntity
  8
STEINESCHRAFF
100
AcDbBlockReference
  2
*X1
 10
0.0
 20
0.0
 30
0.0
 41
0.01
 42
0.01
 43
0.01
1001
ACAD
1000
HATCH
1002
{
1070
    16
1000
DOTS,I
1040
20.0
1040
0.0
1002
}
  0
ENDSEC
  0
SECTION
  2
OBJECTS
  0
DICTIONARY
  5
C
330
0
100
AcDbDictionary
281
     1
  3
ACAD_CIP_PREVIOUS_PRODUCT_INFO
350
509
  3
ACAD_COLOR
350
62
  3
ACAD_DETAILVIEWSTYLE
350
69
  3
ACAD_GROUP
350
D
  3
ACAD_LAYOUT
350
61
  3
ACAD_MATERIAL
350
10
  3
ACAD_MLEADERSTYLE
350
65
  3
ACAD_MLINESTYLE
350
5E
  3
ACAD_PLOTSETTINGS
350
60
  3
ACAD_PLOTSTYLENAME
350
E
  3
ACAD_SCALELIST
350
42
  3
ACAD_SECTIONVIEWSTYLE
350
67
  3
ACAD_TABLESTYLE
350
63
  3
ACAD_VISUALSTYLE
350
29
  3
ACDB_RECOMPOSE_DATA
350
5B4
  3
AcDbVariableDictionary
350
554
  0
DICTIONARY
  5
50D
330
2
100
AcDbDictionary
280
     1
281
     1
  3
ACAD_LAYERSTATES
360
50E
  0
XRECORD
  5
509
102
{ACAD_REACTORS
330
C
102
}
330
C
100
AcDbXrecord
280
     1
300
ACD
300
2014
300
DSADV_F_S
  0
DICTIONARY
  5
62
102
{ACAD_REACTORS
330
C
102
}
330
C
100
AcDbDictionary
281
     1
  0
DICTIONARY
  5
69
102
{ACAD_REACTORS
330
C
102
}
330
C
100
AcDbDictionary
281
     1
  3
Imperial24
350
6A
  0
DICTIONARY
  5
D
102
{ACAD_REACTORS
330
C
102
}
330
C
100
AcDbDictionary
281
     1
  0
DICTIONARY
  5
61
102
{ACAD_REACTORS
330
C
102
}
330
C
100
AcDbDictionary
281
     1
  3
Layout1
350
6E
  3
Model
350
72
  0
DICTIONARY
  5
10
102
{ACAD_REACTORS
330
C
102
}
330
C
100
AcDbDictionary
281
     1
  3
ByBlock
350
19
  3
ByLayer
350
11
  3
Global
350
21
  0
DICTIONARY
  5
65
102
{ACAD_REACTORS
330
C
102
}
330
C
100
AcDbDictionary
281
     1
  3
Standard
350
66
  0
DICTIONARY
  5
5E
102
{ACAD_REACTORS
330
C
102
}
330
C
100
AcDbDictionary
281
     1
  3
Standard
350
5F
  0
DICTIONARY
  5
60
102
{ACAD_REACTORS
330
C
102
}
330
C
100
AcDbDictionary
281
     1
  0
ACDBDICTIONARYWDFLT
  5
E
102
{ACAD_REACTORS
330
C
102
}
330
C
100
AcDbDictionary
281
     1
  3
Normal
350
F
100
AcDbDictionaryWithDefault
340
F
  0
DICTIONARY
  5
42
102
{ACAD_REACTORS
330
C
102
}
330
C
100
AcDbDictionary
281
     1
  3
A0
350
43
  3
A1
350
44
  3
A2
350
45
  3
A3
350
46
  3
A4
350
47
  3
A5
350
48
  3
A6
350
49
  3
A7
350
4A
  3
A8
350
4B
  3
A9
350
4C
  3
B0
350
4D
  3
B1
350
4E
  3
B2
350
4F
  3
B3
350
50
  3
B4
350
51
  3
B5
350
52
  3
B6
350
53
  0
DICTIONARY
  5
67
102
{ACAD_REACTORS
330
C
102
}
330
C
100
AcDbDictionary
281
     1
  3
Imperial24
350
68
  0
DICTIONARY
  5
63
102
{ACAD_REACTORS
330
C
102
}
330
C
100
AcDbDictionary
281
     1
  3
Standard
350
64
  0
DICTIONARY
  5
29
102
{ACAD_REACTORS
330
C
102
}
330
C
100
AcDbDictionary
281
     1
  3
2dWireframe
350
2F
  3
Basic
350
2E
  3
Brighten
350
35
  3
ColorChange
350
39
  3
Conceptual
350
32
  3
Dim
350
34
  3
EdgeColorOff
350
41
  3
Facepattern
350
38
  3
Flat
350
2A
  3
FlatWithEdges
350
2B
  3
Gouraud
350
2C
  3
GouraudWithEdges
350
2D
  3
Hidden
350
31
  3
JitterOff
350
3F
  3
Linepattern
350
37
  3
OverhangOff
350
40
  3
Realistic
350
33
  3
Shaded
350
3E
  3
Shaded with edges
350
3D
  3
Shades of Gray
350
3A
  3
Sketchy
350
3B
  3
Thicken
350
36
  3
Wireframe
350
30
  3
X-Ray
350
3C
  0
XRECORD
  5
5B4
102
{ACAD_REACTORS
330
C
102
}
330
C
100
AcDbXrecord
280
     1
 90
        1
330
64
330
68
330
6A
  0
DICTIONARY
  5
554
102
{ACAD_REACTORS
330
C
102
}
330
C
100
AcDbDictionary
281
     1
  3
CANNOSCALE
350
559
  3
CMLEADERSTYLE
350
556
  3
CTABLESTYLE
350
555
  3
CVIEWDETAILSTYLE
350
557
  3
CVIEWSECTIONSTYLE
350
558
  0
DICTIONARY
  5
50E
102
{ACAD_REACTORS
330
50D
102
}
330
50D
100
AcDbDictionary
281
     1
  0
ACDBDETAILVIEWSTYLE
  5
6A
102
{ACAD_XDICTIONARY
360
5B2
102
}
102
{ACAD_REACTORS
330
69
102
}
330
69
100
AcDbModelDocViewStyle
 70
     0
  3
Imperial24
290
     0
100
AcDbDetailViewStyle
 70
     0
 71
     0
 90
        3
 71
     1
340
55
 62
   256
 40
0.24
340
0
 62
   256
 40
0.24
300

 40
0.36
280
     3
 71
     2
340
5C
 90
       25
 62
   256
 71
     3
340
55
 62
   256
 40
0.24
 90
        1
 40
0.75
 90
        1
300
%<\AcVar ViewType \f "%tc1">% %<\AcVar ViewDetailId>%\PVARIA %<\AcVar ViewScale \f "%sn">%
 71
     4
340
5C
 90
       25
 62
   256
340
5C
 90
       25
 62
   256
280
     0
  0
LAYOUT
  5
6E
102
{ACAD_REACTORS
330
61
102
}
330
61
100
AcDbPlotSettings
  1

  2
Kyocera FS-1350DN KX
  4

  6

 40
0.0
 41
0.0
 42
0.0
 43
0.0
 44
0.0
 45
0.0
 46
0.0
 47
0.0
 48
0.0
 49
0.0
140
0.0
141
0.0
142
1.0
143
1.0
 70
   688
 72
     0
 73
     0
 74
     5
  7

 75
    16
147
1.0
 76
     0
 77
     2
 78
   300
148
0.0
149
0.0
100
AcDbLayout
  1
Layout1
 70
     0
 71
     1
 10
0.0
 20
0.0
 11
12.0
 21
9.0
 12
0.0
 22
0.0
 32
0.0
 14
1.000000000000000E+20
 24
1.000000000000000E+20
 34
1.000000000000000E+20
 15
-1.000000000000000E+20
 25
-1.000000000000000E+20
 35
-1.000000000000000E+20
146
0.0
 13
0.0
 23
0.0
 33
0.0
 16
1.0
 26
0.0
 36
0.0
 17
0.0
 27
1.0
 37
0.0
 76
     0
330
6B
  0
LAYOUT
  5
72
102
{ACAD_XDICTIONARY
360
552
102
}
102
{ACAD_REACTORS
330
61
102
}
330
61
100
AcDbPlotSettings
  1

  2
Kyocera FS-1350DN KX
  4

  6

 40
0.0
 41
0.0
 42
0.0
 43
0.0
 44
0.0
 45
0.0
 46
0.0
 47
0.0
 48
0.0
 49
0.0
140
0.0
141
0.0
142
1.0
143
1.0
 70
  1712
 72
     0
 73
     0
 74
     0
  7

 75
     0
147
1.0
 76
     0
 77
     2
 78
   300
148
0.0
149
0.0
100
AcDbLayout
  1
Model
 70
     1
 71
     0
 10
0.0
 20
0.0
 11
12.0
 21
9.0
 12
0.0
 22
0.0
 32
0.0
 14
0.0
 24
0.0
 34
0.0
 15
0.0
 25
0.0
 35
0.0
146
0.0
 13
0.0
 23
0.0
 33
0.0
 16
1.0
 26
0.0
 36
0.0
 17
0.0
 27
1.0
 37
0.0
 76
     0
330
6F
331
8F
  0
MATERIAL
  5
19
102
{ACAD_XDICTIONARY
360
1A
102
}
102
{ACAD_REACTORS
330
10
102
}
330
10
100
AcDbMaterial
  1
ByBlock
 72
     0
 43
0.0208333333333333
 43
0.0
 43
0.0
 43
0.0
 43
0.0
 43
0.0208333333333333
 43
0.0
 43
0.0
 43
0.0
 43
0.0
 43
1.0
 43
0.0
 43
0.0
 43
0.0
 43
0.0
 43
1.0
 77
     0
 47
0.0208333333333333
 47
0.0
 47
0.0
 47
0.0
 47
0.0
 47
0.0208333333333333
 47
0.0
 47
0.0
 47
0.0
 47
0.0
 47
1.0
 47
0.0
 47
0.0
 47
0.0
 47
0.0
 47
1.0
171
     0
 49
0.0208333333333333
 49
0.0
 49
0.0
 49
0.0
 49
0.0
 49
0.0208333333333333
 49
0.0
 49
0.0
 49
0.0
 49
0.0
 49
1.0
 49
0.0
 49
0.0
 49
0.0
 49
0.0
 49
1.0
175
     0
142
0.0208333333333333
142
0.0
142
0.0
142
0.0
142
0.0
142
0.0208333333333333
142
0.0
142
0.0
142
0.0
142
0.0
142
1.0
142
0.0
142
0.0
142
0.0
142
0.0
142
1.0
179
     0
144
0.0208333333333333
144
0.0
144
0.0
144
0.0
144
0.0
144
0.0208333333333333
144
0.0
144
0.0
144
0.0
144
0.0
144
1.0
144
0.0
144
0.0
144
0.0
144
0.0
144
1.0
147
0.0208333333333333
147
0.0
147
0.0
147
0.0
147
0.0
147
0.0208333333333333
147
0.0
147
0.0
147
0.0
147
0.0
147
1.0
147
0.0
147
0.0
147
0.0
147
0.0
147
1.0
  0
MATERIAL
  5
11
102
{ACAD_XDICTIONARY
360
12
102
}
102
{ACAD_REACTORS
330
10
102
}
330
10
100
AcDbMaterial
  1
ByLayer
 72
     0
 43
0.0208333333333333
 43
0.0
 43
0.0
 43
0.0
 43
0.0
 43
0.0208333333333333
 43
0.0
 43
0.0
 43
0.0
 43
0.0
 43
1.0
 43
0.0
 43
0.0
 43
0.0
 43
0.0
 43
1.0
 77
     0
 47
0.0208333333333333
 47
0.0
 47
0.0
 47
0.0
 47
0.0
 47
0.0208333333333333
 47
0.0
 47
0.0
 47
0.0
 47
0.0
 47
1.0
 47
0.0
 47
0.0
 47
0.0
 47
0.0
 47
1.0
171
     0
 49
0.0208333333333333
 49
0.0
 49
0.0
 49
0.0
 49
0.0
 49
0.0208333333333333
 49
0.0
 49
0.0
 49
0.0
 49
0.0
 49
1.0
 49
0.0
 49
0.0
 49
0.0
 49
0.0
 49
1.0
175
     0
142
0.0208333333333333
142
0.0
142
0.0
142
0.0
142
0.0
142
0.0208333333333333
142
0.0
142
0.0
142
0.0
142
0.0
142
1.0
142
0.0
142
0.0
142
0.0
142
0.0
142
1.0
179
     0
144
0.0208333333333333
144
0.0
144
0.0
144
0.0
144
0.0
144
0.0208333333333333
144
0.0
144
0.0
144
0.0
144
0.0
144
1.0
144
0.0
144
0.0
144
0.0
144
0.0
144
1.0
147
0.0208333333333333
147
0.0
147
0.0
147
0.0
147
0.0
147
0.0208333333333333
147
0.0
147
0.0
147
0.0
147
0.0
147
1.0
147
0.0
147
0.0
147
0.0
147
0.0
147
1.0
  0
MATERIAL
  5
21
102
{ACAD_XDICTIONARY
360
22
102
}
102
{ACAD_REACTORS
330
10
102
}
330
10
100
AcDbMaterial
  1
Global
 72
     0
 43
0.0208333333333333
 43
0.0
 43
0.0
 43
0.0
 43
0.0
 43
0.0208333333333333
 43
0.0
 43
0.0
 43
0.0
 43
0.0
 43
1.0
 43
0.0
 43
0.0
 43
0.0
 43
0.0
 43
1.0
 77
     0
 47
0.0208333333333333
 47
0.0
 47
0.0
 47
0.0
 47
0.0
 47
0.0208333333333333
 47
0.0
 47
0.0
 47
0.0
 47
0.0
 47
1.0
 47
0.0
 47
0.0
 47
0.0
 47
0.0
 47
1.0
171
     0
 49
0.0208333333333333
 49
0.0
 49
0.0
 49
0.0
 49
0.0
 49
0.0208333333333333
 49
0.0
 49
0.0
 49
0.0
 49
0.0
 49
1.0
 49
0.0
 49
0.0
 49
0.0
 49
0.0
 49
1.0
175
     0
142
0.0208333333333333
142
0.0
142
0.0
142
0.0
142
0.0
142
0.0208333333333333
142
0.0
142
0.0
142
0.0
142
0.0
142
1.0
142
0.0
142
0.0
142
0.0
142
0.0
142
1.0
179
     0
144
0.0208333333333333
144
0.0
144
0.0
144
0.0
144
0.0
144
0.0208333333333333
144
0.0
144
0.0
144
0.0
144
0.0
144
1.0
144
0.0
144
0.0
144
0.0
144
0.0
144
1.0
147
0.0208333333333333
147
0.0
147
0.0
147
0.0
147
0.0
147
0.0208333333333333
147
0.0
147
0.0
147
0.0
147
0.0
147
1.0
147
0.0
147
0.0
147
0.0
147
0.0
147
1.0
  0
MLEADERSTYLE
  5
66
102
{ACAD_REACTORS
330
65
102
}
330
65
100
AcDbMLeaderStyle
179
     2
170
     2
171
     1
172
     0
 90
        2
 40
0.0
 41
0.0
173
     1
 91
-1056964608
340
5A
 92
       -2
290
     1
 42
0.09
291
     1
 43
0.36
  3
Standard
 44
0.18
300

342
55
174
     1
178
     6
175
     1
176
     0
 93
-1056964608
 45
0.18
292
     0
297
     0
 46
0.18
 94
-1056964608
 47
1.0
 49
1.0
140
1.0
293
     1
141
0.0
294
     1
177
     0
142
1.0
295
     0
296
     0
143
0.125
271
     0
272
     9
273
     9
298
     1
  0
MLINESTYLE
  5
5F
102
{ACAD_REACTORS
330
5E
102
}
330
5E
100
AcDbMlineStyle
  2
STANDARD
 70
     0
  3

 62
   256
 51
90.0
 52
90.0
 71
     2
 49
0.5
 62
   256
  6
BYLAYER
 49
-0.5
 62
   256
  6
BYLAYER
  0
ACDBPLACEHOLDER
  5
F
102
{ACAD_REACTORS
330
E
102
}
330
E
  0
SCALE
  5
43
102
{ACAD_REACTORS
330
42
102
}
330
42
100
AcDbScale
 70
     0
300
1:1
140
1.0
141
1.0
290
     1
  0
SCALE
  5
44
102
{ACAD_REACTORS
330
42
102
}
330
42
100
AcDbScale
 70
     0
300
1/128" = 1'-0"
140
0.0078125
141
12.0
290
     0
  0
SCALE
  5
45
102
{ACAD_REACTORS
330
42
102
}
330
42
100
AcDbScale
 70
     0
300
1/64" = 1'-0"
140
0.015625
141
12.0
290
     0
  0
SCALE
  5
46
102
{ACAD_REACTORS
330
42
102
}
330
42
100
AcDbScale
 70
     0
300
1/32" = 1'-0"
140
0.03125
141
12.0
290
     0
  0
SCALE
  5
47
102
{ACAD_REACTORS
330
42
102
}
330
42
100
AcDbScale
 70
     0
300
1/16" = 1'-0"
140
0.0625
141
12.0
290
     0
  0
SCALE
  5
48
102
{ACAD_REACTORS
330
42
102
}
330
42
100
AcDbScale
 70
     0
300
3/32" = 1'-0"
140
0.09375
141
12.0
290
     0
  0
SCALE
  5
49
102
{ACAD_REACTORS
330
42
102
}
330
42
100
AcDbScale
 70
     0
300
1/8" = 1'-0"
140
0.125
141
12.0
290
     0
  0
SCALE
  5
4A
102
{ACAD_REACTORS
330
42
102
}
330
42
100
AcDbScale
 70
     0
300
3/16" = 1'-0"
140
0.1875
141
12.0
290
     0
  0
SCALE
  5
4B
102
{ACAD_REACTORS
330
42
102
}
330
42
100
AcDbScale
 70
     0
300
1/4" = 1'-0"
140
0.25
141
12.0
290
     0
  0
SCALE
  5
4C
102
{ACAD_REACTORS
330
42
102
}
330
42
100
AcDbScale
 70
     0
300
3/8" = 1'-0"
140
0.375
141
12.0
290
     0
  0
SCALE
  5
4D
102
{ACAD_REACTORS
330
42
102
}
330
42
100
AcDbScale
 70
     0
300
1/2" = 1'-0"
140
0.5
141
12.0
290
     0
  0
SCALE
  5
4E
102
{ACAD_REACTORS
330
42
102
}
330
42
100
AcDbScale
 70
     0
300
3/4" = 1'-0"
140
0.75
141
12.0
290
     0
  0
SCALE
  5
4F
102
{ACAD_REACTORS
330
42
102
}
330
42
100
AcDbScale
 70
     0
300
1" = 1'-0"
140
1.0
141
12.0
290
     0
  0
SCALE
  5
50
102
{ACAD_REACTORS
330
42
102
}
330
42
100
AcDbScale
 70
     0
300
1-1/2" = 1'-0"
140
1.5
141
12.0
290
     0
  0
SCALE
  5
51
102
{ACAD_REACTORS
330
42
102
}
330
42
100
AcDbScale
 70
     0
300
3" = 1'-0"
140
3.0
141
12.0
290
     0
  0
SCALE
  5
52
102
{ACAD_REACTORS
330
42
102
}
330
42
100
AcDbScale
 70
     0
300
6" = 1'-0"
140
6.0
141
12.0
290
     0
  0
SCALE
  5
53
102
{ACAD_REACTORS
330
42
102
}
330
42
100
AcDbScale
 70
     0
300
1'-0" = 1'-0"
140
12.0
141
12.0
290
     0
  0
ACDBSECTIONVIEWSTYLE
  5
68
102
{ACAD_XDICTIONARY
360
5B0
102
}
102
{ACAD_REACTORS
330
67
102
}
330
67
100
AcDbModelDocViewStyle
 70
     0
  3
Imperial24
290
     0
100
AcDbSectionViewStyle
 70
     0
 71
     0
 90
       78
 71
     1
340
55
 62
   256
 40
0.24
340
0
340
0
 62
   256
 40
0.24
300
I, O, Q, S, X, Z
 40
0.48
 90
        3
 40
0.18
 90
        1
 71
     2
340
5C
 90
       25
 62
   256
340
5C
 90
       50
 62
   256
 40
0.24
 40
0.0
 40
0.24
 71
     3
340
55
 62
   256
 40
0.24
 90
        1
 40
0.75
 90
        1
300
%<\AcVar ViewType \f "%tc1">% %<\AcVar ViewSectionStartId>%-%<\AcVar ViewSectionEndId>%\PVARIA %<\AcVar ViewScale \f "%sn">%
 71
     4
 62
   256
 62
   257
300
ANSI31
 40
1.0
 90
        0
290
     0
290
     0
 90
        6
 40
0.0
 40
1.570796326794896
 40
0.2617993877991494
 40
1.308996938995747
 40
-0.2617993877991494
 40
1.832595714594046
  0
TABLESTYLE
  5
64
102
{ACAD_XDICTIONARY
360
5AE
102
}
102
{ACAD_REACTORS
330
63
102
}
330
63
100
AcDbTableStyle
280
     0
  3
Standard
 70
     0
 71
     0
 40
0.06
 41
0.06
280
     0
281
     0
  7
STANDARD
140
0.18
170
     2
 62
     0
 63
     7
283
     0
 90
      512
 91
        0
  1

274
    -2
284
     1
 64
     0
275
    -2
285
     1
 65
     0
276
    -2
286
     1
 66
     0
277
    -2
287
     1
 67
     0
278
    -2
288
     1
 68
     0
279
    -2
289
     1
 69
     0
  7
STANDARD
140
0.25
170
     5
 62
     0
 63
     7
283
     0
 90
      512
 91
        0
  1

274
    -2
284
     1
 64
     0
275
    -2
285
     1
 65
     0
276
    -2
286
     1
 66
     0
277
    -2
287
     1
 67
     0
278
    -2
288
     1
 68
     0
279
    -2
289
     1
 69
     0
  7
STANDARD
140
0.18
170
     5
 62
     0
 63
     7
283
     0
 90
      512
 91
        0
  1

274
    -2
284
     1
 64
     0
275
    -2
285
     1
 65
     0
276
    -2
286
     1
 66
     0
277
    -2
287
     1
 67
     0
278
    -2
288
     1
 68
     0
279
    -2
289
     1
 69
     0
  0
VISUALSTYLE
  5
2F
102
{ACAD_REACTORS
330
29
102
}
330
29
100
AcDbVisualStyle
  2
2dWireframe
 70
     4
177
     3
291
     0
 70
    58
 90
        0
176
     1
 90
        2
176
     1
 90
        0
176
     1
 90
        0
176
     1
 40
0.6
176
     1
 40
30.0
176
     1
 62
     7
420
 16777215
176
     1
 90
        1
176
     1
 90
        4
176
     1
 62
     7
176
     1
 62
   257
176
     1
 90
        1
176
     1
 90
        1
176
     1
 40
1.0
176
     1
 90
        0
176
     1
 62
   257
176
     1
 40
1.0
176
     1
 90
        1
176
     1
 90
        6
176
     1
 90
        2
176
     1
 62
     7
176
     1
 90
        5
176
     1
 90
        0
176
     1
 90
        0
176
     1
290
     0
176
     1
 90
        1
176
     1
 40
0.0
176
     1
 90
        0
176
     1
290
     1
176
     1
290
     1
176
     1
290
     0
176
     1
290
     0
176
     1
290
     0
176
     1
290
     0
176
     1
290
     0
176
     1
290
     0
176
     1
290
     0
176
     1
 90
       50
176
     1
 40
0.0
176
     1
 40
1.0
176
     1
 90
        0
176
     1
 62
    18
420
        0
176
     1
 90
       50
176
     1
 90
        3
176
     1
 62
     5
420
      255
176
     1
290
     0
176
     1
 90
       50
176
     1
 90
       50
176
     1
 90
       50
176
     1
290
     0
176
     1
 90
       50
176
     1
 62
   256
176
     0
 40
1.0
176
     0
 90
        2
176
     1
  1
strokes_ogs.tif
176
     1
290
     0
176
     1
 40
1.0
176
     1
 40
1.0
176
     1
  0
VISUALSTYLE
  5
2E
102
{ACAD_REACTORS
330
29
102
}
330
29
100
AcDbVisualStyle
  2
Basic
 70
     7
177
     3
291
     1
 70
    58
 90
        1
176
     1
 90
        0
176
     1
 90
        1
176
     1
 90
        0
176
     1
 40
0.6
176
     1
 40
30.0
176
     1
 62
     7
420
 16777215
176
     1
 90
        0
176
     1
 90
        4
176
     1
 62
     7
176
     1
 62
   257
176
     1
 90
        1
176
     1
 90
        1
176
     1
 40
1.0
176
     1
 90
        8
176
     1
 62
     7
176
     1
 40
1.0
176
     1
 90
        1
176
     1
 90
        6
176
     1
 90
        2
176
     1
 62
     7
176
     1
 90
        5
176
     1
 90
        0
176
     1
 90
        0
176
     1
290
     0
176
     1
 90
        1
176
     1
 40
0.0
176
     1
 90
        0
176
     1
290
     0
176
     1
290
     1
176
     1
290
     1
176
     1
290
     0
176
     1
290
     0
176
     1
290
     0
176
     1
290
     0
176
     1
290
     0
176
     1
290
     0
176
     1
 90
       50
176
     1
 40
0.0
176
     1
 40
1.0
176
     1
 90
        0
176
     1
 62
    18
420
        0
176
     1
 90
       50
176
     1
 90
        3
176
     1
 62
     5
420
      255
176
     1
290
     0
176
     1
 90
       50
176
     1
 90
       50
176
     1
 90
       50
176
     1
290
     0
176
     1
 90
       50
176
     1
 62
   256
176
     0
 40
1.0
176
     0
 90
        2
176
     1
  1
strokes_ogs.tif
176
     1
290
     0
176
     1
 40
1.0
176
     1
 40
1.0
176
     1
  0
VISUALSTYLE
  5
35
102
{ACAD_REACTORS
330
29
102
}
330
29
100
AcDbVisualStyle
  2
Brighten
 70
    12
177
     3
291
     1
 70
    58
 90
        2
176
     1
 90
        2
176
     1
 90
        0
176
     1
 90
        0
176
     1
 40
0.6
176
     1
 40
30.0
176
     1
 62
     7
420
 16777215
176
     1
 90
        1
176
     1
 90
        4
176
     1
 62
     7
176
     1
 62
   257
176
     1
 90
        1
176
     1
 90
        1
176
     1
 40
1.0
176
     1
 90
        8
176
     1
 62
     7
176
     1
 40
1.0
176
     1
 90
        1
176
     1
 90
        6
176
     1
 90
        2
176
     1
 62
     7
176
     1
 90
        5
176
     1
 90
        0
176
     1
 90
        0
176
     1
290
     0
176
     1
 90
        1
176
     1
 40
50.0
176
     1
 90
        0
176
     1
290
     0
176
     1
290
     1
176
     1
290
     1
176
     1
290
     0
176
     1
290
     0
176
     1
290
     0
176
     1
290
     0
176
     1
290
     0
176
     1
290
     0
176
     1
 90
       50
176
     1
 40
0.0
176
     1
 40
1.0
176
     1
 90
        0
176
     1
 62
    18
420
        0
176
     1
 90
       50
176
     1
 90
        3
176
     1
 62
     5
420
      255
176
     1
290
     0
176
     1
 90
       50
176
     1
 90
       50
176
     1
 90
       50
176
     1
290
     0
176
     1
 90
       50
176
     1
 62
   256
176
     0
 40
1.0
176
     0
 90
        2
176
     1
  1
strokes_ogs.tif
176
     1
290
     0
176
     1
 40
1.0
176
     1
 40
1.0
176
     1
  0
VISUALSTYLE
  5
39
102
{ACAD_REACTORS
330
29
102
}
330
29
100
AcDbVisualStyle
  2
ColorChange
 70
    16
177
     3
291
     1
 70
    58
 90
        2
176
     1
 90
        2
176
     1
 90
        3
176
     1
 90
        0
176
     1
 40
0.6
176
     1
 40
30.0
176
     1
 62
     8
420
  8421504
176
     1
 90
        1
176
     1
 90
        4
176
     1
 62
     7
176
     1
 62
   257
176
     1
 90
        1
176
     1
 90
        1
176
     1
 40
1.0
176
     1
 90
        8
176
     1
 62
     8
420
  8421504
176
     1
 40
1.0
176
     1
 90
        1
176
     1
 90
        6
176
     1
 90
        2
176
     1
 62
     7
176
     1
 90
        5
176
     1
 90
        0
176
     1
 90
        0
176
     1
290
     0
176
     1
 90
        1
176
     1
 40
0.0
176
     1
 90
        0
176
     1
290
     0
176
     1
290
     1
176
     1
290
     1
176
     1
290
     0
176
     1
290
     0
176
     1
290
     0
176
     1
290
     0
176
     1
290
     0
176
     1
290
     0
176
     1
 90
       50
176
     1
 40
0.0
176
     1
 40
1.0
176
     1
 90
        0
176
     1
 62
    18
420
        0
176
     1
 90
       50
176
     1
 90
        3
176
     1
 62
     5
420
      255
176
     1
290
     0
176
     1
 90
       50
176
     1
 90
       50
176
     1
 90
       50
176
     1
290
     0
176
     1
 90
       50
176
     1
 62
   256
176
     0
 40
1.0
176
     0
 90
        2
176
     1
  1
strokes_ogs.tif
176
     1
290
     0
176
     1
 40
1.0
176
     1
 40
1.0
176
     1
  0
VISUALSTYLE
  5
32
102
{ACAD_REACTORS
330
29
102
}
330
29
100
AcDbVisualStyle
  2
Conceptual
 70
     9
177
     3
291
     0
 70
    58
 90
        3
176
     1
 90
        2
176
     1
 90
        0
176
     1
 90
        0
176
     1
 40
0.6
176
     1
 40
30.0
176
     1
 62
     7
420
 16777215
176
     1
 90
        2
176
     1
 90
        2
176
     1
 62
     7
176
     1
 62
   257
176
     1
 90
        1
176
     1
 90
        1
176
     1
 40
179.0
176
     1
 90
        8
176
     1
 62
     7
176
     1
 40
1.0
176
     1
 90
        1
176
     1
 90
        6
176
     1
 90
        2
176
     1
 62
     7
176
     1
 90
        3
176
     1
 90
        0
176
     1
 90
        0
176
     1
290
     0
176
     1
 90
        1
176
     1
 40
0.0
176
     1
 90
        0
176
     1
290
     0
176
     1
290
     1
176
     1
290
     1
176
     1
290
     0
176
     1
290
     0
176
     1
290
     0
176
     1
290
     0
176
     1
290
     0
176
     1
290
     0
176
     1
 90
       50
176
     1
 40
0.0
176
     1
 40
1.0
176
     1
 90
        0
176
     1
 62
    18
420
        0
176
     1
 90
       50
176
     1
 90
        3
176
     1
 62
     5
420
      255
176
     1
290
     0
176
     1
 90
       50
176
     1
 90
       50
176
     1
 90
       50
176
     1
290
     0
176
     1
 90
       50
176
     1
 62
   256
176
     0
 40
1.0
176
     0
 90
        2
176
     1
  1
strokes_ogs.tif
176
     1
290
     0
176
     1
 40
1.0
176
     1
 40
1.0
176
     1
  0
VISUALSTYLE
  5
34
102
{ACAD_REACTORS
330
29
102
}
330
29
100
AcDbVisualStyle
  2
Dim
 70
    11
177
     3
291
     1
 70
    58
 90
        2
176
     1
 90
        2
176
     1
 90
        0
176
     1
 90
        0
176
     1
 40
0.6
176
     1
 40
30.0
176
     1
 62
     7
420
 16777215
176
     1
 90
        1
176
     1
 90
        4
176
     1
 62
     7
176
     1
 62
   257
176
     1
 90
        1
176
     1
 90
        1
176
     1
 40
1.0
176
     1
 90
        8
176
     1
 62
     7
176
     1
 40
1.0
176
     1
 90
        1
176
     1
 90
        6
176
     1
 90
        2
176
     1
 62
     7
176
     1
 90
        5
176
     1
 90
        0
176
     1
 90
        0
176
     1
290
     0
176
     1
 90
        1
176
     1
 40
-50.0
176
     1
 90
        0
176
     1
290
     0
176
     1
290
     1
176
     1
290
     1
176
     1
290
     0
176
     1
290
     0
176
     1
290
     0
176
     1
290
     0
176
     1
290
     0
176
     1
290
     0
176
     1
 90
       50
176
     1
 40
0.0
176
     1
 40
1.0
176
     1
 90
        0
176
     1
 62
    18
420
        0
176
     1
 90
       50
176
     1
 90
        3
176
     1
 62
     5
420
      255
176
     1
290
     0
176
     1
 90
       50
176
     1
 90
       50
176
     1
 90
       50
176
     1
290
     0
176
     1
 90
       50
176
     1
 62
   256
176
     0
 40
1.0
176
     0
 90
        2
176
     1
  1
strokes_ogs.tif
176
     1
290
     0
176
     1
 40
1.0
176
     1
 40
1.0
176
     1
  0
VISUALSTYLE
  5
41
102
{ACAD_REACTORS
330
29
102
}
330
29
100
AcDbVisualStyle
  2
EdgeColorOff
 70
    22
177
     3
291
     1
 70
    58
 90
        2
176
     0
 90
        2
176
     0
 90
        0
176
     0
 90
        0
176
     0
 40
0.6
176
     0
 40
30.0
176
     0
 62
     7
420
 16777215
176
     0
 90
        1
176
     0
 90
        4
176
     0
 62
     7
176
     0
 62
   257
176
     0
 90
        1
176
     0
 90
        1
176
     0
 40
1.0
176
     0
 90
        8
176
     2
 62
     7
176
     0
 40
1.0
176
     0
 90
        1
176
     0
 90
        6
176
     0
 90
        2
176
     0
 62
     7
176
     0
 90
        5
176
     0
 90
        0
176
     0
 90
        0
176
     0
290
     0
176
     0
 90
        1
176
     0
 40
0.0
176
     0
 90
        0
176
     0
290
     0
176
     0
290
     1
176
     0
290
     1
176
     0
290
     0
176
     0
290
     0
176
     0
290
     0
176
     0
290
     0
176
     0
290
     0
176
     0
290
     0
176
     0
 90
       50
176
     0
 40
0.0
176
     0
 40
1.0
176
     0
 90
        0
176
     0
 62
    18
420
        0
176
     0
 90
       50
176
     0
 90
        3
176
     0
 62
     5
420
      255
176
     0
290
     0
176
     0
 90
       50
176
     0
 90
       50
176
     0
 90
       50
176
     0
290
     0
176
     0
 90
       50
176
     0
 62
   256
176
     0
 40
1.0
176
     0
 90
        2
176
     0
  1
strokes_ogs.tif
176
     0
290
     0
176
     0
 40
1.0
176
     0
 40
1.0
176
     0
  0
VISUALSTYLE
  5
38
102
{ACAD_REACTORS
330
29
102
}
330
29
100
AcDbVisualStyle
  2
Facepattern
 70
    15
177
     3
291
     1
 70
    58
 90
        2
176
     1
 90
        2
176
     1
 90
        0
176
     1
 90
        0
176
     1
 40
0.6
176
     1
 40
30.0
176
     1
 62
     7
420
 16777215
176
     1
 90
        1
176
     1
 90
        4
176
     1
 62
     7
176
     1
 62
   257
176
     1
 90
        1
176
     1
 90
        1
176
     1
 40
1.0
176
     1
 90
        8
176
     1
 62
     7
176
     1
 40
1.0
176
     1
 90
        1
176
     1
 90
        6
176
     1
 90
        2
176
     1
 62
     7
176
     1
 90
        5
176
     1
 90
        0
176
     1
 90
        0
176
     1
290
     0
176
     1
 90
        1
176
     1
 40
0.0
176
     1
 90
        0
176
     1
290
     0
176
     1
290
     1
176
     1
290
     1
176
     1
290
     0
176
     1
290
     0
176
     1
290
     0
176
     1
290
     0
176
     1
290
     0
176
     1
290
     0
176
     1
 90
       50
176
     1
 40
0.0
176
     1
 40
1.0
176
     1
 90
        0
176
     1
 62
    18
420
        0
176
     1
 90
       50
176
     1
 90
        3
176
     1
 62
     5
420
      255
176
     1
290
     0
176
     1
 90
       50
176
     1
 90
       50
176
     1
 90
       50
176
     1
290
     0
176
     1
 90
       50
176
     1
 62
   256
176
     0
 40
1.0
176
     0
 90
        2
176
     1
  1
strokes_ogs.tif
176
     1
290
     0
176
     1
 40
1.0
176
     1
 40
1.0
176
     1
  0
VISUALSTYLE
  5
2A
102
{ACAD_REACTORS
330
29
102
}
330
29
100
AcDbVisualStyle
  2
Flat
 70
     0
177
     3
291
     1
 70
    58
 90
        2
176
     1
 90
        1
176
     1
 90
        1
176
     1
 90
        2
176
     1
 40
0.6
176
     1
 40
30.0
176
     1
 62
     7
420
 16777215
176
     1
 90
        0
176
     1
 90
        0
176
     1
 62
     7
176
     1
 62
   257
176
     1
 90
        1
176
     1
 90
        1
176
     1
 40
1.0
176
     1
 90
        8
176
     1
 62
     7
176
     1
 40
1.0
176
     1
 90
        1
176
     1
 90
        6
176
     1
 90
        2
176
     1
 62
     7
176
     1
 90
        5
176
     1
 90
        0
176
     1
 90
        0
176
     1
290
     0
176
     1
 90
       13
176
     1
 40
0.0
176
     1
 90
        0
176
     1
290
     0
176
     1
290
     1
176
     1
290
     1
176
     1
290
     0
176
     1
290
     0
176
     1
290
     0
176
     1
290
     0
176
     1
290
     0
176
     1
290
     0
176
     1
 90
       50
176
     1
 40
0.0
176
     1
 40
1.0
176
     1
 90
        0
176
     1
 62
    18
420
        0
176
     1
 90
       50
176
     1
 90
        3
176
     1
 62
     5
420
      255
176
     1
290
     0
176
     1
 90
       50
176
     1
 90
       50
176
     1
 90
       50
176
     1
290
     0
176
     1
 90
       50
176
     1
 62
   256
176
     0
 40
1.0
176
     0
 90
        2
176
     1
  1
strokes_ogs.tif
176
     1
290
     0
176
     1
 40
1.0
176
     1
 40
1.0
176
     1
  0
VISUALSTYLE
  5
2B
102
{ACAD_REACTORS
330
29
102
}
330
29
100
AcDbVisualStyle
  2
FlatWithEdges
 70
     1
177
     3
291
     1
 70
    58
 90
        2
176
     1
 90
        1
176
     1
 90
        1
176
     1
 90
        2
176
     1
 40
0.6
176
     1
 40
30.0
176
     1
 62
     7
420
 16777215
176
     1
 90
        1
176
     1
 90
        0
176
     1
 62
     7
176
     1
 62
   257
176
     1
 90
        1
176
     1
 90
        1
176
     1
 40
1.0
176
     1
 90
        0
176
     1
 62
   257
176
     1
 40
1.0
176
     1
 90
        1
176
     1
 90
        6
176
     1
 90
        2
176
     1
 62
     7
176
     1
 90
        5
176
     1
 90
        0
176
     1
 90
        0
176
     1
290
     0
176
     1
 90
       13
176
     1
 40
0.0
176
     1
 90
        0
176
     1
290
     0
176
     1
290
     1
176
     1
290
     1
176
     1
290
     0
176
     1
290
     0
176
     1
290
     0
176
     1
290
     0
176
     1
290
     0
176
     1
290
     0
176
     1
 90
       50
176
     1
 40
0.0
176
     1
 40
1.0
176
     1
 90
        0
176
     1
 62
    18
420
        0
176
     1
 90
       50
176
     1
 90
        3
176
     1
 62
     5
420
      255
176
     1
290
     0
176
     1
 90
       50
176
     1
 90
       50
176
     1
 90
       50
176
     1
290
     0
176
     1
 90
       50
176
     1
 62
   256
176
     0
 40
1.0
176
     0
 90
        2
176
     1
  1
strokes_ogs.tif
176
     1
290
     0
176
     1
 40
1.0
176
     1
 40
1.0
176
     1
  0
VISUALSTYLE
  5
2C
102
{ACAD_REACTORS
330
29
102
}
330
29
100
AcDbVisualStyle
  2
Gouraud
 70
     2
177
     3
291
     1
 70
    58
 90
        2
176
     1
 90
        2
176
     1
 90
        1
176
     1
 90
        2
176
     1
 40
0.6
176
     1
 40
30.0
176
     1
 62
     7
420
 16777215
176
     1
 90
        0
176
     1
 90
        0
176
     1
 62
     7
176
     1
 62
   257
176
     1
 90
        1
176
     1
 90
        1
176
     1
 40
1.0
176
     1
 90
        0
176
     1
 62
     7
176
     1
 40
1.0
176
     1
 90
        1
176
     1
 90
        6
176
     1
 90
        2
176
     1
 62
     7
176
     1
 90
        5
176
     1
 90
        0
176
     1
 90
        0
176
     1
290
     0
176
     1
 90
       13
176
     1
 40
0.0
176
     1
 90
        0
176
     1
290
     0
176
     1
290
     1
176
     1
290
     1
176
     1
290
     0
176
     1
290
     0
176
     1
290
     0
176
     1
290
     0
176
     1
290
     0
176
     1
290
     0
176
     1
 90
       50
176
     1
 40
0.0
176
     1
 40
1.0
176
     1
 90
        0
176
     1
 62
    18
420
        0
176
     1
 90
       50
176
     1
 90
        3
176
     1
 62
     5
420
      255
176
     1
290
     0
176
     1
 90
       50
176
     1
 90
       50
176
     1
 90
       50
176
     1
290
     0
176
     1
 90
       50
176
     1
 62
   256
176
     0
 40
1.0
176
     0
 90
        2
176
     1
  1
strokes_ogs.tif
176
     1
290
     0
176
     1
 40
1.0
176
     1
 40
1.0
176
     1
  0
VISUALSTYLE
  5
2D
102
{ACAD_REACTORS
330
29
102
}
330
29
100
AcDbVisualStyle
  2
GouraudWithEdges
 70
     3
177
     3
291
     1
 70
    58
 90
        2
176
     1
 90
        2
176
     1
 90
        1
176
     1
 90
        2
176
     1
 40
0.6
176
     1
 40
30.0
176
     1
 62
     7
420
 16777215
176
     1
 90
        1
176
     1
 90
        0
176
     1
 62
     7
176
     1
 62
   257
176
     1
 90
        1
176
     1
 90
        1
176
     1
 40
1.0
176
     1
 90
        0
176
     1
 62
   257
176
     1
 40
1.0
176
     1
 90
        1
176
     1
 90
        6
176
     1
 90
        2
176
     1
 62
     7
176
     1
 90
        5
176
     1
 90
        0
176
     1
 90
        0
176
     1
290
     0
176
     1
 90
       13
176
     1
 40
0.0
176
     1
 90
        0
176
     1
290
     0
176
     1
290
     1
176
     1
290
     1
176
     1
290
     0
176
     1
290
     0
176
     1
290
     0
176
     1
290
     0
176
     1
290
     0
176
     1
290
     0
176
     1
 90
       50
176
     1
 40
0.0
176
     1
 40
1.0
176
     1
 90
        0
176
     1
 62
    18
420
        0
176
     1
 90
       50
176
     1
 90
        3
176
     1
 62
     5
420
      255
176
     1
290
     0
176
     1
 90
       50
176
     1
 90
       50
176
     1
 90
       50
176
     1
290
     0
176
     1
 90
       50
176
     1
 62
   256
176
     0
 40
1.0
176
     0
 90
        2
176
     1
  1
strokes_ogs.tif
176
     1
290
     0
176
     1
 40
1.0
176
     1
 40
1.0
176
     1
  0
VISUALSTYLE
  5
31
102
{ACAD_REACTORS
330
29
102
}
330
29
100
AcDbVisualStyle
  2
Hidden
 70
     6
177
     3
291
     0
 70
    58
 90
        1
176
     1
 90
        2
176
     1
 90
        2
176
     1
 90
        0
176
     1
 40
0.6
176
     1
 40
30.0
176
     1
 62
     7
420
 16777215
176
     1
 90
        2
176
     1
 90
        2
176
     1
 62
     7
176
     1
 62
   257
176
     1
 90
        2
176
     1
 90
        1
176
     1
 40
40.0
176
     1
 90
        0
176
     1
 62
   257
176
     1
 40
1.0
176
     1
 90
        1
176
     1
 90
        6
176
     1
 90
        2
176
     1
 62
     7
176
     1
 90
        3
176
     1
 90
        0
176
     1
 90
        0
176
     1
290
     0
176
     1
 90
        1
176
     1
 40
0.0
176
     1
 90
        0
176
     1
290
     0
176
     1
290
     1
176
     1
290
     1
176
     1
290
     0
176
     1
290
     0
176
     1
290
     0
176
     1
290
     0
176
     1
290
     0
176
     1
290
     0
176
     1
 90
       50
176
     1
 40
0.0
176
     1
 40
1.0
176
     1
 90
        0
176
     1
 62
    18
420
        0
176
     1
 90
       50
176
     1
 90
        3
176
     1
 62
     5
420
      255
176
     1
290
     0
176
     1
 90
       50
176
     1
 90
       50
176
     1
 90
       50
176
     1
290
     0
176
     1
 90
       50
176
     1
 62
   256
176
     0
 40
1.0
176
     0
 90
        2
176
     1
  1
strokes_ogs.tif
176
     1
290
     0
176
     1
 40
1.0
176
     1
 40
1.0
176
     1
  0
VISUALSTYLE
  5
3F
102
{ACAD_REACTORS
330
29
102
}
330
29
100
AcDbVisualStyle
  2
JitterOff
 70
    20
177
     3
291
     1
 70
    58
 90
        2
176
     0
 90
        2
176
     0
 90
        0
176
     0
 90
        0
176
     0
 40
0.6
176
     0
 40
30.0
176
     0
 62
     7
420
 16777215
176
     0
 90
        1
176
     0
 90
        4
176
     0
 62
     7
176
     0
 62
   257
176
     0
 90
        1
176
     0
 90
        1
176
     0
 40
1.0
176
     0
 90
       10
176
     2
 62
     7
176
     0
 40
1.0
176
     0
 90
        1
176
     0
 90
        6
176
     0
 90
        2
176
     0
 62
     7
176
     0
 90
        5
176
     0
 90
        0
176
     0
 90
        0
176
     0
290
     0
176
     0
 90
        1
176
     0
 40
0.0
176
     0
 90
        0
176
     0
290
     0
176
     0
290
     1
176
     0
290
     1
176
     0
290
     0
176
     0
290
     0
176
     0
290
     0
176
     0
290
     0
176
     0
290
     0
176
     0
290
     0
176
     0
 90
       50
176
     0
 40
0.0
176
     0
 40
1.0
176
     0
 90
        0
176
     0
 62
    18
420
        0
176
     0
 90
       50
176
     0
 90
        3
176
     0
 62
     5
420
      255
176
     0
290
     0
176
     0
 90
       50
176
     0
 90
       50
176
     0
 90
       50
176
     0
290
     0
176
     0
 90
       50
176
     0
 62
   256
176
     0
 40
1.0
176
     0
 90
        2
176
     0
  1
strokes_ogs.tif
176
     0
290
     0
176
     0
 40
1.0
176
     0
 40
1.0
176
     0
  0
VISUALSTYLE
  5
37
102
{ACAD_REACTORS
330
29
102
}
330
29
100
AcDbVisualStyle
  2
Linepattern
 70
    14
177
     3
291
     1
 70
    58
 90
        2
176
     1
 90
        2
176
     1
 90
        0
176
     1
 90
        0
176
     1
 40
0.6
176
     1
 40
30.0
176
     1
 62
     7
420
 16777215
176
     1
 90
        1
176
     1
 90
        4
176
     1
 62
     7
176
     1
 62
   257
176
     1
 90
        7
176
     1
 90
        7
176
     1
 40
1.0
176
     1
 90
        8
176
     1
 62
     7
176
     1
 40
1.0
176
     1
 90
        1
176
     1
 90
        6
176
     1
 90
        2
176
     1
 62
     7
176
     1
 90
        5
176
     1
 90
        0
176
     1
 90
        0
176
     1
290
     0
176
     1
 90
        1
176
     1
 40
0.0
176
     1
 90
        0
176
     1
290
     0
176
     1
290
     1
176
     1
290
     1
176
     1
290
     0
176
     1
290
     0
176
     1
290
     0
176
     1
290
     0
176
     1
290
     0
176
     1
290
     0
176
     1
 90
       50
176
     1
 40
0.0
176
     1
 40
1.0
176
     1
 90
        0
176
     1
 62
    18
420
        0
176
     1
 90
       50
176
     1
 90
        3
176
     1
 62
     5
420
      255
176
     1
290
     0
176
     1
 90
       50
176
     1
 90
       50
176
     1
 90
       50
176
     1
290
     0
176
     1
 90
       50
176
     1
 62
   256
176
     0
 40
1.0
176
     0
 90
        2
176
     1
  1
strokes_ogs.tif
176
     1
290
     0
176
     1
 40
1.0
176
     1
 40
1.0
176
     1
  0
VISUALSTYLE
  5
40
102
{ACAD_REACTORS
330
29
102
}
330
29
100
AcDbVisualStyle
  2
OverhangOff
 70
    21
177
     3
291
     1
 70
    58
 90
        2
176
     0
 90
        2
176
     0
 90
        0
176
     0
 90
        0
176
     0
 40
0.6
176
     0
 40
30.0
176
     0
 62
     7
420
 16777215
176
     0
 90
        1
176
     0
 90
        4
176
     0
 62
     7
176
     0
 62
   257
176
     0
 90
        1
176
     0
 90
        1
176
     0
 40
1.0
176
     0
 90
        9
176
     2
 62
     7
176
     0
 40
1.0
176
     0
 90
        1
176
     0
 90
        6
176
     0
 90
        2
176
     0
 62
     7
176
     0
 90
        5
176
     0
 90
        0
176
     0
 90
        0
176
     0
290
     0
176
     0
 90
        1
176
     0
 40
0.0
176
     0
 90
        0
176
     0
290
     0
176
     0
290
     1
176
     0
290
     1
176
     0
290
     0
176
     0
290
     0
176
     0
290
     0
176
     0
290
     0
176
     0
290
     0
176
     0
290
     0
176
     0
 90
       50
176
     0
 40
0.0
176
     0
 40
1.0
176
     0
 90
        0
176
     0
 62
    18
420
        0
176
     0
 90
       50
176
     0
 90
        3
176
     0
 62
     5
420
      255
176
     0
290
     0
176
     0
 90
       50
176
     0
 90
       50
176
     0
 90
       50
176
     0
290
     0
176
     0
 90
       50
176
     0
 62
   256
176
     0
 40
1.0
176
     0
 90
        2
176
     0
  1
strokes_ogs.tif
176
     0
290
     0
176
     0
 40
1.0
176
     0
 40
1.0
176
     0
  0
VISUALSTYLE
  5
33
102
{ACAD_REACTORS
330
29
102
}
330
29
100
AcDbVisualStyle
  2
Realistic
 70
     8
177
     3
291
     0
 70
    58
 90
        2
176
     1
 90
        3
176
     1
 90
        0
176
     1
 90
        2
176
     1
 40
0.6
176
     1
 40
30.0
176
     1
 62
     7
420
 16777215
176
     1
 90
        0
176
     1
 90
        0
176
     1
 62
     7
176
     1
 62
   257
176
     1
 90
        1
176
     1
 90
        1
176
     1
 40
1.0
176
     1
 90
        8
176
     1
 62
   257
176
     1
 40
1.0
176
     1
 90
        1
176
     1
 90
        6
176
     1
 90
        2
176
     1
 62
     7
176
     1
 90
        3
176
     1
 90
        0
176
     1
 90
        0
176
     1
290
     0
176
     1
 90
       13
176
     1
 40
0.0
176
     1
 90
        0
176
     1
290
     0
176
     1
290
     1
176
     1
290
     1
176
     1
290
     0
176
     1
290
     0
176
     1
290
     0
176
     1
290
     0
176
     1
290
     0
176
     1
290
     0
176
     1
 90
       50
176
     1
 40
0.0
176
     1
 40
1.0
176
     1
 90
        0
176
     1
 62
    18
420
        0
176
     1
 90
       50
176
     1
 90
        3
176
     1
 62
     5
420
      255
176
     1
290
     0
176
     1
 90
       50
176
     1
 90
       50
176
     1
 90
       50
176
     1
290
     0
176
     1
 90
       50
176
     1
 62
   256
176
     0
 40
1.0
176
     0
 90
        2
176
     1
  1
strokes_ogs.tif
176
     1
290
     0
176
     1
 40
1.0
176
     1
 40
1.0
176
     1
  0
VISUALSTYLE
  5
3E
102
{ACAD_REACTORS
330
29
102
}
330
29
100
AcDbVisualStyle
  2
Shaded
 70
    27
177
     3
291
     0
 70
    58
 90
        2
176
     1
 90
        2
176
     1
 90
        1
176
     1
 90
        2
176
     1
 40
0.6
176
     1
 40
30.0
176
     1
 62
     7
420
 16777215
176
     1
 90
        0
176
     1
 90
        4
176
     1
 62
     7
176
     1
 62
   257
176
     1
 90
        1
176
     1
 90
        1
176
     1
 40
1.0
176
     1
 90
        8
176
     1
 62
   257
176
     1
 40
1.0
176
     1
 90
        1
176
     1
 90
        6
176
     1
 90
        2
176
     1
 62
     8
420
  7895160
176
     1
 90
        3
176
     1
 90
        0
176
     1
 90
        0
176
     1
290
     0
176
     1
 90
        5
176
     1
 40
0.0
176
     1
 90
        0
176
     1
290
     0
176
     1
290
     1
176
     1
290
     1
176
     1
290
     0
176
     1
290
     0
176
     1
290
     0
176
     1
290
     0
176
     1
290
     0
176
     1
290
     0
176
     1
 90
       50
176
     1
 40
0.0
176
     1
 40
1.0
176
     1
 90
        0
176
     1
 62
    18
420
        0
176
     1
 90
       50
176
     1
 90
        3
176
     1
 62
     5
420
      255
176
     1
290
     0
176
     1
 90
       50
176
     1
 90
       50
176
     1
 90
       50
176
     1
290
     0
176
     1
 90
       50
176
     1
 62
   256
176
     0
 40
1.0
176
     0
 90
        2
176
     1
  1
strokes_ogs.tif
176
     1
290
     0
176
     1
 40
1.0
176
     1
 40
1.0
176
     1
  0
VISUALSTYLE
  5
3D
102
{ACAD_REACTORS
330
29
102
}
330
29
100
AcDbVisualStyle
  2
Shaded with edges
 70
    26
177
     3
291
     0
 70
    58
 90
        2
176
     1
 90
        2
176
     1
 90
        1
176
     1
 90
        2
176
     1
 40
0.6
176
     1
 40
30.0
176
     1
 62
     7
420
 16777215
176
     1
 90
        1
176
     1
 90
       10
176
     1
 62
     7
176
     1
 62
   257
176
     1
 90
        2
176
     1
 90
        1
176
     1
 40
1.0
176
     1
 90
        8
176
     1
 62
   257
176
     1
 40
1.0
176
     1
 90
        1
176
     1
 90
        6
176
     1
 90
        2
176
     1
 62
     7
176
     1
 90
        3
176
     1
 90
        0
176
     1
 90
        0
176
     1
290
     0
176
     1
 90
        5
176
     1
 40
0.0
176
     1
 90
        0
176
     1
290
     0
176
     1
290
     1
176
     1
290
     1
176
     1
290
     0
176
     1
290
     0
176
     1
290
     0
176
     1
290
     0
176
     1
290
     0
176
     1
290
     0
176
     1
 90
       50
176
     1
 40
0.0
176
     1
 40
1.0
176
     1
 90
        0
176
     1
 62
    18
420
        0
176
     1
 90
       50
176
     1
 90
        3
176
     1
 62
     5
420
      255
176
     1
290
     0
176
     1
 90
       50
176
     1
 90
       50
176
     1
 90
       50
176
     1
290
     0
176
     1
 90
       50
176
     1
 62
   256
176
     0
 40
1.0
176
     0
 90
        2
176
     1
  1
strokes_ogs.tif
176
     1
290
     0
176
     1
 40
1.0
176
     1
 40
1.0
176
     1
  0
VISUALSTYLE
  5
3A
102
{ACAD_REACTORS
330
29
102
}
330
29
100
AcDbVisualStyle
  2
Shades of Gray
 70
    23
177
     3
291
     0
 70
    58
 90
        2
176
     1
 90
        2
176
     1
 90
        3
176
     1
 90
        0
176
     1
 40
0.6
176
     1
 40
30.0
176
     1
 62
     7
420
 16777215
176
     1
 90
        2
176
     1
 90
        2
176
     1
 62
     7
176
     1
 62
     7
176
     1
 90
        1
176
     1
 90
        1
176
     1
 40
40.0
176
     1
 90
        8
176
     1
 62
     7
176
     1
 40
1.0
176
     1
 90
        1
176
     1
 90
        6
176
     1
 90
        2
176
     1
 62
     7
176
     1
 90
        3
176
     1
 90
        0
176
     1
 90
        0
176
     1
290
     0
176
     1
 90
        1
176
     1
 40
0.0
176
     1
 90
        0
176
     1
290
     0
176
     1
290
     1
176
     1
290
     1
176
     1
290
     0
176
     1
290
     0
176
     1
290
     0
176
     1
290
     0
176
     1
290
     0
176
     1
290
     0
176
     1
 90
       50
176
     1
 40
0.0
176
     1
 40
1.0
176
     1
 90
        0
176
     1
 62
    18
420
        0
176
     1
 90
       50
176
     1
 90
        3
176
     1
 62
     5
420
      255
176
     1
290
     0
176
     1
 90
       50
176
     1
 90
       50
176
     1
 90
       50
176
     1
290
     0
176
     1
 90
       50
176
     1
 62
   256
176
     0
 40
1.0
176
     0
 90
        2
176
     1
  1
strokes_ogs.tif
176
     1
290
     0
176
     1
 40
1.0
176
     1
 40
1.0
176
     1
  0
VISUALSTYLE
  5
3B
102
{ACAD_REACTORS
330
29
102
}
330
29
100
AcDbVisualStyle
  2
Sketchy
 70
    24
177
     3
291
     0
 70
    58
 90
        1
176
     1
 90
        2
176
     1
 90
        2
176
     1
 90
        0
176
     1
 40
0.6
176
     1
 40
30.0
176
     1
 62
     7
420
 16777215
176
     1
 90
        2
176
     1
 90
        2
176
     1
 62
     7
176
     1
 62
     7
176
     1
 90
        1
176
     1
 90
        1
176
     1
 40
40.0
176
     1
 90
       11
176
     1
 62
     7
176
     1
 40
1.0
176
     1
 90
        1
176
     1
 90
        6
176
     1
 90
        2
176
     1
 62
     7
176
     1
 90
        6
176
     1
 90
        0
176
     1
 90
        0
176
     1
290
     0
176
     1
 90
        1
176
     1
 40
0.0
176
     1
 90
        0
176
     1
290
     0
176
     1
290
     1
176
     1
290
     1
176
     1
290
     0
176
     1
290
     0
176
     1
290
     0
176
     1
290
     0
176
     1
290
     0
176
     1
290
     0
176
     1
 90
       50
176
     1
 40
0.0
176
     1
 40
1.0
176
     1
 90
        0
176
     1
 62
    18
420
        0
176
     1
 90
       50
176
     1
 90
        3
176
     1
 62
     5
420
      255
176
     1
290
     0
176
     1
 90
       50
176
     1
 90
       50
176
     1
 90
       50
176
     1
290
     0
176
     1
 90
       50
176
     1
 62
   256
176
     0
 40
1.0
176
     0
 90
        2
176
     1
  1
strokes_ogs.tif
176
     1
290
     0
176
     1
 40
1.0
176
     1
 40
1.0
176
     1
  0
VISUALSTYLE
  5
36
102
{ACAD_REACTORS
330
29
102
}
330
29
100
AcDbVisualStyle
  2
Thicken
 70
    13
177
     3
291
     1
 70
    58
 90
        2
176
     1
 90
        2
176
     1
 90
        0
176
     1
 90
        0
176
     1
 40
0.6
176
     1
 40
30.0
176
     1
 62
     7
420
 16777215
176
     1
 90
        1
176
     1
 90
        4
176
     1
 62
     7
176
     1
 62
   257
176
     1
 90
        1
176
     1
 90
        1
176
     1
 40
1.0
176
     1
 90
       12
176
     1
 62
     7
176
     1
 40
1.0
176
     1
 90
        1
176
     1
 90
        6
176
     1
 90
        2
176
     1
 62
     7
176
     1
 90
        5
176
     1
 90
        0
176
     1
 90
        0
176
     1
290
     0
176
     1
 90
        1
176
     1
 40
0.0
176
     1
 90
        0
176
     1
290
     0
176
     1
290
     1
176
     1
290
     1
176
     1
290
     0
176
     1
290
     0
176
     1
290
     0
176
     1
290
     0
176
     1
290
     0
176
     1
290
     0
176
     1
 90
       50
176
     1
 40
0.0
176
     1
 40
1.0
176
     1
 90
        0
176
     1
 62
    18
420
        0
176
     1
 90
       50
176
     1
 90
        3
176
     1
 62
     5
420
      255
176
     1
290
     0
176
     1
 90
       50
176
     1
 90
       50
176
     1
 90
       50
176
     1
290
     0
176
     1
 90
       50
176
     1
 62
   256
176
     0
 40
1.0
176
     0
 90
        2
176
     1
  1
strokes_ogs.tif
176
     1
290
     0
176
     1
 40
1.0
176
     1
 40
1.0
176
     1
  0
VISUALSTYLE
  5
30
102
{ACAD_REACTORS
330
29
102
}
330
29
100
AcDbVisualStyle
  2
Wireframe
 70
     5
177
     3
291
     0
 70
    58
 90
        0
176
     1
 90
        2
176
     1
 90
        0
176
     1
 90
        0
176
     1
 40
0.6
176
     1
 40
30.0
176
     1
 62
     7
420
 16777215
176
     1
 90
        1
176
     1
 90
        4
176
     1
 62
     7
176
     1
 62
   257
176
     1
 90
        1
176
     1
 90
        1
176
     1
 40
1.0
176
     1
 90
        0
176
     1
 62
   257
176
     1
 40
1.0
176
     1
 90
        1
176
     1
 90
        6
176
     1
 90
        2
176
     1
 62
     7
176
     1
 90
        3
176
     1
 90
        0
176
     1
 90
        0
176
     1
290
     0
176
     1
 90
        1
176
     1
 40
0.0
176
     1
 90
        0
176
     1
290
     0
176
     1
290
     1
176
     1
290
     1
176
     1
290
     0
176
     1
290
     0
176
     1
290
     0
176
     1
290
     0
176
     1
290
     0
176
     1
290
     0
176
     1
 90
       50
176
     1
 40
0.0
176
     1
 40
1.0
176
     1
 90
        0
176
     1
 62
    18
420
        0
176
     1
 90
       50
176
     1
 90
        3
176
     1
 62
     5
420
      255
176
     1
290
     0
176
     1
 90
       50
176
     1
 90
       50
176
     1
 90
       50
176
     1
290
     0
176
     1
 90
       50
176
     1
 62
   256
176
     0
 40
1.0
176
     0
 90
        2
176
     1
  1
strokes_ogs.tif
176
     1
290
     0
176
     1
 40
1.0
176
     1
 40
1.0
176
     1
  0
VISUALSTYLE
  5
3C
102
{ACAD_REACTORS
330
29
102
}
330
29
100
AcDbVisualStyle
  2
X-Ray
 70
    25
177
     3
291
     0
 70
    58
 90
        2
176
     1
 90
        2
176
     1
 90
        1
176
     1
 90
        1
176
     1
 40
0.5
176
     1
 40
30.0
176
     1
 62
     7
420
 16777215
176
     1
 90
        1
176
     1
 90
        0
176
     1
 62
     7
176
     1
 62
   257
176
     1
 90
        1
176
     1
 90
        1
176
     1
 40
1.0
176
     1
 90
        8
176
     1
 62
     7
176
     1
 40
1.0
176
     1
 90
        1
176
     1
 90
        6
176
     1
 90
        2
176
     1
 62
     7
176
     1
 90
        3
176
     1
 90
        0
176
     1
 90
        0
176
     1
290
     0
176
     1
 90
       13
176
     1
 40
0.0
176
     1
 90
        0
176
     1
290
     0
176
     1
290
     1
176
     1
290
     1
176
     1
290
     0
176
     1
290
     0
176
     1
290
     0
176
     1
290
     0
176
     1
290
     0
176
     1
290
     0
176
     1
 90
       50
176
     1
 40
0.0
176
     1
 40
1.0
176
     1
 90
        0
176
     1
 62
    18
420
        0
176
     1
 90
       50
176
     1
 90
        3
176
     1
 62
     5
420
      255
176
     1
290
     0
176
     1
 90
       50
176
     1
 90
       50
176
     1
 90
       50
176
     1
290
     0
176
     1
 90
       50
176
     1
 62
   256
176
     0
 40
1.0
176
     0
 90
        2
176
     1
  1
strokes_ogs.tif
176
     1
290
     0
176
     1
 40
1.0
176
     1
 40
1.0
176
     1
  0
DICTIONARYVAR
  5
559
102
{ACAD_REACTORS
330
554
102
}
330
554
100
DictionaryVariables
280
     0
  1
1:1
  0
DICTIONARYVAR
  5
556
102
{ACAD_REACTORS
330
554
102
}
330
554
100
DictionaryVariables
280
     0
  1
STANDARD
  0
DICTIONARYVAR
  5
555
102
{ACAD_REACTORS
330
554
102
}
330
554
100
DictionaryVariables
280
     0
  1
STANDARD
  0
DICTIONARYVAR
  5
557
102
{ACAD_REACTORS
330
554
102
}
330
554
100
DictionaryVariables
280
     0
  1
Imperial24
  0
DICTIONARYVAR
  5
558
102
{ACAD_REACTORS
330
554
102
}
330
554
100
DictionaryVariables
280
     0
  1
Imperial24
  0
DICTIONARY
  5
5B2
330
6A
100
AcDbDictionary
280
     1
281
     1
  3
ACAD_XREC_ROUNDTRIP
360
5B3
  0
DICTIONARY
  5
552
330
72
100
AcDbDictionary
280
     1
281
     1
  0
DICTIONARY
  5
1A
330
19
100
AcDbDictionary
280
     1
281
     1
  3
BUMPTILE
360
1C
  3
DIFFUSETILE
360
1B
  3
OPACITYTILE
360
1F
  3
REFLECTIONTILE
360
1E
  3
REFRACTIONTILE
360
20
  3
SPECULARTILE
360
1D
  0
DICTIONARY
  5
12
330
11
100
AcDbDictionary
280
     1
281
     1
  3
BUMPTILE
360
14
  3
DIFFUSETILE
360
13
  3
OPACITYTILE
360
17
  3
REFLECTIONTILE
360
16
  3
REFRACTIONTILE
360
18
  3
SPECULARTILE
360
15
  0
DICTIONARY
  5
22
330
21
100
AcDbDictionary
280
     1
281
     1
  3
BUMPTILE
360
24
  3
DIFFUSETILE
360
23
  3
OPACITYTILE
360
27
  3
REFLECTIONTILE
360
26
  3
REFRACTIONTILE
360
28
  3
SPECULARTILE
360
25
  0
DICTIONARY
  5
5B0
330
68
100
AcDbDictionary
280
     1
281
     1
  3
ACAD_XREC_ROUNDTRIP
360
5B1
  0
DICTIONARY
  5
5AE
330
64
100
AcDbDictionary
280
     1
281
     1
  3
ACAD_ROUNDTRIP_2008_TABLESTYLE_CELLSTYLEMAP
360
5AF
  0
XRECORD
  5
5B3
102
{ACAD_REACTORS
330
5B2
102
}
330
5B2
100
AcDbXrecord
280
     1
102
DISPLAYNAME
  1
Imperial24
102
FLAGS
 90
        0
  0
XRECORD
  5
1C
102
{ACAD_REACTORS
330
1A
102
}
330
1A
100
AcDbXrecord
280
     1
270
     1
271
     1
  0
XRECORD
  5
1B
102
{ACAD_REACTORS
330
1A
102
}
330
1A
100
AcDbXrecord
280
     1
270
     1
271
     1
  0
XRECORD
  5
1F
102
{ACAD_REACTORS
330
1A
102
}
330
1A
100
AcDbXrecord
280
     1
270
     1
271
     1
  0
XRECORD
  5
1E
102
{ACAD_REACTORS
330
1A
102
}
330
1A
100
AcDbXrecord
280
     1
270
     1
271
     1
  0
XRECORD
  5
20
102
{ACAD_REACTORS
330
1A
102
}
330
1A
100
AcDbXrecord
280
     1
270
     1
271
     1
  0
XRECORD
  5
1D
102
{ACAD_REACTORS
330
1A
102
}
330
1A
100
AcDbXrecord
280
     1
270
     1
271
     1
  0
XRECORD
  5
14
102
{ACAD_REACTORS
330
12
102
}
330
12
100
AcDbXrecord
280
     1
270
     1
271
     1
  0
XRECORD
  5
13
102
{ACAD_REACTORS
330
12
102
}
330
12
100
AcDbXrecord
280
     1
270
     1
271
     1
  0
XRECORD
  5
17
102
{ACAD_REACTORS
330
12
102
}
330
12
100
AcDbXrecord
280
     1
270
     1
271
     1
  0
XRECORD
  5
16
102
{ACAD_REACTORS
330
12
102
}
330
12
100
AcDbXrecord
280
     1
270
     1
271
     1
  0
XRECORD
  5
18
102
{ACAD_REACTORS
330
12
102
}
330
12
100
AcDbXrecord
280
     1
270
     1
271
     1
  0
XRECORD
  5
15
102
{ACAD_REACTORS
330
12
102
}
330
12
100
AcDbXrecord
280
     1
270
     1
271
     1
  0
XRECORD
  5
24
102
{ACAD_REACTORS
330
22
102
}
330
22
100
AcDbXrecord
280
     1
270
     1
271
     1
  0
XRECORD
  5
23
102
{ACAD_REACTORS
330
22
102
}
330
22
100
AcDbXrecord
280
     1
270
     1
271
     1
  0
XRECORD
  5
27
102
{ACAD_REACTORS
330
22
102
}
330
22
100
AcDbXrecord
280
     1
270
     1
271
     1
  0
XRECORD
  5
26
102
{ACAD_REACTORS
330
22
102
}
330
22
100
AcDbXrecord
280
     1
270
     1
271
     1
  0
XRECORD
  5
28
102
{ACAD_REACTORS
330
22
102
}
330
22
100
AcDbXrecord
280
     1
270
     1
271
     1
  0
XRECORD
  5
25
102
{ACAD_REACTORS
330
22
102
}
330
22
100
AcDbXrecord
280
     1
270
     1
271
     1
  0
XRECORD
  5
5B1
102
{ACAD_REACTORS
330
5B0
102
}
330
5B0
100
AcDbXrecord
280
     1
102
DISPLAYNAME
  1
Imperial24
102
FLAGS
 90
        0
  0
CELLSTYLEMAP
  5
5AF
102
{ACAD_REACTORS
330
5AE
102
}
330
5AE
100
AcDbCellStyleMap
 90
        3
300
CELLSTYLE
  1
TABLEFORMAT_BEGIN
 90
        5
170
     1
 91
        0
 92
    32768
 62
   257
 93
        1
300
CONTENTFORMAT
  1
CONTENTFORMAT_BEGIN
 90
        0
 91
        0
 92
      512
 93
        0
300

 40
0.0
140
1.0
 94
        5
 62
     0
340
55
144
0.25
309
CONTENTFORMAT_END
171
     0
 94
        0
309
TABLEFORMAT_END
  1
CELLSTYLE_BEGIN
 90
        1
 91
        1
300
_TITLE
309
CELLSTYLE_END
300
CELLSTYLE
  1
TABLEFORMAT_BEGIN
 90
        5
170
     1
 91
        0
 92
        0
 62
   257
 93
        1
300
CONTENTFORMAT
  1
CONTENTFORMAT_BEGIN
 90
        0
 91
        0
 92
      512
 93
        0
300

 40
0.0
140
1.0
 94
        5
 62
     0
340
55
144
0.18
309
CONTENTFORMAT_END
171
     0
 94
        0
309
TABLEFORMAT_END
  1
CELLSTYLE_BEGIN
 90
        2
 91
        1
300
_HEADER
309
CELLSTYLE_END
300
CELLSTYLE
  1
TABLEFORMAT_BEGIN
 90
        5
170
     1
 91
        0
 92
        0
 62
   257
 93
        1
300
CONTENTFORMAT
  1
CONTENTFORMAT_BEGIN
 90
        0
 91
        0
 92
      512
 93
        0
300

 40
0.0
140
1.0
 94
        2
 62
     0
340
55
144
0.18
309
CONTENTFORMAT_END
171
     0
 94
        0
309
TABLEFORMAT_END
  1
CELLSTYLE_BEGIN
 90
        3
 91
        2
300
_DATA
309
CELLSTYLE_END
  0
ENDSEC
  0
SECTION
  2
ACDSDATA
 70
     2
 71
     6
  0
ACDSSCHEMA
 90
        0
  1
AcDb_Thumbnail_Schema
  2
AcDbDs::ID
280
    10
 91
        8
  2
Thumbnail_Data
280
    15
 91
        0
101
ACDSRECORD
 95
        0
 90
        1
  2
AcDbDs::TreatedAsObjectData
280
     1
291
     1
101
ACDSRECORD
 95
        0
 90
        2
  2
AcDbDs::Legacy
280
     1
291
     1
101
ACDSRECORD
  1
AcDbDs::ID
 90
        3
  2
AcDs:Indexable
280
     1
291
     1
101
ACDSRECORD
  1
AcDbDs::ID
 90
        4
  2
AcDbDs::HandleAttribute
280
     7
282
     1
  0
ACDSSCHEMA
 90
        1
  1
AcDbDs::TreatedAsObjectDataSchema
  2
AcDbDs::TreatedAsObjectData
280
     1
 91
        0
  0
ACDSSCHEMA
 90
        2
  1
AcDbDs::LegacySchema
  2
AcDbDs::Legacy
280
     1
 91
        0
  0
ACDSSCHEMA
 90
        3
  1
AcDbDs::IndexedPropertySchema
  2
AcDs:Indexable
280
     1
 91
        0
  0
ACDSSCHEMA
 90
        4
  1
AcDbDs::HandleAttributeSchema
  2
AcDbDs::HandleAttribute
280
     7
 91
        1
284
     1
  0
ACDSRECORD
 90
        0
  2
AcDbDs::ID
280
    10
320
72
  2
Thumbnail_Data
280
    15
 94
     2053
310
89504E470D0A1A0A0000000D49484452000001000000009B0803000000BA7AB56000000300504C54455B5B5B000000C8C8C80000000000000000000000000000000000000000000000000000330000660000990000CC0000FF0033000033330033660033990033CC0033FF0066000066330066660066990066CC0066FF0099
310
000099330099660099990099CC0099FF00CC0000CC3300CC6600CC9900CCCC00CCFF00FF0000FF3300FF6600FF9900FFCC00FFFF3300003300333300663300993300CC3300FF3333003333333333663333993333CC3333FF3366003366333366663366993366CC3366FF3399003399333399663399993399CC3399FF33CC00
310
33CC3333CC6633CC9933CCCC33CCFF33FF0033FF3333FF6633FF9933FFCC33FFFF6600006600336600666600996600CC6600FF6633006633336633666633996633CC6633FF6666006666336666666666996666CC6666FF6699006699336699666699996699CC6699FF66CC0066CC3366CC6666CC9966CCCC66CCFF66FF0066
310
FF3366FF6666FF9966FFCC66FFFF9900009900339900669900999900CC9900FF9933009933339933669933999933CC9933FF9966009966339966669966999966CC9966FF9999009999339999669999999999CC9999FF99CC0099CC3399CC6699CC9999CCCC99CCFF99FF0099FF3399FF6699FF9999FFCC99FFFFCC0000CC00
310
33CC0066CC0099CC00CCCC00FFCC3300CC3333CC3366CC3399CC33CCCC33FFCC6600CC6633CC6666CC6699CC66CCCC66FFCC9900CC9933CC9966CC9999CC99CCCC99FFCCCC00CCCC33CCCC66CCCC99CCCCCCCCCCFFCCFF00CCFF33CCFF66CCFF99CCFFCCCCFFFFFF0000FF0033FF0066FF0099FF00CCFF00FFFF3300FF3333
310
FF3366FF3399FF33CCFF33FFFF6600FF6633FF6666FF6699FF66CCFF66FFFF9900FF9933FF9966FF9999FF99CCFF99FFFFCC00FFCC33FFCC66FFCC99FFCCCCFFCCFFFFFF00FFFF33FFFF66FFFF99FFFFCCFFFFFF0000000D0D0D1A1A1A2828283535354343435050505D5D5D6B6B6B787878868686939393A1A1A1AEAEAEBB
310
BBBBC9C9C9D6D6D6E4E4E4F1F1F1FFFFFF00000000000000000000000000000000000000000000000000000000000054549EDE000004C04944415478DAED9CDB9AAB200C85F338B959EF7FC7B34D5B05C3C196515108E162EFB1DF3753D7CF22090725B2D6ACF1ECFAC198BBFF01629E7A00BC08CC8BE0AD1B6F029322C0A7
310
BDFEA739112C8A3D8077409C15802780B95CB08A9500A61A085E6904E015126641106462FBE71510E7C908D2006B42D8AEF42340A29FD24B70B585069D027C075053208F6C13F635509AF9652CF81D0E594B00486AC3AD3CFA8560541354DCB607F113815EFDDE1FFA4C50A37F2B91DEA5913213D4DCB0278072A818DA0455
310
771B0100294A07A8BC5720AC952044440D26A89FF3E3A33C50800E13F0CF011D1108B5929A9AE03F006439809A4EE621F4FF93401415873701D33900A39B80E9300010D5FD72D726B80000469E22726D2F7E0550310CB873FD8700849AB866E598FBD67FCC017E7E589710591F80501ED729E48EF59F8B82B50A3B3301D359
310
00B224ACEB63EE553F1DDD034D2685232D1BF39E88C64B0BDC8F7EC01F06A02B098C6182D0EB3B9B01DA4DC09BF6CD0633998091B58611B63B13A0D4E86602FCDCC0BF417F8D40EEA1DBAF01E09C1BC00441E9E5005C8141DD514BEEC80138DEFD8283282CD19909D008802BFE88B5B6EAC8046D002CDDBFFEB613DF44EB16
310
4A372668A43FFC7171B9F47E9827FED6C7C30388AF97FE0F8576CD30E04101B8E227DB4AD17A9AA00B133403B026D6C80214AF9474F1F845A314E8877B0C00240F9C2FABC61D1338590245AB098EC41810003A9800B7288177A2607688A60B006DA640AEE48014007A59066B310574B156470502E86721F4FA0970C518406F
310
6BE1D7CEFF5D392CD23FCE93DDACFFE2E6F6F282DF334B0DC0BA019083080328E96755FA53027088830EE7F7F05C5DD8E68B23024877D95203A0446568FDD1729873445184CD0DE0F0582068F8AD6E6D84D8048501E0EE5E0BBB39FCC63BE6BB009E30C14D00248782FE2D64B046FD880E0F72F11642C4B87918F09DF2CB6B
310
009CE68DE3C7747BD41F97D7D8334046A0C1BEDC13003215B9AC0280CF3000DD8180EF955F7036976B2726B1613BA6FEFCC6DF53A1EC3914DEA99E19FBD04600F099F821D50F4ED5F0EE048AB1EFA301F4E713804F064CCF1DEDEB0F33460C1901F22560ACC7C7C5E6D0970120FF08C68C0042B65F0602FB4F906D94BB7214
310
8937588603108EDEAC979CBC852259364D947279280D920211EB59FC8EE42035D2BDA33C3E80DAE5C1C600A270072A2474DEFA76F734D1A011200E806BDF32CAA9E22B80718B402A1820B1B808034E9B7E4AF4BF02A07CF94E1C08940288B64181ECFD022C0038F7C40DDE4600283D48B32D12150F54AA788569A807810C80
310
F8C0915600612F0C4069E47F03A0E5155DBE040C091D72A2B37CA01A80488AF26574D1B389FA0130E4C670BC358E2C09FADD145500C44BB792A7AA5300AB725D06480742FA70AE134DE508486748154F27B346FD3E1DCA0F682A0094EC8CE0C94ABD6F006AF5E729705200BF767C58ABFEDACD2EBD00EAA4CDAEDF00E805C0
310
3419806306D00BC00C600630005301300398010EE932003A0130CD06C00C600630008754B18D0033C0DC00786EFD5A10F0295B8F8F80CF0E6B1E9CC16900A3DB802F89EBE322B8C200D38F00D36F00660F816600338019C00C60004CBF0130FD06605C006600338019C00C600630031800D36F004CBF01983A1F1A006BF7B5
310
3FD4AD58B6551439090000000049454E44AE426082
  0
ENDSEC
  0
EOF
