  0
SECTION
  2
HEADER
  9
$ACADVER
  1
AC1027
  9
$ACADMAINTVER
 70
    55
  9
$DWGCODEPAGE
  3
ANSI_1252
  9
$LASTSAVEDBY
  1
crinne
  9
$REQUIREDVERSIONS
160
                 0
  9
$INSBASE
 10
0.0
 20
0.0
 30
0.0
  9
$EXTMIN
 10
-1.851847400489301
 20
-17.33218913545726
 30
0.0
  9
$EXTMAX
 10
0.3201192354712803
 20
-14.89398296611512
 30
0.0
  9
$LIMMIN
 10
-2600.0
 20
-2600.0
  9
$LIMMAX
 10
2000.0
 20
200.0
  9
$ORTHOMODE
 70
     0
  9
$REGENMODE
 70
     1
  9
$FILLMODE
 70
     1
  9
$QTEXTMODE
 70
     0
  9
$MIRRTEXT
 70
     1
  9
$LTSCALE
 40
25.0
  9
$ATTMODE
 70
     1
  9
$TEXTSIZE
 40
3.5
  9
$TRACEWID
 40
1.0
  9
$TEXTSTYLE
  7
STANDARD
  9
$CLAYER
  8
GRABUNGSGRENZE
  9
$CELTYPE
  6
ByLayer
  9
$CECOLOR
 62
   256
  9
$CELTSCALE
 40
1.0
  9
$DISPSILH
 70
     0
  9
$DIMSCALE
 40
1.0
  9
$DIMASZ
 40
3.5
  9
$DIMEXO
 40
0.1
  9
$DIMDLI
 40
7.0
  9
$DIMRND
 40
0.0
  9
$DIMDLE
 40
0.0
  9
$DIMEXE
 40
1.8
  9
$DIMTP
 40
0.0
  9
$DIMTM
 40
0.0
  9
$DIMTXT
 40
3.5
  9
$DIMCEN
 40
1.5
  9
$DIMTSZ
 40
0.0
  9
$DIMTOL
 70
     0
  9
$DIMLIM
 70
     0
  9
$DIMTIH
 70
     0
  9
$DIMTOH
 70
     0
  9
$DIMSE1
 70
     0
  9
$DIMSE2
 70
     0
  9
$DIMTAD
 70
     0
  9
$DIMZIN
 70
     0
  9
$DIMBLK
  1

  9
$DIMASO
 70
     1
  9
$DIMSHO
 70
     0
  9
$DIMPOST
  1

  9
$DIMAPOST
  1

  9
$DIMALT
 70
     0
  9
$DIMALTD
 70
     2
  9
$DIMALTF
 40
25.4
  9
$DIMLFAC
 40
1.0
  9
$DIMTOFL
 70
     0
  9
$DIMTVP
 40
0.0
  9
$DIMTIX
 70
     0
  9
$DIMSOXD
 70
     0
  9
$DIMSAH
 70
     0
  9
$DIMBLK1
  1

  9
$DIMBLK2
  1

  9
$DIMSTYLE
  2
Standard
  9
$DIMCLRD
 70
     0
  9
$DIMCLRE
 70
     0
  9
$DIMCLRT
 70
     0
  9
$DIMTFAC
 40
1.0
  9
$DIMGAP
 40
0.09
  9
$DIMJUST
 70
     0
  9
$DIMSD1
 70
     0
  9
$DIMSD2
 70
     0
  9
$DIMTOLJ
 70
     1
  9
$DIMTZIN
 70
     0
  9
$DIMALTZ
 70
     0
  9
$DIMALTTZ
 70
     0
  9
$DIMUPT
 70
     0
  9
$DIMDEC
 70
     2
  9
$DIMTDEC
 70
     2
  9
$DIMALTU
 70
     2
  9
$DIMALTTD
 70
     2
  9
$DIMTXSTY
  7
STANDARD
  9
$DIMAUNIT
 70
     0
  9
$DIMADEC
 70
     0
  9
$DIMALTRND
 40
0.0
  9
$DIMAZIN
 70
     0
  9
$DIMDSEP
 70
    46
  9
$DIMATFIT
 70
     3
  9
$DIMFRAC
 70
     0
  9
$DIMLDRBLK
  1

  9
$DIMLUNIT
 70
     2
  9
$DIMLWD
 70
    -2
  9
$DIMLWE
 70
    -2
  9
$DIMTMOVE
 70
     2
  9
$DIMFXL
 40
1.0
  9
$DIMFXLON
 70
     0
  9
$DIMJOGANG
 40
0.7853981633974483
  9
$DIMTFILL
 70
     0
  9
$DIMTFILLCLR
 70
     0
  9
$DIMARCSYM
 70
     0
  9
$DIMLTYPE
  6

  9
$DIMLTEX1
  6

  9
$DIMLTEX2
  6

  9
$DIMTXTDIRECTION
 70
     0
  9
$LUNITS
 70
     2
  9
$LUPREC
 70
     2
  9
$SKETCHINC
 40
1.0
  9
$FILLETRAD
 40
0.0
  9
$AUNITS
 70
     0
  9
$AUPREC
 70
     0
  9
$MENU
  1
ACAD
  9
$ELEVATION
 40
0.0
  9
$PELEVATION
 40
0.0
  9
$THICKNESS
 40
0.0
  9
$LIMCHECK
 70
     0
  9
$CHAMFERA
 40
0.0
  9
$CHAMFERB
 40
0.0
  9
$CHAMFERC
 40
0.0
  9
$CHAMFERD
 40
0.0
  9
$SKPOLY
 70
     0
  9
$TDCREATE
 40
2450576.376020255
  9
$TDUCREATE
 40
2450576.292686921
  9
$TDUPDATE
 40
2459796.510889283
  9
$TDUUPDATE
 40
2459796.427555949
  9
$TDINDWG
 40
0.0008535880
  9
$TDUSRTIMER
 40
0.0008535880
  9
$USRTIMER
 70
     1
  9
$ANGBASE
 50
0.0
  9
$ANGDIR
 70
     0
  9
$PDMODE
 70
     0
  9
$PDSIZE
 40
0.0
  9
$PLINEWID
 40
0.0
  9
$SPLFRAME
 70
     0
  9
$SPLINETYPE
 70
     6
  9
$SPLINESEGS
 70
     8
  9
$HANDSEED
  5
5F0
  9
$SURFTAB1
 70
     6
  9
$SURFTAB2
 70
     6
  9
$SURFTYPE
 70
     6
  9
$SURFU
 70
     6
  9
$SURFV
 70
     6
  9
$UCSBASE
  2

  9
$UCSNAME
  2

  9
$UCSORG
 10
0.0
 20
0.0
 30
0.0
  9
$UCSXDIR
 10
1.0
 20
0.0
 30
0.0
  9
$UCSYDIR
 10
0.0
 20
1.0
 30
0.0
  9
$UCSORTHOREF
  2

  9
$UCSORTHOVIEW
 70
     0
  9
$UCSORGTOP
 10
0.0
 20
0.0
 30
0.0
  9
$UCSORGBOTTOM
 10
0.0
 20
0.0
 30
0.0
  9
$UCSORGLEFT
 10
0.0
 20
0.0
 30
0.0
  9
$UCSORGRIGHT
 10
0.0
 20
0.0
 30
0.0
  9
$UCSORGFRONT
 10
0.0
 20
0.0
 30
0.0
  9
$UCSORGBACK
 10
0.0
 20
0.0
 30
0.0
  9
$PUCSBASE
  2

  9
$PUCSNAME
  2

  9
$PUCSORG
 10
0.0
 20
0.0
 30
0.0
  9
$PUCSXDIR
 10
1.0
 20
0.0
 30
0.0
  9
$PUCSYDIR
 10
0.0
 20
1.0
 30
0.0
  9
$PUCSORTHOREF
  2

  9
$PUCSORTHOVIEW
 70
     0
  9
$PUCSORGTOP
 10
0.0
 20
0.0
 30
0.0
  9
$PUCSORGBOTTOM
 10
0.0
 20
0.0
 30
0.0
  9
$PUCSORGLEFT
 10
0.0
 20
0.0
 30
0.0
  9
$PUCSORGRIGHT
 10
0.0
 20
0.0
 30
0.0
  9
$PUCSORGFRONT
 10
0.0
 20
0.0
 30
0.0
  9
$PUCSORGBACK
 10
0.0
 20
0.0
 30
0.0
  9
$USERI1
 70
     0
  9
$USERI2
 70
     0
  9
$USERI3
 70
     0
  9
$USERI4
 70
     0
  9
$USERI5
 70
     0
  9
$USERR1
 40
0.0
  9
$USERR2
 40
0.0
  9
$USERR3
 40
0.0
  9
$USERR4
 40
0.0
  9
$USERR5
 40
0.0
  9
$WORLDVIEW
 70
     1
  9
$SHADEDGE
 70
     3
  9
$SHADEDIF
 70
    70
  9
$TILEMODE
 70
     1
  9
$MAXACTVP
 70
    16
  9
$PINSBASE
 10
0.0
 20
0.0
 30
0.0
  9
$PLIMCHECK
 70
     0
  9
$PEXTMIN
 10
1.000000000000000E+20
 20
1.000000000000000E+20
 30
1.000000000000000E+20
  9
$PEXTMAX
 10
-1.000000000000000E+20
 20
-1.000000000000000E+20
 30
-1.000000000000000E+20
  9
$PLIMMIN
 10
0.0
 20
0.0
  9
$PLIMMAX
 10
12.0
 20
9.0
  9
$UNITMODE
 70
     0
  9
$VISRETAIN
 70
     0
  9
$PLINEGEN
 70
     0
  9
$PSLTSCALE
 70
     0
  9
$TREEDEPTH
 70
  3020
  9
$CMLSTYLE
  2
Standard
  9
$CMLJUST
 70
     0
  9
$CMLSCALE
 40
1.0
  9
$PROXYGRAPHICS
 70
     1
  9
$MEASUREMENT
 70
     0
  9
$CELWEIGHT
370
    -1
  9
$ENDCAPS
280
     0
  9
$JOINSTYLE
280
     0
  9
$LWDISPLAY
290
     0
  9
$INSUNITS
 70
     6
  9
$HYPERLINKBASE
  1

  9
$STYLESHEET
  1

  9
$XEDIT
290
     1
  9
$CEPSNTYPE
380
     0
  9
$PSTYLEMODE
290
     1
  9
$FINGERPRINTGUID
  2
{E10D310A-E2BF-476A-9E70-E5708582D234}
  9
$VERSIONGUID
  2
{3055E0A7-3430-4442-B0F4-5AF66BDA8F2F}
  9
$EXTNAMES
290
     1
  9
$PSVPSCALE
 40
0.0
  9
$OLESTARTUP
290
     0
  9
$SORTENTS
280
   127
  9
$INDEXCTL
280
     0
  9
$HIDETEXT
280
     1
  9
$XCLIPFRAME
280
     2
  9
$HALOGAP
280
     0
  9
$OBSCOLOR
 70
   257
  9
$OBSLTYPE
280
     0
  9
$INTERSECTIONDISPLAY
280
     0
  9
$INTERSECTIONCOLOR
 70
   257
  9
$DIMASSOC
280
     2
  9
$PROJECTNAME
  1

  9
$CAMERADISPLAY
290
     0
  9
$LENSLENGTH
 40
50.0
  9
$CAMERAHEIGHT
 40
0.0
  9
$STEPSPERSEC
 40
2.0
  9
$STEPSIZE
 40
6.0
  9
$3DDWFPREC
 40
2.0
  9
$PSOLWIDTH
 40
0.25
  9
$PSOLHEIGHT
 40
4.0
  9
$LOFTANG1
 40
1.570796326794896
  9
$LOFTANG2
 40
1.570796326794896
  9
$LOFTMAG1
 40
0.0
  9
$LOFTMAG2
 40
0.0
  9
$LOFTPARAM
 70
     7
  9
$LOFTNORMALS
280
     1
  9
$LATITUDE
 40
37.795
  9
$LONGITUDE
 40
-122.394
  9
$NORTHDIRECTION
 40
0.0
  9
$TIMEZONE
 70
 -8000
  9
$LIGHTGLYPHDISPLAY
280
     1
  9
$TILEMODELIGHTSYNCH
280
     1
  9
$CMATERIAL
347
11
  9
$SOLIDHIST
280
     0
  9
$SHOWHIST
280
     1
  9
$DWFFRAME
280
     2
  9
$DGNFRAME
280
     0
  9
$REALWORLDSCALE
290
     1
  9
$INTERFERECOLOR
 62
     1
  9
$INTERFEREOBJVS
345
33
  9
$INTERFEREVPVS
346
30
  9
$CSHADOW
280
     0
  9
$SHADOWPLANELOCATION
 40
0.0
  0
ENDSEC
  0
SECTION
  2
CLASSES
  0
CLASS
  1
ACDBDICTIONARYWDFLT
  2
AcDbDictionaryWithDefault
  3
ObjectDBX Classes
 90
        0
 91
        1
280
     0
281
     0
  0
CLASS
  1
MATERIAL
  2
AcDbMaterial
  3
ObjectDBX Classes
 90
     1153
 91
        3
280
     0
281
     0
  0
CLASS
  1
VISUALSTYLE
  2
AcDbVisualStyle
  3
ObjectDBX Classes
 90
     4095
 91
       24
280
     0
281
     0
  0
CLASS
  1
SCALE
  2
AcDbScale
  3
ObjectDBX Classes
 90
     1153
 91
       17
280
     0
281
     0
  0
CLASS
  1
TABLESTYLE
  2
AcDbTableStyle
  3
ObjectDBX Classes
 90
     4095
 91
        1
280
     0
281
     0
  0
CLASS
  1
MLEADERSTYLE
  2
AcDbMLeaderStyle
  3
ACDB_MLEADERSTYLE_CLASS
 90
     4095
 91
        1
280
     0
281
     0
  0
CLASS
  1
ACDBSECTIONVIEWSTYLE
  2
AcDbSectionViewStyle
  3
ObjectDBX Classes
 90
     1025
 91
        1
280
     0
281
     0
  0
CLASS
  1
ACDBDETAILVIEWSTYLE
  2
AcDbDetailViewStyle
  3
ObjectDBX Classes
 90
     1025
 91
        1
280
     0
281
     0
  0
CLASS
  1
DICTIONARYVAR
  2
AcDbDictionaryVar
  3
ObjectDBX Classes
 90
        0
 91
        5
280
     0
281
     0
  0
CLASS
  1
CELLSTYLEMAP
  2
AcDbCellStyleMap
  3
ObjectDBX Classes
 90
     1152
 91
        1
280
     0
281
     0
  0
ENDSEC
  0
SECTION
  2
TABLES
  0
TABLE
  2
VPORT
  5
8
330
0
100
AcDbSymbolTable
 70
     1
  0
VPORT
  5
90
330
8
100
AcDbSymbolTableRecord
100
AcDbViewportTableRecord
  2
*ACTIVE
 70
     0
 10
0.0
 20
0.0
 11
1.0
 21
1.0
 12
-0.7658640825090109
 22
-16.11308605078619
 13
0.0
 23
0.0
 14
5.0
 24
5.0
 15
100.0
 25
100.0
 16
0.0
 26
0.0
 36
1.0
 17
0.0
 27
0.0
 37
0.0
 40
2.458137009963465
 41
1.649386084583901
 42
50.0
 43
0.0
 44
0.0
 50
0.0
 51
0.0
 71
     0
 72
   100
 73
     1
 74
     0
 75
     0
 76
     1
 77
     0
 78
     0
281
     0
 65
     1
110
0.0
120
0.0
130
0.0
111
1.0
121
0.0
131
0.0
112
0.0
122
1.0
132
0.0
 79
     0
146
0.0
348
2F
 60
     3
 61
     5
292
     1
282
     0
141
0.0
142
0.0
 63
   250
421
  3355443
1001
ACAD_NAV_VCDISPLAY
1070
     3
  0
ENDTAB
  0
TABLE
  2
LTYPE
  5
5
330
0
100
AcDbSymbolTable
 70
    25
  0
LTYPE
  5
5A
330
5
100
AcDbSymbolTableRecord
100
AcDbLinetypeTableRecord
  2
ByBlock
 70
     0
  3

 72
    65
 73
     0
 40
0.0
  0
LTYPE
  5
5B
330
5
100
AcDbSymbolTableRecord
100
AcDbLinetypeTableRecord
  2
ByLayer
 70
     0
  3

 72
    65
 73
     0
 40
0.0
  0
LTYPE
  5
5C
330
5
100
AcDbSymbolTableRecord
100
AcDbLinetypeTableRecord
  2
CONTINUOUS
 70
     0
  3
Ausgezogene Linie
 72
    65
 73
     0
 40
0.0
  0
LTYPE
  5
77
330
5
100
AcDbSymbolTableRecord
100
AcDbLinetypeTableRecord
  2
RAND
 70
     0
  3
__ __ . __ __ . __ __ . __ __ . __ __ . __ __ .
 72
    65
 73
     6
 40
1.75
 49
0.5
 74
     0
 49
-0.25
 74
     0
 49
0.5
 74
     0
 49
-0.25
 74
     0
 49
0.0
 74
     0
 49
-0.25
 74
     0
  0
LTYPE
  5
78
330
5
100
AcDbSymbolTableRecord
100
AcDbLinetypeTableRecord
  2
RAND2
 70
     0
  3
__.__.__.__.__.__.__.__.__.__.__.__.__.__.__.__
 72
    65
 73
     6
 40
0.875
 49
0.25
 74
     0
 49
-0.125
 74
     0
 49
0.25
 74
     0
 49
-0.125
 74
     0
 49
0.0
 74
     0
 49
-0.125
 74
     0
  0
LTYPE
  5
79
330
5
100
AcDbSymbolTableRecord
100
AcDbLinetypeTableRecord
  2
RANDX2
 70
     0
  3
____  ____  .  ____  ____  .  ____  ____  .  __
 72
    65
 73
     6
 40
3.5
 49
1.0
 74
     0
 49
-0.5
 74
     0
 49
1.0
 74
     0
 49
-0.5
 74
     0
 49
0.0
 74
     0
 49
-0.5
 74
     0
  0
LTYPE
  5
7A
330
5
100
AcDbSymbolTableRecord
100
AcDbLinetypeTableRecord
  2
MITTE
 70
     0
  3
____ _ ____ _ ____ _ ____ _ ____ _ ____ _ ____ 
 72
    65
 73
     4
 40
2.0
 49
1.25
 74
     0
 49
-0.25
 74
     0
 49
0.25
 74
     0
 49
-0.25
 74
     0
  0
LTYPE
  5
7B
330
5
100
AcDbSymbolTableRecord
100
AcDbLinetypeTableRecord
  2
MITTE2
 70
     0
  3
___ _ ___ _ ___ _ ___ _ ___ _ ___ _ ___ _ ___ _
 72
    65
 73
     4
 40
1.125
 49
0.75
 74
     0
 49
-0.125
 74
     0
 49
0.125
 74
     0
 49
-0.125
 74
     0
  0
LTYPE
  5
7C
330
5
100
AcDbSymbolTableRecord
100
AcDbLinetypeTableRecord
  2
MITTEX2
 70
     0
  3
________  __  ________  __  ________  __  _____
 72
    65
 73
     4
 40
4.0
 49
2.5
 74
     0
 49
-0.5
 74
     0
 49
0.5
 74
     0
 49
-0.5
 74
     0
  0
LTYPE
  5
7D
330
5
100
AcDbSymbolTableRecord
100
AcDbLinetypeTableRecord
  2
STRICHPUNKT
 70
     0
  3
__ . __ . __ . __ . __ . __ . __ . __ . __ . __
 72
    65
 73
     4
 40
1.0
 49
0.5
 74
     0
 49
-0.25
 74
     0
 49
0.0
 74
     0
 49
-0.25
 74
     0
  0
LTYPE
  5
7E
330
5
100
AcDbSymbolTableRecord
100
AcDbLinetypeTableRecord
  2
STRICHPUNKT2
 70
     0
  3
_._._._._._._._._._._._._._._._._._._._._._._._
 72
    65
 73
     4
 40
0.5
 49
0.25
 74
     0
 49
-0.125
 74
     0
 49
0.0
 74
     0
 49
-0.125
 74
     0
  0
LTYPE
  5
7F
330
5
100
AcDbSymbolTableRecord
100
AcDbLinetypeTableRecord
  2
STRICHPUNKTX2
 70
     0
  3
____  .  ____  .  ____  .  ____  .  ____  .  __
 72
    65
 73
     4
 40
2.0
 49
1.0
 74
     0
 49
-0.5
 74
     0
 49
0.0
 74
     0
 49
-0.5
 74
     0
  0
LTYPE
  5
80
330
5
100
AcDbSymbolTableRecord
100
AcDbLinetypeTableRecord
  2
GESTRICHELT
 70
     0
  3
__ __ __ __ __ __ __ __ __ __ __ __ __ __ __ __
 72
    65
 73
     2
 40
0.75
 49
0.5
 74
     0
 49
-0.25
 74
     0
  0
LTYPE
  5
81
330
5
100
AcDbSymbolTableRecord
100
AcDbLinetypeTableRecord
  2
GESTRICHELT2
 70
     0
  3
_ _ _ _ _ _ _ _ _ _ _ _ _ _ _ _ _ _ _ _ _ _ _ _
 72
    65
 73
     2
 40
0.375
 49
0.25
 74
     0
 49
-0.125
 74
     0
  0
LTYPE
  5
82
330
5
100
AcDbSymbolTableRecord
100
AcDbLinetypeTableRecord
  2
GESTRICHELTX2
 70
     0
  3
____  ____  ____  ____  ____  ____  ____  ____ 
 72
    65
 73
     2
 40
1.5
 49
1.0
 74
     0
 49
-0.5
 74
     0
  0
LTYPE
  5
83
330
5
100
AcDbSymbolTableRecord
100
AcDbLinetypeTableRecord
  2
GETRENNT
 70
     0
  3
____ . . ____ . . ____ . . ____ . . ____ . . __
 72
    65
 73
     6
 40
1.25
 49
0.5
 74
     0
 49
-0.25
 74
     0
 49
0.0
 74
     0
 49
-0.25
 74
     0
 49
0.0
 74
     0
 49
-0.25
 74
     0
  0
LTYPE
  5
84
330
5
100
AcDbSymbolTableRecord
100
AcDbLinetypeTableRecord
  2
GETRENNT2
 70
     0
  3
__..__..__..__..__..__..__..__..__..__..__..__.
 72
    65
 73
     6
 40
0.625
 49
0.25
 74
     0
 49
-0.125
 74
     0
 49
0.0
 74
     0
 49
-0.125
 74
     0
 49
0.0
 74
     0
 49
-0.125
 74
     0
  0
LTYPE
  5
85
330
5
100
AcDbSymbolTableRecord
100
AcDbLinetypeTableRecord
  2
GETRENNTX2
 70
     0
  3
________  .  .  ________  .  .  ________  .  . 
 72
    65
 73
     6
 40
2.5
 49
1.0
 74
     0
 49
-0.5
 74
     0
 49
0.0
 74
     0
 49
-0.5
 74
     0
 49
0.0
 74
     0
 49
-0.5
 74
     0
  0
LTYPE
  5
86
330
5
100
AcDbSymbolTableRecord
100
AcDbLinetypeTableRecord
  2
PUNKT
 70
     0
  3
. . . . . . . . . . . . . . . . . . . . . . . .
 72
    65
 73
     2
 40
0.25
 49
0.0
 74
     0
 49
-0.25
 74
     0
  0
LTYPE
  5
87
330
5
100
AcDbSymbolTableRecord
100
AcDbLinetypeTableRecord
  2
PUNKT2
 70
     0
  3
...............................................
 72
    65
 73
     2
 40
0.125
 49
0.0
 74
     0
 49
-0.125
 74
     0
  0
LTYPE
  5
88
330
5
100
AcDbSymbolTableRecord
100
AcDbLinetypeTableRecord
  2
PUNKTX2
 70
     0
  3
.  .  .  .  .  .  .  .  .  .  .  .  .  .  .  . 
 72
    65
 73
     2
 40
0.5
 49
0.0
 74
     0
 49
-0.5
 74
     0
  0
LTYPE
  5
89
330
5
100
AcDbSymbolTableRecord
100
AcDbLinetypeTableRecord
  2
VERDECKT
 70
     0
  3
__ __ __ __ __ __ __ __ __ __ __ __ __ __ __ __
 72
    65
 73
     2
 40
0.375
 49
0.25
 74
     0
 49
-0.125
 74
     0
  0
LTYPE
  5
8A
330
5
100
AcDbSymbolTableRecord
100
AcDbLinetypeTableRecord
  2
VERDECKT2
 70
     0
  3
_ _ _ _ _ _ _ _ _ _ _ _ _ _ _ _ _ _ _ _ _ _ _ _
 72
    65
 73
     2
 40
0.1875
 49
0.125
 74
     0
 49
-0.0625
 74
     0
  0
LTYPE
  5
8B
330
5
100
AcDbSymbolTableRecord
100
AcDbLinetypeTableRecord
  2
VERDECKTX2
 70
     0
  3
____ ____ ____ ____ ____ ____ ____ ____ ____ __
 72
    65
 73
     2
 40
0.75
 49
0.5
 74
     0
 49
-0.25
 74
     0
  0
LTYPE
  5
8C
330
5
100
AcDbSymbolTableRecord
100
AcDbLinetypeTableRecord
  2
PHANTOM
 70
     0
  3
______  __  __  ______  __  __  ______  __  __ 
 72
    65
 73
     6
 40
2.5
 49
1.25
 74
     0
 49
-0.25
 74
     0
 49
0.25
 74
     0
 49
-0.25
 74
     0
 49
0.25
 74
     0
 49
-0.25
 74
     0
  0
LTYPE
  5
8D
330
5
100
AcDbSymbolTableRecord
100
AcDbLinetypeTableRecord
  2
PHANTOM2
 70
     0
  3
___ _ _ ___ _ _ ___ _ _ ___ _ _ ___ _ _ ___ _ _
 72
    65
 73
     6
 40
1.25
 49
0.625
 74
     0
 49
-0.125
 74
     0
 49
0.125
 74
     0
 49
-0.125
 74
     0
 49
0.125
 74
     0
 49
-0.125
 74
     0
  0
LTYPE
  5
8E
330
5
100
AcDbSymbolTableRecord
100
AcDbLinetypeTableRecord
  2
PHANTOMX2
 70
     0
  3
____________    ____    ____    ____________   
 72
    65
 73
     6
 40
5.0
 49
2.5
 74
     0
 49
-0.5
 74
     0
 49
0.5
 74
     0
 49
-0.5
 74
     0
 49
0.5
 74
     0
 49
-0.5
 74
     0
  0
ENDTAB
  0
TABLE
  2
LAYER
  5
2
102
{ACAD_XDICTIONARY
360
548
102
}
330
0
100
AcDbSymbolTable
 70
    10
  0
LAYER
  5
54
330
2
100
AcDbSymbolTableRecord
100
AcDbLayerTableRecord
  2
0
 70
     0
 62
     7
  6
CONTINUOUS
370
    -3
390
F
347
21
348
0
  0
LAYER
  5
91
330
2
100
AcDbSymbolTableRecord
100
AcDbLayerTableRecord
  2
GRABUNGSGRENZE
 70
     0
 62
     3
  6
STRICHPUNKTX2
370
    -3
390
F
347
21
348
0
  0
LAYER
  5
92
330
2
100
AcDbSymbolTableRecord
100
AcDbLayerTableRecord
  2
BEFUND
 70
     0
 62
     1
  6
CONTINUOUS
370
    -3
390
F
347
21
348
0
  0
LAYER
  5
93
330
2
100
AcDbSymbolTableRecord
100
AcDbLayerTableRecord
  2
STEINE
 70
     0
 62
     4
  6
CONTINUOUS
370
    -3
390
F
347
21
348
0
  0
LAYER
  5
94
330
2
100
AcDbSymbolTableRecord
100
AcDbLayerTableRecord
  2
KNOCHEN
 70
     0
 62
     2
  6
CONTINUOUS
370
    -3
390
F
347
21
348
0
  0
LAYER
  5
95
330
2
100
AcDbSymbolTableRecord
100
AcDbLayerTableRecord
  2
BEFUND_UNSICHER
 70
     0
 62
     1
  6
GESTRICHELT
370
    -3
390
F
347
21
348
0
  0
LAYER
  5
96
330
2
100
AcDbSymbolTableRecord
100
AcDbLayerTableRecord
  2
FEUER
 70
     0
 62
     1
  6
CONTINUOUS
370
    -3
390
F
347
21
348
0
  0
LAYER
  5
97
330
2
100
AcDbSymbolTableRecord
100
AcDbLayerTableRecord
  2
KNOCHENSCHRAFF
 70
     0
 62
     2
  6
CONTINUOUS
370
    -3
390
F
347
21
348
0
  0
LAYER
  5
98
330
2
100
AcDbSymbolTableRecord
100
AcDbLayerTableRecord
  2
TPROFIL
 70
     0
 62
     3
  6
CONTINUOUS
370
    -3
390
F
347
21
348
0
  0
LAYER
  5
99
330
2
100
AcDbSymbolTableRecord
100
AcDbLayerTableRecord
  2
STEINESCHRAFF
 70
     0
 62
     4
  6
CONTINUOUS
370
    -3
390
F
347
21
348
0
  0
ENDTAB
  0
TABLE
  2
STYLE
  5
3
330
0
100
AcDbSymbolTable
 70
     2
  0
STYLE
  5
55
330
3
100
AcDbSymbolTableRecord
100
AcDbTextStyleTableRecord
  2
STANDARD
 70
     0
 40
0.0
 41
1.0
 50
0.0
 71
     0
 42
3.5
  3
txt.shx
  4

  0
STYLE
  5
59
330
3
100
AcDbSymbolTableRecord
100
AcDbTextStyleTableRecord
  2
Annotative
 70
     0
 40
0.0
 41
1.0
 50
0.0
 71
     0
 42
3.5
  3
txt
  4

1001
AcadAnnotative
1000
AnnotativeData
1002
{
1070
     1
1070
     1
1002
}
  0
ENDTAB
  0
TABLE
  2
VIEW
  5
6
330
0
100
AcDbSymbolTable
 70
     1
  0
ENDTAB
  0
TABLE
  2
UCS
  5
7
330
0
100
AcDbSymbolTable
 70
     0
  0
ENDTAB
  0
TABLE
  2
APPID
  5
9
330
0
100
AcDbSymbolTable
 70
     3
  0
APPID
  5
56
330
9
100
AcDbSymbolTableRecord
100
AcDbRegAppTableRecord
  2
ACAD
 70
     0
  0
APPID
  5
5D
330
9
100
AcDbSymbolTableRecord
100
AcDbRegAppTableRecord
  2
AcadAnnotative
 70
     0
  0
APPID
  5
54E
330
9
100
AcDbSymbolTableRecord
100
AcDbRegAppTableRecord
  2
ACAD_NAV_VCDISPLAY
 70
     0
  0
ENDTAB
  0
TABLE
  2
DIMSTYLE
  5
A
330
0
100
AcDbSymbolTable
 70
     2
100
AcDbDimStyleTable
 71
     0
  0
DIMSTYLE
105
57
330
A
100
AcDbSymbolTableRecord
100
AcDbDimStyleTableRecord
  2
Standard
 70
     0
340
55
  0
DIMSTYLE
105
58
330
A
100
AcDbSymbolTableRecord
100
AcDbDimStyleTableRecord
  2
Annotative
 70
     0
340
55
1001
AcadAnnotative
1000
AnnotativeData
1002
{
1070
     1
1070
     1
1002
}
  0
ENDTAB
  0
TABLE
  2
BLOCK_RECORD
  5
1
330
0
100
AcDbSymbolTable
 70
     4
  0
BLOCK_RECORD
  5
6F
330
1
100
AcDbSymbolTableRecord
100
AcDbBlockTableRecord
  2
*Model_Space
340
72
 70
     0
280
     1
281
     0
  0
BLOCK_RECORD
  5
6B
330
1
100
AcDbSymbolTableRecord
100
AcDbBlockTableRecord
  2
*Paper_Space
340
6E
 70
     0
280
     1
281
     0
  0
BLOCK_RECORD
  5
73
330
1
100
AcDbSymbolTableRecord
100
AcDbBlockTableRecord
  2
TPFEIL
340
0
 70
     0
280
     1
281
     0
  0
BLOCK_RECORD
  5
74
330
1
100
AcDbSymbolTableRecord
100
AcDbBlockTableRecord
  2
*X1
340
0
102
{BLKREFS
331
4CF
102
}
 70
     0
280
     1
281
     0
  0
BLOCK_RECORD
  5
75
330
1
100
AcDbSymbolTableRecord
100
AcDbBlockTableRecord
  2
*X2
340
0
102
{BLKREFS
331
4D0
102
}
 70
     0
280
     1
281
     0
  0
BLOCK_RECORD
  5
76
330
1
100
AcDbSymbolTableRecord
100
AcDbBlockTableRecord
  2
*X3
340
0
102
{BLKREFS
331
541
102
}
 70
     0
280
     1
281
     0
  0
ENDTAB
  0
ENDSEC
  0
SECTION
  2
BLOCKS
  0
BLOCK
  5
9C
330
6F
100
AcDbEntity
  8
0
100
AcDbBlockBegin
  2
*Model_Space
 70
     0
 10
0.0
 20
0.0
 30
0.0
  3
*Model_Space
  1

  0
ENDBLK
  5
9D
330
6F
100
AcDbEntity
  8
0
100
AcDbBlockEnd
  0
BLOCK
  5
9A
330
6B
100
AcDbEntity
 67
     1
  8
0
100
AcDbBlockBegin
  2
*Paper_Space
 70
     0
 10
0.0
 20
0.0
 30
0.0
  3
*Paper_Space
  1

  0
ENDBLK
  5
9B
330
6B
100
AcDbEntity
 67
     1
  8
0
100
AcDbBlockEnd
  0
BLOCK
  5
9E
330
73
100
AcDbEntity
  8
0
100
AcDbBlockBegin
  2
TPFEIL
 70
     0
 10
0.0
 20
0.0
 30
0.0
  3
TPFEIL
  1

  0
LWPOLYLINE
  5
9F
330
73
100
AcDbEntity
  8
GRABUNGSGRENZE
100
AcDbPolyline
 90
        2
 70
     0
 10
0.0
 20
-10.0
 40
5.0
 41
0.0
 10
0.0
 20
0.0
 40
0.0
 41
0.0
  0
ENDBLK
  5
A3
330
73
100
AcDbEntity
  8
0
100
AcDbBlockEnd
  0
BLOCK
  5
A4
330
74
100
AcDbEntity
  8
0
100
AcDbBlockBegin
  2
*X1
 70
     1
 10
0.0
 20
0.0
 30
0.0
  3
*X1
  1

  0
LINE
  5
A5
330
74
100
AcDbEntity
  8
0
 62
     0
100
AcDbLine
 10
-55.03781737269007
 20
-1698.353976850226
 30
0.0
 11
-53.93403040012065
 21
-1697.250189877657
 31
0.0
  0
LINE
  5
A6
330
74
100
AcDbEntity
  8
0
 62
     0
100
AcDbLine
 10
-54.38400446184595
 20
-1697.346610548789
 30
0.0
 11
-54.13087386754578
 21
-1697.093479954489
 31
0.0
  0
LINE
  5
A7
330
74
100
AcDbEntity
  8
0
 62
     0
100
AcDbLine
 10
-55.54283477421808
 20
-1697.798334079974
 30
0.0
 11
-53.39357320930829
 21
-1695.649072515065
 31
0.0
  0
LINE
  5
A8
330
74
100
AcDbEntity
  8
0
 62
     0
100
AcDbLine
 10
-56.6675003011916
 20
-1698.569446216355
 30
0.0
 11
-53.46362689538737
 21
-1695.36557281055
 31
0.0
  0
LINE
  5
A9
330
74
100
AcDbEntity
  8
0
 62
     0
100
AcDbLine
 10
-56.76792164929666
 20
-1698.316314173866
 30
0.0
 11
-53.7735395508957
 21
-1695.321932075465
 31
0.0
  0
LINE
  5
AA
330
74
100
AcDbEntity
  8
0
 62
     0
100
AcDbLine
 10
-56.80642966511303
 20
-1698.00126879909
 30
0.0
 11
-55.6427342331989
 21
-1696.837573367175
 31
0.0
  0
LINE
  5
AB
330
74
100
AcDbEntity
  8
0
 62
     0
100
AcDbLine
 10
-55.23878452531134
 20
-1698.908497393441
 30
0.0
 11
-53.73718693269553
 21
-1697.406899800825
 31
0.0
  0
LINE
  5
AC
330
74
100
AcDbEntity
  8
0
 62
     0
100
AcDbLine
 10
-55.27927501129973
 20
-1699.302541270023
 30
0.0
 11
-53.5403434652704
 21
-1697.563609723993
 31
0.0
  0
LINE
  5
AD
330
74
100
AcDbEntity
  8
0
 62
     0
100
AcDbLine
 10
-55.31976549728813
 20
-1699.696585146604
 30
0.0
 11
-53.34349999784528
 21
-1697.720319647161
 31
0.0
  0
LINE
  5
AE
330
74
100
AcDbEntity
  8
0
 62
     0
100
AcDbLine
 10
-55.36025598327653
 20
-1700.090629023186
 30
0.0
 11
-53.14665653042016
 21
-1697.877029570329
 31
0.0
  0
LINE
  5
AF
330
74
100
AcDbEntity
  8
0
 62
     0
100
AcDbLine
 10
-55.02602234524094
 20
-1700.109948775743
 30
0.0
 11
-54.56726583994406
 21
-1699.651192270447
 31
0.0
  0
LINE
  5
B0
330
74
100
AcDbEntity
  8
0
 62
     0
100
AcDbLine
 10
-52.4232421878386
 20
-1698.214275399528
 30
0.0
 11
-51.88852668831689
 21
-1697.679559900006
 31
0.0
  0
LINE
  5
B1
330
74
100
AcDbEntity
  8
0
 62
     0
100
AcDbLine
 10
-52.30973625038148
 20
-1698.454322852664
 30
0.0
 11
-51.78099340663421
 21
-1697.925580008917
 31
0.0
  0
LINE
  5
B2
330
74
100
AcDbEntity
  8
0
 62
     0
100
AcDbLine
 10
-52.19623031292434
 20
-1698.6943703058
 30
0.0
 11
-51.70237873046668
 21
-1698.200518723342
 31
0.0
  0
LINE
  5
B3
330
74
100
AcDbEntity
  8
0
 62
     0
100
AcDbLine
 10
-52.08272437546721
 20
-1698.934417758936
 30
0.0
 11
-51.62376405429915
 21
-1698.475457437768
 31
0.0
  0
LINE
  5
B4
330
74
100
AcDbEntity
  8
0
 62
     0
100
AcDbLine
 10
-51.96921843801008
 20
-1699.174465212072
 30
0.0
 11
-51.54514937813162
 21
-1698.750396152194
 31
0.0
  0
LINE
  5
B5
330
74
100
AcDbEntity
  8
0
 62
     0
100
AcDbLine
 10
-51.85571250055295
 20
-1699.414512665208
 30
0.0
 11
-51.46653470196408
 21
-1699.025334866619
 31
0.0
  0
LINE
  5
B6
330
74
100
AcDbEntity
  8
0
 62
     0
100
AcDbLine
 10
-51.74220656309582
 20
-1699.654560118345
 30
0.0
 11
-51.38792002579656
 21
-1699.300273581046
 31
0.0
  0
LINE
  5
B7
330
74
100
AcDbEntity
  8
0
 62
     0
100
AcDbLine
 10
-51.62870062563869
 20
-1699.894607571481
 30
0.0
 11
-51.30930534962902
 21
-1699.575212295471
 31
0.0
  0
LINE
  5
B8
330
74
100
AcDbEntity
  8
0
 62
     0
100
AcDbLine
 10
-51.51519468818157
 20
-1700.134655024617
 30
0.0
 11
-51.23069067346149
 21
-1699.850151009897
 31
0.0
  0
ENDBLK
  5
B9
330
74
100
AcDbEntity
  8
0
100
AcDbBlockEnd
  0
BLOCK
  5
BA
330
75
100
AcDbEntity
  8
0
100
AcDbBlockBegin
  2
*X2
 70
     1
 10
0.0
 20
0.0
 30
0.0
  3
*X2
  1

  0
LINE
  5
BB
330
75
100
AcDbEntity
  8
0
 62
     0
100
AcDbLine
 10
-150.2956332857014
 20
-1628.148805965586
 30
0.0
 11
-149.9282898689469
 21
-1627.781462548831
 31
0.0
  0
LINE
  5
BC
330
75
100
AcDbEntity
  8
0
 62
     0
100
AcDbLine
 10
-150.5677509761803
 20
-1628.067370265471
 30
0.0
 11
-149.7235466046892
 21
-1627.22316589398
 31
0.0
  0
LINE
  5
BD
330
75
100
AcDbEntity
  8
0
 62
     0
100
AcDbLine
 10
-150.8398686666591
 20
-1627.985934565356
 30
0.0
 11
-149.8975320097347
 21
-1627.043597908432
 31
0.0
  0
LINE
  5
BE
330
75
100
AcDbEntity
  8
0
 62
     0
100
AcDbLine
 10
-151.111986357138
 20
-1627.904498865242
 30
0.0
 11
-150.1832436991176
 21
-1626.975756207222
 31
0.0
  0
LINE
  5
BF
330
75
100
AcDbEntity
  8
0
 62
     0
100
AcDbLine
 10
-151.3841040476168
 20
-1627.823063165128
 30
0.0
 11
-150.4689553885005
 21
-1626.907914506011
 31
0.0
  0
LINE
  5
C0
330
75
100
AcDbEntity
  8
0
 62
     0
100
AcDbLine
 10
-151.6562217380957
 20
-1627.741627465013
 30
0.0
 11
-150.7546670778833
 21
-1626.840072804801
 31
0.0
  0
LINE
  5
C1
330
75
100
AcDbEntity
  8
0
 62
     0
100
AcDbLine
 10
-151.9283394285746
 20
-1627.660191764899
 30
0.0
 11
-151.0403787672663
 21
-1626.772231103591
 31
0.0
  0
LINE
  5
C2
330
75
100
AcDbEntity
  8
0
 62
     0
100
AcDbLine
 10
-152.2004571190534
 20
-1627.578756064784
 30
0.0
 11
-151.3260904566491
 21
-1626.70438940238
 31
0.0
  0
LINE
  5
C3
330
75
100
AcDbEntity
  8
0
 62
     0
100
AcDbLine
 10
-152.4725748095323
 20
-1627.49732036467
 30
0.0
 11
-151.611802146032
 21
-1626.63654770117
 31
0.0
  0
LINE
  5
C4
330
75
100
AcDbEntity
  8
0
 62
     0
100
AcDbLine
 10
-152.7446925000111
 20
-1627.415884664556
 30
0.0
 11
-151.8975138354149
 21
-1626.56870599996
 31
0.0
  0
LINE
  5
C5
330
75
100
AcDbEntity
  8
0
 62
     0
100
AcDbLine
 10
-153.01681019049
 20
-1627.334448964441
 30
0.0
 11
-152.1832255247979
 21
-1626.500864298749
 31
0.0
  0
LINE
  5
C6
330
75
100
AcDbEntity
  8
0
 62
     0
100
AcDbLine
 10
-153.2889278809689
 20
-1627.253013264327
 30
0.0
 11
-152.4689372141807
 21
-1626.433022597539
 31
0.0
  0
LINE
  5
C7
330
75
100
AcDbEntity
  8
0
 62
     0
100
AcDbLine
 10
-153.5610455714477
 20
-1627.171577564212
 30
0.0
 11
-152.7546489035636
 21
-1626.365180896328
 31
0.0
  0
LINE
  5
C8
330
75
100
AcDbEntity
  8
0
 62
     0
100
AcDbLine
 10
-153.8331632619266
 20
-1627.090141864098
 30
0.0
 11
-153.0403605929465
 21
-1626.297339195118
 31
0.0
  0
LINE
  5
C9
330
75
100
AcDbEntity
  8
0
 62
     0
100
AcDbLine
 10
-154.1052809524054
 20
-1627.008706163984
 30
0.0
 11
-153.3260722823294
 21
-1626.229497493907
 31
0.0
  0
LINE
  5
CA
330
75
100
AcDbEntity
  8
0
 62
     0
100
AcDbLine
 10
-153.9794074737314
 20
-1626.529279294716
 30
0.0
 11
-153.6117839717123
 21
-1626.161655792697
 31
0.0
  0
LINE
  5
CB
330
75
100
AcDbEntity
  8
0
 62
     0
100
AcDbLine
 10
-156.237700637732
 20
-1628.434019068124
 30
0.0
 11
-155.8129093097174
 21
-1628.009227740109
 31
0.0
  0
LINE
  5
CC
330
75
100
AcDbEntity
  8
0
 62
     0
100
AcDbLine
 10
-156.376091879886
 20
-1628.218856919684
 30
0.0
 11
-155.9302240725783
 21
-1627.772989112377
 31
0.0
  0
LINE
  5
CD
330
75
100
AcDbEntity
  8
0
 62
     0
100
AcDbLine
 10
-156.51448312204
 20
-1628.003694771245
 30
0.0
 11
-156.0475388354392
 21
-1627.536750484645
 31
0.0
  0
LINE
  5
CE
330
75
100
AcDbEntity
  8
0
 62
     0
100
AcDbLine
 10
-156.652874364194
 20
-1627.788532622806
 30
0.0
 11
-156.1648535983001
 21
-1627.300511856912
 31
0.0
  0
LINE
  5
CF
330
75
100
AcDbEntity
  8
0
 62
     0
100
AcDbLine
 10
-156.791265606348
 20
-1627.573370474367
 30
0.0
 11
-156.282168361161
 21
-1627.06427322918
 31
0.0
  0
LINE
  5
D0
330
75
100
AcDbEntity
  8
0
 62
     0
100
AcDbLine
 10
-156.929656848502
 20
-1627.358208325927
 30
0.0
 11
-156.3994831240219
 21
-1626.828034601447
 31
0.0
  0
LINE
  5
D1
330
75
100
AcDbEntity
  8
0
 62
     0
100
AcDbLine
 10
-157.068048090656
 20
-1627.143046177488
 30
0.0
 11
-156.5167978868828
 21
-1626.591795973715
 31
0.0
  0
LINE
  5
D2
330
75
100
AcDbEntity
  8
0
 62
     0
100
AcDbLine
 10
-157.20643933281
 20
-1626.927884029049
 30
0.0
 11
-156.6341126497438
 21
-1626.355557345983
 31
0.0
  0
LINE
  5
D3
330
75
100
AcDbEntity
  8
0
 62
     0
100
AcDbLine
 10
-157.3433060802951
 20
-1626.71119738594
 30
0.0
 11
-156.7485473653838
 21
-1626.116438671029
 31
0.0
  0
LINE
  5
D4
330
75
100
AcDbEntity
  8
0
 62
     0
100
AcDbLine
 10
-157.4351811273245
 20
-1626.449519042377
 30
0.0
 11
-156.850323320107
 21
-1625.864661235159
 31
0.0
  0
LINE
  5
D5
330
75
100
AcDbEntity
  8
0
 62
     0
100
AcDbLine
 10
-157.5270561743538
 20
-1626.187840698813
 30
0.0
 11
-156.9520992748302
 21
-1625.612883799289
 31
0.0
  0
LINE
  5
D6
330
75
100
AcDbEntity
  8
0
 62
     0
100
AcDbLine
 10
-142.5707169748475
 20
-1611.231501499306
 30
0.0
 11
-142.1637952755984
 21
-1610.824579800057
 31
0.0
  0
LINE
  5
D7
330
75
100
AcDbEntity
  8
0
 62
     0
100
AcDbLine
 10
-157.6189312213831
 20
-1625.926162355249
 30
0.0
 11
-157.0538752295535
 21
-1625.361106363419
 31
0.0
  0
LINE
  5
D8
330
75
100
AcDbEntity
  8
0
 62
     0
100
AcDbLine
 10
-143.1145415423524
 20
-1611.421772676218
 30
0.0
 11
-141.9631400579727
 21
-1610.270371191839
 31
0.0
  0
LINE
  5
D9
330
75
100
AcDbEntity
  8
0
 62
     0
100
AcDbLine
 10
-157.7108062684124
 20
-1625.664484011685
 30
0.0
 11
-157.1556511842767
 21
-1625.109328927549
 31
0.0
  0
LINE
  5
DA
330
75
100
AcDbEntity
  8
0
 62
     0
100
AcDbLine
 10
-143.6583661098574
 20
-1611.61204385313
 30
0.0
 11
-141.762484840347
 21
-1609.71616258362
 31
0.0
  0
LINE
  5
DB
330
75
100
AcDbEntity
  8
0
 62
     0
100
AcDbLine
 10
-157.8026813154418
 20
-1625.402805668121
 30
0.0
 11
-157.2574271389999
 21
-1624.857551491679
 31
0.0
  0
LINE
  5
DC
330
75
100
AcDbEntity
  8
0
 62
     0
100
AcDbLine
 10
-144.0510304768437
 20
-1611.651154829523
 30
0.0
 11
-141.5618296227213
 21
-1609.161953975401
 31
0.0
  0
LINE
  5
DD
330
75
100
AcDbEntity
  8
0
 62
     0
100
AcDbLine
 10
-157.8945563624711
 20
-1625.141127324557
 30
0.0
 11
-157.2835634117489
 21
-1624.530134373835
 31
0.0
  0
LINE
  5
DE
330
75
100
AcDbEntity
  8
0
 62
     0
100
AcDbLine
 10
-144.18650425436
 20
-1611.433075216446
 30
0.0
 11
-142.0354952974571
 21
-1609.282066259543
 31
0.0
  0
LINE
  5
DF
330
75
100
AcDbEntity
  8
0
 62
     0
100
AcDbLine
 10
-157.9864314095004
 20
-1624.879448980993
 30
0.0
 11
-157.2825961897235
 21
-1624.175613761216
 31
0.0
  0
LINE
  5
E0
330
75
100
AcDbEntity
  8
0
 62
     0
100
AcDbLine
 10
-144.3219780318763
 20
-1611.214995603369
 30
0.0
 11
-142.5241477881877
 21
-1609.41716535968
 31
0.0
  0
LINE
  5
E1
330
75
100
AcDbEntity
  8
0
 62
     0
100
AcDbLine
 10
-156.3786131468295
 20
-1623.271630718322
 30
0.0
 11
-156.2708787186514
 21
-1623.163896290144
 31
0.0
  0
LINE
  5
E2
330
75
100
AcDbEntity
  8
0
 62
     0
100
AcDbLine
 10
-158.0783064565297
 20
-1624.617770637429
 30
0.0
 11
-156.4537197945757
 21
-1622.993183975475
 31
0.0
  0
LINE
  5
E3
330
75
100
AcDbEntity
  8
0
 62
     0
100
AcDbLine
 10
-144.4574518093925
 20
-1610.996915990292
 30
0.0
 11
-143.0128002789183
 21
-1609.552264459817
 31
0.0
  0
LINE
  5
E4
330
75
100
AcDbEntity
  8
0
 62
     0
100
AcDbLine
 10
-158.170181503559
 20
-1624.356092293865
 30
0.0
 11
-156.6365608705
 21
-1622.822471660806
 31
0.0
  0
LINE
  5
E5
330
75
100
AcDbEntity
  8
0
 62
     0
100
AcDbLine
 10
-144.5929255869088
 20
-1610.778836377215
 30
0.0
 11
-143.5014527696489
 21
-1609.687363559955
 31
0.0
  0
LINE
  5
E6
330
75
100
AcDbEntity
  8
0
 62
     0
100
AcDbLine
 10
-157.6359043701804
 20
-1623.468261769893
 30
0.0
 11
-156.8194019464243
 21
-1622.651759346137
 31
0.0
  0
LINE
  5
E7
330
75
100
AcDbEntity
  8
0
 62
     0
100
AcDbLine
 10
-144.728399364425
 20
-1610.560756764138
 30
0.0
 11
-143.9901052603796
 21
-1609.822462660092
 31
0.0
  0
LINE
  5
E8
330
75
100
AcDbEntity
  8
0
 62
     0
100
AcDbLine
 10
-144.8638731419413
 20
-1610.342677151061
 30
0.0
 11
-144.4787577511102
 21
-1609.95756176023
 31
0.0
  0
LINE
  5
E9
330
75
100
AcDbEntity
  8
0
 62
     0
100
AcDbLine
 10
-144.9993469194575
 20
-1610.124597537984
 30
0.0
 11
-144.9674102418408
 21
-1610.092660860367
 31
0.0
  0
LINE
  5
EA
330
75
100
AcDbEntity
  8
0
 62
     0
100
AcDbLine
 10
-141.4486429733
 20
-1603.391913076487
 30
0.0
 11
-141.1508625823372
 21
-1603.094132685524
 31
0.0
  0
LINE
  5
EB
330
75
100
AcDbEntity
  8
0
 62
     0
100
AcDbLine
 10
-141.8434030340129
 20
-1603.433119746607
 30
0.0
 11
-141.0974031798505
 21
-1602.687119892444
 31
0.0
  0
LINE
  5
EC
330
75
100
AcDbEntity
  8
0
 62
     0
100
AcDbLine
 10
-142.2381630947258
 20
-1603.474326416726
 30
0.0
 11
-141.0439437773637
 21
-1602.280107099364
 31
0.0
  0
LINE
  5
ED
330
75
100
AcDbEntity
  8
0
 62
     0
100
AcDbLine
 10
-142.6052573231115
 20
-1603.487867254518
 30
0.0
 11
-140.990484374877
 21
-1601.873094306284
 31
0.0
  0
LINE
  5
EE
330
75
100
AcDbEntity
  8
0
 62
     0
100
AcDbLine
 10
-142.5618154116297
 20
-1603.090871952443
 30
0.0
 11
-140.9370249723902
 21
-1601.466081513204
 31
0.0
  0
LINE
  5
EF
330
75
100
AcDbEntity
  8
0
 62
     0
100
AcDbLine
 10
-142.518373500148
 20
-1602.693876650368
 30
0.0
 11
-140.8835655699035
 21
-1601.059068720124
 31
0.0
  0
LINE
  5
F0
330
75
100
AcDbEntity
  8
0
 62
     0
100
AcDbLine
 10
-142.4749315886662
 20
-1602.296881348293
 30
0.0
 11
-140.8301061674168
 21
-1600.652055927044
 31
0.0
  0
LINE
  5
F1
330
75
100
AcDbEntity
  8
0
 62
     0
100
AcDbLine
 10
-142.4314896771845
 20
-1601.899886046218
 30
0.0
 11
-140.7766467649301
 21
-1600.245043133964
 31
0.0
  0
LINE
  5
F2
330
75
100
AcDbEntity
  8
0
 62
     0
100
AcDbLine
 10
-142.3880477657028
 20
-1601.502890744143
 30
0.0
 11
-140.7231873624433
 21
-1599.838030340884
 31
0.0
  0
LINE
  5
F3
330
75
100
AcDbEntity
  8
0
 62
     0
100
AcDbLine
 10
-142.344605854221
 20
-1601.105895442068
 30
0.0
 11
-141.029291879189
 21
-1599.790581467036
 31
0.0
  0
LINE
  5
F4
330
75
100
AcDbEntity
  8
0
 62
     0
100
AcDbLine
 10
-142.3011639427393
 20
-1600.708900139993
 30
0.0
 11
-141.359189233551
 21
-1599.766925430805
 31
0.0
  0
LINE
  5
F5
330
75
100
AcDbEntity
  8
0
 62
     0
100
AcDbLine
 10
-142.2577220312575
 20
-1600.311904837918
 30
0.0
 11
-141.689086587913
 21
-1599.743269394573
 31
0.0
  0
LINE
  5
F6
330
75
100
AcDbEntity
  8
0
 62
     0
100
AcDbLine
 10
-142.2142801197758
 20
-1599.914909535843
 30
0.0
 11
-142.018983942275
 21
-1599.719613358342
 31
0.0
  0
LINE
  5
F7
330
75
100
AcDbEntity
  8
0
 62
     0
100
AcDbLine
 10
-116.3588504604099
 20
-1600.22243078038
 30
0.0
 11
-116.1668966007469
 21
-1600.030476920717
 31
0.0
  0
LINE
  5
F8
330
75
100
AcDbEntity
  8
0
 62
     0
100
AcDbLine
 10
-116.3661663942799
 20
-1600.583300104843
 30
0.0
 11
-115.399419930046
 21
-1599.616553640609
 31
0.0
  0
LINE
  5
F9
330
75
100
AcDbEntity
  8
0
 62
     0
100
AcDbLine
 10
-116.3734823281498
 20
-1600.944169429306
 30
0.0
 11
-114.6319432593452
 21
-1599.202630360502
 31
0.0
  0
LINE
  5
FA
330
75
100
AcDbEntity
  8
0
 62
     0
100
AcDbLine
 10
-116.3807982620197
 20
-1601.305038753769
 30
0.0
 11
-114.3624173321052
 21
-1599.286657823855
 31
0.0
  0
LINE
  5
FB
330
75
100
AcDbEntity
  8
0
 62
     0
100
AcDbLine
 10
-116.3881141958897
 20
-1601.665908078232
 30
0.0
 11
-114.1306117230565
 21
-1599.408405605399
 31
0.0
  0
LINE
  5
FC
330
75
100
AcDbEntity
  8
0
 62
     0
100
AcDbLine
 10
-116.3954301297596
 20
-1602.026777402696
 30
0.0
 11
-113.8988061140077
 21
-1599.530153386944
 31
0.0
  0
LINE
  5
FD
330
75
100
AcDbEntity
  8
0
 62
     0
100
AcDbLine
 10
-116.4027460636296
 20
-1602.387646727159
 30
0.0
 11
-113.667000504959
 21
-1599.651901168488
 31
0.0
  0
LINE
  5
FE
330
75
100
AcDbEntity
  8
0
 62
     0
100
AcDbLine
 10
-116.4100619974995
 20
-1602.748516051622
 30
0.0
 11
-113.4351948959102
 21
-1599.773648950033
 31
0.0
  0
LINE
  5
FF
330
75
100
AcDbEntity
  8
0
 62
     0
100
AcDbLine
 10
-116.2014875108194
 20
-1602.893494955535
 30
0.0
 11
-113.4899486509688
 21
-1600.181956095685
 31
0.0
  0
LINE
  5
100
330
75
100
AcDbEntity
  8
0
 62
     0
100
AcDbLine
 10
-115.2738618933075
 20
-1602.319422728617
 30
0.0
 11
-113.5763464060168
 21
-1600.621907241326
 31
0.0
  0
LINE
  5
101
330
75
100
AcDbEntity
  8
0
 62
     0
100
AcDbLine
 10
-114.3462362757955
 20
-1601.745350501698
 30
0.0
 11
-113.6627441610648
 21
-1601.061858386967
 31
0.0
  0
ENDBLK
  5
102
330
75
100
AcDbEntity
  8
0
100
AcDbBlockEnd
  0
BLOCK
  5
103
330
76
100
AcDbEntity
  8
0
100
AcDbBlockBegin
  2
*X3
 70
     1
 10
0.0
 20
0.0
 30
0.0
  3
*X3
  1

  0
LINE
  5
104
330
76
100
AcDbEntity
  8
0
 62
     0
100
AcDbLine
 10
-139.375
 20
-1596.25
 30
0.0
 11
-139.375
 21
-1596.25
 31
0.0
  0
LINE
  5
105
330
76
100
AcDbEntity
  8
0
 62
     0
100
AcDbLine
 10
-138.125
 20
-1596.25
 30
0.0
 11
-138.125
 21
-1596.25
 31
0.0
  0
LINE
  5
106
330
76
100
AcDbEntity
  8
0
 62
     0
100
AcDbLine
 10
-140.0
 20
-1595.0
 30
0.0
 11
-140.0
 21
-1595.0
 31
0.0
  0
LINE
  5
107
330
76
100
AcDbEntity
  8
0
 62
     0
100
AcDbLine
 10
-138.75
 20
-1595.0
 30
0.0
 11
-138.75
 21
-1595.0
 31
0.0
  0
LINE
  5
108
330
76
100
AcDbEntity
  8
0
 62
     0
100
AcDbLine
 10
-137.5
 20
-1595.0
 30
0.0
 11
-137.5
 21
-1595.0
 31
0.0
  0
LINE
  5
109
330
76
100
AcDbEntity
  8
0
 62
     0
100
AcDbLine
 10
-140.625
 20
-1593.75
 30
0.0
 11
-140.625
 21
-1593.75
 31
0.0
  0
LINE
  5
10A
330
76
100
AcDbEntity
  8
0
 62
     0
100
AcDbLine
 10
-139.375
 20
-1593.75
 30
0.0
 11
-139.375
 21
-1593.75
 31
0.0
  0
LINE
  5
10B
330
76
100
AcDbEntity
  8
0
 62
     0
100
AcDbLine
 10
-138.1249999999999
 20
-1593.75
 30
0.0
 11
-138.1249999999999
 21
-1593.75
 31
0.0
  0
LINE
  5
10C
330
76
100
AcDbEntity
  8
0
 62
     0
100
AcDbLine
 10
-136.8749999999999
 20
-1593.75
 30
0.0
 11
-136.8749999999999
 21
-1593.75
 31
0.0
  0
LINE
  5
10D
330
76
100
AcDbEntity
  8
0
 62
     0
100
AcDbLine
 10
-104.375
 20
-1591.25
 30
0.0
 11
-104.375
 21
-1591.25
 31
0.0
  0
LINE
  5
10E
330
76
100
AcDbEntity
  8
0
 62
     0
100
AcDbLine
 10
-106.25
 20
-1590.0
 30
0.0
 11
-106.25
 21
-1590.0
 31
0.0
  0
LINE
  5
10F
330
76
100
AcDbEntity
  8
0
 62
     0
100
AcDbLine
 10
-105.0
 20
-1590.0
 30
0.0
 11
-105.0
 21
-1590.0
 31
0.0
  0
LINE
  5
110
330
76
100
AcDbEntity
  8
0
 62
     0
100
AcDbLine
 10
-103.75
 20
-1590.0
 30
0.0
 11
-103.75
 21
-1590.0
 31
0.0
  0
LINE
  5
111
330
76
100
AcDbEntity
  8
0
 62
     0
100
AcDbLine
 10
-133.125
 20
-1588.75
 30
0.0
 11
-133.125
 21
-1588.75
 31
0.0
  0
LINE
  5
112
330
76
100
AcDbEntity
  8
0
 62
     0
100
AcDbLine
 10
-131.875
 20
-1588.75
 30
0.0
 11
-131.875
 21
-1588.75
 31
0.0
  0
LINE
  5
113
330
76
100
AcDbEntity
  8
0
 62
     0
100
AcDbLine
 10
-115.625
 20
-1588.75
 30
0.0
 11
-115.625
 21
-1588.75
 31
0.0
  0
LINE
  5
114
330
76
100
AcDbEntity
  8
0
 62
     0
100
AcDbLine
 10
-133.7499999999999
 20
-1587.5
 30
0.0
 11
-133.7499999999999
 21
-1587.5
 31
0.0
  0
LINE
  5
115
330
76
100
AcDbEntity
  8
0
 62
     0
100
AcDbLine
 10
-132.4999999999999
 20
-1587.5
 30
0.0
 11
-132.4999999999999
 21
-1587.5
 31
0.0
  0
LINE
  5
116
330
76
100
AcDbEntity
  8
0
 62
     0
100
AcDbLine
 10
-131.25
 20
-1587.5
 30
0.0
 11
-131.25
 21
-1587.5
 31
0.0
  0
LINE
  5
117
330
76
100
AcDbEntity
  8
0
 62
     0
100
AcDbLine
 10
-116.2499999999999
 20
-1587.5
 30
0.0
 11
-116.2499999999999
 21
-1587.5
 31
0.0
  0
LINE
  5
118
330
76
100
AcDbEntity
  8
0
 62
     0
100
AcDbLine
 10
-133.125
 20
-1586.25
 30
0.0
 11
-133.125
 21
-1586.25
 31
0.0
  0
LINE
  5
119
330
76
100
AcDbEntity
  8
0
 62
     0
100
AcDbLine
 10
-131.875
 20
-1586.25
 30
0.0
 11
-131.875
 21
-1586.25
 31
0.0
  0
LINE
  5
11A
330
76
100
AcDbEntity
  8
0
 62
     0
100
AcDbLine
 10
-130.625
 20
-1586.25
 30
0.0
 11
-130.625
 21
-1586.25
 31
0.0
  0
LINE
  5
11B
330
76
100
AcDbEntity
  8
0
 62
     0
100
AcDbLine
 10
-129.375
 20
-1586.25
 30
0.0
 11
-129.375
 21
-1586.25
 31
0.0
  0
LINE
  5
11C
330
76
100
AcDbEntity
  8
0
 62
     0
100
AcDbLine
 10
-118.1249999999999
 20
-1586.25
 30
0.0
 11
-118.1249999999999
 21
-1586.25
 31
0.0
  0
LINE
  5
11D
330
76
100
AcDbEntity
  8
0
 62
     0
100
AcDbLine
 10
-131.25
 20
-1585.0
 30
0.0
 11
-131.25
 21
-1585.0
 31
0.0
  0
LINE
  5
11E
330
76
100
AcDbEntity
  8
0
 62
     0
100
AcDbLine
 10
-130.0
 20
-1585.0
 30
0.0
 11
-130.0
 21
-1585.0
 31
0.0
  0
LINE
  5
11F
330
76
100
AcDbEntity
  8
0
 62
     0
100
AcDbLine
 10
-128.7499999999999
 20
-1585.0
 30
0.0
 11
-128.7499999999999
 21
-1585.0
 31
0.0
  0
LINE
  5
120
330
76
100
AcDbEntity
  8
0
 62
     0
100
AcDbLine
 10
-127.4999999999999
 20
-1585.0
 30
0.0
 11
-127.4999999999999
 21
-1585.0
 31
0.0
  0
LINE
  5
121
330
76
100
AcDbEntity
  8
0
 62
     0
100
AcDbLine
 10
-120.0
 20
-1585.0
 30
0.0
 11
-120.0
 21
-1585.0
 31
0.0
  0
LINE
  5
122
330
76
100
AcDbEntity
  8
0
 62
     0
100
AcDbLine
 10
-128.125
 20
-1583.75
 30
0.0
 11
-128.125
 21
-1583.75
 31
0.0
  0
LINE
  5
123
330
76
100
AcDbEntity
  8
0
 62
     0
100
AcDbLine
 10
-126.875
 20
-1583.75
 30
0.0
 11
-126.875
 21
-1583.75
 31
0.0
  0
LINE
  5
124
330
76
100
AcDbEntity
  8
0
 62
     0
100
AcDbLine
 10
-125.6249999999999
 20
-1583.75
 30
0.0
 11
-125.6249999999999
 21
-1583.75
 31
0.0
  0
LINE
  5
125
330
76
100
AcDbEntity
  8
0
 62
     0
100
AcDbLine
 10
-126.25
 20
-1582.5
 30
0.0
 11
-126.25
 21
-1582.5
 31
0.0
  0
LINE
  5
126
330
76
100
AcDbEntity
  8
0
 62
     0
100
AcDbLine
 10
-120.0
 20
-1582.5
 30
0.0
 11
-120.0
 21
-1582.5
 31
0.0
  0
LINE
  5
127
330
76
100
AcDbEntity
  8
0
 62
     0
100
AcDbLine
 10
-118.75
 20
-1582.5
 30
0.0
 11
-118.75
 21
-1582.5
 31
0.0
  0
LINE
  5
128
330
76
100
AcDbEntity
  8
0
 62
     0
100
AcDbLine
 10
-117.5
 20
-1582.5
 30
0.0
 11
-117.5
 21
-1582.5
 31
0.0
  0
LINE
  5
129
330
76
100
AcDbEntity
  8
0
 62
     0
100
AcDbLine
 10
-120.625
 20
-1581.25
 30
0.0
 11
-120.625
 21
-1581.25
 31
0.0
  0
LINE
  5
12A
330
76
100
AcDbEntity
  8
0
 62
     0
100
AcDbLine
 10
-125.0
 20
-1580.0
 30
0.0
 11
-125.0
 21
-1580.0
 31
0.0
  0
LINE
  5
12B
330
76
100
AcDbEntity
  8
0
 62
     0
100
AcDbLine
 10
-126.875
 20
-1578.75
 30
0.0
 11
-126.875
 21
-1578.75
 31
0.0
  0
LINE
  5
12C
330
76
100
AcDbEntity
  8
0
 62
     0
100
AcDbLine
 10
-125.625
 20
-1578.75
 30
0.0
 11
-125.625
 21
-1578.75
 31
0.0
  0
LINE
  5
12D
330
76
100
AcDbEntity
  8
0
 62
     0
100
AcDbLine
 10
-124.375
 20
-1578.75
 30
0.0
 11
-124.375
 21
-1578.75
 31
0.0
  0
LINE
  5
12E
330
76
100
AcDbEntity
  8
0
 62
     0
100
AcDbLine
 10
-130.0
 20
-1577.5
 30
0.0
 11
-130.0
 21
-1577.5
 31
0.0
  0
LINE
  5
12F
330
76
100
AcDbEntity
  8
0
 62
     0
100
AcDbLine
 10
-128.75
 20
-1577.5
 30
0.0
 11
-128.75
 21
-1577.5
 31
0.0
  0
LINE
  5
130
330
76
100
AcDbEntity
  8
0
 62
     0
100
AcDbLine
 10
-127.5
 20
-1577.5
 30
0.0
 11
-127.5
 21
-1577.5
 31
0.0
  0
LINE
  5
131
330
76
100
AcDbEntity
  8
0
 62
     0
100
AcDbLine
 10
-126.25
 20
-1577.5
 30
0.0
 11
-126.25
 21
-1577.5
 31
0.0
  0
LINE
  5
132
330
76
100
AcDbEntity
  8
0
 62
     0
100
AcDbLine
 10
-125.0
 20
-1577.5
 30
0.0
 11
-125.0
 21
-1577.5
 31
0.0
  0
LINE
  5
133
330
76
100
AcDbEntity
  8
0
 62
     0
100
AcDbLine
 10
-133.125
 20
-1576.25
 30
0.0
 11
-133.125
 21
-1576.25
 31
0.0
  0
LINE
  5
134
330
76
100
AcDbEntity
  8
0
 62
     0
100
AcDbLine
 10
-131.875
 20
-1576.25
 30
0.0
 11
-131.875
 21
-1576.25
 31
0.0
  0
LINE
  5
135
330
76
100
AcDbEntity
  8
0
 62
     0
100
AcDbLine
 10
-130.625
 20
-1576.25
 30
0.0
 11
-130.625
 21
-1576.25
 31
0.0
  0
LINE
  5
136
330
76
100
AcDbEntity
  8
0
 62
     0
100
AcDbLine
 10
-129.375
 20
-1576.25
 30
0.0
 11
-129.375
 21
-1576.25
 31
0.0
  0
LINE
  5
137
330
76
100
AcDbEntity
  8
0
 62
     0
100
AcDbLine
 10
-128.125
 20
-1576.25
 30
0.0
 11
-128.125
 21
-1576.25
 31
0.0
  0
LINE
  5
138
330
76
100
AcDbEntity
  8
0
 62
     0
100
AcDbLine
 10
-126.875
 20
-1576.25
 30
0.0
 11
-126.875
 21
-1576.25
 31
0.0
  0
LINE
  5
139
330
76
100
AcDbEntity
  8
0
 62
     0
100
AcDbLine
 10
-125.625
 20
-1576.25
 30
0.0
 11
-125.625
 21
-1576.25
 31
0.0
  0
LINE
  5
13A
330
76
100
AcDbEntity
  8
0
 62
     0
100
AcDbLine
 10
-124.375
 20
-1576.25
 30
0.0
 11
-124.375
 21
-1576.25
 31
0.0
  0
LINE
  5
13B
330
76
100
AcDbEntity
  8
0
 62
     0
100
AcDbLine
 10
-135.0
 20
-1575.0
 30
0.0
 11
-135.0
 21
-1575.0
 31
0.0
  0
LINE
  5
13C
330
76
100
AcDbEntity
  8
0
 62
     0
100
AcDbLine
 10
-133.75
 20
-1575.0
 30
0.0
 11
-133.75
 21
-1575.0
 31
0.0
  0
LINE
  5
13D
330
76
100
AcDbEntity
  8
0
 62
     0
100
AcDbLine
 10
-132.5
 20
-1575.0
 30
0.0
 11
-132.5
 21
-1575.0
 31
0.0
  0
LINE
  5
13E
330
76
100
AcDbEntity
  8
0
 62
     0
100
AcDbLine
 10
-131.25
 20
-1575.0
 30
0.0
 11
-131.25
 21
-1575.0
 31
0.0
  0
LINE
  5
13F
330
76
100
AcDbEntity
  8
0
 62
     0
100
AcDbLine
 10
-130.0
 20
-1575.0
 30
0.0
 11
-130.0
 21
-1575.0
 31
0.0
  0
LINE
  5
140
330
76
100
AcDbEntity
  8
0
 62
     0
100
AcDbLine
 10
-128.75
 20
-1575.0
 30
0.0
 11
-128.75
 21
-1575.0
 31
0.0
  0
LINE
  5
141
330
76
100
AcDbEntity
  8
0
 62
     0
100
AcDbLine
 10
-127.5
 20
-1575.0
 30
0.0
 11
-127.5
 21
-1575.0
 31
0.0
  0
LINE
  5
142
330
76
100
AcDbEntity
  8
0
 62
     0
100
AcDbLine
 10
-126.25
 20
-1575.0
 30
0.0
 11
-126.25
 21
-1575.0
 31
0.0
  0
LINE
  5
143
330
76
100
AcDbEntity
  8
0
 62
     0
100
AcDbLine
 10
-125.0
 20
-1575.0
 30
0.0
 11
-125.0
 21
-1575.0
 31
0.0
  0
LINE
  5
144
330
76
100
AcDbEntity
  8
0
 62
     0
100
AcDbLine
 10
-135.625
 20
-1573.75
 30
0.0
 11
-135.625
 21
-1573.75
 31
0.0
  0
LINE
  5
145
330
76
100
AcDbEntity
  8
0
 62
     0
100
AcDbLine
 10
-134.375
 20
-1573.75
 30
0.0
 11
-134.375
 21
-1573.75
 31
0.0
  0
LINE
  5
146
330
76
100
AcDbEntity
  8
0
 62
     0
100
AcDbLine
 10
-133.125
 20
-1573.75
 30
0.0
 11
-133.125
 21
-1573.75
 31
0.0
  0
LINE
  5
147
330
76
100
AcDbEntity
  8
0
 62
     0
100
AcDbLine
 10
-131.875
 20
-1573.75
 30
0.0
 11
-131.875
 21
-1573.75
 31
0.0
  0
LINE
  5
148
330
76
100
AcDbEntity
  8
0
 62
     0
100
AcDbLine
 10
-130.625
 20
-1573.75
 30
0.0
 11
-130.625
 21
-1573.75
 31
0.0
  0
LINE
  5
149
330
76
100
AcDbEntity
  8
0
 62
     0
100
AcDbLine
 10
-129.375
 20
-1573.75
 30
0.0
 11
-129.375
 21
-1573.75
 31
0.0
  0
LINE
  5
14A
330
76
100
AcDbEntity
  8
0
 62
     0
100
AcDbLine
 10
-128.125
 20
-1573.75
 30
0.0
 11
-128.125
 21
-1573.75
 31
0.0
  0
LINE
  5
14B
330
76
100
AcDbEntity
  8
0
 62
     0
100
AcDbLine
 10
-126.875
 20
-1573.75
 30
0.0
 11
-126.875
 21
-1573.75
 31
0.0
  0
LINE
  5
14C
330
76
100
AcDbEntity
  8
0
 62
     0
100
AcDbLine
 10
-125.625
 20
-1573.75
 30
0.0
 11
-125.625
 21
-1573.75
 31
0.0
  0
LINE
  5
14D
330
76
100
AcDbEntity
  8
0
 62
     0
100
AcDbLine
 10
-135.0
 20
-1572.5
 30
0.0
 11
-135.0
 21
-1572.5
 31
0.0
  0
LINE
  5
14E
330
76
100
AcDbEntity
  8
0
 62
     0
100
AcDbLine
 10
-133.75
 20
-1572.5
 30
0.0
 11
-133.75
 21
-1572.5
 31
0.0
  0
LINE
  5
14F
330
76
100
AcDbEntity
  8
0
 62
     0
100
AcDbLine
 10
-132.5
 20
-1572.5
 30
0.0
 11
-132.5
 21
-1572.5
 31
0.0
  0
LINE
  5
150
330
76
100
AcDbEntity
  8
0
 62
     0
100
AcDbLine
 10
-131.25
 20
-1572.5
 30
0.0
 11
-131.25
 21
-1572.5
 31
0.0
  0
LINE
  5
151
330
76
100
AcDbEntity
  8
0
 62
     0
100
AcDbLine
 10
-130.0
 20
-1572.5
 30
0.0
 11
-130.0
 21
-1572.5
 31
0.0
  0
LINE
  5
152
330
76
100
AcDbEntity
  8
0
 62
     0
100
AcDbLine
 10
-128.75
 20
-1572.5
 30
0.0
 11
-128.75
 21
-1572.5
 31
0.0
  0
LINE
  5
153
330
76
100
AcDbEntity
  8
0
 62
     0
100
AcDbLine
 10
-127.5
 20
-1572.5
 30
0.0
 11
-127.5
 21
-1572.5
 31
0.0
  0
LINE
  5
154
330
76
100
AcDbEntity
  8
0
 62
     0
100
AcDbLine
 10
-133.125
 20
-1571.25
 30
0.0
 11
-133.125
 21
-1571.25
 31
0.0
  0
LINE
  5
155
330
76
100
AcDbEntity
  8
0
 62
     0
100
AcDbLine
 10
-131.875
 20
-1571.25
 30
0.0
 11
-131.875
 21
-1571.25
 31
0.0
  0
LINE
  5
156
330
76
100
AcDbEntity
  8
0
 62
     0
100
AcDbLine
 10
-130.625
 20
-1571.25
 30
0.0
 11
-130.625
 21
-1571.25
 31
0.0
  0
LINE
  5
157
330
76
100
AcDbEntity
  8
0
 62
     0
100
AcDbLine
 10
-53.75000000000003
 20
-1620.0
 30
0.0
 11
-53.75000000000003
 21
-1620.0
 31
0.0
  0
LINE
  5
158
330
76
100
AcDbEntity
  8
0
 62
     0
100
AcDbLine
 10
-55.625
 20
-1621.25
 30
0.0
 11
-55.625
 21
-1621.25
 31
0.0
  0
LINE
  5
159
330
76
100
AcDbEntity
  8
0
 62
     0
100
AcDbLine
 10
-54.375
 20
-1621.25
 30
0.0
 11
-54.375
 21
-1621.25
 31
0.0
  0
LINE
  5
15A
330
76
100
AcDbEntity
  8
0
 62
     0
100
AcDbLine
 10
-53.125
 20
-1621.25
 30
0.0
 11
-53.125
 21
-1621.25
 31
0.0
  0
LINE
  5
15B
330
76
100
AcDbEntity
  8
0
 62
     0
100
AcDbLine
 10
-56.25
 20
-1622.5
 30
0.0
 11
-56.25
 21
-1622.5
 31
0.0
  0
LINE
  5
15C
330
76
100
AcDbEntity
  8
0
 62
     0
100
AcDbLine
 10
-55.0
 20
-1622.5
 30
0.0
 11
-55.0
 21
-1622.5
 31
0.0
  0
LINE
  5
15D
330
76
100
AcDbEntity
  8
0
 62
     0
100
AcDbLine
 10
-53.75
 20
-1622.5
 30
0.0
 11
-53.75
 21
-1622.5
 31
0.0
  0
LINE
  5
15E
330
76
100
AcDbEntity
  8
0
 62
     0
100
AcDbLine
 10
-56.87500000000003
 20
-1623.75
 30
0.0
 11
-56.87500000000003
 21
-1623.75
 31
0.0
  0
LINE
  5
15F
330
76
100
AcDbEntity
  8
0
 62
     0
100
AcDbLine
 10
-55.62500000000003
 20
-1623.75
 30
0.0
 11
-55.62500000000003
 21
-1623.75
 31
0.0
  0
LINE
  5
160
330
76
100
AcDbEntity
  8
0
 62
     0
100
AcDbLine
 10
-54.37500000000003
 20
-1623.75
 30
0.0
 11
-54.37500000000003
 21
-1623.75
 31
0.0
  0
LINE
  5
161
330
76
100
AcDbEntity
  8
0
 62
     0
100
AcDbLine
 10
-57.49999999999998
 20
-1625.0
 30
0.0
 11
-57.49999999999998
 21
-1625.0
 31
0.0
  0
LINE
  5
162
330
76
100
AcDbEntity
  8
0
 62
     0
100
AcDbLine
 10
-56.24999999999998
 20
-1625.0
 30
0.0
 11
-56.24999999999998
 21
-1625.0
 31
0.0
  0
LINE
  5
163
330
76
100
AcDbEntity
  8
0
 62
     0
100
AcDbLine
 10
-54.99999999999998
 20
-1625.0
 30
0.0
 11
-54.99999999999998
 21
-1625.0
 31
0.0
  0
LINE
  5
164
330
76
100
AcDbEntity
  8
0
 62
     0
100
AcDbLine
 10
-58.12499999999996
 20
-1626.25
 30
0.0
 11
-58.12499999999996
 21
-1626.25
 31
0.0
  0
LINE
  5
165
330
76
100
AcDbEntity
  8
0
 62
     0
100
AcDbLine
 10
-56.87499999999996
 20
-1626.25
 30
0.0
 11
-56.87499999999996
 21
-1626.25
 31
0.0
  0
LINE
  5
166
330
76
100
AcDbEntity
  8
0
 62
     0
100
AcDbLine
 10
-55.62499999999996
 20
-1626.25
 30
0.0
 11
-55.62499999999996
 21
-1626.25
 31
0.0
  0
LINE
  5
167
330
76
100
AcDbEntity
  8
0
 62
     0
100
AcDbLine
 10
-58.75000000000005
 20
-1627.5
 30
0.0
 11
-58.75000000000005
 21
-1627.5
 31
0.0
  0
LINE
  5
168
330
76
100
AcDbEntity
  8
0
 62
     0
100
AcDbLine
 10
-57.50000000000005
 20
-1627.5
 30
0.0
 11
-57.50000000000005
 21
-1627.5
 31
0.0
  0
LINE
  5
169
330
76
100
AcDbEntity
  8
0
 62
     0
100
AcDbLine
 10
-56.25000000000005
 20
-1627.5
 30
0.0
 11
-56.25000000000005
 21
-1627.5
 31
0.0
  0
LINE
  5
16A
330
76
100
AcDbEntity
  8
0
 62
     0
100
AcDbLine
 10
-56.87499999999996
 20
-1628.75
 30
0.0
 11
-56.87499999999996
 21
-1628.75
 31
0.0
  0
LINE
  5
16B
330
76
100
AcDbEntity
  8
0
 62
     0
100
AcDbLine
 10
-55.62499999999996
 20
-1628.75
 30
0.0
 11
-55.62499999999996
 21
-1628.75
 31
0.0
  0
LINE
  5
16C
330
76
100
AcDbEntity
  8
0
 62
     0
100
AcDbLine
 10
-56.24999999999999
 20
-1630.0
 30
0.0
 11
-56.24999999999999
 21
-1630.0
 31
0.0
  0
ENDBLK
  5
16D
330
76
100
AcDbEntity
  8
0
100
AcDbBlockEnd
  0
ENDSEC
  0
SECTION
  2
ENTITIES
  0
LWPOLYLINE
  5
16E
330
6F
100
AcDbEntity
  8
GRABUNGSGRENZE
100
AcDbPolyline
 90
       27
 70
   128
 43
0.0
 10
-0.752486120652005
 20
-17.32316765486245
 10
-0.5593943217039889
 20
-17.05924674105447
 10
-0.477980396269087
 20
-16.9853625888009
 10
-0.3987359840751937
 20
-16.77645698443731
 10
-0.2452196787542789
 20
-16.50684474954456
 10
-0.2618671270477733
 20
-16.46923861886541
 10
-0.2465000609508443
 20
-16.41801524770053
 10
-0.2205071880886211
 20
-16.37900271904093
 10
-0.1666379363239232
 20
-16.35478598277776
 10
-0.1441953077831339
 20
-16.31474861376801
 10
-0.1643625350437197
 20
-16.26495102762724
 10
-0.1394332766189926
 20
-16.24370079888549
 10
-0.0712037968526777
 20
-16.16521248139482
 10
0.0239256890751424
 20
-16.08730513112651
 10
0.156992270213386
 20
-15.87144028658109
 10
0.2173124480447475
 20
-15.71527108010301
 10
0.3201192354712803
 20
-15.61403612461596
 10
0.0997360825964625
 20
-15.46268443746855
 10
-0.0213676298509123
 20
-15.38672503422784
 10
-0.9092985454411643
 20
-14.89398296611512
 10
-1.039728939501424
 20
-15.07381702219953
 10
-1.20829999273067
 20
-15.46622186444218
 10
-1.28467557332251
 20
-15.55382434676633
 10
-1.361539340284835
 20
-15.63431941650345
 10
-1.558877288249832
 20
-15.96624408949785
 10
-1.684853074267044
 20
-16.18771162864267
 10
-1.755844756895214
 20
-16.34841991528265
  0
LWPOLYLINE
  5
18B
330
6F
100
AcDbEntity
  8
GRABUNGSGRENZE
100
AcDbPolyline
 90
        6
 70
   128
 43
0.0
 10
-1.28467557332251
 20
-15.55382434676633
 10
-0.7434983580550822
 20
-15.88928660775631
 10
-0.7390908328323813
 20
-15.94817758689806
 10
-0.8735236530748828
 20
-16.1066824812772
 10
-1.091024673933965
 20
-16.38728684788835
 10
-1.262838548363551
 20
-16.66598555183792
  0
LWPOLYLINE
  5
193
330
6F
100
AcDbEntity
  8
GRABUNGSGRENZE
100
AcDbPolyline
 90
        4
 70
   128
 43
0.0
 10
-0.591945779913602
 20
-15.96735939198367
 10
-0.5521944181046145
 20
-15.90858888947045
 10
-0.3367215654123238
 20
-15.81324466466023
 10
-0.0213676298509123
 20
-15.38672503422784
  0
LWPOLYLINE
  5
199
330
6F
100
AcDbEntity
  8
GRABUNGSGRENZE
100
AcDbPolyline
 90
        3
 70
   128
 43
0.0
 10
0.0997360825964625
 20
-15.46268443746855
 10
-0.2677185361625968
 20
-16.00935771859519
 10
-0.261843682250774
 20
-16.08855578866973
  0
LWPOLYLINE
  5
19E
330
6F
100
AcDbEntity
  8
STEINE
100
AcDbPolyline
 90
        7
 70
     0
 43
0.0
 10
-1.043675394451269
 20
-17.26450941685794
 10
-1.034447676933409
 20
-17.23103449772256
 10
-1.009027462560529
 20
-17.21587653473953
 10
-0.9598177675862757
 20
-17.22514718071124
 10
-0.920783082305342
 20
-17.24301887894694
 10
-0.90814221456059
 20
-17.26081856816329
 10
-0.9234815848808441
 20
-17.30189047104502
  0
LWPOLYLINE
  5
1A7
330
6F
100
AcDbEntity
  8
STEINE
100
AcDbPolyline
 90
        7
 70
     0
 43
0.0
 10
-0.8747296109227319
 20
-17.29288708931823
 10
-0.8898778803839283
 20
-17.26391386104625
 10
-0.8644161223460361
 20
-17.2335286956385
 10
-0.8151219552529232
 20
-17.21183736334661
 10
-0.7806180414008941
 20
-17.21599211630056
 10
-0.7802364837706083
 20
-17.26218268177771
 10
-0.813867884044199
 20
-17.31031076005963
  0
LWPOLYLINE
  5
1B0
330
6F
100
AcDbEntity
  8
STEINE
100
AcDbPolyline
 90
       14
 70
     0
 43
0.0
 10
-0.6974618583867834
 20
-17.24768877334705
 10
-0.7207714613506759
 20
-17.2334130174643
 10
-0.7222415596174652
 20
-17.21412107335982
 10
-0.7591337833462358
 20
-17.1551414677327
 10
-0.7768836201645712
 20
-17.14950969256779
 10
-0.7920249656815988
 20
-17.11799859722502
 10
-0.8273944691678972
 20
-17.0590231459644
 10
-0.7963715601956145
 20
-17.03677438786034
 10
-0.7461370248712094
 20
-17.04249478951062
 10
-0.6837221123958618
 20
-17.04875599950705
 10
-0.6395396839539995
 20
-17.04024772809492
 10
-0.6167058042610881
 20
-17.04284791066322
 10
-0.5755425053163287
 20
-17.02468743564909
 10
-0.5247810095340936
 20
-17.02330319428999
  0
LWPOLYLINE
  5
1C0
330
6F
100
AcDbEntity
  8
STEINE
100
AcDbPolyline
 90
        3
 70
     0
 43
0.0
 10
-0.6167058042610881
 20
-17.04284791066322
 10
-0.5913936034172412
 20
-17.06728067398446
 10
-0.5736271491329008
 20
-17.06682156817949
  0
LWPOLYLINE
  5
1C5
330
6F
100
AcDbEntity
  8
STEINE
100
AcDbPolyline
 90
       14
 70
     0
 43
0.0
 10
-0.7661796211367574
 20
-16.94701559609569
 10
-0.8006959980882902
 20
-16.94742900386915
 10
-0.8296207587510895
 20
-16.94481220383484
 10
-0.8554682287857689
 20
-16.93052952400791
 10
-0.8630984474641341
 20
-16.93659963314529
 10
-0.8789246193660391
 20
-16.97005655002583
 10
-0.9028041112416078
 20
-16.97862021299132
 10
-0.9150011058585551
 20
-16.98417028561504
 10
-0.9267209924156876
 20
-17.00088835813905
 10
-0.9350000329692528
 20
-17.05872957073165
 10
-0.9183553542534259
 20
-17.09735084823912
 10
-0.8894776764109739
 20
-17.11722514435478
 10
-0.8387729569709227
 20
-17.13665141297613
 10
-0.7920249656815988
 20
-17.11799859722502
  0
LWPOLYLINE
  5
1D5
330
6F
100
AcDbEntity
  8
STEINE
100
AcDbPolyline
 90
       22
 70
     0
 43
0.0
 10
-0.7661796211367574
 20
-16.94701559609569
 10
-0.7541986535778755
 20
-17.02064697608051
 10
-0.7166825341729125
 20
-17.03699179970724
 10
-0.6837221123958618
 20
-17.04875599950705
 10
-0.6668600218331357
 20
-17.00768825099182
 10
-0.6414550401374274
 20
-16.99811359556452
 10
-0.6312038670582507
 20
-16.96159600552187
 10
-0.6184882207164759
 20
-16.95198673037372
 10
-0.6159018860365079
 20
-16.93422858482238
 10
-0.6244517011136587
 20
-16.90527335880524
 10
-0.6218044357250056
 20
-16.86518198303098
 10
-0.6181987998502217
 20
-16.84590388681484
 10
-0.628801065205342
 20
-16.82506429626888
 10
-0.6704165460109087
 20
-16.82292044992788
 10
-0.695283488938117
 20
-16.82132987503256
 10
-0.7114842945261393
 20
-16.80605835936515
 10
-0.736355391819849
 20
-16.8059905047123
 10
-0.7429399983155567
 20
-16.80089676831589
 10
-0.762779674710373
 20
-16.81708511080441
 10
-0.7724429566230349
 20
-16.82416482761477
 10
-0.7614646727929637
 20
-16.89322527729451
 10
-0.7661796211367574
 20
-16.94701559609569
  0
LWPOLYLINE
  5
1ED
330
6F
100
AcDbEntity
  8
STEINE
100
AcDbPolyline
 90
        4
 70
     0
 43
0.0
 10
-0.7661796211367574
 20
-16.94701559609569
 10
-0.8238491199139687
 20
-16.87579745218661
 10
-0.7886742275653998
 20
-16.82005992705883
 10
-0.7724429566230349
 20
-16.82416482761477
  0
LWPOLYLINE
  5
1F3
330
6F
100
AcDbEntity
  8
STEINE
100
AcDbPolyline
 90
        8
 70
     0
 43
0.0
 10
-0.5755425053163287
 20
-17.02468743564909
 10
-0.5550830876118212
 20
-16.96738703140266
 10
-0.5473130052612471
 20
-16.91005200743539
 10
-0.5131615684739952
 20
-16.85735715321489
 10
-0.486698511496126
 20
-16.83205049152638
 10
-0.4790225947862471
 20
-16.8092304597218
 10
-0.4292125455459741
 20
-16.7844950717338
 10
-0.4053718277577504
 20
-16.79014346436472
  0
LWPOLYLINE
  5
1FD
330
6F
100
AcDbEntity
  8
STEINE
100
AcDbPolyline
 90
        8
 70
     0
 43
0.0
 10
-0.486698511496126
 20
-16.83205049152638
 10
-0.4799380368185317
 20
-16.7726824043248
 10
-0.5006682290466248
 20
-16.7431863699615
 10
-0.5574389032575567
 20
-16.7146071624193
 10
-0.5834885524619637
 20
-16.77443020105935
 10
-0.6004309607770474
 20
-16.8449372075957
 10
-0.6045995616193388
 20
-16.88451685558931
 10
-0.5473130052612471
 20
-16.91005200743539
  0
LWPOLYLINE
  5
207
330
6F
100
AcDbEntity
  8
STEINE
100
AcDbPolyline
 90
        2
 70
     0
 43
0.0
 10
-0.5473130052612471
 20
-16.91005200743539
 10
-0.6159018860365079
 20
-16.93422858482238
  0
LWPOLYLINE
  5
20B
330
6F
100
AcDbEntity
  8
STEINE
100
AcDbPolyline
 90
        3
 70
     0
 43
0.0
 10
-0.5550830876118212
 20
-16.96738703140266
 10
-0.6185394579033247
 20
-16.97076694669754
 10
-0.6184882207164759
 20
-16.95198673037372
  0
LWPOLYLINE
  5
210
330
6F
100
AcDbEntity
  8
STEINE
100
AcDbPolyline
 90
       13
 70
     0
 43
0.0
 10
-0.3966752250642218
 20
-16.76529590848118
 10
-0.4510008130562283
 20
-16.7707310436317
 10
-0.4712303558143331
 20
-16.74377426112801
 10
-0.4792019732468052
 20
-16.68893417577768
 10
-0.5141276036052989
 20
-16.65330848635713
 10
-0.4881236524324058
 20
-16.61023537038428
 10
-0.4762943675574068
 20
-16.55341899814184
 10
-0.4579621787278912
 20
-16.53164319373109
 10
-0.3879239715183473
 20
-16.53437216166093
 10
-0.3296098052324372
 20
-16.55534192235726
 10
-0.2955857690178905
 20
-16.54934382223924
 10
-0.2788386159283658
 20
-16.55040466709906
 10
-0.2773560545620727
 20
-16.56512845047613
  0
LWPOLYLINE
  5
21F
330
6F
100
AcDbEntity
  8
STEINE
100
AcDbPolyline
 90
        2
 70
     0
 43
0.0
 10
-0.5834885524619637
 20
-16.77443020105935
 10
-0.6768280539023976
 20
-16.7543800367618
  0
LWPOLYLINE
  5
223
330
6F
100
AcDbEntity
  8
STEINE
100
AcDbPolyline
 90
       10
 70
     0
 43
0.0
 10
-0.7114842945261393
 20
-16.80605835936515
 10
-0.6768280539023976
 20
-16.7543800367618
 10
-0.7077138687801387
 20
-16.72637902686429
 10
-0.7269947345739489
 20
-16.72378853781782
 10
-0.7350715959577862
 20
-16.70752403194344
 10
-0.76657022820105
 20
-16.71809721673306
 10
-0.7692008761236981
 20
-16.75209771153743
 10
-0.7834613993292848
 20
-16.76982400694559
 10
-0.7683325169117611
 20
-16.80590326301578
 10
-0.762779674710373
 20
-16.81708511080441
  0
LWPOLYLINE
  5
22F
330
6F
100
AcDbEntity
  8
STEINE
100
AcDbPolyline
 90
       12
 70
     0
 43
0.0
 10
-0.8916493151418205
 20
-16.7969380112885
 10
-0.9006956253224586
 20
-16.76392081316927
 10
-0.8761160743848412
 20
-16.68480583042474
 10
-0.8394253857379688
 20
-16.63161032673425
 10
-0.8211388949399671
 20
-16.62658444499069
 10
-0.7837557152630445
 20
-16.69165631637653
 10
-0.7741699815250725
 20
-16.71300071075898
 10
-0.7935810174692552
 20
-16.7581221226433
 10
-0.8179902393803214
 20
-16.77480557544647
 10
-0.8590995315605645
 20
-16.77317068730846
 10
-0.8779032892945599
 20
-16.78174819816229
 10
-0.8916493151418205
 20
-16.7969380112885
  0
LWPOLYLINE
  5
23D
330
6F
100
AcDbEntity
  8
STEINE
100
AcDbPolyline
 90
       13
 70
     0
 43
0.0
 10
-0.8095055093783567
 20
-16.82761675192901
 10
-0.8307640468531136
 20
-16.80573293398922
 10
-0.9171055340243775
 20
-16.82529288303962
 10
-0.970876465781879
 20
-16.81347190689763
 10
-1.022773585020965
 20
-16.85901226571074
 10
-1.048211801648683
 20
-16.88076868307782
 10
-1.040184792662861
 20
-16.91530583186186
 10
-0.9960992994393617
 20
-16.94232769944073
 10
-0.9657293667087802
 20
-16.97337276503436
 10
-0.9286931249412996
 20
-16.97956473558911
 10
-0.9028041112416078
 20
-16.97862021299132
 10
-0.8309122192583251
 20
-16.86004328930406
 10
-0.8095055093783567
 20
-16.82761675192901
  0
LWPOLYLINE
  5
24C
330
6F
100
AcDbEntity
  8
STEINE
100
AcDbPolyline
 90
        8
 70
     0
 43
0.0
 10
-1.009027462560529
 20
-17.21587653473953
 10
-1.034345202559711
 20
-17.19347406507492
 10
-0.9645500740970788
 20
-17.09925512611188
 10
-0.9199057702725729
 20
-17.10749816215576
 10
-0.9017203690594351
 20
-17.13952513964569
 10
-0.8637437590606625
 20
-17.17312884414261
 10
-0.8709107175675503
 20
-17.19544268732186
 10
-0.920783082305342
 20
-17.24301887894694
  0
LWPOLYLINE
  5
256
330
6F
100
AcDbEntity
  8
STEINE
100
AcDbPolyline
 90
        8
 70
     0
 43
0.0
 10
-1.144580029494882
 20
-17.22667341123238
 10
-1.118749176926207
 20
-17.2470469720292
 10
-1.066849288109454
 20
-17.20049146638776
 10
-1.011318837218908
 20
-17.12552154307536
 10
-0.9634587638829076
 20
-17.07134135791089
 10
-0.9466396017740278
 20
-17.04600838523454
 10
-0.9470225441931475
 20
-17.00032539317154
 10
-0.9657293667087802
 20
-16.97337276503436
  0
LWPOLYLINE
  5
260
330
6F
100
AcDbEntity
  8
STEINE
100
AcDbPolyline
 90
        5
 70
     0
 43
0.0
 10
-1.040184792662861
 20
-16.91530583186186
 10
-1.080782357062445
 20
-16.91214960827022
 10
-1.102067205525044
 20
-16.89990968519942
 10
-1.124902470006789
 20
-16.89781707604527
 10
-1.137633349025735
 20
-16.91300965874915
  0
LWPOLYLINE
  5
267
330
6F
100
AcDbEntity
  8
STEINE
100
AcDbPolyline
 90
        4
 70
     0
 43
0.0
 10
-1.124902470006789
 20
-16.89781707604527
 10
-1.121757324725814
 20
-16.86128009895895
 10
-1.141083888551138
 20
-16.87543953257967
 10
-1.157903050660018
 20
-16.90077250525603
  0
LWPOLYLINE
  5
26D
330
6F
100
AcDbEntity
  8
STEINE
100
AcDbPolyline
 90
       11
 70
     0
 43
0.0
 10
-1.102067205525044
 20
-16.89990968519942
 10
-1.0572982707055
 20
-16.86247111396915
 10
-1.019632594106492
 20
-16.82399800886689
 10
-1.020611736425129
 20
-16.81079833052113
 10
-1.034787787511857
 20
-16.79756264766569
 10
-1.083994712908444
 20
-16.78727685486568
 10
-1.101221743635451
 20
-16.77606315693386
 10
-1.137825190585797
 20
-16.79728153553244
 10
-1.149067969083114
 20
-16.82516760795676
 10
-1.133370582542748
 20
-16.83891501859285
 10
-1.121757324725814
 20
-16.86128009895895
  0
LWPOLYLINE
  5
27A
330
6F
100
AcDbEntity
  8
STEINE
100
AcDbPolyline
 90
        9
 70
     0
 43
0.0
 10
-1.034787787511857
 20
-16.79756264766569
 10
-1.025605768025511
 20
-16.78083765119751
 10
-1.082333513782596
 20
-16.73652366781644
 10
-1.118759707762222
 20
-16.69277264940288
 10
-1.176990786718107
 20
-16.6413484838571
 10
-1.216069785241721
 20
-16.63971913487444
 10
-1.255222177573523
 20
-16.6649911768421
 10
-1.267589501217022
 20
-16.73297277940718
 10
-1.266102785484228
 20
-16.74617384254177
  0
LWPOLYLINE
  5
285
330
6F
100
AcDbEntity
  8
STEINE
100
AcDbPolyline
 90
       13
 70
     0
 43
0.0
 10
-0.9220414044937419
 20
-16.77401412032139
 10
-0.9138011380275218
 20
-16.7303849633252
 10
-0.8979638878149467
 20
-16.6928674591314
 10
-0.9739780385211773
 20
-16.6479932803605
 10
-1.033828772937896
 20
-16.63209509943924
 10
-1.097253293086223
 20
-16.6238008262085
 10
-1.161260165245731
 20
-16.64291413255343
 10
-1.110065874646361
 20
-16.66894024034766
 10
-1.094411416559841
 20
-16.69842242682263
 10
-1.078747264951485
 20
-16.7243515993985
 10
-1.015907866392005
 20
-16.76106859903321
 10
-0.9580458819669029
 20
-16.76173403837442
 10
-0.9220414044937419
 20
-16.77401412032139
  0
LWPOLYLINE
  5
294
330
6F
100
AcDbEntity
  8
STEINE
100
AcDbPolyline
 90
       22
 70
     0
 43
0.0
 10
-1.309247169775431
 20
-16.93233696327548
 10
-1.276267360954708
 20
-16.93699513527709
 10
-1.21592705537867
 20
-16.95949315537123
 10
-1.161626393585671
 20
-16.96319434167554
 10
-1.12861058025527
 20
-16.95465560490906
 10
-1.119364860482572
 20
-16.91458223138964
 10
-1.137633349025735
 20
-16.91300965874915
 10
-1.157903050660018
 20
-16.90077250525603
 10
-1.187199675431267
 20
-16.84841212584546
 10
-1.199758840634828
 20
-16.80066560519383
 10
-1.229664128405098
 20
-16.78535670022792
 10
-1.252495238520342
 20
-16.7817413708313
 10
-1.247859223140072
 20
-16.75688273663709
 10
-1.266102785484228
 20
-16.74617384254177
 10
-1.286857903911329
 20
-16.72581412963329
 10
-1.328932490521872
 20
-16.70590382900796
 10
-1.401523797479373
 20
-16.70875124468967
 10
-1.412830276263044
 20
-16.75998569416522
 10
-1.435759706385484
 20
-16.79240807717377
 10
-1.438406971774137
 20
-16.83249945294803
 10
-1.425803493327896
 20
-16.86400362434663
 10
-1.410602601891018
 20
-16.87368906288063
  0
LWPOLYLINE
  5
2AC
330
6F
100
AcDbEntity
  8
STEINE
100
AcDbPolyline
 90
        2
 70
     0
 43
0.0
 10
-1.187199675431267
 20
-16.84841212584546
 10
-1.133370582542748
 20
-16.83891501859285
  0
LWPOLYLINE
  5
2B0
330
6F
100
AcDbEntity
  8
STEINE
100
AcDbPolyline
 90
       11
 70
     0
 43
0.0
 10
-1.289608931849339
 20
-17.17602759362435
 10
-1.268238226479048
 20
-17.15679796501739
 10
-1.247303085503559
 20
-17.11117313408541
 10
-1.22245414483119
 20
-17.11936216336479
 10
-1.175720001430203
 20
-17.10578508175524
 10
-1.141723660992332
 20
-17.10993844992036
 10
-1.127042806069114
 20
-17.12419066439295
 10
-1.142886980225858
 20
-17.16424603565753
 10
-1.144580029494882
 20
-17.22667341123238
 10
-1.149357293336194
 20
-17.30330453367064
 10
-1.166693722381067
 20
-17.33218913545726
  0
LWPOLYLINE
  5
2BD
330
6F
100
AcDbEntity
  8
STEINE
100
AcDbPolyline
 90
       10
 70
     0
 43
0.0
 10
-1.293497805347212
 20
-17.11307741195817
 10
-1.268521464102137
 20
-17.07456968713507
 10
-1.270976243842899
 20
-17.04410835834146
 10
-1.256638172462622
 20
-16.99795795174048
 10
-1.270782373406174
 20
-16.97304808035943
 10
-1.279893768661998
 20
-16.96388683270559
 10
-1.295620235767873
 20
-16.9607984637668
 10
-1.308362193097489
 20
-16.98005163378393
 10
-1.307910011236682
 20
-17.00035595513906
 10
-1.325737396229708
 20
-17.02314829116696
  0
LWPOLYLINE
  5
2C9
330
6F
100
AcDbEntity
  8
STEINE
100
AcDbPolyline
 90
        2
 70
     0
 43
0.0
 10
-1.279893768661998
 20
-16.96388683270559
 10
-1.276267360954708
 20
-16.93699513527709
  0
LWPOLYLINE
  5
2CD
330
6F
100
AcDbEntity
  8
STEINE
100
AcDbPolyline
 90
        9
 70
     0
 43
0.0
 10
-1.332818497828903
 20
-17.01399258266846
 10
-1.317970083456801
 20
-16.966828414028
 10
-1.309247169775431
 20
-16.93233696327548
 10
-1.3214040055162
 20
-16.92316740688864
 10
-1.379678012925931
 20
-16.88747801718174
 10
-1.410602601891018
 20
-16.87368906288063
 10
-1.441133170126314
 20
-16.90152251332926
 10
-1.455471241506591
 20
-16.94767291993024
 10
-1.454068997892655
 20
-16.99183596132843
  0
LWPOLYLINE
  5
2D8
330
6F
100
AcDbEntity
  8
STEINE
100
AcDbPolyline
 90
        8
 70
     0
 43
0.0
 10
-1.48196753341647
 20
-16.98516134355852
 10
-1.476804557578371
 20
-16.95319806635495
 10
-1.511282160442558
 20
-16.93939941853201
 10
-1.549798193998665
 20
-16.91746851777187
 10
-1.574588973540016
 20
-16.88796140509789
 10
-1.596370317106102
 20
-16.87165950992501
 10
-1.624930137604621
 20
-16.92132415633774
 10
-1.646379775938435
 20
-16.96948546955167
  0
LWPOLYLINE
  5
2E2
330
6F
100
AcDbEntity
  8
STEINE
100
AcDbPolyline
 90
       11
 70
     0
 43
0.0
 10
-1.476804557578371
 20
-16.95319806635495
 10
-1.466004267420024
 20
-16.90145465867641
 10
-1.468344109687584
 20
-16.82886473650774
 10
-1.473238436491936
 20
-16.76235877136479
 10
-1.549325981006355
 20
-16.74438598354423
 10
-1.58177190542508
 20
-16.73008530146246
 10
-1.65479739198855
 20
-16.706029941405
 10
-1.714646741616436
 20
-16.68962418706958
 10
-1.727359618380543
 20
-16.69821831538942
 10
-1.802564955794688
 20
-16.72897534490562
 10
-1.83504688472309
 20
-16.72787157159194
  0
LWPOLYLINE
  5
2EF
330
6F
100
AcDbEntity
  8
STEINE
100
AcDbPolyline
 90
        4
 70
     0
 43
0.0
 10
-1.82037987768821
 20
-16.7471995202061
 10
-1.802564955794688
 20
-16.72897534490562
 10
-1.731616845708195
 20
-16.77028266188909
 10
-1.739325997350084
 20
-16.80528445563344
  0
LWPOLYLINE
  5
2F5
330
6F
100
AcDbEntity
  8
STEINE
100
AcDbPolyline
 90
        7
 70
     0
 43
0.0
 10
-1.842154297310127
 20
-16.72835975796243
 10
-1.82037987768821
 20
-16.7471995202061
 10
-1.739325997350084
 20
-16.80528445563344
 10
-1.697270797783213
 20
-16.83230078405698
 10
-1.684668704125806
 20
-16.86431252886973
 10
-1.674619710216357
 20
-16.90190065729405
 10
-1.692531567328242
 20
-16.95565497158555
  0
LWPOLYLINE
  5
2FE
330
6F
100
AcDbEntity
  8
STEINE
100
AcDbPolyline
 90
        4
 70
     0
 43
0.0
 10
-1.684668704125806
 20
-16.86431252886973
 10
-1.648185733803997
 20
-16.88725303730285
 10
-1.631505050578492
 20
-16.91267740604223
 10
-1.624930137604621
 20
-16.92132415633774
  0
LWPOLYLINE
  5
304
330
6F
100
AcDbEntity
  8
STEINE
100
AcDbPolyline
 90
        7
 70
     0
 43
0.0
 10
-1.714646741616436
 20
-16.68962418706958
 10
-1.697360164969578
 20
-16.67901222819263
 10
-1.683609984755816
 20
-16.66229969482395
 10
-1.729739619524282
 20
-16.64034802223131
 10
-1.78294897110311
 20
-16.60873306772601
 10
-1.807255718640478
 20
-16.58785608788154
 10
-1.851847400489301
 20
-16.56032526209967
  0
LWPOLYLINE
  5
30D
330
6F
100
AcDbEntity
  8
STEINE
100
AcDbPolyline
 90
        6
 70
     0
 43
0.0
 10
-1.807255718640478
 20
-16.58785608788154
 10
-1.777820614985854
 20
-16.58945912587637
 10
-1.768606745356332
 20
-16.56105994088257
 10
-1.770011758547935
 20
-16.51791204631269
 10
-1.762266602396368
 20
-16.46971334380025
 10
-1.818083060487671
 20
-16.46347013605865
  0
LWPOLYLINE
  5
315
330
6F
100
AcDbEntity
  8
STEINE
100
AcDbPolyline
 90
       14
 70
     0
 43
0.0
 10
-1.697360164969578
 20
-16.67901222819263
 10
-1.676013001009461
 20
-16.66841134762634
 10
-1.667796275953414
 20
-16.63341093867083
 10
-1.628104460064278
 20
-16.59646609296637
 10
-1.601149062349423
 20
-16.57674412362242
 10
-1.594482753312524
 20
-16.55189102858355
 10
-1.622814083653473
 20
-16.51780606166032
 10
-1.669451291836097
 20
-16.49585300427885
 10
-1.713079064043454
 20
-16.48710516439848
 10
-1.746108725262192
 20
-16.50071963530653
 10
-1.75284842810728
 20
-16.55247412129574
 10
-1.764105054492936
 20
-16.58543592786162
 10
-1.776326975308891
 20
-16.60012232194018
 10
-1.78294897110311
 20
-16.60873306772601
  0
LWPOLYLINE
  5
325
330
6F
100
AcDbEntity
  8
STEINE
100
AcDbPolyline
 90
        6
 70
     0
 43
0.0
 10
-1.667796275953414
 20
-16.63341093867083
 10
-1.628249862891822
 20
-16.64976130145289
 10
-1.592696182490635
 20
-16.64122948863058
 10
-1.581496332447163
 20
-16.62907819204515
 10
-1.589060081261508
 20
-16.61078477730297
 10
-1.628104460064278
 20
-16.59646609296637
  0
LWPOLYLINE
  5
32D
330
6F
100
AcDbEntity
  8
STEINE
100
AcDbPolyline
 90
       14
 70
     0
 43
0.0
 10
-1.58177190542508
 20
-16.73008530146246
 10
-1.523843451135957
 20
-16.70638721692411
 10
-1.481586072399359
 20
-16.65929782688068
 10
-1.469317068763056
 20
-16.62735393672078
 10
-1.502786448743098
 20
-16.61609592554629
 10
-1.508306056012476
 20
-16.59273231581788
 10
-1.513814584971184
 20
-16.56530811877621
 10
-1.524452854835982
 20
-16.55766543699834
 10
-1.54272688253448
 20
-16.55812315801449
 10
-1.574710931570561
 20
-16.56057378338875
 10
-1.581496332447163
 20
-16.62907819204515
 10
-1.569932927028244
 20
-16.66971591532091
 10
-1.583196305660355
 20
-16.69404343469079
 10
-1.58177190542508
 20
-16.73008530146246
  0
LWPOLYLINE
  5
33D
330
6F
100
AcDbEntity
  8
STEINE
100
AcDbPolyline
 90
       11
 70
     0
 43
0.0
 10
-1.54272688253448
 20
-16.55812315801449
 10
-1.566043409442541
 20
-16.54638526920251
 10
-1.576623518176322
 20
-16.51742450403004
 10
-1.569994598437934
 20
-16.50627589117341
 10
-1.544061271495562
 20
-16.48908901932259
 10
-1.496915105109947
 20
-16.51053588807873
 10
-1.480269041605286
 20
-16.54864959217205
 10
-1.468626703222843
 20
-16.56035563084084
 10
-1.467680795836217
 20
-16.58573707112638
 10
-1.478389689931536
 20
-16.60398063347053
 10
-1.508306056012476
 20
-16.59273231581788
  0
LWPOLYLINE
  5
34A
330
6F
100
AcDbEntity
  8
STEINE
100
AcDbPolyline
 90
       11
 70
     0
 43
0.0
 10
-1.568948986255276
 20
-16.49511204563962
 10
-1.567854906463438
 20
-16.46618313061032
 10
-1.561117973196017
 20
-16.41544379144942
 10
-1.532122588302696
 20
-16.39217434736171
 10
-1.487364731793823
 20
-16.35879636344469
 10
-1.478830149393844
 20
-16.39333489701757
 10
-1.443378943366353
 20
-16.4223635168429
 10
-1.438398759654309
 20
-16.45739993030809
 10
-1.418213530138884
 20
-16.50059906206482
 10
-1.409128445870901
 20
-16.51940420458765
 10
-1.468626703222843
 20
-16.56035563084084
  0
LWPOLYLINE
  5
357
330
6F
100
AcDbEntity
  8
STEINE
100
AcDbPolyline
 90
       12
 70
     0
 43
0.0
 10
-1.693782965572473
 20
-16.48411234588921
 10
-1.744995258426681
 20
-16.46468469247903
 10
-1.7596802677164
 20
-16.45195519824891
 10
-1.765681137412095
 20
-16.41894630886268
 10
-1.773201957772593
 20
-16.38491811828163
 10
-1.752800701199103
 20
-16.34893579742981
 10
-1.70409996442784
 20
-16.35871263202684
 10
-1.608315376768481
 20
-16.4127771390171
 10
-1.586090160074591
 20
-16.45242879603006
 10
-1.615160323564934
 20
-16.50310720448226
 10
-1.669451291836097
 20
-16.49585300427885
 10
-1.693782965572473
 20
-16.48411234588921
  0
LWPOLYLINE
  5
365
330
6F
100
AcDbEntity
  8
STEINE
100
AcDbPolyline
 90
       13
 70
     0
 43
0.0
 10
-1.439514255366484
 20
-16.68022327433433
 10
-1.437884906383813
 20
-16.64114427581071
 10
-1.449431694336726
 20
-16.59441567156507
 10
-1.427593574428457
 20
-16.5899070567575
 10
-1.384926942284898
 20
-16.57885676390808
 10
-1.314350696306854
 20
-16.57042050151529
 10
-1.286486780503883
 20
-16.58978445463912
 10
-1.275465568219966
 20
-16.64311012847999
 10
-1.28270869011271
 20
-16.69334050943789
 10
-1.344120918859246
 20
-16.69165022974654
 10
-1.389306031029919
 20
-16.6955875708536
 10
-1.427364343569884
 20
-16.69193069779196
 10
-1.439514255366484
 20
-16.68022327433433
  0
LWPOLYLINE
  5
374
330
6F
100
AcDbEntity
  8
STEINE
100
AcDbPolyline
 90
        4
 70
     0
 43
0.0
 10
-1.427593574428457
 20
-16.5899070567575
 10
-1.389814345145081
 20
-16.50981293169434
 10
-1.380195376475099
 20
-16.51897556413701
 10
-1.384926942284898
 20
-16.57885676390808
  0
LWPOLYLINE
  5
37A
330
6F
100
AcDbEntity
  8
STEINE
100
AcDbPolyline
 90
       10
 70
     0
 43
0.0
 10
-1.143959740710535
 20
-16.6272264395349
 10
-1.163239221715511
 20
-16.62412837707427
 10
-1.172849881652491
 20
-16.61192030414665
 10
-1.121906978533034
 20
-16.54404394553295
 10
-1.094005673431552
 20
-16.54970341647453
 10
-1.059501759579523
 20
-16.55385816942849
 10
-1.024540124711351
 20
-16.57628695008094
 10
-1.02458028358753
 20
-16.5910065790915
 10
-1.025675748168203
 20
-16.62044306753496
 10
-1.033828772937896
 20
-16.63209509943924
  0
LWPOLYLINE
  5
386
330
6F
100
AcDbEntity
  8
STEINE
100
AcDbPolyline
 90
        2
 70
     0
 43
0.0
 10
-1.097253293086223
 20
-16.6238008262085
 10
-1.143959740710535
 20
-16.6272264395349
  0
LWPOLYLINE
  5
38A
330
6F
100
AcDbEntity
  8
STEINE
100
AcDbPolyline
 90
       14
 70
     0
 43
0.0
 10
-1.025675748168203
 20
-16.62044306753496
 10
-0.9668373910021307
 20
-16.63532333205024
 10
-0.9262024373040349
 20
-16.62477507345963
 10
-0.9003314258591819
 20
-16.63042900524589
 10
-0.8667969608039538
 20
-16.61783106595498
 10
-0.8443986455058446
 20
-16.59403604619827
 10
-0.844805129335138
 20
-16.55698180217595
 10
-0.8679042443963002
 20
-16.46555488734128
 10
-0.8835933222036638
 20
-16.44876203622024
 10
-0.9465324255591736
 20
-16.44859032240485
 10
-1.01664541136574
 20
-16.47327031883951
 10
-1.024362871740631
 20
-16.5113175530688
 10
-1.00467275253986
 20
-16.54994713930927
 10
-1.02458028358753
 20
-16.5910065790915
  0
LWPOLYLINE
  5
39A
330
6F
100
AcDbEntity
  8
STEINE
100
AcDbPolyline
 90
        7
 70
     0
 43
0.0
 10
-0.8038426247712726
 20
-16.61241947221463
 10
-0.8274922417004384
 20
-16.53672594843001
 10
-0.8299013234096861
 20
-16.4895146969692
 10
-0.860749748988916
 20
-16.44780920488944
 10
-0.8880825499675561
 20
-16.41981788851376
 10
-0.8675912821198721
 20
-16.35084329574172
 10
-0.8313444666008047
 20
-16.27429803021115
  0
LWPOLYLINE
  5
3A3
330
6F
100
AcDbEntity
  8
STEINE
100
AcDbPolyline
 90
       15
 70
     0
 43
0.0
 10
-0.7735364889402182
 20
-16.2947588327045
 10
-0.6569635479217482
 20
-16.35700129066346
 10
-0.5256959040917229
 20
-16.42842022895342
 10
-0.4410626988666539
 20
-16.47687096303361
 10
-0.446727708963576
 20
-16.50680256179172
 10
-0.4675492972546968
 20
-16.5108063727628
 10
-0.4921246938258131
 20
-16.58839863526485
 10
-0.5451532821552492
 20
-16.67657239128952
 10
-0.5711212288184648
 20
-16.70644859849428
 10
-0.6239047095243267
 20
-16.70478186021309
 10
-0.6858868271825395
 20
-16.72593099936998
 10
-0.7380838015107202
 20
-16.69533396127067
 10
-0.7639783543657471
 20
-16.69830877752509
 10
-0.7811776893160789
 20
-16.67694361131013
 10
-0.8038426247712726
 20
-16.61241947221463
  0
LWPOLYLINE
  5
3B4
330
6F
100
AcDbEntity
  8
STEINE
100
AcDbPolyline
 90
        4
 70
     0
 43
0.0
 10
-0.7943608468090067
 20
-16.29977779050389
 10
-0.8313444666008047
 20
-16.27429803021115
 10
-0.8743718845421431
 20
-16.23154415637107
 10
-0.8250223258956799
 20
-16.18954988751289
  0
LWPOLYLINE
  5
3BA
330
6F
100
AcDbEntity
  8
STEINE
100
AcDbPolyline
 90
        5
 70
     0
 43
0.0
 10
-0.7943608468090067
 20
-16.29977779050389
 10
-0.7735364889402182
 20
-16.2947588327045
 10
-0.6815895375918837
 20
-16.26709294170475
 10
-0.6790073572784169
 20
-16.25085751639589
 10
-0.7859364034278974
 20
-16.18864136942477
  0
LWPOLYLINE
  5
3C1
330
6F
100
AcDbEntity
  8
STEINE
100
AcDbPolyline
 90
        4
 70
     0
 43
0.0
 10
-0.435574941740452
 20
-16.51190876128763
 10
-0.4218109136383525
 20
-16.49012049377738
 10
-0.3970090557863306
 20
-16.5155670191381
 10
-0.435574941740452
 20
-16.51190876128763
  0
LWPOLYLINE
  5
3C7
330
6F
100
AcDbEntity
  8
STEINE
100
AcDbPolyline
 90
       12
 70
     0
 43
0.0
 10
-0.3849720525862687
 20
-16.38261463477206
 10
-0.3620204658424883
 20
-16.34207107713699
 10
-0.308657402703114
 20
-16.31734538267082
 10
-0.2853076408630426
 20
-16.31690150954302
 10
-0.2705409290321323
 20
-16.29968417233785
 10
-0.2284372618560808
 20
-16.30893543126588
 10
-0.2285134252419371
 20
-16.33685196904453
 10
-0.2611629136192233
 20
-16.3971645788439
 10
-0.2815447831490406
 20
-16.42604087189751
 10
-0.3160500817899034
 20
-16.42239369235772
 10
-0.3692898987230738
 20
-16.40194535296388
 10
-0.3849720525862687
 20
-16.38261463477206
  0
LWPOLYLINE
  5
3D5
330
6F
100
AcDbEntity
  8
STEINE
100
AcDbPolyline
 90
       11
 70
     0
 43
0.0
 10
-0.2402880592645901
 20
-16.18759215035026
 10
-0.2476593224310436
 20
-16.09874603104023
 10
-0.2455750220098979
 20
-16.07895620704342
 10
-0.1745604420593844
 20
-16.09590000014734
 10
-0.1238640313523357
 20
-16.11837170925364
 10
-0.1264683682871425
 20
-16.14272830918903
 10
-0.1122826236785783
 20
-16.15241097814536
 10
-0.1184192026799802
 20
-16.16914428334655
 10
-0.1748927913794849
 20
-16.2177176195451
 10
-0.1962039508299243
 20
-16.2151215913433
 10
-0.2402880592645901
 20
-16.18759215035026
  0
LWPOLYLINE
  5
3E2
330
6F
100
AcDbEntity
  8
STEINE
100
AcDbPolyline
 90
        7
 70
     0
 43
0.0
 10
-0.3625357039018185
 20
-16.15883430504852
 10
-0.3355623039321245
 20
-16.13251388132053
 10
-0.3141666723628262
 20
-16.10414793125874
 10
-0.25536016533993
 20
-16.13070238429963
 10
-0.2757240326149087
 20
-16.1529802229692
 10
-0.3052283757112206
 20
-16.17675585568224
 10
-0.3625357039018185
 20
-16.15883430504852
  0
LWPOLYLINE
  5
3EB
330
6F
100
AcDbEntity
  8
STEINE
100
AcDbPolyline
 90
        4
 70
     0
 43
0.0
 10
-0.3161484984102742
 20
-16.08637732260789
 10
-0.2598438539484873
 20
-16.09972794293653
 10
-0.2705333610001339
 20
-16.11086547748248
 10
-0.3161484984102742
 20
-16.08637732260789
  0
LWPOLYLINE
  5
3F1
330
6F
100
AcDbEntity
  8
STEINE
100
AcDbPolyline
 90
        8
 70
     0
 43
0.0
 10
-0.5634454087217603
 20
-16.31157448453471
 10
-0.5882168012194397
 20
-16.27496134406252
 10
-0.5795298920477473
 20
-16.25366680207809
 10
-0.5784496601442463
 20
-16.22981362119036
 10
-0.5590884765980786
 20
-16.20296485221571
 10
-0.5372503566898094
 20
-16.19845623740814
 10
-0.5276383119639961
 20
-16.2101567369216
 10
-0.5634454087217603
 20
-16.31157448453471
  0
LWPOLYLINE
  5
3FB
330
6F
100
AcDbEntity
  8
STEINE
100
AcDbPolyline
 90
       11
 70
     0
 43
0.0
 10
-0.7859364034278974
 20
-16.18864136942477
 10
-0.7956163028065645
 20
-16.20181196720502
 10
-0.8250223258956799
 20
-16.18954988751289
 10
-0.8574377849600621
 20
-16.16408259031966
 10
-0.8777448758928569
 20
-16.16554991900878
 10
-0.9218068277061826
 20
-16.12989930338923
 10
-0.909034405022224
 20
-16.09947951826063
 10
-0.9150975902154369
 20
-16.08931143251148
 10
-0.906448070342256
 20
-16.0817213727093
 10
-0.871485050685251
 20
-16.10364257994759
 10
-0.7859364034278974
 20
-16.18864136942477
  0
LWPOLYLINE
  5
408
330
6F
100
AcDbEntity
  8
STEINE
100
AcDbPolyline
 90
       11
 70
     0
 43
0.0
 10
-0.8076415836081265
 20
-16.14442293647323
 10
-0.7709896690485994
 20
-16.10543948837914
 10
-0.7476717573517044
 20
-16.11666980377696
 10
-0.7151773653237984
 20
-16.11320541636322
 10
-0.6528510793338111
 20
-16.15195132486572
 10
-0.6778675794550645
 20
-16.20517867869939
 10
-0.6748816848899719
 20
-16.22701264424116
 10
-0.6895985443228671
 20
-16.22595733853667
 10
-0.7433057757940161
 20
-16.19078798534343
 10
-0.7681588708328869
 20
-16.18412167630653
 10
-0.8076415836081265
 20
-16.14442293647323
  0
LWPOLYLINE
  5
415
330
6F
100
AcDbEntity
  8
STEINE
100
AcDbPolyline
 90
       10
 70
     0
 43
0.0
 10
-0.6422045007360106
 20
-16.15654856615865
 10
-0.6380594413038931
 20
-16.12559766620573
 10
-0.6167039686107736
 20
-16.11195134515449
 10
-0.5840766368548275
 20
-16.05975990998165
 10
-0.5765059640963138
 20
-16.07551545765303
 10
-0.5904015471376196
 20
-16.14552319950823
 10
-0.6117556350419054
 20
-16.15866194714531
 10
-0.6240010972680342
 20
-16.18197708926453
 10
-0.6442929555236577
 20
-16.17786111039793
 10
-0.6422045007360106
 20
-16.15654856615865
  0
LWPOLYLINE
  5
421
330
6F
100
AcDbEntity
  8
STEINE
100
AcDbPolyline
 90
       10
 70
     0
 43
0.0
 10
-0.7394245669413156
 20
-16.07050277970998
 10
-0.7546240735893607
 20
-16.06030976776182
 10
-0.7525646993672224
 20
-16.04965626521985
 10
-0.7073795871965493
 20
-16.0457189241128
 10
-0.6708370709548886
 20
-16.04683377573714
 10
-0.6613122679256018
 20
-16.09051140034251
 10
-0.6628862253549225
 20
-16.10928746229984
 10
-0.6928205936907017
 20
-16.10463759903123
 10
-0.7059828827379489
 20
-16.09191225916761
 10
-0.7394245669413156
 20
-16.07050277970998
  0
LWPOLYLINE
  5
42D
330
6F
100
AcDbEntity
  8
STEINE
100
AcDbPolyline
 90
        8
 70
     0
 43
0.0
 10
-0.7394245669413156
 20
-16.07050277970998
 10
-0.7795699494800929
 20
-16.08765087747346
 10
-0.8028823220216526
 20
-16.07439026841902
 10
-0.7987441865337041
 20
-16.04597723553688
 10
-0.7966515773795559
 20
-16.02314197105513
 10
-0.7646135215789584
 20
-16.00089598252874
 10
-0.7412443726952145
 20
-15.99334608160273
 10
-0.7265787504491681
 20
-16.01318160363105
  0
LWPOLYLINE
  5
437
330
6F
100
AcDbEntity
  8
STEINE
100
AcDbPolyline
 90
       12
 70
     0
 43
0.0
 10
-0.7073795871965493
 20
-16.0457189241128
 10
-0.7256037624970321
 20
-16.02790400221928
 10
-0.7265787504491681
 20
-16.01318160363105
 10
-0.6822744605899357
 20
-15.96000687177306
 10
-0.6543496140782796
 20
-15.95703759467397
 10
-0.5919582430131058
 20
-15.97192755271109
 10
-0.5829285502984726
 20
-16.01103563180021
 10
-0.5946982892536203
 20
-16.04602634723389
 10
-0.613493738254613
 20
-16.05155841760278
 10
-0.6262744696715741
 20
-16.08502364321632
 10
-0.6313972866334952
 20
-16.10226729140932
 10
-0.6613122679256018
 20
-16.09051140034251
  0
LWPOLYLINE
  5
445
330
6F
100
AcDbEntity
  8
STEINE
100
AcDbPolyline
 90
        5
 70
     0
 43
0.0
 10
-0.6822744605899357
 20
-15.96000687177306
 10
-0.7081136218916124
 20
-15.94267875146119
 10
-0.7375764213229117
 20
-15.95122718174951
 10
-0.7528673240339846
 20
-15.97453401513573
 10
-0.7412443726952145
 20
-15.99334608160273
  0
LWPOLYLINE
  5
44C
330
6F
100
AcDbEntity
  8
STEINE
100
AcDbPolyline
 90
        5
 70
     0
 43
0.0
 10
-1.382764546214407
 20
-15.97230791877889
 10
-1.417705409250072
 20
-15.94226553691408
 10
-1.388225992352767
 20
-15.92762622565587
 10
-1.361338449290766
 20
-15.93277535360563
 10
-1.382764546214407
 20
-15.97230791877889
  0
LWPOLYLINE
  5
453
330
6F
100
AcDbEntity
  8
STEINE
100
AcDbPolyline
 90
        7
 70
     0
 43
0.0
 10
-1.329272697713494
 20
-15.90037789679609
 10
-1.351004188881564
 20
-15.86580335871354
 10
-1.283928334826939
 20
-15.83806961306094
 10
-1.262050056042491
 20
-15.81884136924282
 10
-1.24889746051708
 20
-15.83511972300553
 10
-1.303823402775105
 20
-15.87456089211575
 10
-1.329272697713494
 20
-15.90037789679609
  0
LWPOLYLINE
  5
45C
330
6F
100
AcDbEntity
  8
STEINE
100
AcDbPolyline
 90
       10
 70
     0
 43
0.0
 10
-1.362843907979404
 20
-15.74039949048467
 10
-1.35071476801531
 20
-15.75972051515465
 10
-1.3065960398598
 20
-15.77456062079376
 10
-1.260458096358331
 20
-15.79346685290145
 10
-1.240697352927039
 20
-15.8062101950199
 10
-1.239539572848848
 20
-15.75393290293936
 10
-1.274972776621499
 20
-15.71830582872998
 10
-1.306417402100246
 20
-15.70908365036746
 10
-1.351099095223263
 20
-15.71454509650582
 10
-1.362843907979404
 20
-15.74039949048467
  0
LWPOLYLINE
  5
468
330
6F
100
AcDbEntity
  8
STEINE
100
AcDbPolyline
 90
        6
 70
     0
 43
0.0
 10
-1.380948991440184
 20
-15.67893325497362
 10
-1.36473295317499
 20
-15.68862146308529
 10
-1.368907093172617
 20
-15.73023140473552
 10
-1.382268791811924
 20
-15.79059663651056
 10
-1.39752784437982
 20
-15.80222928137117
 10
-1.440107234826853
 20
-15.78130244912868
  0
LWPOLYLINE
  5
470
330
6F
100
AcDbEntity
  8
STEINE
100
AcDbPolyline
 90
        6
 70
     0
 43
0.0
 10
-1.064847720770027
 20
-15.90871297299084
 10
-1.069888835190756
 20
-15.89600978974856
 10
-1.058199413987966
 20
-15.89045833233601
 10
-1.020672216272333
 20
-15.90274256864949
 10
-1.042020765021284
 20
-15.91385102262993
 10
-1.064847720770027
 20
-15.90871297299084
  0
LWPOLYLINE
  5
478
330
6F
100
AcDbEntity
  8
STEINE
100
AcDbPolyline
 90
        5
 70
     0
 43
0.0
 10
-1.212822358813398
 20
-15.82151356083048
 10
-1.219878534213586
 20
-15.80322153087714
 10
-1.15802104755041
 20
-15.82775399899441
 10
-1.173786288743631
 20
-15.83887768565202
 10
-1.212822358813398
 20
-15.82151356083048
  0
LWPOLYLINE
  5
47F
330
6F
100
AcDbEntity
  8
STEINE
100
AcDbPolyline
 90
        5
 70
     0
 43
0.0
 10
-1.212379870474427
 20
-15.8453708960847
 10
-1.204745497429561
 20
-15.83777806670485
 10
-1.141424836443765
 20
-15.88414034599739
 10
-1.15007574110578
 20
-15.89223797921373
 10
-1.212379870474427
 20
-15.8453708960847
  0
LWPOLYLINE
  5
486
330
6F
100
AcDbEntity
  8
STEINE
100
AcDbPolyline
 90
        6
 70
     0
 43
0.0
 10
-1.302673834816742
 20
-16.19738312267516
 10
-1.319332361420907
 20
-16.16383757930926
 10
-1.3208149227872
 20
-16.1491137959322
 10
-1.297488702357302
 20
-16.15729867084506
 10
-1.28996649720797
 20
-16.19081928801196
 10
-1.302673834816742
 20
-16.19738312267516
  0
LWPOLYLINE
  5
48E
330
6F
100
AcDbEntity
  8
KNOCHEN
100
AcDbPolyline
 90
       10
 70
     0
 43
0.0
 10
-1.562283417919381
 20
-16.28448569623033
 10
-1.573402950210495
 20
-16.26719773479464
 10
-1.58196522838715
 20
-16.24281066950491
 10
-1.569734998838192
 20
-16.22507883494141
 10
-1.562646973294828
 20
-16.23169667636913
 10
-1.572823367776983
 20
-16.24080530204729
 10
-1.572842754820655
 20
-16.24791132984549
 10
-1.567296836563436
 20
-16.26163104470491
 10
-1.557200759833639
 20
-16.28196167704788
 10
-1.562283417919381
 20
-16.28448569623033
  0
LWPOLYLINE
  5
49A
330
6F
100
AcDbEntity
  8
KNOCHEN
100
AcDbPolyline
 90
        5
 70
     0
 43
0.0
 10
-1.541940322476909
 20
-16.26982145877311
 10
-1.537856193753476
 20
-16.26120378904311
 10
-1.496769058194573
 20
-16.27095985180763
 10
-1.500860110862175
 20
-16.28211538860843
 10
-1.541940322476909
 20
-16.26982145877311
  0
LWPOLYLINE
  5
4A1
330
6F
100
AcDbEntity
  8
KNOCHEN
100
AcDbPolyline
 90
        5
 70
     0
 43
0.0
 10
-1.440008818206482
 20
-16.11731881887851
 10
-1.450115973246949
 20
-16.1010487738488
 10
-1.415574670096408
 20
-16.0914990446205
 10
-1.422734704659127
 20
-16.11127502072897
 10
-1.440008818206482
 20
-16.11731881887851
  0
LWPOLYLINE
  5
4A8
330
6F
100
AcDbEntity
  8
KNOCHEN
100
AcDbPolyline
 90
        5
 70
     0
 43
0.0
 10
-1.426080000233166
 20
-16.03512931508353
 10
-1.421915553757376
 20
-15.9970723873324
 10
-1.40719869432448
 20
-15.99812769303689
 10
-1.411863790270259
 20
-16.0336453689284
 10
-1.426080000233166
 20
-16.03512931508353
  0
LWPOLYLINE
  5
4AF
330
6F
100
AcDbEntity
  8
KNOCHEN
100
AcDbPolyline
 90
        6
 70
     0
 43
0.0
 10
-1.164156885850808
 20
-16.03026055856602
 10
-1.163570379473127
 20
-16.00133025874788
 10
-1.145778998989779
 20
-15.99173483148807
 10
-1.134121427930165
 20
-15.99785756260114
 10
-1.137209796868955
 20
-16.01358402970701
 10
-1.164156885850808
 20
-16.03026055856602
  0
LWPOLYLINE
  5
4B7
330
6F
100
AcDbEntity
  8
KNOCHEN
100
AcDbPolyline
 90
        7
 70
     0
 43
0.0
 10
-0.5536531482212105
 20
-17.00139860451771
 10
-0.5520888843137258
 20
-16.98617555645948
 10
-0.5418944875767329
 20
-16.97046847639728
 10
-0.5297390366247981
 20
-16.98014560619828
 10
-0.5414367665605905
 20
-16.98874250409578
 10
-0.548068455876646
 20
-17.00090626378072
 10
-0.5536531482212105
 20
-17.00139860451771
  0
LWPOLYLINE
  5
4C0
330
6F
100
AcDbEntity
  8
KNOCHEN
100
AcDbPolyline
 90
        6
 70
     0
 43
0.0
 10
-0.5683090769454207
 20
-16.97801006859029
 10
-0.5352434112170048
 20
-16.95119868891414
 10
-0.5332352741817156
 20
-16.959325402696
 10
-0.5525687619512082
 20
-16.97602270338751
 10
-0.5673160867384461
 20
-16.98613401279447
 10
-0.5683090769454207
 20
-16.97801006859029
  0
LWPOLYLINE
  5
4C8
330
6F
100
AcDbEntity
  8
KNOCHEN
100
AcDbPolyline
 90
        5
 70
     0
 43
0.0
 10
-0.5150775687452529
 20
-17.00150384846907
 10
-0.5251708758973819
 20
-16.98015806929779
 10
-0.5185627279915003
 20
-16.97662305765352
 10
-0.5120265891049737
 20
-16.99948186354544
 10
-0.5150775687452529
 20
-17.00150384846907
  0
INSERT
  5
4CF
330
6F
100
AcDbEntity
  8
KNOCHENSCHRAFF
100
AcDbBlockReference
  2
*X1
 10
0.0
 20
0.0
 30
0.0
 41
0.01
 42
0.01
 43
0.01
1001
ACAD
1000
HATCH
1002
{
1070
    16
1000
ANSI31
1040
2.0
1040
0.0
1002
}
  0
INSERT
  5
4D0
330
6F
100
AcDbEntity
  8
KNOCHENSCHRAFF
100
AcDbBlockReference
  2
*X2
 10
0.0
 20
0.0
 30
0.0
 41
0.01
 42
0.01
 43
0.01
1001
ACAD
1000
HATCH
1002
{
1070
    16
1000
ANSI31
1040
2.0
1040
0.0
1002
}
  0
LWPOLYLINE
  5
4D1
330
6F
100
AcDbEntity
  8
BEFUND
100
AcDbPolyline
 90
        2
 70
     0
 43
0.0
 10
-1.36473295317499
 20
-15.68862146308529
 10
-1.306417402100246
 20
-15.70908365036746
  0
LWPOLYLINE
  5
4D5
330
6F
100
AcDbEntity
  8
BEFUND
100
AcDbPolyline
 90
       26
 70
     0
 43
0.0
 10
-1.274972776621499
 20
-15.71830582872998
 10
-1.158888021973514
 20
-15.77344087410191
 10
-1.085931774851731
 20
-15.82287490486723
 10
-1.025698098015892
 20
-15.88445607785148
 10
-0.9988811791844119
 20
-15.91549144992327
 10
-0.9548967755457764
 20
-15.97956617673563
 10
-0.9235490852853915
 20
-16.02431849408917
 10
-0.9307271221029493
 20
-16.05069292458168
 10
-0.9728557154780084
 20
-16.05057798710848
 10
-0.98001298046306
 20
-16.06933881638862
 10
-0.9562054976068463
 20
-16.08716897095932
 10
-0.9943275104331631
 20
-16.10686047494892
 10
-1.033908543215599
 20
-16.10319944752079
 10
-1.098803161630715
 20
-16.07561323018557
 10
-1.091776066796037
 20
-16.10456430183621
 10
-1.112626735652666
 20
-16.11922715450459
 10
-1.12936973437569
 20
-16.11664358940229
 10
-1.141987060710268
 20
-16.09021515214527
 10
-1.161310854957924
 20
-16.10335943893767
 10
-1.182684329905883
 20
-16.12360421437295
 10
-1.247677268328196
 20
-16.1320557094429
 10
-1.269939874320597
 20
-16.1061085346122
 10
-1.267345230907627
 20
-16.08530494857592
 10
-1.305389695559253
 20
-16.07657234137271
 10
-1.319706995107024
 20
-16.11510914676132
 10
-1.297488702357302
 20
-16.15729867084506
  0
LWPOLYLINE
  5
4F1
330
6F
100
AcDbEntity
  8
BEFUND
100
AcDbPolyline
 90
       11
 70
     0
 43
0.0
 10
-1.319332361420907
 20
-16.16383757930926
 10
-1.353345319324783
 20
-16.16577509211403
 10
-1.360510893042838
 20
-16.18758136187912
 10
-1.346348689844447
 20
-16.20589277887613
 10
-1.377883326597389
 20
-16.22966287243383
 10
-1.398700760522008
 20
-16.23214396316243
 10
-1.410419262290307
 20
-16.24835446227229
 10
-1.430834366752134
 20
-16.28941251726569
 10
-1.458759213263791
 20
-16.29238179436477
 10
-1.500860110862175
 20
-16.28211538860843
 10
-1.56376091879886
 20
-16.28218856919684
  0
LWPOLYLINE
  5
4FE
330
6F
100
AcDbEntity
  8
BEFUND
100
AcDbPolyline
 90
       13
 70
     0
 43
0.0
 10
-1.58196522838715
 20
-16.24281066950491
 10
-1.587959174138675
 20
-16.20726391304789
 10
-1.562498800889617
 20
-16.1773863210543
 10
-1.54868768996717
 20
-16.13834055746269
 10
-1.572084534627589
 20
-16.15604192667185
 10
-1.59551184464235
 20
-16.18490991099246
 10
-1.613777563607846
 20
-16.18232219152366
 10
-1.618273715315907
 20
-16.15591591088797
 10
-1.594853329245314
 20
-16.12958579363815
 10
-1.579014694243905
 20
-16.09156071603019
 10
-1.534728406639511
 20
-16.04498443855625
 10
-1.538159559121243
 20
-16.00030828458858
 10
-1.552287142598789
 20
-15.96930753223763
  0
LWPOLYLINE
  5
50D
330
6F
100
AcDbEntity
  8
BEFUND
100
AcDbPolyline
 90
        2
 70
     0
 43
0.0
 10
-1.586090160074591
 20
-16.45242879603006
 10
-1.561117973196017
 20
-16.41544379144942
  0
LWPOLYLINE
  5
511
330
6F
100
AcDbEntity
  8
BEFUND
100
AcDbPolyline
 90
        6
 70
     0
 43
0.0
 10
-1.28270869011271
 20
-16.69334050943789
 10
-1.25467167570552
 20
-16.64925778579206
 10
-1.188057697033538
 20
-16.60477273268344
 10
-1.14009514932384
 20
-16.51303211487133
 10
-1.110991750901486
 20
-16.45017194447935
 10
-1.09004276203766
 20
-16.3994713794058
  0
LWPOLYLINE
  5
519
330
6F
100
AcDbEntity
  8
BEFUND
100
AcDbPolyline
 90
        2
 70
     0
 43
0.0
 10
-0.9612043276615594
 20
-16.24501183966275
 10
-0.9218068277061826
 20
-16.12989930338923
  0
LWPOLYLINE
  5
51D
330
6F
100
AcDbEntity
  8
BEFUND
100
AcDbPolyline
 90
        8
 70
     0
 43
0.0
 10
-0.871485050685251
 20
-16.10364257994759
 10
-0.7966515773795559
 20
-16.02314197105513
 10
-0.7471884660487249
 20
-15.93952668223605
 10
-0.7034485259458336
 20
-15.90716107556968
 10
-0.6247469509747712
 20
-15.89722424955577
 10
-0.5673814616531558
 20
-15.89382771679488
 10
-0.4978314408140966
 20
-15.88944927213769
 10
-0.4500710722741255
 20
-15.87181437279255
  0
LWPOLYLINE
  5
527
330
6F
100
AcDbEntity
  8
BEFUND
100
AcDbPolyline
 90
        2
 70
     0
 43
0.0
 10
-0.2586653020377898
 20
-16.03983704964363
 10
-0.1745604420593844
 20
-16.09590000014734
  0
LWPOLYLINE
  5
52B
330
6F
100
AcDbEntity
  8
BEFUND
100
AcDbPolyline
 90
        2
 70
     0
 43
0.0
 10
-0.1184192026799802
 20
-16.16914428334655
 10
-0.1007538379805035
 20
-16.20573803677505
  0
LWPOLYLINE
  5
52F
330
6F
100
AcDbEntity
  8
STEINE
100
AcDbPolyline
 90
       16
 70
     0
 43
0.0
 10
-1.09004276203766
 20
-16.3994713794058
 10
-1.084394369406743
 20
-16.37563066161757
 10
-1.060986446435654
 20
-16.35386870509516
 10
-1.030425412846015
 20
-16.31486863953507
 10
-1.016646152066744
 20
-16.28749706446908
 10
-0.9967995517277593
 20
-16.26877085490978
 10
-0.9886271399143932
 20
-16.2500127952073
 10
-0.9612043276615594
 20
-16.24501183966275
 10
-0.9445084117588836
 20
-16.2648529008464
 10
-0.9704985150434392
 20
-16.30285028267768
 10
-0.9726949833601189
 20
-16.36375355322122
 10
-1.000301972527841
 20
-16.4362617728487
 10
-1.028304367214187
 20
-16.4676551611406
 10
-1.074998351738995
 20
-16.46651261373958
 10
-1.088628055324221
 20
-16.43906626007657
 10
-1.09004276203766
 20
-16.3994713794058
  0
INSERT
  5
541
330
6F
100
AcDbEntity
  8
STEINESCHRAFF
100
AcDbBlockReference
  2
*X3
 10
0.0
 20
0.0
 30
0.0
 41
0.01
 42
0.01
 43
0.01
1001
ACAD
1000
HATCH
1002
{
1070
    16
1000
DOTS,I
1040
20.0
1040
0.0
1002
}
  0
ENDSEC
  0
SECTION
  2
OBJECTS
  0
DICTIONARY
  5
C
330
0
100
AcDbDictionary
281
     1
  3
ACAD_CIP_PREVIOUS_PRODUCT_INFO
350
544
  3
ACAD_COLOR
350
62
  3
ACAD_DETAILVIEWSTYLE
350
69
  3
ACAD_GROUP
350
D
  3
ACAD_LAYOUT
350
61
  3
ACAD_MATERIAL
350
10
  3
ACAD_MLEADERSTYLE
350
65
  3
ACAD_MLINESTYLE
350
5E
  3
ACAD_PLOTSETTINGS
350
60
  3
ACAD_PLOTSTYLENAME
350
E
  3
ACAD_SCALELIST
350
42
  3
ACAD_SECTIONVIEWSTYLE
350
67
  3
ACAD_TABLESTYLE
350
63
  3
ACAD_VISUALSTYLE
350
29
  3
ACDB_RECOMPOSE_DATA
350
5EF
  3
AcDbVariableDictionary
350
58F
  0
DICTIONARY
  5
548
330
2
100
AcDbDictionary
280
     1
281
     1
  3
ACAD_LAYERSTATES
360
549
  0
XRECORD
  5
544
102
{ACAD_REACTORS
330
C
102
}
330
C
100
AcDbXrecord
280
     1
300
ACD
300
2014
300
DSADV_F_S
  0
DICTIONARY
  5
62
102
{ACAD_REACTORS
330
C
102
}
330
C
100
AcDbDictionary
281
     1
  0
DICTIONARY
  5
69
102
{ACAD_REACTORS
330
C
102
}
330
C
100
AcDbDictionary
281
     1
  3
Imperial24
350
6A
  0
DICTIONARY
  5
D
102
{ACAD_REACTORS
330
C
102
}
330
C
100
AcDbDictionary
281
     1
  0
DICTIONARY
  5
61
102
{ACAD_REACTORS
330
C
102
}
330
C
100
AcDbDictionary
281
     1
  3
Layout1
350
6E
  3
Model
350
72
  0
DICTIONARY
  5
10
102
{ACAD_REACTORS
330
C
102
}
330
C
100
AcDbDictionary
281
     1
  3
ByBlock
350
19
  3
ByLayer
350
11
  3
Global
350
21
  0
DICTIONARY
  5
65
102
{ACAD_REACTORS
330
C
102
}
330
C
100
AcDbDictionary
281
     1
  3
Standard
350
66
  0
DICTIONARY
  5
5E
102
{ACAD_REACTORS
330
C
102
}
330
C
100
AcDbDictionary
281
     1
  3
Standard
350
5F
  0
DICTIONARY
  5
60
102
{ACAD_REACTORS
330
C
102
}
330
C
100
AcDbDictionary
281
     1
  0
ACDBDICTIONARYWDFLT
  5
E
102
{ACAD_REACTORS
330
C
102
}
330
C
100
AcDbDictionary
281
     1
  3
Normal
350
F
100
AcDbDictionaryWithDefault
340
F
  0
DICTIONARY
  5
42
102
{ACAD_REACTORS
330
C
102
}
330
C
100
AcDbDictionary
281
     1
  3
A0
350
43
  3
A1
350
44
  3
A2
350
45
  3
A3
350
46
  3
A4
350
47
  3
A5
350
48
  3
A6
350
49
  3
A7
350
4A
  3
A8
350
4B
  3
A9
350
4C
  3
B0
350
4D
  3
B1
350
4E
  3
B2
350
4F
  3
B3
350
50
  3
B4
350
51
  3
B5
350
52
  3
B6
350
53
  0
DICTIONARY
  5
67
102
{ACAD_REACTORS
330
C
102
}
330
C
100
AcDbDictionary
281
     1
  3
Imperial24
350
68
  0
DICTIONARY
  5
63
102
{ACAD_REACTORS
330
C
102
}
330
C
100
AcDbDictionary
281
     1
  3
Standard
350
64
  0
DICTIONARY
  5
29
102
{ACAD_REACTORS
330
C
102
}
330
C
100
AcDbDictionary
281
     1
  3
2dWireframe
350
2F
  3
Basic
350
2E
  3
Brighten
350
35
  3
ColorChange
350
39
  3
Conceptual
350
32
  3
Dim
350
34
  3
EdgeColorOff
350
41
  3
Facepattern
350
38
  3
Flat
350
2A
  3
FlatWithEdges
350
2B
  3
Gouraud
350
2C
  3
GouraudWithEdges
350
2D
  3
Hidden
350
31
  3
JitterOff
350
3F
  3
Linepattern
350
37
  3
OverhangOff
350
40
  3
Realistic
350
33
  3
Shaded
350
3E
  3
Shaded with edges
350
3D
  3
Shades of Gray
350
3A
  3
Sketchy
350
3B
  3
Thicken
350
36
  3
Wireframe
350
30
  3
X-Ray
350
3C
  0
XRECORD
  5
5EF
102
{ACAD_REACTORS
330
C
102
}
330
C
100
AcDbXrecord
280
     1
 90
        1
330
64
330
68
330
6A
  0
DICTIONARY
  5
58F
102
{ACAD_REACTORS
330
C
102
}
330
C
100
AcDbDictionary
281
     1
  3
CANNOSCALE
350
594
  3
CMLEADERSTYLE
350
591
  3
CTABLESTYLE
350
590
  3
CVIEWDETAILSTYLE
350
592
  3
CVIEWSECTIONSTYLE
350
593
  0
DICTIONARY
  5
549
102
{ACAD_REACTORS
330
548
102
}
330
548
100
AcDbDictionary
281
     1
  0
ACDBDETAILVIEWSTYLE
  5
6A
102
{ACAD_XDICTIONARY
360
5ED
102
}
102
{ACAD_REACTORS
330
69
102
}
330
69
100
AcDbModelDocViewStyle
 70
     0
  3
Imperial24
290
     0
100
AcDbDetailViewStyle
 70
     0
 71
     0
 90
        3
 71
     1
340
55
 62
   256
 40
0.24
340
0
 62
   256
 40
0.24
300

 40
0.36
280
     3
 71
     2
340
5C
 90
       25
 62
   256
 71
     3
340
55
 62
   256
 40
0.24
 90
        1
 40
0.75
 90
        1
300
%<\AcVar ViewType \f "%tc1">% %<\AcVar ViewDetailId>%\PVARIA %<\AcVar ViewScale \f "%sn">%
 71
     4
340
5C
 90
       25
 62
   256
340
5C
 90
       25
 62
   256
280
     0
  0
LAYOUT
  5
6E
102
{ACAD_REACTORS
330
61
102
}
330
61
100
AcDbPlotSettings
  1

  2
Kyocera FS-1350DN KX
  4

  6

 40
0.0
 41
0.0
 42
0.0
 43
0.0
 44
0.0
 45
0.0
 46
0.0
 47
0.0
 48
0.0
 49
0.0
140
0.0
141
0.0
142
1.0
143
1.0
 70
   688
 72
     0
 73
     0
 74
     5
  7

 75
    16
147
1.0
 76
     0
 77
     2
 78
   300
148
0.0
149
0.0
100
AcDbLayout
  1
Layout1
 70
     0
 71
     1
 10
0.0
 20
0.0
 11
12.0
 21
9.0
 12
0.0
 22
0.0
 32
0.0
 14
1.000000000000000E+20
 24
1.000000000000000E+20
 34
1.000000000000000E+20
 15
-1.000000000000000E+20
 25
-1.000000000000000E+20
 35
-1.000000000000000E+20
146
0.0
 13
0.0
 23
0.0
 33
0.0
 16
1.0
 26
0.0
 36
0.0
 17
0.0
 27
1.0
 37
0.0
 76
     0
330
6B
  0
LAYOUT
  5
72
102
{ACAD_XDICTIONARY
360
58D
102
}
102
{ACAD_REACTORS
330
61
102
}
330
61
100
AcDbPlotSettings
  1

  2
Kyocera FS-1350DN KX
  4

  6

 40
0.0
 41
0.0
 42
0.0
 43
0.0
 44
0.0
 45
0.0
 46
0.0
 47
0.0
 48
0.0
 49
0.0
140
0.0
141
0.0
142
1.0
143
1.0
 70
  1712
 72
     0
 73
     0
 74
     0
  7

 75
     0
147
1.0
 76
     0
 77
     2
 78
   300
148
0.0
149
0.0
100
AcDbLayout
  1
Model
 70
     1
 71
     0
 10
0.0
 20
0.0
 11
12.0
 21
9.0
 12
0.0
 22
0.0
 32
0.0
 14
0.0
 24
0.0
 34
0.0
 15
0.0
 25
0.0
 35
0.0
146
0.0
 13
0.0
 23
0.0
 33
0.0
 16
1.0
 26
0.0
 36
0.0
 17
0.0
 27
1.0
 37
0.0
 76
     0
330
6F
331
90
  0
MATERIAL
  5
19
102
{ACAD_XDICTIONARY
360
1A
102
}
102
{ACAD_REACTORS
330
10
102
}
330
10
100
AcDbMaterial
  1
ByBlock
 72
     0
 43
0.0208333333333333
 43
0.0
 43
0.0
 43
0.0
 43
0.0
 43
0.0208333333333333
 43
0.0
 43
0.0
 43
0.0
 43
0.0
 43
1.0
 43
0.0
 43
0.0
 43
0.0
 43
0.0
 43
1.0
 77
     0
 47
0.0208333333333333
 47
0.0
 47
0.0
 47
0.0
 47
0.0
 47
0.0208333333333333
 47
0.0
 47
0.0
 47
0.0
 47
0.0
 47
1.0
 47
0.0
 47
0.0
 47
0.0
 47
0.0
 47
1.0
171
     0
 49
0.0208333333333333
 49
0.0
 49
0.0
 49
0.0
 49
0.0
 49
0.0208333333333333
 49
0.0
 49
0.0
 49
0.0
 49
0.0
 49
1.0
 49
0.0
 49
0.0
 49
0.0
 49
0.0
 49
1.0
175
     0
142
0.0208333333333333
142
0.0
142
0.0
142
0.0
142
0.0
142
0.0208333333333333
142
0.0
142
0.0
142
0.0
142
0.0
142
1.0
142
0.0
142
0.0
142
0.0
142
0.0
142
1.0
179
     0
144
0.0208333333333333
144
0.0
144
0.0
144
0.0
144
0.0
144
0.0208333333333333
144
0.0
144
0.0
144
0.0
144
0.0
144
1.0
144
0.0
144
0.0
144
0.0
144
0.0
144
1.0
147
0.0208333333333333
147
0.0
147
0.0
147
0.0
147
0.0
147
0.0208333333333333
147
0.0
147
0.0
147
0.0
147
0.0
147
1.0
147
0.0
147
0.0
147
0.0
147
0.0
147
1.0
  0
MATERIAL
  5
11
102
{ACAD_XDICTIONARY
360
12
102
}
102
{ACAD_REACTORS
330
10
102
}
330
10
100
AcDbMaterial
  1
ByLayer
 72
     0
 43
0.0208333333333333
 43
0.0
 43
0.0
 43
0.0
 43
0.0
 43
0.0208333333333333
 43
0.0
 43
0.0
 43
0.0
 43
0.0
 43
1.0
 43
0.0
 43
0.0
 43
0.0
 43
0.0
 43
1.0
 77
     0
 47
0.0208333333333333
 47
0.0
 47
0.0
 47
0.0
 47
0.0
 47
0.0208333333333333
 47
0.0
 47
0.0
 47
0.0
 47
0.0
 47
1.0
 47
0.0
 47
0.0
 47
0.0
 47
0.0
 47
1.0
171
     0
 49
0.0208333333333333
 49
0.0
 49
0.0
 49
0.0
 49
0.0
 49
0.0208333333333333
 49
0.0
 49
0.0
 49
0.0
 49
0.0
 49
1.0
 49
0.0
 49
0.0
 49
0.0
 49
0.0
 49
1.0
175
     0
142
0.0208333333333333
142
0.0
142
0.0
142
0.0
142
0.0
142
0.0208333333333333
142
0.0
142
0.0
142
0.0
142
0.0
142
1.0
142
0.0
142
0.0
142
0.0
142
0.0
142
1.0
179
     0
144
0.0208333333333333
144
0.0
144
0.0
144
0.0
144
0.0
144
0.0208333333333333
144
0.0
144
0.0
144
0.0
144
0.0
144
1.0
144
0.0
144
0.0
144
0.0
144
0.0
144
1.0
147
0.0208333333333333
147
0.0
147
0.0
147
0.0
147
0.0
147
0.0208333333333333
147
0.0
147
0.0
147
0.0
147
0.0
147
1.0
147
0.0
147
0.0
147
0.0
147
0.0
147
1.0
  0
MATERIAL
  5
21
102
{ACAD_XDICTIONARY
360
22
102
}
102
{ACAD_REACTORS
330
10
102
}
330
10
100
AcDbMaterial
  1
Global
 72
     0
 43
0.0208333333333333
 43
0.0
 43
0.0
 43
0.0
 43
0.0
 43
0.0208333333333333
 43
0.0
 43
0.0
 43
0.0
 43
0.0
 43
1.0
 43
0.0
 43
0.0
 43
0.0
 43
0.0
 43
1.0
 77
     0
 47
0.0208333333333333
 47
0.0
 47
0.0
 47
0.0
 47
0.0
 47
0.0208333333333333
 47
0.0
 47
0.0
 47
0.0
 47
0.0
 47
1.0
 47
0.0
 47
0.0
 47
0.0
 47
0.0
 47
1.0
171
     0
 49
0.0208333333333333
 49
0.0
 49
0.0
 49
0.0
 49
0.0
 49
0.0208333333333333
 49
0.0
 49
0.0
 49
0.0
 49
0.0
 49
1.0
 49
0.0
 49
0.0
 49
0.0
 49
0.0
 49
1.0
175
     0
142
0.0208333333333333
142
0.0
142
0.0
142
0.0
142
0.0
142
0.0208333333333333
142
0.0
142
0.0
142
0.0
142
0.0
142
1.0
142
0.0
142
0.0
142
0.0
142
0.0
142
1.0
179
     0
144
0.0208333333333333
144
0.0
144
0.0
144
0.0
144
0.0
144
0.0208333333333333
144
0.0
144
0.0
144
0.0
144
0.0
144
1.0
144
0.0
144
0.0
144
0.0
144
0.0
144
1.0
147
0.0208333333333333
147
0.0
147
0.0
147
0.0
147
0.0
147
0.0208333333333333
147
0.0
147
0.0
147
0.0
147
0.0
147
1.0
147
0.0
147
0.0
147
0.0
147
0.0
147
1.0
  0
MLEADERSTYLE
  5
66
102
{ACAD_REACTORS
330
65
102
}
330
65
100
AcDbMLeaderStyle
179
     2
170
     2
171
     1
172
     0
 90
        2
 40
0.0
 41
0.0
173
     1
 91
-1056964608
340
5A
 92
       -2
290
     1
 42
0.09
291
     1
 43
0.36
  3
Standard
 44
0.18
300

342
55
174
     1
178
     6
175
     1
176
     0
 93
-1056964608
 45
0.18
292
     0
297
     0
 46
0.18
 94
-1056964608
 47
1.0
 49
1.0
140
1.0
293
     1
141
0.0
294
     1
177
     0
142
1.0
295
     0
296
     0
143
0.125
271
     0
272
     9
273
     9
298
     1
  0
MLINESTYLE
  5
5F
102
{ACAD_REACTORS
330
5E
102
}
330
5E
100
AcDbMlineStyle
  2
STANDARD
 70
     0
  3

 62
   256
 51
90.0
 52
90.0
 71
     2
 49
0.5
 62
   256
  6
BYLAYER
 49
-0.5
 62
   256
  6
BYLAYER
  0
ACDBPLACEHOLDER
  5
F
102
{ACAD_REACTORS
330
E
102
}
330
E
  0
SCALE
  5
43
102
{ACAD_REACTORS
330
42
102
}
330
42
100
AcDbScale
 70
     0
300
1:1
140
1.0
141
1.0
290
     1
  0
SCALE
  5
44
102
{ACAD_REACTORS
330
42
102
}
330
42
100
AcDbScale
 70
     0
300
1/128" = 1'-0"
140
0.0078125
141
12.0
290
     0
  0
SCALE
  5
45
102
{ACAD_REACTORS
330
42
102
}
330
42
100
AcDbScale
 70
     0
300
1/64" = 1'-0"
140
0.015625
141
12.0
290
     0
  0
SCALE
  5
46
102
{ACAD_REACTORS
330
42
102
}
330
42
100
AcDbScale
 70
     0
300
1/32" = 1'-0"
140
0.03125
141
12.0
290
     0
  0
SCALE
  5
47
102
{ACAD_REACTORS
330
42
102
}
330
42
100
AcDbScale
 70
     0
300
1/16" = 1'-0"
140
0.0625
141
12.0
290
     0
  0
SCALE
  5
48
102
{ACAD_REACTORS
330
42
102
}
330
42
100
AcDbScale
 70
     0
300
3/32" = 1'-0"
140
0.09375
141
12.0
290
     0
  0
SCALE
  5
49
102
{ACAD_REACTORS
330
42
102
}
330
42
100
AcDbScale
 70
     0
300
1/8" = 1'-0"
140
0.125
141
12.0
290
     0
  0
SCALE
  5
4A
102
{ACAD_REACTORS
330
42
102
}
330
42
100
AcDbScale
 70
     0
300
3/16" = 1'-0"
140
0.1875
141
12.0
290
     0
  0
SCALE
  5
4B
102
{ACAD_REACTORS
330
42
102
}
330
42
100
AcDbScale
 70
     0
300
1/4" = 1'-0"
140
0.25
141
12.0
290
     0
  0
SCALE
  5
4C
102
{ACAD_REACTORS
330
42
102
}
330
42
100
AcDbScale
 70
     0
300
3/8" = 1'-0"
140
0.375
141
12.0
290
     0
  0
SCALE
  5
4D
102
{ACAD_REACTORS
330
42
102
}
330
42
100
AcDbScale
 70
     0
300
1/2" = 1'-0"
140
0.5
141
12.0
290
     0
  0
SCALE
  5
4E
102
{ACAD_REACTORS
330
42
102
}
330
42
100
AcDbScale
 70
     0
300
3/4" = 1'-0"
140
0.75
141
12.0
290
     0
  0
SCALE
  5
4F
102
{ACAD_REACTORS
330
42
102
}
330
42
100
AcDbScale
 70
     0
300
1" = 1'-0"
140
1.0
141
12.0
290
     0
  0
SCALE
  5
50
102
{ACAD_REACTORS
330
42
102
}
330
42
100
AcDbScale
 70
     0
300
1-1/2" = 1'-0"
140
1.5
141
12.0
290
     0
  0
SCALE
  5
51
102
{ACAD_REACTORS
330
42
102
}
330
42
100
AcDbScale
 70
     0
300
3" = 1'-0"
140
3.0
141
12.0
290
     0
  0
SCALE
  5
52
102
{ACAD_REACTORS
330
42
102
}
330
42
100
AcDbScale
 70
     0
300
6" = 1'-0"
140
6.0
141
12.0
290
     0
  0
SCALE
  5
53
102
{ACAD_REACTORS
330
42
102
}
330
42
100
AcDbScale
 70
     0
300
1'-0" = 1'-0"
140
12.0
141
12.0
290
     0
  0
ACDBSECTIONVIEWSTYLE
  5
68
102
{ACAD_XDICTIONARY
360
5EB
102
}
102
{ACAD_REACTORS
330
67
102
}
330
67
100
AcDbModelDocViewStyle
 70
     0
  3
Imperial24
290
     0
100
AcDbSectionViewStyle
 70
     0
 71
     0
 90
       78
 71
     1
340
55
 62
   256
 40
0.24
340
0
340
0
 62
   256
 40
0.24
300
I, O, Q, S, X, Z
 40
0.48
 90
        3
 40
0.18
 90
        1
 71
     2
340
5C
 90
       25
 62
   256
340
5C
 90
       50
 62
   256
 40
0.24
 40
0.0
 40
0.24
 71
     3
340
55
 62
   256
 40
0.24
 90
        1
 40
0.75
 90
        1
300
%<\AcVar ViewType \f "%tc1">% %<\AcVar ViewSectionStartId>%-%<\AcVar ViewSectionEndId>%\PVARIA %<\AcVar ViewScale \f "%sn">%
 71
     4
 62
   256
 62
   257
300
ANSI31
 40
1.0
 90
        0
290
     0
290
     0
 90
        6
 40
0.0
 40
1.570796326794896
 40
0.2617993877991494
 40
1.308996938995747
 40
-0.2617993877991494
 40
1.832595714594046
  0
TABLESTYLE
  5
64
102
{ACAD_XDICTIONARY
360
5E9
102
}
102
{ACAD_REACTORS
330
63
102
}
330
63
100
AcDbTableStyle
280
     0
  3
Standard
 70
     0
 71
     0
 40
0.06
 41
0.06
280
     0
281
     0
  7
STANDARD
140
0.18
170
     2
 62
     0
 63
     7
283
     0
 90
      512
 91
        0
  1

274
    -2
284
     1
 64
     0
275
    -2
285
     1
 65
     0
276
    -2
286
     1
 66
     0
277
    -2
287
     1
 67
     0
278
    -2
288
     1
 68
     0
279
    -2
289
     1
 69
     0
  7
STANDARD
140
0.25
170
     5
 62
     0
 63
     7
283
     0
 90
      512
 91
        0
  1

274
    -2
284
     1
 64
     0
275
    -2
285
     1
 65
     0
276
    -2
286
     1
 66
     0
277
    -2
287
     1
 67
     0
278
    -2
288
     1
 68
     0
279
    -2
289
     1
 69
     0
  7
STANDARD
140
0.18
170
     5
 62
     0
 63
     7
283
     0
 90
      512
 91
        0
  1

274
    -2
284
     1
 64
     0
275
    -2
285
     1
 65
     0
276
    -2
286
     1
 66
     0
277
    -2
287
     1
 67
     0
278
    -2
288
     1
 68
     0
279
    -2
289
     1
 69
     0
  0
VISUALSTYLE
  5
2F
102
{ACAD_REACTORS
330
29
102
}
330
29
100
AcDbVisualStyle
  2
2dWireframe
 70
     4
177
     3
291
     0
 70
    58
 90
        0
176
     1
 90
        2
176
     1
 90
        0
176
     1
 90
        0
176
     1
 40
0.6
176
     1
 40
30.0
176
     1
 62
     7
420
 16777215
176
     1
 90
        1
176
     1
 90
        4
176
     1
 62
     7
176
     1
 62
   257
176
     1
 90
        1
176
     1
 90
        1
176
     1
 40
1.0
176
     1
 90
        0
176
     1
 62
   257
176
     1
 40
1.0
176
     1
 90
        1
176
     1
 90
        6
176
     1
 90
        2
176
     1
 62
     7
176
     1
 90
        5
176
     1
 90
        0
176
     1
 90
        0
176
     1
290
     0
176
     1
 90
        1
176
     1
 40
0.0
176
     1
 90
        0
176
     1
290
     1
176
     1
290
     1
176
     1
290
     0
176
     1
290
     0
176
     1
290
     0
176
     1
290
     0
176
     1
290
     0
176
     1
290
     0
176
     1
290
     0
176
     1
 90
       50
176
     1
 40
0.0
176
     1
 40
1.0
176
     1
 90
        0
176
     1
 62
    18
420
        0
176
     1
 90
       50
176
     1
 90
        3
176
     1
 62
     5
420
      255
176
     1
290
     0
176
     1
 90
       50
176
     1
 90
       50
176
     1
 90
       50
176
     1
290
     0
176
     1
 90
       50
176
     1
 62
   256
176
     0
 40
1.0
176
     0
 90
        2
176
     1
  1
strokes_ogs.tif
176
     1
290
     0
176
     1
 40
1.0
176
     1
 40
1.0
176
     1
  0
VISUALSTYLE
  5
2E
102
{ACAD_REACTORS
330
29
102
}
330
29
100
AcDbVisualStyle
  2
Basic
 70
     7
177
     3
291
     1
 70
    58
 90
        1
176
     1
 90
        0
176
     1
 90
        1
176
     1
 90
        0
176
     1
 40
0.6
176
     1
 40
30.0
176
     1
 62
     7
420
 16777215
176
     1
 90
        0
176
     1
 90
        4
176
     1
 62
     7
176
     1
 62
   257
176
     1
 90
        1
176
     1
 90
        1
176
     1
 40
1.0
176
     1
 90
        8
176
     1
 62
     7
176
     1
 40
1.0
176
     1
 90
        1
176
     1
 90
        6
176
     1
 90
        2
176
     1
 62
     7
176
     1
 90
        5
176
     1
 90
        0
176
     1
 90
        0
176
     1
290
     0
176
     1
 90
        1
176
     1
 40
0.0
176
     1
 90
        0
176
     1
290
     0
176
     1
290
     1
176
     1
290
     1
176
     1
290
     0
176
     1
290
     0
176
     1
290
     0
176
     1
290
     0
176
     1
290
     0
176
     1
290
     0
176
     1
 90
       50
176
     1
 40
0.0
176
     1
 40
1.0
176
     1
 90
        0
176
     1
 62
    18
420
        0
176
     1
 90
       50
176
     1
 90
        3
176
     1
 62
     5
420
      255
176
     1
290
     0
176
     1
 90
       50
176
     1
 90
       50
176
     1
 90
       50
176
     1
290
     0
176
     1
 90
       50
176
     1
 62
   256
176
     0
 40
1.0
176
     0
 90
        2
176
     1
  1
strokes_ogs.tif
176
     1
290
     0
176
     1
 40
1.0
176
     1
 40
1.0
176
     1
  0
VISUALSTYLE
  5
35
102
{ACAD_REACTORS
330
29
102
}
330
29
100
AcDbVisualStyle
  2
Brighten
 70
    12
177
     3
291
     1
 70
    58
 90
        2
176
     1
 90
        2
176
     1
 90
        0
176
     1
 90
        0
176
     1
 40
0.6
176
     1
 40
30.0
176
     1
 62
     7
420
 16777215
176
     1
 90
        1
176
     1
 90
        4
176
     1
 62
     7
176
     1
 62
   257
176
     1
 90
        1
176
     1
 90
        1
176
     1
 40
1.0
176
     1
 90
        8
176
     1
 62
     7
176
     1
 40
1.0
176
     1
 90
        1
176
     1
 90
        6
176
     1
 90
        2
176
     1
 62
     7
176
     1
 90
        5
176
     1
 90
        0
176
     1
 90
        0
176
     1
290
     0
176
     1
 90
        1
176
     1
 40
50.0
176
     1
 90
        0
176
     1
290
     0
176
     1
290
     1
176
     1
290
     1
176
     1
290
     0
176
     1
290
     0
176
     1
290
     0
176
     1
290
     0
176
     1
290
     0
176
     1
290
     0
176
     1
 90
       50
176
     1
 40
0.0
176
     1
 40
1.0
176
     1
 90
        0
176
     1
 62
    18
420
        0
176
     1
 90
       50
176
     1
 90
        3
176
     1
 62
     5
420
      255
176
     1
290
     0
176
     1
 90
       50
176
     1
 90
       50
176
     1
 90
       50
176
     1
290
     0
176
     1
 90
       50
176
     1
 62
   256
176
     0
 40
1.0
176
     0
 90
        2
176
     1
  1
strokes_ogs.tif
176
     1
290
     0
176
     1
 40
1.0
176
     1
 40
1.0
176
     1
  0
VISUALSTYLE
  5
39
102
{ACAD_REACTORS
330
29
102
}
330
29
100
AcDbVisualStyle
  2
ColorChange
 70
    16
177
     3
291
     1
 70
    58
 90
        2
176
     1
 90
        2
176
     1
 90
        3
176
     1
 90
        0
176
     1
 40
0.6
176
     1
 40
30.0
176
     1
 62
     8
420
  8421504
176
     1
 90
        1
176
     1
 90
        4
176
     1
 62
     7
176
     1
 62
   257
176
     1
 90
        1
176
     1
 90
        1
176
     1
 40
1.0
176
     1
 90
        8
176
     1
 62
     8
420
  8421504
176
     1
 40
1.0
176
     1
 90
        1
176
     1
 90
        6
176
     1
 90
        2
176
     1
 62
     7
176
     1
 90
        5
176
     1
 90
        0
176
     1
 90
        0
176
     1
290
     0
176
     1
 90
        1
176
     1
 40
0.0
176
     1
 90
        0
176
     1
290
     0
176
     1
290
     1
176
     1
290
     1
176
     1
290
     0
176
     1
290
     0
176
     1
290
     0
176
     1
290
     0
176
     1
290
     0
176
     1
290
     0
176
     1
 90
       50
176
     1
 40
0.0
176
     1
 40
1.0
176
     1
 90
        0
176
     1
 62
    18
420
        0
176
     1
 90
       50
176
     1
 90
        3
176
     1
 62
     5
420
      255
176
     1
290
     0
176
     1
 90
       50
176
     1
 90
       50
176
     1
 90
       50
176
     1
290
     0
176
     1
 90
       50
176
     1
 62
   256
176
     0
 40
1.0
176
     0
 90
        2
176
     1
  1
strokes_ogs.tif
176
     1
290
     0
176
     1
 40
1.0
176
     1
 40
1.0
176
     1
  0
VISUALSTYLE
  5
32
102
{ACAD_REACTORS
330
29
102
}
330
29
100
AcDbVisualStyle
  2
Conceptual
 70
     9
177
     3
291
     0
 70
    58
 90
        3
176
     1
 90
        2
176
     1
 90
        0
176
     1
 90
        0
176
     1
 40
0.6
176
     1
 40
30.0
176
     1
 62
     7
420
 16777215
176
     1
 90
        2
176
     1
 90
        2
176
     1
 62
     7
176
     1
 62
   257
176
     1
 90
        1
176
     1
 90
        1
176
     1
 40
179.0
176
     1
 90
        8
176
     1
 62
     7
176
     1
 40
1.0
176
     1
 90
        1
176
     1
 90
        6
176
     1
 90
        2
176
     1
 62
     7
176
     1
 90
        3
176
     1
 90
        0
176
     1
 90
        0
176
     1
290
     0
176
     1
 90
        1
176
     1
 40
0.0
176
     1
 90
        0
176
     1
290
     0
176
     1
290
     1
176
     1
290
     1
176
     1
290
     0
176
     1
290
     0
176
     1
290
     0
176
     1
290
     0
176
     1
290
     0
176
     1
290
     0
176
     1
 90
       50
176
     1
 40
0.0
176
     1
 40
1.0
176
     1
 90
        0
176
     1
 62
    18
420
        0
176
     1
 90
       50
176
     1
 90
        3
176
     1
 62
     5
420
      255
176
     1
290
     0
176
     1
 90
       50
176
     1
 90
       50
176
     1
 90
       50
176
     1
290
     0
176
     1
 90
       50
176
     1
 62
   256
176
     0
 40
1.0
176
     0
 90
        2
176
     1
  1
strokes_ogs.tif
176
     1
290
     0
176
     1
 40
1.0
176
     1
 40
1.0
176
     1
  0
VISUALSTYLE
  5
34
102
{ACAD_REACTORS
330
29
102
}
330
29
100
AcDbVisualStyle
  2
Dim
 70
    11
177
     3
291
     1
 70
    58
 90
        2
176
     1
 90
        2
176
     1
 90
        0
176
     1
 90
        0
176
     1
 40
0.6
176
     1
 40
30.0
176
     1
 62
     7
420
 16777215
176
     1
 90
        1
176
     1
 90
        4
176
     1
 62
     7
176
     1
 62
   257
176
     1
 90
        1
176
     1
 90
        1
176
     1
 40
1.0
176
     1
 90
        8
176
     1
 62
     7
176
     1
 40
1.0
176
     1
 90
        1
176
     1
 90
        6
176
     1
 90
        2
176
     1
 62
     7
176
     1
 90
        5
176
     1
 90
        0
176
     1
 90
        0
176
     1
290
     0
176
     1
 90
        1
176
     1
 40
-50.0
176
     1
 90
        0
176
     1
290
     0
176
     1
290
     1
176
     1
290
     1
176
     1
290
     0
176
     1
290
     0
176
     1
290
     0
176
     1
290
     0
176
     1
290
     0
176
     1
290
     0
176
     1
 90
       50
176
     1
 40
0.0
176
     1
 40
1.0
176
     1
 90
        0
176
     1
 62
    18
420
        0
176
     1
 90
       50
176
     1
 90
        3
176
     1
 62
     5
420
      255
176
     1
290
     0
176
     1
 90
       50
176
     1
 90
       50
176
     1
 90
       50
176
     1
290
     0
176
     1
 90
       50
176
     1
 62
   256
176
     0
 40
1.0
176
     0
 90
        2
176
     1
  1
strokes_ogs.tif
176
     1
290
     0
176
     1
 40
1.0
176
     1
 40
1.0
176
     1
  0
VISUALSTYLE
  5
41
102
{ACAD_REACTORS
330
29
102
}
330
29
100
AcDbVisualStyle
  2
EdgeColorOff
 70
    22
177
     3
291
     1
 70
    58
 90
        2
176
     0
 90
        2
176
     0
 90
        0
176
     0
 90
        0
176
     0
 40
0.6
176
     0
 40
30.0
176
     0
 62
     7
420
 16777215
176
     0
 90
        1
176
     0
 90
        4
176
     0
 62
     7
176
     0
 62
   257
176
     0
 90
        1
176
     0
 90
        1
176
     0
 40
1.0
176
     0
 90
        8
176
     2
 62
     7
176
     0
 40
1.0
176
     0
 90
        1
176
     0
 90
        6
176
     0
 90
        2
176
     0
 62
     7
176
     0
 90
        5
176
     0
 90
        0
176
     0
 90
        0
176
     0
290
     0
176
     0
 90
        1
176
     0
 40
0.0
176
     0
 90
        0
176
     0
290
     0
176
     0
290
     1
176
     0
290
     1
176
     0
290
     0
176
     0
290
     0
176
     0
290
     0
176
     0
290
     0
176
     0
290
     0
176
     0
290
     0
176
     0
 90
       50
176
     0
 40
0.0
176
     0
 40
1.0
176
     0
 90
        0
176
     0
 62
    18
420
        0
176
     0
 90
       50
176
     0
 90
        3
176
     0
 62
     5
420
      255
176
     0
290
     0
176
     0
 90
       50
176
     0
 90
       50
176
     0
 90
       50
176
     0
290
     0
176
     0
 90
       50
176
     0
 62
   256
176
     0
 40
1.0
176
     0
 90
        2
176
     0
  1
strokes_ogs.tif
176
     0
290
     0
176
     0
 40
1.0
176
     0
 40
1.0
176
     0
  0
VISUALSTYLE
  5
38
102
{ACAD_REACTORS
330
29
102
}
330
29
100
AcDbVisualStyle
  2
Facepattern
 70
    15
177
     3
291
     1
 70
    58
 90
        2
176
     1
 90
        2
176
     1
 90
        0
176
     1
 90
        0
176
     1
 40
0.6
176
     1
 40
30.0
176
     1
 62
     7
420
 16777215
176
     1
 90
        1
176
     1
 90
        4
176
     1
 62
     7
176
     1
 62
   257
176
     1
 90
        1
176
     1
 90
        1
176
     1
 40
1.0
176
     1
 90
        8
176
     1
 62
     7
176
     1
 40
1.0
176
     1
 90
        1
176
     1
 90
        6
176
     1
 90
        2
176
     1
 62
     7
176
     1
 90
        5
176
     1
 90
        0
176
     1
 90
        0
176
     1
290
     0
176
     1
 90
        1
176
     1
 40
0.0
176
     1
 90
        0
176
     1
290
     0
176
     1
290
     1
176
     1
290
     1
176
     1
290
     0
176
     1
290
     0
176
     1
290
     0
176
     1
290
     0
176
     1
290
     0
176
     1
290
     0
176
     1
 90
       50
176
     1
 40
0.0
176
     1
 40
1.0
176
     1
 90
        0
176
     1
 62
    18
420
        0
176
     1
 90
       50
176
     1
 90
        3
176
     1
 62
     5
420
      255
176
     1
290
     0
176
     1
 90
       50
176
     1
 90
       50
176
     1
 90
       50
176
     1
290
     0
176
     1
 90
       50
176
     1
 62
   256
176
     0
 40
1.0
176
     0
 90
        2
176
     1
  1
strokes_ogs.tif
176
     1
290
     0
176
     1
 40
1.0
176
     1
 40
1.0
176
     1
  0
VISUALSTYLE
  5
2A
102
{ACAD_REACTORS
330
29
102
}
330
29
100
AcDbVisualStyle
  2
Flat
 70
     0
177
     3
291
     1
 70
    58
 90
        2
176
     1
 90
        1
176
     1
 90
        1
176
     1
 90
        2
176
     1
 40
0.6
176
     1
 40
30.0
176
     1
 62
     7
420
 16777215
176
     1
 90
        0
176
     1
 90
        0
176
     1
 62
     7
176
     1
 62
   257
176
     1
 90
        1
176
     1
 90
        1
176
     1
 40
1.0
176
     1
 90
        8
176
     1
 62
     7
176
     1
 40
1.0
176
     1
 90
        1
176
     1
 90
        6
176
     1
 90
        2
176
     1
 62
     7
176
     1
 90
        5
176
     1
 90
        0
176
     1
 90
        0
176
     1
290
     0
176
     1
 90
       13
176
     1
 40
0.0
176
     1
 90
        0
176
     1
290
     0
176
     1
290
     1
176
     1
290
     1
176
     1
290
     0
176
     1
290
     0
176
     1
290
     0
176
     1
290
     0
176
     1
290
     0
176
     1
290
     0
176
     1
 90
       50
176
     1
 40
0.0
176
     1
 40
1.0
176
     1
 90
        0
176
     1
 62
    18
420
        0
176
     1
 90
       50
176
     1
 90
        3
176
     1
 62
     5
420
      255
176
     1
290
     0
176
     1
 90
       50
176
     1
 90
       50
176
     1
 90
       50
176
     1
290
     0
176
     1
 90
       50
176
     1
 62
   256
176
     0
 40
1.0
176
     0
 90
        2
176
     1
  1
strokes_ogs.tif
176
     1
290
     0
176
     1
 40
1.0
176
     1
 40
1.0
176
     1
  0
VISUALSTYLE
  5
2B
102
{ACAD_REACTORS
330
29
102
}
330
29
100
AcDbVisualStyle
  2
FlatWithEdges
 70
     1
177
     3
291
     1
 70
    58
 90
        2
176
     1
 90
        1
176
     1
 90
        1
176
     1
 90
        2
176
     1
 40
0.6
176
     1
 40
30.0
176
     1
 62
     7
420
 16777215
176
     1
 90
        1
176
     1
 90
        0
176
     1
 62
     7
176
     1
 62
   257
176
     1
 90
        1
176
     1
 90
        1
176
     1
 40
1.0
176
     1
 90
        0
176
     1
 62
   257
176
     1
 40
1.0
176
     1
 90
        1
176
     1
 90
        6
176
     1
 90
        2
176
     1
 62
     7
176
     1
 90
        5
176
     1
 90
        0
176
     1
 90
        0
176
     1
290
     0
176
     1
 90
       13
176
     1
 40
0.0
176
     1
 90
        0
176
     1
290
     0
176
     1
290
     1
176
     1
290
     1
176
     1
290
     0
176
     1
290
     0
176
     1
290
     0
176
     1
290
     0
176
     1
290
     0
176
     1
290
     0
176
     1
 90
       50
176
     1
 40
0.0
176
     1
 40
1.0
176
     1
 90
        0
176
     1
 62
    18
420
        0
176
     1
 90
       50
176
     1
 90
        3
176
     1
 62
     5
420
      255
176
     1
290
     0
176
     1
 90
       50
176
     1
 90
       50
176
     1
 90
       50
176
     1
290
     0
176
     1
 90
       50
176
     1
 62
   256
176
     0
 40
1.0
176
     0
 90
        2
176
     1
  1
strokes_ogs.tif
176
     1
290
     0
176
     1
 40
1.0
176
     1
 40
1.0
176
     1
  0
VISUALSTYLE
  5
2C
102
{ACAD_REACTORS
330
29
102
}
330
29
100
AcDbVisualStyle
  2
Gouraud
 70
     2
177
     3
291
     1
 70
    58
 90
        2
176
     1
 90
        2
176
     1
 90
        1
176
     1
 90
        2
176
     1
 40
0.6
176
     1
 40
30.0
176
     1
 62
     7
420
 16777215
176
     1
 90
        0
176
     1
 90
        0
176
     1
 62
     7
176
     1
 62
   257
176
     1
 90
        1
176
     1
 90
        1
176
     1
 40
1.0
176
     1
 90
        0
176
     1
 62
     7
176
     1
 40
1.0
176
     1
 90
        1
176
     1
 90
        6
176
     1
 90
        2
176
     1
 62
     7
176
     1
 90
        5
176
     1
 90
        0
176
     1
 90
        0
176
     1
290
     0
176
     1
 90
       13
176
     1
 40
0.0
176
     1
 90
        0
176
     1
290
     0
176
     1
290
     1
176
     1
290
     1
176
     1
290
     0
176
     1
290
     0
176
     1
290
     0
176
     1
290
     0
176
     1
290
     0
176
     1
290
     0
176
     1
 90
       50
176
     1
 40
0.0
176
     1
 40
1.0
176
     1
 90
        0
176
     1
 62
    18
420
        0
176
     1
 90
       50
176
     1
 90
        3
176
     1
 62
     5
420
      255
176
     1
290
     0
176
     1
 90
       50
176
     1
 90
       50
176
     1
 90
       50
176
     1
290
     0
176
     1
 90
       50
176
     1
 62
   256
176
     0
 40
1.0
176
     0
 90
        2
176
     1
  1
strokes_ogs.tif
176
     1
290
     0
176
     1
 40
1.0
176
     1
 40
1.0
176
     1
  0
VISUALSTYLE
  5
2D
102
{ACAD_REACTORS
330
29
102
}
330
29
100
AcDbVisualStyle
  2
GouraudWithEdges
 70
     3
177
     3
291
     1
 70
    58
 90
        2
176
     1
 90
        2
176
     1
 90
        1
176
     1
 90
        2
176
     1
 40
0.6
176
     1
 40
30.0
176
     1
 62
     7
420
 16777215
176
     1
 90
        1
176
     1
 90
        0
176
     1
 62
     7
176
     1
 62
   257
176
     1
 90
        1
176
     1
 90
        1
176
     1
 40
1.0
176
     1
 90
        0
176
     1
 62
   257
176
     1
 40
1.0
176
     1
 90
        1
176
     1
 90
        6
176
     1
 90
        2
176
     1
 62
     7
176
     1
 90
        5
176
     1
 90
        0
176
     1
 90
        0
176
     1
290
     0
176
     1
 90
       13
176
     1
 40
0.0
176
     1
 90
        0
176
     1
290
     0
176
     1
290
     1
176
     1
290
     1
176
     1
290
     0
176
     1
290
     0
176
     1
290
     0
176
     1
290
     0
176
     1
290
     0
176
     1
290
     0
176
     1
 90
       50
176
     1
 40
0.0
176
     1
 40
1.0
176
     1
 90
        0
176
     1
 62
    18
420
        0
176
     1
 90
       50
176
     1
 90
        3
176
     1
 62
     5
420
      255
176
     1
290
     0
176
     1
 90
       50
176
     1
 90
       50
176
     1
 90
       50
176
     1
290
     0
176
     1
 90
       50
176
     1
 62
   256
176
     0
 40
1.0
176
     0
 90
        2
176
     1
  1
strokes_ogs.tif
176
     1
290
     0
176
     1
 40
1.0
176
     1
 40
1.0
176
     1
  0
VISUALSTYLE
  5
31
102
{ACAD_REACTORS
330
29
102
}
330
29
100
AcDbVisualStyle
  2
Hidden
 70
     6
177
     3
291
     0
 70
    58
 90
        1
176
     1
 90
        2
176
     1
 90
        2
176
     1
 90
        0
176
     1
 40
0.6
176
     1
 40
30.0
176
     1
 62
     7
420
 16777215
176
     1
 90
        2
176
     1
 90
        2
176
     1
 62
     7
176
     1
 62
   257
176
     1
 90
        2
176
     1
 90
        1
176
     1
 40
40.0
176
     1
 90
        0
176
     1
 62
   257
176
     1
 40
1.0
176
     1
 90
        1
176
     1
 90
        6
176
     1
 90
        2
176
     1
 62
     7
176
     1
 90
        3
176
     1
 90
        0
176
     1
 90
        0
176
     1
290
     0
176
     1
 90
        1
176
     1
 40
0.0
176
     1
 90
        0
176
     1
290
     0
176
     1
290
     1
176
     1
290
     1
176
     1
290
     0
176
     1
290
     0
176
     1
290
     0
176
     1
290
     0
176
     1
290
     0
176
     1
290
     0
176
     1
 90
       50
176
     1
 40
0.0
176
     1
 40
1.0
176
     1
 90
        0
176
     1
 62
    18
420
        0
176
     1
 90
       50
176
     1
 90
        3
176
     1
 62
     5
420
      255
176
     1
290
     0
176
     1
 90
       50
176
     1
 90
       50
176
     1
 90
       50
176
     1
290
     0
176
     1
 90
       50
176
     1
 62
   256
176
     0
 40
1.0
176
     0
 90
        2
176
     1
  1
strokes_ogs.tif
176
     1
290
     0
176
     1
 40
1.0
176
     1
 40
1.0
176
     1
  0
VISUALSTYLE
  5
3F
102
{ACAD_REACTORS
330
29
102
}
330
29
100
AcDbVisualStyle
  2
JitterOff
 70
    20
177
     3
291
     1
 70
    58
 90
        2
176
     0
 90
        2
176
     0
 90
        0
176
     0
 90
        0
176
     0
 40
0.6
176
     0
 40
30.0
176
     0
 62
     7
420
 16777215
176
     0
 90
        1
176
     0
 90
        4
176
     0
 62
     7
176
     0
 62
   257
176
     0
 90
        1
176
     0
 90
        1
176
     0
 40
1.0
176
     0
 90
       10
176
     2
 62
     7
176
     0
 40
1.0
176
     0
 90
        1
176
     0
 90
        6
176
     0
 90
        2
176
     0
 62
     7
176
     0
 90
        5
176
     0
 90
        0
176
     0
 90
        0
176
     0
290
     0
176
     0
 90
        1
176
     0
 40
0.0
176
     0
 90
        0
176
     0
290
     0
176
     0
290
     1
176
     0
290
     1
176
     0
290
     0
176
     0
290
     0
176
     0
290
     0
176
     0
290
     0
176
     0
290
     0
176
     0
290
     0
176
     0
 90
       50
176
     0
 40
0.0
176
     0
 40
1.0
176
     0
 90
        0
176
     0
 62
    18
420
        0
176
     0
 90
       50
176
     0
 90
        3
176
     0
 62
     5
420
      255
176
     0
290
     0
176
     0
 90
       50
176
     0
 90
       50
176
     0
 90
       50
176
     0
290
     0
176
     0
 90
       50
176
     0
 62
   256
176
     0
 40
1.0
176
     0
 90
        2
176
     0
  1
strokes_ogs.tif
176
     0
290
     0
176
     0
 40
1.0
176
     0
 40
1.0
176
     0
  0
VISUALSTYLE
  5
37
102
{ACAD_REACTORS
330
29
102
}
330
29
100
AcDbVisualStyle
  2
Linepattern
 70
    14
177
     3
291
     1
 70
    58
 90
        2
176
     1
 90
        2
176
     1
 90
        0
176
     1
 90
        0
176
     1
 40
0.6
176
     1
 40
30.0
176
     1
 62
     7
420
 16777215
176
     1
 90
        1
176
     1
 90
        4
176
     1
 62
     7
176
     1
 62
   257
176
     1
 90
        7
176
     1
 90
        7
176
     1
 40
1.0
176
     1
 90
        8
176
     1
 62
     7
176
     1
 40
1.0
176
     1
 90
        1
176
     1
 90
        6
176
     1
 90
        2
176
     1
 62
     7
176
     1
 90
        5
176
     1
 90
        0
176
     1
 90
        0
176
     1
290
     0
176
     1
 90
        1
176
     1
 40
0.0
176
     1
 90
        0
176
     1
290
     0
176
     1
290
     1
176
     1
290
     1
176
     1
290
     0
176
     1
290
     0
176
     1
290
     0
176
     1
290
     0
176
     1
290
     0
176
     1
290
     0
176
     1
 90
       50
176
     1
 40
0.0
176
     1
 40
1.0
176
     1
 90
        0
176
     1
 62
    18
420
        0
176
     1
 90
       50
176
     1
 90
        3
176
     1
 62
     5
420
      255
176
     1
290
     0
176
     1
 90
       50
176
     1
 90
       50
176
     1
 90
       50
176
     1
290
     0
176
     1
 90
       50
176
     1
 62
   256
176
     0
 40
1.0
176
     0
 90
        2
176
     1
  1
strokes_ogs.tif
176
     1
290
     0
176
     1
 40
1.0
176
     1
 40
1.0
176
     1
  0
VISUALSTYLE
  5
40
102
{ACAD_REACTORS
330
29
102
}
330
29
100
AcDbVisualStyle
  2
OverhangOff
 70
    21
177
     3
291
     1
 70
    58
 90
        2
176
     0
 90
        2
176
     0
 90
        0
176
     0
 90
        0
176
     0
 40
0.6
176
     0
 40
30.0
176
     0
 62
     7
420
 16777215
176
     0
 90
        1
176
     0
 90
        4
176
     0
 62
     7
176
     0
 62
   257
176
     0
 90
        1
176
     0
 90
        1
176
     0
 40
1.0
176
     0
 90
        9
176
     2
 62
     7
176
     0
 40
1.0
176
     0
 90
        1
176
     0
 90
        6
176
     0
 90
        2
176
     0
 62
     7
176
     0
 90
        5
176
     0
 90
        0
176
     0
 90
        0
176
     0
290
     0
176
     0
 90
        1
176
     0
 40
0.0
176
     0
 90
        0
176
     0
290
     0
176
     0
290
     1
176
     0
290
     1
176
     0
290
     0
176
     0
290
     0
176
     0
290
     0
176
     0
290
     0
176
     0
290
     0
176
     0
290
     0
176
     0
 90
       50
176
     0
 40
0.0
176
     0
 40
1.0
176
     0
 90
        0
176
     0
 62
    18
420
        0
176
     0
 90
       50
176
     0
 90
        3
176
     0
 62
     5
420
      255
176
     0
290
     0
176
     0
 90
       50
176
     0
 90
       50
176
     0
 90
       50
176
     0
290
     0
176
     0
 90
       50
176
     0
 62
   256
176
     0
 40
1.0
176
     0
 90
        2
176
     0
  1
strokes_ogs.tif
176
     0
290
     0
176
     0
 40
1.0
176
     0
 40
1.0
176
     0
  0
VISUALSTYLE
  5
33
102
{ACAD_REACTORS
330
29
102
}
330
29
100
AcDbVisualStyle
  2
Realistic
 70
     8
177
     3
291
     0
 70
    58
 90
        2
176
     1
 90
        3
176
     1
 90
        0
176
     1
 90
        2
176
     1
 40
0.6
176
     1
 40
30.0
176
     1
 62
     7
420
 16777215
176
     1
 90
        0
176
     1
 90
        0
176
     1
 62
     7
176
     1
 62
   257
176
     1
 90
        1
176
     1
 90
        1
176
     1
 40
1.0
176
     1
 90
        8
176
     1
 62
   257
176
     1
 40
1.0
176
     1
 90
        1
176
     1
 90
        6
176
     1
 90
        2
176
     1
 62
     7
176
     1
 90
        3
176
     1
 90
        0
176
     1
 90
        0
176
     1
290
     0
176
     1
 90
       13
176
     1
 40
0.0
176
     1
 90
        0
176
     1
290
     0
176
     1
290
     1
176
     1
290
     1
176
     1
290
     0
176
     1
290
     0
176
     1
290
     0
176
     1
290
     0
176
     1
290
     0
176
     1
290
     0
176
     1
 90
       50
176
     1
 40
0.0
176
     1
 40
1.0
176
     1
 90
        0
176
     1
 62
    18
420
        0
176
     1
 90
       50
176
     1
 90
        3
176
     1
 62
     5
420
      255
176
     1
290
     0
176
     1
 90
       50
176
     1
 90
       50
176
     1
 90
       50
176
     1
290
     0
176
     1
 90
       50
176
     1
 62
   256
176
     0
 40
1.0
176
     0
 90
        2
176
     1
  1
strokes_ogs.tif
176
     1
290
     0
176
     1
 40
1.0
176
     1
 40
1.0
176
     1
  0
VISUALSTYLE
  5
3E
102
{ACAD_REACTORS
330
29
102
}
330
29
100
AcDbVisualStyle
  2
Shaded
 70
    27
177
     3
291
     0
 70
    58
 90
        2
176
     1
 90
        2
176
     1
 90
        1
176
     1
 90
        2
176
     1
 40
0.6
176
     1
 40
30.0
176
     1
 62
     7
420
 16777215
176
     1
 90
        0
176
     1
 90
        4
176
     1
 62
     7
176
     1
 62
   257
176
     1
 90
        1
176
     1
 90
        1
176
     1
 40
1.0
176
     1
 90
        8
176
     1
 62
   257
176
     1
 40
1.0
176
     1
 90
        1
176
     1
 90
        6
176
     1
 90
        2
176
     1
 62
     8
420
  7895160
176
     1
 90
        3
176
     1
 90
        0
176
     1
 90
        0
176
     1
290
     0
176
     1
 90
        5
176
     1
 40
0.0
176
     1
 90
        0
176
     1
290
     0
176
     1
290
     1
176
     1
290
     1
176
     1
290
     0
176
     1
290
     0
176
     1
290
     0
176
     1
290
     0
176
     1
290
     0
176
     1
290
     0
176
     1
 90
       50
176
     1
 40
0.0
176
     1
 40
1.0
176
     1
 90
        0
176
     1
 62
    18
420
        0
176
     1
 90
       50
176
     1
 90
        3
176
     1
 62
     5
420
      255
176
     1
290
     0
176
     1
 90
       50
176
     1
 90
       50
176
     1
 90
       50
176
     1
290
     0
176
     1
 90
       50
176
     1
 62
   256
176
     0
 40
1.0
176
     0
 90
        2
176
     1
  1
strokes_ogs.tif
176
     1
290
     0
176
     1
 40
1.0
176
     1
 40
1.0
176
     1
  0
VISUALSTYLE
  5
3D
102
{ACAD_REACTORS
330
29
102
}
330
29
100
AcDbVisualStyle
  2
Shaded with edges
 70
    26
177
     3
291
     0
 70
    58
 90
        2
176
     1
 90
        2
176
     1
 90
        1
176
     1
 90
        2
176
     1
 40
0.6
176
     1
 40
30.0
176
     1
 62
     7
420
 16777215
176
     1
 90
        1
176
     1
 90
       10
176
     1
 62
     7
176
     1
 62
   257
176
     1
 90
        2
176
     1
 90
        1
176
     1
 40
1.0
176
     1
 90
        8
176
     1
 62
   257
176
     1
 40
1.0
176
     1
 90
        1
176
     1
 90
        6
176
     1
 90
        2
176
     1
 62
     7
176
     1
 90
        3
176
     1
 90
        0
176
     1
 90
        0
176
     1
290
     0
176
     1
 90
        5
176
     1
 40
0.0
176
     1
 90
        0
176
     1
290
     0
176
     1
290
     1
176
     1
290
     1
176
     1
290
     0
176
     1
290
     0
176
     1
290
     0
176
     1
290
     0
176
     1
290
     0
176
     1
290
     0
176
     1
 90
       50
176
     1
 40
0.0
176
     1
 40
1.0
176
     1
 90
        0
176
     1
 62
    18
420
        0
176
     1
 90
       50
176
     1
 90
        3
176
     1
 62
     5
420
      255
176
     1
290
     0
176
     1
 90
       50
176
     1
 90
       50
176
     1
 90
       50
176
     1
290
     0
176
     1
 90
       50
176
     1
 62
   256
176
     0
 40
1.0
176
     0
 90
        2
176
     1
  1
strokes_ogs.tif
176
     1
290
     0
176
     1
 40
1.0
176
     1
 40
1.0
176
     1
  0
VISUALSTYLE
  5
3A
102
{ACAD_REACTORS
330
29
102
}
330
29
100
AcDbVisualStyle
  2
Shades of Gray
 70
    23
177
     3
291
     0
 70
    58
 90
        2
176
     1
 90
        2
176
     1
 90
        3
176
     1
 90
        0
176
     1
 40
0.6
176
     1
 40
30.0
176
     1
 62
     7
420
 16777215
176
     1
 90
        2
176
     1
 90
        2
176
     1
 62
     7
176
     1
 62
     7
176
     1
 90
        1
176
     1
 90
        1
176
     1
 40
40.0
176
     1
 90
        8
176
     1
 62
     7
176
     1
 40
1.0
176
     1
 90
        1
176
     1
 90
        6
176
     1
 90
        2
176
     1
 62
     7
176
     1
 90
        3
176
     1
 90
        0
176
     1
 90
        0
176
     1
290
     0
176
     1
 90
        1
176
     1
 40
0.0
176
     1
 90
        0
176
     1
290
     0
176
     1
290
     1
176
     1
290
     1
176
     1
290
     0
176
     1
290
     0
176
     1
290
     0
176
     1
290
     0
176
     1
290
     0
176
     1
290
     0
176
     1
 90
       50
176
     1
 40
0.0
176
     1
 40
1.0
176
     1
 90
        0
176
     1
 62
    18
420
        0
176
     1
 90
       50
176
     1
 90
        3
176
     1
 62
     5
420
      255
176
     1
290
     0
176
     1
 90
       50
176
     1
 90
       50
176
     1
 90
       50
176
     1
290
     0
176
     1
 90
       50
176
     1
 62
   256
176
     0
 40
1.0
176
     0
 90
        2
176
     1
  1
strokes_ogs.tif
176
     1
290
     0
176
     1
 40
1.0
176
     1
 40
1.0
176
     1
  0
VISUALSTYLE
  5
3B
102
{ACAD_REACTORS
330
29
102
}
330
29
100
AcDbVisualStyle
  2
Sketchy
 70
    24
177
     3
291
     0
 70
    58
 90
        1
176
     1
 90
        2
176
     1
 90
        2
176
     1
 90
        0
176
     1
 40
0.6
176
     1
 40
30.0
176
     1
 62
     7
420
 16777215
176
     1
 90
        2
176
     1
 90
        2
176
     1
 62
     7
176
     1
 62
     7
176
     1
 90
        1
176
     1
 90
        1
176
     1
 40
40.0
176
     1
 90
       11
176
     1
 62
     7
176
     1
 40
1.0
176
     1
 90
        1
176
     1
 90
        6
176
     1
 90
        2
176
     1
 62
     7
176
     1
 90
        6
176
     1
 90
        0
176
     1
 90
        0
176
     1
290
     0
176
     1
 90
        1
176
     1
 40
0.0
176
     1
 90
        0
176
     1
290
     0
176
     1
290
     1
176
     1
290
     1
176
     1
290
     0
176
     1
290
     0
176
     1
290
     0
176
     1
290
     0
176
     1
290
     0
176
     1
290
     0
176
     1
 90
       50
176
     1
 40
0.0
176
     1
 40
1.0
176
     1
 90
        0
176
     1
 62
    18
420
        0
176
     1
 90
       50
176
     1
 90
        3
176
     1
 62
     5
420
      255
176
     1
290
     0
176
     1
 90
       50
176
     1
 90
       50
176
     1
 90
       50
176
     1
290
     0
176
     1
 90
       50
176
     1
 62
   256
176
     0
 40
1.0
176
     0
 90
        2
176
     1
  1
strokes_ogs.tif
176
     1
290
     0
176
     1
 40
1.0
176
     1
 40
1.0
176
     1
  0
VISUALSTYLE
  5
36
102
{ACAD_REACTORS
330
29
102
}
330
29
100
AcDbVisualStyle
  2
Thicken
 70
    13
177
     3
291
     1
 70
    58
 90
        2
176
     1
 90
        2
176
     1
 90
        0
176
     1
 90
        0
176
     1
 40
0.6
176
     1
 40
30.0
176
     1
 62
     7
420
 16777215
176
     1
 90
        1
176
     1
 90
        4
176
     1
 62
     7
176
     1
 62
   257
176
     1
 90
        1
176
     1
 90
        1
176
     1
 40
1.0
176
     1
 90
       12
176
     1
 62
     7
176
     1
 40
1.0
176
     1
 90
        1
176
     1
 90
        6
176
     1
 90
        2
176
     1
 62
     7
176
     1
 90
        5
176
     1
 90
        0
176
     1
 90
        0
176
     1
290
     0
176
     1
 90
        1
176
     1
 40
0.0
176
     1
 90
        0
176
     1
290
     0
176
     1
290
     1
176
     1
290
     1
176
     1
290
     0
176
     1
290
     0
176
     1
290
     0
176
     1
290
     0
176
     1
290
     0
176
     1
290
     0
176
     1
 90
       50
176
     1
 40
0.0
176
     1
 40
1.0
176
     1
 90
        0
176
     1
 62
    18
420
        0
176
     1
 90
       50
176
     1
 90
        3
176
     1
 62
     5
420
      255
176
     1
290
     0
176
     1
 90
       50
176
     1
 90
       50
176
     1
 90
       50
176
     1
290
     0
176
     1
 90
       50
176
     1
 62
   256
176
     0
 40
1.0
176
     0
 90
        2
176
     1
  1
strokes_ogs.tif
176
     1
290
     0
176
     1
 40
1.0
176
     1
 40
1.0
176
     1
  0
VISUALSTYLE
  5
30
102
{ACAD_REACTORS
330
29
102
}
330
29
100
AcDbVisualStyle
  2
Wireframe
 70
     5
177
     3
291
     0
 70
    58
 90
        0
176
     1
 90
        2
176
     1
 90
        0
176
     1
 90
        0
176
     1
 40
0.6
176
     1
 40
30.0
176
     1
 62
     7
420
 16777215
176
     1
 90
        1
176
     1
 90
        4
176
     1
 62
     7
176
     1
 62
   257
176
     1
 90
        1
176
     1
 90
        1
176
     1
 40
1.0
176
     1
 90
        0
176
     1
 62
   257
176
     1
 40
1.0
176
     1
 90
        1
176
     1
 90
        6
176
     1
 90
        2
176
     1
 62
     7
176
     1
 90
        3
176
     1
 90
        0
176
     1
 90
        0
176
     1
290
     0
176
     1
 90
        1
176
     1
 40
0.0
176
     1
 90
        0
176
     1
290
     0
176
     1
290
     1
176
     1
290
     1
176
     1
290
     0
176
     1
290
     0
176
     1
290
     0
176
     1
290
     0
176
     1
290
     0
176
     1
290
     0
176
     1
 90
       50
176
     1
 40
0.0
176
     1
 40
1.0
176
     1
 90
        0
176
     1
 62
    18
420
        0
176
     1
 90
       50
176
     1
 90
        3
176
     1
 62
     5
420
      255
176
     1
290
     0
176
     1
 90
       50
176
     1
 90
       50
176
     1
 90
       50
176
     1
290
     0
176
     1
 90
       50
176
     1
 62
   256
176
     0
 40
1.0
176
     0
 90
        2
176
     1
  1
strokes_ogs.tif
176
     1
290
     0
176
     1
 40
1.0
176
     1
 40
1.0
176
     1
  0
VISUALSTYLE
  5
3C
102
{ACAD_REACTORS
330
29
102
}
330
29
100
AcDbVisualStyle
  2
X-Ray
 70
    25
177
     3
291
     0
 70
    58
 90
        2
176
     1
 90
        2
176
     1
 90
        1
176
     1
 90
        1
176
     1
 40
0.5
176
     1
 40
30.0
176
     1
 62
     7
420
 16777215
176
     1
 90
        1
176
     1
 90
        0
176
     1
 62
     7
176
     1
 62
   257
176
     1
 90
        1
176
     1
 90
        1
176
     1
 40
1.0
176
     1
 90
        8
176
     1
 62
     7
176
     1
 40
1.0
176
     1
 90
        1
176
     1
 90
        6
176
     1
 90
        2
176
     1
 62
     7
176
     1
 90
        3
176
     1
 90
        0
176
     1
 90
        0
176
     1
290
     0
176
     1
 90
       13
176
     1
 40
0.0
176
     1
 90
        0
176
     1
290
     0
176
     1
290
     1
176
     1
290
     1
176
     1
290
     0
176
     1
290
     0
176
     1
290
     0
176
     1
290
     0
176
     1
290
     0
176
     1
290
     0
176
     1
 90
       50
176
     1
 40
0.0
176
     1
 40
1.0
176
     1
 90
        0
176
     1
 62
    18
420
        0
176
     1
 90
       50
176
     1
 90
        3
176
     1
 62
     5
420
      255
176
     1
290
     0
176
     1
 90
       50
176
     1
 90
       50
176
     1
 90
       50
176
     1
290
     0
176
     1
 90
       50
176
     1
 62
   256
176
     0
 40
1.0
176
     0
 90
        2
176
     1
  1
strokes_ogs.tif
176
     1
290
     0
176
     1
 40
1.0
176
     1
 40
1.0
176
     1
  0
DICTIONARYVAR
  5
594
102
{ACAD_REACTORS
330
58F
102
}
330
58F
100
DictionaryVariables
280
     0
  1
1:1
  0
DICTIONARYVAR
  5
591
102
{ACAD_REACTORS
330
58F
102
}
330
58F
100
DictionaryVariables
280
     0
  1
STANDARD
  0
DICTIONARYVAR
  5
590
102
{ACAD_REACTORS
330
58F
102
}
330
58F
100
DictionaryVariables
280
     0
  1
STANDARD
  0
DICTIONARYVAR
  5
592
102
{ACAD_REACTORS
330
58F
102
}
330
58F
100
DictionaryVariables
280
     0
  1
Imperial24
  0
DICTIONARYVAR
  5
593
102
{ACAD_REACTORS
330
58F
102
}
330
58F
100
DictionaryVariables
280
     0
  1
Imperial24
  0
DICTIONARY
  5
5ED
330
6A
100
AcDbDictionary
280
     1
281
     1
  3
ACAD_XREC_ROUNDTRIP
360
5EE
  0
DICTIONARY
  5
58D
330
72
100
AcDbDictionary
280
     1
281
     1
  0
DICTIONARY
  5
1A
330
19
100
AcDbDictionary
280
     1
281
     1
  3
BUMPTILE
360
1C
  3
DIFFUSETILE
360
1B
  3
OPACITYTILE
360
1F
  3
REFLECTIONTILE
360
1E
  3
REFRACTIONTILE
360
20
  3
SPECULARTILE
360
1D
  0
DICTIONARY
  5
12
330
11
100
AcDbDictionary
280
     1
281
     1
  3
BUMPTILE
360
14
  3
DIFFUSETILE
360
13
  3
OPACITYTILE
360
17
  3
REFLECTIONTILE
360
16
  3
REFRACTIONTILE
360
18
  3
SPECULARTILE
360
15
  0
DICTIONARY
  5
22
330
21
100
AcDbDictionary
280
     1
281
     1
  3
BUMPTILE
360
24
  3
DIFFUSETILE
360
23
  3
OPACITYTILE
360
27
  3
REFLECTIONTILE
360
26
  3
REFRACTIONTILE
360
28
  3
SPECULARTILE
360
25
  0
DICTIONARY
  5
5EB
330
68
100
AcDbDictionary
280
     1
281
     1
  3
ACAD_XREC_ROUNDTRIP
360
5EC
  0
DICTIONARY
  5
5E9
330
64
100
AcDbDictionary
280
     1
281
     1
  3
ACAD_ROUNDTRIP_2008_TABLESTYLE_CELLSTYLEMAP
360
5EA
  0
XRECORD
  5
5EE
102
{ACAD_REACTORS
330
5ED
102
}
330
5ED
100
AcDbXrecord
280
     1
102
DISPLAYNAME
  1
Imperial24
102
FLAGS
 90
        0
  0
XRECORD
  5
1C
102
{ACAD_REACTORS
330
1A
102
}
330
1A
100
AcDbXrecord
280
     1
270
     1
271
     1
  0
XRECORD
  5
1B
102
{ACAD_REACTORS
330
1A
102
}
330
1A
100
AcDbXrecord
280
     1
270
     1
271
     1
  0
XRECORD
  5
1F
102
{ACAD_REACTORS
330
1A
102
}
330
1A
100
AcDbXrecord
280
     1
270
     1
271
     1
  0
XRECORD
  5
1E
102
{ACAD_REACTORS
330
1A
102
}
330
1A
100
AcDbXrecord
280
     1
270
     1
271
     1
  0
XRECORD
  5
20
102
{ACAD_REACTORS
330
1A
102
}
330
1A
100
AcDbXrecord
280
     1
270
     1
271
     1
  0
XRECORD
  5
1D
102
{ACAD_REACTORS
330
1A
102
}
330
1A
100
AcDbXrecord
280
     1
270
     1
271
     1
  0
XRECORD
  5
14
102
{ACAD_REACTORS
330
12
102
}
330
12
100
AcDbXrecord
280
     1
270
     1
271
     1
  0
XRECORD
  5
13
102
{ACAD_REACTORS
330
12
102
}
330
12
100
AcDbXrecord
280
     1
270
     1
271
     1
  0
XRECORD
  5
17
102
{ACAD_REACTORS
330
12
102
}
330
12
100
AcDbXrecord
280
     1
270
     1
271
     1
  0
XRECORD
  5
16
102
{ACAD_REACTORS
330
12
102
}
330
12
100
AcDbXrecord
280
     1
270
     1
271
     1
  0
XRECORD
  5
18
102
{ACAD_REACTORS
330
12
102
}
330
12
100
AcDbXrecord
280
     1
270
     1
271
     1
  0
XRECORD
  5
15
102
{ACAD_REACTORS
330
12
102
}
330
12
100
AcDbXrecord
280
     1
270
     1
271
     1
  0
XRECORD
  5
24
102
{ACAD_REACTORS
330
22
102
}
330
22
100
AcDbXrecord
280
     1
270
     1
271
     1
  0
XRECORD
  5
23
102
{ACAD_REACTORS
330
22
102
}
330
22
100
AcDbXrecord
280
     1
270
     1
271
     1
  0
XRECORD
  5
27
102
{ACAD_REACTORS
330
22
102
}
330
22
100
AcDbXrecord
280
     1
270
     1
271
     1
  0
XRECORD
  5
26
102
{ACAD_REACTORS
330
22
102
}
330
22
100
AcDbXrecord
280
     1
270
     1
271
     1
  0
XRECORD
  5
28
102
{ACAD_REACTORS
330
22
102
}
330
22
100
AcDbXrecord
280
     1
270
     1
271
     1
  0
XRECORD
  5
25
102
{ACAD_REACTORS
330
22
102
}
330
22
100
AcDbXrecord
280
     1
270
     1
271
     1
  0
XRECORD
  5
5EC
102
{ACAD_REACTORS
330
5EB
102
}
330
5EB
100
AcDbXrecord
280
     1
102
DISPLAYNAME
  1
Imperial24
102
FLAGS
 90
        0
  0
CELLSTYLEMAP
  5
5EA
102
{ACAD_REACTORS
330
5E9
102
}
330
5E9
100
AcDbCellStyleMap
 90
        3
300
CELLSTYLE
  1
TABLEFORMAT_BEGIN
 90
        5
170
     1
 91
        0
 92
    32768
 62
   257
 93
        1
300
CONTENTFORMAT
  1
CONTENTFORMAT_BEGIN
 90
        0
 91
        0
 92
      512
 93
        0
300

 40
0.0
140
1.0
 94
        5
 62
     0
340
55
144
0.25
309
CONTENTFORMAT_END
171
     0
 94
        0
309
TABLEFORMAT_END
  1
CELLSTYLE_BEGIN
 90
        1
 91
        1
300
_TITLE
309
CELLSTYLE_END
300
CELLSTYLE
  1
TABLEFORMAT_BEGIN
 90
        5
170
     1
 91
        0
 92
        0
 62
   257
 93
        1
300
CONTENTFORMAT
  1
CONTENTFORMAT_BEGIN
 90
        0
 91
        0
 92
      512
 93
        0
300

 40
0.0
140
1.0
 94
        5
 62
     0
340
55
144
0.18
309
CONTENTFORMAT_END
171
     0
 94
        0
309
TABLEFORMAT_END
  1
CELLSTYLE_BEGIN
 90
        2
 91
        1
300
_HEADER
309
CELLSTYLE_END
300
CELLSTYLE
  1
TABLEFORMAT_BEGIN
 90
        5
170
     1
 91
        0
 92
        0
 62
   257
 93
        1
300
CONTENTFORMAT
  1
CONTENTFORMAT_BEGIN
 90
        0
 91
        0
 92
      512
 93
        0
300

 40
0.0
140
1.0
 94
        2
 62
     0
340
55
144
0.18
309
CONTENTFORMAT_END
171
     0
 94
        0
309
TABLEFORMAT_END
  1
CELLSTYLE_BEGIN
 90
        3
 91
        2
300
_DATA
309
CELLSTYLE_END
  0
ENDSEC
  0
SECTION
  2
ACDSDATA
 70
     2
 71
     6
  0
ACDSSCHEMA
 90
        0
  1
AcDb_Thumbnail_Schema
  2
AcDbDs::ID
280
    10
 91
        8
  2
Thumbnail_Data
280
    15
 91
        0
101
ACDSRECORD
 95
        0
 90
        1
  2
AcDbDs::TreatedAsObjectData
280
     1
291
     1
101
ACDSRECORD
 95
        0
 90
        2
  2
AcDbDs::Legacy
280
     1
291
     1
101
ACDSRECORD
  1
AcDbDs::ID
 90
        3
  2
AcDs:Indexable
280
     1
291
     1
101
ACDSRECORD
  1
AcDbDs::ID
 90
        4
  2
AcDbDs::HandleAttribute
280
     7
282
     1
  0
ACDSSCHEMA
 90
        1
  1
AcDbDs::TreatedAsObjectDataSchema
  2
AcDbDs::TreatedAsObjectData
280
     1
 91
        0
  0
ACDSSCHEMA
 90
        2
  1
AcDbDs::LegacySchema
  2
AcDbDs::Legacy
280
     1
 91
        0
  0
ACDSSCHEMA
 90
        3
  1
AcDbDs::IndexedPropertySchema
  2
AcDs:Indexable
280
     1
 91
        0
  0
ACDSSCHEMA
 90
        4
  1
AcDbDs::HandleAttributeSchema
  2
AcDbDs::HandleAttribute
280
     7
 91
        1
284
     1
  0
ACDSRECORD
 90
        0
  2
AcDbDs::ID
280
    10
320
72
  2
Thumbnail_Data
280
    15
 94
     2526
310
89504E470D0A1A0A0000000D49484452000001000000009B0803000000BA7AB56000000300504C54455B5B5B000000C8C8C80000000000000000000000000000000000000000000000000000330000660000990000CC0000FF0033000033330033660033990033CC0033FF0066000066330066660066990066CC0066FF0099
310
000099330099660099990099CC0099FF00CC0000CC3300CC6600CC9900CCCC00CCFF00FF0000FF3300FF6600FF9900FFCC00FFFF3300003300333300663300993300CC3300FF3333003333333333663333993333CC3333FF3366003366333366663366993366CC3366FF3399003399333399663399993399CC3399FF33CC00
310
33CC3333CC6633CC9933CCCC33CCFF33FF0033FF3333FF6633FF9933FFCC33FFFF6600006600336600666600996600CC6600FF6633006633336633666633996633CC6633FF6666006666336666666666996666CC6666FF6699006699336699666699996699CC6699FF66CC0066CC3366CC6666CC9966CCCC66CCFF66FF0066
310
FF3366FF6666FF9966FFCC66FFFF9900009900339900669900999900CC9900FF9933009933339933669933999933CC9933FF9966009966339966669966999966CC9966FF9999009999339999669999999999CC9999FF99CC0099CC3399CC6699CC9999CCCC99CCFF99FF0099FF3399FF6699FF9999FFCC99FFFFCC0000CC00
310
33CC0066CC0099CC00CCCC00FFCC3300CC3333CC3366CC3399CC33CCCC33FFCC6600CC6633CC6666CC6699CC66CCCC66FFCC9900CC9933CC9966CC9999CC99CCCC99FFCCCC00CCCC33CCCC66CCCC99CCCCCCCCCCFFCCFF00CCFF33CCFF66CCFF99CCFFCCCCFFFFFF0000FF0033FF0066FF0099FF00CCFF00FFFF3300FF3333
310
FF3366FF3399FF33CCFF33FFFF6600FF6633FF6666FF6699FF66CCFF66FFFF9900FF9933FF9966FF9999FF99CCFF99FFFFCC00FFCC33FFCC66FFCC99FFCCCCFFCCFFFFFF00FFFF33FFFF66FFFF99FFFFCCFFFFFF0000000D0D0D1A1A1A2828283535354343435050505D5D5D6B6B6B787878868686939393A1A1A1AEAEAEBB
310
BBBBC9C9C9D6D6D6E4E4E4F1F1F1FFFFFF00000000000000000000000000000000000000000000000000000000000054549EDE000006994944415478DAED5D6D92E32A0CE438FAD3F7FFC7497298B7896DD017D89E78F621D8546D6D26F14CA59B5623C9B293D2BFC7FFF1A0E5F1132D2F809529D8A12F4B41C5BD260502F4
310
8A1428C8CB5160F1AE45012D9E1634A0AE238226D04528E8A15C82823EC6F9293805383B0517E04D4D013D78D4CC5D806945701DD7A414DC41352505F730CD47C16D40B351F003385351F0332C1351407FF9F7A6216016117C83620A0ABEC3109F82AF0144A7E0818F1F9A82673E7B600A68B0BF139580B067959F1440480A
310
E8D13F438BE30F28027AFCAFD0D202886686CFE3DFCC7071FC7118F83D03881106BF26802022F855FC0144F0905D7776401A7FFDBFA7807A882980FEE9F7043074183C3510799A02D2E8F8BFFB8CA77F2702FE2F441015BFFD5C3FA4E0240086750042CE4FACD58900C6DD032821190AEE2F5760FC09EF87E68016C15F0878
310
73F08508220BA010A055708382D0F82B01499B01FD047F280270FCDB09F843C10F4470863F0D9C03FF418D74C82059062E514051F16F0E50E5B07170773FA0C80290D170C4C11D11D085B23F02011FE8AD30B871F544A80B6D48C0DFBC707FE15A6648D7FC3E06FEF2D467C0014BB686882A80BAF2FB53931696E3337BA469
310
F0B39DA06AC229112BE8862F862400686448C607F219A6A0F87D06AC0FE47AE404EB5F3F589B00C94046A16B060164CF00FB041C5ED1FA856001901BEFBC5E3E03F9932AFA96193200B283F7F3F3CBD740465D7A5CC53AB2015C23A03090396ECCE0804D025C1BC838232047DB01F205A32C894F06EB99F82648CF34D7FFB6
310
004E08100658BA47AD10C8F10240ACB6F343FEE0CEB4250B077A38997322D3548D80FF553C2F9768CF9FB7DF1CBC9FBE53621255B34FC0C61032820540C5BFBF96ABF2F3EE77040EDE0D01D47C72FF9F8219403E2A5DFB06A59A02A583025339A92461F069906C3840CB14B3B63D270476776412181EBF5A6ABFBBB10B6013
310
3ECB01601D30F1340163CF43D127C8B30E804685B31920B37EB776DC5E030B9AA1F1FB751EDAF853DD0553A71C3868C8697C02B29FF034F2DB6D87433D8BD4EA216C07E40802785D817FE037F6D7EE2221C440A420A0B35E656B372F749A2821F0BFF31F9602B5F0936D80E08C80C147828995FD5B16DC1340DDDA93547E9B
310
8028F853EFEC864C6F0EC002745405DCBA3B8C1480CCFFDC4D70F81CF8367E1501ED7547CD1342CC845FC5EF7820CE368B91F19BDD1B271B209CC3E07A4579327404A87E5E672F03A5160156042C39A6E1F12BC1E2E4507FD181860046BF2C487859EF241709E468473D57D2F8F87953A3E43FE81080CE214A05EF3C61FC2B
310
E3E03480DC0677463AA97CEDAB0104C03F72469780D2E42A8DD053118C8E1F751636F1B616BC6C2127D1FDEEE43F7108D86117C36A9FE62BE78D3B5D404F541122A04C45F3C2EE9C804EE9C373098A4140625D5C38F99083BF498008AB4004D4A7D0551E3F6B82741603C2580284804054565FA22B0E784502A53DF2FE95F1
310
B36045003FDD2B04701C7C4A00607B4723AF3E786FB3408710326DA300DA1DFD1888B50BAA796824DDE80217C035026265013CF7A9D9000F0B815FB582115D00DCB3AA2968023E1311650A027C2202F1F1572BA8C30C8200CACC0DC42448632A261E0175D561A48DE2FFD0699E37151214BFE9073102B2278BD21BB4EDC448
310
59B0C9DD19AE7AE1303CCF3FC25F9F19E13E49A196FFC880B8D255EA076F0B3C4C81FB442C0278220491169A9A084E1D00311EC419A318D247CBC2DCCC071E013A97084480322D65F19EF0553B0872348217178102403BB92AFA60DB47F57A526E9EC5023EEF47B240E7A40E9C2D4276429D1060292522DD33139D1E894C0F
310
940B40ED83606F84BA69A81DF16C1250B31FA0D64DFC3CF8F66EB4DBC6A24F40920580080B7F5F0877EB60B43D80F70AD4C6099B1F07C57F4640F21A65498E88F3E18180044096447668C2D6FF4836538E940499B0675740DA420F891B1D5385970506BC7D3AC47C80D9F3529D0CD6959F2020AC00D8EAEB46B1A98EDCA8E1
310
4619D503E1544836CD1157C998F211E105602BE4DA1D71A52005B14D1AC7FC12099F80D6F4A7573502DBA071F8AF14823337D5CE9539119310A0B3837EF1C02301AFF49AEA1BF65A4383B64F86A4E702A622A14900F823CDF94DA3A773D04C05537ED76CD703FD7EE2FCF81BE3A2130BC06487701898157F9D22E4FAB7B7CD
310
98F62BC775CBB39E4216F5F122F855EB8F69601901C07F637AFC27044C8B5F3101EF94199621C0E99CEE3EB800FEB2FD15F747FD7905FCB20304790F3D2C41800A7C2C6500DEA9222C85DF395F8CA5F027345FA475F1A775F00FFCF80F1D8DCC8880D8F1CD0000000049454E44AE426082
  0
ENDSEC
  0
EOF
