  0
SECTION
  2
HEADER
  9
$ACADVER
  1
AC1027
  9
$ACADMAINTVER
 70
    55
  9
$DWGCODEPAGE
  3
ANSI_1252
  9
$LASTSAVEDBY
  1
crinne
  9
$REQUIREDVERSIONS
160
                 0
  9
$INSBASE
 10
0.0
 20
0.0
 30
0.0
  9
$EXTMIN
 10
-3.246881064057244
 20
-17.29808580231073
 30
0.0
  9
$EXTMAX
 10
-1.257396257839765
 20
-13.57466711051844
 30
0.0
  9
$LIMMIN
 10
-2600.0
 20
-2600.0
  9
$LIMMAX
 10
2000.0
 20
200.0
  9
$ORTHOMODE
 70
     0
  9
$REGENMODE
 70
     1
  9
$FILLMODE
 70
     1
  9
$QTEXTMODE
 70
     0
  9
$MIRRTEXT
 70
     1
  9
$LTSCALE
 40
25.0
  9
$ATTMODE
 70
     1
  9
$TEXTSIZE
 40
3.5
  9
$TRACEWID
 40
1.0
  9
$TEXTSTYLE
  7
STANDARD
  9
$CLAYER
  8
GRABUNGSGRENZE
  9
$CELTYPE
  6
ByLayer
  9
$CECOLOR
 62
   256
  9
$CELTSCALE
 40
1.0
  9
$DISPSILH
 70
     0
  9
$DIMSCALE
 40
1.0
  9
$DIMASZ
 40
3.5
  9
$DIMEXO
 40
0.1
  9
$DIMDLI
 40
7.0
  9
$DIMRND
 40
0.0
  9
$DIMDLE
 40
0.0
  9
$DIMEXE
 40
1.8
  9
$DIMTP
 40
0.0
  9
$DIMTM
 40
0.0
  9
$DIMTXT
 40
3.5
  9
$DIMCEN
 40
1.5
  9
$DIMTSZ
 40
0.0
  9
$DIMTOL
 70
     0
  9
$DIMLIM
 70
     0
  9
$DIMTIH
 70
     0
  9
$DIMTOH
 70
     0
  9
$DIMSE1
 70
     0
  9
$DIMSE2
 70
     0
  9
$DIMTAD
 70
     0
  9
$DIMZIN
 70
     0
  9
$DIMBLK
  1

  9
$DIMASO
 70
     1
  9
$DIMSHO
 70
     0
  9
$DIMPOST
  1

  9
$DIMAPOST
  1

  9
$DIMALT
 70
     0
  9
$DIMALTD
 70
     2
  9
$DIMALTF
 40
25.4
  9
$DIMLFAC
 40
1.0
  9
$DIMTOFL
 70
     0
  9
$DIMTVP
 40
0.0
  9
$DIMTIX
 70
     0
  9
$DIMSOXD
 70
     0
  9
$DIMSAH
 70
     0
  9
$DIMBLK1
  1

  9
$DIMBLK2
  1

  9
$DIMSTYLE
  2
Standard
  9
$DIMCLRD
 70
     0
  9
$DIMCLRE
 70
     0
  9
$DIMCLRT
 70
     0
  9
$DIMTFAC
 40
1.0
  9
$DIMGAP
 40
0.09
  9
$DIMJUST
 70
     0
  9
$DIMSD1
 70
     0
  9
$DIMSD2
 70
     0
  9
$DIMTOLJ
 70
     1
  9
$DIMTZIN
 70
     0
  9
$DIMALTZ
 70
     0
  9
$DIMALTTZ
 70
     0
  9
$DIMUPT
 70
     0
  9
$DIMDEC
 70
     2
  9
$DIMTDEC
 70
     2
  9
$DIMALTU
 70
     2
  9
$DIMALTTD
 70
     2
  9
$DIMTXSTY
  7
STANDARD
  9
$DIMAUNIT
 70
     0
  9
$DIMADEC
 70
     0
  9
$DIMALTRND
 40
0.0
  9
$DIMAZIN
 70
     0
  9
$DIMDSEP
 70
    46
  9
$DIMATFIT
 70
     3
  9
$DIMFRAC
 70
     0
  9
$DIMLDRBLK
  1

  9
$DIMLUNIT
 70
     2
  9
$DIMLWD
 70
    -2
  9
$DIMLWE
 70
    -2
  9
$DIMTMOVE
 70
     2
  9
$DIMFXL
 40
1.0
  9
$DIMFXLON
 70
     0
  9
$DIMJOGANG
 40
0.7853981633974483
  9
$DIMTFILL
 70
     0
  9
$DIMTFILLCLR
 70
     0
  9
$DIMARCSYM
 70
     0
  9
$DIMLTYPE
  6

  9
$DIMLTEX1
  6

  9
$DIMLTEX2
  6

  9
$DIMTXTDIRECTION
 70
     0
  9
$LUNITS
 70
     2
  9
$LUPREC
 70
     2
  9
$SKETCHINC
 40
1.0
  9
$FILLETRAD
 40
0.0
  9
$AUNITS
 70
     0
  9
$AUPREC
 70
     0
  9
$MENU
  1
ACAD
  9
$ELEVATION
 40
0.0
  9
$PELEVATION
 40
0.0
  9
$THICKNESS
 40
0.0
  9
$LIMCHECK
 70
     0
  9
$CHAMFERA
 40
0.0
  9
$CHAMFERB
 40
0.0
  9
$CHAMFERC
 40
0.0
  9
$CHAMFERD
 40
0.0
  9
$SKPOLY
 70
     0
  9
$TDCREATE
 40
2450576.496158912
  9
$TDUCREATE
 40
2450576.412825579
  9
$TDUPDATE
 40
2459796.511249097
  9
$TDUUPDATE
 40
2459796.427915764
  9
$TDINDWG
 40
0.0000174306
  9
$TDUSRTIMER
 40
0.0000174306
  9
$USRTIMER
 70
     1
  9
$ANGBASE
 50
0.0
  9
$ANGDIR
 70
     0
  9
$PDMODE
 70
     0
  9
$PDSIZE
 40
0.0
  9
$PLINEWID
 40
0.0
  9
$SPLFRAME
 70
     0
  9
$SPLINETYPE
 70
     6
  9
$SPLINESEGS
 70
     8
  9
$HANDSEED
  5
4B8
  9
$SURFTAB1
 70
     6
  9
$SURFTAB2
 70
     6
  9
$SURFTYPE
 70
     6
  9
$SURFU
 70
     6
  9
$SURFV
 70
     6
  9
$UCSBASE
  2

  9
$UCSNAME
  2

  9
$UCSORG
 10
0.0
 20
0.0
 30
0.0
  9
$UCSXDIR
 10
1.0
 20
0.0
 30
0.0
  9
$UCSYDIR
 10
0.0
 20
1.0
 30
0.0
  9
$UCSORTHOREF
  2

  9
$UCSORTHOVIEW
 70
     0
  9
$UCSORGTOP
 10
0.0
 20
0.0
 30
0.0
  9
$UCSORGBOTTOM
 10
0.0
 20
0.0
 30
0.0
  9
$UCSORGLEFT
 10
0.0
 20
0.0
 30
0.0
  9
$UCSORGRIGHT
 10
0.0
 20
0.0
 30
0.0
  9
$UCSORGFRONT
 10
0.0
 20
0.0
 30
0.0
  9
$UCSORGBACK
 10
0.0
 20
0.0
 30
0.0
  9
$PUCSBASE
  2

  9
$PUCSNAME
  2

  9
$PUCSORG
 10
0.0
 20
0.0
 30
0.0
  9
$PUCSXDIR
 10
1.0
 20
0.0
 30
0.0
  9
$PUCSYDIR
 10
0.0
 20
1.0
 30
0.0
  9
$PUCSORTHOREF
  2

  9
$PUCSORTHOVIEW
 70
     0
  9
$PUCSORGTOP
 10
0.0
 20
0.0
 30
0.0
  9
$PUCSORGBOTTOM
 10
0.0
 20
0.0
 30
0.0
  9
$PUCSORGLEFT
 10
0.0
 20
0.0
 30
0.0
  9
$PUCSORGRIGHT
 10
0.0
 20
0.0
 30
0.0
  9
$PUCSORGFRONT
 10
0.0
 20
0.0
 30
0.0
  9
$PUCSORGBACK
 10
0.0
 20
0.0
 30
0.0
  9
$USERI1
 70
     0
  9
$USERI2
 70
     0
  9
$USERI3
 70
     0
  9
$USERI4
 70
     0
  9
$USERI5
 70
     0
  9
$USERR1
 40
0.0
  9
$USERR2
 40
0.0
  9
$USERR3
 40
0.0
  9
$USERR4
 40
0.0
  9
$USERR5
 40
0.0
  9
$WORLDVIEW
 70
     1
  9
$SHADEDGE
 70
     3
  9
$SHADEDIF
 70
    70
  9
$TILEMODE
 70
     1
  9
$MAXACTVP
 70
    16
  9
$PINSBASE
 10
0.0
 20
0.0
 30
0.0
  9
$PLIMCHECK
 70
     0
  9
$PEXTMIN
 10
1.000000000000000E+20
 20
1.000000000000000E+20
 30
1.000000000000000E+20
  9
$PEXTMAX
 10
-1.000000000000000E+20
 20
-1.000000000000000E+20
 30
-1.000000000000000E+20
  9
$PLIMMIN
 10
0.0
 20
0.0
  9
$PLIMMAX
 10
12.0
 20
9.0
  9
$UNITMODE
 70
     0
  9
$VISRETAIN
 70
     0
  9
$PLINEGEN
 70
     0
  9
$PSLTSCALE
 70
     0
  9
$TREEDEPTH
 70
  3020
  9
$CMLSTYLE
  2
Standard
  9
$CMLJUST
 70
     0
  9
$CMLSCALE
 40
1.0
  9
$PROXYGRAPHICS
 70
     1
  9
$MEASUREMENT
 70
     0
  9
$CELWEIGHT
370
    -1
  9
$ENDCAPS
280
     0
  9
$JOINSTYLE
280
     0
  9
$LWDISPLAY
290
     0
  9
$INSUNITS
 70
     6
  9
$HYPERLINKBASE
  1

  9
$STYLESHEET
  1

  9
$XEDIT
290
     1
  9
$CEPSNTYPE
380
     0
  9
$PSTYLEMODE
290
     1
  9
$FINGERPRINTGUID
  2
{1DF0AF76-4C7F-4975-8E5E-1A7EA18BD6E4}
  9
$VERSIONGUID
  2
{B241DB85-8879-490C-8D8A-19E4B1FA88E0}
  9
$EXTNAMES
290
     1
  9
$PSVPSCALE
 40
0.0
  9
$OLESTARTUP
290
     0
  9
$SORTENTS
280
   127
  9
$INDEXCTL
280
     0
  9
$HIDETEXT
280
     1
  9
$XCLIPFRAME
280
     2
  9
$HALOGAP
280
     0
  9
$OBSCOLOR
 70
   257
  9
$OBSLTYPE
280
     0
  9
$INTERSECTIONDISPLAY
280
     0
  9
$INTERSECTIONCOLOR
 70
   257
  9
$DIMASSOC
280
     2
  9
$PROJECTNAME
  1

  9
$CAMERADISPLAY
290
     0
  9
$LENSLENGTH
 40
50.0
  9
$CAMERAHEIGHT
 40
0.0
  9
$STEPSPERSEC
 40
2.0
  9
$STEPSIZE
 40
6.0
  9
$3DDWFPREC
 40
2.0
  9
$PSOLWIDTH
 40
0.25
  9
$PSOLHEIGHT
 40
4.0
  9
$LOFTANG1
 40
1.570796326794896
  9
$LOFTANG2
 40
1.570796326794896
  9
$LOFTMAG1
 40
0.0
  9
$LOFTMAG2
 40
0.0
  9
$LOFTPARAM
 70
     7
  9
$LOFTNORMALS
280
     1
  9
$LATITUDE
 40
37.795
  9
$LONGITUDE
 40
-122.394
  9
$NORTHDIRECTION
 40
0.0
  9
$TIMEZONE
 70
 -8000
  9
$LIGHTGLYPHDISPLAY
280
     1
  9
$TILEMODELIGHTSYNCH
280
     1
  9
$CMATERIAL
347
11
  9
$SOLIDHIST
280
     0
  9
$SHOWHIST
280
     1
  9
$DWFFRAME
280
     2
  9
$DGNFRAME
280
     0
  9
$REALWORLDSCALE
290
     1
  9
$INTERFERECOLOR
 62
     1
  9
$INTERFEREOBJVS
345
33
  9
$INTERFEREVPVS
346
30
  9
$CSHADOW
280
     0
  9
$SHADOWPLANELOCATION
 40
0.0
  0
ENDSEC
  0
SECTION
  2
CLASSES
  0
CLASS
  1
ACDBDICTIONARYWDFLT
  2
AcDbDictionaryWithDefault
  3
ObjectDBX Classes
 90
        0
 91
        1
280
     0
281
     0
  0
CLASS
  1
MATERIAL
  2
AcDbMaterial
  3
ObjectDBX Classes
 90
     1153
 91
        3
280
     0
281
     0
  0
CLASS
  1
VISUALSTYLE
  2
AcDbVisualStyle
  3
ObjectDBX Classes
 90
     4095
 91
       24
280
     0
281
     0
  0
CLASS
  1
SCALE
  2
AcDbScale
  3
ObjectDBX Classes
 90
     1153
 91
       17
280
     0
281
     0
  0
CLASS
  1
TABLESTYLE
  2
AcDbTableStyle
  3
ObjectDBX Classes
 90
     4095
 91
        1
280
     0
281
     0
  0
CLASS
  1
MLEADERSTYLE
  2
AcDbMLeaderStyle
  3
ACDB_MLEADERSTYLE_CLASS
 90
     4095
 91
        1
280
     0
281
     0
  0
CLASS
  1
ACDBSECTIONVIEWSTYLE
  2
AcDbSectionViewStyle
  3
ObjectDBX Classes
 90
     1025
 91
        1
280
     0
281
     0
  0
CLASS
  1
ACDBDETAILVIEWSTYLE
  2
AcDbDetailViewStyle
  3
ObjectDBX Classes
 90
     1025
 91
        1
280
     0
281
     0
  0
CLASS
  1
DICTIONARYVAR
  2
AcDbDictionaryVar
  3
ObjectDBX Classes
 90
        0
 91
        5
280
     0
281
     0
  0
CLASS
  1
CELLSTYLEMAP
  2
AcDbCellStyleMap
  3
ObjectDBX Classes
 90
     1152
 91
        1
280
     0
281
     0
  0
ENDSEC
  0
SECTION
  2
TABLES
  0
TABLE
  2
VPORT
  5
8
330
0
100
AcDbSymbolTable
 70
     1
  0
VPORT
  5
8E
330
8
100
AcDbSymbolTableRecord
100
AcDbViewportTableRecord
  2
*ACTIVE
 70
     0
 10
0.0
 20
0.0
 11
1.0
 21
1.0
 12
-2.252138660948504
 22
-15.43637645641458
 13
0.0
 23
0.0
 14
5.0
 24
5.0
 15
100.0
 25
100.0
 16
0.0
 26
0.0
 36
1.0
 17
0.0
 27
0.0
 37
0.0
 40
3.753855356847806
 41
1.649386084583901
 42
50.0
 43
0.0
 44
0.0
 50
0.0
 51
0.0
 71
     0
 72
   100
 73
     1
 74
     0
 75
     0
 76
     1
 77
     0
 78
     0
281
     0
 65
     1
110
0.0
120
0.0
130
0.0
111
1.0
121
0.0
131
0.0
112
0.0
122
1.0
132
0.0
 79
     0
146
0.0
348
2F
 60
     3
 61
     5
292
     1
282
     0
141
0.0
142
0.0
 63
   250
421
  3355443
1001
ACAD_NAV_VCDISPLAY
1070
     3
  0
ENDTAB
  0
TABLE
  2
LTYPE
  5
5
330
0
100
AcDbSymbolTable
 70
    25
  0
LTYPE
  5
5A
330
5
100
AcDbSymbolTableRecord
100
AcDbLinetypeTableRecord
  2
ByBlock
 70
     0
  3

 72
    65
 73
     0
 40
0.0
  0
LTYPE
  5
5B
330
5
100
AcDbSymbolTableRecord
100
AcDbLinetypeTableRecord
  2
ByLayer
 70
     0
  3

 72
    65
 73
     0
 40
0.0
  0
LTYPE
  5
5C
330
5
100
AcDbSymbolTableRecord
100
AcDbLinetypeTableRecord
  2
CONTINUOUS
 70
     0
  3
Ausgezogene Linie
 72
    65
 73
     0
 40
0.0
  0
LTYPE
  5
75
330
5
100
AcDbSymbolTableRecord
100
AcDbLinetypeTableRecord
  2
RAND
 70
     0
  3
__ __ . __ __ . __ __ . __ __ . __ __ . __ __ .
 72
    65
 73
     6
 40
1.75
 49
0.5
 74
     0
 49
-0.25
 74
     0
 49
0.5
 74
     0
 49
-0.25
 74
     0
 49
0.0
 74
     0
 49
-0.25
 74
     0
  0
LTYPE
  5
76
330
5
100
AcDbSymbolTableRecord
100
AcDbLinetypeTableRecord
  2
RAND2
 70
     0
  3
__.__.__.__.__.__.__.__.__.__.__.__.__.__.__.__
 72
    65
 73
     6
 40
0.875
 49
0.25
 74
     0
 49
-0.125
 74
     0
 49
0.25
 74
     0
 49
-0.125
 74
     0
 49
0.0
 74
     0
 49
-0.125
 74
     0
  0
LTYPE
  5
77
330
5
100
AcDbSymbolTableRecord
100
AcDbLinetypeTableRecord
  2
RANDX2
 70
     0
  3
____  ____  .  ____  ____  .  ____  ____  .  __
 72
    65
 73
     6
 40
3.5
 49
1.0
 74
     0
 49
-0.5
 74
     0
 49
1.0
 74
     0
 49
-0.5
 74
     0
 49
0.0
 74
     0
 49
-0.5
 74
     0
  0
LTYPE
  5
78
330
5
100
AcDbSymbolTableRecord
100
AcDbLinetypeTableRecord
  2
MITTE
 70
     0
  3
____ _ ____ _ ____ _ ____ _ ____ _ ____ _ ____ 
 72
    65
 73
     4
 40
2.0
 49
1.25
 74
     0
 49
-0.25
 74
     0
 49
0.25
 74
     0
 49
-0.25
 74
     0
  0
LTYPE
  5
79
330
5
100
AcDbSymbolTableRecord
100
AcDbLinetypeTableRecord
  2
MITTE2
 70
     0
  3
___ _ ___ _ ___ _ ___ _ ___ _ ___ _ ___ _ ___ _
 72
    65
 73
     4
 40
1.125
 49
0.75
 74
     0
 49
-0.125
 74
     0
 49
0.125
 74
     0
 49
-0.125
 74
     0
  0
LTYPE
  5
7A
330
5
100
AcDbSymbolTableRecord
100
AcDbLinetypeTableRecord
  2
MITTEX2
 70
     0
  3
________  __  ________  __  ________  __  _____
 72
    65
 73
     4
 40
4.0
 49
2.5
 74
     0
 49
-0.5
 74
     0
 49
0.5
 74
     0
 49
-0.5
 74
     0
  0
LTYPE
  5
7B
330
5
100
AcDbSymbolTableRecord
100
AcDbLinetypeTableRecord
  2
STRICHPUNKT
 70
     0
  3
__ . __ . __ . __ . __ . __ . __ . __ . __ . __
 72
    65
 73
     4
 40
1.0
 49
0.5
 74
     0
 49
-0.25
 74
     0
 49
0.0
 74
     0
 49
-0.25
 74
     0
  0
LTYPE
  5
7C
330
5
100
AcDbSymbolTableRecord
100
AcDbLinetypeTableRecord
  2
STRICHPUNKT2
 70
     0
  3
_._._._._._._._._._._._._._._._._._._._._._._._
 72
    65
 73
     4
 40
0.5
 49
0.25
 74
     0
 49
-0.125
 74
     0
 49
0.0
 74
     0
 49
-0.125
 74
     0
  0
LTYPE
  5
7D
330
5
100
AcDbSymbolTableRecord
100
AcDbLinetypeTableRecord
  2
STRICHPUNKTX2
 70
     0
  3
____  .  ____  .  ____  .  ____  .  ____  .  __
 72
    65
 73
     4
 40
2.0
 49
1.0
 74
     0
 49
-0.5
 74
     0
 49
0.0
 74
     0
 49
-0.5
 74
     0
  0
LTYPE
  5
7E
330
5
100
AcDbSymbolTableRecord
100
AcDbLinetypeTableRecord
  2
GESTRICHELT
 70
     0
  3
__ __ __ __ __ __ __ __ __ __ __ __ __ __ __ __
 72
    65
 73
     2
 40
0.75
 49
0.5
 74
     0
 49
-0.25
 74
     0
  0
LTYPE
  5
7F
330
5
100
AcDbSymbolTableRecord
100
AcDbLinetypeTableRecord
  2
GESTRICHELT2
 70
     0
  3
_ _ _ _ _ _ _ _ _ _ _ _ _ _ _ _ _ _ _ _ _ _ _ _
 72
    65
 73
     2
 40
0.375
 49
0.25
 74
     0
 49
-0.125
 74
     0
  0
LTYPE
  5
80
330
5
100
AcDbSymbolTableRecord
100
AcDbLinetypeTableRecord
  2
GESTRICHELTX2
 70
     0
  3
____  ____  ____  ____  ____  ____  ____  ____ 
 72
    65
 73
     2
 40
1.5
 49
1.0
 74
     0
 49
-0.5
 74
     0
  0
LTYPE
  5
81
330
5
100
AcDbSymbolTableRecord
100
AcDbLinetypeTableRecord
  2
GETRENNT
 70
     0
  3
____ . . ____ . . ____ . . ____ . . ____ . . __
 72
    65
 73
     6
 40
1.25
 49
0.5
 74
     0
 49
-0.25
 74
     0
 49
0.0
 74
     0
 49
-0.25
 74
     0
 49
0.0
 74
     0
 49
-0.25
 74
     0
  0
LTYPE
  5
82
330
5
100
AcDbSymbolTableRecord
100
AcDbLinetypeTableRecord
  2
GETRENNT2
 70
     0
  3
__..__..__..__..__..__..__..__..__..__..__..__.
 72
    65
 73
     6
 40
0.625
 49
0.25
 74
     0
 49
-0.125
 74
     0
 49
0.0
 74
     0
 49
-0.125
 74
     0
 49
0.0
 74
     0
 49
-0.125
 74
     0
  0
LTYPE
  5
83
330
5
100
AcDbSymbolTableRecord
100
AcDbLinetypeTableRecord
  2
GETRENNTX2
 70
     0
  3
________  .  .  ________  .  .  ________  .  . 
 72
    65
 73
     6
 40
2.5
 49
1.0
 74
     0
 49
-0.5
 74
     0
 49
0.0
 74
     0
 49
-0.5
 74
     0
 49
0.0
 74
     0
 49
-0.5
 74
     0
  0
LTYPE
  5
84
330
5
100
AcDbSymbolTableRecord
100
AcDbLinetypeTableRecord
  2
PUNKT
 70
     0
  3
. . . . . . . . . . . . . . . . . . . . . . . .
 72
    65
 73
     2
 40
0.25
 49
0.0
 74
     0
 49
-0.25
 74
     0
  0
LTYPE
  5
85
330
5
100
AcDbSymbolTableRecord
100
AcDbLinetypeTableRecord
  2
PUNKT2
 70
     0
  3
...............................................
 72
    65
 73
     2
 40
0.125
 49
0.0
 74
     0
 49
-0.125
 74
     0
  0
LTYPE
  5
86
330
5
100
AcDbSymbolTableRecord
100
AcDbLinetypeTableRecord
  2
PUNKTX2
 70
     0
  3
.  .  .  .  .  .  .  .  .  .  .  .  .  .  .  . 
 72
    65
 73
     2
 40
0.5
 49
0.0
 74
     0
 49
-0.5
 74
     0
  0
LTYPE
  5
87
330
5
100
AcDbSymbolTableRecord
100
AcDbLinetypeTableRecord
  2
VERDECKT
 70
     0
  3
__ __ __ __ __ __ __ __ __ __ __ __ __ __ __ __
 72
    65
 73
     2
 40
0.375
 49
0.25
 74
     0
 49
-0.125
 74
     0
  0
LTYPE
  5
88
330
5
100
AcDbSymbolTableRecord
100
AcDbLinetypeTableRecord
  2
VERDECKT2
 70
     0
  3
_ _ _ _ _ _ _ _ _ _ _ _ _ _ _ _ _ _ _ _ _ _ _ _
 72
    65
 73
     2
 40
0.1875
 49
0.125
 74
     0
 49
-0.0625
 74
     0
  0
LTYPE
  5
89
330
5
100
AcDbSymbolTableRecord
100
AcDbLinetypeTableRecord
  2
VERDECKTX2
 70
     0
  3
____ ____ ____ ____ ____ ____ ____ ____ ____ __
 72
    65
 73
     2
 40
0.75
 49
0.5
 74
     0
 49
-0.25
 74
     0
  0
LTYPE
  5
8A
330
5
100
AcDbSymbolTableRecord
100
AcDbLinetypeTableRecord
  2
PHANTOM
 70
     0
  3
______  __  __  ______  __  __  ______  __  __ 
 72
    65
 73
     6
 40
2.5
 49
1.25
 74
     0
 49
-0.25
 74
     0
 49
0.25
 74
     0
 49
-0.25
 74
     0
 49
0.25
 74
     0
 49
-0.25
 74
     0
  0
LTYPE
  5
8B
330
5
100
AcDbSymbolTableRecord
100
AcDbLinetypeTableRecord
  2
PHANTOM2
 70
     0
  3
___ _ _ ___ _ _ ___ _ _ ___ _ _ ___ _ _ ___ _ _
 72
    65
 73
     6
 40
1.25
 49
0.625
 74
     0
 49
-0.125
 74
     0
 49
0.125
 74
     0
 49
-0.125
 74
     0
 49
0.125
 74
     0
 49
-0.125
 74
     0
  0
LTYPE
  5
8C
330
5
100
AcDbSymbolTableRecord
100
AcDbLinetypeTableRecord
  2
PHANTOMX2
 70
     0
  3
____________    ____    ____    ____________   
 72
    65
 73
     6
 40
5.0
 49
2.5
 74
     0
 49
-0.5
 74
     0
 49
0.5
 74
     0
 49
-0.5
 74
     0
 49
0.5
 74
     0
 49
-0.5
 74
     0
  0
ENDTAB
  0
TABLE
  2
LAYER
  5
2
102
{ACAD_XDICTIONARY
360
410
102
}
330
0
100
AcDbSymbolTable
 70
    10
  0
LAYER
  5
54
330
2
100
AcDbSymbolTableRecord
100
AcDbLayerTableRecord
  2
0
 70
     0
 62
     7
  6
CONTINUOUS
370
    -3
390
F
347
21
348
0
  0
LAYER
  5
8F
330
2
100
AcDbSymbolTableRecord
100
AcDbLayerTableRecord
  2
GRABUNGSGRENZE
 70
     0
 62
     3
  6
STRICHPUNKTX2
370
    -3
390
F
347
21
348
0
  0
LAYER
  5
90
330
2
100
AcDbSymbolTableRecord
100
AcDbLayerTableRecord
  2
BEFUND
 70
     0
 62
     1
  6
CONTINUOUS
370
    -3
390
F
347
21
348
0
  0
LAYER
  5
91
330
2
100
AcDbSymbolTableRecord
100
AcDbLayerTableRecord
  2
STEINE
 70
     0
 62
     4
  6
CONTINUOUS
370
    -3
390
F
347
21
348
0
  0
LAYER
  5
92
330
2
100
AcDbSymbolTableRecord
100
AcDbLayerTableRecord
  2
KNOCHEN
 70
     0
 62
     2
  6
CONTINUOUS
370
    -3
390
F
347
21
348
0
  0
LAYER
  5
93
330
2
100
AcDbSymbolTableRecord
100
AcDbLayerTableRecord
  2
BEFUND_UNSICHER
 70
     0
 62
     1
  6
GESTRICHELT
370
    -3
390
F
347
21
348
0
  0
LAYER
  5
94
330
2
100
AcDbSymbolTableRecord
100
AcDbLayerTableRecord
  2
FEUER
 70
     0
 62
     1
  6
CONTINUOUS
370
    -3
390
F
347
21
348
0
  0
LAYER
  5
95
330
2
100
AcDbSymbolTableRecord
100
AcDbLayerTableRecord
  2
KNOCHENSCHRAFF
 70
     0
 62
     2
  6
CONTINUOUS
370
    -3
390
F
347
21
348
0
  0
LAYER
  5
96
330
2
100
AcDbSymbolTableRecord
100
AcDbLayerTableRecord
  2
TPROFIL
 70
     0
 62
     3
  6
CONTINUOUS
370
    -3
390
F
347
21
348
0
  0
LAYER
  5
97
330
2
100
AcDbSymbolTableRecord
100
AcDbLayerTableRecord
  2
STEINESCHRAFF
 70
     0
 62
     4
  6
CONTINUOUS
370
    -3
390
F
347
21
348
0
  0
ENDTAB
  0
TABLE
  2
STYLE
  5
3
330
0
100
AcDbSymbolTable
 70
     2
  0
STYLE
  5
55
330
3
100
AcDbSymbolTableRecord
100
AcDbTextStyleTableRecord
  2
STANDARD
 70
     0
 40
0.0
 41
1.0
 50
0.0
 71
     0
 42
3.5
  3
txt.shx
  4

  0
STYLE
  5
59
330
3
100
AcDbSymbolTableRecord
100
AcDbTextStyleTableRecord
  2
Annotative
 70
     0
 40
0.0
 41
1.0
 50
0.0
 71
     0
 42
3.5
  3
txt
  4

1001
AcadAnnotative
1000
AnnotativeData
1002
{
1070
     1
1070
     1
1002
}
  0
ENDTAB
  0
TABLE
  2
VIEW
  5
6
330
0
100
AcDbSymbolTable
 70
     1
  0
ENDTAB
  0
TABLE
  2
UCS
  5
7
330
0
100
AcDbSymbolTable
 70
     0
  0
ENDTAB
  0
TABLE
  2
APPID
  5
9
330
0
100
AcDbSymbolTable
 70
     3
  0
APPID
  5
56
330
9
100
AcDbSymbolTableRecord
100
AcDbRegAppTableRecord
  2
ACAD
 70
     0
  0
APPID
  5
5D
330
9
100
AcDbSymbolTableRecord
100
AcDbRegAppTableRecord
  2
AcadAnnotative
 70
     0
  0
APPID
  5
416
330
9
100
AcDbSymbolTableRecord
100
AcDbRegAppTableRecord
  2
ACAD_NAV_VCDISPLAY
 70
     0
  0
ENDTAB
  0
TABLE
  2
DIMSTYLE
  5
A
330
0
100
AcDbSymbolTable
 70
     2
100
AcDbDimStyleTable
 71
     0
  0
DIMSTYLE
105
57
330
A
100
AcDbSymbolTableRecord
100
AcDbDimStyleTableRecord
  2
Standard
 70
     0
340
55
  0
DIMSTYLE
105
58
330
A
100
AcDbSymbolTableRecord
100
AcDbDimStyleTableRecord
  2
Annotative
 70
     0
340
55
1001
AcadAnnotative
1000
AnnotativeData
1002
{
1070
     1
1070
     1
1002
}
  0
ENDTAB
  0
TABLE
  2
BLOCK_RECORD
  5
1
330
0
100
AcDbSymbolTable
 70
     2
  0
BLOCK_RECORD
  5
6F
330
1
100
AcDbSymbolTableRecord
100
AcDbBlockTableRecord
  2
*Model_Space
340
72
 70
     0
280
     1
281
     0
  0
BLOCK_RECORD
  5
6B
330
1
100
AcDbSymbolTableRecord
100
AcDbBlockTableRecord
  2
*Paper_Space
340
6E
 70
     0
280
     1
281
     0
  0
BLOCK_RECORD
  5
73
330
1
100
AcDbSymbolTableRecord
100
AcDbBlockTableRecord
  2
TPFEIL
340
0
 70
     0
280
     1
281
     0
  0
BLOCK_RECORD
  5
74
330
1
100
AcDbSymbolTableRecord
100
AcDbBlockTableRecord
  2
*X1
340
0
102
{BLKREFS
331
409
102
}
 70
     0
280
     1
281
     0
  0
ENDTAB
  0
ENDSEC
  0
SECTION
  2
BLOCKS
  0
BLOCK
  5
9A
330
6F
100
AcDbEntity
  8
0
100
AcDbBlockBegin
  2
*Model_Space
 70
     0
 10
0.0
 20
0.0
 30
0.0
  3
*Model_Space
  1

  0
ENDBLK
  5
9B
330
6F
100
AcDbEntity
  8
0
100
AcDbBlockEnd
  0
BLOCK
  5
98
330
6B
100
AcDbEntity
 67
     1
  8
0
100
AcDbBlockBegin
  2
*Paper_Space
 70
     0
 10
0.0
 20
0.0
 30
0.0
  3
*Paper_Space
  1

  0
ENDBLK
  5
99
330
6B
100
AcDbEntity
 67
     1
  8
0
100
AcDbBlockEnd
  0
BLOCK
  5
9C
330
73
100
AcDbEntity
  8
0
100
AcDbBlockBegin
  2
TPFEIL
 70
     0
 10
0.0
 20
0.0
 30
0.0
  3
TPFEIL
  1

  0
LWPOLYLINE
  5
9D
330
73
100
AcDbEntity
  8
GRABUNGSGRENZE
100
AcDbPolyline
 90
        2
 70
     0
 10
0.0
 20
-10.0
 40
5.0
 41
0.0
 10
0.0
 20
0.0
 40
0.0
 41
0.0
  0
ENDBLK
  5
A1
330
73
100
AcDbEntity
  8
0
100
AcDbBlockEnd
  0
BLOCK
  5
A2
330
74
100
AcDbEntity
  8
0
100
AcDbBlockBegin
  2
*X1
 70
     1
 10
0.0
 20
0.0
 30
0.0
  3
*X1
  1

  0
LINE
  5
A3
330
74
100
AcDbEntity
  8
0
 62
     0
100
AcDbLine
 10
-238.125
 20
-1523.75
 30
0.0
 11
-238.125
 21
-1523.75
 31
0.0
  0
LINE
  5
A4
330
74
100
AcDbEntity
  8
0
 62
     0
100
AcDbLine
 10
-236.8750000000001
 20
-1523.75
 30
0.0
 11
-236.8750000000001
 21
-1523.75
 31
0.0
  0
LINE
  5
A5
330
74
100
AcDbEntity
  8
0
 62
     0
100
AcDbLine
 10
-170.625
 20
-1523.75
 30
0.0
 11
-170.625
 21
-1523.75
 31
0.0
  0
LINE
  5
A6
330
74
100
AcDbEntity
  8
0
 62
     0
100
AcDbLine
 10
-169.375
 20
-1523.75
 30
0.0
 11
-169.375
 21
-1523.75
 31
0.0
  0
LINE
  5
A7
330
74
100
AcDbEntity
  8
0
 62
     0
100
AcDbLine
 10
-168.125
 20
-1523.75
 30
0.0
 11
-168.125
 21
-1523.75
 31
0.0
  0
LINE
  5
A8
330
74
100
AcDbEntity
  8
0
 62
     0
100
AcDbLine
 10
-166.875
 20
-1523.75
 30
0.0
 11
-166.875
 21
-1523.75
 31
0.0
  0
LINE
  5
A9
330
74
100
AcDbEntity
  8
0
 62
     0
100
AcDbLine
 10
-165.625
 20
-1523.75
 30
0.0
 11
-165.625
 21
-1523.75
 31
0.0
  0
LINE
  5
AA
330
74
100
AcDbEntity
  8
0
 62
     0
100
AcDbLine
 10
-164.375
 20
-1523.75
 30
0.0
 11
-164.375
 21
-1523.75
 31
0.0
  0
LINE
  5
AB
330
74
100
AcDbEntity
  8
0
 62
     0
100
AcDbLine
 10
-163.125
 20
-1523.75
 30
0.0
 11
-163.125
 21
-1523.75
 31
0.0
  0
LINE
  5
AC
330
74
100
AcDbEntity
  8
0
 62
     0
100
AcDbLine
 10
-161.875
 20
-1523.75
 30
0.0
 11
-161.875
 21
-1523.75
 31
0.0
  0
LINE
  5
AD
330
74
100
AcDbEntity
  8
0
 62
     0
100
AcDbLine
 10
-160.625
 20
-1523.75
 30
0.0
 11
-160.625
 21
-1523.75
 31
0.0
  0
LINE
  5
AE
330
74
100
AcDbEntity
  8
0
 62
     0
100
AcDbLine
 10
-159.375
 20
-1523.75
 30
0.0
 11
-159.375
 21
-1523.75
 31
0.0
  0
LINE
  5
AF
330
74
100
AcDbEntity
  8
0
 62
     0
100
AcDbLine
 10
-158.125
 20
-1523.75
 30
0.0
 11
-158.125
 21
-1523.75
 31
0.0
  0
LINE
  5
B0
330
74
100
AcDbEntity
  8
0
 62
     0
100
AcDbLine
 10
-156.875
 20
-1523.75
 30
0.0
 11
-156.875
 21
-1523.75
 31
0.0
  0
LINE
  5
B1
330
74
100
AcDbEntity
  8
0
 62
     0
100
AcDbLine
 10
-155.625
 20
-1523.75
 30
0.0
 11
-155.625
 21
-1523.75
 31
0.0
  0
LINE
  5
B2
330
74
100
AcDbEntity
  8
0
 62
     0
100
AcDbLine
 10
-154.375
 20
-1523.75
 30
0.0
 11
-154.375
 21
-1523.75
 31
0.0
  0
LINE
  5
B3
330
74
100
AcDbEntity
  8
0
 62
     0
100
AcDbLine
 10
-200.625
 20
-1523.75
 30
0.0
 11
-200.625
 21
-1523.75
 31
0.0
  0
LINE
  5
B4
330
74
100
AcDbEntity
  8
0
 62
     0
100
AcDbLine
 10
-199.375
 20
-1523.75
 30
0.0
 11
-199.375
 21
-1523.75
 31
0.0
  0
LINE
  5
B5
330
74
100
AcDbEntity
  8
0
 62
     0
100
AcDbLine
 10
-198.125
 20
-1523.75
 30
0.0
 11
-198.125
 21
-1523.75
 31
0.0
  0
LINE
  5
B6
330
74
100
AcDbEntity
  8
0
 62
     0
100
AcDbLine
 10
-196.875
 20
-1523.75
 30
0.0
 11
-196.875
 21
-1523.75
 31
0.0
  0
LINE
  5
B7
330
74
100
AcDbEntity
  8
0
 62
     0
100
AcDbLine
 10
-195.625
 20
-1523.75
 30
0.0
 11
-195.625
 21
-1523.75
 31
0.0
  0
LINE
  5
B8
330
74
100
AcDbEntity
  8
0
 62
     0
100
AcDbLine
 10
-194.375
 20
-1523.75
 30
0.0
 11
-194.375
 21
-1523.75
 31
0.0
  0
LINE
  5
B9
330
74
100
AcDbEntity
  8
0
 62
     0
100
AcDbLine
 10
-193.125
 20
-1523.75
 30
0.0
 11
-193.125
 21
-1523.75
 31
0.0
  0
LINE
  5
BA
330
74
100
AcDbEntity
  8
0
 62
     0
100
AcDbLine
 10
-191.875
 20
-1523.75
 30
0.0
 11
-191.875
 21
-1523.75
 31
0.0
  0
LINE
  5
BB
330
74
100
AcDbEntity
  8
0
 62
     0
100
AcDbLine
 10
-190.625
 20
-1523.75
 30
0.0
 11
-190.625
 21
-1523.75
 31
0.0
  0
LINE
  5
BC
330
74
100
AcDbEntity
  8
0
 62
     0
100
AcDbLine
 10
-189.375
 20
-1523.75
 30
0.0
 11
-189.375
 21
-1523.75
 31
0.0
  0
LINE
  5
BD
330
74
100
AcDbEntity
  8
0
 62
     0
100
AcDbLine
 10
-188.125
 20
-1523.75
 30
0.0
 11
-188.125
 21
-1523.75
 31
0.0
  0
LINE
  5
BE
330
74
100
AcDbEntity
  8
0
 62
     0
100
AcDbLine
 10
-186.875
 20
-1523.75
 30
0.0
 11
-186.875
 21
-1523.75
 31
0.0
  0
LINE
  5
BF
330
74
100
AcDbEntity
  8
0
 62
     0
100
AcDbLine
 10
-185.625
 20
-1523.75
 30
0.0
 11
-185.625
 21
-1523.75
 31
0.0
  0
LINE
  5
C0
330
74
100
AcDbEntity
  8
0
 62
     0
100
AcDbLine
 10
-184.375
 20
-1523.75
 30
0.0
 11
-184.375
 21
-1523.75
 31
0.0
  0
LINE
  5
C1
330
74
100
AcDbEntity
  8
0
 62
     0
100
AcDbLine
 10
-183.125
 20
-1523.75
 30
0.0
 11
-183.125
 21
-1523.75
 31
0.0
  0
LINE
  5
C2
330
74
100
AcDbEntity
  8
0
 62
     0
100
AcDbLine
 10
-181.875
 20
-1523.75
 30
0.0
 11
-181.875
 21
-1523.75
 31
0.0
  0
LINE
  5
C3
330
74
100
AcDbEntity
  8
0
 62
     0
100
AcDbLine
 10
-180.625
 20
-1523.75
 30
0.0
 11
-180.625
 21
-1523.75
 31
0.0
  0
LINE
  5
C4
330
74
100
AcDbEntity
  8
0
 62
     0
100
AcDbLine
 10
-240.0
 20
-1522.5
 30
0.0
 11
-240.0
 21
-1522.5
 31
0.0
  0
LINE
  5
C5
330
74
100
AcDbEntity
  8
0
 62
     0
100
AcDbLine
 10
-238.75
 20
-1522.5
 30
0.0
 11
-238.75
 21
-1522.5
 31
0.0
  0
LINE
  5
C6
330
74
100
AcDbEntity
  8
0
 62
     0
100
AcDbLine
 10
-237.5
 20
-1522.5
 30
0.0
 11
-237.5
 21
-1522.5
 31
0.0
  0
LINE
  5
C7
330
74
100
AcDbEntity
  8
0
 62
     0
100
AcDbLine
 10
-236.25
 20
-1522.5
 30
0.0
 11
-236.25
 21
-1522.5
 31
0.0
  0
LINE
  5
C8
330
74
100
AcDbEntity
  8
0
 62
     0
100
AcDbLine
 10
-235.0
 20
-1522.5
 30
0.0
 11
-235.0
 21
-1522.5
 31
0.0
  0
LINE
  5
C9
330
74
100
AcDbEntity
  8
0
 62
     0
100
AcDbLine
 10
-168.75
 20
-1522.5
 30
0.0
 11
-168.75
 21
-1522.5
 31
0.0
  0
LINE
  5
CA
330
74
100
AcDbEntity
  8
0
 62
     0
100
AcDbLine
 10
-167.5
 20
-1522.5
 30
0.0
 11
-167.5
 21
-1522.5
 31
0.0
  0
LINE
  5
CB
330
74
100
AcDbEntity
  8
0
 62
     0
100
AcDbLine
 10
-166.2499999999999
 20
-1522.5
 30
0.0
 11
-166.2499999999999
 21
-1522.5
 31
0.0
  0
LINE
  5
CC
330
74
100
AcDbEntity
  8
0
 62
     0
100
AcDbLine
 10
-164.9999999999999
 20
-1522.5
 30
0.0
 11
-164.9999999999999
 21
-1522.5
 31
0.0
  0
LINE
  5
CD
330
74
100
AcDbEntity
  8
0
 62
     0
100
AcDbLine
 10
-163.75
 20
-1522.5
 30
0.0
 11
-163.75
 21
-1522.5
 31
0.0
  0
LINE
  5
CE
330
74
100
AcDbEntity
  8
0
 62
     0
100
AcDbLine
 10
-162.5
 20
-1522.5
 30
0.0
 11
-162.5
 21
-1522.5
 31
0.0
  0
LINE
  5
CF
330
74
100
AcDbEntity
  8
0
 62
     0
100
AcDbLine
 10
-161.25
 20
-1522.5
 30
0.0
 11
-161.25
 21
-1522.5
 31
0.0
  0
LINE
  5
D0
330
74
100
AcDbEntity
  8
0
 62
     0
100
AcDbLine
 10
-159.9999999999999
 20
-1522.5
 30
0.0
 11
-159.9999999999999
 21
-1522.5
 31
0.0
  0
LINE
  5
D1
330
74
100
AcDbEntity
  8
0
 62
     0
100
AcDbLine
 10
-158.7499999999999
 20
-1522.5
 30
0.0
 11
-158.7499999999999
 21
-1522.5
 31
0.0
  0
LINE
  5
D2
330
74
100
AcDbEntity
  8
0
 62
     0
100
AcDbLine
 10
-157.5
 20
-1522.5
 30
0.0
 11
-157.5
 21
-1522.5
 31
0.0
  0
LINE
  5
D3
330
74
100
AcDbEntity
  8
0
 62
     0
100
AcDbLine
 10
-156.25
 20
-1522.5
 30
0.0
 11
-156.25
 21
-1522.5
 31
0.0
  0
LINE
  5
D4
330
74
100
AcDbEntity
  8
0
 62
     0
100
AcDbLine
 10
-155.0
 20
-1522.5
 30
0.0
 11
-155.0
 21
-1522.5
 31
0.0
  0
LINE
  5
D5
330
74
100
AcDbEntity
  8
0
 62
     0
100
AcDbLine
 10
-153.7499999999999
 20
-1522.5
 30
0.0
 11
-153.7499999999999
 21
-1522.5
 31
0.0
  0
LINE
  5
D6
330
74
100
AcDbEntity
  8
0
 62
     0
100
AcDbLine
 10
-200.0
 20
-1522.5
 30
0.0
 11
-200.0
 21
-1522.5
 31
0.0
  0
LINE
  5
D7
330
74
100
AcDbEntity
  8
0
 62
     0
100
AcDbLine
 10
-198.75
 20
-1522.5
 30
0.0
 11
-198.75
 21
-1522.5
 31
0.0
  0
LINE
  5
D8
330
74
100
AcDbEntity
  8
0
 62
     0
100
AcDbLine
 10
-197.5
 20
-1522.5
 30
0.0
 11
-197.5
 21
-1522.5
 31
0.0
  0
LINE
  5
D9
330
74
100
AcDbEntity
  8
0
 62
     0
100
AcDbLine
 10
-196.25
 20
-1522.5
 30
0.0
 11
-196.25
 21
-1522.5
 31
0.0
  0
LINE
  5
DA
330
74
100
AcDbEntity
  8
0
 62
     0
100
AcDbLine
 10
-195.0
 20
-1522.5
 30
0.0
 11
-195.0
 21
-1522.5
 31
0.0
  0
LINE
  5
DB
330
74
100
AcDbEntity
  8
0
 62
     0
100
AcDbLine
 10
-193.75
 20
-1522.5
 30
0.0
 11
-193.75
 21
-1522.5
 31
0.0
  0
LINE
  5
DC
330
74
100
AcDbEntity
  8
0
 62
     0
100
AcDbLine
 10
-192.5
 20
-1522.5
 30
0.0
 11
-192.5
 21
-1522.5
 31
0.0
  0
LINE
  5
DD
330
74
100
AcDbEntity
  8
0
 62
     0
100
AcDbLine
 10
-191.25
 20
-1522.5
 30
0.0
 11
-191.25
 21
-1522.5
 31
0.0
  0
LINE
  5
DE
330
74
100
AcDbEntity
  8
0
 62
     0
100
AcDbLine
 10
-190.0
 20
-1522.5
 30
0.0
 11
-190.0
 21
-1522.5
 31
0.0
  0
LINE
  5
DF
330
74
100
AcDbEntity
  8
0
 62
     0
100
AcDbLine
 10
-188.75
 20
-1522.5
 30
0.0
 11
-188.75
 21
-1522.5
 31
0.0
  0
LINE
  5
E0
330
74
100
AcDbEntity
  8
0
 62
     0
100
AcDbLine
 10
-187.5
 20
-1522.5
 30
0.0
 11
-187.5
 21
-1522.5
 31
0.0
  0
LINE
  5
E1
330
74
100
AcDbEntity
  8
0
 62
     0
100
AcDbLine
 10
-186.25
 20
-1522.5
 30
0.0
 11
-186.25
 21
-1522.5
 31
0.0
  0
LINE
  5
E2
330
74
100
AcDbEntity
  8
0
 62
     0
100
AcDbLine
 10
-185.0
 20
-1522.5
 30
0.0
 11
-185.0
 21
-1522.5
 31
0.0
  0
LINE
  5
E3
330
74
100
AcDbEntity
  8
0
 62
     0
100
AcDbLine
 10
-183.75
 20
-1522.5
 30
0.0
 11
-183.75
 21
-1522.5
 31
0.0
  0
LINE
  5
E4
330
74
100
AcDbEntity
  8
0
 62
     0
100
AcDbLine
 10
-182.5
 20
-1522.5
 30
0.0
 11
-182.5
 21
-1522.5
 31
0.0
  0
LINE
  5
E5
330
74
100
AcDbEntity
  8
0
 62
     0
100
AcDbLine
 10
-181.25
 20
-1522.5
 30
0.0
 11
-181.25
 21
-1522.5
 31
0.0
  0
LINE
  5
E6
330
74
100
AcDbEntity
  8
0
 62
     0
100
AcDbLine
 10
-180.0
 20
-1522.5
 30
0.0
 11
-180.0
 21
-1522.5
 31
0.0
  0
LINE
  5
E7
330
74
100
AcDbEntity
  8
0
 62
     0
100
AcDbLine
 10
-238.125
 20
-1521.25
 30
0.0
 11
-238.125
 21
-1521.25
 31
0.0
  0
LINE
  5
E8
330
74
100
AcDbEntity
  8
0
 62
     0
100
AcDbLine
 10
-236.8750000000001
 20
-1521.25
 30
0.0
 11
-236.8750000000001
 21
-1521.25
 31
0.0
  0
LINE
  5
E9
330
74
100
AcDbEntity
  8
0
 62
     0
100
AcDbLine
 10
-235.6250000000001
 20
-1521.25
 30
0.0
 11
-235.6250000000001
 21
-1521.25
 31
0.0
  0
LINE
  5
EA
330
74
100
AcDbEntity
  8
0
 62
     0
100
AcDbLine
 10
-234.375
 20
-1521.25
 30
0.0
 11
-234.375
 21
-1521.25
 31
0.0
  0
LINE
  5
EB
330
74
100
AcDbEntity
  8
0
 62
     0
100
AcDbLine
 10
-166.875
 20
-1521.25
 30
0.0
 11
-166.875
 21
-1521.25
 31
0.0
  0
LINE
  5
EC
330
74
100
AcDbEntity
  8
0
 62
     0
100
AcDbLine
 10
-165.625
 20
-1521.25
 30
0.0
 11
-165.625
 21
-1521.25
 31
0.0
  0
LINE
  5
ED
330
74
100
AcDbEntity
  8
0
 62
     0
100
AcDbLine
 10
-164.375
 20
-1521.25
 30
0.0
 11
-164.375
 21
-1521.25
 31
0.0
  0
LINE
  5
EE
330
74
100
AcDbEntity
  8
0
 62
     0
100
AcDbLine
 10
-163.1249999999999
 20
-1521.25
 30
0.0
 11
-163.1249999999999
 21
-1521.25
 31
0.0
  0
LINE
  5
EF
330
74
100
AcDbEntity
  8
0
 62
     0
100
AcDbLine
 10
-161.8749999999999
 20
-1521.25
 30
0.0
 11
-161.8749999999999
 21
-1521.25
 31
0.0
  0
LINE
  5
F0
330
74
100
AcDbEntity
  8
0
 62
     0
100
AcDbLine
 10
-160.625
 20
-1521.25
 30
0.0
 11
-160.625
 21
-1521.25
 31
0.0
  0
LINE
  5
F1
330
74
100
AcDbEntity
  8
0
 62
     0
100
AcDbLine
 10
-159.375
 20
-1521.25
 30
0.0
 11
-159.375
 21
-1521.25
 31
0.0
  0
LINE
  5
F2
330
74
100
AcDbEntity
  8
0
 62
     0
100
AcDbLine
 10
-158.125
 20
-1521.25
 30
0.0
 11
-158.125
 21
-1521.25
 31
0.0
  0
LINE
  5
F3
330
74
100
AcDbEntity
  8
0
 62
     0
100
AcDbLine
 10
-156.8749999999999
 20
-1521.25
 30
0.0
 11
-156.8749999999999
 21
-1521.25
 31
0.0
  0
LINE
  5
F4
330
74
100
AcDbEntity
  8
0
 62
     0
100
AcDbLine
 10
-155.6249999999999
 20
-1521.25
 30
0.0
 11
-155.6249999999999
 21
-1521.25
 31
0.0
  0
LINE
  5
F5
330
74
100
AcDbEntity
  8
0
 62
     0
100
AcDbLine
 10
-154.375
 20
-1521.25
 30
0.0
 11
-154.375
 21
-1521.25
 31
0.0
  0
LINE
  5
F6
330
74
100
AcDbEntity
  8
0
 62
     0
100
AcDbLine
 10
-200.625
 20
-1521.25
 30
0.0
 11
-200.625
 21
-1521.25
 31
0.0
  0
LINE
  5
F7
330
74
100
AcDbEntity
  8
0
 62
     0
100
AcDbLine
 10
-199.375
 20
-1521.25
 30
0.0
 11
-199.375
 21
-1521.25
 31
0.0
  0
LINE
  5
F8
330
74
100
AcDbEntity
  8
0
 62
     0
100
AcDbLine
 10
-198.125
 20
-1521.25
 30
0.0
 11
-198.125
 21
-1521.25
 31
0.0
  0
LINE
  5
F9
330
74
100
AcDbEntity
  8
0
 62
     0
100
AcDbLine
 10
-196.875
 20
-1521.25
 30
0.0
 11
-196.875
 21
-1521.25
 31
0.0
  0
LINE
  5
FA
330
74
100
AcDbEntity
  8
0
 62
     0
100
AcDbLine
 10
-195.625
 20
-1521.25
 30
0.0
 11
-195.625
 21
-1521.25
 31
0.0
  0
LINE
  5
FB
330
74
100
AcDbEntity
  8
0
 62
     0
100
AcDbLine
 10
-194.375
 20
-1521.25
 30
0.0
 11
-194.375
 21
-1521.25
 31
0.0
  0
LINE
  5
FC
330
74
100
AcDbEntity
  8
0
 62
     0
100
AcDbLine
 10
-193.125
 20
-1521.25
 30
0.0
 11
-193.125
 21
-1521.25
 31
0.0
  0
LINE
  5
FD
330
74
100
AcDbEntity
  8
0
 62
     0
100
AcDbLine
 10
-191.875
 20
-1521.25
 30
0.0
 11
-191.875
 21
-1521.25
 31
0.0
  0
LINE
  5
FE
330
74
100
AcDbEntity
  8
0
 62
     0
100
AcDbLine
 10
-190.625
 20
-1521.25
 30
0.0
 11
-190.625
 21
-1521.25
 31
0.0
  0
LINE
  5
FF
330
74
100
AcDbEntity
  8
0
 62
     0
100
AcDbLine
 10
-189.375
 20
-1521.25
 30
0.0
 11
-189.375
 21
-1521.25
 31
0.0
  0
LINE
  5
100
330
74
100
AcDbEntity
  8
0
 62
     0
100
AcDbLine
 10
-188.125
 20
-1521.25
 30
0.0
 11
-188.125
 21
-1521.25
 31
0.0
  0
LINE
  5
101
330
74
100
AcDbEntity
  8
0
 62
     0
100
AcDbLine
 10
-186.875
 20
-1521.25
 30
0.0
 11
-186.875
 21
-1521.25
 31
0.0
  0
LINE
  5
102
330
74
100
AcDbEntity
  8
0
 62
     0
100
AcDbLine
 10
-185.625
 20
-1521.25
 30
0.0
 11
-185.625
 21
-1521.25
 31
0.0
  0
LINE
  5
103
330
74
100
AcDbEntity
  8
0
 62
     0
100
AcDbLine
 10
-184.375
 20
-1521.25
 30
0.0
 11
-184.375
 21
-1521.25
 31
0.0
  0
LINE
  5
104
330
74
100
AcDbEntity
  8
0
 62
     0
100
AcDbLine
 10
-183.125
 20
-1521.25
 30
0.0
 11
-183.125
 21
-1521.25
 31
0.0
  0
LINE
  5
105
330
74
100
AcDbEntity
  8
0
 62
     0
100
AcDbLine
 10
-181.875
 20
-1521.25
 30
0.0
 11
-181.875
 21
-1521.25
 31
0.0
  0
LINE
  5
106
330
74
100
AcDbEntity
  8
0
 62
     0
100
AcDbLine
 10
-180.625
 20
-1521.25
 30
0.0
 11
-180.625
 21
-1521.25
 31
0.0
  0
LINE
  5
107
330
74
100
AcDbEntity
  8
0
 62
     0
100
AcDbLine
 10
-179.375
 20
-1521.25
 30
0.0
 11
-179.375
 21
-1521.25
 31
0.0
  0
LINE
  5
108
330
74
100
AcDbEntity
  8
0
 62
     0
100
AcDbLine
 10
-236.25
 20
-1520.0
 30
0.0
 11
-236.25
 21
-1520.0
 31
0.0
  0
LINE
  5
109
330
74
100
AcDbEntity
  8
0
 62
     0
100
AcDbLine
 10
-235.0
 20
-1520.0
 30
0.0
 11
-235.0
 21
-1520.0
 31
0.0
  0
LINE
  5
10A
330
74
100
AcDbEntity
  8
0
 62
     0
100
AcDbLine
 10
-233.75
 20
-1520.0
 30
0.0
 11
-233.75
 21
-1520.0
 31
0.0
  0
LINE
  5
10B
330
74
100
AcDbEntity
  8
0
 62
     0
100
AcDbLine
 10
-165.0
 20
-1520.0
 30
0.0
 11
-165.0
 21
-1520.0
 31
0.0
  0
LINE
  5
10C
330
74
100
AcDbEntity
  8
0
 62
     0
100
AcDbLine
 10
-163.75
 20
-1520.0
 30
0.0
 11
-163.75
 21
-1520.0
 31
0.0
  0
LINE
  5
10D
330
74
100
AcDbEntity
  8
0
 62
     0
100
AcDbLine
 10
-162.5
 20
-1520.0
 30
0.0
 11
-162.5
 21
-1520.0
 31
0.0
  0
LINE
  5
10E
330
74
100
AcDbEntity
  8
0
 62
     0
100
AcDbLine
 10
-161.25
 20
-1520.0
 30
0.0
 11
-161.25
 21
-1520.0
 31
0.0
  0
LINE
  5
10F
330
74
100
AcDbEntity
  8
0
 62
     0
100
AcDbLine
 10
-160.0
 20
-1520.0
 30
0.0
 11
-160.0
 21
-1520.0
 31
0.0
  0
LINE
  5
110
330
74
100
AcDbEntity
  8
0
 62
     0
100
AcDbLine
 10
-158.75
 20
-1520.0
 30
0.0
 11
-158.75
 21
-1520.0
 31
0.0
  0
LINE
  5
111
330
74
100
AcDbEntity
  8
0
 62
     0
100
AcDbLine
 10
-157.5
 20
-1520.0
 30
0.0
 11
-157.5
 21
-1520.0
 31
0.0
  0
LINE
  5
112
330
74
100
AcDbEntity
  8
0
 62
     0
100
AcDbLine
 10
-156.25
 20
-1520.0
 30
0.0
 11
-156.25
 21
-1520.0
 31
0.0
  0
LINE
  5
113
330
74
100
AcDbEntity
  8
0
 62
     0
100
AcDbLine
 10
-155.0
 20
-1520.0
 30
0.0
 11
-155.0
 21
-1520.0
 31
0.0
  0
LINE
  5
114
330
74
100
AcDbEntity
  8
0
 62
     0
100
AcDbLine
 10
-153.75
 20
-1520.0
 30
0.0
 11
-153.75
 21
-1520.0
 31
0.0
  0
LINE
  5
115
330
74
100
AcDbEntity
  8
0
 62
     0
100
AcDbLine
 10
-200.0
 20
-1520.0
 30
0.0
 11
-200.0
 21
-1520.0
 31
0.0
  0
LINE
  5
116
330
74
100
AcDbEntity
  8
0
 62
     0
100
AcDbLine
 10
-198.75
 20
-1520.0
 30
0.0
 11
-198.75
 21
-1520.0
 31
0.0
  0
LINE
  5
117
330
74
100
AcDbEntity
  8
0
 62
     0
100
AcDbLine
 10
-197.5
 20
-1520.0
 30
0.0
 11
-197.5
 21
-1520.0
 31
0.0
  0
LINE
  5
118
330
74
100
AcDbEntity
  8
0
 62
     0
100
AcDbLine
 10
-196.25
 20
-1520.0
 30
0.0
 11
-196.25
 21
-1520.0
 31
0.0
  0
LINE
  5
119
330
74
100
AcDbEntity
  8
0
 62
     0
100
AcDbLine
 10
-195.0
 20
-1520.0
 30
0.0
 11
-195.0
 21
-1520.0
 31
0.0
  0
LINE
  5
11A
330
74
100
AcDbEntity
  8
0
 62
     0
100
AcDbLine
 10
-193.75
 20
-1520.0
 30
0.0
 11
-193.75
 21
-1520.0
 31
0.0
  0
LINE
  5
11B
330
74
100
AcDbEntity
  8
0
 62
     0
100
AcDbLine
 10
-192.5
 20
-1520.0
 30
0.0
 11
-192.5
 21
-1520.0
 31
0.0
  0
LINE
  5
11C
330
74
100
AcDbEntity
  8
0
 62
     0
100
AcDbLine
 10
-191.2499999999999
 20
-1520.0
 30
0.0
 11
-191.2499999999999
 21
-1520.0
 31
0.0
  0
LINE
  5
11D
330
74
100
AcDbEntity
  8
0
 62
     0
100
AcDbLine
 10
-190.0
 20
-1520.0
 30
0.0
 11
-190.0
 21
-1520.0
 31
0.0
  0
LINE
  5
11E
330
74
100
AcDbEntity
  8
0
 62
     0
100
AcDbLine
 10
-188.75
 20
-1520.0
 30
0.0
 11
-188.75
 21
-1520.0
 31
0.0
  0
LINE
  5
11F
330
74
100
AcDbEntity
  8
0
 62
     0
100
AcDbLine
 10
-187.5
 20
-1520.0
 30
0.0
 11
-187.5
 21
-1520.0
 31
0.0
  0
LINE
  5
120
330
74
100
AcDbEntity
  8
0
 62
     0
100
AcDbLine
 10
-186.25
 20
-1520.0
 30
0.0
 11
-186.25
 21
-1520.0
 31
0.0
  0
LINE
  5
121
330
74
100
AcDbEntity
  8
0
 62
     0
100
AcDbLine
 10
-184.9999999999999
 20
-1520.0
 30
0.0
 11
-184.9999999999999
 21
-1520.0
 31
0.0
  0
LINE
  5
122
330
74
100
AcDbEntity
  8
0
 62
     0
100
AcDbLine
 10
-183.75
 20
-1520.0
 30
0.0
 11
-183.75
 21
-1520.0
 31
0.0
  0
LINE
  5
123
330
74
100
AcDbEntity
  8
0
 62
     0
100
AcDbLine
 10
-182.5
 20
-1520.0
 30
0.0
 11
-182.5
 21
-1520.0
 31
0.0
  0
LINE
  5
124
330
74
100
AcDbEntity
  8
0
 62
     0
100
AcDbLine
 10
-181.25
 20
-1520.0
 30
0.0
 11
-181.25
 21
-1520.0
 31
0.0
  0
LINE
  5
125
330
74
100
AcDbEntity
  8
0
 62
     0
100
AcDbLine
 10
-180.0
 20
-1520.0
 30
0.0
 11
-180.0
 21
-1520.0
 31
0.0
  0
LINE
  5
126
330
74
100
AcDbEntity
  8
0
 62
     0
100
AcDbLine
 10
-178.7499999999999
 20
-1520.0
 30
0.0
 11
-178.7499999999999
 21
-1520.0
 31
0.0
  0
LINE
  5
127
330
74
100
AcDbEntity
  8
0
 62
     0
100
AcDbLine
 10
-177.4999999999999
 20
-1520.0
 30
0.0
 11
-177.4999999999999
 21
-1520.0
 31
0.0
  0
LINE
  5
128
330
74
100
AcDbEntity
  8
0
 62
     0
100
AcDbLine
 10
-234.375
 20
-1518.75
 30
0.0
 11
-234.375
 21
-1518.75
 31
0.0
  0
LINE
  5
129
330
74
100
AcDbEntity
  8
0
 62
     0
100
AcDbLine
 10
-233.1249999999999
 20
-1518.75
 30
0.0
 11
-233.1249999999999
 21
-1518.75
 31
0.0
  0
LINE
  5
12A
330
74
100
AcDbEntity
  8
0
 62
     0
100
AcDbLine
 10
-231.875
 20
-1518.75
 30
0.0
 11
-231.875
 21
-1518.75
 31
0.0
  0
LINE
  5
12B
330
74
100
AcDbEntity
  8
0
 62
     0
100
AcDbLine
 10
-161.875
 20
-1518.75
 30
0.0
 11
-161.875
 21
-1518.75
 31
0.0
  0
LINE
  5
12C
330
74
100
AcDbEntity
  8
0
 62
     0
100
AcDbLine
 10
-160.625
 20
-1518.75
 30
0.0
 11
-160.625
 21
-1518.75
 31
0.0
  0
LINE
  5
12D
330
74
100
AcDbEntity
  8
0
 62
     0
100
AcDbLine
 10
-159.375
 20
-1518.75
 30
0.0
 11
-159.375
 21
-1518.75
 31
0.0
  0
LINE
  5
12E
330
74
100
AcDbEntity
  8
0
 62
     0
100
AcDbLine
 10
-158.125
 20
-1518.75
 30
0.0
 11
-158.125
 21
-1518.75
 31
0.0
  0
LINE
  5
12F
330
74
100
AcDbEntity
  8
0
 62
     0
100
AcDbLine
 10
-156.875
 20
-1518.75
 30
0.0
 11
-156.875
 21
-1518.75
 31
0.0
  0
LINE
  5
130
330
74
100
AcDbEntity
  8
0
 62
     0
100
AcDbLine
 10
-155.625
 20
-1518.75
 30
0.0
 11
-155.625
 21
-1518.75
 31
0.0
  0
LINE
  5
131
330
74
100
AcDbEntity
  8
0
 62
     0
100
AcDbLine
 10
-154.375
 20
-1518.75
 30
0.0
 11
-154.375
 21
-1518.75
 31
0.0
  0
LINE
  5
132
330
74
100
AcDbEntity
  8
0
 62
     0
100
AcDbLine
 10
-153.125
 20
-1518.75
 30
0.0
 11
-153.125
 21
-1518.75
 31
0.0
  0
LINE
  5
133
330
74
100
AcDbEntity
  8
0
 62
     0
100
AcDbLine
 10
-200.625
 20
-1518.75
 30
0.0
 11
-200.625
 21
-1518.75
 31
0.0
  0
LINE
  5
134
330
74
100
AcDbEntity
  8
0
 62
     0
100
AcDbLine
 10
-199.375
 20
-1518.75
 30
0.0
 11
-199.375
 21
-1518.75
 31
0.0
  0
LINE
  5
135
330
74
100
AcDbEntity
  8
0
 62
     0
100
AcDbLine
 10
-198.125
 20
-1518.75
 30
0.0
 11
-198.125
 21
-1518.75
 31
0.0
  0
LINE
  5
136
330
74
100
AcDbEntity
  8
0
 62
     0
100
AcDbLine
 10
-196.875
 20
-1518.75
 30
0.0
 11
-196.875
 21
-1518.75
 31
0.0
  0
LINE
  5
137
330
74
100
AcDbEntity
  8
0
 62
     0
100
AcDbLine
 10
-195.625
 20
-1518.75
 30
0.0
 11
-195.625
 21
-1518.75
 31
0.0
  0
LINE
  5
138
330
74
100
AcDbEntity
  8
0
 62
     0
100
AcDbLine
 10
-194.375
 20
-1518.75
 30
0.0
 11
-194.375
 21
-1518.75
 31
0.0
  0
LINE
  5
139
330
74
100
AcDbEntity
  8
0
 62
     0
100
AcDbLine
 10
-193.125
 20
-1518.75
 30
0.0
 11
-193.125
 21
-1518.75
 31
0.0
  0
LINE
  5
13A
330
74
100
AcDbEntity
  8
0
 62
     0
100
AcDbLine
 10
-191.875
 20
-1518.75
 30
0.0
 11
-191.875
 21
-1518.75
 31
0.0
  0
LINE
  5
13B
330
74
100
AcDbEntity
  8
0
 62
     0
100
AcDbLine
 10
-190.625
 20
-1518.75
 30
0.0
 11
-190.625
 21
-1518.75
 31
0.0
  0
LINE
  5
13C
330
74
100
AcDbEntity
  8
0
 62
     0
100
AcDbLine
 10
-189.375
 20
-1518.75
 30
0.0
 11
-189.375
 21
-1518.75
 31
0.0
  0
LINE
  5
13D
330
74
100
AcDbEntity
  8
0
 62
     0
100
AcDbLine
 10
-188.1249999999999
 20
-1518.75
 30
0.0
 11
-188.1249999999999
 21
-1518.75
 31
0.0
  0
LINE
  5
13E
330
74
100
AcDbEntity
  8
0
 62
     0
100
AcDbLine
 10
-186.875
 20
-1518.75
 30
0.0
 11
-186.875
 21
-1518.75
 31
0.0
  0
LINE
  5
13F
330
74
100
AcDbEntity
  8
0
 62
     0
100
AcDbLine
 10
-185.625
 20
-1518.75
 30
0.0
 11
-185.625
 21
-1518.75
 31
0.0
  0
LINE
  5
140
330
74
100
AcDbEntity
  8
0
 62
     0
100
AcDbLine
 10
-184.375
 20
-1518.75
 30
0.0
 11
-184.375
 21
-1518.75
 31
0.0
  0
LINE
  5
141
330
74
100
AcDbEntity
  8
0
 62
     0
100
AcDbLine
 10
-183.125
 20
-1518.75
 30
0.0
 11
-183.125
 21
-1518.75
 31
0.0
  0
LINE
  5
142
330
74
100
AcDbEntity
  8
0
 62
     0
100
AcDbLine
 10
-181.8749999999999
 20
-1518.75
 30
0.0
 11
-181.8749999999999
 21
-1518.75
 31
0.0
  0
LINE
  5
143
330
74
100
AcDbEntity
  8
0
 62
     0
100
AcDbLine
 10
-180.625
 20
-1518.75
 30
0.0
 11
-180.625
 21
-1518.75
 31
0.0
  0
LINE
  5
144
330
74
100
AcDbEntity
  8
0
 62
     0
100
AcDbLine
 10
-179.375
 20
-1518.75
 30
0.0
 11
-179.375
 21
-1518.75
 31
0.0
  0
LINE
  5
145
330
74
100
AcDbEntity
  8
0
 62
     0
100
AcDbLine
 10
-178.125
 20
-1518.75
 30
0.0
 11
-178.125
 21
-1518.75
 31
0.0
  0
LINE
  5
146
330
74
100
AcDbEntity
  8
0
 62
     0
100
AcDbLine
 10
-176.875
 20
-1518.75
 30
0.0
 11
-176.875
 21
-1518.75
 31
0.0
  0
LINE
  5
147
330
74
100
AcDbEntity
  8
0
 62
     0
100
AcDbLine
 10
-232.5
 20
-1517.5
 30
0.0
 11
-232.5
 21
-1517.5
 31
0.0
  0
LINE
  5
148
330
74
100
AcDbEntity
  8
0
 62
     0
100
AcDbLine
 10
-161.25
 20
-1517.5
 30
0.0
 11
-161.25
 21
-1517.5
 31
0.0
  0
LINE
  5
149
330
74
100
AcDbEntity
  8
0
 62
     0
100
AcDbLine
 10
-159.9999999999999
 20
-1517.5
 30
0.0
 11
-159.9999999999999
 21
-1517.5
 31
0.0
  0
LINE
  5
14A
330
74
100
AcDbEntity
  8
0
 62
     0
100
AcDbLine
 10
-158.7499999999999
 20
-1517.5
 30
0.0
 11
-158.7499999999999
 21
-1517.5
 31
0.0
  0
LINE
  5
14B
330
74
100
AcDbEntity
  8
0
 62
     0
100
AcDbLine
 10
-157.5
 20
-1517.5
 30
0.0
 11
-157.5
 21
-1517.5
 31
0.0
  0
LINE
  5
14C
330
74
100
AcDbEntity
  8
0
 62
     0
100
AcDbLine
 10
-156.25
 20
-1517.5
 30
0.0
 11
-156.25
 21
-1517.5
 31
0.0
  0
LINE
  5
14D
330
74
100
AcDbEntity
  8
0
 62
     0
100
AcDbLine
 10
-155.0
 20
-1517.5
 30
0.0
 11
-155.0
 21
-1517.5
 31
0.0
  0
LINE
  5
14E
330
74
100
AcDbEntity
  8
0
 62
     0
100
AcDbLine
 10
-153.7499999999999
 20
-1517.5
 30
0.0
 11
-153.7499999999999
 21
-1517.5
 31
0.0
  0
LINE
  5
14F
330
74
100
AcDbEntity
  8
0
 62
     0
100
AcDbLine
 10
-200.0
 20
-1517.5
 30
0.0
 11
-200.0
 21
-1517.5
 31
0.0
  0
LINE
  5
150
330
74
100
AcDbEntity
  8
0
 62
     0
100
AcDbLine
 10
-198.75
 20
-1517.5
 30
0.0
 11
-198.75
 21
-1517.5
 31
0.0
  0
LINE
  5
151
330
74
100
AcDbEntity
  8
0
 62
     0
100
AcDbLine
 10
-197.5
 20
-1517.5
 30
0.0
 11
-197.5
 21
-1517.5
 31
0.0
  0
LINE
  5
152
330
74
100
AcDbEntity
  8
0
 62
     0
100
AcDbLine
 10
-196.25
 20
-1517.5
 30
0.0
 11
-196.25
 21
-1517.5
 31
0.0
  0
LINE
  5
153
330
74
100
AcDbEntity
  8
0
 62
     0
100
AcDbLine
 10
-195.0
 20
-1517.5
 30
0.0
 11
-195.0
 21
-1517.5
 31
0.0
  0
LINE
  5
154
330
74
100
AcDbEntity
  8
0
 62
     0
100
AcDbLine
 10
-193.75
 20
-1517.5
 30
0.0
 11
-193.75
 21
-1517.5
 31
0.0
  0
LINE
  5
155
330
74
100
AcDbEntity
  8
0
 62
     0
100
AcDbLine
 10
-192.5
 20
-1517.5
 30
0.0
 11
-192.5
 21
-1517.5
 31
0.0
  0
LINE
  5
156
330
74
100
AcDbEntity
  8
0
 62
     0
100
AcDbLine
 10
-191.25
 20
-1517.5
 30
0.0
 11
-191.25
 21
-1517.5
 31
0.0
  0
LINE
  5
157
330
74
100
AcDbEntity
  8
0
 62
     0
100
AcDbLine
 10
-190.0
 20
-1517.5
 30
0.0
 11
-190.0
 21
-1517.5
 31
0.0
  0
LINE
  5
158
330
74
100
AcDbEntity
  8
0
 62
     0
100
AcDbLine
 10
-188.75
 20
-1517.5
 30
0.0
 11
-188.75
 21
-1517.5
 31
0.0
  0
LINE
  5
159
330
74
100
AcDbEntity
  8
0
 62
     0
100
AcDbLine
 10
-187.5
 20
-1517.5
 30
0.0
 11
-187.5
 21
-1517.5
 31
0.0
  0
LINE
  5
15A
330
74
100
AcDbEntity
  8
0
 62
     0
100
AcDbLine
 10
-186.25
 20
-1517.5
 30
0.0
 11
-186.25
 21
-1517.5
 31
0.0
  0
LINE
  5
15B
330
74
100
AcDbEntity
  8
0
 62
     0
100
AcDbLine
 10
-185.0
 20
-1517.5
 30
0.0
 11
-185.0
 21
-1517.5
 31
0.0
  0
LINE
  5
15C
330
74
100
AcDbEntity
  8
0
 62
     0
100
AcDbLine
 10
-183.75
 20
-1517.5
 30
0.0
 11
-183.75
 21
-1517.5
 31
0.0
  0
LINE
  5
15D
330
74
100
AcDbEntity
  8
0
 62
     0
100
AcDbLine
 10
-182.5
 20
-1517.5
 30
0.0
 11
-182.5
 21
-1517.5
 31
0.0
  0
LINE
  5
15E
330
74
100
AcDbEntity
  8
0
 62
     0
100
AcDbLine
 10
-181.25
 20
-1517.5
 30
0.0
 11
-181.25
 21
-1517.5
 31
0.0
  0
LINE
  5
15F
330
74
100
AcDbEntity
  8
0
 62
     0
100
AcDbLine
 10
-180.0
 20
-1517.5
 30
0.0
 11
-180.0
 21
-1517.5
 31
0.0
  0
LINE
  5
160
330
74
100
AcDbEntity
  8
0
 62
     0
100
AcDbLine
 10
-178.75
 20
-1517.5
 30
0.0
 11
-178.75
 21
-1517.5
 31
0.0
  0
LINE
  5
161
330
74
100
AcDbEntity
  8
0
 62
     0
100
AcDbLine
 10
-177.5
 20
-1517.5
 30
0.0
 11
-177.5
 21
-1517.5
 31
0.0
  0
LINE
  5
162
330
74
100
AcDbEntity
  8
0
 62
     0
100
AcDbLine
 10
-176.25
 20
-1517.5
 30
0.0
 11
-176.25
 21
-1517.5
 31
0.0
  0
LINE
  5
163
330
74
100
AcDbEntity
  8
0
 62
     0
100
AcDbLine
 10
-199.375
 20
-1516.25
 30
0.0
 11
-199.375
 21
-1516.25
 31
0.0
  0
LINE
  5
164
330
74
100
AcDbEntity
  8
0
 62
     0
100
AcDbLine
 10
-198.125
 20
-1516.25
 30
0.0
 11
-198.125
 21
-1516.25
 31
0.0
  0
LINE
  5
165
330
74
100
AcDbEntity
  8
0
 62
     0
100
AcDbLine
 10
-196.875
 20
-1516.25
 30
0.0
 11
-196.875
 21
-1516.25
 31
0.0
  0
LINE
  5
166
330
74
100
AcDbEntity
  8
0
 62
     0
100
AcDbLine
 10
-195.625
 20
-1516.25
 30
0.0
 11
-195.625
 21
-1516.25
 31
0.0
  0
LINE
  5
167
330
74
100
AcDbEntity
  8
0
 62
     0
100
AcDbLine
 10
-194.375
 20
-1516.25
 30
0.0
 11
-194.375
 21
-1516.25
 31
0.0
  0
LINE
  5
168
330
74
100
AcDbEntity
  8
0
 62
     0
100
AcDbLine
 10
-193.125
 20
-1516.25
 30
0.0
 11
-193.125
 21
-1516.25
 31
0.0
  0
LINE
  5
169
330
74
100
AcDbEntity
  8
0
 62
     0
100
AcDbLine
 10
-191.875
 20
-1516.25
 30
0.0
 11
-191.875
 21
-1516.25
 31
0.0
  0
LINE
  5
16A
330
74
100
AcDbEntity
  8
0
 62
     0
100
AcDbLine
 10
-190.625
 20
-1516.25
 30
0.0
 11
-190.625
 21
-1516.25
 31
0.0
  0
LINE
  5
16B
330
74
100
AcDbEntity
  8
0
 62
     0
100
AcDbLine
 10
-189.375
 20
-1516.25
 30
0.0
 11
-189.375
 21
-1516.25
 31
0.0
  0
LINE
  5
16C
330
74
100
AcDbEntity
  8
0
 62
     0
100
AcDbLine
 10
-188.1249999999999
 20
-1516.25
 30
0.0
 11
-188.1249999999999
 21
-1516.25
 31
0.0
  0
LINE
  5
16D
330
74
100
AcDbEntity
  8
0
 62
     0
100
AcDbLine
 10
-186.875
 20
-1516.25
 30
0.0
 11
-186.875
 21
-1516.25
 31
0.0
  0
LINE
  5
16E
330
74
100
AcDbEntity
  8
0
 62
     0
100
AcDbLine
 10
-185.625
 20
-1516.25
 30
0.0
 11
-185.625
 21
-1516.25
 31
0.0
  0
LINE
  5
16F
330
74
100
AcDbEntity
  8
0
 62
     0
100
AcDbLine
 10
-184.375
 20
-1516.25
 30
0.0
 11
-184.375
 21
-1516.25
 31
0.0
  0
LINE
  5
170
330
74
100
AcDbEntity
  8
0
 62
     0
100
AcDbLine
 10
-183.125
 20
-1516.25
 30
0.0
 11
-183.125
 21
-1516.25
 31
0.0
  0
LINE
  5
171
330
74
100
AcDbEntity
  8
0
 62
     0
100
AcDbLine
 10
-181.8749999999999
 20
-1516.25
 30
0.0
 11
-181.8749999999999
 21
-1516.25
 31
0.0
  0
LINE
  5
172
330
74
100
AcDbEntity
  8
0
 62
     0
100
AcDbLine
 10
-180.625
 20
-1516.25
 30
0.0
 11
-180.625
 21
-1516.25
 31
0.0
  0
LINE
  5
173
330
74
100
AcDbEntity
  8
0
 62
     0
100
AcDbLine
 10
-179.375
 20
-1516.25
 30
0.0
 11
-179.375
 21
-1516.25
 31
0.0
  0
LINE
  5
174
330
74
100
AcDbEntity
  8
0
 62
     0
100
AcDbLine
 10
-178.125
 20
-1516.25
 30
0.0
 11
-178.125
 21
-1516.25
 31
0.0
  0
LINE
  5
175
330
74
100
AcDbEntity
  8
0
 62
     0
100
AcDbLine
 10
-176.875
 20
-1516.25
 30
0.0
 11
-176.875
 21
-1516.25
 31
0.0
  0
LINE
  5
176
330
74
100
AcDbEntity
  8
0
 62
     0
100
AcDbLine
 10
-175.6249999999999
 20
-1516.25
 30
0.0
 11
-175.6249999999999
 21
-1516.25
 31
0.0
  0
LINE
  5
177
330
74
100
AcDbEntity
  8
0
 62
     0
100
AcDbLine
 10
-160.625
 20
-1516.25
 30
0.0
 11
-160.625
 21
-1516.25
 31
0.0
  0
LINE
  5
178
330
74
100
AcDbEntity
  8
0
 62
     0
100
AcDbLine
 10
-159.375
 20
-1516.25
 30
0.0
 11
-159.375
 21
-1516.25
 31
0.0
  0
LINE
  5
179
330
74
100
AcDbEntity
  8
0
 62
     0
100
AcDbLine
 10
-158.125
 20
-1516.25
 30
0.0
 11
-158.125
 21
-1516.25
 31
0.0
  0
LINE
  5
17A
330
74
100
AcDbEntity
  8
0
 62
     0
100
AcDbLine
 10
-156.875
 20
-1516.25
 30
0.0
 11
-156.875
 21
-1516.25
 31
0.0
  0
LINE
  5
17B
330
74
100
AcDbEntity
  8
0
 62
     0
100
AcDbLine
 10
-155.625
 20
-1516.25
 30
0.0
 11
-155.625
 21
-1516.25
 31
0.0
  0
LINE
  5
17C
330
74
100
AcDbEntity
  8
0
 62
     0
100
AcDbLine
 10
-154.375
 20
-1516.25
 30
0.0
 11
-154.375
 21
-1516.25
 31
0.0
  0
LINE
  5
17D
330
74
100
AcDbEntity
  8
0
 62
     0
100
AcDbLine
 10
-153.125
 20
-1516.25
 30
0.0
 11
-153.125
 21
-1516.25
 31
0.0
  0
LINE
  5
17E
330
74
100
AcDbEntity
  8
0
 62
     0
100
AcDbLine
 10
-198.75
 20
-1515.0
 30
0.0
 11
-198.75
 21
-1515.0
 31
0.0
  0
LINE
  5
17F
330
74
100
AcDbEntity
  8
0
 62
     0
100
AcDbLine
 10
-197.5
 20
-1515.0
 30
0.0
 11
-197.5
 21
-1515.0
 31
0.0
  0
LINE
  5
180
330
74
100
AcDbEntity
  8
0
 62
     0
100
AcDbLine
 10
-196.25
 20
-1515.0
 30
0.0
 11
-196.25
 21
-1515.0
 31
0.0
  0
LINE
  5
181
330
74
100
AcDbEntity
  8
0
 62
     0
100
AcDbLine
 10
-195.0
 20
-1515.0
 30
0.0
 11
-195.0
 21
-1515.0
 31
0.0
  0
LINE
  5
182
330
74
100
AcDbEntity
  8
0
 62
     0
100
AcDbLine
 10
-193.75
 20
-1515.0
 30
0.0
 11
-193.75
 21
-1515.0
 31
0.0
  0
LINE
  5
183
330
74
100
AcDbEntity
  8
0
 62
     0
100
AcDbLine
 10
-192.5
 20
-1515.0
 30
0.0
 11
-192.5
 21
-1515.0
 31
0.0
  0
LINE
  5
184
330
74
100
AcDbEntity
  8
0
 62
     0
100
AcDbLine
 10
-191.25
 20
-1515.0
 30
0.0
 11
-191.25
 21
-1515.0
 31
0.0
  0
LINE
  5
185
330
74
100
AcDbEntity
  8
0
 62
     0
100
AcDbLine
 10
-190.0
 20
-1515.0
 30
0.0
 11
-190.0
 21
-1515.0
 31
0.0
  0
LINE
  5
186
330
74
100
AcDbEntity
  8
0
 62
     0
100
AcDbLine
 10
-188.75
 20
-1515.0
 30
0.0
 11
-188.75
 21
-1515.0
 31
0.0
  0
LINE
  5
187
330
74
100
AcDbEntity
  8
0
 62
     0
100
AcDbLine
 10
-187.5
 20
-1515.0
 30
0.0
 11
-187.5
 21
-1515.0
 31
0.0
  0
LINE
  5
188
330
74
100
AcDbEntity
  8
0
 62
     0
100
AcDbLine
 10
-186.25
 20
-1515.0
 30
0.0
 11
-186.25
 21
-1515.0
 31
0.0
  0
LINE
  5
189
330
74
100
AcDbEntity
  8
0
 62
     0
100
AcDbLine
 10
-185.0
 20
-1515.0
 30
0.0
 11
-185.0
 21
-1515.0
 31
0.0
  0
LINE
  5
18A
330
74
100
AcDbEntity
  8
0
 62
     0
100
AcDbLine
 10
-183.75
 20
-1515.0
 30
0.0
 11
-183.75
 21
-1515.0
 31
0.0
  0
LINE
  5
18B
330
74
100
AcDbEntity
  8
0
 62
     0
100
AcDbLine
 10
-182.5
 20
-1515.0
 30
0.0
 11
-182.5
 21
-1515.0
 31
0.0
  0
LINE
  5
18C
330
74
100
AcDbEntity
  8
0
 62
     0
100
AcDbLine
 10
-181.25
 20
-1515.0
 30
0.0
 11
-181.25
 21
-1515.0
 31
0.0
  0
LINE
  5
18D
330
74
100
AcDbEntity
  8
0
 62
     0
100
AcDbLine
 10
-180.0
 20
-1515.0
 30
0.0
 11
-180.0
 21
-1515.0
 31
0.0
  0
LINE
  5
18E
330
74
100
AcDbEntity
  8
0
 62
     0
100
AcDbLine
 10
-178.75
 20
-1515.0
 30
0.0
 11
-178.75
 21
-1515.0
 31
0.0
  0
LINE
  5
18F
330
74
100
AcDbEntity
  8
0
 62
     0
100
AcDbLine
 10
-177.5
 20
-1515.0
 30
0.0
 11
-177.5
 21
-1515.0
 31
0.0
  0
LINE
  5
190
330
74
100
AcDbEntity
  8
0
 62
     0
100
AcDbLine
 10
-176.25
 20
-1515.0
 30
0.0
 11
-176.25
 21
-1515.0
 31
0.0
  0
LINE
  5
191
330
74
100
AcDbEntity
  8
0
 62
     0
100
AcDbLine
 10
-160.0
 20
-1515.0
 30
0.0
 11
-160.0
 21
-1515.0
 31
0.0
  0
LINE
  5
192
330
74
100
AcDbEntity
  8
0
 62
     0
100
AcDbLine
 10
-158.75
 20
-1515.0
 30
0.0
 11
-158.75
 21
-1515.0
 31
0.0
  0
LINE
  5
193
330
74
100
AcDbEntity
  8
0
 62
     0
100
AcDbLine
 10
-157.5
 20
-1515.0
 30
0.0
 11
-157.5
 21
-1515.0
 31
0.0
  0
LINE
  5
194
330
74
100
AcDbEntity
  8
0
 62
     0
100
AcDbLine
 10
-156.25
 20
-1515.0
 30
0.0
 11
-156.25
 21
-1515.0
 31
0.0
  0
LINE
  5
195
330
74
100
AcDbEntity
  8
0
 62
     0
100
AcDbLine
 10
-155.0
 20
-1515.0
 30
0.0
 11
-155.0
 21
-1515.0
 31
0.0
  0
LINE
  5
196
330
74
100
AcDbEntity
  8
0
 62
     0
100
AcDbLine
 10
-153.75
 20
-1515.0
 30
0.0
 11
-153.75
 21
-1515.0
 31
0.0
  0
LINE
  5
197
330
74
100
AcDbEntity
  8
0
 62
     0
100
AcDbLine
 10
-198.125
 20
-1513.75
 30
0.0
 11
-198.125
 21
-1513.75
 31
0.0
  0
LINE
  5
198
330
74
100
AcDbEntity
  8
0
 62
     0
100
AcDbLine
 10
-196.875
 20
-1513.75
 30
0.0
 11
-196.875
 21
-1513.75
 31
0.0
  0
LINE
  5
199
330
74
100
AcDbEntity
  8
0
 62
     0
100
AcDbLine
 10
-195.625
 20
-1513.75
 30
0.0
 11
-195.625
 21
-1513.75
 31
0.0
  0
LINE
  5
19A
330
74
100
AcDbEntity
  8
0
 62
     0
100
AcDbLine
 10
-194.375
 20
-1513.75
 30
0.0
 11
-194.375
 21
-1513.75
 31
0.0
  0
LINE
  5
19B
330
74
100
AcDbEntity
  8
0
 62
     0
100
AcDbLine
 10
-193.125
 20
-1513.75
 30
0.0
 11
-193.125
 21
-1513.75
 31
0.0
  0
LINE
  5
19C
330
74
100
AcDbEntity
  8
0
 62
     0
100
AcDbLine
 10
-191.875
 20
-1513.75
 30
0.0
 11
-191.875
 21
-1513.75
 31
0.0
  0
LINE
  5
19D
330
74
100
AcDbEntity
  8
0
 62
     0
100
AcDbLine
 10
-190.625
 20
-1513.75
 30
0.0
 11
-190.625
 21
-1513.75
 31
0.0
  0
LINE
  5
19E
330
74
100
AcDbEntity
  8
0
 62
     0
100
AcDbLine
 10
-189.375
 20
-1513.75
 30
0.0
 11
-189.375
 21
-1513.75
 31
0.0
  0
LINE
  5
19F
330
74
100
AcDbEntity
  8
0
 62
     0
100
AcDbLine
 10
-188.125
 20
-1513.75
 30
0.0
 11
-188.125
 21
-1513.75
 31
0.0
  0
LINE
  5
1A0
330
74
100
AcDbEntity
  8
0
 62
     0
100
AcDbLine
 10
-186.875
 20
-1513.75
 30
0.0
 11
-186.875
 21
-1513.75
 31
0.0
  0
LINE
  5
1A1
330
74
100
AcDbEntity
  8
0
 62
     0
100
AcDbLine
 10
-185.625
 20
-1513.75
 30
0.0
 11
-185.625
 21
-1513.75
 31
0.0
  0
LINE
  5
1A2
330
74
100
AcDbEntity
  8
0
 62
     0
100
AcDbLine
 10
-184.375
 20
-1513.75
 30
0.0
 11
-184.375
 21
-1513.75
 31
0.0
  0
LINE
  5
1A3
330
74
100
AcDbEntity
  8
0
 62
     0
100
AcDbLine
 10
-183.125
 20
-1513.75
 30
0.0
 11
-183.125
 21
-1513.75
 31
0.0
  0
LINE
  5
1A4
330
74
100
AcDbEntity
  8
0
 62
     0
100
AcDbLine
 10
-181.875
 20
-1513.75
 30
0.0
 11
-181.875
 21
-1513.75
 31
0.0
  0
LINE
  5
1A5
330
74
100
AcDbEntity
  8
0
 62
     0
100
AcDbLine
 10
-180.625
 20
-1513.75
 30
0.0
 11
-180.625
 21
-1513.75
 31
0.0
  0
LINE
  5
1A6
330
74
100
AcDbEntity
  8
0
 62
     0
100
AcDbLine
 10
-179.375
 20
-1513.75
 30
0.0
 11
-179.375
 21
-1513.75
 31
0.0
  0
LINE
  5
1A7
330
74
100
AcDbEntity
  8
0
 62
     0
100
AcDbLine
 10
-178.125
 20
-1513.75
 30
0.0
 11
-178.125
 21
-1513.75
 31
0.0
  0
LINE
  5
1A8
330
74
100
AcDbEntity
  8
0
 62
     0
100
AcDbLine
 10
-176.875
 20
-1513.75
 30
0.0
 11
-176.875
 21
-1513.75
 31
0.0
  0
LINE
  5
1A9
330
74
100
AcDbEntity
  8
0
 62
     0
100
AcDbLine
 10
-197.5
 20
-1512.5
 30
0.0
 11
-197.5
 21
-1512.5
 31
0.0
  0
LINE
  5
1AA
330
74
100
AcDbEntity
  8
0
 62
     0
100
AcDbLine
 10
-196.25
 20
-1512.5
 30
0.0
 11
-196.25
 21
-1512.5
 31
0.0
  0
LINE
  5
1AB
330
74
100
AcDbEntity
  8
0
 62
     0
100
AcDbLine
 10
-195.0
 20
-1512.5
 30
0.0
 11
-195.0
 21
-1512.5
 31
0.0
  0
LINE
  5
1AC
330
74
100
AcDbEntity
  8
0
 62
     0
100
AcDbLine
 10
-193.75
 20
-1512.5
 30
0.0
 11
-193.75
 21
-1512.5
 31
0.0
  0
LINE
  5
1AD
330
74
100
AcDbEntity
  8
0
 62
     0
100
AcDbLine
 10
-192.5
 20
-1512.5
 30
0.0
 11
-192.5
 21
-1512.5
 31
0.0
  0
LINE
  5
1AE
330
74
100
AcDbEntity
  8
0
 62
     0
100
AcDbLine
 10
-191.25
 20
-1512.5
 30
0.0
 11
-191.25
 21
-1512.5
 31
0.0
  0
LINE
  5
1AF
330
74
100
AcDbEntity
  8
0
 62
     0
100
AcDbLine
 10
-190.0
 20
-1512.5
 30
0.0
 11
-190.0
 21
-1512.5
 31
0.0
  0
LINE
  5
1B0
330
74
100
AcDbEntity
  8
0
 62
     0
100
AcDbLine
 10
-188.75
 20
-1512.5
 30
0.0
 11
-188.75
 21
-1512.5
 31
0.0
  0
LINE
  5
1B1
330
74
100
AcDbEntity
  8
0
 62
     0
100
AcDbLine
 10
-187.5
 20
-1512.5
 30
0.0
 11
-187.5
 21
-1512.5
 31
0.0
  0
LINE
  5
1B2
330
74
100
AcDbEntity
  8
0
 62
     0
100
AcDbLine
 10
-186.25
 20
-1512.5
 30
0.0
 11
-186.25
 21
-1512.5
 31
0.0
  0
LINE
  5
1B3
330
74
100
AcDbEntity
  8
0
 62
     0
100
AcDbLine
 10
-185.0
 20
-1512.5
 30
0.0
 11
-185.0
 21
-1512.5
 31
0.0
  0
LINE
  5
1B4
330
74
100
AcDbEntity
  8
0
 62
     0
100
AcDbLine
 10
-183.75
 20
-1512.5
 30
0.0
 11
-183.75
 21
-1512.5
 31
0.0
  0
LINE
  5
1B5
330
74
100
AcDbEntity
  8
0
 62
     0
100
AcDbLine
 10
-182.5
 20
-1512.5
 30
0.0
 11
-182.5
 21
-1512.5
 31
0.0
  0
LINE
  5
1B6
330
74
100
AcDbEntity
  8
0
 62
     0
100
AcDbLine
 10
-181.25
 20
-1512.5
 30
0.0
 11
-181.25
 21
-1512.5
 31
0.0
  0
LINE
  5
1B7
330
74
100
AcDbEntity
  8
0
 62
     0
100
AcDbLine
 10
-180.0
 20
-1512.5
 30
0.0
 11
-180.0
 21
-1512.5
 31
0.0
  0
LINE
  5
1B8
330
74
100
AcDbEntity
  8
0
 62
     0
100
AcDbLine
 10
-178.75
 20
-1512.5
 30
0.0
 11
-178.75
 21
-1512.5
 31
0.0
  0
LINE
  5
1B9
330
74
100
AcDbEntity
  8
0
 62
     0
100
AcDbLine
 10
-177.5
 20
-1512.5
 30
0.0
 11
-177.5
 21
-1512.5
 31
0.0
  0
LINE
  5
1BA
330
74
100
AcDbEntity
  8
0
 62
     0
100
AcDbLine
 10
-196.875
 20
-1511.25
 30
0.0
 11
-196.875
 21
-1511.25
 31
0.0
  0
LINE
  5
1BB
330
74
100
AcDbEntity
  8
0
 62
     0
100
AcDbLine
 10
-195.625
 20
-1511.25
 30
0.0
 11
-195.625
 21
-1511.25
 31
0.0
  0
LINE
  5
1BC
330
74
100
AcDbEntity
  8
0
 62
     0
100
AcDbLine
 10
-194.375
 20
-1511.25
 30
0.0
 11
-194.375
 21
-1511.25
 31
0.0
  0
LINE
  5
1BD
330
74
100
AcDbEntity
  8
0
 62
     0
100
AcDbLine
 10
-193.125
 20
-1511.25
 30
0.0
 11
-193.125
 21
-1511.25
 31
0.0
  0
LINE
  5
1BE
330
74
100
AcDbEntity
  8
0
 62
     0
100
AcDbLine
 10
-191.875
 20
-1511.25
 30
0.0
 11
-191.875
 21
-1511.25
 31
0.0
  0
LINE
  5
1BF
330
74
100
AcDbEntity
  8
0
 62
     0
100
AcDbLine
 10
-190.625
 20
-1511.25
 30
0.0
 11
-190.625
 21
-1511.25
 31
0.0
  0
LINE
  5
1C0
330
74
100
AcDbEntity
  8
0
 62
     0
100
AcDbLine
 10
-189.375
 20
-1511.25
 30
0.0
 11
-189.375
 21
-1511.25
 31
0.0
  0
LINE
  5
1C1
330
74
100
AcDbEntity
  8
0
 62
     0
100
AcDbLine
 10
-188.1249999999999
 20
-1511.25
 30
0.0
 11
-188.1249999999999
 21
-1511.25
 31
0.0
  0
LINE
  5
1C2
330
74
100
AcDbEntity
  8
0
 62
     0
100
AcDbLine
 10
-186.875
 20
-1511.25
 30
0.0
 11
-186.875
 21
-1511.25
 31
0.0
  0
LINE
  5
1C3
330
74
100
AcDbEntity
  8
0
 62
     0
100
AcDbLine
 10
-185.625
 20
-1511.25
 30
0.0
 11
-185.625
 21
-1511.25
 31
0.0
  0
LINE
  5
1C4
330
74
100
AcDbEntity
  8
0
 62
     0
100
AcDbLine
 10
-184.375
 20
-1511.25
 30
0.0
 11
-184.375
 21
-1511.25
 31
0.0
  0
LINE
  5
1C5
330
74
100
AcDbEntity
  8
0
 62
     0
100
AcDbLine
 10
-183.125
 20
-1511.25
 30
0.0
 11
-183.125
 21
-1511.25
 31
0.0
  0
LINE
  5
1C6
330
74
100
AcDbEntity
  8
0
 62
     0
100
AcDbLine
 10
-181.8749999999999
 20
-1511.25
 30
0.0
 11
-181.8749999999999
 21
-1511.25
 31
0.0
  0
LINE
  5
1C7
330
74
100
AcDbEntity
  8
0
 62
     0
100
AcDbLine
 10
-180.625
 20
-1511.25
 30
0.0
 11
-180.625
 21
-1511.25
 31
0.0
  0
LINE
  5
1C8
330
74
100
AcDbEntity
  8
0
 62
     0
100
AcDbLine
 10
-179.375
 20
-1511.25
 30
0.0
 11
-179.375
 21
-1511.25
 31
0.0
  0
LINE
  5
1C9
330
74
100
AcDbEntity
  8
0
 62
     0
100
AcDbLine
 10
-196.2499999999999
 20
-1510.0
 30
0.0
 11
-196.2499999999999
 21
-1510.0
 31
0.0
  0
LINE
  5
1CA
330
74
100
AcDbEntity
  8
0
 62
     0
100
AcDbLine
 10
-194.9999999999999
 20
-1510.0
 30
0.0
 11
-194.9999999999999
 21
-1510.0
 31
0.0
  0
LINE
  5
1CB
330
74
100
AcDbEntity
  8
0
 62
     0
100
AcDbLine
 10
-193.7499999999999
 20
-1510.0
 30
0.0
 11
-193.7499999999999
 21
-1510.0
 31
0.0
  0
LINE
  5
1CC
330
74
100
AcDbEntity
  8
0
 62
     0
100
AcDbLine
 10
-192.4999999999999
 20
-1510.0
 30
0.0
 11
-192.4999999999999
 21
-1510.0
 31
0.0
  0
LINE
  5
1CD
330
74
100
AcDbEntity
  8
0
 62
     0
100
AcDbLine
 10
-191.2499999999999
 20
-1510.0
 30
0.0
 11
-191.2499999999999
 21
-1510.0
 31
0.0
  0
LINE
  5
1CE
330
74
100
AcDbEntity
  8
0
 62
     0
100
AcDbLine
 10
-189.9999999999999
 20
-1510.0
 30
0.0
 11
-189.9999999999999
 21
-1510.0
 31
0.0
  0
LINE
  5
1CF
330
74
100
AcDbEntity
  8
0
 62
     0
100
AcDbLine
 10
-188.7499999999999
 20
-1510.0
 30
0.0
 11
-188.7499999999999
 21
-1510.0
 31
0.0
  0
LINE
  5
1D0
330
74
100
AcDbEntity
  8
0
 62
     0
100
AcDbLine
 10
-187.4999999999999
 20
-1510.0
 30
0.0
 11
-187.4999999999999
 21
-1510.0
 31
0.0
  0
LINE
  5
1D1
330
74
100
AcDbEntity
  8
0
 62
     0
100
AcDbLine
 10
-186.2499999999999
 20
-1510.0
 30
0.0
 11
-186.2499999999999
 21
-1510.0
 31
0.0
  0
LINE
  5
1D2
330
74
100
AcDbEntity
  8
0
 62
     0
100
AcDbLine
 10
-184.9999999999999
 20
-1510.0
 30
0.0
 11
-184.9999999999999
 21
-1510.0
 31
0.0
  0
LINE
  5
1D3
330
74
100
AcDbEntity
  8
0
 62
     0
100
AcDbLine
 10
-183.7499999999999
 20
-1510.0
 30
0.0
 11
-183.7499999999999
 21
-1510.0
 31
0.0
  0
LINE
  5
1D4
330
74
100
AcDbEntity
  8
0
 62
     0
100
AcDbLine
 10
-182.4999999999999
 20
-1510.0
 30
0.0
 11
-182.4999999999999
 21
-1510.0
 31
0.0
  0
LINE
  5
1D5
330
74
100
AcDbEntity
  8
0
 62
     0
100
AcDbLine
 10
-181.2499999999999
 20
-1510.0
 30
0.0
 11
-181.2499999999999
 21
-1510.0
 31
0.0
  0
LINE
  5
1D6
330
74
100
AcDbEntity
  8
0
 62
     0
100
AcDbLine
 10
-179.9999999999999
 20
-1510.0
 30
0.0
 11
-179.9999999999999
 21
-1510.0
 31
0.0
  0
LINE
  5
1D7
330
74
100
AcDbEntity
  8
0
 62
     0
100
AcDbLine
 10
-195.625
 20
-1508.75
 30
0.0
 11
-195.625
 21
-1508.75
 31
0.0
  0
LINE
  5
1D8
330
74
100
AcDbEntity
  8
0
 62
     0
100
AcDbLine
 10
-194.375
 20
-1508.75
 30
0.0
 11
-194.375
 21
-1508.75
 31
0.0
  0
LINE
  5
1D9
330
74
100
AcDbEntity
  8
0
 62
     0
100
AcDbLine
 10
-193.125
 20
-1508.75
 30
0.0
 11
-193.125
 21
-1508.75
 31
0.0
  0
LINE
  5
1DA
330
74
100
AcDbEntity
  8
0
 62
     0
100
AcDbLine
 10
-191.875
 20
-1508.75
 30
0.0
 11
-191.875
 21
-1508.75
 31
0.0
  0
LINE
  5
1DB
330
74
100
AcDbEntity
  8
0
 62
     0
100
AcDbLine
 10
-190.625
 20
-1508.75
 30
0.0
 11
-190.625
 21
-1508.75
 31
0.0
  0
LINE
  5
1DC
330
74
100
AcDbEntity
  8
0
 62
     0
100
AcDbLine
 10
-189.375
 20
-1508.75
 30
0.0
 11
-189.375
 21
-1508.75
 31
0.0
  0
LINE
  5
1DD
330
74
100
AcDbEntity
  8
0
 62
     0
100
AcDbLine
 10
-188.125
 20
-1508.75
 30
0.0
 11
-188.125
 21
-1508.75
 31
0.0
  0
LINE
  5
1DE
330
74
100
AcDbEntity
  8
0
 62
     0
100
AcDbLine
 10
-186.875
 20
-1508.75
 30
0.0
 11
-186.875
 21
-1508.75
 31
0.0
  0
LINE
  5
1DF
330
74
100
AcDbEntity
  8
0
 62
     0
100
AcDbLine
 10
-185.625
 20
-1508.75
 30
0.0
 11
-185.625
 21
-1508.75
 31
0.0
  0
LINE
  5
1E0
330
74
100
AcDbEntity
  8
0
 62
     0
100
AcDbLine
 10
-184.375
 20
-1508.75
 30
0.0
 11
-184.375
 21
-1508.75
 31
0.0
  0
LINE
  5
1E1
330
74
100
AcDbEntity
  8
0
 62
     0
100
AcDbLine
 10
-183.125
 20
-1508.75
 30
0.0
 11
-183.125
 21
-1508.75
 31
0.0
  0
LINE
  5
1E2
330
74
100
AcDbEntity
  8
0
 62
     0
100
AcDbLine
 10
-181.875
 20
-1508.75
 30
0.0
 11
-181.875
 21
-1508.75
 31
0.0
  0
LINE
  5
1E3
330
74
100
AcDbEntity
  8
0
 62
     0
100
AcDbLine
 10
-180.625
 20
-1508.75
 30
0.0
 11
-180.625
 21
-1508.75
 31
0.0
  0
LINE
  5
1E4
330
74
100
AcDbEntity
  8
0
 62
     0
100
AcDbLine
 10
-195.0
 20
-1507.5
 30
0.0
 11
-195.0
 21
-1507.5
 31
0.0
  0
LINE
  5
1E5
330
74
100
AcDbEntity
  8
0
 62
     0
100
AcDbLine
 10
-193.75
 20
-1507.5
 30
0.0
 11
-193.75
 21
-1507.5
 31
0.0
  0
LINE
  5
1E6
330
74
100
AcDbEntity
  8
0
 62
     0
100
AcDbLine
 10
-192.5
 20
-1507.5
 30
0.0
 11
-192.5
 21
-1507.5
 31
0.0
  0
LINE
  5
1E7
330
74
100
AcDbEntity
  8
0
 62
     0
100
AcDbLine
 10
-191.2499999999999
 20
-1507.5
 30
0.0
 11
-191.2499999999999
 21
-1507.5
 31
0.0
  0
LINE
  5
1E8
330
74
100
AcDbEntity
  8
0
 62
     0
100
AcDbLine
 10
-190.0
 20
-1507.5
 30
0.0
 11
-190.0
 21
-1507.5
 31
0.0
  0
LINE
  5
1E9
330
74
100
AcDbEntity
  8
0
 62
     0
100
AcDbLine
 10
-188.75
 20
-1507.5
 30
0.0
 11
-188.75
 21
-1507.5
 31
0.0
  0
LINE
  5
1EA
330
74
100
AcDbEntity
  8
0
 62
     0
100
AcDbLine
 10
-187.5
 20
-1507.5
 30
0.0
 11
-187.5
 21
-1507.5
 31
0.0
  0
LINE
  5
1EB
330
74
100
AcDbEntity
  8
0
 62
     0
100
AcDbLine
 10
-186.25
 20
-1507.5
 30
0.0
 11
-186.25
 21
-1507.5
 31
0.0
  0
LINE
  5
1EC
330
74
100
AcDbEntity
  8
0
 62
     0
100
AcDbLine
 10
-184.9999999999999
 20
-1507.5
 30
0.0
 11
-184.9999999999999
 21
-1507.5
 31
0.0
  0
LINE
  5
1ED
330
74
100
AcDbEntity
  8
0
 62
     0
100
AcDbLine
 10
-183.75
 20
-1507.5
 30
0.0
 11
-183.75
 21
-1507.5
 31
0.0
  0
LINE
  5
1EE
330
74
100
AcDbEntity
  8
0
 62
     0
100
AcDbLine
 10
-182.5
 20
-1507.5
 30
0.0
 11
-182.5
 21
-1507.5
 31
0.0
  0
LINE
  5
1EF
330
74
100
AcDbEntity
  8
0
 62
     0
100
AcDbLine
 10
-181.25
 20
-1507.5
 30
0.0
 11
-181.25
 21
-1507.5
 31
0.0
  0
LINE
  5
1F0
330
74
100
AcDbEntity
  8
0
 62
     0
100
AcDbLine
 10
-190.625
 20
-1506.25
 30
0.0
 11
-190.625
 21
-1506.25
 31
0.0
  0
LINE
  5
1F1
330
74
100
AcDbEntity
  8
0
 62
     0
100
AcDbLine
 10
-189.375
 20
-1506.25
 30
0.0
 11
-189.375
 21
-1506.25
 31
0.0
  0
LINE
  5
1F2
330
74
100
AcDbEntity
  8
0
 62
     0
100
AcDbLine
 10
-188.1249999999999
 20
-1506.25
 30
0.0
 11
-188.1249999999999
 21
-1506.25
 31
0.0
  0
LINE
  5
1F3
330
74
100
AcDbEntity
  8
0
 62
     0
100
AcDbLine
 10
-186.875
 20
-1506.25
 30
0.0
 11
-186.875
 21
-1506.25
 31
0.0
  0
LINE
  5
1F4
330
74
100
AcDbEntity
  8
0
 62
     0
100
AcDbLine
 10
-185.625
 20
-1506.25
 30
0.0
 11
-185.625
 21
-1506.25
 31
0.0
  0
LINE
  5
1F5
330
74
100
AcDbEntity
  8
0
 62
     0
100
AcDbLine
 10
-184.375
 20
-1506.25
 30
0.0
 11
-184.375
 21
-1506.25
 31
0.0
  0
LINE
  5
1F6
330
74
100
AcDbEntity
  8
0
 62
     0
100
AcDbLine
 10
-183.125
 20
-1506.25
 30
0.0
 11
-183.125
 21
-1506.25
 31
0.0
  0
LINE
  5
1F7
330
74
100
AcDbEntity
  8
0
 62
     0
100
AcDbLine
 10
-181.8749999999999
 20
-1506.25
 30
0.0
 11
-181.8749999999999
 21
-1506.25
 31
0.0
  0
LINE
  5
1F8
330
74
100
AcDbEntity
  8
0
 62
     0
100
AcDbLine
 10
-237.5
 20
-1525.0
 30
0.0
 11
-237.5
 21
-1525.0
 31
0.0
  0
LINE
  5
1F9
330
74
100
AcDbEntity
  8
0
 62
     0
100
AcDbLine
 10
-173.75
 20
-1525.0
 30
0.0
 11
-173.75
 21
-1525.0
 31
0.0
  0
LINE
  5
1FA
330
74
100
AcDbEntity
  8
0
 62
     0
100
AcDbLine
 10
-172.5
 20
-1525.0
 30
0.0
 11
-172.5
 21
-1525.0
 31
0.0
  0
LINE
  5
1FB
330
74
100
AcDbEntity
  8
0
 62
     0
100
AcDbLine
 10
-171.25
 20
-1525.0
 30
0.0
 11
-171.25
 21
-1525.0
 31
0.0
  0
LINE
  5
1FC
330
74
100
AcDbEntity
  8
0
 62
     0
100
AcDbLine
 10
-170.0
 20
-1525.0
 30
0.0
 11
-170.0
 21
-1525.0
 31
0.0
  0
LINE
  5
1FD
330
74
100
AcDbEntity
  8
0
 62
     0
100
AcDbLine
 10
-168.75
 20
-1525.0
 30
0.0
 11
-168.75
 21
-1525.0
 31
0.0
  0
LINE
  5
1FE
330
74
100
AcDbEntity
  8
0
 62
     0
100
AcDbLine
 10
-167.5
 20
-1525.0
 30
0.0
 11
-167.5
 21
-1525.0
 31
0.0
  0
LINE
  5
1FF
330
74
100
AcDbEntity
  8
0
 62
     0
100
AcDbLine
 10
-166.25
 20
-1525.0
 30
0.0
 11
-166.25
 21
-1525.0
 31
0.0
  0
LINE
  5
200
330
74
100
AcDbEntity
  8
0
 62
     0
100
AcDbLine
 10
-165.0
 20
-1525.0
 30
0.0
 11
-165.0
 21
-1525.0
 31
0.0
  0
LINE
  5
201
330
74
100
AcDbEntity
  8
0
 62
     0
100
AcDbLine
 10
-163.75
 20
-1525.0
 30
0.0
 11
-163.75
 21
-1525.0
 31
0.0
  0
LINE
  5
202
330
74
100
AcDbEntity
  8
0
 62
     0
100
AcDbLine
 10
-162.5
 20
-1525.0
 30
0.0
 11
-162.5
 21
-1525.0
 31
0.0
  0
LINE
  5
203
330
74
100
AcDbEntity
  8
0
 62
     0
100
AcDbLine
 10
-161.25
 20
-1525.0
 30
0.0
 11
-161.25
 21
-1525.0
 31
0.0
  0
LINE
  5
204
330
74
100
AcDbEntity
  8
0
 62
     0
100
AcDbLine
 10
-160.0
 20
-1525.0
 30
0.0
 11
-160.0
 21
-1525.0
 31
0.0
  0
LINE
  5
205
330
74
100
AcDbEntity
  8
0
 62
     0
100
AcDbLine
 10
-158.75
 20
-1525.0
 30
0.0
 11
-158.75
 21
-1525.0
 31
0.0
  0
LINE
  5
206
330
74
100
AcDbEntity
  8
0
 62
     0
100
AcDbLine
 10
-157.5
 20
-1525.0
 30
0.0
 11
-157.5
 21
-1525.0
 31
0.0
  0
LINE
  5
207
330
74
100
AcDbEntity
  8
0
 62
     0
100
AcDbLine
 10
-156.25
 20
-1525.0
 30
0.0
 11
-156.25
 21
-1525.0
 31
0.0
  0
LINE
  5
208
330
74
100
AcDbEntity
  8
0
 62
     0
100
AcDbLine
 10
-155.0
 20
-1525.0
 30
0.0
 11
-155.0
 21
-1525.0
 31
0.0
  0
LINE
  5
209
330
74
100
AcDbEntity
  8
0
 62
     0
100
AcDbLine
 10
-201.25
 20
-1525.0
 30
0.0
 11
-201.25
 21
-1525.0
 31
0.0
  0
LINE
  5
20A
330
74
100
AcDbEntity
  8
0
 62
     0
100
AcDbLine
 10
-200.0
 20
-1525.0
 30
0.0
 11
-200.0
 21
-1525.0
 31
0.0
  0
LINE
  5
20B
330
74
100
AcDbEntity
  8
0
 62
     0
100
AcDbLine
 10
-198.75
 20
-1525.0
 30
0.0
 11
-198.75
 21
-1525.0
 31
0.0
  0
LINE
  5
20C
330
74
100
AcDbEntity
  8
0
 62
     0
100
AcDbLine
 10
-197.5
 20
-1525.0
 30
0.0
 11
-197.5
 21
-1525.0
 31
0.0
  0
LINE
  5
20D
330
74
100
AcDbEntity
  8
0
 62
     0
100
AcDbLine
 10
-196.25
 20
-1525.0
 30
0.0
 11
-196.25
 21
-1525.0
 31
0.0
  0
LINE
  5
20E
330
74
100
AcDbEntity
  8
0
 62
     0
100
AcDbLine
 10
-195.0
 20
-1525.0
 30
0.0
 11
-195.0
 21
-1525.0
 31
0.0
  0
LINE
  5
20F
330
74
100
AcDbEntity
  8
0
 62
     0
100
AcDbLine
 10
-193.75
 20
-1525.0
 30
0.0
 11
-193.75
 21
-1525.0
 31
0.0
  0
LINE
  5
210
330
74
100
AcDbEntity
  8
0
 62
     0
100
AcDbLine
 10
-192.5
 20
-1525.0
 30
0.0
 11
-192.5
 21
-1525.0
 31
0.0
  0
LINE
  5
211
330
74
100
AcDbEntity
  8
0
 62
     0
100
AcDbLine
 10
-191.25
 20
-1525.0
 30
0.0
 11
-191.25
 21
-1525.0
 31
0.0
  0
LINE
  5
212
330
74
100
AcDbEntity
  8
0
 62
     0
100
AcDbLine
 10
-190.0
 20
-1525.0
 30
0.0
 11
-190.0
 21
-1525.0
 31
0.0
  0
LINE
  5
213
330
74
100
AcDbEntity
  8
0
 62
     0
100
AcDbLine
 10
-188.75
 20
-1525.0
 30
0.0
 11
-188.75
 21
-1525.0
 31
0.0
  0
LINE
  5
214
330
74
100
AcDbEntity
  8
0
 62
     0
100
AcDbLine
 10
-187.5
 20
-1525.0
 30
0.0
 11
-187.5
 21
-1525.0
 31
0.0
  0
LINE
  5
215
330
74
100
AcDbEntity
  8
0
 62
     0
100
AcDbLine
 10
-186.25
 20
-1525.0
 30
0.0
 11
-186.25
 21
-1525.0
 31
0.0
  0
LINE
  5
216
330
74
100
AcDbEntity
  8
0
 62
     0
100
AcDbLine
 10
-185.0
 20
-1525.0
 30
0.0
 11
-185.0
 21
-1525.0
 31
0.0
  0
LINE
  5
217
330
74
100
AcDbEntity
  8
0
 62
     0
100
AcDbLine
 10
-183.75
 20
-1525.0
 30
0.0
 11
-183.75
 21
-1525.0
 31
0.0
  0
LINE
  5
218
330
74
100
AcDbEntity
  8
0
 62
     0
100
AcDbLine
 10
-182.5
 20
-1525.0
 30
0.0
 11
-182.5
 21
-1525.0
 31
0.0
  0
LINE
  5
219
330
74
100
AcDbEntity
  8
0
 62
     0
100
AcDbLine
 10
-181.25
 20
-1525.0
 30
0.0
 11
-181.25
 21
-1525.0
 31
0.0
  0
LINE
  5
21A
330
74
100
AcDbEntity
  8
0
 62
     0
100
AcDbLine
 10
-200.625
 20
-1526.25
 30
0.0
 11
-200.625
 21
-1526.25
 31
0.0
  0
LINE
  5
21B
330
74
100
AcDbEntity
  8
0
 62
     0
100
AcDbLine
 10
-199.375
 20
-1526.25
 30
0.0
 11
-199.375
 21
-1526.25
 31
0.0
  0
LINE
  5
21C
330
74
100
AcDbEntity
  8
0
 62
     0
100
AcDbLine
 10
-198.125
 20
-1526.25
 30
0.0
 11
-198.125
 21
-1526.25
 31
0.0
  0
LINE
  5
21D
330
74
100
AcDbEntity
  8
0
 62
     0
100
AcDbLine
 10
-196.875
 20
-1526.25
 30
0.0
 11
-196.875
 21
-1526.25
 31
0.0
  0
LINE
  5
21E
330
74
100
AcDbEntity
  8
0
 62
     0
100
AcDbLine
 10
-175.625
 20
-1526.25
 30
0.0
 11
-175.625
 21
-1526.25
 31
0.0
  0
LINE
  5
21F
330
74
100
AcDbEntity
  8
0
 62
     0
100
AcDbLine
 10
-174.375
 20
-1526.25
 30
0.0
 11
-174.375
 21
-1526.25
 31
0.0
  0
LINE
  5
220
330
74
100
AcDbEntity
  8
0
 62
     0
100
AcDbLine
 10
-173.125
 20
-1526.25
 30
0.0
 11
-173.125
 21
-1526.25
 31
0.0
  0
LINE
  5
221
330
74
100
AcDbEntity
  8
0
 62
     0
100
AcDbLine
 10
-171.875
 20
-1526.25
 30
0.0
 11
-171.875
 21
-1526.25
 31
0.0
  0
LINE
  5
222
330
74
100
AcDbEntity
  8
0
 62
     0
100
AcDbLine
 10
-170.625
 20
-1526.25
 30
0.0
 11
-170.625
 21
-1526.25
 31
0.0
  0
LINE
  5
223
330
74
100
AcDbEntity
  8
0
 62
     0
100
AcDbLine
 10
-169.375
 20
-1526.25
 30
0.0
 11
-169.375
 21
-1526.25
 31
0.0
  0
LINE
  5
224
330
74
100
AcDbEntity
  8
0
 62
     0
100
AcDbLine
 10
-168.125
 20
-1526.25
 30
0.0
 11
-168.125
 21
-1526.25
 31
0.0
  0
LINE
  5
225
330
74
100
AcDbEntity
  8
0
 62
     0
100
AcDbLine
 10
-166.875
 20
-1526.25
 30
0.0
 11
-166.875
 21
-1526.25
 31
0.0
  0
LINE
  5
226
330
74
100
AcDbEntity
  8
0
 62
     0
100
AcDbLine
 10
-165.625
 20
-1526.25
 30
0.0
 11
-165.625
 21
-1526.25
 31
0.0
  0
LINE
  5
227
330
74
100
AcDbEntity
  8
0
 62
     0
100
AcDbLine
 10
-164.375
 20
-1526.25
 30
0.0
 11
-164.375
 21
-1526.25
 31
0.0
  0
LINE
  5
228
330
74
100
AcDbEntity
  8
0
 62
     0
100
AcDbLine
 10
-163.125
 20
-1526.25
 30
0.0
 11
-163.125
 21
-1526.25
 31
0.0
  0
LINE
  5
229
330
74
100
AcDbEntity
  8
0
 62
     0
100
AcDbLine
 10
-161.875
 20
-1526.25
 30
0.0
 11
-161.875
 21
-1526.25
 31
0.0
  0
LINE
  5
22A
330
74
100
AcDbEntity
  8
0
 62
     0
100
AcDbLine
 10
-160.625
 20
-1526.25
 30
0.0
 11
-160.625
 21
-1526.25
 31
0.0
  0
LINE
  5
22B
330
74
100
AcDbEntity
  8
0
 62
     0
100
AcDbLine
 10
-159.375
 20
-1526.25
 30
0.0
 11
-159.375
 21
-1526.25
 31
0.0
  0
LINE
  5
22C
330
74
100
AcDbEntity
  8
0
 62
     0
100
AcDbLine
 10
-158.125
 20
-1526.25
 30
0.0
 11
-158.125
 21
-1526.25
 31
0.0
  0
LINE
  5
22D
330
74
100
AcDbEntity
  8
0
 62
     0
100
AcDbLine
 10
-156.875
 20
-1526.25
 30
0.0
 11
-156.875
 21
-1526.25
 31
0.0
  0
LINE
  5
22E
330
74
100
AcDbEntity
  8
0
 62
     0
100
AcDbLine
 10
-155.625
 20
-1526.25
 30
0.0
 11
-155.625
 21
-1526.25
 31
0.0
  0
LINE
  5
22F
330
74
100
AcDbEntity
  8
0
 62
     0
100
AcDbLine
 10
-194.375
 20
-1526.25
 30
0.0
 11
-194.375
 21
-1526.25
 31
0.0
  0
LINE
  5
230
330
74
100
AcDbEntity
  8
0
 62
     0
100
AcDbLine
 10
-193.125
 20
-1526.25
 30
0.0
 11
-193.125
 21
-1526.25
 31
0.0
  0
LINE
  5
231
330
74
100
AcDbEntity
  8
0
 62
     0
100
AcDbLine
 10
-191.875
 20
-1526.25
 30
0.0
 11
-191.875
 21
-1526.25
 31
0.0
  0
LINE
  5
232
330
74
100
AcDbEntity
  8
0
 62
     0
100
AcDbLine
 10
-190.625
 20
-1526.25
 30
0.0
 11
-190.625
 21
-1526.25
 31
0.0
  0
LINE
  5
233
330
74
100
AcDbEntity
  8
0
 62
     0
100
AcDbLine
 10
-189.375
 20
-1526.25
 30
0.0
 11
-189.375
 21
-1526.25
 31
0.0
  0
LINE
  5
234
330
74
100
AcDbEntity
  8
0
 62
     0
100
AcDbLine
 10
-188.125
 20
-1526.25
 30
0.0
 11
-188.125
 21
-1526.25
 31
0.0
  0
LINE
  5
235
330
74
100
AcDbEntity
  8
0
 62
     0
100
AcDbLine
 10
-186.875
 20
-1526.25
 30
0.0
 11
-186.875
 21
-1526.25
 31
0.0
  0
LINE
  5
236
330
74
100
AcDbEntity
  8
0
 62
     0
100
AcDbLine
 10
-185.625
 20
-1526.25
 30
0.0
 11
-185.625
 21
-1526.25
 31
0.0
  0
LINE
  5
237
330
74
100
AcDbEntity
  8
0
 62
     0
100
AcDbLine
 10
-184.375
 20
-1526.25
 30
0.0
 11
-184.375
 21
-1526.25
 31
0.0
  0
LINE
  5
238
330
74
100
AcDbEntity
  8
0
 62
     0
100
AcDbLine
 10
-183.125
 20
-1526.25
 30
0.0
 11
-183.125
 21
-1526.25
 31
0.0
  0
LINE
  5
239
330
74
100
AcDbEntity
  8
0
 62
     0
100
AcDbLine
 10
-181.875
 20
-1526.25
 30
0.0
 11
-181.875
 21
-1526.25
 31
0.0
  0
LINE
  5
23A
330
74
100
AcDbEntity
  8
0
 62
     0
100
AcDbLine
 10
-201.25
 20
-1527.5
 30
0.0
 11
-201.25
 21
-1527.5
 31
0.0
  0
LINE
  5
23B
330
74
100
AcDbEntity
  8
0
 62
     0
100
AcDbLine
 10
-200.0
 20
-1527.5
 30
0.0
 11
-200.0
 21
-1527.5
 31
0.0
  0
LINE
  5
23C
330
74
100
AcDbEntity
  8
0
 62
     0
100
AcDbLine
 10
-198.75
 20
-1527.5
 30
0.0
 11
-198.75
 21
-1527.5
 31
0.0
  0
LINE
  5
23D
330
74
100
AcDbEntity
  8
0
 62
     0
100
AcDbLine
 10
-180.0
 20
-1527.5
 30
0.0
 11
-180.0
 21
-1527.5
 31
0.0
  0
LINE
  5
23E
330
74
100
AcDbEntity
  8
0
 62
     0
100
AcDbLine
 10
-178.75
 20
-1527.5
 30
0.0
 11
-178.75
 21
-1527.5
 31
0.0
  0
LINE
  5
23F
330
74
100
AcDbEntity
  8
0
 62
     0
100
AcDbLine
 10
-177.5
 20
-1527.5
 30
0.0
 11
-177.5
 21
-1527.5
 31
0.0
  0
LINE
  5
240
330
74
100
AcDbEntity
  8
0
 62
     0
100
AcDbLine
 10
-176.25
 20
-1527.5
 30
0.0
 11
-176.25
 21
-1527.5
 31
0.0
  0
LINE
  5
241
330
74
100
AcDbEntity
  8
0
 62
     0
100
AcDbLine
 10
-175.0
 20
-1527.5
 30
0.0
 11
-175.0
 21
-1527.5
 31
0.0
  0
LINE
  5
242
330
74
100
AcDbEntity
  8
0
 62
     0
100
AcDbLine
 10
-173.75
 20
-1527.5
 30
0.0
 11
-173.75
 21
-1527.5
 31
0.0
  0
LINE
  5
243
330
74
100
AcDbEntity
  8
0
 62
     0
100
AcDbLine
 10
-172.5
 20
-1527.5
 30
0.0
 11
-172.5
 21
-1527.5
 31
0.0
  0
LINE
  5
244
330
74
100
AcDbEntity
  8
0
 62
     0
100
AcDbLine
 10
-171.25
 20
-1527.5
 30
0.0
 11
-171.25
 21
-1527.5
 31
0.0
  0
LINE
  5
245
330
74
100
AcDbEntity
  8
0
 62
     0
100
AcDbLine
 10
-170.0
 20
-1527.5
 30
0.0
 11
-170.0
 21
-1527.5
 31
0.0
  0
LINE
  5
246
330
74
100
AcDbEntity
  8
0
 62
     0
100
AcDbLine
 10
-168.75
 20
-1527.5
 30
0.0
 11
-168.75
 21
-1527.5
 31
0.0
  0
LINE
  5
247
330
74
100
AcDbEntity
  8
0
 62
     0
100
AcDbLine
 10
-167.5
 20
-1527.5
 30
0.0
 11
-167.5
 21
-1527.5
 31
0.0
  0
LINE
  5
248
330
74
100
AcDbEntity
  8
0
 62
     0
100
AcDbLine
 10
-166.25
 20
-1527.5
 30
0.0
 11
-166.25
 21
-1527.5
 31
0.0
  0
LINE
  5
249
330
74
100
AcDbEntity
  8
0
 62
     0
100
AcDbLine
 10
-165.0
 20
-1527.5
 30
0.0
 11
-165.0
 21
-1527.5
 31
0.0
  0
LINE
  5
24A
330
74
100
AcDbEntity
  8
0
 62
     0
100
AcDbLine
 10
-163.75
 20
-1527.5
 30
0.0
 11
-163.75
 21
-1527.5
 31
0.0
  0
LINE
  5
24B
330
74
100
AcDbEntity
  8
0
 62
     0
100
AcDbLine
 10
-162.5
 20
-1527.5
 30
0.0
 11
-162.5
 21
-1527.5
 31
0.0
  0
LINE
  5
24C
330
74
100
AcDbEntity
  8
0
 62
     0
100
AcDbLine
 10
-161.25
 20
-1527.5
 30
0.0
 11
-161.25
 21
-1527.5
 31
0.0
  0
LINE
  5
24D
330
74
100
AcDbEntity
  8
0
 62
     0
100
AcDbLine
 10
-160.0
 20
-1527.5
 30
0.0
 11
-160.0
 21
-1527.5
 31
0.0
  0
LINE
  5
24E
330
74
100
AcDbEntity
  8
0
 62
     0
100
AcDbLine
 10
-158.75
 20
-1527.5
 30
0.0
 11
-158.75
 21
-1527.5
 31
0.0
  0
LINE
  5
24F
330
74
100
AcDbEntity
  8
0
 62
     0
100
AcDbLine
 10
-157.5
 20
-1527.5
 30
0.0
 11
-157.5
 21
-1527.5
 31
0.0
  0
LINE
  5
250
330
74
100
AcDbEntity
  8
0
 62
     0
100
AcDbLine
 10
-156.25
 20
-1527.5
 30
0.0
 11
-156.25
 21
-1527.5
 31
0.0
  0
LINE
  5
251
330
74
100
AcDbEntity
  8
0
 62
     0
100
AcDbLine
 10
-193.75
 20
-1527.5
 30
0.0
 11
-193.75
 21
-1527.5
 31
0.0
  0
LINE
  5
252
330
74
100
AcDbEntity
  8
0
 62
     0
100
AcDbLine
 10
-192.5
 20
-1527.5
 30
0.0
 11
-192.5
 21
-1527.5
 31
0.0
  0
LINE
  5
253
330
74
100
AcDbEntity
  8
0
 62
     0
100
AcDbLine
 10
-191.2499999999999
 20
-1527.5
 30
0.0
 11
-191.2499999999999
 21
-1527.5
 31
0.0
  0
LINE
  5
254
330
74
100
AcDbEntity
  8
0
 62
     0
100
AcDbLine
 10
-190.0
 20
-1527.5
 30
0.0
 11
-190.0
 21
-1527.5
 31
0.0
  0
LINE
  5
255
330
74
100
AcDbEntity
  8
0
 62
     0
100
AcDbLine
 10
-188.75
 20
-1527.5
 30
0.0
 11
-188.75
 21
-1527.5
 31
0.0
  0
LINE
  5
256
330
74
100
AcDbEntity
  8
0
 62
     0
100
AcDbLine
 10
-187.5
 20
-1527.5
 30
0.0
 11
-187.5
 21
-1527.5
 31
0.0
  0
LINE
  5
257
330
74
100
AcDbEntity
  8
0
 62
     0
100
AcDbLine
 10
-186.25
 20
-1527.5
 30
0.0
 11
-186.25
 21
-1527.5
 31
0.0
  0
LINE
  5
258
330
74
100
AcDbEntity
  8
0
 62
     0
100
AcDbLine
 10
-184.9999999999999
 20
-1527.5
 30
0.0
 11
-184.9999999999999
 21
-1527.5
 31
0.0
  0
LINE
  5
259
330
74
100
AcDbEntity
  8
0
 62
     0
100
AcDbLine
 10
-183.75
 20
-1527.5
 30
0.0
 11
-183.75
 21
-1527.5
 31
0.0
  0
LINE
  5
25A
330
74
100
AcDbEntity
  8
0
 62
     0
100
AcDbLine
 10
-182.5
 20
-1527.5
 30
0.0
 11
-182.5
 21
-1527.5
 31
0.0
  0
LINE
  5
25B
330
74
100
AcDbEntity
  8
0
 62
     0
100
AcDbLine
 10
-200.625
 20
-1528.75
 30
0.0
 11
-200.625
 21
-1528.75
 31
0.0
  0
LINE
  5
25C
330
74
100
AcDbEntity
  8
0
 62
     0
100
AcDbLine
 10
-199.375
 20
-1528.75
 30
0.0
 11
-199.375
 21
-1528.75
 31
0.0
  0
LINE
  5
25D
330
74
100
AcDbEntity
  8
0
 62
     0
100
AcDbLine
 10
-184.375
 20
-1528.75
 30
0.0
 11
-184.375
 21
-1528.75
 31
0.0
  0
LINE
  5
25E
330
74
100
AcDbEntity
  8
0
 62
     0
100
AcDbLine
 10
-183.125
 20
-1528.75
 30
0.0
 11
-183.125
 21
-1528.75
 31
0.0
  0
LINE
  5
25F
330
74
100
AcDbEntity
  8
0
 62
     0
100
AcDbLine
 10
-181.875
 20
-1528.75
 30
0.0
 11
-181.875
 21
-1528.75
 31
0.0
  0
LINE
  5
260
330
74
100
AcDbEntity
  8
0
 62
     0
100
AcDbLine
 10
-180.625
 20
-1528.75
 30
0.0
 11
-180.625
 21
-1528.75
 31
0.0
  0
LINE
  5
261
330
74
100
AcDbEntity
  8
0
 62
     0
100
AcDbLine
 10
-179.375
 20
-1528.75
 30
0.0
 11
-179.375
 21
-1528.75
 31
0.0
  0
LINE
  5
262
330
74
100
AcDbEntity
  8
0
 62
     0
100
AcDbLine
 10
-178.125
 20
-1528.75
 30
0.0
 11
-178.125
 21
-1528.75
 31
0.0
  0
LINE
  5
263
330
74
100
AcDbEntity
  8
0
 62
     0
100
AcDbLine
 10
-176.875
 20
-1528.75
 30
0.0
 11
-176.875
 21
-1528.75
 31
0.0
  0
LINE
  5
264
330
74
100
AcDbEntity
  8
0
 62
     0
100
AcDbLine
 10
-175.625
 20
-1528.75
 30
0.0
 11
-175.625
 21
-1528.75
 31
0.0
  0
LINE
  5
265
330
74
100
AcDbEntity
  8
0
 62
     0
100
AcDbLine
 10
-174.375
 20
-1528.75
 30
0.0
 11
-174.375
 21
-1528.75
 31
0.0
  0
LINE
  5
266
330
74
100
AcDbEntity
  8
0
 62
     0
100
AcDbLine
 10
-173.125
 20
-1528.75
 30
0.0
 11
-173.125
 21
-1528.75
 31
0.0
  0
LINE
  5
267
330
74
100
AcDbEntity
  8
0
 62
     0
100
AcDbLine
 10
-171.875
 20
-1528.75
 30
0.0
 11
-171.875
 21
-1528.75
 31
0.0
  0
LINE
  5
268
330
74
100
AcDbEntity
  8
0
 62
     0
100
AcDbLine
 10
-170.625
 20
-1528.75
 30
0.0
 11
-170.625
 21
-1528.75
 31
0.0
  0
LINE
  5
269
330
74
100
AcDbEntity
  8
0
 62
     0
100
AcDbLine
 10
-169.375
 20
-1528.75
 30
0.0
 11
-169.375
 21
-1528.75
 31
0.0
  0
LINE
  5
26A
330
74
100
AcDbEntity
  8
0
 62
     0
100
AcDbLine
 10
-168.125
 20
-1528.75
 30
0.0
 11
-168.125
 21
-1528.75
 31
0.0
  0
LINE
  5
26B
330
74
100
AcDbEntity
  8
0
 62
     0
100
AcDbLine
 10
-166.875
 20
-1528.75
 30
0.0
 11
-166.875
 21
-1528.75
 31
0.0
  0
LINE
  5
26C
330
74
100
AcDbEntity
  8
0
 62
     0
100
AcDbLine
 10
-165.625
 20
-1528.75
 30
0.0
 11
-165.625
 21
-1528.75
 31
0.0
  0
LINE
  5
26D
330
74
100
AcDbEntity
  8
0
 62
     0
100
AcDbLine
 10
-164.375
 20
-1528.75
 30
0.0
 11
-164.375
 21
-1528.75
 31
0.0
  0
LINE
  5
26E
330
74
100
AcDbEntity
  8
0
 62
     0
100
AcDbLine
 10
-163.125
 20
-1528.75
 30
0.0
 11
-163.125
 21
-1528.75
 31
0.0
  0
LINE
  5
26F
330
74
100
AcDbEntity
  8
0
 62
     0
100
AcDbLine
 10
-161.875
 20
-1528.75
 30
0.0
 11
-161.875
 21
-1528.75
 31
0.0
  0
LINE
  5
270
330
74
100
AcDbEntity
  8
0
 62
     0
100
AcDbLine
 10
-160.625
 20
-1528.75
 30
0.0
 11
-160.625
 21
-1528.75
 31
0.0
  0
LINE
  5
271
330
74
100
AcDbEntity
  8
0
 62
     0
100
AcDbLine
 10
-159.375
 20
-1528.75
 30
0.0
 11
-159.375
 21
-1528.75
 31
0.0
  0
LINE
  5
272
330
74
100
AcDbEntity
  8
0
 62
     0
100
AcDbLine
 10
-158.125
 20
-1528.75
 30
0.0
 11
-158.125
 21
-1528.75
 31
0.0
  0
LINE
  5
273
330
74
100
AcDbEntity
  8
0
 62
     0
100
AcDbLine
 10
-156.875
 20
-1528.75
 30
0.0
 11
-156.875
 21
-1528.75
 31
0.0
  0
LINE
  5
274
330
74
100
AcDbEntity
  8
0
 62
     0
100
AcDbLine
 10
-191.8749999999999
 20
-1528.75
 30
0.0
 11
-191.8749999999999
 21
-1528.75
 31
0.0
  0
LINE
  5
275
330
74
100
AcDbEntity
  8
0
 62
     0
100
AcDbLine
 10
-190.6249999999999
 20
-1528.75
 30
0.0
 11
-190.6249999999999
 21
-1528.75
 31
0.0
  0
LINE
  5
276
330
74
100
AcDbEntity
  8
0
 62
     0
100
AcDbLine
 10
-189.3749999999999
 20
-1528.75
 30
0.0
 11
-189.3749999999999
 21
-1528.75
 31
0.0
  0
LINE
  5
277
330
74
100
AcDbEntity
  8
0
 62
     0
100
AcDbLine
 10
-188.1249999999999
 20
-1528.75
 30
0.0
 11
-188.1249999999999
 21
-1528.75
 31
0.0
  0
LINE
  5
278
330
74
100
AcDbEntity
  8
0
 62
     0
100
AcDbLine
 10
-186.8749999999999
 20
-1528.75
 30
0.0
 11
-186.8749999999999
 21
-1528.75
 31
0.0
  0
LINE
  5
279
330
74
100
AcDbEntity
  8
0
 62
     0
100
AcDbLine
 10
-183.75
 20
-1530.0
 30
0.0
 11
-183.75
 21
-1530.0
 31
0.0
  0
LINE
  5
27A
330
74
100
AcDbEntity
  8
0
 62
     0
100
AcDbLine
 10
-182.5
 20
-1530.0
 30
0.0
 11
-182.5
 21
-1530.0
 31
0.0
  0
LINE
  5
27B
330
74
100
AcDbEntity
  8
0
 62
     0
100
AcDbLine
 10
-181.25
 20
-1530.0
 30
0.0
 11
-181.25
 21
-1530.0
 31
0.0
  0
LINE
  5
27C
330
74
100
AcDbEntity
  8
0
 62
     0
100
AcDbLine
 10
-180.0
 20
-1530.0
 30
0.0
 11
-180.0
 21
-1530.0
 31
0.0
  0
LINE
  5
27D
330
74
100
AcDbEntity
  8
0
 62
     0
100
AcDbLine
 10
-178.75
 20
-1530.0
 30
0.0
 11
-178.75
 21
-1530.0
 31
0.0
  0
LINE
  5
27E
330
74
100
AcDbEntity
  8
0
 62
     0
100
AcDbLine
 10
-177.5
 20
-1530.0
 30
0.0
 11
-177.5
 21
-1530.0
 31
0.0
  0
LINE
  5
27F
330
74
100
AcDbEntity
  8
0
 62
     0
100
AcDbLine
 10
-176.25
 20
-1530.0
 30
0.0
 11
-176.25
 21
-1530.0
 31
0.0
  0
LINE
  5
280
330
74
100
AcDbEntity
  8
0
 62
     0
100
AcDbLine
 10
-175.0
 20
-1530.0
 30
0.0
 11
-175.0
 21
-1530.0
 31
0.0
  0
LINE
  5
281
330
74
100
AcDbEntity
  8
0
 62
     0
100
AcDbLine
 10
-173.75
 20
-1530.0
 30
0.0
 11
-173.75
 21
-1530.0
 31
0.0
  0
LINE
  5
282
330
74
100
AcDbEntity
  8
0
 62
     0
100
AcDbLine
 10
-172.5
 20
-1530.0
 30
0.0
 11
-172.5
 21
-1530.0
 31
0.0
  0
LINE
  5
283
330
74
100
AcDbEntity
  8
0
 62
     0
100
AcDbLine
 10
-171.25
 20
-1530.0
 30
0.0
 11
-171.25
 21
-1530.0
 31
0.0
  0
LINE
  5
284
330
74
100
AcDbEntity
  8
0
 62
     0
100
AcDbLine
 10
-170.0
 20
-1530.0
 30
0.0
 11
-170.0
 21
-1530.0
 31
0.0
  0
LINE
  5
285
330
74
100
AcDbEntity
  8
0
 62
     0
100
AcDbLine
 10
-168.75
 20
-1530.0
 30
0.0
 11
-168.75
 21
-1530.0
 31
0.0
  0
LINE
  5
286
330
74
100
AcDbEntity
  8
0
 62
     0
100
AcDbLine
 10
-167.5
 20
-1530.0
 30
0.0
 11
-167.5
 21
-1530.0
 31
0.0
  0
LINE
  5
287
330
74
100
AcDbEntity
  8
0
 62
     0
100
AcDbLine
 10
-166.25
 20
-1530.0
 30
0.0
 11
-166.25
 21
-1530.0
 31
0.0
  0
LINE
  5
288
330
74
100
AcDbEntity
  8
0
 62
     0
100
AcDbLine
 10
-165.0
 20
-1530.0
 30
0.0
 11
-165.0
 21
-1530.0
 31
0.0
  0
LINE
  5
289
330
74
100
AcDbEntity
  8
0
 62
     0
100
AcDbLine
 10
-163.75
 20
-1530.0
 30
0.0
 11
-163.75
 21
-1530.0
 31
0.0
  0
LINE
  5
28A
330
74
100
AcDbEntity
  8
0
 62
     0
100
AcDbLine
 10
-162.5
 20
-1530.0
 30
0.0
 11
-162.5
 21
-1530.0
 31
0.0
  0
LINE
  5
28B
330
74
100
AcDbEntity
  8
0
 62
     0
100
AcDbLine
 10
-161.25
 20
-1530.0
 30
0.0
 11
-161.25
 21
-1530.0
 31
0.0
  0
LINE
  5
28C
330
74
100
AcDbEntity
  8
0
 62
     0
100
AcDbLine
 10
-160.0
 20
-1530.0
 30
0.0
 11
-160.0
 21
-1530.0
 31
0.0
  0
LINE
  5
28D
330
74
100
AcDbEntity
  8
0
 62
     0
100
AcDbLine
 10
-158.75
 20
-1530.0
 30
0.0
 11
-158.75
 21
-1530.0
 31
0.0
  0
LINE
  5
28E
330
74
100
AcDbEntity
  8
0
 62
     0
100
AcDbLine
 10
-157.5
 20
-1530.0
 30
0.0
 11
-157.5
 21
-1530.0
 31
0.0
  0
LINE
  5
28F
330
74
100
AcDbEntity
  8
0
 62
     0
100
AcDbLine
 10
-183.125
 20
-1531.25
 30
0.0
 11
-183.125
 21
-1531.25
 31
0.0
  0
LINE
  5
290
330
74
100
AcDbEntity
  8
0
 62
     0
100
AcDbLine
 10
-181.875
 20
-1531.25
 30
0.0
 11
-181.875
 21
-1531.25
 31
0.0
  0
LINE
  5
291
330
74
100
AcDbEntity
  8
0
 62
     0
100
AcDbLine
 10
-180.625
 20
-1531.25
 30
0.0
 11
-180.625
 21
-1531.25
 31
0.0
  0
LINE
  5
292
330
74
100
AcDbEntity
  8
0
 62
     0
100
AcDbLine
 10
-179.375
 20
-1531.25
 30
0.0
 11
-179.375
 21
-1531.25
 31
0.0
  0
LINE
  5
293
330
74
100
AcDbEntity
  8
0
 62
     0
100
AcDbLine
 10
-178.125
 20
-1531.25
 30
0.0
 11
-178.125
 21
-1531.25
 31
0.0
  0
LINE
  5
294
330
74
100
AcDbEntity
  8
0
 62
     0
100
AcDbLine
 10
-176.875
 20
-1531.25
 30
0.0
 11
-176.875
 21
-1531.25
 31
0.0
  0
LINE
  5
295
330
74
100
AcDbEntity
  8
0
 62
     0
100
AcDbLine
 10
-175.625
 20
-1531.25
 30
0.0
 11
-175.625
 21
-1531.25
 31
0.0
  0
LINE
  5
296
330
74
100
AcDbEntity
  8
0
 62
     0
100
AcDbLine
 10
-174.375
 20
-1531.25
 30
0.0
 11
-174.375
 21
-1531.25
 31
0.0
  0
LINE
  5
297
330
74
100
AcDbEntity
  8
0
 62
     0
100
AcDbLine
 10
-173.125
 20
-1531.25
 30
0.0
 11
-173.125
 21
-1531.25
 31
0.0
  0
LINE
  5
298
330
74
100
AcDbEntity
  8
0
 62
     0
100
AcDbLine
 10
-171.875
 20
-1531.25
 30
0.0
 11
-171.875
 21
-1531.25
 31
0.0
  0
LINE
  5
299
330
74
100
AcDbEntity
  8
0
 62
     0
100
AcDbLine
 10
-170.625
 20
-1531.25
 30
0.0
 11
-170.625
 21
-1531.25
 31
0.0
  0
LINE
  5
29A
330
74
100
AcDbEntity
  8
0
 62
     0
100
AcDbLine
 10
-169.375
 20
-1531.25
 30
0.0
 11
-169.375
 21
-1531.25
 31
0.0
  0
LINE
  5
29B
330
74
100
AcDbEntity
  8
0
 62
     0
100
AcDbLine
 10
-168.125
 20
-1531.25
 30
0.0
 11
-168.125
 21
-1531.25
 31
0.0
  0
LINE
  5
29C
330
74
100
AcDbEntity
  8
0
 62
     0
100
AcDbLine
 10
-166.875
 20
-1531.25
 30
0.0
 11
-166.875
 21
-1531.25
 31
0.0
  0
LINE
  5
29D
330
74
100
AcDbEntity
  8
0
 62
     0
100
AcDbLine
 10
-165.625
 20
-1531.25
 30
0.0
 11
-165.625
 21
-1531.25
 31
0.0
  0
LINE
  5
29E
330
74
100
AcDbEntity
  8
0
 62
     0
100
AcDbLine
 10
-164.375
 20
-1531.25
 30
0.0
 11
-164.375
 21
-1531.25
 31
0.0
  0
LINE
  5
29F
330
74
100
AcDbEntity
  8
0
 62
     0
100
AcDbLine
 10
-163.125
 20
-1531.25
 30
0.0
 11
-163.125
 21
-1531.25
 31
0.0
  0
LINE
  5
2A0
330
74
100
AcDbEntity
  8
0
 62
     0
100
AcDbLine
 10
-161.875
 20
-1531.25
 30
0.0
 11
-161.875
 21
-1531.25
 31
0.0
  0
LINE
  5
2A1
330
74
100
AcDbEntity
  8
0
 62
     0
100
AcDbLine
 10
-160.625
 20
-1531.25
 30
0.0
 11
-160.625
 21
-1531.25
 31
0.0
  0
LINE
  5
2A2
330
74
100
AcDbEntity
  8
0
 62
     0
100
AcDbLine
 10
-159.375
 20
-1531.25
 30
0.0
 11
-159.375
 21
-1531.25
 31
0.0
  0
LINE
  5
2A3
330
74
100
AcDbEntity
  8
0
 62
     0
100
AcDbLine
 10
-158.125
 20
-1531.25
 30
0.0
 11
-158.125
 21
-1531.25
 31
0.0
  0
LINE
  5
2A4
330
74
100
AcDbEntity
  8
0
 62
     0
100
AcDbLine
 10
-182.5
 20
-1532.5
 30
0.0
 11
-182.5
 21
-1532.5
 31
0.0
  0
LINE
  5
2A5
330
74
100
AcDbEntity
  8
0
 62
     0
100
AcDbLine
 10
-181.25
 20
-1532.5
 30
0.0
 11
-181.25
 21
-1532.5
 31
0.0
  0
LINE
  5
2A6
330
74
100
AcDbEntity
  8
0
 62
     0
100
AcDbLine
 10
-180.0
 20
-1532.5
 30
0.0
 11
-180.0
 21
-1532.5
 31
0.0
  0
LINE
  5
2A7
330
74
100
AcDbEntity
  8
0
 62
     0
100
AcDbLine
 10
-178.7499999999999
 20
-1532.5
 30
0.0
 11
-178.7499999999999
 21
-1532.5
 31
0.0
  0
LINE
  5
2A8
330
74
100
AcDbEntity
  8
0
 62
     0
100
AcDbLine
 10
-177.4999999999999
 20
-1532.5
 30
0.0
 11
-177.4999999999999
 21
-1532.5
 31
0.0
  0
LINE
  5
2A9
330
74
100
AcDbEntity
  8
0
 62
     0
100
AcDbLine
 10
-176.25
 20
-1532.5
 30
0.0
 11
-176.25
 21
-1532.5
 31
0.0
  0
LINE
  5
2AA
330
74
100
AcDbEntity
  8
0
 62
     0
100
AcDbLine
 10
-175.0
 20
-1532.5
 30
0.0
 11
-175.0
 21
-1532.5
 31
0.0
  0
LINE
  5
2AB
330
74
100
AcDbEntity
  8
0
 62
     0
100
AcDbLine
 10
-173.75
 20
-1532.5
 30
0.0
 11
-173.75
 21
-1532.5
 31
0.0
  0
LINE
  5
2AC
330
74
100
AcDbEntity
  8
0
 62
     0
100
AcDbLine
 10
-172.4999999999999
 20
-1532.5
 30
0.0
 11
-172.4999999999999
 21
-1532.5
 31
0.0
  0
LINE
  5
2AD
330
74
100
AcDbEntity
  8
0
 62
     0
100
AcDbLine
 10
-171.2499999999999
 20
-1532.5
 30
0.0
 11
-171.2499999999999
 21
-1532.5
 31
0.0
  0
LINE
  5
2AE
330
74
100
AcDbEntity
  8
0
 62
     0
100
AcDbLine
 10
-170.0
 20
-1532.5
 30
0.0
 11
-170.0
 21
-1532.5
 31
0.0
  0
LINE
  5
2AF
330
74
100
AcDbEntity
  8
0
 62
     0
100
AcDbLine
 10
-168.75
 20
-1532.5
 30
0.0
 11
-168.75
 21
-1532.5
 31
0.0
  0
LINE
  5
2B0
330
74
100
AcDbEntity
  8
0
 62
     0
100
AcDbLine
 10
-167.5
 20
-1532.5
 30
0.0
 11
-167.5
 21
-1532.5
 31
0.0
  0
LINE
  5
2B1
330
74
100
AcDbEntity
  8
0
 62
     0
100
AcDbLine
 10
-166.2499999999999
 20
-1532.5
 30
0.0
 11
-166.2499999999999
 21
-1532.5
 31
0.0
  0
LINE
  5
2B2
330
74
100
AcDbEntity
  8
0
 62
     0
100
AcDbLine
 10
-164.9999999999999
 20
-1532.5
 30
0.0
 11
-164.9999999999999
 21
-1532.5
 31
0.0
  0
LINE
  5
2B3
330
74
100
AcDbEntity
  8
0
 62
     0
100
AcDbLine
 10
-163.75
 20
-1532.5
 30
0.0
 11
-163.75
 21
-1532.5
 31
0.0
  0
LINE
  5
2B4
330
74
100
AcDbEntity
  8
0
 62
     0
100
AcDbLine
 10
-162.5
 20
-1532.5
 30
0.0
 11
-162.5
 21
-1532.5
 31
0.0
  0
LINE
  5
2B5
330
74
100
AcDbEntity
  8
0
 62
     0
100
AcDbLine
 10
-161.25
 20
-1532.5
 30
0.0
 11
-161.25
 21
-1532.5
 31
0.0
  0
LINE
  5
2B6
330
74
100
AcDbEntity
  8
0
 62
     0
100
AcDbLine
 10
-159.9999999999999
 20
-1532.5
 30
0.0
 11
-159.9999999999999
 21
-1532.5
 31
0.0
  0
LINE
  5
2B7
330
74
100
AcDbEntity
  8
0
 62
     0
100
AcDbLine
 10
-158.7499999999999
 20
-1532.5
 30
0.0
 11
-158.7499999999999
 21
-1532.5
 31
0.0
  0
LINE
  5
2B8
330
74
100
AcDbEntity
  8
0
 62
     0
100
AcDbLine
 10
-186.875
 20
-1533.75
 30
0.0
 11
-186.875
 21
-1533.75
 31
0.0
  0
LINE
  5
2B9
330
74
100
AcDbEntity
  8
0
 62
     0
100
AcDbLine
 10
-183.125
 20
-1533.75
 30
0.0
 11
-183.125
 21
-1533.75
 31
0.0
  0
LINE
  5
2BA
330
74
100
AcDbEntity
  8
0
 62
     0
100
AcDbLine
 10
-181.8749999999999
 20
-1533.75
 30
0.0
 11
-181.8749999999999
 21
-1533.75
 31
0.0
  0
LINE
  5
2BB
330
74
100
AcDbEntity
  8
0
 62
     0
100
AcDbLine
 10
-180.625
 20
-1533.75
 30
0.0
 11
-180.625
 21
-1533.75
 31
0.0
  0
LINE
  5
2BC
330
74
100
AcDbEntity
  8
0
 62
     0
100
AcDbLine
 10
-179.375
 20
-1533.75
 30
0.0
 11
-179.375
 21
-1533.75
 31
0.0
  0
LINE
  5
2BD
330
74
100
AcDbEntity
  8
0
 62
     0
100
AcDbLine
 10
-178.125
 20
-1533.75
 30
0.0
 11
-178.125
 21
-1533.75
 31
0.0
  0
LINE
  5
2BE
330
74
100
AcDbEntity
  8
0
 62
     0
100
AcDbLine
 10
-176.875
 20
-1533.75
 30
0.0
 11
-176.875
 21
-1533.75
 31
0.0
  0
LINE
  5
2BF
330
74
100
AcDbEntity
  8
0
 62
     0
100
AcDbLine
 10
-175.6249999999999
 20
-1533.75
 30
0.0
 11
-175.6249999999999
 21
-1533.75
 31
0.0
  0
LINE
  5
2C0
330
74
100
AcDbEntity
  8
0
 62
     0
100
AcDbLine
 10
-174.3749999999999
 20
-1533.75
 30
0.0
 11
-174.3749999999999
 21
-1533.75
 31
0.0
  0
LINE
  5
2C1
330
74
100
AcDbEntity
  8
0
 62
     0
100
AcDbLine
 10
-173.125
 20
-1533.75
 30
0.0
 11
-173.125
 21
-1533.75
 31
0.0
  0
LINE
  5
2C2
330
74
100
AcDbEntity
  8
0
 62
     0
100
AcDbLine
 10
-171.875
 20
-1533.75
 30
0.0
 11
-171.875
 21
-1533.75
 31
0.0
  0
LINE
  5
2C3
330
74
100
AcDbEntity
  8
0
 62
     0
100
AcDbLine
 10
-170.625
 20
-1533.75
 30
0.0
 11
-170.625
 21
-1533.75
 31
0.0
  0
LINE
  5
2C4
330
74
100
AcDbEntity
  8
0
 62
     0
100
AcDbLine
 10
-169.3749999999999
 20
-1533.75
 30
0.0
 11
-169.3749999999999
 21
-1533.75
 31
0.0
  0
LINE
  5
2C5
330
74
100
AcDbEntity
  8
0
 62
     0
100
AcDbLine
 10
-168.1249999999999
 20
-1533.75
 30
0.0
 11
-168.1249999999999
 21
-1533.75
 31
0.0
  0
LINE
  5
2C6
330
74
100
AcDbEntity
  8
0
 62
     0
100
AcDbLine
 10
-166.875
 20
-1533.75
 30
0.0
 11
-166.875
 21
-1533.75
 31
0.0
  0
LINE
  5
2C7
330
74
100
AcDbEntity
  8
0
 62
     0
100
AcDbLine
 10
-165.625
 20
-1533.75
 30
0.0
 11
-165.625
 21
-1533.75
 31
0.0
  0
LINE
  5
2C8
330
74
100
AcDbEntity
  8
0
 62
     0
100
AcDbLine
 10
-164.375
 20
-1533.75
 30
0.0
 11
-164.375
 21
-1533.75
 31
0.0
  0
LINE
  5
2C9
330
74
100
AcDbEntity
  8
0
 62
     0
100
AcDbLine
 10
-163.1249999999999
 20
-1533.75
 30
0.0
 11
-163.1249999999999
 21
-1533.75
 31
0.0
  0
LINE
  5
2CA
330
74
100
AcDbEntity
  8
0
 62
     0
100
AcDbLine
 10
-161.8749999999999
 20
-1533.75
 30
0.0
 11
-161.8749999999999
 21
-1533.75
 31
0.0
  0
LINE
  5
2CB
330
74
100
AcDbEntity
  8
0
 62
     0
100
AcDbLine
 10
-160.625
 20
-1533.75
 30
0.0
 11
-160.625
 21
-1533.75
 31
0.0
  0
LINE
  5
2CC
330
74
100
AcDbEntity
  8
0
 62
     0
100
AcDbLine
 10
-188.75
 20
-1535.0
 30
0.0
 11
-188.75
 21
-1535.0
 31
0.0
  0
LINE
  5
2CD
330
74
100
AcDbEntity
  8
0
 62
     0
100
AcDbLine
 10
-187.5
 20
-1535.0
 30
0.0
 11
-187.5
 21
-1535.0
 31
0.0
  0
LINE
  5
2CE
330
74
100
AcDbEntity
  8
0
 62
     0
100
AcDbLine
 10
-186.25
 20
-1535.0
 30
0.0
 11
-186.25
 21
-1535.0
 31
0.0
  0
LINE
  5
2CF
330
74
100
AcDbEntity
  8
0
 62
     0
100
AcDbLine
 10
-182.5
 20
-1535.0
 30
0.0
 11
-182.5
 21
-1535.0
 31
0.0
  0
LINE
  5
2D0
330
74
100
AcDbEntity
  8
0
 62
     0
100
AcDbLine
 10
-181.25
 20
-1535.0
 30
0.0
 11
-181.25
 21
-1535.0
 31
0.0
  0
LINE
  5
2D1
330
74
100
AcDbEntity
  8
0
 62
     0
100
AcDbLine
 10
-180.0
 20
-1535.0
 30
0.0
 11
-180.0
 21
-1535.0
 31
0.0
  0
LINE
  5
2D2
330
74
100
AcDbEntity
  8
0
 62
     0
100
AcDbLine
 10
-178.7499999999999
 20
-1535.0
 30
0.0
 11
-178.7499999999999
 21
-1535.0
 31
0.0
  0
LINE
  5
2D3
330
74
100
AcDbEntity
  8
0
 62
     0
100
AcDbLine
 10
-177.4999999999999
 20
-1535.0
 30
0.0
 11
-177.4999999999999
 21
-1535.0
 31
0.0
  0
LINE
  5
2D4
330
74
100
AcDbEntity
  8
0
 62
     0
100
AcDbLine
 10
-176.25
 20
-1535.0
 30
0.0
 11
-176.25
 21
-1535.0
 31
0.0
  0
LINE
  5
2D5
330
74
100
AcDbEntity
  8
0
 62
     0
100
AcDbLine
 10
-175.0
 20
-1535.0
 30
0.0
 11
-175.0
 21
-1535.0
 31
0.0
  0
LINE
  5
2D6
330
74
100
AcDbEntity
  8
0
 62
     0
100
AcDbLine
 10
-173.75
 20
-1535.0
 30
0.0
 11
-173.75
 21
-1535.0
 31
0.0
  0
LINE
  5
2D7
330
74
100
AcDbEntity
  8
0
 62
     0
100
AcDbLine
 10
-172.4999999999999
 20
-1535.0
 30
0.0
 11
-172.4999999999999
 21
-1535.0
 31
0.0
  0
LINE
  5
2D8
330
74
100
AcDbEntity
  8
0
 62
     0
100
AcDbLine
 10
-171.2499999999999
 20
-1535.0
 30
0.0
 11
-171.2499999999999
 21
-1535.0
 31
0.0
  0
LINE
  5
2D9
330
74
100
AcDbEntity
  8
0
 62
     0
100
AcDbLine
 10
-170.0
 20
-1535.0
 30
0.0
 11
-170.0
 21
-1535.0
 31
0.0
  0
LINE
  5
2DA
330
74
100
AcDbEntity
  8
0
 62
     0
100
AcDbLine
 10
-168.75
 20
-1535.0
 30
0.0
 11
-168.75
 21
-1535.0
 31
0.0
  0
LINE
  5
2DB
330
74
100
AcDbEntity
  8
0
 62
     0
100
AcDbLine
 10
-167.5
 20
-1535.0
 30
0.0
 11
-167.5
 21
-1535.0
 31
0.0
  0
LINE
  5
2DC
330
74
100
AcDbEntity
  8
0
 62
     0
100
AcDbLine
 10
-166.2499999999999
 20
-1535.0
 30
0.0
 11
-166.2499999999999
 21
-1535.0
 31
0.0
  0
LINE
  5
2DD
330
74
100
AcDbEntity
  8
0
 62
     0
100
AcDbLine
 10
-164.9999999999999
 20
-1535.0
 30
0.0
 11
-164.9999999999999
 21
-1535.0
 31
0.0
  0
LINE
  5
2DE
330
74
100
AcDbEntity
  8
0
 62
     0
100
AcDbLine
 10
-163.75
 20
-1535.0
 30
0.0
 11
-163.75
 21
-1535.0
 31
0.0
  0
LINE
  5
2DF
330
74
100
AcDbEntity
  8
0
 62
     0
100
AcDbLine
 10
-162.5
 20
-1535.0
 30
0.0
 11
-162.5
 21
-1535.0
 31
0.0
  0
LINE
  5
2E0
330
74
100
AcDbEntity
  8
0
 62
     0
100
AcDbLine
 10
-188.125
 20
-1536.25
 30
0.0
 11
-188.125
 21
-1536.25
 31
0.0
  0
LINE
  5
2E1
330
74
100
AcDbEntity
  8
0
 62
     0
100
AcDbLine
 10
-186.875
 20
-1536.25
 30
0.0
 11
-186.875
 21
-1536.25
 31
0.0
  0
LINE
  5
2E2
330
74
100
AcDbEntity
  8
0
 62
     0
100
AcDbLine
 10
-185.625
 20
-1536.25
 30
0.0
 11
-185.625
 21
-1536.25
 31
0.0
  0
LINE
  5
2E3
330
74
100
AcDbEntity
  8
0
 62
     0
100
AcDbLine
 10
-184.375
 20
-1536.25
 30
0.0
 11
-184.375
 21
-1536.25
 31
0.0
  0
LINE
  5
2E4
330
74
100
AcDbEntity
  8
0
 62
     0
100
AcDbLine
 10
-181.8749999999999
 20
-1536.25
 30
0.0
 11
-181.8749999999999
 21
-1536.25
 31
0.0
  0
LINE
  5
2E5
330
74
100
AcDbEntity
  8
0
 62
     0
100
AcDbLine
 10
-180.6249999999999
 20
-1536.25
 30
0.0
 11
-180.6249999999999
 21
-1536.25
 31
0.0
  0
LINE
  5
2E6
330
74
100
AcDbEntity
  8
0
 62
     0
100
AcDbLine
 10
-179.3749999999999
 20
-1536.25
 30
0.0
 11
-179.3749999999999
 21
-1536.25
 31
0.0
  0
LINE
  5
2E7
330
74
100
AcDbEntity
  8
0
 62
     0
100
AcDbLine
 10
-178.1249999999999
 20
-1536.25
 30
0.0
 11
-178.1249999999999
 21
-1536.25
 31
0.0
  0
LINE
  5
2E8
330
74
100
AcDbEntity
  8
0
 62
     0
100
AcDbLine
 10
-176.8749999999999
 20
-1536.25
 30
0.0
 11
-176.8749999999999
 21
-1536.25
 31
0.0
  0
LINE
  5
2E9
330
74
100
AcDbEntity
  8
0
 62
     0
100
AcDbLine
 10
-175.6249999999999
 20
-1536.25
 30
0.0
 11
-175.6249999999999
 21
-1536.25
 31
0.0
  0
LINE
  5
2EA
330
74
100
AcDbEntity
  8
0
 62
     0
100
AcDbLine
 10
-174.3749999999999
 20
-1536.25
 30
0.0
 11
-174.3749999999999
 21
-1536.25
 31
0.0
  0
LINE
  5
2EB
330
74
100
AcDbEntity
  8
0
 62
     0
100
AcDbLine
 10
-173.1249999999999
 20
-1536.25
 30
0.0
 11
-173.1249999999999
 21
-1536.25
 31
0.0
  0
LINE
  5
2EC
330
74
100
AcDbEntity
  8
0
 62
     0
100
AcDbLine
 10
-171.8749999999999
 20
-1536.25
 30
0.0
 11
-171.8749999999999
 21
-1536.25
 31
0.0
  0
LINE
  5
2ED
330
74
100
AcDbEntity
  8
0
 62
     0
100
AcDbLine
 10
-170.6249999999999
 20
-1536.25
 30
0.0
 11
-170.6249999999999
 21
-1536.25
 31
0.0
  0
LINE
  5
2EE
330
74
100
AcDbEntity
  8
0
 62
     0
100
AcDbLine
 10
-169.3749999999999
 20
-1536.25
 30
0.0
 11
-169.3749999999999
 21
-1536.25
 31
0.0
  0
LINE
  5
2EF
330
74
100
AcDbEntity
  8
0
 62
     0
100
AcDbLine
 10
-168.1249999999999
 20
-1536.25
 30
0.0
 11
-168.1249999999999
 21
-1536.25
 31
0.0
  0
LINE
  5
2F0
330
74
100
AcDbEntity
  8
0
 62
     0
100
AcDbLine
 10
-166.8749999999999
 20
-1536.25
 30
0.0
 11
-166.8749999999999
 21
-1536.25
 31
0.0
  0
LINE
  5
2F1
330
74
100
AcDbEntity
  8
0
 62
     0
100
AcDbLine
 10
-165.6249999999999
 20
-1536.25
 30
0.0
 11
-165.6249999999999
 21
-1536.25
 31
0.0
  0
LINE
  5
2F2
330
74
100
AcDbEntity
  8
0
 62
     0
100
AcDbLine
 10
-164.3749999999999
 20
-1536.25
 30
0.0
 11
-164.3749999999999
 21
-1536.25
 31
0.0
  0
LINE
  5
2F3
330
74
100
AcDbEntity
  8
0
 62
     0
100
AcDbLine
 10
-163.1249999999999
 20
-1536.25
 30
0.0
 11
-163.1249999999999
 21
-1536.25
 31
0.0
  0
LINE
  5
2F4
330
74
100
AcDbEntity
  8
0
 62
     0
100
AcDbLine
 10
-186.25
 20
-1537.5
 30
0.0
 11
-186.25
 21
-1537.5
 31
0.0
  0
LINE
  5
2F5
330
74
100
AcDbEntity
  8
0
 62
     0
100
AcDbLine
 10
-184.9999999999999
 20
-1537.5
 30
0.0
 11
-184.9999999999999
 21
-1537.5
 31
0.0
  0
LINE
  5
2F6
330
74
100
AcDbEntity
  8
0
 62
     0
100
AcDbLine
 10
-181.25
 20
-1537.5
 30
0.0
 11
-181.25
 21
-1537.5
 31
0.0
  0
LINE
  5
2F7
330
74
100
AcDbEntity
  8
0
 62
     0
100
AcDbLine
 10
-180.0
 20
-1537.5
 30
0.0
 11
-180.0
 21
-1537.5
 31
0.0
  0
LINE
  5
2F8
330
74
100
AcDbEntity
  8
0
 62
     0
100
AcDbLine
 10
-178.75
 20
-1537.5
 30
0.0
 11
-178.75
 21
-1537.5
 31
0.0
  0
LINE
  5
2F9
330
74
100
AcDbEntity
  8
0
 62
     0
100
AcDbLine
 10
-177.5
 20
-1537.5
 30
0.0
 11
-177.5
 21
-1537.5
 31
0.0
  0
LINE
  5
2FA
330
74
100
AcDbEntity
  8
0
 62
     0
100
AcDbLine
 10
-176.25
 20
-1537.5
 30
0.0
 11
-176.25
 21
-1537.5
 31
0.0
  0
LINE
  5
2FB
330
74
100
AcDbEntity
  8
0
 62
     0
100
AcDbLine
 10
-175.0
 20
-1537.5
 30
0.0
 11
-175.0
 21
-1537.5
 31
0.0
  0
LINE
  5
2FC
330
74
100
AcDbEntity
  8
0
 62
     0
100
AcDbLine
 10
-173.75
 20
-1537.5
 30
0.0
 11
-173.75
 21
-1537.5
 31
0.0
  0
LINE
  5
2FD
330
74
100
AcDbEntity
  8
0
 62
     0
100
AcDbLine
 10
-172.5
 20
-1537.5
 30
0.0
 11
-172.5
 21
-1537.5
 31
0.0
  0
LINE
  5
2FE
330
74
100
AcDbEntity
  8
0
 62
     0
100
AcDbLine
 10
-171.25
 20
-1537.5
 30
0.0
 11
-171.25
 21
-1537.5
 31
0.0
  0
LINE
  5
2FF
330
74
100
AcDbEntity
  8
0
 62
     0
100
AcDbLine
 10
-170.0
 20
-1537.5
 30
0.0
 11
-170.0
 21
-1537.5
 31
0.0
  0
LINE
  5
300
330
74
100
AcDbEntity
  8
0
 62
     0
100
AcDbLine
 10
-168.75
 20
-1537.5
 30
0.0
 11
-168.75
 21
-1537.5
 31
0.0
  0
LINE
  5
301
330
74
100
AcDbEntity
  8
0
 62
     0
100
AcDbLine
 10
-167.5
 20
-1537.5
 30
0.0
 11
-167.5
 21
-1537.5
 31
0.0
  0
LINE
  5
302
330
74
100
AcDbEntity
  8
0
 62
     0
100
AcDbLine
 10
-166.25
 20
-1537.5
 30
0.0
 11
-166.25
 21
-1537.5
 31
0.0
  0
LINE
  5
303
330
74
100
AcDbEntity
  8
0
 62
     0
100
AcDbLine
 10
-165.0
 20
-1537.5
 30
0.0
 11
-165.0
 21
-1537.5
 31
0.0
  0
LINE
  5
304
330
74
100
AcDbEntity
  8
0
 62
     0
100
AcDbLine
 10
-180.6249999999999
 20
-1538.75
 30
0.0
 11
-180.6249999999999
 21
-1538.75
 31
0.0
  0
LINE
  5
305
330
74
100
AcDbEntity
  8
0
 62
     0
100
AcDbLine
 10
-179.3749999999999
 20
-1538.75
 30
0.0
 11
-179.3749999999999
 21
-1538.75
 31
0.0
  0
LINE
  5
306
330
74
100
AcDbEntity
  8
0
 62
     0
100
AcDbLine
 10
-178.1249999999999
 20
-1538.75
 30
0.0
 11
-178.1249999999999
 21
-1538.75
 31
0.0
  0
LINE
  5
307
330
74
100
AcDbEntity
  8
0
 62
     0
100
AcDbLine
 10
-176.8749999999999
 20
-1538.75
 30
0.0
 11
-176.8749999999999
 21
-1538.75
 31
0.0
  0
LINE
  5
308
330
74
100
AcDbEntity
  8
0
 62
     0
100
AcDbLine
 10
-175.6249999999999
 20
-1538.75
 30
0.0
 11
-175.6249999999999
 21
-1538.75
 31
0.0
  0
LINE
  5
309
330
74
100
AcDbEntity
  8
0
 62
     0
100
AcDbLine
 10
-174.3749999999999
 20
-1538.75
 30
0.0
 11
-174.3749999999999
 21
-1538.75
 31
0.0
  0
LINE
  5
30A
330
74
100
AcDbEntity
  8
0
 62
     0
100
AcDbLine
 10
-173.1249999999999
 20
-1538.75
 30
0.0
 11
-173.1249999999999
 21
-1538.75
 31
0.0
  0
LINE
  5
30B
330
74
100
AcDbEntity
  8
0
 62
     0
100
AcDbLine
 10
-171.8749999999999
 20
-1538.75
 30
0.0
 11
-171.8749999999999
 21
-1538.75
 31
0.0
  0
LINE
  5
30C
330
74
100
AcDbEntity
  8
0
 62
     0
100
AcDbLine
 10
-170.6249999999999
 20
-1538.75
 30
0.0
 11
-170.6249999999999
 21
-1538.75
 31
0.0
  0
LINE
  5
30D
330
74
100
AcDbEntity
  8
0
 62
     0
100
AcDbLine
 10
-169.3749999999999
 20
-1538.75
 30
0.0
 11
-169.3749999999999
 21
-1538.75
 31
0.0
  0
LINE
  5
30E
330
74
100
AcDbEntity
  8
0
 62
     0
100
AcDbLine
 10
-168.1249999999999
 20
-1538.75
 30
0.0
 11
-168.1249999999999
 21
-1538.75
 31
0.0
  0
LINE
  5
30F
330
74
100
AcDbEntity
  8
0
 62
     0
100
AcDbLine
 10
-166.8749999999999
 20
-1538.75
 30
0.0
 11
-166.8749999999999
 21
-1538.75
 31
0.0
  0
LINE
  5
310
330
74
100
AcDbEntity
  8
0
 62
     0
100
AcDbLine
 10
-165.6249999999999
 20
-1538.75
 30
0.0
 11
-165.6249999999999
 21
-1538.75
 31
0.0
  0
LINE
  5
311
330
74
100
AcDbEntity
  8
0
 62
     0
100
AcDbLine
 10
-180.0
 20
-1540.0
 30
0.0
 11
-180.0
 21
-1540.0
 31
0.0
  0
LINE
  5
312
330
74
100
AcDbEntity
  8
0
 62
     0
100
AcDbLine
 10
-178.75
 20
-1540.0
 30
0.0
 11
-178.75
 21
-1540.0
 31
0.0
  0
LINE
  5
313
330
74
100
AcDbEntity
  8
0
 62
     0
100
AcDbLine
 10
-177.5
 20
-1540.0
 30
0.0
 11
-177.5
 21
-1540.0
 31
0.0
  0
LINE
  5
314
330
74
100
AcDbEntity
  8
0
 62
     0
100
AcDbLine
 10
-176.25
 20
-1540.0
 30
0.0
 11
-176.25
 21
-1540.0
 31
0.0
  0
LINE
  5
315
330
74
100
AcDbEntity
  8
0
 62
     0
100
AcDbLine
 10
-175.0
 20
-1540.0
 30
0.0
 11
-175.0
 21
-1540.0
 31
0.0
  0
LINE
  5
316
330
74
100
AcDbEntity
  8
0
 62
     0
100
AcDbLine
 10
-173.75
 20
-1540.0
 30
0.0
 11
-173.75
 21
-1540.0
 31
0.0
  0
LINE
  5
317
330
74
100
AcDbEntity
  8
0
 62
     0
100
AcDbLine
 10
-172.5
 20
-1540.0
 30
0.0
 11
-172.5
 21
-1540.0
 31
0.0
  0
LINE
  5
318
330
74
100
AcDbEntity
  8
0
 62
     0
100
AcDbLine
 10
-171.25
 20
-1540.0
 30
0.0
 11
-171.25
 21
-1540.0
 31
0.0
  0
LINE
  5
319
330
74
100
AcDbEntity
  8
0
 62
     0
100
AcDbLine
 10
-170.0
 20
-1540.0
 30
0.0
 11
-170.0
 21
-1540.0
 31
0.0
  0
LINE
  5
31A
330
74
100
AcDbEntity
  8
0
 62
     0
100
AcDbLine
 10
-168.75
 20
-1540.0
 30
0.0
 11
-168.75
 21
-1540.0
 31
0.0
  0
LINE
  5
31B
330
74
100
AcDbEntity
  8
0
 62
     0
100
AcDbLine
 10
-167.5
 20
-1540.0
 30
0.0
 11
-167.5
 21
-1540.0
 31
0.0
  0
LINE
  5
31C
330
74
100
AcDbEntity
  8
0
 62
     0
100
AcDbLine
 10
-166.25
 20
-1540.0
 30
0.0
 11
-166.25
 21
-1540.0
 31
0.0
  0
LINE
  5
31D
330
74
100
AcDbEntity
  8
0
 62
     0
100
AcDbLine
 10
-179.375
 20
-1541.25
 30
0.0
 11
-179.375
 21
-1541.25
 31
0.0
  0
LINE
  5
31E
330
74
100
AcDbEntity
  8
0
 62
     0
100
AcDbLine
 10
-178.125
 20
-1541.25
 30
0.0
 11
-178.125
 21
-1541.25
 31
0.0
  0
LINE
  5
31F
330
74
100
AcDbEntity
  8
0
 62
     0
100
AcDbLine
 10
-176.875
 20
-1541.25
 30
0.0
 11
-176.875
 21
-1541.25
 31
0.0
  0
LINE
  5
320
330
74
100
AcDbEntity
  8
0
 62
     0
100
AcDbLine
 10
-175.625
 20
-1541.25
 30
0.0
 11
-175.625
 21
-1541.25
 31
0.0
  0
LINE
  5
321
330
74
100
AcDbEntity
  8
0
 62
     0
100
AcDbLine
 10
-174.375
 20
-1541.25
 30
0.0
 11
-174.375
 21
-1541.25
 31
0.0
  0
LINE
  5
322
330
74
100
AcDbEntity
  8
0
 62
     0
100
AcDbLine
 10
-173.125
 20
-1541.25
 30
0.0
 11
-173.125
 21
-1541.25
 31
0.0
  0
LINE
  5
323
330
74
100
AcDbEntity
  8
0
 62
     0
100
AcDbLine
 10
-171.875
 20
-1541.25
 30
0.0
 11
-171.875
 21
-1541.25
 31
0.0
  0
LINE
  5
324
330
74
100
AcDbEntity
  8
0
 62
     0
100
AcDbLine
 10
-170.625
 20
-1541.25
 30
0.0
 11
-170.625
 21
-1541.25
 31
0.0
  0
LINE
  5
325
330
74
100
AcDbEntity
  8
0
 62
     0
100
AcDbLine
 10
-169.375
 20
-1541.25
 30
0.0
 11
-169.375
 21
-1541.25
 31
0.0
  0
LINE
  5
326
330
74
100
AcDbEntity
  8
0
 62
     0
100
AcDbLine
 10
-168.125
 20
-1541.25
 30
0.0
 11
-168.125
 21
-1541.25
 31
0.0
  0
LINE
  5
327
330
74
100
AcDbEntity
  8
0
 62
     0
100
AcDbLine
 10
-166.875
 20
-1541.25
 30
0.0
 11
-166.875
 21
-1541.25
 31
0.0
  0
LINE
  5
328
330
74
100
AcDbEntity
  8
0
 62
     0
100
AcDbLine
 10
-172.5
 20
-1542.5
 30
0.0
 11
-172.5
 21
-1542.5
 31
0.0
  0
LINE
  5
329
330
74
100
AcDbEntity
  8
0
 62
     0
100
AcDbLine
 10
-171.25
 20
-1542.5
 30
0.0
 11
-171.25
 21
-1542.5
 31
0.0
  0
LINE
  5
32A
330
74
100
AcDbEntity
  8
0
 62
     0
100
AcDbLine
 10
-170.0
 20
-1542.5
 30
0.0
 11
-170.0
 21
-1542.5
 31
0.0
  0
LINE
  5
32B
330
74
100
AcDbEntity
  8
0
 62
     0
100
AcDbLine
 10
-168.75
 20
-1542.5
 30
0.0
 11
-168.75
 21
-1542.5
 31
0.0
  0
ENDBLK
  5
32C
330
74
100
AcDbEntity
  8
0
100
AcDbBlockEnd
  0
ENDSEC
  0
SECTION
  2
ENTITIES
  0
LWPOLYLINE
  5
32D
330
6F
100
AcDbEntity
  8
GRABUNGSGRENZE
100
AcDbPolyline
 90
        4
 70
   128
 43
0.0
 10
-1.697016700757527
 20
-17.29808580231073
 10
-2.314555732187208
 20
-16.93181742542952
 10
-2.595175752619158
 20
-16.72435437581761
 10
-3.246881064057244
 20
-16.24416382945062
  0
LWPOLYLINE
  5
333
330
6F
100
AcDbEntity
  8
GRABUNGSGRENZE
100
AcDbPolyline
 90
        2
 70
     0
 43
0.0
 10
-2.595175752619158
 20
-16.72435437581761
 10
-2.947422565473819
 20
-17.29242160789638
  0
LWPOLYLINE
  5
337
330
6F
100
AcDbEntity
  8
GRABUNGSGRENZE
100
AcDbPolyline
 90
        2
 70
     0
 43
0.0
 10
-2.314555732187208
 20
-16.93181742542952
 10
-2.535358537200395
 20
-17.29755828518231
  0
LWPOLYLINE
  5
33B
330
6F
100
AcDbEntity
  8
GRABUNGSGRENZE
100
AcDbPolyline
 90
        3
 70
     0
 43
0.0
 10
-1.971204623079592
 20
-16.84102525817691
 10
-2.151556856455494
 20
-16.72475450129489
 10
-1.996269053657458
 20
-16.50295863283622
  0
LWPOLYLINE
  5
340
330
6F
100
AcDbEntity
  8
GRABUNGSGRENZE
100
AcDbPolyline
 90
        8
 70
   128
 43
0.0
 10
-1.257396257839765
 20
-14.68264223513905
 10
-2.004986315708674
 20
-15.85922143441961
 10
-2.069450667537696
 20
-16.00978249075295
 10
-2.414306767241131
 20
-16.52637273064328
 10
-3.098846777415342
 20
-15.99693710107911
 10
-2.631468521201342
 20
-14.90778865188116
 10
-2.241448332828233
 20
-14.1465067022509
 10
-1.985169897168657
 20
-14.27055919279918
  0
LWPOLYLINE
  5
34A
330
6F
100
AcDbEntity
  8
GRABUNGSGRENZE
100
AcDbPolyline
 90
        3
 70
   128
 43
0.0
 10
-3.109548402433205
 20
-13.57466711051844
 10
-2.472635982805574
 20
-13.94491630140247
 10
-2.952862741501014
 20
-15.01018891966562
  0
LWPOLYLINE
  5
34F
330
6F
100
AcDbEntity
  8
STEINE
100
AcDbPolyline
 90
        7
 70
     0
 43
0.0
 10
-2.602195004063118
 20
-15.79997412219279
 10
-2.570775673003915
 20
-15.76722567416733
 10
-2.52718225517048
 20
-15.72423193871857
 10
-2.489946150244273
 20
-15.73576611006986
 10
-2.462460811373531
 20
-15.73206788711725
 10
-2.426078212351944
 20
-15.7777305697447
 10
-2.40611173054541
 20
-15.79902536437553
  0
LWPOLYLINE
  5
358
330
6F
100
AcDbEntity
  8
STEINE
100
AcDbPolyline
 90
        6
 70
     0
 43
0.0
 10
-2.56656814284736
 20
-15.79470854873205
 10
-2.570775673003915
 20
-15.76722567416733
 10
-2.511137444022312
 20
-15.77712349444197
 10
-2.466340588829577
 20
-15.77232287067682
 10
-2.454574772712513
 20
-15.78296164292118
 10
-2.460100758469291
 20
-15.79877727360959
  0
LWPOLYLINE
  5
360
330
6F
100
AcDbEntity
  8
STEINE
100
AcDbPolyline
 90
        6
 70
     0
 43
0.0
 10
-2.210340619750133
 20
-15.83882364717965
 10
-2.26107007119276
 20
-15.77540421298276
 10
-2.181820220471339
 20
-15.73325659052056
 10
-2.148257695437557
 20
-15.72239849504053
 10
-2.078779985383808
 20
-15.76586376896099
 10
-2.07042406841515
 20
-15.80860614519582
  0
LWPOLYLINE
  5
368
330
6F
100
AcDbEntity
  8
STEINE
100
AcDbPolyline
 90
        5
 70
     0
 43
0.0
 10
-2.078779985383808
 20
-15.76586376896099
 10
-2.059534741098839
 20
-15.74336060835882
 10
-2.021777007438595
 20
-15.7574388514238
 10
-1.998240446592428
 20
-15.77973501032038
 10
-1.998638860025521
 20
-15.8026562988038
  0
LWPOLYLINE
  5
36F
330
6F
100
AcDbEntity
  8
STEINE
100
AcDbPolyline
 90
        5
 70
     0
 43
0.0
 10
-2.057366048041979
 20
-15.55999522910355
 10
-2.100812411656247
 20
-15.5281183412668
 10
-2.092730032655683
 20
-15.51432761786406
 10
-2.050833769407411
 20
-15.54162813378339
 10
-2.057366048041979
 20
-15.55999522910355
  0
LWPOLYLINE
  5
376
330
6F
100
AcDbEntity
  8
STEINE
100
AcDbPolyline
 90
       12
 70
     0
 43
0.0
 10
-2.373087176485578
 20
-15.25593138355193
 10
-2.385561104452149
 20
-15.30947024761632
 10
-2.353860842506795
 20
-15.33478282084026
 10
-2.32535688922817
 20
-15.33107966927561
 10
-2.311244145878923
 20
-15.30045223647055
 10
-2.247305547254011
 20
-15.25175754953767
 10
-2.238211946763619
 20
-15.23643397591107
 10
-2.266315022303133
 20
-15.21772514619625
 10
-2.278639431744517
 20
-15.19690269417908
 10
-2.299063470328598
 20
-15.18630581513705
 10
-2.318916594058264
 20
-15.18843915188755
 10
-2.373087176485578
 20
-15.25593138355193
  0
LWPOLYLINE
  5
384
330
6F
100
AcDbEntity
  8
STEINE
100
AcDbPolyline
 90
        5
 70
     0
 43
0.0
 10
-2.373087176485578
 20
-15.25593138355193
 10
-2.400230780961661
 20
-15.22499425233046
 10
-2.362704692067191
 20
-15.19119761822488
 10
-2.324590438176175
 20
-15.17369635033944
 10
-2.299063470328598
 20
-15.18630581513705
  0
LWPOLYLINE
  5
38B
330
6F
100
AcDbEntity
  8
STEINE
100
AcDbPolyline
 90
        5
 70
     0
 43
0.0
 10
-2.440429085482803
 20
-15.23282854056508
 10
-2.469006967941995
 20
-15.22125247601147
 10
-2.448310195531784
 20
-15.18295339916904
 10
-2.421238055930249
 20
-15.19912062147619
 10
-2.440429085482803
 20
-15.23282854056508
  0
LWPOLYLINE
  5
392
330
6F
100
AcDbEntity
  8
STEINE
100
AcDbPolyline
 90
       10
 70
     0
 43
0.0
 10
-2.165362962315803
 20
-15.3450757861
 10
-2.14417906145582
 20
-15.30219048011607
 10
-2.101975564097154
 20
-15.28772534100613
 10
-2.030529625796165
 20
-15.31692015599213
 10
-2.004891764177739
 20
-15.35244844496713
 10
-2.003267734631177
 20
-15.37230403300282
 10
-2.034743744728813
 20
-15.39333841533761
 10
-2.105047853320974
 20
-15.38960403193668
 10
-2.134599992679711
 20
-15.38720042566606
 10
-2.165362962315803
 20
-15.3450757861
  0
LWPOLYLINE
  5
39E
330
6F
100
AcDbEntity
  8
STEINE
100
AcDbPolyline
 90
       19
 70
     0
 43
0.0
 10
-1.952383836051325
 20
-15.36238076552603
 10
-1.997620997879474
 20
-15.38144445530757
 10
-2.01888622083808
 20
-15.4075226235614
 10
-2.015220033863712
 20
-15.4283869687809
 10
-1.95510699796243
 20
-15.43115202389433
 10
-1.885292482126061
 20
-15.43896332923281
 10
-1.856266900113398
 20
-15.43780424938185
 10
-1.850849343821451
 20
-15.39957910171999
 10
-1.930488554893853
 20
-15.36125618595933
 10
-1.940135820096526
 20
-15.36741469422099
 10
-1.952383836051325
 20
-15.36238076552603
 10
-1.979079740973937
 20
-15.31870848989999
 10
-1.983796578334435
 20
-15.29122807964129
 10
-1.984382279024962
 20
-15.2754420206251
 10
-1.957460462090578
 20
-15.26054150349178
 10
-1.921653706535442
 20
-15.29245535591881
 10
-1.892586231320459
 20
-15.29995449853486
 10
-1.899125902873084
 20
-15.3167936722432
 10
-1.930488554893853
 20
-15.36125618595933
  0
LWPOLYLINE
  5
3B3
330
6F
100
AcDbEntity
  8
STEINE
100
AcDbPolyline
 90
        6
 70
     0
 43
0.0
 10
-1.900486251675627
 20
-15.35143395502932
 10
-1.871546920373626
 20
-15.33244912304039
 10
-1.841345008367872
 20
-15.36388077562968
 10
-1.850940523144149
 20
-15.38073473517413
 10
-1.870318839954137
 20
-15.37573530676343
 10
-1.900486251675627
 20
-15.35143395502932
  0
LWPOLYLINE
  5
3BB
330
6F
100
AcDbEntity
  8
STEINE
100
AcDbPolyline
 90
       20
 70
     0
 43
0.0
 10
-1.850896969777773
 20
-15.28447320932305
 10
-1.805966237918055
 20
-15.41260423009282
 10
-1.794712193310951
 20
-15.42273615943925
 10
-1.770772290419654
 20
-15.4231296442603
 10
-1.687226194524998
 20
-15.42679995570475
 10
-1.661300813244329
 20
-15.41648813201894
 10
-1.639088440752386
 20
-15.37563512623874
 10
-1.619882625363718
 20
-15.3449830503735
 10
-1.578710063943031
 20
-15.32797630385588
 10
-1.558581742081215
 20
-15.27745631842486
 10
-1.537410162751326
 20
-15.23202447642122
 10
-1.526046028515337
 20
-15.15964617442301
 10
-1.534773251550881
 20
-15.14542746591495
 10
-1.596416673370008
 20
-15.14216049651564
 10
-1.613157274837587
 20
-15.1559931131207
 10
-1.630827775696372
 20
-15.18816571767971
 10
-1.653707170977465
 20
-15.19642552671363
 10
-1.7501798230042
 20
-15.25801060933027
 10
-1.816805423091898
 20
-15.27768710716854
 10
-1.850896969777773
 20
-15.28447320932305
  0
LWPOLYLINE
  5
3D1
330
6F
100
AcDbEntity
  8
STEINE
100
AcDbPolyline
 90
       12
 70
     0
 43
0.0
 10
-1.816805423091898
 20
-15.27768710716854
 10
-1.801740601597277
 20
-15.23330345124501
 10
-1.760703577007627
 20
-15.18828480851058
 10
-1.749624498127863
 20
-15.16225592637712
 10
-1.769128494544814
 20
-15.13128183056537
 10
-1.824011261411581
 20
-15.05158428029048
 10
-1.861704923115335
 20
-15.05074802452799
 10
-1.947686661258852
 20
-15.07000885879103
 10
-1.966944227073915
 20
-15.08996548337349
 10
-2.00824412826562
 20
-15.18591731080816
 10
-2.015887860794825
 20
-15.29036471651259
 10
-1.983796578334435
 20
-15.29122807964129
  0
LWPOLYLINE
  5
3DF
330
6F
100
AcDbEntity
  8
STEINE
100
AcDbPolyline
 90
        7
 70
     0
 43
0.0
 10
-1.805966237918055
 20
-15.41260423009282
 10
-1.850849343821451
 20
-15.39957910171999
 10
-1.843056948789149
 20
-15.43111918377412
 10
-1.815485359207747
 20
-15.44524671295947
 10
-1.740501377845372
 20
-15.46882189855998
 10
-1.649581014799658
 20
-15.52287912291043
 10
-1.603689151712454
 20
-15.53386209385545
  0
LWPOLYLINE
  5
3E8
330
6F
100
AcDbEntity
  8
STEINE
100
AcDbPolyline
 90
        2
 70
     0
 43
0.0
 10
-1.892586231320459
 20
-15.29995449853486
 10
-1.850896969777773
 20
-15.28447320932305
  0
LWPOLYLINE
  5
3EC
330
6F
100
AcDbEntity
  8
BEFUND
100
AcDbPolyline
 90
       14
 70
     0
 43
0.0
 10
-2.078779985383808
 20
-15.76586376896099
 10
-2.061405201247288
 20
-15.67257429992892
 10
-2.05448929501574
 20
-15.62823007290169
 10
-2.13379416461154
 20
-15.55374388135513
 10
-2.176295842998489
 20
-15.50658284878808
 10
-2.20716970640543
 20
-15.44153938504462
 10
-2.275670695253616
 20
-15.38941096004512
 10
-2.353169176657457
 20
-15.37246908962595
 10
-2.402692726434765
 20
-15.34775207431662
 10
-2.421215073034115
 20
-15.3091334418337
 10
-2.479468310152987
 20
-15.26968841081237
 10
-2.578968037873111
 20
-15.23197091019039
 10
-2.652916154685471
 20
-15.21195594640544
 10
-2.731118623468745
 20
-15.15478127118087
  0
LWPOLYLINE
  5
3FC
330
6F
100
AcDbEntity
  8
BEFUND
100
AcDbPolyline
 90
        7
 70
     0
 43
0.0
 10
-2.647069757266113
 20
-14.94657239286734
 10
-2.547668601786743
 20
-14.96391760533164
 10
-2.459319417820929
 20
-15.01289407917276
 10
-2.354376686606703
 20
-15.12290855969432
 10
-2.255221157587256
 20
-15.19475210728644
 10
-2.188161839640237
 20
-15.26471367734198
 10
-2.14417906145582
 20
-15.30219048011607
  0
LWPOLYLINE
  5
405
330
6F
100
AcDbEntity
  8
STEINE
100
AcDbPolyline
 90
        2
 70
     0
 43
0.0
 10
-1.639088440752386
 20
-15.37563512623874
 10
-1.594311300007802
 20
-15.36676004484207
  0
INSERT
  5
409
330
6F
100
AcDbEntity
  8
STEINESCHRAFF
100
AcDbBlockReference
  2
*X1
 10
0.0
 20
0.0
 30
0.0
 41
0.01
 42
0.01
 43
0.01
1001
ACAD
1000
HATCH
1002
{
1070
    16
1000
DOTS,I
1040
20.0
1040
0.0
1002
}
  0
ENDSEC
  0
SECTION
  2
OBJECTS
  0
DICTIONARY
  5
C
330
0
100
AcDbDictionary
281
     1
  3
ACAD_CIP_PREVIOUS_PRODUCT_INFO
350
40C
  3
ACAD_COLOR
350
62
  3
ACAD_DETAILVIEWSTYLE
350
69
  3
ACAD_GROUP
350
D
  3
ACAD_LAYOUT
350
61
  3
ACAD_MATERIAL
350
10
  3
ACAD_MLEADERSTYLE
350
65
  3
ACAD_MLINESTYLE
350
5E
  3
ACAD_PLOTSETTINGS
350
60
  3
ACAD_PLOTSTYLENAME
350
E
  3
ACAD_SCALELIST
350
42
  3
ACAD_SECTIONVIEWSTYLE
350
67
  3
ACAD_TABLESTYLE
350
63
  3
ACAD_VISUALSTYLE
350
29
  3
ACDB_RECOMPOSE_DATA
350
4B7
  3
AcDbVariableDictionary
350
457
  0
DICTIONARY
  5
410
330
2
100
AcDbDictionary
280
     1
281
     1
  3
ACAD_LAYERSTATES
360
411
  0
XRECORD
  5
40C
102
{ACAD_REACTORS
330
C
102
}
330
C
100
AcDbXrecord
280
     1
300
ACD
300
2014
300
DSADV_F_S
  0
DICTIONARY
  5
62
102
{ACAD_REACTORS
330
C
102
}
330
C
100
AcDbDictionary
281
     1
  0
DICTIONARY
  5
69
102
{ACAD_REACTORS
330
C
102
}
330
C
100
AcDbDictionary
281
     1
  3
Imperial24
350
6A
  0
DICTIONARY
  5
D
102
{ACAD_REACTORS
330
C
102
}
330
C
100
AcDbDictionary
281
     1
  0
DICTIONARY
  5
61
102
{ACAD_REACTORS
330
C
102
}
330
C
100
AcDbDictionary
281
     1
  3
Layout1
350
6E
  3
Model
350
72
  0
DICTIONARY
  5
10
102
{ACAD_REACTORS
330
C
102
}
330
C
100
AcDbDictionary
281
     1
  3
ByBlock
350
19
  3
ByLayer
350
11
  3
Global
350
21
  0
DICTIONARY
  5
65
102
{ACAD_REACTORS
330
C
102
}
330
C
100
AcDbDictionary
281
     1
  3
Standard
350
66
  0
DICTIONARY
  5
5E
102
{ACAD_REACTORS
330
C
102
}
330
C
100
AcDbDictionary
281
     1
  3
Standard
350
5F
  0
DICTIONARY
  5
60
102
{ACAD_REACTORS
330
C
102
}
330
C
100
AcDbDictionary
281
     1
  0
ACDBDICTIONARYWDFLT
  5
E
102
{ACAD_REACTORS
330
C
102
}
330
C
100
AcDbDictionary
281
     1
  3
Normal
350
F
100
AcDbDictionaryWithDefault
340
F
  0
DICTIONARY
  5
42
102
{ACAD_REACTORS
330
C
102
}
330
C
100
AcDbDictionary
281
     1
  3
A0
350
43
  3
A1
350
44
  3
A2
350
45
  3
A3
350
46
  3
A4
350
47
  3
A5
350
48
  3
A6
350
49
  3
A7
350
4A
  3
A8
350
4B
  3
A9
350
4C
  3
B0
350
4D
  3
B1
350
4E
  3
B2
350
4F
  3
B3
350
50
  3
B4
350
51
  3
B5
350
52
  3
B6
350
53
  0
DICTIONARY
  5
67
102
{ACAD_REACTORS
330
C
102
}
330
C
100
AcDbDictionary
281
     1
  3
Imperial24
350
68
  0
DICTIONARY
  5
63
102
{ACAD_REACTORS
330
C
102
}
330
C
100
AcDbDictionary
281
     1
  3
Standard
350
64
  0
DICTIONARY
  5
29
102
{ACAD_REACTORS
330
C
102
}
330
C
100
AcDbDictionary
281
     1
  3
2dWireframe
350
2F
  3
Basic
350
2E
  3
Brighten
350
35
  3
ColorChange
350
39
  3
Conceptual
350
32
  3
Dim
350
34
  3
EdgeColorOff
350
41
  3
Facepattern
350
38
  3
Flat
350
2A
  3
FlatWithEdges
350
2B
  3
Gouraud
350
2C
  3
GouraudWithEdges
350
2D
  3
Hidden
350
31
  3
JitterOff
350
3F
  3
Linepattern
350
37
  3
OverhangOff
350
40
  3
Realistic
350
33
  3
Shaded
350
3E
  3
Shaded with edges
350
3D
  3
Shades of Gray
350
3A
  3
Sketchy
350
3B
  3
Thicken
350
36
  3
Wireframe
350
30
  3
X-Ray
350
3C
  0
XRECORD
  5
4B7
102
{ACAD_REACTORS
330
C
102
}
330
C
100
AcDbXrecord
280
     1
 90
        1
330
64
330
68
330
6A
  0
DICTIONARY
  5
457
102
{ACAD_REACTORS
330
C
102
}
330
C
100
AcDbDictionary
281
     1
  3
CANNOSCALE
350
45C
  3
CMLEADERSTYLE
350
459
  3
CTABLESTYLE
350
458
  3
CVIEWDETAILSTYLE
350
45A
  3
CVIEWSECTIONSTYLE
350
45B
  0
DICTIONARY
  5
411
102
{ACAD_REACTORS
330
410
102
}
330
410
100
AcDbDictionary
281
     1
  0
ACDBDETAILVIEWSTYLE
  5
6A
102
{ACAD_XDICTIONARY
360
4B5
102
}
102
{ACAD_REACTORS
330
69
102
}
330
69
100
AcDbModelDocViewStyle
 70
     0
  3
Imperial24
290
     0
100
AcDbDetailViewStyle
 70
     0
 71
     0
 90
        3
 71
     1
340
55
 62
   256
 40
0.24
340
0
 62
   256
 40
0.24
300

 40
0.36
280
     3
 71
     2
340
5C
 90
       25
 62
   256
 71
     3
340
55
 62
   256
 40
0.24
 90
        1
 40
0.75
 90
        1
300
%<\AcVar ViewType \f "%tc1">% %<\AcVar ViewDetailId>%\PVARIA %<\AcVar ViewScale \f "%sn">%
 71
     4
340
5C
 90
       25
 62
   256
340
5C
 90
       25
 62
   256
280
     0
  0
LAYOUT
  5
6E
102
{ACAD_REACTORS
330
61
102
}
330
61
100
AcDbPlotSettings
  1

  2
Kyocera FS-1350DN KX
  4

  6

 40
0.0
 41
0.0
 42
0.0
 43
0.0
 44
0.0
 45
0.0
 46
0.0
 47
0.0
 48
0.0
 49
0.0
140
0.0
141
0.0
142
1.0
143
1.0
 70
   688
 72
     0
 73
     0
 74
     5
  7

 75
    16
147
1.0
 76
     0
 77
     2
 78
   300
148
0.0
149
0.0
100
AcDbLayout
  1
Layout1
 70
     0
 71
     1
 10
0.0
 20
0.0
 11
12.0
 21
9.0
 12
0.0
 22
0.0
 32
0.0
 14
1.000000000000000E+20
 24
1.000000000000000E+20
 34
1.000000000000000E+20
 15
-1.000000000000000E+20
 25
-1.000000000000000E+20
 35
-1.000000000000000E+20
146
0.0
 13
0.0
 23
0.0
 33
0.0
 16
1.0
 26
0.0
 36
0.0
 17
0.0
 27
1.0
 37
0.0
 76
     0
330
6B
  0
LAYOUT
  5
72
102
{ACAD_XDICTIONARY
360
455
102
}
102
{ACAD_REACTORS
330
61
102
}
330
61
100
AcDbPlotSettings
  1

  2
Kyocera FS-1350DN KX
  4

  6

 40
0.0
 41
0.0
 42
0.0
 43
0.0
 44
0.0
 45
0.0
 46
0.0
 47
0.0
 48
0.0
 49
0.0
140
0.0
141
0.0
142
1.0
143
1.0
 70
  1712
 72
     0
 73
     0
 74
     0
  7

 75
     0
147
1.0
 76
     0
 77
     2
 78
   300
148
0.0
149
0.0
100
AcDbLayout
  1
Model
 70
     1
 71
     0
 10
0.0
 20
0.0
 11
12.0
 21
9.0
 12
0.0
 22
0.0
 32
0.0
 14
0.0
 24
0.0
 34
0.0
 15
0.0
 25
0.0
 35
0.0
146
0.0
 13
0.0
 23
0.0
 33
0.0
 16
1.0
 26
0.0
 36
0.0
 17
0.0
 27
1.0
 37
0.0
 76
     0
330
6F
331
8E
  0
MATERIAL
  5
19
102
{ACAD_XDICTIONARY
360
1A
102
}
102
{ACAD_REACTORS
330
10
102
}
330
10
100
AcDbMaterial
  1
ByBlock
 72
     0
 43
0.0208333333333333
 43
0.0
 43
0.0
 43
0.0
 43
0.0
 43
0.0208333333333333
 43
0.0
 43
0.0
 43
0.0
 43
0.0
 43
1.0
 43
0.0
 43
0.0
 43
0.0
 43
0.0
 43
1.0
 77
     0
 47
0.0208333333333333
 47
0.0
 47
0.0
 47
0.0
 47
0.0
 47
0.0208333333333333
 47
0.0
 47
0.0
 47
0.0
 47
0.0
 47
1.0
 47
0.0
 47
0.0
 47
0.0
 47
0.0
 47
1.0
171
     0
 49
0.0208333333333333
 49
0.0
 49
0.0
 49
0.0
 49
0.0
 49
0.0208333333333333
 49
0.0
 49
0.0
 49
0.0
 49
0.0
 49
1.0
 49
0.0
 49
0.0
 49
0.0
 49
0.0
 49
1.0
175
     0
142
0.0208333333333333
142
0.0
142
0.0
142
0.0
142
0.0
142
0.0208333333333333
142
0.0
142
0.0
142
0.0
142
0.0
142
1.0
142
0.0
142
0.0
142
0.0
142
0.0
142
1.0
179
     0
144
0.0208333333333333
144
0.0
144
0.0
144
0.0
144
0.0
144
0.0208333333333333
144
0.0
144
0.0
144
0.0
144
0.0
144
1.0
144
0.0
144
0.0
144
0.0
144
0.0
144
1.0
147
0.0208333333333333
147
0.0
147
0.0
147
0.0
147
0.0
147
0.0208333333333333
147
0.0
147
0.0
147
0.0
147
0.0
147
1.0
147
0.0
147
0.0
147
0.0
147
0.0
147
1.0
  0
MATERIAL
  5
11
102
{ACAD_XDICTIONARY
360
12
102
}
102
{ACAD_REACTORS
330
10
102
}
330
10
100
AcDbMaterial
  1
ByLayer
 72
     0
 43
0.0208333333333333
 43
0.0
 43
0.0
 43
0.0
 43
0.0
 43
0.0208333333333333
 43
0.0
 43
0.0
 43
0.0
 43
0.0
 43
1.0
 43
0.0
 43
0.0
 43
0.0
 43
0.0
 43
1.0
 77
     0
 47
0.0208333333333333
 47
0.0
 47
0.0
 47
0.0
 47
0.0
 47
0.0208333333333333
 47
0.0
 47
0.0
 47
0.0
 47
0.0
 47
1.0
 47
0.0
 47
0.0
 47
0.0
 47
0.0
 47
1.0
171
     0
 49
0.0208333333333333
 49
0.0
 49
0.0
 49
0.0
 49
0.0
 49
0.0208333333333333
 49
0.0
 49
0.0
 49
0.0
 49
0.0
 49
1.0
 49
0.0
 49
0.0
 49
0.0
 49
0.0
 49
1.0
175
     0
142
0.0208333333333333
142
0.0
142
0.0
142
0.0
142
0.0
142
0.0208333333333333
142
0.0
142
0.0
142
0.0
142
0.0
142
1.0
142
0.0
142
0.0
142
0.0
142
0.0
142
1.0
179
     0
144
0.0208333333333333
144
0.0
144
0.0
144
0.0
144
0.0
144
0.0208333333333333
144
0.0
144
0.0
144
0.0
144
0.0
144
1.0
144
0.0
144
0.0
144
0.0
144
0.0
144
1.0
147
0.0208333333333333
147
0.0
147
0.0
147
0.0
147
0.0
147
0.0208333333333333
147
0.0
147
0.0
147
0.0
147
0.0
147
1.0
147
0.0
147
0.0
147
0.0
147
0.0
147
1.0
  0
MATERIAL
  5
21
102
{ACAD_XDICTIONARY
360
22
102
}
102
{ACAD_REACTORS
330
10
102
}
330
10
100
AcDbMaterial
  1
Global
 72
     0
 43
0.0208333333333333
 43
0.0
 43
0.0
 43
0.0
 43
0.0
 43
0.0208333333333333
 43
0.0
 43
0.0
 43
0.0
 43
0.0
 43
1.0
 43
0.0
 43
0.0
 43
0.0
 43
0.0
 43
1.0
 77
     0
 47
0.0208333333333333
 47
0.0
 47
0.0
 47
0.0
 47
0.0
 47
0.0208333333333333
 47
0.0
 47
0.0
 47
0.0
 47
0.0
 47
1.0
 47
0.0
 47
0.0
 47
0.0
 47
0.0
 47
1.0
171
     0
 49
0.0208333333333333
 49
0.0
 49
0.0
 49
0.0
 49
0.0
 49
0.0208333333333333
 49
0.0
 49
0.0
 49
0.0
 49
0.0
 49
1.0
 49
0.0
 49
0.0
 49
0.0
 49
0.0
 49
1.0
175
     0
142
0.0208333333333333
142
0.0
142
0.0
142
0.0
142
0.0
142
0.0208333333333333
142
0.0
142
0.0
142
0.0
142
0.0
142
1.0
142
0.0
142
0.0
142
0.0
142
0.0
142
1.0
179
     0
144
0.0208333333333333
144
0.0
144
0.0
144
0.0
144
0.0
144
0.0208333333333333
144
0.0
144
0.0
144
0.0
144
0.0
144
1.0
144
0.0
144
0.0
144
0.0
144
0.0
144
1.0
147
0.0208333333333333
147
0.0
147
0.0
147
0.0
147
0.0
147
0.0208333333333333
147
0.0
147
0.0
147
0.0
147
0.0
147
1.0
147
0.0
147
0.0
147
0.0
147
0.0
147
1.0
  0
MLEADERSTYLE
  5
66
102
{ACAD_REACTORS
330
65
102
}
330
65
100
AcDbMLeaderStyle
179
     2
170
     2
171
     1
172
     0
 90
        2
 40
0.0
 41
0.0
173
     1
 91
-1056964608
340
5A
 92
       -2
290
     1
 42
0.09
291
     1
 43
0.36
  3
Standard
 44
0.18
300

342
55
174
     1
178
     6
175
     1
176
     0
 93
-1056964608
 45
0.18
292
     0
297
     0
 46
0.18
 94
-1056964608
 47
1.0
 49
1.0
140
1.0
293
     1
141
0.0
294
     1
177
     0
142
1.0
295
     0
296
     0
143
0.125
271
     0
272
     9
273
     9
298
     1
  0
MLINESTYLE
  5
5F
102
{ACAD_REACTORS
330
5E
102
}
330
5E
100
AcDbMlineStyle
  2
STANDARD
 70
     0
  3

 62
   256
 51
90.0
 52
90.0
 71
     2
 49
0.5
 62
   256
  6
BYLAYER
 49
-0.5
 62
   256
  6
BYLAYER
  0
ACDBPLACEHOLDER
  5
F
102
{ACAD_REACTORS
330
E
102
}
330
E
  0
SCALE
  5
43
102
{ACAD_REACTORS
330
42
102
}
330
42
100
AcDbScale
 70
     0
300
1:1
140
1.0
141
1.0
290
     1
  0
SCALE
  5
44
102
{ACAD_REACTORS
330
42
102
}
330
42
100
AcDbScale
 70
     0
300
1/128" = 1'-0"
140
0.0078125
141
12.0
290
     0
  0
SCALE
  5
45
102
{ACAD_REACTORS
330
42
102
}
330
42
100
AcDbScale
 70
     0
300
1/64" = 1'-0"
140
0.015625
141
12.0
290
     0
  0
SCALE
  5
46
102
{ACAD_REACTORS
330
42
102
}
330
42
100
AcDbScale
 70
     0
300
1/32" = 1'-0"
140
0.03125
141
12.0
290
     0
  0
SCALE
  5
47
102
{ACAD_REACTORS
330
42
102
}
330
42
100
AcDbScale
 70
     0
300
1/16" = 1'-0"
140
0.0625
141
12.0
290
     0
  0
SCALE
  5
48
102
{ACAD_REACTORS
330
42
102
}
330
42
100
AcDbScale
 70
     0
300
3/32" = 1'-0"
140
0.09375
141
12.0
290
     0
  0
SCALE
  5
49
102
{ACAD_REACTORS
330
42
102
}
330
42
100
AcDbScale
 70
     0
300
1/8" = 1'-0"
140
0.125
141
12.0
290
     0
  0
SCALE
  5
4A
102
{ACAD_REACTORS
330
42
102
}
330
42
100
AcDbScale
 70
     0
300
3/16" = 1'-0"
140
0.1875
141
12.0
290
     0
  0
SCALE
  5
4B
102
{ACAD_REACTORS
330
42
102
}
330
42
100
AcDbScale
 70
     0
300
1/4" = 1'-0"
140
0.25
141
12.0
290
     0
  0
SCALE
  5
4C
102
{ACAD_REACTORS
330
42
102
}
330
42
100
AcDbScale
 70
     0
300
3/8" = 1'-0"
140
0.375
141
12.0
290
     0
  0
SCALE
  5
4D
102
{ACAD_REACTORS
330
42
102
}
330
42
100
AcDbScale
 70
     0
300
1/2" = 1'-0"
140
0.5
141
12.0
290
     0
  0
SCALE
  5
4E
102
{ACAD_REACTORS
330
42
102
}
330
42
100
AcDbScale
 70
     0
300
3/4" = 1'-0"
140
0.75
141
12.0
290
     0
  0
SCALE
  5
4F
102
{ACAD_REACTORS
330
42
102
}
330
42
100
AcDbScale
 70
     0
300
1" = 1'-0"
140
1.0
141
12.0
290
     0
  0
SCALE
  5
50
102
{ACAD_REACTORS
330
42
102
}
330
42
100
AcDbScale
 70
     0
300
1-1/2" = 1'-0"
140
1.5
141
12.0
290
     0
  0
SCALE
  5
51
102
{ACAD_REACTORS
330
42
102
}
330
42
100
AcDbScale
 70
     0
300
3" = 1'-0"
140
3.0
141
12.0
290
     0
  0
SCALE
  5
52
102
{ACAD_REACTORS
330
42
102
}
330
42
100
AcDbScale
 70
     0
300
6" = 1'-0"
140
6.0
141
12.0
290
     0
  0
SCALE
  5
53
102
{ACAD_REACTORS
330
42
102
}
330
42
100
AcDbScale
 70
     0
300
1'-0" = 1'-0"
140
12.0
141
12.0
290
     0
  0
ACDBSECTIONVIEWSTYLE
  5
68
102
{ACAD_XDICTIONARY
360
4B3
102
}
102
{ACAD_REACTORS
330
67
102
}
330
67
100
AcDbModelDocViewStyle
 70
     0
  3
Imperial24
290
     0
100
AcDbSectionViewStyle
 70
     0
 71
     0
 90
       78
 71
     1
340
55
 62
   256
 40
0.24
340
0
340
0
 62
   256
 40
0.24
300
I, O, Q, S, X, Z
 40
0.48
 90
        3
 40
0.18
 90
        1
 71
     2
340
5C
 90
       25
 62
   256
340
5C
 90
       50
 62
   256
 40
0.24
 40
0.0
 40
0.24
 71
     3
340
55
 62
   256
 40
0.24
 90
        1
 40
0.75
 90
        1
300
%<\AcVar ViewType \f "%tc1">% %<\AcVar ViewSectionStartId>%-%<\AcVar ViewSectionEndId>%\PVARIA %<\AcVar ViewScale \f "%sn">%
 71
     4
 62
   256
 62
   257
300
ANSI31
 40
1.0
 90
        0
290
     0
290
     0
 90
        6
 40
0.0
 40
1.570796326794896
 40
0.2617993877991494
 40
1.308996938995747
 40
-0.2617993877991494
 40
1.832595714594046
  0
TABLESTYLE
  5
64
102
{ACAD_XDICTIONARY
360
4B1
102
}
102
{ACAD_REACTORS
330
63
102
}
330
63
100
AcDbTableStyle
280
     0
  3
Standard
 70
     0
 71
     0
 40
0.06
 41
0.06
280
     0
281
     0
  7
STANDARD
140
0.18
170
     2
 62
     0
 63
     7
283
     0
 90
      512
 91
        0
  1

274
    -2
284
     1
 64
     0
275
    -2
285
     1
 65
     0
276
    -2
286
     1
 66
     0
277
    -2
287
     1
 67
     0
278
    -2
288
     1
 68
     0
279
    -2
289
     1
 69
     0
  7
STANDARD
140
0.25
170
     5
 62
     0
 63
     7
283
     0
 90
      512
 91
        0
  1

274
    -2
284
     1
 64
     0
275
    -2
285
     1
 65
     0
276
    -2
286
     1
 66
     0
277
    -2
287
     1
 67
     0
278
    -2
288
     1
 68
     0
279
    -2
289
     1
 69
     0
  7
STANDARD
140
0.18
170
     5
 62
     0
 63
     7
283
     0
 90
      512
 91
        0
  1

274
    -2
284
     1
 64
     0
275
    -2
285
     1
 65
     0
276
    -2
286
     1
 66
     0
277
    -2
287
     1
 67
     0
278
    -2
288
     1
 68
     0
279
    -2
289
     1
 69
     0
  0
VISUALSTYLE
  5
2F
102
{ACAD_REACTORS
330
29
102
}
330
29
100
AcDbVisualStyle
  2
2dWireframe
 70
     4
177
     3
291
     0
 70
    58
 90
        0
176
     1
 90
        2
176
     1
 90
        0
176
     1
 90
        0
176
     1
 40
0.6
176
     1
 40
30.0
176
     1
 62
     7
420
 16777215
176
     1
 90
        1
176
     1
 90
        4
176
     1
 62
     7
176
     1
 62
   257
176
     1
 90
        1
176
     1
 90
        1
176
     1
 40
1.0
176
     1
 90
        0
176
     1
 62
   257
176
     1
 40
1.0
176
     1
 90
        1
176
     1
 90
        6
176
     1
 90
        2
176
     1
 62
     7
176
     1
 90
        5
176
     1
 90
        0
176
     1
 90
        0
176
     1
290
     0
176
     1
 90
        1
176
     1
 40
0.0
176
     1
 90
        0
176
     1
290
     1
176
     1
290
     1
176
     1
290
     0
176
     1
290
     0
176
     1
290
     0
176
     1
290
     0
176
     1
290
     0
176
     1
290
     0
176
     1
290
     0
176
     1
 90
       50
176
     1
 40
0.0
176
     1
 40
1.0
176
     1
 90
        0
176
     1
 62
    18
420
        0
176
     1
 90
       50
176
     1
 90
        3
176
     1
 62
     5
420
      255
176
     1
290
     0
176
     1
 90
       50
176
     1
 90
       50
176
     1
 90
       50
176
     1
290
     0
176
     1
 90
       50
176
     1
 62
   256
176
     0
 40
1.0
176
     0
 90
        2
176
     1
  1
strokes_ogs.tif
176
     1
290
     0
176
     1
 40
1.0
176
     1
 40
1.0
176
     1
  0
VISUALSTYLE
  5
2E
102
{ACAD_REACTORS
330
29
102
}
330
29
100
AcDbVisualStyle
  2
Basic
 70
     7
177
     3
291
     1
 70
    58
 90
        1
176
     1
 90
        0
176
     1
 90
        1
176
     1
 90
        0
176
     1
 40
0.6
176
     1
 40
30.0
176
     1
 62
     7
420
 16777215
176
     1
 90
        0
176
     1
 90
        4
176
     1
 62
     7
176
     1
 62
   257
176
     1
 90
        1
176
     1
 90
        1
176
     1
 40
1.0
176
     1
 90
        8
176
     1
 62
     7
176
     1
 40
1.0
176
     1
 90
        1
176
     1
 90
        6
176
     1
 90
        2
176
     1
 62
     7
176
     1
 90
        5
176
     1
 90
        0
176
     1
 90
        0
176
     1
290
     0
176
     1
 90
        1
176
     1
 40
0.0
176
     1
 90
        0
176
     1
290
     0
176
     1
290
     1
176
     1
290
     1
176
     1
290
     0
176
     1
290
     0
176
     1
290
     0
176
     1
290
     0
176
     1
290
     0
176
     1
290
     0
176
     1
 90
       50
176
     1
 40
0.0
176
     1
 40
1.0
176
     1
 90
        0
176
     1
 62
    18
420
        0
176
     1
 90
       50
176
     1
 90
        3
176
     1
 62
     5
420
      255
176
     1
290
     0
176
     1
 90
       50
176
     1
 90
       50
176
     1
 90
       50
176
     1
290
     0
176
     1
 90
       50
176
     1
 62
   256
176
     0
 40
1.0
176
     0
 90
        2
176
     1
  1
strokes_ogs.tif
176
     1
290
     0
176
     1
 40
1.0
176
     1
 40
1.0
176
     1
  0
VISUALSTYLE
  5
35
102
{ACAD_REACTORS
330
29
102
}
330
29
100
AcDbVisualStyle
  2
Brighten
 70
    12
177
     3
291
     1
 70
    58
 90
        2
176
     1
 90
        2
176
     1
 90
        0
176
     1
 90
        0
176
     1
 40
0.6
176
     1
 40
30.0
176
     1
 62
     7
420
 16777215
176
     1
 90
        1
176
     1
 90
        4
176
     1
 62
     7
176
     1
 62
   257
176
     1
 90
        1
176
     1
 90
        1
176
     1
 40
1.0
176
     1
 90
        8
176
     1
 62
     7
176
     1
 40
1.0
176
     1
 90
        1
176
     1
 90
        6
176
     1
 90
        2
176
     1
 62
     7
176
     1
 90
        5
176
     1
 90
        0
176
     1
 90
        0
176
     1
290
     0
176
     1
 90
        1
176
     1
 40
50.0
176
     1
 90
        0
176
     1
290
     0
176
     1
290
     1
176
     1
290
     1
176
     1
290
     0
176
     1
290
     0
176
     1
290
     0
176
     1
290
     0
176
     1
290
     0
176
     1
290
     0
176
     1
 90
       50
176
     1
 40
0.0
176
     1
 40
1.0
176
     1
 90
        0
176
     1
 62
    18
420
        0
176
     1
 90
       50
176
     1
 90
        3
176
     1
 62
     5
420
      255
176
     1
290
     0
176
     1
 90
       50
176
     1
 90
       50
176
     1
 90
       50
176
     1
290
     0
176
     1
 90
       50
176
     1
 62
   256
176
     0
 40
1.0
176
     0
 90
        2
176
     1
  1
strokes_ogs.tif
176
     1
290
     0
176
     1
 40
1.0
176
     1
 40
1.0
176
     1
  0
VISUALSTYLE
  5
39
102
{ACAD_REACTORS
330
29
102
}
330
29
100
AcDbVisualStyle
  2
ColorChange
 70
    16
177
     3
291
     1
 70
    58
 90
        2
176
     1
 90
        2
176
     1
 90
        3
176
     1
 90
        0
176
     1
 40
0.6
176
     1
 40
30.0
176
     1
 62
     8
420
  8421504
176
     1
 90
        1
176
     1
 90
        4
176
     1
 62
     7
176
     1
 62
   257
176
     1
 90
        1
176
     1
 90
        1
176
     1
 40
1.0
176
     1
 90
        8
176
     1
 62
     8
420
  8421504
176
     1
 40
1.0
176
     1
 90
        1
176
     1
 90
        6
176
     1
 90
        2
176
     1
 62
     7
176
     1
 90
        5
176
     1
 90
        0
176
     1
 90
        0
176
     1
290
     0
176
     1
 90
        1
176
     1
 40
0.0
176
     1
 90
        0
176
     1
290
     0
176
     1
290
     1
176
     1
290
     1
176
     1
290
     0
176
     1
290
     0
176
     1
290
     0
176
     1
290
     0
176
     1
290
     0
176
     1
290
     0
176
     1
 90
       50
176
     1
 40
0.0
176
     1
 40
1.0
176
     1
 90
        0
176
     1
 62
    18
420
        0
176
     1
 90
       50
176
     1
 90
        3
176
     1
 62
     5
420
      255
176
     1
290
     0
176
     1
 90
       50
176
     1
 90
       50
176
     1
 90
       50
176
     1
290
     0
176
     1
 90
       50
176
     1
 62
   256
176
     0
 40
1.0
176
     0
 90
        2
176
     1
  1
strokes_ogs.tif
176
     1
290
     0
176
     1
 40
1.0
176
     1
 40
1.0
176
     1
  0
VISUALSTYLE
  5
32
102
{ACAD_REACTORS
330
29
102
}
330
29
100
AcDbVisualStyle
  2
Conceptual
 70
     9
177
     3
291
     0
 70
    58
 90
        3
176
     1
 90
        2
176
     1
 90
        0
176
     1
 90
        0
176
     1
 40
0.6
176
     1
 40
30.0
176
     1
 62
     7
420
 16777215
176
     1
 90
        2
176
     1
 90
        2
176
     1
 62
     7
176
     1
 62
   257
176
     1
 90
        1
176
     1
 90
        1
176
     1
 40
179.0
176
     1
 90
        8
176
     1
 62
     7
176
     1
 40
1.0
176
     1
 90
        1
176
     1
 90
        6
176
     1
 90
        2
176
     1
 62
     7
176
     1
 90
        3
176
     1
 90
        0
176
     1
 90
        0
176
     1
290
     0
176
     1
 90
        1
176
     1
 40
0.0
176
     1
 90
        0
176
     1
290
     0
176
     1
290
     1
176
     1
290
     1
176
     1
290
     0
176
     1
290
     0
176
     1
290
     0
176
     1
290
     0
176
     1
290
     0
176
     1
290
     0
176
     1
 90
       50
176
     1
 40
0.0
176
     1
 40
1.0
176
     1
 90
        0
176
     1
 62
    18
420
        0
176
     1
 90
       50
176
     1
 90
        3
176
     1
 62
     5
420
      255
176
     1
290
     0
176
     1
 90
       50
176
     1
 90
       50
176
     1
 90
       50
176
     1
290
     0
176
     1
 90
       50
176
     1
 62
   256
176
     0
 40
1.0
176
     0
 90
        2
176
     1
  1
strokes_ogs.tif
176
     1
290
     0
176
     1
 40
1.0
176
     1
 40
1.0
176
     1
  0
VISUALSTYLE
  5
34
102
{ACAD_REACTORS
330
29
102
}
330
29
100
AcDbVisualStyle
  2
Dim
 70
    11
177
     3
291
     1
 70
    58
 90
        2
176
     1
 90
        2
176
     1
 90
        0
176
     1
 90
        0
176
     1
 40
0.6
176
     1
 40
30.0
176
     1
 62
     7
420
 16777215
176
     1
 90
        1
176
     1
 90
        4
176
     1
 62
     7
176
     1
 62
   257
176
     1
 90
        1
176
     1
 90
        1
176
     1
 40
1.0
176
     1
 90
        8
176
     1
 62
     7
176
     1
 40
1.0
176
     1
 90
        1
176
     1
 90
        6
176
     1
 90
        2
176
     1
 62
     7
176
     1
 90
        5
176
     1
 90
        0
176
     1
 90
        0
176
     1
290
     0
176
     1
 90
        1
176
     1
 40
-50.0
176
     1
 90
        0
176
     1
290
     0
176
     1
290
     1
176
     1
290
     1
176
     1
290
     0
176
     1
290
     0
176
     1
290
     0
176
     1
290
     0
176
     1
290
     0
176
     1
290
     0
176
     1
 90
       50
176
     1
 40
0.0
176
     1
 40
1.0
176
     1
 90
        0
176
     1
 62
    18
420
        0
176
     1
 90
       50
176
     1
 90
        3
176
     1
 62
     5
420
      255
176
     1
290
     0
176
     1
 90
       50
176
     1
 90
       50
176
     1
 90
       50
176
     1
290
     0
176
     1
 90
       50
176
     1
 62
   256
176
     0
 40
1.0
176
     0
 90
        2
176
     1
  1
strokes_ogs.tif
176
     1
290
     0
176
     1
 40
1.0
176
     1
 40
1.0
176
     1
  0
VISUALSTYLE
  5
41
102
{ACAD_REACTORS
330
29
102
}
330
29
100
AcDbVisualStyle
  2
EdgeColorOff
 70
    22
177
     3
291
     1
 70
    58
 90
        2
176
     0
 90
        2
176
     0
 90
        0
176
     0
 90
        0
176
     0
 40
0.6
176
     0
 40
30.0
176
     0
 62
     7
420
 16777215
176
     0
 90
        1
176
     0
 90
        4
176
     0
 62
     7
176
     0
 62
   257
176
     0
 90
        1
176
     0
 90
        1
176
     0
 40
1.0
176
     0
 90
        8
176
     2
 62
     7
176
     0
 40
1.0
176
     0
 90
        1
176
     0
 90
        6
176
     0
 90
        2
176
     0
 62
     7
176
     0
 90
        5
176
     0
 90
        0
176
     0
 90
        0
176
     0
290
     0
176
     0
 90
        1
176
     0
 40
0.0
176
     0
 90
        0
176
     0
290
     0
176
     0
290
     1
176
     0
290
     1
176
     0
290
     0
176
     0
290
     0
176
     0
290
     0
176
     0
290
     0
176
     0
290
     0
176
     0
290
     0
176
     0
 90
       50
176
     0
 40
0.0
176
     0
 40
1.0
176
     0
 90
        0
176
     0
 62
    18
420
        0
176
     0
 90
       50
176
     0
 90
        3
176
     0
 62
     5
420
      255
176
     0
290
     0
176
     0
 90
       50
176
     0
 90
       50
176
     0
 90
       50
176
     0
290
     0
176
     0
 90
       50
176
     0
 62
   256
176
     0
 40
1.0
176
     0
 90
        2
176
     0
  1
strokes_ogs.tif
176
     0
290
     0
176
     0
 40
1.0
176
     0
 40
1.0
176
     0
  0
VISUALSTYLE
  5
38
102
{ACAD_REACTORS
330
29
102
}
330
29
100
AcDbVisualStyle
  2
Facepattern
 70
    15
177
     3
291
     1
 70
    58
 90
        2
176
     1
 90
        2
176
     1
 90
        0
176
     1
 90
        0
176
     1
 40
0.6
176
     1
 40
30.0
176
     1
 62
     7
420
 16777215
176
     1
 90
        1
176
     1
 90
        4
176
     1
 62
     7
176
     1
 62
   257
176
     1
 90
        1
176
     1
 90
        1
176
     1
 40
1.0
176
     1
 90
        8
176
     1
 62
     7
176
     1
 40
1.0
176
     1
 90
        1
176
     1
 90
        6
176
     1
 90
        2
176
     1
 62
     7
176
     1
 90
        5
176
     1
 90
        0
176
     1
 90
        0
176
     1
290
     0
176
     1
 90
        1
176
     1
 40
0.0
176
     1
 90
        0
176
     1
290
     0
176
     1
290
     1
176
     1
290
     1
176
     1
290
     0
176
     1
290
     0
176
     1
290
     0
176
     1
290
     0
176
     1
290
     0
176
     1
290
     0
176
     1
 90
       50
176
     1
 40
0.0
176
     1
 40
1.0
176
     1
 90
        0
176
     1
 62
    18
420
        0
176
     1
 90
       50
176
     1
 90
        3
176
     1
 62
     5
420
      255
176
     1
290
     0
176
     1
 90
       50
176
     1
 90
       50
176
     1
 90
       50
176
     1
290
     0
176
     1
 90
       50
176
     1
 62
   256
176
     0
 40
1.0
176
     0
 90
        2
176
     1
  1
strokes_ogs.tif
176
     1
290
     0
176
     1
 40
1.0
176
     1
 40
1.0
176
     1
  0
VISUALSTYLE
  5
2A
102
{ACAD_REACTORS
330
29
102
}
330
29
100
AcDbVisualStyle
  2
Flat
 70
     0
177
     3
291
     1
 70
    58
 90
        2
176
     1
 90
        1
176
     1
 90
        1
176
     1
 90
        2
176
     1
 40
0.6
176
     1
 40
30.0
176
     1
 62
     7
420
 16777215
176
     1
 90
        0
176
     1
 90
        0
176
     1
 62
     7
176
     1
 62
   257
176
     1
 90
        1
176
     1
 90
        1
176
     1
 40
1.0
176
     1
 90
        8
176
     1
 62
     7
176
     1
 40
1.0
176
     1
 90
        1
176
     1
 90
        6
176
     1
 90
        2
176
     1
 62
     7
176
     1
 90
        5
176
     1
 90
        0
176
     1
 90
        0
176
     1
290
     0
176
     1
 90
       13
176
     1
 40
0.0
176
     1
 90
        0
176
     1
290
     0
176
     1
290
     1
176
     1
290
     1
176
     1
290
     0
176
     1
290
     0
176
     1
290
     0
176
     1
290
     0
176
     1
290
     0
176
     1
290
     0
176
     1
 90
       50
176
     1
 40
0.0
176
     1
 40
1.0
176
     1
 90
        0
176
     1
 62
    18
420
        0
176
     1
 90
       50
176
     1
 90
        3
176
     1
 62
     5
420
      255
176
     1
290
     0
176
     1
 90
       50
176
     1
 90
       50
176
     1
 90
       50
176
     1
290
     0
176
     1
 90
       50
176
     1
 62
   256
176
     0
 40
1.0
176
     0
 90
        2
176
     1
  1
strokes_ogs.tif
176
     1
290
     0
176
     1
 40
1.0
176
     1
 40
1.0
176
     1
  0
VISUALSTYLE
  5
2B
102
{ACAD_REACTORS
330
29
102
}
330
29
100
AcDbVisualStyle
  2
FlatWithEdges
 70
     1
177
     3
291
     1
 70
    58
 90
        2
176
     1
 90
        1
176
     1
 90
        1
176
     1
 90
        2
176
     1
 40
0.6
176
     1
 40
30.0
176
     1
 62
     7
420
 16777215
176
     1
 90
        1
176
     1
 90
        0
176
     1
 62
     7
176
     1
 62
   257
176
     1
 90
        1
176
     1
 90
        1
176
     1
 40
1.0
176
     1
 90
        0
176
     1
 62
   257
176
     1
 40
1.0
176
     1
 90
        1
176
     1
 90
        6
176
     1
 90
        2
176
     1
 62
     7
176
     1
 90
        5
176
     1
 90
        0
176
     1
 90
        0
176
     1
290
     0
176
     1
 90
       13
176
     1
 40
0.0
176
     1
 90
        0
176
     1
290
     0
176
     1
290
     1
176
     1
290
     1
176
     1
290
     0
176
     1
290
     0
176
     1
290
     0
176
     1
290
     0
176
     1
290
     0
176
     1
290
     0
176
     1
 90
       50
176
     1
 40
0.0
176
     1
 40
1.0
176
     1
 90
        0
176
     1
 62
    18
420
        0
176
     1
 90
       50
176
     1
 90
        3
176
     1
 62
     5
420
      255
176
     1
290
     0
176
     1
 90
       50
176
     1
 90
       50
176
     1
 90
       50
176
     1
290
     0
176
     1
 90
       50
176
     1
 62
   256
176
     0
 40
1.0
176
     0
 90
        2
176
     1
  1
strokes_ogs.tif
176
     1
290
     0
176
     1
 40
1.0
176
     1
 40
1.0
176
     1
  0
VISUALSTYLE
  5
2C
102
{ACAD_REACTORS
330
29
102
}
330
29
100
AcDbVisualStyle
  2
Gouraud
 70
     2
177
     3
291
     1
 70
    58
 90
        2
176
     1
 90
        2
176
     1
 90
        1
176
     1
 90
        2
176
     1
 40
0.6
176
     1
 40
30.0
176
     1
 62
     7
420
 16777215
176
     1
 90
        0
176
     1
 90
        0
176
     1
 62
     7
176
     1
 62
   257
176
     1
 90
        1
176
     1
 90
        1
176
     1
 40
1.0
176
     1
 90
        0
176
     1
 62
     7
176
     1
 40
1.0
176
     1
 90
        1
176
     1
 90
        6
176
     1
 90
        2
176
     1
 62
     7
176
     1
 90
        5
176
     1
 90
        0
176
     1
 90
        0
176
     1
290
     0
176
     1
 90
       13
176
     1
 40
0.0
176
     1
 90
        0
176
     1
290
     0
176
     1
290
     1
176
     1
290
     1
176
     1
290
     0
176
     1
290
     0
176
     1
290
     0
176
     1
290
     0
176
     1
290
     0
176
     1
290
     0
176
     1
 90
       50
176
     1
 40
0.0
176
     1
 40
1.0
176
     1
 90
        0
176
     1
 62
    18
420
        0
176
     1
 90
       50
176
     1
 90
        3
176
     1
 62
     5
420
      255
176
     1
290
     0
176
     1
 90
       50
176
     1
 90
       50
176
     1
 90
       50
176
     1
290
     0
176
     1
 90
       50
176
     1
 62
   256
176
     0
 40
1.0
176
     0
 90
        2
176
     1
  1
strokes_ogs.tif
176
     1
290
     0
176
     1
 40
1.0
176
     1
 40
1.0
176
     1
  0
VISUALSTYLE
  5
2D
102
{ACAD_REACTORS
330
29
102
}
330
29
100
AcDbVisualStyle
  2
GouraudWithEdges
 70
     3
177
     3
291
     1
 70
    58
 90
        2
176
     1
 90
        2
176
     1
 90
        1
176
     1
 90
        2
176
     1
 40
0.6
176
     1
 40
30.0
176
     1
 62
     7
420
 16777215
176
     1
 90
        1
176
     1
 90
        0
176
     1
 62
     7
176
     1
 62
   257
176
     1
 90
        1
176
     1
 90
        1
176
     1
 40
1.0
176
     1
 90
        0
176
     1
 62
   257
176
     1
 40
1.0
176
     1
 90
        1
176
     1
 90
        6
176
     1
 90
        2
176
     1
 62
     7
176
     1
 90
        5
176
     1
 90
        0
176
     1
 90
        0
176
     1
290
     0
176
     1
 90
       13
176
     1
 40
0.0
176
     1
 90
        0
176
     1
290
     0
176
     1
290
     1
176
     1
290
     1
176
     1
290
     0
176
     1
290
     0
176
     1
290
     0
176
     1
290
     0
176
     1
290
     0
176
     1
290
     0
176
     1
 90
       50
176
     1
 40
0.0
176
     1
 40
1.0
176
     1
 90
        0
176
     1
 62
    18
420
        0
176
     1
 90
       50
176
     1
 90
        3
176
     1
 62
     5
420
      255
176
     1
290
     0
176
     1
 90
       50
176
     1
 90
       50
176
     1
 90
       50
176
     1
290
     0
176
     1
 90
       50
176
     1
 62
   256
176
     0
 40
1.0
176
     0
 90
        2
176
     1
  1
strokes_ogs.tif
176
     1
290
     0
176
     1
 40
1.0
176
     1
 40
1.0
176
     1
  0
VISUALSTYLE
  5
31
102
{ACAD_REACTORS
330
29
102
}
330
29
100
AcDbVisualStyle
  2
Hidden
 70
     6
177
     3
291
     0
 70
    58
 90
        1
176
     1
 90
        2
176
     1
 90
        2
176
     1
 90
        0
176
     1
 40
0.6
176
     1
 40
30.0
176
     1
 62
     7
420
 16777215
176
     1
 90
        2
176
     1
 90
        2
176
     1
 62
     7
176
     1
 62
   257
176
     1
 90
        2
176
     1
 90
        1
176
     1
 40
40.0
176
     1
 90
        0
176
     1
 62
   257
176
     1
 40
1.0
176
     1
 90
        1
176
     1
 90
        6
176
     1
 90
        2
176
     1
 62
     7
176
     1
 90
        3
176
     1
 90
        0
176
     1
 90
        0
176
     1
290
     0
176
     1
 90
        1
176
     1
 40
0.0
176
     1
 90
        0
176
     1
290
     0
176
     1
290
     1
176
     1
290
     1
176
     1
290
     0
176
     1
290
     0
176
     1
290
     0
176
     1
290
     0
176
     1
290
     0
176
     1
290
     0
176
     1
 90
       50
176
     1
 40
0.0
176
     1
 40
1.0
176
     1
 90
        0
176
     1
 62
    18
420
        0
176
     1
 90
       50
176
     1
 90
        3
176
     1
 62
     5
420
      255
176
     1
290
     0
176
     1
 90
       50
176
     1
 90
       50
176
     1
 90
       50
176
     1
290
     0
176
     1
 90
       50
176
     1
 62
   256
176
     0
 40
1.0
176
     0
 90
        2
176
     1
  1
strokes_ogs.tif
176
     1
290
     0
176
     1
 40
1.0
176
     1
 40
1.0
176
     1
  0
VISUALSTYLE
  5
3F
102
{ACAD_REACTORS
330
29
102
}
330
29
100
AcDbVisualStyle
  2
JitterOff
 70
    20
177
     3
291
     1
 70
    58
 90
        2
176
     0
 90
        2
176
     0
 90
        0
176
     0
 90
        0
176
     0
 40
0.6
176
     0
 40
30.0
176
     0
 62
     7
420
 16777215
176
     0
 90
        1
176
     0
 90
        4
176
     0
 62
     7
176
     0
 62
   257
176
     0
 90
        1
176
     0
 90
        1
176
     0
 40
1.0
176
     0
 90
       10
176
     2
 62
     7
176
     0
 40
1.0
176
     0
 90
        1
176
     0
 90
        6
176
     0
 90
        2
176
     0
 62
     7
176
     0
 90
        5
176
     0
 90
        0
176
     0
 90
        0
176
     0
290
     0
176
     0
 90
        1
176
     0
 40
0.0
176
     0
 90
        0
176
     0
290
     0
176
     0
290
     1
176
     0
290
     1
176
     0
290
     0
176
     0
290
     0
176
     0
290
     0
176
     0
290
     0
176
     0
290
     0
176
     0
290
     0
176
     0
 90
       50
176
     0
 40
0.0
176
     0
 40
1.0
176
     0
 90
        0
176
     0
 62
    18
420
        0
176
     0
 90
       50
176
     0
 90
        3
176
     0
 62
     5
420
      255
176
     0
290
     0
176
     0
 90
       50
176
     0
 90
       50
176
     0
 90
       50
176
     0
290
     0
176
     0
 90
       50
176
     0
 62
   256
176
     0
 40
1.0
176
     0
 90
        2
176
     0
  1
strokes_ogs.tif
176
     0
290
     0
176
     0
 40
1.0
176
     0
 40
1.0
176
     0
  0
VISUALSTYLE
  5
37
102
{ACAD_REACTORS
330
29
102
}
330
29
100
AcDbVisualStyle
  2
Linepattern
 70
    14
177
     3
291
     1
 70
    58
 90
        2
176
     1
 90
        2
176
     1
 90
        0
176
     1
 90
        0
176
     1
 40
0.6
176
     1
 40
30.0
176
     1
 62
     7
420
 16777215
176
     1
 90
        1
176
     1
 90
        4
176
     1
 62
     7
176
     1
 62
   257
176
     1
 90
        7
176
     1
 90
        7
176
     1
 40
1.0
176
     1
 90
        8
176
     1
 62
     7
176
     1
 40
1.0
176
     1
 90
        1
176
     1
 90
        6
176
     1
 90
        2
176
     1
 62
     7
176
     1
 90
        5
176
     1
 90
        0
176
     1
 90
        0
176
     1
290
     0
176
     1
 90
        1
176
     1
 40
0.0
176
     1
 90
        0
176
     1
290
     0
176
     1
290
     1
176
     1
290
     1
176
     1
290
     0
176
     1
290
     0
176
     1
290
     0
176
     1
290
     0
176
     1
290
     0
176
     1
290
     0
176
     1
 90
       50
176
     1
 40
0.0
176
     1
 40
1.0
176
     1
 90
        0
176
     1
 62
    18
420
        0
176
     1
 90
       50
176
     1
 90
        3
176
     1
 62
     5
420
      255
176
     1
290
     0
176
     1
 90
       50
176
     1
 90
       50
176
     1
 90
       50
176
     1
290
     0
176
     1
 90
       50
176
     1
 62
   256
176
     0
 40
1.0
176
     0
 90
        2
176
     1
  1
strokes_ogs.tif
176
     1
290
     0
176
     1
 40
1.0
176
     1
 40
1.0
176
     1
  0
VISUALSTYLE
  5
40
102
{ACAD_REACTORS
330
29
102
}
330
29
100
AcDbVisualStyle
  2
OverhangOff
 70
    21
177
     3
291
     1
 70
    58
 90
        2
176
     0
 90
        2
176
     0
 90
        0
176
     0
 90
        0
176
     0
 40
0.6
176
     0
 40
30.0
176
     0
 62
     7
420
 16777215
176
     0
 90
        1
176
     0
 90
        4
176
     0
 62
     7
176
     0
 62
   257
176
     0
 90
        1
176
     0
 90
        1
176
     0
 40
1.0
176
     0
 90
        9
176
     2
 62
     7
176
     0
 40
1.0
176
     0
 90
        1
176
     0
 90
        6
176
     0
 90
        2
176
     0
 62
     7
176
     0
 90
        5
176
     0
 90
        0
176
     0
 90
        0
176
     0
290
     0
176
     0
 90
        1
176
     0
 40
0.0
176
     0
 90
        0
176
     0
290
     0
176
     0
290
     1
176
     0
290
     1
176
     0
290
     0
176
     0
290
     0
176
     0
290
     0
176
     0
290
     0
176
     0
290
     0
176
     0
290
     0
176
     0
 90
       50
176
     0
 40
0.0
176
     0
 40
1.0
176
     0
 90
        0
176
     0
 62
    18
420
        0
176
     0
 90
       50
176
     0
 90
        3
176
     0
 62
     5
420
      255
176
     0
290
     0
176
     0
 90
       50
176
     0
 90
       50
176
     0
 90
       50
176
     0
290
     0
176
     0
 90
       50
176
     0
 62
   256
176
     0
 40
1.0
176
     0
 90
        2
176
     0
  1
strokes_ogs.tif
176
     0
290
     0
176
     0
 40
1.0
176
     0
 40
1.0
176
     0
  0
VISUALSTYLE
  5
33
102
{ACAD_REACTORS
330
29
102
}
330
29
100
AcDbVisualStyle
  2
Realistic
 70
     8
177
     3
291
     0
 70
    58
 90
        2
176
     1
 90
        3
176
     1
 90
        0
176
     1
 90
        2
176
     1
 40
0.6
176
     1
 40
30.0
176
     1
 62
     7
420
 16777215
176
     1
 90
        0
176
     1
 90
        0
176
     1
 62
     7
176
     1
 62
   257
176
     1
 90
        1
176
     1
 90
        1
176
     1
 40
1.0
176
     1
 90
        8
176
     1
 62
   257
176
     1
 40
1.0
176
     1
 90
        1
176
     1
 90
        6
176
     1
 90
        2
176
     1
 62
     7
176
     1
 90
        3
176
     1
 90
        0
176
     1
 90
        0
176
     1
290
     0
176
     1
 90
       13
176
     1
 40
0.0
176
     1
 90
        0
176
     1
290
     0
176
     1
290
     1
176
     1
290
     1
176
     1
290
     0
176
     1
290
     0
176
     1
290
     0
176
     1
290
     0
176
     1
290
     0
176
     1
290
     0
176
     1
 90
       50
176
     1
 40
0.0
176
     1
 40
1.0
176
     1
 90
        0
176
     1
 62
    18
420
        0
176
     1
 90
       50
176
     1
 90
        3
176
     1
 62
     5
420
      255
176
     1
290
     0
176
     1
 90
       50
176
     1
 90
       50
176
     1
 90
       50
176
     1
290
     0
176
     1
 90
       50
176
     1
 62
   256
176
     0
 40
1.0
176
     0
 90
        2
176
     1
  1
strokes_ogs.tif
176
     1
290
     0
176
     1
 40
1.0
176
     1
 40
1.0
176
     1
  0
VISUALSTYLE
  5
3E
102
{ACAD_REACTORS
330
29
102
}
330
29
100
AcDbVisualStyle
  2
Shaded
 70
    27
177
     3
291
     0
 70
    58
 90
        2
176
     1
 90
        2
176
     1
 90
        1
176
     1
 90
        2
176
     1
 40
0.6
176
     1
 40
30.0
176
     1
 62
     7
420
 16777215
176
     1
 90
        0
176
     1
 90
        4
176
     1
 62
     7
176
     1
 62
   257
176
     1
 90
        1
176
     1
 90
        1
176
     1
 40
1.0
176
     1
 90
        8
176
     1
 62
   257
176
     1
 40
1.0
176
     1
 90
        1
176
     1
 90
        6
176
     1
 90
        2
176
     1
 62
     8
420
  7895160
176
     1
 90
        3
176
     1
 90
        0
176
     1
 90
        0
176
     1
290
     0
176
     1
 90
        5
176
     1
 40
0.0
176
     1
 90
        0
176
     1
290
     0
176
     1
290
     1
176
     1
290
     1
176
     1
290
     0
176
     1
290
     0
176
     1
290
     0
176
     1
290
     0
176
     1
290
     0
176
     1
290
     0
176
     1
 90
       50
176
     1
 40
0.0
176
     1
 40
1.0
176
     1
 90
        0
176
     1
 62
    18
420
        0
176
     1
 90
       50
176
     1
 90
        3
176
     1
 62
     5
420
      255
176
     1
290
     0
176
     1
 90
       50
176
     1
 90
       50
176
     1
 90
       50
176
     1
290
     0
176
     1
 90
       50
176
     1
 62
   256
176
     0
 40
1.0
176
     0
 90
        2
176
     1
  1
strokes_ogs.tif
176
     1
290
     0
176
     1
 40
1.0
176
     1
 40
1.0
176
     1
  0
VISUALSTYLE
  5
3D
102
{ACAD_REACTORS
330
29
102
}
330
29
100
AcDbVisualStyle
  2
Shaded with edges
 70
    26
177
     3
291
     0
 70
    58
 90
        2
176
     1
 90
        2
176
     1
 90
        1
176
     1
 90
        2
176
     1
 40
0.6
176
     1
 40
30.0
176
     1
 62
     7
420
 16777215
176
     1
 90
        1
176
     1
 90
       10
176
     1
 62
     7
176
     1
 62
   257
176
     1
 90
        2
176
     1
 90
        1
176
     1
 40
1.0
176
     1
 90
        8
176
     1
 62
   257
176
     1
 40
1.0
176
     1
 90
        1
176
     1
 90
        6
176
     1
 90
        2
176
     1
 62
     7
176
     1
 90
        3
176
     1
 90
        0
176
     1
 90
        0
176
     1
290
     0
176
     1
 90
        5
176
     1
 40
0.0
176
     1
 90
        0
176
     1
290
     0
176
     1
290
     1
176
     1
290
     1
176
     1
290
     0
176
     1
290
     0
176
     1
290
     0
176
     1
290
     0
176
     1
290
     0
176
     1
290
     0
176
     1
 90
       50
176
     1
 40
0.0
176
     1
 40
1.0
176
     1
 90
        0
176
     1
 62
    18
420
        0
176
     1
 90
       50
176
     1
 90
        3
176
     1
 62
     5
420
      255
176
     1
290
     0
176
     1
 90
       50
176
     1
 90
       50
176
     1
 90
       50
176
     1
290
     0
176
     1
 90
       50
176
     1
 62
   256
176
     0
 40
1.0
176
     0
 90
        2
176
     1
  1
strokes_ogs.tif
176
     1
290
     0
176
     1
 40
1.0
176
     1
 40
1.0
176
     1
  0
VISUALSTYLE
  5
3A
102
{ACAD_REACTORS
330
29
102
}
330
29
100
AcDbVisualStyle
  2
Shades of Gray
 70
    23
177
     3
291
     0
 70
    58
 90
        2
176
     1
 90
        2
176
     1
 90
        3
176
     1
 90
        0
176
     1
 40
0.6
176
     1
 40
30.0
176
     1
 62
     7
420
 16777215
176
     1
 90
        2
176
     1
 90
        2
176
     1
 62
     7
176
     1
 62
     7
176
     1
 90
        1
176
     1
 90
        1
176
     1
 40
40.0
176
     1
 90
        8
176
     1
 62
     7
176
     1
 40
1.0
176
     1
 90
        1
176
     1
 90
        6
176
     1
 90
        2
176
     1
 62
     7
176
     1
 90
        3
176
     1
 90
        0
176
     1
 90
        0
176
     1
290
     0
176
     1
 90
        1
176
     1
 40
0.0
176
     1
 90
        0
176
     1
290
     0
176
     1
290
     1
176
     1
290
     1
176
     1
290
     0
176
     1
290
     0
176
     1
290
     0
176
     1
290
     0
176
     1
290
     0
176
     1
290
     0
176
     1
 90
       50
176
     1
 40
0.0
176
     1
 40
1.0
176
     1
 90
        0
176
     1
 62
    18
420
        0
176
     1
 90
       50
176
     1
 90
        3
176
     1
 62
     5
420
      255
176
     1
290
     0
176
     1
 90
       50
176
     1
 90
       50
176
     1
 90
       50
176
     1
290
     0
176
     1
 90
       50
176
     1
 62
   256
176
     0
 40
1.0
176
     0
 90
        2
176
     1
  1
strokes_ogs.tif
176
     1
290
     0
176
     1
 40
1.0
176
     1
 40
1.0
176
     1
  0
VISUALSTYLE
  5
3B
102
{ACAD_REACTORS
330
29
102
}
330
29
100
AcDbVisualStyle
  2
Sketchy
 70
    24
177
     3
291
     0
 70
    58
 90
        1
176
     1
 90
        2
176
     1
 90
        2
176
     1
 90
        0
176
     1
 40
0.6
176
     1
 40
30.0
176
     1
 62
     7
420
 16777215
176
     1
 90
        2
176
     1
 90
        2
176
     1
 62
     7
176
     1
 62
     7
176
     1
 90
        1
176
     1
 90
        1
176
     1
 40
40.0
176
     1
 90
       11
176
     1
 62
     7
176
     1
 40
1.0
176
     1
 90
        1
176
     1
 90
        6
176
     1
 90
        2
176
     1
 62
     7
176
     1
 90
        6
176
     1
 90
        0
176
     1
 90
        0
176
     1
290
     0
176
     1
 90
        1
176
     1
 40
0.0
176
     1
 90
        0
176
     1
290
     0
176
     1
290
     1
176
     1
290
     1
176
     1
290
     0
176
     1
290
     0
176
     1
290
     0
176
     1
290
     0
176
     1
290
     0
176
     1
290
     0
176
     1
 90
       50
176
     1
 40
0.0
176
     1
 40
1.0
176
     1
 90
        0
176
     1
 62
    18
420
        0
176
     1
 90
       50
176
     1
 90
        3
176
     1
 62
     5
420
      255
176
     1
290
     0
176
     1
 90
       50
176
     1
 90
       50
176
     1
 90
       50
176
     1
290
     0
176
     1
 90
       50
176
     1
 62
   256
176
     0
 40
1.0
176
     0
 90
        2
176
     1
  1
strokes_ogs.tif
176
     1
290
     0
176
     1
 40
1.0
176
     1
 40
1.0
176
     1
  0
VISUALSTYLE
  5
36
102
{ACAD_REACTORS
330
29
102
}
330
29
100
AcDbVisualStyle
  2
Thicken
 70
    13
177
     3
291
     1
 70
    58
 90
        2
176
     1
 90
        2
176
     1
 90
        0
176
     1
 90
        0
176
     1
 40
0.6
176
     1
 40
30.0
176
     1
 62
     7
420
 16777215
176
     1
 90
        1
176
     1
 90
        4
176
     1
 62
     7
176
     1
 62
   257
176
     1
 90
        1
176
     1
 90
        1
176
     1
 40
1.0
176
     1
 90
       12
176
     1
 62
     7
176
     1
 40
1.0
176
     1
 90
        1
176
     1
 90
        6
176
     1
 90
        2
176
     1
 62
     7
176
     1
 90
        5
176
     1
 90
        0
176
     1
 90
        0
176
     1
290
     0
176
     1
 90
        1
176
     1
 40
0.0
176
     1
 90
        0
176
     1
290
     0
176
     1
290
     1
176
     1
290
     1
176
     1
290
     0
176
     1
290
     0
176
     1
290
     0
176
     1
290
     0
176
     1
290
     0
176
     1
290
     0
176
     1
 90
       50
176
     1
 40
0.0
176
     1
 40
1.0
176
     1
 90
        0
176
     1
 62
    18
420
        0
176
     1
 90
       50
176
     1
 90
        3
176
     1
 62
     5
420
      255
176
     1
290
     0
176
     1
 90
       50
176
     1
 90
       50
176
     1
 90
       50
176
     1
290
     0
176
     1
 90
       50
176
     1
 62
   256
176
     0
 40
1.0
176
     0
 90
        2
176
     1
  1
strokes_ogs.tif
176
     1
290
     0
176
     1
 40
1.0
176
     1
 40
1.0
176
     1
  0
VISUALSTYLE
  5
30
102
{ACAD_REACTORS
330
29
102
}
330
29
100
AcDbVisualStyle
  2
Wireframe
 70
     5
177
     3
291
     0
 70
    58
 90
        0
176
     1
 90
        2
176
     1
 90
        0
176
     1
 90
        0
176
     1
 40
0.6
176
     1
 40
30.0
176
     1
 62
     7
420
 16777215
176
     1
 90
        1
176
     1
 90
        4
176
     1
 62
     7
176
     1
 62
   257
176
     1
 90
        1
176
     1
 90
        1
176
     1
 40
1.0
176
     1
 90
        0
176
     1
 62
   257
176
     1
 40
1.0
176
     1
 90
        1
176
     1
 90
        6
176
     1
 90
        2
176
     1
 62
     7
176
     1
 90
        3
176
     1
 90
        0
176
     1
 90
        0
176
     1
290
     0
176
     1
 90
        1
176
     1
 40
0.0
176
     1
 90
        0
176
     1
290
     0
176
     1
290
     1
176
     1
290
     1
176
     1
290
     0
176
     1
290
     0
176
     1
290
     0
176
     1
290
     0
176
     1
290
     0
176
     1
290
     0
176
     1
 90
       50
176
     1
 40
0.0
176
     1
 40
1.0
176
     1
 90
        0
176
     1
 62
    18
420
        0
176
     1
 90
       50
176
     1
 90
        3
176
     1
 62
     5
420
      255
176
     1
290
     0
176
     1
 90
       50
176
     1
 90
       50
176
     1
 90
       50
176
     1
290
     0
176
     1
 90
       50
176
     1
 62
   256
176
     0
 40
1.0
176
     0
 90
        2
176
     1
  1
strokes_ogs.tif
176
     1
290
     0
176
     1
 40
1.0
176
     1
 40
1.0
176
     1
  0
VISUALSTYLE
  5
3C
102
{ACAD_REACTORS
330
29
102
}
330
29
100
AcDbVisualStyle
  2
X-Ray
 70
    25
177
     3
291
     0
 70
    58
 90
        2
176
     1
 90
        2
176
     1
 90
        1
176
     1
 90
        1
176
     1
 40
0.5
176
     1
 40
30.0
176
     1
 62
     7
420
 16777215
176
     1
 90
        1
176
     1
 90
        0
176
     1
 62
     7
176
     1
 62
   257
176
     1
 90
        1
176
     1
 90
        1
176
     1
 40
1.0
176
     1
 90
        8
176
     1
 62
     7
176
     1
 40
1.0
176
     1
 90
        1
176
     1
 90
        6
176
     1
 90
        2
176
     1
 62
     7
176
     1
 90
        3
176
     1
 90
        0
176
     1
 90
        0
176
     1
290
     0
176
     1
 90
       13
176
     1
 40
0.0
176
     1
 90
        0
176
     1
290
     0
176
     1
290
     1
176
     1
290
     1
176
     1
290
     0
176
     1
290
     0
176
     1
290
     0
176
     1
290
     0
176
     1
290
     0
176
     1
290
     0
176
     1
 90
       50
176
     1
 40
0.0
176
     1
 40
1.0
176
     1
 90
        0
176
     1
 62
    18
420
        0
176
     1
 90
       50
176
     1
 90
        3
176
     1
 62
     5
420
      255
176
     1
290
     0
176
     1
 90
       50
176
     1
 90
       50
176
     1
 90
       50
176
     1
290
     0
176
     1
 90
       50
176
     1
 62
   256
176
     0
 40
1.0
176
     0
 90
        2
176
     1
  1
strokes_ogs.tif
176
     1
290
     0
176
     1
 40
1.0
176
     1
 40
1.0
176
     1
  0
DICTIONARYVAR
  5
45C
102
{ACAD_REACTORS
330
457
102
}
330
457
100
DictionaryVariables
280
     0
  1
1:1
  0
DICTIONARYVAR
  5
459
102
{ACAD_REACTORS
330
457
102
}
330
457
100
DictionaryVariables
280
     0
  1
STANDARD
  0
DICTIONARYVAR
  5
458
102
{ACAD_REACTORS
330
457
102
}
330
457
100
DictionaryVariables
280
     0
  1
STANDARD
  0
DICTIONARYVAR
  5
45A
102
{ACAD_REACTORS
330
457
102
}
330
457
100
DictionaryVariables
280
     0
  1
Imperial24
  0
DICTIONARYVAR
  5
45B
102
{ACAD_REACTORS
330
457
102
}
330
457
100
DictionaryVariables
280
     0
  1
Imperial24
  0
DICTIONARY
  5
4B5
330
6A
100
AcDbDictionary
280
     1
281
     1
  3
ACAD_XREC_ROUNDTRIP
360
4B6
  0
DICTIONARY
  5
455
330
72
100
AcDbDictionary
280
     1
281
     1
  0
DICTIONARY
  5
1A
330
19
100
AcDbDictionary
280
     1
281
     1
  3
BUMPTILE
360
1C
  3
DIFFUSETILE
360
1B
  3
OPACITYTILE
360
1F
  3
REFLECTIONTILE
360
1E
  3
REFRACTIONTILE
360
20
  3
SPECULARTILE
360
1D
  0
DICTIONARY
  5
12
330
11
100
AcDbDictionary
280
     1
281
     1
  3
BUMPTILE
360
14
  3
DIFFUSETILE
360
13
  3
OPACITYTILE
360
17
  3
REFLECTIONTILE
360
16
  3
REFRACTIONTILE
360
18
  3
SPECULARTILE
360
15
  0
DICTIONARY
  5
22
330
21
100
AcDbDictionary
280
     1
281
     1
  3
BUMPTILE
360
24
  3
DIFFUSETILE
360
23
  3
OPACITYTILE
360
27
  3
REFLECTIONTILE
360
26
  3
REFRACTIONTILE
360
28
  3
SPECULARTILE
360
25
  0
DICTIONARY
  5
4B3
330
68
100
AcDbDictionary
280
     1
281
     1
  3
ACAD_XREC_ROUNDTRIP
360
4B4
  0
DICTIONARY
  5
4B1
330
64
100
AcDbDictionary
280
     1
281
     1
  3
ACAD_ROUNDTRIP_2008_TABLESTYLE_CELLSTYLEMAP
360
4B2
  0
XRECORD
  5
4B6
102
{ACAD_REACTORS
330
4B5
102
}
330
4B5
100
AcDbXrecord
280
     1
102
DISPLAYNAME
  1
Imperial24
102
FLAGS
 90
        0
  0
XRECORD
  5
1C
102
{ACAD_REACTORS
330
1A
102
}
330
1A
100
AcDbXrecord
280
     1
270
     1
271
     1
  0
XRECORD
  5
1B
102
{ACAD_REACTORS
330
1A
102
}
330
1A
100
AcDbXrecord
280
     1
270
     1
271
     1
  0
XRECORD
  5
1F
102
{ACAD_REACTORS
330
1A
102
}
330
1A
100
AcDbXrecord
280
     1
270
     1
271
     1
  0
XRECORD
  5
1E
102
{ACAD_REACTORS
330
1A
102
}
330
1A
100
AcDbXrecord
280
     1
270
     1
271
     1
  0
XRECORD
  5
20
102
{ACAD_REACTORS
330
1A
102
}
330
1A
100
AcDbXrecord
280
     1
270
     1
271
     1
  0
XRECORD
  5
1D
102
{ACAD_REACTORS
330
1A
102
}
330
1A
100
AcDbXrecord
280
     1
270
     1
271
     1
  0
XRECORD
  5
14
102
{ACAD_REACTORS
330
12
102
}
330
12
100
AcDbXrecord
280
     1
270
     1
271
     1
  0
XRECORD
  5
13
102
{ACAD_REACTORS
330
12
102
}
330
12
100
AcDbXrecord
280
     1
270
     1
271
     1
  0
XRECORD
  5
17
102
{ACAD_REACTORS
330
12
102
}
330
12
100
AcDbXrecord
280
     1
270
     1
271
     1
  0
XRECORD
  5
16
102
{ACAD_REACTORS
330
12
102
}
330
12
100
AcDbXrecord
280
     1
270
     1
271
     1
  0
XRECORD
  5
18
102
{ACAD_REACTORS
330
12
102
}
330
12
100
AcDbXrecord
280
     1
270
     1
271
     1
  0
XRECORD
  5
15
102
{ACAD_REACTORS
330
12
102
}
330
12
100
AcDbXrecord
280
     1
270
     1
271
     1
  0
XRECORD
  5
24
102
{ACAD_REACTORS
330
22
102
}
330
22
100
AcDbXrecord
280
     1
270
     1
271
     1
  0
XRECORD
  5
23
102
{ACAD_REACTORS
330
22
102
}
330
22
100
AcDbXrecord
280
     1
270
     1
271
     1
  0
XRECORD
  5
27
102
{ACAD_REACTORS
330
22
102
}
330
22
100
AcDbXrecord
280
     1
270
     1
271
     1
  0
XRECORD
  5
26
102
{ACAD_REACTORS
330
22
102
}
330
22
100
AcDbXrecord
280
     1
270
     1
271
     1
  0
XRECORD
  5
28
102
{ACAD_REACTORS
330
22
102
}
330
22
100
AcDbXrecord
280
     1
270
     1
271
     1
  0
XRECORD
  5
25
102
{ACAD_REACTORS
330
22
102
}
330
22
100
AcDbXrecord
280
     1
270
     1
271
     1
  0
XRECORD
  5
4B4
102
{ACAD_REACTORS
330
4B3
102
}
330
4B3
100
AcDbXrecord
280
     1
102
DISPLAYNAME
  1
Imperial24
102
FLAGS
 90
        0
  0
CELLSTYLEMAP
  5
4B2
102
{ACAD_REACTORS
330
4B1
102
}
330
4B1
100
AcDbCellStyleMap
 90
        3
300
CELLSTYLE
  1
TABLEFORMAT_BEGIN
 90
        5
170
     1
 91
        0
 92
    32768
 62
   257
 93
        1
300
CONTENTFORMAT
  1
CONTENTFORMAT_BEGIN
 90
        0
 91
        0
 92
      512
 93
        0
300

 40
0.0
140
1.0
 94
        5
 62
     0
340
55
144
0.25
309
CONTENTFORMAT_END
171
     0
 94
        0
309
TABLEFORMAT_END
  1
CELLSTYLE_BEGIN
 90
        1
 91
        1
300
_TITLE
309
CELLSTYLE_END
300
CELLSTYLE
  1
TABLEFORMAT_BEGIN
 90
        5
170
     1
 91
        0
 92
        0
 62
   257
 93
        1
300
CONTENTFORMAT
  1
CONTENTFORMAT_BEGIN
 90
        0
 91
        0
 92
      512
 93
        0
300

 40
0.0
140
1.0
 94
        5
 62
     0
340
55
144
0.18
309
CONTENTFORMAT_END
171
     0
 94
        0
309
TABLEFORMAT_END
  1
CELLSTYLE_BEGIN
 90
        2
 91
        1
300
_HEADER
309
CELLSTYLE_END
300
CELLSTYLE
  1
TABLEFORMAT_BEGIN
 90
        5
170
     1
 91
        0
 92
        0
 62
   257
 93
        1
300
CONTENTFORMAT
  1
CONTENTFORMAT_BEGIN
 90
        0
 91
        0
 92
      512
 93
        0
300

 40
0.0
140
1.0
 94
        2
 62
     0
340
55
144
0.18
309
CONTENTFORMAT_END
171
     0
 94
        0
309
TABLEFORMAT_END
  1
CELLSTYLE_BEGIN
 90
        3
 91
        2
300
_DATA
309
CELLSTYLE_END
  0
ENDSEC
  0
SECTION
  2
ACDSDATA
 70
     2
 71
     6
  0
ACDSSCHEMA
 90
        0
  1
AcDb_Thumbnail_Schema
  2
AcDbDs::ID
280
    10
 91
        8
  2
Thumbnail_Data
280
    15
 91
        0
101
ACDSRECORD
 95
        0
 90
        1
  2
AcDbDs::TreatedAsObjectData
280
     1
291
     1
101
ACDSRECORD
 95
        0
 90
        2
  2
AcDbDs::Legacy
280
     1
291
     1
101
ACDSRECORD
  1
AcDbDs::ID
 90
        3
  2
AcDs:Indexable
280
     1
291
     1
101
ACDSRECORD
  1
AcDbDs::ID
 90
        4
  2
AcDbDs::HandleAttribute
280
     7
282
     1
  0
ACDSSCHEMA
 90
        1
  1
AcDbDs::TreatedAsObjectDataSchema
  2
AcDbDs::TreatedAsObjectData
280
     1
 91
        0
  0
ACDSSCHEMA
 90
        2
  1
AcDbDs::LegacySchema
  2
AcDbDs::Legacy
280
     1
 91
        0
  0
ACDSSCHEMA
 90
        3
  1
AcDbDs::IndexedPropertySchema
  2
AcDs:Indexable
280
     1
 91
        0
  0
ACDSSCHEMA
 90
        4
  1
AcDbDs::HandleAttributeSchema
  2
AcDbDs::HandleAttribute
280
     7
 91
        1
284
     1
  0
ACDSRECORD
 90
        0
  2
AcDbDs::ID
280
    10
320
72
  2
Thumbnail_Data
280
    15
 94
     1514
310
89504E470D0A1A0A0000000D49484452000001000000009B0803000000BA7AB56000000300504C54455B5B5B000000C8C8C80000000000000000000000000000000000000000000000000000330000660000990000CC0000FF0033000033330033660033990033CC0033FF0066000066330066660066990066CC0066FF0099
310
000099330099660099990099CC0099FF00CC0000CC3300CC6600CC9900CCCC00CCFF00FF0000FF3300FF6600FF9900FFCC00FFFF3300003300333300663300993300CC3300FF3333003333333333663333993333CC3333FF3366003366333366663366993366CC3366FF3399003399333399663399993399CC3399FF33CC00
310
33CC3333CC6633CC9933CCCC33CCFF33FF0033FF3333FF6633FF9933FFCC33FFFF6600006600336600666600996600CC6600FF6633006633336633666633996633CC6633FF6666006666336666666666996666CC6666FF6699006699336699666699996699CC6699FF66CC0066CC3366CC6666CC9966CCCC66CCFF66FF0066
310
FF3366FF6666FF9966FFCC66FFFF9900009900339900669900999900CC9900FF9933009933339933669933999933CC9933FF9966009966339966669966999966CC9966FF9999009999339999669999999999CC9999FF99CC0099CC3399CC6699CC9999CCCC99CCFF99FF0099FF3399FF6699FF9999FFCC99FFFFCC0000CC00
310
33CC0066CC0099CC00CCCC00FFCC3300CC3333CC3366CC3399CC33CCCC33FFCC6600CC6633CC6666CC6699CC66CCCC66FFCC9900CC9933CC9966CC9999CC99CCCC99FFCCCC00CCCC33CCCC66CCCC99CCCCCCCCCCFFCCFF00CCFF33CCFF66CCFF99CCFFCCCCFFFFFF0000FF0033FF0066FF0099FF00CCFF00FFFF3300FF3333
310
FF3366FF3399FF33CCFF33FFFF6600FF6633FF6666FF6699FF66CCFF66FFFF9900FF9933FF9966FF9999FF99CCFF99FFFFCC00FFCC33FFCC66FFCC99FFCCCCFFCCFFFFFF00FFFF33FFFF66FFFF99FFFFCCFFFFFF0000000D0D0D1A1A1A2828283535354343435050505D5D5D6B6B6B787878868686939393A1A1A1AEAEAEBB
310
BBBBC9C9C9D6D6D6E4E4E4F1F1F1FFFFFF00000000000000000000000000000000000000000000000000000000000054549EDE000002A54944415478DAED9D416E833010457D9CBF99FBEF7CB626401A131B30AAAAAAF33E521754DDBC973FC3D80D508A8FDF3B640356600556E056E0105881EBC021B0022B702B7008ACC0
310
0ADC0A2CC0FC16607E0B70002C003E14E9E304A740DD094B81462724051A9F601468EE84280098003ABF03E00038000E8003E000380016607E0B30BF0598DF02EECC10FF5D009DDF0170001C000700C68F0FC0CF0498DF0212F1D75AF101B8E9206507B8A1206B07A820FE836630FC83781C10012303B11E79F9F73CF5803F
310
20FCBD81E80C6413504FCF23F606BA7E9020001F066277392408781B78A1D623015D3F4CD2025E9F796C1F706360C01FE9F8D7D5407D19288D8196BF6F87D9A6A0BAA6A03C11B750C4E0487C0D7C5247D908EB9375FBA1087852979780B5E89744140CFF2303D1F0AF5DA18002D06E8EC4410FC82EE0DD0D17DA184D43C9F9
310
DB7138DA01211DFFC9B2A60E064112FF6863201DFE4D01FAAE0704FF62A0DB060A928087817E1724571BB814D07EE409BF417589D46E8C64FC06D9045385F3BF0DD00598DF020802F66B9DE5A4A2F89BC55FD9F680D7DD118680DD72379A7198C2BF6E0196CFFDB01239BF447F4595F87FC1935401E7C707C0FC16607E0B28
310
796FA4135DC0EC03A232DF4929BA8019B8E4B7D25E9641FE5B894517708E88B8975C70FEB346809901859F01C52A8041E6859F017B29B93BE0751964BF025C960171069448FCE765C018814ECA00F930E9E6379CE7498D1B01E9795AC34620D2483031168A1702D8AAD8BB42A75B839091802EA008CE7F5806F09100F68C51
310
E1F9A5D9CA481B007208343B1967EF00D432D09DE551F62B00FE1D1BC0772D0A18FA535E915FB5F83D13085F00C2770089CD0F51707105105D40FA104C8C00125C40EA3A989C0125367F5E0577160182F3A70CC1DD55A0C4E62FD09791FDCDF105BAD59E2B327484100000000049454E44AE426082
  0
ENDSEC
  0
EOF
