  0
SECTION
  2
HEADER
  9
$ACADVER
  1
AC1027
  9
$ACADMAINTVER
 70
    55
  9
$DWGCODEPAGE
  3
ANSI_1252
  9
$LASTSAVEDBY
  1
crinne
  9
$REQUIREDVERSIONS
160
                 0
  9
$INSBASE
 10
0.0
 20
0.0
 30
0.0
  9
$EXTMIN
 10
-2.70035810323139
 20
-19.00225724526866
 30
0.0
  9
$EXTMAX
 10
-1.952322096455817
 20
-15.40304215279162
 30
0.0
  9
$LIMMIN
 10
-2600.0
 20
-2600.0
  9
$LIMMAX
 10
2000.0
 20
200.0
  9
$ORTHOMODE
 70
     0
  9
$REGENMODE
 70
     1
  9
$FILLMODE
 70
     1
  9
$QTEXTMODE
 70
     0
  9
$MIRRTEXT
 70
     1
  9
$LTSCALE
 40
25.0
  9
$ATTMODE
 70
     1
  9
$TEXTSIZE
 40
3.5
  9
$TRACEWID
 40
1.0
  9
$TEXTSTYLE
  7
STANDARD
  9
$CLAYER
  8
BEFUNDSCHRAFF
  9
$CELTYPE
  6
ByLayer
  9
$CECOLOR
 62
   256
  9
$CELTSCALE
 40
1.0
  9
$DISPSILH
 70
     0
  9
$DIMSCALE
 40
1.0
  9
$DIMASZ
 40
3.5
  9
$DIMEXO
 40
0.1
  9
$DIMDLI
 40
7.0
  9
$DIMRND
 40
0.0
  9
$DIMDLE
 40
0.0
  9
$DIMEXE
 40
1.8
  9
$DIMTP
 40
0.0
  9
$DIMTM
 40
0.0
  9
$DIMTXT
 40
3.5
  9
$DIMCEN
 40
1.5
  9
$DIMTSZ
 40
0.0
  9
$DIMTOL
 70
     0
  9
$DIMLIM
 70
     0
  9
$DIMTIH
 70
     0
  9
$DIMTOH
 70
     0
  9
$DIMSE1
 70
     0
  9
$DIMSE2
 70
     0
  9
$DIMTAD
 70
     0
  9
$DIMZIN
 70
     0
  9
$DIMBLK
  1

  9
$DIMASO
 70
     1
  9
$DIMSHO
 70
     0
  9
$DIMPOST
  1

  9
$DIMAPOST
  1

  9
$DIMALT
 70
     0
  9
$DIMALTD
 70
     2
  9
$DIMALTF
 40
25.4
  9
$DIMLFAC
 40
1.0
  9
$DIMTOFL
 70
     0
  9
$DIMTVP
 40
0.0
  9
$DIMTIX
 70
     0
  9
$DIMSOXD
 70
     0
  9
$DIMSAH
 70
     0
  9
$DIMBLK1
  1

  9
$DIMBLK2
  1

  9
$DIMSTYLE
  2
Standard
  9
$DIMCLRD
 70
     0
  9
$DIMCLRE
 70
     0
  9
$DIMCLRT
 70
     0
  9
$DIMTFAC
 40
1.0
  9
$DIMGAP
 40
0.09
  9
$DIMJUST
 70
     0
  9
$DIMSD1
 70
     0
  9
$DIMSD2
 70
     0
  9
$DIMTOLJ
 70
     1
  9
$DIMTZIN
 70
     0
  9
$DIMALTZ
 70
     0
  9
$DIMALTTZ
 70
     0
  9
$DIMUPT
 70
     0
  9
$DIMDEC
 70
     2
  9
$DIMTDEC
 70
     2
  9
$DIMALTU
 70
     2
  9
$DIMALTTD
 70
     2
  9
$DIMTXSTY
  7
STANDARD
  9
$DIMAUNIT
 70
     0
  9
$DIMADEC
 70
     0
  9
$DIMALTRND
 40
0.0
  9
$DIMAZIN
 70
     0
  9
$DIMDSEP
 70
    46
  9
$DIMATFIT
 70
     3
  9
$DIMFRAC
 70
     0
  9
$DIMLDRBLK
  1

  9
$DIMLUNIT
 70
     2
  9
$DIMLWD
 70
    -2
  9
$DIMLWE
 70
    -2
  9
$DIMTMOVE
 70
     2
  9
$DIMFXL
 40
1.0
  9
$DIMFXLON
 70
     0
  9
$DIMJOGANG
 40
0.7853981633974483
  9
$DIMTFILL
 70
     0
  9
$DIMTFILLCLR
 70
     0
  9
$DIMARCSYM
 70
     0
  9
$DIMLTYPE
  6

  9
$DIMLTEX1
  6

  9
$DIMLTEX2
  6

  9
$DIMTXTDIRECTION
 70
     0
  9
$LUNITS
 70
     2
  9
$LUPREC
 70
     2
  9
$SKETCHINC
 40
1.0
  9
$FILLETRAD
 40
0.0
  9
$AUNITS
 70
     0
  9
$AUPREC
 70
     0
  9
$MENU
  1
ACAD
  9
$ELEVATION
 40
0.0
  9
$PELEVATION
 40
0.0
  9
$THICKNESS
 40
0.0
  9
$LIMCHECK
 70
     0
  9
$CHAMFERA
 40
0.0
  9
$CHAMFERB
 40
0.0
  9
$CHAMFERC
 40
0.0
  9
$CHAMFERD
 40
0.0
  9
$SKPOLY
 70
     0
  9
$TDCREATE
 40
2450585.524350231
  9
$TDUCREATE
 40
2450585.441016898
  9
$TDUPDATE
 40
2459796.510988079
  9
$TDUUPDATE
 40
2459796.427654746
  9
$TDINDWG
 40
0.0201098148
  9
$TDUSRTIMER
 40
0.0201098148
  9
$USRTIMER
 70
     1
  9
$ANGBASE
 50
0.0
  9
$ANGDIR
 70
     0
  9
$PDMODE
 70
     0
  9
$PDSIZE
 40
0.0
  9
$PLINEWID
 40
0.0
  9
$SPLFRAME
 70
     0
  9
$SPLINETYPE
 70
     6
  9
$SPLINESEGS
 70
     8
  9
$HANDSEED
  5
494
  9
$SURFTAB1
 70
     6
  9
$SURFTAB2
 70
     6
  9
$SURFTYPE
 70
     6
  9
$SURFU
 70
     6
  9
$SURFV
 70
     6
  9
$UCSBASE
  2

  9
$UCSNAME
  2

  9
$UCSORG
 10
0.0
 20
0.0
 30
0.0
  9
$UCSXDIR
 10
1.0
 20
0.0
 30
0.0
  9
$UCSYDIR
 10
0.0
 20
1.0
 30
0.0
  9
$UCSORTHOREF
  2

  9
$UCSORTHOVIEW
 70
     0
  9
$UCSORGTOP
 10
0.0
 20
0.0
 30
0.0
  9
$UCSORGBOTTOM
 10
0.0
 20
0.0
 30
0.0
  9
$UCSORGLEFT
 10
0.0
 20
0.0
 30
0.0
  9
$UCSORGRIGHT
 10
0.0
 20
0.0
 30
0.0
  9
$UCSORGFRONT
 10
0.0
 20
0.0
 30
0.0
  9
$UCSORGBACK
 10
0.0
 20
0.0
 30
0.0
  9
$PUCSBASE
  2

  9
$PUCSNAME
  2

  9
$PUCSORG
 10
0.0
 20
0.0
 30
0.0
  9
$PUCSXDIR
 10
1.0
 20
0.0
 30
0.0
  9
$PUCSYDIR
 10
0.0
 20
1.0
 30
0.0
  9
$PUCSORTHOREF
  2

  9
$PUCSORTHOVIEW
 70
     0
  9
$PUCSORGTOP
 10
0.0
 20
0.0
 30
0.0
  9
$PUCSORGBOTTOM
 10
0.0
 20
0.0
 30
0.0
  9
$PUCSORGLEFT
 10
0.0
 20
0.0
 30
0.0
  9
$PUCSORGRIGHT
 10
0.0
 20
0.0
 30
0.0
  9
$PUCSORGFRONT
 10
0.0
 20
0.0
 30
0.0
  9
$PUCSORGBACK
 10
0.0
 20
0.0
 30
0.0
  9
$USERI1
 70
     0
  9
$USERI2
 70
     0
  9
$USERI3
 70
     0
  9
$USERI4
 70
     0
  9
$USERI5
 70
     0
  9
$USERR1
 40
0.0
  9
$USERR2
 40
0.0
  9
$USERR3
 40
0.0
  9
$USERR4
 40
0.0
  9
$USERR5
 40
0.0
  9
$WORLDVIEW
 70
     1
  9
$SHADEDGE
 70
     3
  9
$SHADEDIF
 70
    70
  9
$TILEMODE
 70
     1
  9
$MAXACTVP
 70
    16
  9
$PINSBASE
 10
0.0
 20
0.0
 30
0.0
  9
$PLIMCHECK
 70
     0
  9
$PEXTMIN
 10
1.000000000000000E+20
 20
1.000000000000000E+20
 30
1.000000000000000E+20
  9
$PEXTMAX
 10
-1.000000000000000E+20
 20
-1.000000000000000E+20
 30
-1.000000000000000E+20
  9
$PLIMMIN
 10
0.0
 20
0.0
  9
$PLIMMAX
 10
12.0
 20
9.0
  9
$UNITMODE
 70
     0
  9
$VISRETAIN
 70
     0
  9
$PLINEGEN
 70
     0
  9
$PSLTSCALE
 70
     0
  9
$TREEDEPTH
 70
  3020
  9
$CMLSTYLE
  2
Standard
  9
$CMLJUST
 70
     0
  9
$CMLSCALE
 40
1.0
  9
$PROXYGRAPHICS
 70
     1
  9
$MEASUREMENT
 70
     0
  9
$CELWEIGHT
370
    -1
  9
$ENDCAPS
280
     0
  9
$JOINSTYLE
280
     0
  9
$LWDISPLAY
290
     0
  9
$INSUNITS
 70
     6
  9
$HYPERLINKBASE
  1

  9
$STYLESHEET
  1

  9
$XEDIT
290
     1
  9
$CEPSNTYPE
380
     0
  9
$PSTYLEMODE
290
     1
  9
$FINGERPRINTGUID
  2
{886970A6-7F33-45F7-B8A0-E3341036E4A3}
  9
$VERSIONGUID
  2
{BF285199-6592-4875-A933-E04DCCFA6843}
  9
$EXTNAMES
290
     1
  9
$PSVPSCALE
 40
0.0
  9
$OLESTARTUP
290
     0
  9
$SORTENTS
280
   127
  9
$INDEXCTL
280
     0
  9
$HIDETEXT
280
     1
  9
$XCLIPFRAME
280
     2
  9
$HALOGAP
280
     0
  9
$OBSCOLOR
 70
   257
  9
$OBSLTYPE
280
     0
  9
$INTERSECTIONDISPLAY
280
     0
  9
$INTERSECTIONCOLOR
 70
   257
  9
$DIMASSOC
280
     2
  9
$PROJECTNAME
  1

  9
$CAMERADISPLAY
290
     0
  9
$LENSLENGTH
 40
50.0
  9
$CAMERAHEIGHT
 40
0.0
  9
$STEPSPERSEC
 40
2.0
  9
$STEPSIZE
 40
6.0
  9
$3DDWFPREC
 40
2.0
  9
$PSOLWIDTH
 40
0.25
  9
$PSOLHEIGHT
 40
4.0
  9
$LOFTANG1
 40
1.570796326794896
  9
$LOFTANG2
 40
1.570796326794896
  9
$LOFTMAG1
 40
0.0
  9
$LOFTMAG2
 40
0.0
  9
$LOFTPARAM
 70
     7
  9
$LOFTNORMALS
280
     1
  9
$LATITUDE
 40
37.795
  9
$LONGITUDE
 40
-122.394
  9
$NORTHDIRECTION
 40
0.0
  9
$TIMEZONE
 70
 -8000
  9
$LIGHTGLYPHDISPLAY
280
     1
  9
$TILEMODELIGHTSYNCH
280
     1
  9
$CMATERIAL
347
11
  9
$SOLIDHIST
280
     0
  9
$SHOWHIST
280
     1
  9
$DWFFRAME
280
     2
  9
$DGNFRAME
280
     0
  9
$REALWORLDSCALE
290
     1
  9
$INTERFERECOLOR
 62
     1
  9
$INTERFEREOBJVS
345
33
  9
$INTERFEREVPVS
346
30
  9
$CSHADOW
280
     0
  9
$SHADOWPLANELOCATION
 40
0.0
  0
ENDSEC
  0
SECTION
  2
CLASSES
  0
CLASS
  1
ACDBDICTIONARYWDFLT
  2
AcDbDictionaryWithDefault
  3
ObjectDBX Classes
 90
        0
 91
        1
280
     0
281
     0
  0
CLASS
  1
MATERIAL
  2
AcDbMaterial
  3
ObjectDBX Classes
 90
     1153
 91
        3
280
     0
281
     0
  0
CLASS
  1
VISUALSTYLE
  2
AcDbVisualStyle
  3
ObjectDBX Classes
 90
     4095
 91
       24
280
     0
281
     0
  0
CLASS
  1
SCALE
  2
AcDbScale
  3
ObjectDBX Classes
 90
     1153
 91
       17
280
     0
281
     0
  0
CLASS
  1
TABLESTYLE
  2
AcDbTableStyle
  3
ObjectDBX Classes
 90
     4095
 91
        1
280
     0
281
     0
  0
CLASS
  1
MLEADERSTYLE
  2
AcDbMLeaderStyle
  3
ACDB_MLEADERSTYLE_CLASS
 90
     4095
 91
        1
280
     0
281
     0
  0
CLASS
  1
ACDBSECTIONVIEWSTYLE
  2
AcDbSectionViewStyle
  3
ObjectDBX Classes
 90
     1025
 91
        1
280
     0
281
     0
  0
CLASS
  1
ACDBDETAILVIEWSTYLE
  2
AcDbDetailViewStyle
  3
ObjectDBX Classes
 90
     1025
 91
        1
280
     0
281
     0
  0
CLASS
  1
DICTIONARYVAR
  2
AcDbDictionaryVar
  3
ObjectDBX Classes
 90
        0
 91
        5
280
     0
281
     0
  0
CLASS
  1
CELLSTYLEMAP
  2
AcDbCellStyleMap
  3
ObjectDBX Classes
 90
     1152
 91
        1
280
     0
281
     0
  0
ENDSEC
  0
SECTION
  2
TABLES
  0
TABLE
  2
VPORT
  5
8
330
0
100
AcDbSymbolTable
 70
     1
  0
VPORT
  5
93
330
8
100
AcDbSymbolTableRecord
100
AcDbViewportTableRecord
  2
*ACTIVE
 70
     0
 10
0.0
 20
0.0
 11
1.0
 21
1.0
 12
-2.326340099843603
 22
-17.20264969903014
 13
0.0
 23
0.0
 14
5.0
 24
5.0
 15
100.0
 25
100.0
 16
0.0
 26
0.0
 36
1.0
 17
0.0
 27
0.0
 37
0.0
 40
3.628636469254777
 41
1.649386084583901
 42
50.0
 43
0.0
 44
0.0
 50
0.0
 51
0.0
 71
     0
 72
   100
 73
     1
 74
     0
 75
     0
 76
     1
 77
     0
 78
     0
281
     0
 65
     1
110
0.0
120
0.0
130
0.0
111
1.0
121
0.0
131
0.0
112
0.0
122
1.0
132
0.0
 79
     0
146
0.0
348
2F
 60
     3
 61
     5
292
     1
282
     0
141
0.0
142
0.0
 63
   250
421
  3355443
1001
ACAD_NAV_VCDISPLAY
1070
     3
  0
ENDTAB
  0
TABLE
  2
LTYPE
  5
5
330
0
100
AcDbSymbolTable
 70
    25
  0
LTYPE
  5
5A
330
5
100
AcDbSymbolTableRecord
100
AcDbLinetypeTableRecord
  2
ByBlock
 70
     0
  3

 72
    65
 73
     0
 40
0.0
  0
LTYPE
  5
5B
330
5
100
AcDbSymbolTableRecord
100
AcDbLinetypeTableRecord
  2
ByLayer
 70
     0
  3

 72
    65
 73
     0
 40
0.0
  0
LTYPE
  5
5C
330
5
100
AcDbSymbolTableRecord
100
AcDbLinetypeTableRecord
  2
CONTINUOUS
 70
     0
  3
Ausgezogene Linie
 72
    65
 73
     0
 40
0.0
  0
LTYPE
  5
7A
330
5
100
AcDbSymbolTableRecord
100
AcDbLinetypeTableRecord
  2
RAND
 70
     0
  3
__ __ . __ __ . __ __ . __ __ . __ __ . __ __ .
 72
    65
 73
     6
 40
1.75
 49
0.5
 74
     0
 49
-0.25
 74
     0
 49
0.5
 74
     0
 49
-0.25
 74
     0
 49
0.0
 74
     0
 49
-0.25
 74
     0
  0
LTYPE
  5
7B
330
5
100
AcDbSymbolTableRecord
100
AcDbLinetypeTableRecord
  2
RAND2
 70
     0
  3
__.__.__.__.__.__.__.__.__.__.__.__.__.__.__.__
 72
    65
 73
     6
 40
0.875
 49
0.25
 74
     0
 49
-0.125
 74
     0
 49
0.25
 74
     0
 49
-0.125
 74
     0
 49
0.0
 74
     0
 49
-0.125
 74
     0
  0
LTYPE
  5
7C
330
5
100
AcDbSymbolTableRecord
100
AcDbLinetypeTableRecord
  2
RANDX2
 70
     0
  3
____  ____  .  ____  ____  .  ____  ____  .  __
 72
    65
 73
     6
 40
3.5
 49
1.0
 74
     0
 49
-0.5
 74
     0
 49
1.0
 74
     0
 49
-0.5
 74
     0
 49
0.0
 74
     0
 49
-0.5
 74
     0
  0
LTYPE
  5
7D
330
5
100
AcDbSymbolTableRecord
100
AcDbLinetypeTableRecord
  2
MITTE
 70
     0
  3
____ _ ____ _ ____ _ ____ _ ____ _ ____ _ ____ 
 72
    65
 73
     4
 40
2.0
 49
1.25
 74
     0
 49
-0.25
 74
     0
 49
0.25
 74
     0
 49
-0.25
 74
     0
  0
LTYPE
  5
7E
330
5
100
AcDbSymbolTableRecord
100
AcDbLinetypeTableRecord
  2
MITTE2
 70
     0
  3
___ _ ___ _ ___ _ ___ _ ___ _ ___ _ ___ _ ___ _
 72
    65
 73
     4
 40
1.125
 49
0.75
 74
     0
 49
-0.125
 74
     0
 49
0.125
 74
     0
 49
-0.125
 74
     0
  0
LTYPE
  5
7F
330
5
100
AcDbSymbolTableRecord
100
AcDbLinetypeTableRecord
  2
MITTEX2
 70
     0
  3
________  __  ________  __  ________  __  _____
 72
    65
 73
     4
 40
4.0
 49
2.5
 74
     0
 49
-0.5
 74
     0
 49
0.5
 74
     0
 49
-0.5
 74
     0
  0
LTYPE
  5
80
330
5
100
AcDbSymbolTableRecord
100
AcDbLinetypeTableRecord
  2
STRICHPUNKT
 70
     0
  3
__ . __ . __ . __ . __ . __ . __ . __ . __ . __
 72
    65
 73
     4
 40
1.0
 49
0.5
 74
     0
 49
-0.25
 74
     0
 49
0.0
 74
     0
 49
-0.25
 74
     0
  0
LTYPE
  5
81
330
5
100
AcDbSymbolTableRecord
100
AcDbLinetypeTableRecord
  2
STRICHPUNKT2
 70
     0
  3
_._._._._._._._._._._._._._._._._._._._._._._._
 72
    65
 73
     4
 40
0.5
 49
0.25
 74
     0
 49
-0.125
 74
     0
 49
0.0
 74
     0
 49
-0.125
 74
     0
  0
LTYPE
  5
82
330
5
100
AcDbSymbolTableRecord
100
AcDbLinetypeTableRecord
  2
STRICHPUNKTX2
 70
     0
  3
____  .  ____  .  ____  .  ____  .  ____  .  __
 72
    65
 73
     4
 40
2.0
 49
1.0
 74
     0
 49
-0.5
 74
     0
 49
0.0
 74
     0
 49
-0.5
 74
     0
  0
LTYPE
  5
83
330
5
100
AcDbSymbolTableRecord
100
AcDbLinetypeTableRecord
  2
GESTRICHELT
 70
     0
  3
__ __ __ __ __ __ __ __ __ __ __ __ __ __ __ __
 72
    65
 73
     2
 40
0.75
 49
0.5
 74
     0
 49
-0.25
 74
     0
  0
LTYPE
  5
84
330
5
100
AcDbSymbolTableRecord
100
AcDbLinetypeTableRecord
  2
GESTRICHELT2
 70
     0
  3
_ _ _ _ _ _ _ _ _ _ _ _ _ _ _ _ _ _ _ _ _ _ _ _
 72
    65
 73
     2
 40
0.375
 49
0.25
 74
     0
 49
-0.125
 74
     0
  0
LTYPE
  5
85
330
5
100
AcDbSymbolTableRecord
100
AcDbLinetypeTableRecord
  2
GESTRICHELTX2
 70
     0
  3
____  ____  ____  ____  ____  ____  ____  ____ 
 72
    65
 73
     2
 40
1.5
 49
1.0
 74
     0
 49
-0.5
 74
     0
  0
LTYPE
  5
86
330
5
100
AcDbSymbolTableRecord
100
AcDbLinetypeTableRecord
  2
GETRENNT
 70
     0
  3
____ . . ____ . . ____ . . ____ . . ____ . . __
 72
    65
 73
     6
 40
1.25
 49
0.5
 74
     0
 49
-0.25
 74
     0
 49
0.0
 74
     0
 49
-0.25
 74
     0
 49
0.0
 74
     0
 49
-0.25
 74
     0
  0
LTYPE
  5
87
330
5
100
AcDbSymbolTableRecord
100
AcDbLinetypeTableRecord
  2
GETRENNT2
 70
     0
  3
__..__..__..__..__..__..__..__..__..__..__..__.
 72
    65
 73
     6
 40
0.625
 49
0.25
 74
     0
 49
-0.125
 74
     0
 49
0.0
 74
     0
 49
-0.125
 74
     0
 49
0.0
 74
     0
 49
-0.125
 74
     0
  0
LTYPE
  5
88
330
5
100
AcDbSymbolTableRecord
100
AcDbLinetypeTableRecord
  2
GETRENNTX2
 70
     0
  3
________  .  .  ________  .  .  ________  .  . 
 72
    65
 73
     6
 40
2.5
 49
1.0
 74
     0
 49
-0.5
 74
     0
 49
0.0
 74
     0
 49
-0.5
 74
     0
 49
0.0
 74
     0
 49
-0.5
 74
     0
  0
LTYPE
  5
89
330
5
100
AcDbSymbolTableRecord
100
AcDbLinetypeTableRecord
  2
PUNKT
 70
     0
  3
. . . . . . . . . . . . . . . . . . . . . . . .
 72
    65
 73
     2
 40
0.25
 49
0.0
 74
     0
 49
-0.25
 74
     0
  0
LTYPE
  5
8A
330
5
100
AcDbSymbolTableRecord
100
AcDbLinetypeTableRecord
  2
PUNKT2
 70
     0
  3
...............................................
 72
    65
 73
     2
 40
0.125
 49
0.0
 74
     0
 49
-0.125
 74
     0
  0
LTYPE
  5
8B
330
5
100
AcDbSymbolTableRecord
100
AcDbLinetypeTableRecord
  2
PUNKTX2
 70
     0
  3
.  .  .  .  .  .  .  .  .  .  .  .  .  .  .  . 
 72
    65
 73
     2
 40
0.5
 49
0.0
 74
     0
 49
-0.5
 74
     0
  0
LTYPE
  5
8C
330
5
100
AcDbSymbolTableRecord
100
AcDbLinetypeTableRecord
  2
VERDECKT
 70
     0
  3
__ __ __ __ __ __ __ __ __ __ __ __ __ __ __ __
 72
    65
 73
     2
 40
0.375
 49
0.25
 74
     0
 49
-0.125
 74
     0
  0
LTYPE
  5
8D
330
5
100
AcDbSymbolTableRecord
100
AcDbLinetypeTableRecord
  2
VERDECKT2
 70
     0
  3
_ _ _ _ _ _ _ _ _ _ _ _ _ _ _ _ _ _ _ _ _ _ _ _
 72
    65
 73
     2
 40
0.1875
 49
0.125
 74
     0
 49
-0.0625
 74
     0
  0
LTYPE
  5
8E
330
5
100
AcDbSymbolTableRecord
100
AcDbLinetypeTableRecord
  2
VERDECKTX2
 70
     0
  3
____ ____ ____ ____ ____ ____ ____ ____ ____ __
 72
    65
 73
     2
 40
0.75
 49
0.5
 74
     0
 49
-0.25
 74
     0
  0
LTYPE
  5
8F
330
5
100
AcDbSymbolTableRecord
100
AcDbLinetypeTableRecord
  2
PHANTOM
 70
     0
  3
______  __  __  ______  __  __  ______  __  __ 
 72
    65
 73
     6
 40
2.5
 49
1.25
 74
     0
 49
-0.25
 74
     0
 49
0.25
 74
     0
 49
-0.25
 74
     0
 49
0.25
 74
     0
 49
-0.25
 74
     0
  0
LTYPE
  5
90
330
5
100
AcDbSymbolTableRecord
100
AcDbLinetypeTableRecord
  2
PHANTOM2
 70
     0
  3
___ _ _ ___ _ _ ___ _ _ ___ _ _ ___ _ _ ___ _ _
 72
    65
 73
     6
 40
1.25
 49
0.625
 74
     0
 49
-0.125
 74
     0
 49
0.125
 74
     0
 49
-0.125
 74
     0
 49
0.125
 74
     0
 49
-0.125
 74
     0
  0
LTYPE
  5
91
330
5
100
AcDbSymbolTableRecord
100
AcDbLinetypeTableRecord
  2
PHANTOMX2
 70
     0
  3
____________    ____    ____    ____________   
 72
    65
 73
     6
 40
5.0
 49
2.5
 74
     0
 49
-0.5
 74
     0
 49
0.5
 74
     0
 49
-0.5
 74
     0
 49
0.5
 74
     0
 49
-0.5
 74
     0
  0
ENDTAB
  0
TABLE
  2
LAYER
  5
2
102
{ACAD_XDICTIONARY
360
3EC
102
}
330
0
100
AcDbSymbolTable
 70
    10
  0
LAYER
  5
54
330
2
100
AcDbSymbolTableRecord
100
AcDbLayerTableRecord
  2
0
 70
     0
 62
     7
  6
CONTINUOUS
370
    -3
390
F
347
21
348
0
  0
LAYER
  5
94
330
2
100
AcDbSymbolTableRecord
100
AcDbLayerTableRecord
  2
GRABUNGSGRENZE
 70
     0
 62
     3
  6
STRICHPUNKTX2
370
    -3
390
F
347
21
348
0
  0
LAYER
  5
95
330
2
100
AcDbSymbolTableRecord
100
AcDbLayerTableRecord
  2
BEFUND
 70
     0
 62
     1
  6
CONTINUOUS
370
    -3
390
F
347
21
348
0
  0
LAYER
  5
96
330
2
100
AcDbSymbolTableRecord
100
AcDbLayerTableRecord
  2
STEINE
 70
     0
 62
     4
  6
CONTINUOUS
370
    -3
390
F
347
21
348
0
  0
LAYER
  5
97
330
2
100
AcDbSymbolTableRecord
100
AcDbLayerTableRecord
  2
KNOCHEN
 70
     0
 62
     2
  6
CONTINUOUS
370
    -3
390
F
347
21
348
0
  0
LAYER
  5
98
330
2
100
AcDbSymbolTableRecord
100
AcDbLayerTableRecord
  2
BEFUND_UNSICHER
 70
     0
 62
     1
  6
GESTRICHELT
370
    -3
390
F
347
21
348
0
  0
LAYER
  5
99
330
2
100
AcDbSymbolTableRecord
100
AcDbLayerTableRecord
  2
FEUER
 70
     0
 62
     1
  6
CONTINUOUS
370
    -3
390
F
347
21
348
0
  0
LAYER
  5
9A
330
2
100
AcDbSymbolTableRecord
100
AcDbLayerTableRecord
  2
KNOCHENSCHRAFF
 70
     0
 62
     2
  6
CONTINUOUS
370
    -3
390
F
347
21
348
0
  0
LAYER
  5
9B
330
2
100
AcDbSymbolTableRecord
100
AcDbLayerTableRecord
  2
BEFUNDSCHRAFF
 70
     0
 62
     1
  6
CONTINUOUS
370
    -3
390
F
347
21
348
0
  0
LAYER
  5
9C
330
2
100
AcDbSymbolTableRecord
100
AcDbLayerTableRecord
  2
STEINESCHRAFF
 70
     0
 62
     4
  6
CONTINUOUS
370
    -3
390
F
347
21
348
0
  0
ENDTAB
  0
TABLE
  2
STYLE
  5
3
330
0
100
AcDbSymbolTable
 70
     2
  0
STYLE
  5
55
330
3
100
AcDbSymbolTableRecord
100
AcDbTextStyleTableRecord
  2
STANDARD
 70
     0
 40
0.0
 41
1.0
 50
0.0
 71
     0
 42
3.5
  3
txt.shx
  4

  0
STYLE
  5
59
330
3
100
AcDbSymbolTableRecord
100
AcDbTextStyleTableRecord
  2
Annotative
 70
     0
 40
0.0
 41
1.0
 50
0.0
 71
     0
 42
3.5
  3
txt
  4

1001
AcadAnnotative
1000
AnnotativeData
1002
{
1070
     1
1070
     1
1002
}
  0
ENDTAB
  0
TABLE
  2
VIEW
  5
6
330
0
100
AcDbSymbolTable
 70
     1
  0
ENDTAB
  0
TABLE
  2
UCS
  5
7
330
0
100
AcDbSymbolTable
 70
     0
  0
ENDTAB
  0
TABLE
  2
APPID
  5
9
330
0
100
AcDbSymbolTable
 70
     3
  0
APPID
  5
56
330
9
100
AcDbSymbolTableRecord
100
AcDbRegAppTableRecord
  2
ACAD
 70
     0
  0
APPID
  5
5D
330
9
100
AcDbSymbolTableRecord
100
AcDbRegAppTableRecord
  2
AcadAnnotative
 70
     0
  0
APPID
  5
3F2
330
9
100
AcDbSymbolTableRecord
100
AcDbRegAppTableRecord
  2
ACAD_NAV_VCDISPLAY
 70
     0
  0
ENDTAB
  0
TABLE
  2
DIMSTYLE
  5
A
330
0
100
AcDbSymbolTable
 70
     2
100
AcDbDimStyleTable
 71
     0
  0
DIMSTYLE
105
57
330
A
100
AcDbSymbolTableRecord
100
AcDbDimStyleTableRecord
  2
Standard
 70
     0
340
55
  0
DIMSTYLE
105
58
330
A
100
AcDbSymbolTableRecord
100
AcDbDimStyleTableRecord
  2
Annotative
 70
     0
340
55
1001
AcadAnnotative
1000
AnnotativeData
1002
{
1070
     1
1070
     1
1002
}
  0
ENDTAB
  0
TABLE
  2
BLOCK_RECORD
  5
1
330
0
100
AcDbSymbolTable
 70
     6
  0
BLOCK_RECORD
  5
6F
330
1
100
AcDbSymbolTableRecord
100
AcDbBlockTableRecord
  2
*Model_Space
340
72
 70
     0
280
     1
281
     0
  0
BLOCK_RECORD
  5
6B
330
1
100
AcDbSymbolTableRecord
100
AcDbBlockTableRecord
  2
*Paper_Space
340
6E
 70
     0
280
     1
281
     0
  0
BLOCK_RECORD
  5
73
330
1
100
AcDbSymbolTableRecord
100
AcDbBlockTableRecord
  2
TPFEIL
340
0
 70
     0
280
     1
281
     0
  0
BLOCK_RECORD
  5
74
330
1
100
AcDbSymbolTableRecord
100
AcDbBlockTableRecord
  2
*X1
340
0
102
{BLKREFS
331
3E1
102
}
 70
     0
280
     1
281
     0
  0
BLOCK_RECORD
  5
75
330
1
100
AcDbSymbolTableRecord
100
AcDbBlockTableRecord
  2
*X2
340
0
102
{BLKREFS
331
3E2
102
}
 70
     0
280
     1
281
     0
  0
BLOCK_RECORD
  5
76
330
1
100
AcDbSymbolTableRecord
100
AcDbBlockTableRecord
  2
*X3
340
0
102
{BLKREFS
331
3E3
102
}
 70
     0
280
     1
281
     0
  0
BLOCK_RECORD
  5
77
330
1
100
AcDbSymbolTableRecord
100
AcDbBlockTableRecord
  2
*X4
340
0
102
{BLKREFS
331
3E4
102
}
 70
     0
280
     1
281
     0
  0
BLOCK_RECORD
  5
79
330
1
100
AcDbSymbolTableRecord
100
AcDbBlockTableRecord
  2
*X5
340
0
102
{BLKREFS
331
3E5
102
}
 70
     0
280
     1
281
     0
  0
ENDTAB
  0
ENDSEC
  0
SECTION
  2
BLOCKS
  0
BLOCK
  5
9F
330
6F
100
AcDbEntity
  8
0
100
AcDbBlockBegin
  2
*Model_Space
 70
     0
 10
0.0
 20
0.0
 30
0.0
  3
*Model_Space
  1

  0
ENDBLK
  5
A0
330
6F
100
AcDbEntity
  8
0
100
AcDbBlockEnd
  0
BLOCK
  5
9D
330
6B
100
AcDbEntity
 67
     1
  8
0
100
AcDbBlockBegin
  2
*Paper_Space
 70
     0
 10
0.0
 20
0.0
 30
0.0
  3
*Paper_Space
  1

  0
ENDBLK
  5
9E
330
6B
100
AcDbEntity
 67
     1
  8
0
100
AcDbBlockEnd
  0
BLOCK
  5
A1
330
73
100
AcDbEntity
  8
0
100
AcDbBlockBegin
  2
TPFEIL
 70
     0
 10
0.0
 20
0.0
 30
0.0
  3
TPFEIL
  1

  0
LWPOLYLINE
  5
A2
330
73
100
AcDbEntity
  8
GRABUNGSGRENZE
100
AcDbPolyline
 90
        2
 70
     0
 10
0.0
 20
-10.0
 40
5.0
 41
0.0
 10
0.0
 20
0.0
 40
0.0
 41
0.0
  0
ENDBLK
  5
A6
330
73
100
AcDbEntity
  8
0
100
AcDbBlockEnd
  0
BLOCK
  5
A7
330
74
100
AcDbEntity
  8
0
100
AcDbBlockBegin
  2
*X1
 70
     1
 10
0.0
 20
0.0
 30
0.0
  3
*X1
  1

  0
LINE
  5
A8
330
74
100
AcDbEntity
  8
0
 62
     0
100
AcDbLine
 10
-232.5759526170355
 20
-1611.08062254021
 30
0.0
 11
-231.920148972693
 21
-1610.424818895867
 31
0.0
  0
LINE
  5
A9
330
74
100
AcDbEntity
  8
0
 62
     0
100
AcDbLine
 10
-232.6950797053448
 20
-1610.846196237926
 30
0.0
 11
-231.7754733928685
 21
-1609.926589925449
 31
0.0
  0
LINE
  5
AA
330
74
100
AcDbEntity
  8
0
 62
     0
100
AcDbLine
 10
-232.814206793654
 20
-1610.611769935642
 30
0.0
 11
-231.9110431446963
 21
-1609.708606286684
 31
0.0
  0
LINE
  5
AB
330
74
100
AcDbEntity
  8
0
 62
     0
100
AcDbLine
 10
-232.9333338819633
 20
-1610.377343633357
 30
0.0
 11
-232.0466128965242
 21
-1609.490622647918
 31
0.0
  0
LINE
  5
AC
330
74
100
AcDbEntity
  8
0
 62
     0
100
AcDbLine
 10
-233.0524609702726
 20
-1610.142917331074
 30
0.0
 11
-232.182182648352
 21
-1609.272639009153
 31
0.0
  0
LINE
  5
AD
330
74
100
AcDbEntity
  8
0
 62
     0
100
AcDbLine
 10
-233.1715880585818
 20
-1609.908491028789
 30
0.0
 11
-232.3177524001799
 21
-1609.054655370387
 31
0.0
  0
LINE
  5
AE
330
74
100
AcDbEntity
  8
0
 62
     0
100
AcDbLine
 10
-233.2907151468911
 20
-1609.674064726505
 30
0.0
 11
-232.4533221520077
 21
-1608.836671731622
 31
0.0
  0
LINE
  5
AF
330
74
100
AcDbEntity
  8
0
 62
     0
100
AcDbLine
 10
-233.4098422352003
 20
-1609.439638424221
 30
0.0
 11
-232.5888919038355
 21
-1608.618688092857
 31
0.0
  0
LINE
  5
B0
330
74
100
AcDbEntity
  8
0
 62
     0
100
AcDbLine
 10
-233.5289693235096
 20
-1609.205212121937
 30
0.0
 11
-232.7244616556634
 21
-1608.400704454091
 31
0.0
  0
LINE
  5
B1
330
74
100
AcDbEntity
  8
0
 62
     0
100
AcDbLine
 10
-233.6480964118188
 20
-1608.970785819654
 30
0.0
 11
-232.8600314074912
 21
-1608.182720815326
 31
0.0
  0
LINE
  5
B2
330
74
100
AcDbEntity
  8
0
 62
     0
100
AcDbLine
 10
-233.7672235001281
 20
-1608.736359517369
 30
0.0
 11
-232.995601159319
 21
-1607.96473717656
 31
0.0
  0
LINE
  5
B3
330
74
100
AcDbEntity
  8
0
 62
     0
100
AcDbLine
 10
-233.8863505884373
 20
-1608.501933215086
 30
0.0
 11
-233.1311709111469
 21
-1607.746753537795
 31
0.0
  0
LINE
  5
B4
330
74
100
AcDbEntity
  8
0
 62
     0
100
AcDbLine
 10
-234.0054776767466
 20
-1608.267506912801
 30
0.0
 11
-233.2667406629747
 21
-1607.52876989903
 31
0.0
  0
LINE
  5
B5
330
74
100
AcDbEntity
  8
0
 62
     0
100
AcDbLine
 10
-234.1246047650558
 20
-1608.033080610518
 30
0.0
 11
-233.4023104148025
 21
-1607.310786260264
 31
0.0
  0
LINE
  5
B6
330
74
100
AcDbEntity
  8
0
 62
     0
100
AcDbLine
 10
-234.2437318533651
 20
-1607.798654308233
 30
0.0
 11
-233.6909203942799
 21
-1607.245842849148
 31
0.0
  0
LINE
  5
B7
330
74
100
AcDbEntity
  8
0
 62
     0
100
AcDbLine
 10
-234.3628589416744
 20
-1607.564228005949
 30
0.0
 11
-234.2220404951742
 21
-1607.423409559449
 31
0.0
  0
LINE
  5
B8
330
74
100
AcDbEntity
  8
0
 62
     0
100
AcDbLine
 10
-246.6662388043854
 20
-1592.290443402385
 30
0.0
 11
-246.3944890384723
 21
-1592.018693636472
 31
0.0
  0
LINE
  5
B9
330
74
100
AcDbEntity
  8
0
 62
     0
100
AcDbLine
 10
-246.9506841127222
 20
-1592.221335320129
 30
0.0
 11
-246.306612599174
 21
-1591.57726380658
 31
0.0
  0
LINE
  5
BA
330
74
100
AcDbEntity
  8
0
 62
     0
100
AcDbLine
 10
-247.235129421059
 20
-1592.152227237872
 30
0.0
 11
-246.2187361598757
 21
-1591.135833976689
 31
0.0
  0
LINE
  5
BB
330
74
100
AcDbEntity
  8
0
 62
     0
100
AcDbLine
 10
-247.5195747293958
 20
-1592.083119155616
 30
0.0
 11
-246.2213032885244
 21
-1590.784847714744
 31
0.0
  0
LINE
  5
BC
330
74
100
AcDbEntity
  8
0
 62
     0
100
AcDbLine
 10
-247.8040200377327
 20
-1592.014011073359
 30
0.0
 11
-246.4790829467306
 21
-1590.689073982357
 31
0.0
  0
LINE
  5
BD
330
74
100
AcDbEntity
  8
0
 62
     0
100
AcDbLine
 10
-248.0884653460695
 20
-1591.944902991103
 30
0.0
 11
-246.7368626049367
 21
-1590.59330024997
 31
0.0
  0
LINE
  5
BE
330
74
100
AcDbEntity
  8
0
 62
     0
100
AcDbLine
 10
-248.3729106544063
 20
-1591.875794908846
 30
0.0
 11
-246.9946422631428
 21
-1590.497526517583
 31
0.0
  0
LINE
  5
BF
330
74
100
AcDbEntity
  8
0
 62
     0
100
AcDbLine
 10
-248.6573559627432
 20
-1591.80668682659
 30
0.0
 11
-247.2524219213489
 21
-1590.401752785196
 31
0.0
  0
LINE
  5
C0
330
74
100
AcDbEntity
  8
0
 62
     0
100
AcDbLine
 10
-248.94180127108
 20
-1591.737578744333
 30
0.0
 11
-247.5102015795549
 21
-1590.305979052808
 31
0.0
  0
LINE
  5
C1
330
74
100
AcDbEntity
  8
0
 62
     0
100
AcDbLine
 10
-249.2262465794168
 20
-1591.668470662077
 30
0.0
 11
-247.7679812377611
 21
-1590.210205320421
 31
0.0
  0
LINE
  5
C2
330
74
100
AcDbEntity
  8
0
 62
     0
100
AcDbLine
 10
-249.5106918877536
 20
-1591.59936257982
 30
0.0
 11
-248.0257608959671
 21
-1590.114431588034
 31
0.0
  0
LINE
  5
C3
330
74
100
AcDbEntity
  8
0
 62
     0
100
AcDbLine
 10
-249.7951371960905
 20
-1591.530254497564
 30
0.0
 11
-248.2835405541732
 21
-1590.018657855647
 31
0.0
  0
LINE
  5
C4
330
74
100
AcDbEntity
  8
0
 62
     0
100
AcDbLine
 10
-250.0795825044273
 20
-1591.461146415308
 30
0.0
 11
-248.5413202123794
 21
-1589.92288412326
 31
0.0
  0
LINE
  5
C5
330
74
100
AcDbEntity
  8
0
 62
     0
100
AcDbLine
 10
-250.3640278127641
 20
-1591.392038333051
 30
0.0
 11
-248.7990998705854
 21
-1589.827110390873
 31
0.0
  0
LINE
  5
C6
330
74
100
AcDbEntity
  8
0
 62
     0
100
AcDbLine
 10
-250.648473121101
 20
-1591.322930250795
 30
0.0
 11
-249.0568795287916
 21
-1589.731336658485
 31
0.0
  0
LINE
  5
C7
330
74
100
AcDbEntity
  8
0
 62
     0
100
AcDbLine
 10
-250.9329184294378
 20
-1591.253822168538
 30
0.0
 11
-249.3146591869976
 21
-1589.635562926098
 31
0.0
  0
LINE
  5
C8
330
74
100
AcDbEntity
  8
0
 62
     0
100
AcDbLine
 10
-251.2173637377746
 20
-1591.184714086282
 30
0.0
 11
-249.5724388452038
 21
-1589.539789193711
 31
0.0
  0
LINE
  5
C9
330
74
100
AcDbEntity
  8
0
 62
     0
100
AcDbLine
 10
-251.5018090461115
 20
-1591.115606004026
 30
0.0
 11
-249.8302185034098
 21
-1589.444015461324
 31
0.0
  0
LINE
  5
CA
330
74
100
AcDbEntity
  8
0
 62
     0
100
AcDbLine
 10
-251.7862543544483
 20
-1591.046497921769
 30
0.0
 11
-250.0879981616159
 21
-1589.348241728937
 31
0.0
  0
LINE
  5
CB
330
74
100
AcDbEntity
  8
0
 62
     0
100
AcDbLine
 10
-252.0706996627851
 20
-1590.977389839513
 30
0.0
 11
-250.345777819822
 21
-1589.25246799655
 31
0.0
  0
LINE
  5
CC
330
74
100
AcDbEntity
  8
0
 62
     0
100
AcDbLine
 10
-252.355144971122
 20
-1590.908281757256
 30
0.0
 11
-250.6035574780281
 21
-1589.156694264162
 31
0.0
  0
LINE
  5
CD
330
74
100
AcDbEntity
  8
0
 62
     0
100
AcDbLine
 10
-252.6395902794588
 20
-1590.839173675
 30
0.0
 11
-250.8613371362342
 21
-1589.060920531775
 31
0.0
  0
LINE
  5
CE
330
74
100
AcDbEntity
  8
0
 62
     0
100
AcDbLine
 10
-252.1655516078118
 20
-1590.01158161276
 30
0.0
 11
-251.1191167944403
 21
-1588.965146799388
 31
0.0
  0
LINE
  5
CF
330
74
100
AcDbEntity
  8
0
 62
     0
100
AcDbLine
 10
-253.887892770988
 20
-1590.319709213563
 30
0.0
 11
-252.9366333213573
 21
-1589.368449763932
 31
0.0
  0
LINE
  5
D0
330
74
100
AcDbEntity
  8
0
 62
     0
100
AcDbLine
 10
-254.1280741216298
 20
-1590.206337173611
 30
0.0
 11
-252.4427234031545
 21
-1588.520986455136
 31
0.0
  0
LINE
  5
D1
330
74
100
AcDbEntity
  8
0
 62
     0
100
AcDbLine
 10
-254.3682554722716
 20
-1590.09296513366
 30
0.0
 11
-252.6620933468397
 21
-1588.386803008228
 31
0.0
  0
LINE
  5
D2
330
74
100
AcDbEntity
  8
0
 62
     0
100
AcDbLine
 10
-254.6084368229133
 20
-1589.979593093708
 30
0.0
 11
-252.8814632905249
 21
-1588.25261956132
 31
0.0
  0
LINE
  5
D3
330
74
100
AcDbEntity
  8
0
 62
     0
100
AcDbLine
 10
-251.2611986932333
 20
-1586.632354964028
 30
0.0
 11
-251.1438876067283
 21
-1586.515043877523
 31
0.0
  0
LINE
  5
D4
330
74
100
AcDbEntity
  8
0
 62
     0
100
AcDbLine
 10
-254.8486181735551
 20
-1589.866221053757
 30
0.0
 11
-253.10083323421
 21
-1588.118436114412
 31
0.0
  0
LINE
  5
D5
330
74
100
AcDbEntity
  8
0
 62
     0
100
AcDbLine
 10
-251.6192843901692
 20
-1586.636887270371
 30
0.0
 11
-251.2297970051559
 21
-1586.247399885357
 31
0.0
  0
LINE
  5
D6
330
74
100
AcDbEntity
  8
0
 62
     0
100
AcDbLine
 10
-255.0887995241969
 20
-1589.752849013805
 30
0.0
 11
-253.3202031778952
 21
-1587.984252667503
 31
0.0
  0
LINE
  5
D7
330
74
100
AcDbEntity
  8
0
 62
     0
100
AcDbLine
 10
-251.9773700871051
 20
-1586.641419576714
 30
0.0
 11
-251.3157064035834
 21
-1585.979755893192
 31
0.0
  0
LINE
  5
D8
330
74
100
AcDbEntity
  8
0
 62
     0
100
AcDbLine
 10
-255.3289808748387
 20
-1589.639476973854
 30
0.0
 11
-253.5395731215804
 21
-1587.850069220595
 31
0.0
  0
LINE
  5
D9
330
74
100
AcDbEntity
  8
0
 62
     0
100
AcDbLine
 10
-252.335455784041
 20
-1586.645951883056
 30
0.0
 11
-251.401615802011
 21
-1585.712111901026
 31
0.0
  0
LINE
  5
DA
330
74
100
AcDbEntity
  8
0
 62
     0
100
AcDbLine
 10
-255.5691622254804
 20
-1589.526104933902
 30
0.0
 11
-253.7589430652656
 21
-1587.715885773687
 31
0.0
  0
LINE
  5
DB
330
74
100
AcDbEntity
  8
0
 62
     0
100
AcDbLine
 10
-252.6935414809769
 20
-1586.650484189399
 30
0.0
 11
-251.4875252004386
 21
-1585.44446790886
 31
0.0
  0
LINE
  5
DC
330
74
100
AcDbEntity
  8
0
 62
     0
100
AcDbLine
 10
-255.8093435761222
 20
-1589.412732893951
 30
0.0
 11
-253.9783130089507
 21
-1587.581702326779
 31
0.0
  0
LINE
  5
DD
330
74
100
AcDbEntity
  8
0
 62
     0
100
AcDbLine
 10
-250.9947149257075
 20
-1584.598104243536
 30
0.0
 11
-250.7163312925301
 21
-1584.319720610358
 31
0.0
  0
LINE
  5
DE
330
74
100
AcDbEntity
  8
0
 62
     0
100
AcDbLine
 10
-253.0516271779127
 20
-1586.655016495741
 30
0.0
 11
-251.8724375963056
 21
-1585.475826914134
 31
0.0
  0
LINE
  5
DF
330
74
100
AcDbEntity
  8
0
 62
     0
100
AcDbLine
 10
-256.049524926764
 20
-1589.299360853999
 30
0.0
 11
-254.1976829526359
 21
-1587.447518879871
 31
0.0
  0
LINE
  5
E0
330
74
100
AcDbEntity
  8
0
 62
     0
100
AcDbLine
 10
-251.4389077139606
 20
-1584.688743641196
 30
0.0
 11
-250.7401774922729
 21
-1583.990013419508
 31
0.0
  0
LINE
  5
E1
330
74
100
AcDbEntity
  8
0
 62
     0
100
AcDbLine
 10
-253.4097128748486
 20
-1586.659548802084
 30
0.0
 11
-252.4070363741147
 21
-1585.65687230135
 31
0.0
  0
LINE
  5
E2
330
74
100
AcDbEntity
  8
0
 62
     0
100
AcDbLine
 10
-256.2897062774058
 20
-1589.185988814048
 30
0.0
 11
-254.4170528963211
 21
-1587.313335432963
 31
0.0
  0
LINE
  5
E3
330
74
100
AcDbEntity
  8
0
 62
     0
100
AcDbLine
 10
-251.8831005022136
 20
-1584.779383038856
 30
0.0
 11
-250.7640236920157
 21
-1583.660306228658
 31
0.0
  0
LINE
  5
E4
330
74
100
AcDbEntity
  8
0
 62
     0
100
AcDbLine
 10
-253.7677985717845
 20
-1586.664081108426
 30
0.0
 11
-252.9416351519238
 21
-1585.837917688565
 31
0.0
  0
LINE
  5
E5
330
74
100
AcDbEntity
  8
0
 62
     0
100
AcDbLine
 10
-256.5298876280476
 20
-1589.072616774096
 30
0.0
 11
-254.6364228400063
 21
-1587.179151986055
 31
0.0
  0
LINE
  5
E6
330
74
100
AcDbEntity
  8
0
 62
     0
100
AcDbLine
 10
-252.3272932904667
 20
-1584.870022436515
 30
0.0
 11
-250.7878698917585
 21
-1583.330599037807
 31
0.0
  0
LINE
  5
E7
330
74
100
AcDbEntity
  8
0
 62
     0
100
AcDbLine
 10
-254.1258842687204
 20
-1586.668613414769
 30
0.0
 11
-253.4762339297329
 21
-1586.018963075781
 31
0.0
  0
LINE
  5
E8
330
74
100
AcDbEntity
  8
0
 62
     0
100
AcDbLine
 10
-256.7700689786893
 20
-1588.959244734145
 30
0.0
 11
-254.8557927836915
 21
-1587.044968539147
 31
0.0
  0
LINE
  5
E9
330
74
100
AcDbEntity
  8
0
 62
     0
100
AcDbLine
 10
-252.7714860787197
 20
-1584.960661834175
 30
0.0
 11
-251.0080693168511
 21
-1583.197245072307
 31
0.0
  0
LINE
  5
EA
330
74
100
AcDbEntity
  8
0
 62
     0
100
AcDbLine
 10
-254.4839699656563
 20
-1586.673145721112
 30
0.0
 11
-254.0108327075419
 21
-1586.200008462997
 31
0.0
  0
LINE
  5
EB
330
74
100
AcDbEntity
  8
0
 62
     0
100
AcDbLine
 10
-257.0102503293311
 20
-1588.845872694193
 30
0.0
 11
-255.0751627273766
 21
-1586.910785092238
 31
0.0
  0
LINE
  5
EC
330
74
100
AcDbEntity
  8
0
 62
     0
100
AcDbLine
 10
-250.6276114346473
 20
-1582.463233799509
 30
0.0
 11
-250.2862911135157
 21
-1582.121913478378
 31
0.0
  0
LINE
  5
ED
330
74
100
AcDbEntity
  8
0
 62
     0
100
AcDbLine
 10
-254.8420556625922
 20
-1586.677678027454
 30
0.0
 11
-254.545431485351
 21
-1586.381053850213
 31
0.0
  0
LINE
  5
EE
330
74
100
AcDbEntity
  8
0
 62
     0
100
AcDbLine
 10
-253.2156788669727
 20
-1585.051301231835
 30
0.0
 11
-251.6279337843082
 21
-1583.46355614917
 31
0.0
  0
LINE
  5
EF
330
74
100
AcDbEntity
  8
0
 62
     0
100
AcDbLine
 10
-257.2504316799729
 20
-1588.732500654242
 30
0.0
 11
-255.2945326710618
 21
-1586.77660164533
 31
0.0
  0
LINE
  5
F0
330
74
100
AcDbEntity
  8
0
 62
     0
100
AcDbLine
 10
-251.1151158561013
 20
-1582.59718483037
 30
0.0
 11
-250.3915851576622
 21
-1581.873654131931
 31
0.0
  0
LINE
  5
F1
330
74
100
AcDbEntity
  8
0
 62
     0
100
AcDbLine
 10
-255.2001413595281
 20
-1586.682210333797
 30
0.0
 11
-255.0800302631601
 21
-1586.562099237429
 31
0.0
  0
LINE
  5
F2
330
74
100
AcDbEntity
  8
0
 62
     0
100
AcDbLine
 10
-253.6598716552258
 20
-1585.141940629495
 30
0.0
 11
-252.2477982517652
 21
-1583.729867226034
 31
0.0
  0
LINE
  5
F3
330
74
100
AcDbEntity
  8
0
 62
     0
100
AcDbLine
 10
-257.4906130306147
 20
-1588.61912861429
 30
0.0
 11
-255.5213939071744
 21
-1586.64990949085
 31
0.0
  0
LINE
  5
F4
330
74
100
AcDbEntity
  8
0
 62
     0
100
AcDbLine
 10
-251.6026202775553
 20
-1582.731135861231
 30
0.0
 11
-250.4968792018088
 21
-1581.625394785485
 31
0.0
  0
LINE
  5
F5
330
74
100
AcDbEntity
  8
0
 62
     0
100
AcDbLine
 10
-254.1040644434788
 20
-1585.232580027154
 30
0.0
 11
-252.8676627192222
 21
-1583.996178302898
 31
0.0
  0
LINE
  5
F6
330
74
100
AcDbEntity
  8
0
 62
     0
100
AcDbLine
 10
-257.7307943812564
 20
-1588.505756574339
 30
0.0
 11
-255.7642082583159
 21
-1586.539170451398
 31
0.0
  0
LINE
  5
F7
330
74
100
AcDbEntity
  8
0
 62
     0
100
AcDbLine
 10
-252.0901246990094
 20
-1582.865086892092
 30
0.0
 11
-250.6021732459555
 21
-1581.377135439038
 31
0.0
  0
LINE
  5
F8
330
74
100
AcDbEntity
  8
0
 62
     0
100
AcDbLine
 10
-254.5482572317319
 20
-1585.323219424814
 30
0.0
 11
-253.4875271866793
 21
-1584.262489379762
 31
0.0
  0
LINE
  5
F9
330
74
100
AcDbEntity
  8
0
 62
     0
100
AcDbLine
 10
-257.9709757318982
 20
-1588.392384534387
 30
0.0
 11
-256.0070226094575
 21
-1586.428431411946
 31
0.0
  0
LINE
  5
FA
330
74
100
AcDbEntity
  8
0
 62
     0
100
AcDbLine
 10
-252.5776291204634
 20
-1582.999037922953
 30
0.0
 11
-250.7074672901021
 21
-1581.128876092591
 31
0.0
  0
LINE
  5
FB
330
74
100
AcDbEntity
  8
0
 62
     0
100
AcDbLine
 10
-254.9924500199849
 20
-1585.413858822474
 30
0.0
 11
-254.1073916541364
 21
-1584.528800456625
 31
0.0
  0
LINE
  5
FC
330
74
100
AcDbEntity
  8
0
 62
     0
100
AcDbLine
 10
-258.21115708254
 20
-1588.279012494436
 30
0.0
 11
-256.249836960599
 21
-1586.317692372495
 31
0.0
  0
LINE
  5
FD
330
74
100
AcDbEntity
  8
0
 62
     0
100
AcDbLine
 10
-253.0651335419174
 20
-1583.132988953813
 30
0.0
 11
-251.1154999038256
 21
-1581.183355315721
 31
0.0
  0
LINE
  5
FE
330
74
100
AcDbEntity
  8
0
 62
     0
100
AcDbLine
 10
-255.436642808238
 20
-1585.504498220134
 30
0.0
 11
-254.7272561215934
 21
-1584.795111533489
 31
0.0
  0
LINE
  5
FF
330
74
100
AcDbEntity
  8
0
 62
     0
100
AcDbLine
 10
-258.4513384331818
 20
-1588.165640454484
 30
0.0
 11
-256.4926513117406
 21
-1586.206953333043
 31
0.0
  0
LINE
  5
100
330
74
100
AcDbEntity
  8
0
 62
     0
100
AcDbLine
 10
-253.5526379633715
 20
-1583.266939984674
 30
0.0
 11
-251.7698394549582
 21
-1581.484141476261
 31
0.0
  0
LINE
  5
101
330
74
100
AcDbEntity
  8
0
 62
     0
100
AcDbLine
 10
-255.880835596491
 20
-1585.595137617793
 30
0.0
 11
-255.3471205890505
 21
-1585.061422610353
 31
0.0
  0
LINE
  5
102
330
74
100
AcDbEntity
  8
0
 62
     0
100
AcDbLine
 10
-258.8872055692673
 20
-1588.247954199976
 30
0.0
 11
-256.7354656628822
 21
-1586.096214293591
 31
0.0
  0
LINE
  5
103
330
74
100
AcDbEntity
  8
0
 62
     0
100
AcDbLine
 10
-254.0401423848255
 20
-1583.400891015535
 30
0.0
 11
-252.4241790060907
 21
-1581.7849276368
 31
0.0
  0
LINE
  5
104
330
74
100
AcDbEntity
  8
0
 62
     0
100
AcDbLine
 10
-256.3250283847441
 20
-1585.685777015453
 30
0.0
 11
-255.9669850565075
 21
-1585.327733687217
 31
0.0
  0
LINE
  5
105
330
74
100
AcDbEntity
  8
0
 62
     0
100
AcDbLine
 10
-259.471562769181
 20
-1588.478758009297
 30
0.0
 11
-256.9782800140237
 21
-1585.98547525414
 31
0.0
  0
LINE
  5
106
330
74
100
AcDbEntity
  8
0
 62
     0
100
AcDbLine
 10
-254.5276468062795
 20
-1583.534842046395
 30
0.0
 11
-253.0785185572233
 21
-1582.085713797339
 31
0.0
  0
LINE
  5
107
330
74
100
AcDbEntity
  8
0
 62
     0
100
AcDbLine
 10
-256.7692211729971
 20
-1585.776416413113
 30
0.0
 11
-256.5868495239645
 21
-1585.594044764081
 31
0.0
  0
LINE
  5
108
330
74
100
AcDbEntity
  8
0
 62
     0
100
AcDbLine
 10
-260.0559199690947
 20
-1588.709561818617
 30
0.0
 11
-257.2210943651653
 21
-1585.874736214688
 31
0.0
  0
LINE
  5
109
330
74
100
AcDbEntity
  8
0
 62
     0
100
AcDbLine
 10
-255.0151512277336
 20
-1583.668793077256
 30
0.0
 11
-253.7328581083559
 21
-1582.386499957878
 31
0.0
  0
LINE
  5
10A
330
74
100
AcDbEntity
  8
0
 62
     0
100
AcDbLine
 10
-257.2134139612501
 20
-1585.867055810773
 30
0.0
 11
-257.2067139914216
 21
-1585.860355840944
 31
0.0
  0
LINE
  5
10B
330
74
100
AcDbEntity
  8
0
 62
     0
100
AcDbLine
 10
-260.7258374032461
 20
-1589.025925862175
 30
0.0
 11
-257.4230014487613
 21
-1585.723089907691
 31
0.0
  0
LINE
  5
10C
330
74
100
AcDbEntity
  8
0
 62
     0
100
AcDbLine
 10
-255.5026556491877
 20
-1583.802744108117
 30
0.0
 11
-254.3871976594885
 21
-1582.687286118418
 31
0.0
  0
LINE
  5
10D
330
74
100
AcDbEntity
  8
0
 62
     0
100
AcDbLine
 10
-261.4345256279354
 20
-1589.381060696272
 30
0.0
 11
-257.6232865007204
 21
-1585.569821569056
 31
0.0
  0
LINE
  5
10E
330
74
100
AcDbEntity
  8
0
 62
     0
100
AcDbLine
 10
-255.9901600706417
 20
-1583.936695138978
 30
0.0
 11
-255.0415372106211
 21
-1582.988072278957
 31
0.0
  0
LINE
  5
10F
330
74
100
AcDbEntity
  8
0
 62
     0
100
AcDbLine
 10
-262.1432138526248
 20
-1589.736195530368
 30
0.0
 11
-257.8235715526794
 21
-1585.416553230422
 31
0.0
  0
LINE
  5
110
330
74
100
AcDbEntity
  8
0
 62
     0
100
AcDbLine
 10
-256.4776644920957
 20
-1584.070646169838
 30
0.0
 11
-255.6958767617536
 21
-1583.288858439497
 31
0.0
  0
LINE
  5
111
330
74
100
AcDbEntity
  8
0
 62
     0
100
AcDbLine
 10
-262.4950043077448
 20
-1589.734432594894
 30
0.0
 11
-258.0238566046385
 21
-1585.263284891788
 31
0.0
  0
LINE
  5
112
330
74
100
AcDbEntity
  8
0
 62
     0
100
AcDbLine
 10
-256.9651689135497
 20
-1584.204597200699
 30
0.0
 11
-256.3502163128863
 21
-1583.589644600036
 31
0.0
  0
LINE
  5
113
330
74
100
AcDbEntity
  8
0
 62
     0
100
AcDbLine
 10
-262.6675194017733
 20
-1589.553394298329
 30
0.0
 11
-258.2241416565976
 21
-1585.110016553154
 31
0.0
  0
LINE
  5
114
330
74
100
AcDbEntity
  8
0
 62
     0
100
AcDbLine
 10
-257.4526733350038
 20
-1584.33854823156
 30
0.0
 11
-257.0045558640188
 21
-1583.890430760575
 31
0.0
  0
LINE
  5
115
330
74
100
AcDbEntity
  8
0
 62
     0
100
AcDbLine
 10
-262.8400344958018
 20
-1589.372356001765
 30
0.0
 11
-258.4244267085566
 21
-1584.95674821452
 31
0.0
  0
LINE
  5
116
330
74
100
AcDbEntity
  8
0
 62
     0
100
AcDbLine
 10
-257.9401777564578
 20
-1584.472499262421
 30
0.0
 11
-257.6588954151514
 21
-1584.191216921114
 31
0.0
  0
LINE
  5
117
330
74
100
AcDbEntity
  8
0
 62
     0
100
AcDbLine
 10
-263.0125495898303
 20
-1589.1913177052
 30
0.0
 11
-258.6247117605156
 21
-1584.803479875885
 31
0.0
  0
LINE
  5
118
330
74
100
AcDbEntity
  8
0
 62
     0
100
AcDbLine
 10
-258.4276821779119
 20
-1584.606450293281
 30
0.0
 11
-258.313234966284
 21
-1584.492003081654
 31
0.0
  0
LINE
  5
119
330
74
100
AcDbEntity
  8
0
 62
     0
100
AcDbLine
 10
-263.1850646838588
 20
-1589.010279408635
 30
0.0
 11
-258.8079738140077
 21
-1584.633188538784
 31
0.0
  0
LINE
  5
11A
330
74
100
AcDbEntity
  8
0
 62
     0
100
AcDbLine
 10
-263.3575797778873
 20
-1588.82924111207
 30
0.0
 11
-258.9540472411798
 21
-1584.425708575363
 31
0.0
  0
LINE
  5
11B
330
74
100
AcDbEntity
  8
0
 62
     0
100
AcDbLine
 10
-263.5300948719158
 20
-1588.648202815505
 30
0.0
 11
-259.1001206683519
 21
-1584.218228611942
 31
0.0
  0
LINE
  5
11C
330
74
100
AcDbEntity
  8
0
 62
     0
100
AcDbLine
 10
-263.7026099659443
 20
-1588.467164518941
 30
0.0
 11
-259.246194095524
 21
-1584.010748648521
 31
0.0
  0
LINE
  5
11D
330
74
100
AcDbEntity
  8
0
 62
     0
100
AcDbLine
 10
-263.8751250599728
 20
-1588.286126222376
 30
0.0
 11
-259.3922675226961
 21
-1583.803268685099
 31
0.0
  0
LINE
  5
11E
330
74
100
AcDbEntity
  8
0
 62
     0
100
AcDbLine
 10
-264.0476401540013
 20
-1588.105087925811
 30
0.0
 11
-259.5383409498682
 21
-1583.595788721678
 31
0.0
  0
LINE
  5
11F
330
74
100
AcDbEntity
  8
0
 62
     0
100
AcDbLine
 10
-264.2201552480297
 20
-1587.924049629246
 30
0.0
 11
-259.6844143770403
 21
-1583.388308758257
 31
0.0
  0
LINE
  5
120
330
74
100
AcDbEntity
  8
0
 62
     0
100
AcDbLine
 10
-264.351546026726
 20
-1587.701887017349
 30
0.0
 11
-259.8304878042124
 21
-1583.180828794836
 31
0.0
  0
LINE
  5
121
330
74
100
AcDbEntity
  8
0
 62
     0
100
AcDbLine
 10
-264.1816307749902
 20
-1587.17841837502
 30
0.0
 11
-259.9765612313845
 21
-1582.973348831415
 31
0.0
  0
LINE
  5
122
330
74
100
AcDbEntity
  8
0
 62
     0
100
AcDbLine
 10
-264.0117155232545
 20
-1586.654949732691
 30
0.0
 11
-260.2267356702779
 21
-1582.869969879715
 31
0.0
  0
LINE
  5
123
330
74
100
AcDbEntity
  8
0
 62
     0
100
AcDbLine
 10
-263.8418002715186
 20
-1586.131481090362
 30
0.0
 11
-260.8445354139905
 21
-1583.134216232834
 31
0.0
  0
LINE
  5
124
330
74
100
AcDbEntity
  8
0
 62
     0
100
AcDbLine
 10
-263.6718850197829
 20
-1585.608012448033
 30
0.0
 11
-261.462335157703
 21
-1583.398462585954
 31
0.0
  0
LINE
  5
125
330
74
100
AcDbEntity
  8
0
 62
     0
100
AcDbLine
 10
-263.7205175805633
 20
-1585.30309161822
 30
0.0
 11
-262.0801349014155
 21
-1583.662708939073
 31
0.0
  0
LINE
  5
126
330
74
100
AcDbEntity
  8
0
 62
     0
100
AcDbLine
 10
-263.7862105539824
 20
-1585.015231201046
 30
0.0
 11
-262.6979346451281
 21
-1583.926955292192
 31
0.0
  0
LINE
  5
127
330
74
100
AcDbEntity
  8
0
 62
     0
100
AcDbLine
 10
-263.8519035274015
 20
-1584.727370783872
 30
0.0
 11
-263.3157343888407
 21
-1584.191201645311
 31
0.0
  0
LINE
  5
128
330
74
100
AcDbEntity
  8
0
 62
     0
100
AcDbLine
 10
-220.194073559732
 20
-1620.265500309096
 30
0.0
 11
-218.9221010780471
 21
-1618.993527827411
 31
0.0
  0
LINE
  5
129
330
74
100
AcDbEntity
  8
0
 62
     0
100
AcDbLine
 10
-220.3540483363449
 20
-1620.779028476302
 30
0.0
 11
-217.6192177104964
 21
-1618.044197850453
 31
0.0
  0
LINE
  5
12A
330
74
100
AcDbEntity
  8
0
 62
     0
100
AcDbLine
 10
-220.5140231129578
 20
-1621.292556643508
 30
0.0
 11
-216.3163343429458
 21
-1617.094867873496
 31
0.0
  0
LINE
  5
12B
330
74
100
AcDbEntity
  8
0
 62
     0
100
AcDbLine
 10
-220.3461634699237
 20
-1621.478250391067
 30
0.0
 11
-215.0134509753951
 21
-1616.145537896539
 31
0.0
  0
LINE
  5
12C
330
74
100
AcDbEntity
  8
0
 62
     0
100
AcDbLine
 10
-220.0304300638469
 20
-1621.516070375584
 30
0.0
 11
-213.7105676078445
 21
-1615.196207919581
 31
0.0
  0
LINE
  5
12D
330
74
100
AcDbEntity
  8
0
 62
     0
100
AcDbLine
 10
-219.71469665777
 20
-1621.5538903601
 30
0.0
 11
-212.4076842402938
 21
-1614.246877942624
 31
0.0
  0
LINE
  5
12E
330
74
100
AcDbEntity
  8
0
 62
     0
100
AcDbLine
 10
-219.3989632516931
 20
-1621.591710344616
 30
0.0
 11
-211.1048008727432
 21
-1613.297547965667
 31
0.0
  0
LINE
  5
12F
330
74
100
AcDbEntity
  8
0
 62
     0
100
AcDbLine
 10
-219.0832298456162
 20
-1621.629530329133
 30
0.0
 11
-209.8019175051925
 21
-1612.348217988709
 31
0.0
  0
LINE
  5
130
330
74
100
AcDbEntity
  8
0
 62
     0
100
AcDbLine
 10
-218.7674964395393
 20
-1621.667350313649
 30
0.0
 11
-209.1246468651394
 21
-1612.024500739249
 31
0.0
  0
LINE
  5
131
330
74
100
AcDbEntity
  8
0
 62
     0
100
AcDbLine
 10
-218.4517630334624
 20
-1621.705170298166
 30
0.0
 11
-208.7284779358472
 21
-1611.98188520055
 31
0.0
  0
LINE
  5
132
330
74
100
AcDbEntity
  8
0
 62
     0
100
AcDbLine
 10
-218.1360296273855
 20
-1621.742990282682
 30
0.0
 11
-208.3323090065551
 21
-1611.939269661851
 31
0.0
  0
LINE
  5
133
330
74
100
AcDbEntity
  8
0
 62
     0
100
AcDbLine
 10
-217.8202962213086
 20
-1621.780810267199
 30
0.0
 11
-207.9361400772629
 21
-1611.896654123153
 31
0.0
  0
LINE
  5
134
330
74
100
AcDbEntity
  8
0
 62
     0
100
AcDbLine
 10
-217.1377926745699
 20
-1621.451860111053
 30
0.0
 11
-207.5399711479707
 21
-1611.854038584453
 31
0.0
  0
LINE
  5
135
330
74
100
AcDbEntity
  8
0
 62
     0
100
AcDbLine
 10
-215.6583451826556
 20
-1620.325966009732
 30
0.0
 11
-207.1438022186785
 21
-1611.811423045755
 31
0.0
  0
LINE
  5
136
330
74
100
AcDbEntity
  8
0
 62
     0
100
AcDbLine
 10
-214.1788976907413
 20
-1619.200071908411
 30
0.0
 11
-206.7476332893864
 21
-1611.768807507056
 31
0.0
  0
LINE
  5
137
330
74
100
AcDbEntity
  8
0
 62
     0
100
AcDbLine
 10
-212.699450198827
 20
-1618.07417780709
 30
0.0
 11
-206.3514643600942
 21
-1611.726191968357
 31
0.0
  0
LINE
  5
138
330
74
100
AcDbEntity
  8
0
 62
     0
100
AcDbLine
 10
-221.2695037590635
 20
-1626.99778475792
 30
0.0
 11
-219.1370895446216
 21
-1624.865370543478
 31
0.0
  0
LINE
  5
139
330
74
100
AcDbEntity
  8
0
 62
     0
100
AcDbLine
 10
-211.2200027069127
 20
-1616.948283705769
 30
0.0
 11
-205.955295430802
 21
-1611.683576429658
 31
0.0
  0
LINE
  5
13A
330
74
100
AcDbEntity
  8
0
 62
     0
100
AcDbLine
 10
-221.0803770865696
 20
-1627.162211476019
 30
0.0
 11
-218.4562972888138
 21
-1624.538131678263
 31
0.0
  0
LINE
  5
13B
330
74
100
AcDbEntity
  8
0
 62
     0
100
AcDbLine
 10
-209.7405552149984
 20
-1615.822389604448
 30
0.0
 11
-205.5954345263161
 21
-1611.677268915765
 31
0.0
  0
LINE
  5
13C
330
74
100
AcDbEntity
  8
0
 62
     0
100
AcDbLine
 10
-220.8912504140757
 20
-1627.326638194119
 30
0.0
 11
-218.1955910725245
 21
-1624.630978852567
 31
0.0
  0
LINE
  5
13D
330
74
100
AcDbEntity
  8
0
 62
     0
100
AcDbLine
 10
-208.2611077230841
 20
-1614.696495503127
 30
0.0
 11
-206.3523548470167
 21
-1612.787742627059
 31
0.0
  0
LINE
  5
13E
330
74
100
AcDbEntity
  8
0
 62
     0
100
AcDbLine
 10
-220.7021237415818
 20
-1627.491064912218
 30
0.0
 11
-217.9348848562352
 21
-1624.723826026871
 31
0.0
  0
LINE
  5
13F
330
74
100
AcDbEntity
  8
0
 62
     0
100
AcDbLine
 10
-220.5129970690879
 20
-1627.655491630317
 30
0.0
 11
-217.6741786399458
 21
-1624.816673201175
 31
0.0
  0
LINE
  5
140
330
74
100
AcDbEntity
  8
0
 62
     0
100
AcDbLine
 10
-220.323870396594
 20
-1627.819918348417
 30
0.0
 11
-217.4134724236565
 21
-1624.909520375479
 31
0.0
  0
LINE
  5
141
330
74
100
AcDbEntity
  8
0
 62
     0
100
AcDbLine
 10
-220.1347437241001
 20
-1627.984345066516
 30
0.0
 11
-217.7255881329723
 21
-1625.575189475388
 31
0.0
  0
LINE
  5
142
330
74
100
AcDbEntity
  8
0
 62
     0
100
AcDbLine
 10
-219.9456170516063
 20
-1628.148771784615
 30
0.0
 11
-219.1002030722954
 21
-1627.303357805304
 31
0.0
  0
LINE
  5
143
330
74
100
AcDbEntity
  8
0
 62
     0
100
AcDbLine
 10
-218.0533987429056
 20
-1631.913407725407
 30
0.0
 11
-216.8240908607374
 21
-1630.684099843239
 31
0.0
  0
LINE
  5
144
330
74
100
AcDbEntity
  8
0
 62
     0
100
AcDbLine
 10
-217.9851903758345
 20
-1632.198752748929
 30
0.0
 11
-216.4702217463363
 21
-1630.683784119431
 31
0.0
  0
LINE
  5
145
330
74
100
AcDbEntity
  8
0
 62
     0
100
AcDbLine
 10
-217.9169820087633
 20
-1632.484097772452
 30
0.0
 11
-216.1163526319352
 21
-1630.683468395623
 31
0.0
  0
LINE
  5
146
330
74
100
AcDbEntity
  8
0
 62
     0
100
AcDbLine
 10
-217.8487736416922
 20
-1632.769442795973
 30
0.0
 11
-215.7624835175341
 21
-1630.683152671815
 31
0.0
  0
LINE
  5
147
330
74
100
AcDbEntity
  8
0
 62
     0
100
AcDbLine
 10
-217.6491670504855
 20
-1632.92338959536
 30
0.0
 11
-215.408614403133
 21
-1630.682836948007
 31
0.0
  0
LINE
  5
148
330
74
100
AcDbEntity
  8
0
 62
     0
100
AcDbLine
 10
-217.0726527669385
 20
-1632.700428702406
 30
0.0
 11
-215.100886211751
 21
-1630.728662147219
 31
0.0
  0
LINE
  5
149
330
74
100
AcDbEntity
  8
0
 62
     0
100
AcDbLine
 10
-216.4961384833915
 20
-1632.477467809453
 30
0.0
 11
-214.9239517953957
 21
-1630.905281121457
 31
0.0
  0
LINE
  5
14A
330
74
100
AcDbEntity
  8
0
 62
     0
100
AcDbLine
 10
-215.9196241998445
 20
-1632.254506916499
 30
0.0
 11
-214.7470173790403
 21
-1631.081900095695
 31
0.0
  0
LINE
  5
14B
330
74
100
AcDbEntity
  8
0
 62
     0
100
AcDbLine
 10
-215.3431099162975
 20
-1632.031546023545
 30
0.0
 11
-214.570082962685
 21
-1631.258519069933
 31
0.0
  0
LINE
  5
14C
330
74
100
AcDbEntity
  8
0
 62
     0
100
AcDbLine
 10
-214.7665956327505
 20
-1631.808585130591
 30
0.0
 11
-214.3931485463296
 21
-1631.43513804417
 31
0.0
  0
LINE
  5
14D
330
74
100
AcDbEntity
  8
0
 62
     0
100
AcDbLine
 10
-210.5481047884129
 20
-1655.520812143123
 30
0.0
 11
-210.2702607287368
 21
-1655.242968083447
 31
0.0
  0
LINE
  5
14E
330
74
100
AcDbEntity
  8
0
 62
     0
100
AcDbLine
 10
-210.7744093758157
 20
-1656.100670121119
 30
0.0
 11
-209.9597517727882
 21
-1655.286012518091
 31
0.0
  0
LINE
  5
14F
330
74
100
AcDbEntity
  8
0
 62
     0
100
AcDbLine
 10
-211.0007139632184
 20
-1656.680528099115
 30
0.0
 11
-209.6492428168395
 21
-1655.329056952736
 31
0.0
  0
LINE
  5
150
330
74
100
AcDbEntity
  8
0
 62
     0
100
AcDbLine
 10
-211.2270185506212
 20
-1657.26038607711
 30
0.0
 11
-209.338733860891
 21
-1655.37210138738
 31
0.0
  0
LINE
  5
151
330
74
100
AcDbEntity
  8
0
 62
     0
100
AcDbLine
 10
-211.100852299944
 20
-1657.487773217027
 30
0.0
 11
-209.0282249049423
 21
-1655.415145822025
 31
0.0
  0
LINE
  5
152
330
74
100
AcDbEntity
  8
0
 62
     0
100
AcDbLine
 10
-210.5748009099926
 20
-1657.315275217668
 30
0.0
 11
-208.7177159489937
 21
-1655.45819025667
 31
0.0
  0
LINE
  5
153
330
74
100
AcDbEntity
  8
0
 62
     0
100
AcDbLine
 10
-210.0487495200413
 20
-1657.14277721831
 30
0.0
 11
-208.4072069930451
 21
-1655.501234691314
 31
0.0
  0
LINE
  5
154
330
74
100
AcDbEntity
  8
0
 62
     0
100
AcDbLine
 10
-209.5226981300899
 20
-1656.970279218952
 30
0.0
 11
-208.0966980370965
 21
-1655.544279125959
 31
0.0
  0
LINE
  5
155
330
74
100
AcDbEntity
  8
0
 62
     0
100
AcDbLine
 10
-208.9966467401386
 20
-1656.797781219594
 30
0.0
 11
-207.7861890811479
 21
-1655.587323560604
 31
0.0
  0
LINE
  5
156
330
74
100
AcDbEntity
  8
0
 62
     0
100
AcDbLine
 10
-208.4705953501873
 20
-1656.625283220236
 30
0.0
 11
-207.4756801251993
 21
-1655.630367995248
 31
0.0
  0
LINE
  5
157
330
74
100
AcDbEntity
  8
0
 62
     0
100
AcDbLine
 10
-207.9445439602359
 20
-1656.452785220878
 30
0.0
 11
-207.1651711692507
 21
-1655.673412429893
 31
0.0
  0
LINE
  5
158
330
74
100
AcDbEntity
  8
0
 62
     0
100
AcDbLine
 10
-207.4184925702845
 20
-1656.28028722152
 30
0.0
 11
-206.8546622133021
 21
-1655.716456864538
 31
0.0
  0
LINE
  5
159
330
74
100
AcDbEntity
  8
0
 62
     0
100
AcDbLine
 10
-206.8924411803332
 20
-1656.107789222162
 30
0.0
 11
-206.5441532573534
 21
-1655.759501299182
 31
0.0
  0
LINE
  5
15A
330
74
100
AcDbEntity
  8
0
 62
     0
100
AcDbLine
 10
-206.3663897903818
 20
-1655.935291222804
 30
0.0
 11
-206.2336443014048
 21
-1655.802545733827
 31
0.0
  0
LINE
  5
15B
330
74
100
AcDbEntity
  8
0
 62
     0
100
AcDbLine
 10
-213.0920549542686
 20
-1671.146237760929
 30
0.0
 11
-212.5948602002587
 21
-1670.649043006919
 31
0.0
  0
LINE
  5
15C
330
74
100
AcDbEntity
  8
0
 62
     0
100
AcDbLine
 10
-212.9936568781344
 20
-1671.401393075388
 30
0.0
 11
-211.8861719755694
 21
-1670.293908172823
 31
0.0
  0
LINE
  5
15D
330
74
100
AcDbEntity
  8
0
 62
     0
100
AcDbLine
 10
-212.8952588020001
 20
-1671.656548389847
 30
0.0
 11
-211.17748375088
 21
-1669.938773338727
 31
0.0
  0
LINE
  5
15E
330
74
100
AcDbEntity
  8
0
 62
     0
100
AcDbLine
 10
-212.7968607258658
 20
-1671.911703704306
 30
0.0
 11
-210.4687955261906
 21
-1669.583638504631
 31
0.0
  0
LINE
  5
15F
330
74
100
AcDbEntity
  8
0
 62
     0
100
AcDbLine
 10
-212.6984626497316
 20
-1672.166859018765
 30
0.0
 11
-209.7601073015013
 21
-1669.228503670535
 31
0.0
  0
LINE
  5
160
330
74
100
AcDbEntity
  8
0
 62
     0
100
AcDbLine
 10
-212.201420622079
 20
-1672.023370381706
 30
0.0
 11
-209.051419076812
 21
-1668.873368836439
 31
0.0
  0
LINE
  5
161
330
74
100
AcDbEntity
  8
0
 62
     0
100
AcDbLine
 10
-211.4571806412413
 20
-1671.632683791462
 30
0.0
 11
-208.8792640344313
 21
-1669.054767184652
 31
0.0
  0
LINE
  5
162
330
74
100
AcDbEntity
  8
0
 62
     0
100
AcDbLine
 10
-210.7129406604038
 20
-1671.241997201217
 30
0.0
 11
-208.7578724776292
 21
-1669.286929018443
 31
0.0
  0
LINE
  5
163
330
74
100
AcDbEntity
  8
0
 62
     0
100
AcDbLine
 10
-209.9687006795661
 20
-1670.851310610973
 30
0.0
 11
-208.6364809208272
 21
-1669.519090852234
 31
0.0
  0
LINE
  5
164
330
74
100
AcDbEntity
  8
0
 62
     0
100
AcDbLine
 10
-209.2244606987285
 20
-1670.460624020728
 30
0.0
 11
-208.5150893640251
 21
-1669.751252686025
 31
0.0
  0
LINE
  5
165
330
74
100
AcDbEntity
  8
0
 62
     0
100
AcDbLine
 10
-208.4802207178909
 20
-1670.069937430485
 30
0.0
 11
-208.3936978072231
 21
-1669.983414519816
 31
0.0
  0
ENDBLK
  5
166
330
74
100
AcDbEntity
  8
0
100
AcDbBlockEnd
  0
BLOCK
  5
167
330
75
100
AcDbEntity
  8
0
100
AcDbBlockBegin
  2
*X2
 70
     1
 10
0.0
 20
0.0
 30
0.0
  3
*X2
  1

  0
LINE
  5
168
330
75
100
AcDbEntity
  8
0
 62
     0
100
AcDbLine
 10
-261.9481698564202
 20
-1683.586353431974
 30
0.0
 11
-261.4429220652985
 21
-1683.081105640852
 31
0.0
  0
LINE
  5
169
330
75
100
AcDbEntity
  8
0
 62
     0
100
AcDbLine
 10
-262.1965810569679
 20
-1683.481211241928
 30
0.0
 11
-262.1894796907402
 21
-1683.474109875701
 31
0.0
  0
LINE
  5
16A
330
75
100
AcDbEntity
  8
0
 62
     0
100
AcDbLine
 10
-262.3901939371559
 20
-1683.321270731523
 30
0.0
 11
-261.6928006215982
 21
-1682.623877415965
 31
0.0
  0
LINE
  5
16B
330
75
100
AcDbEntity
  8
0
 62
     0
100
AcDbLine
 10
-262.5838068173438
 20
-1683.161330221118
 30
0.0
 11
-261.1961215524562
 21
-1681.77364495623
 31
0.0
  0
LINE
  5
16C
330
75
100
AcDbEntity
  8
0
 62
     0
100
AcDbLine
 10
-259.9443503678091
 20
-1680.521873771583
 30
0.0
 11
-258.4096646510608
 21
-1678.987188054834
 31
0.0
  0
LINE
  5
16D
330
75
100
AcDbEntity
  8
0
 62
     0
100
AcDbLine
 10
-262.7774196975318
 20
-1683.001389710712
 30
0.0
 11
-258.4646732279062
 21
-1678.688643241087
 31
0.0
  0
LINE
  5
16E
330
75
100
AcDbEntity
  8
0
 62
     0
100
AcDbLine
 10
-262.9710325777198
 20
-1682.841449200307
 30
0.0
 11
-258.5196818047516
 21
-1678.390098427338
 31
0.0
  0
LINE
  5
16F
330
75
100
AcDbEntity
  8
0
 62
     0
100
AcDbLine
 10
-263.1646454579077
 20
-1682.681508689902
 30
0.0
 11
-258.574690381597
 21
-1678.09155361359
 31
0.0
  0
LINE
  5
170
330
75
100
AcDbEntity
  8
0
 62
     0
100
AcDbLine
 10
-263.3582583380956
 20
-1682.521568179496
 30
0.0
 11
-258.6296989584424
 21
-1677.793008799843
 31
0.0
  0
LINE
  5
171
330
75
100
AcDbEntity
  8
0
 62
     0
100
AcDbLine
 10
-263.5518712182836
 20
-1682.361627669091
 30
0.0
 11
-258.6847075352878
 21
-1677.494463986095
 31
0.0
  0
LINE
  5
172
330
75
100
AcDbEntity
  8
0
 62
     0
100
AcDbLine
 10
-263.7454840984716
 20
-1682.201687158686
 30
0.0
 11
-258.7397161121332
 21
-1677.195919172347
 31
0.0
  0
LINE
  5
173
330
75
100
AcDbEntity
  8
0
 62
     0
100
AcDbLine
 10
-263.9390969786596
 20
-1682.04174664828
 30
0.0
 11
-258.7947246889786
 21
-1676.897374358599
 31
0.0
  0
LINE
  5
174
330
75
100
AcDbEntity
  8
0
 62
     0
100
AcDbLine
 10
-264.1327098588476
 20
-1681.881806137875
 30
0.0
 11
-258.849733265824
 21
-1676.598829544851
 31
0.0
  0
LINE
  5
175
330
75
100
AcDbEntity
  8
0
 62
     0
100
AcDbLine
 10
-264.3263227390355
 20
-1681.72186562747
 30
0.0
 11
-258.9047418426694
 21
-1676.300284731103
 31
0.0
  0
LINE
  5
176
330
75
100
AcDbEntity
  8
0
 62
     0
100
AcDbLine
 10
-264.5199356192235
 20
-1681.561925117064
 30
0.0
 11
-259.0443799219281
 21
-1676.086369419769
 31
0.0
  0
LINE
  5
177
330
75
100
AcDbEntity
  8
0
 62
     0
100
AcDbLine
 10
-264.7135484994115
 20
-1681.401984606659
 30
0.0
 11
-259.2925098066747
 21
-1675.980945913923
 31
0.0
  0
LINE
  5
178
330
75
100
AcDbEntity
  8
0
 62
     0
100
AcDbLine
 10
-264.9071613795994
 20
-1681.242044096254
 30
0.0
 11
-259.5406396914214
 21
-1675.875522408076
 31
0.0
  0
LINE
  5
179
330
75
100
AcDbEntity
  8
0
 62
     0
100
AcDbLine
 10
-265.1007742597874
 20
-1681.082103585849
 30
0.0
 11
-259.7887695761681
 21
-1675.770098902229
 31
0.0
  0
LINE
  5
17A
330
75
100
AcDbEntity
  8
0
 62
     0
100
AcDbLine
 10
-265.1658693933198
 20
-1680.793645328787
 30
0.0
 11
-260.0368994609148
 21
-1675.664675396383
 31
0.0
  0
LINE
  5
17B
330
75
100
AcDbEntity
  8
0
 62
     0
100
AcDbLine
 10
-265.1795033231385
 20
-1680.453725868013
 30
0.0
 11
-260.2850293456615
 21
-1675.559251890536
 31
0.0
  0
LINE
  5
17C
330
75
100
AcDbEntity
  8
0
 62
     0
100
AcDbLine
 10
-265.1931372529572
 20
-1680.113806407238
 30
0.0
 11
-260.5331592304082
 21
-1675.453828384689
 31
0.0
  0
LINE
  5
17D
330
75
100
AcDbEntity
  8
0
 62
     0
100
AcDbLine
 10
-265.2067711827759
 20
-1679.773886946464
 30
0.0
 11
-260.7812891151549
 21
-1675.348404878843
 31
0.0
  0
LINE
  5
17E
330
75
100
AcDbEntity
  8
0
 62
     0
100
AcDbLine
 10
-265.2204051125946
 20
-1679.433967485689
 30
0.0
 11
-261.0294189999015
 21
-1675.242981372996
 31
0.0
  0
LINE
  5
17F
330
75
100
AcDbEntity
  8
0
 62
     0
100
AcDbLine
 10
-265.2340390424133
 20
-1679.094048024915
 30
0.0
 11
-261.2775488846482
 21
-1675.13755786715
 31
0.0
  0
LINE
  5
180
330
75
100
AcDbEntity
  8
0
 62
     0
100
AcDbLine
 10
-265.2476729722321
 20
-1678.754128564141
 30
0.0
 11
-261.5256787693949
 21
-1675.032134361303
 31
0.0
  0
LINE
  5
181
330
75
100
AcDbEntity
  8
0
 62
     0
100
AcDbLine
 10
-265.2468699225821
 20
-1678.399772123897
 30
0.0
 11
-261.8602752168517
 21
-1675.013177418167
 31
0.0
  0
LINE
  5
182
330
75
100
AcDbEntity
  8
0
 62
     0
100
AcDbLine
 10
-265.015849607707
 20
-1677.815198418429
 30
0.0
 11
-262.3705258165393
 21
-1675.169874627261
 31
0.0
  0
LINE
  5
183
330
75
100
AcDbEntity
  8
0
 62
     0
100
AcDbLine
 10
-264.7848292928318
 20
-1677.23062471296
 30
0.0
 11
-262.8807764162269
 21
-1675.326571836355
 31
0.0
  0
LINE
  5
184
330
75
100
AcDbEntity
  8
0
 62
     0
100
AcDbLine
 10
-264.5538089779565
 20
-1676.646051007492
 30
0.0
 11
-263.3910270159145
 21
-1675.483269045449
 31
0.0
  0
LINE
  5
185
330
75
100
AcDbEntity
  8
0
 62
     0
100
AcDbLine
 10
-264.3227886630813
 20
-1676.061477302023
 30
0.0
 11
-263.901277615602
 21
-1675.639966254544
 31
0.0
  0
LINE
  5
186
330
75
100
AcDbEntity
  8
0
 62
     0
100
AcDbLine
 10
-261.6991890594071
 20
-1683.690926025554
 30
0.0
 11
-260.6834417221055
 21
-1682.675178688252
 31
0.0
  0
LINE
  5
187
330
75
100
AcDbEntity
  8
0
 62
     0
100
AcDbLine
 10
-261.4502082623939
 20
-1683.795498619134
 30
0.0
 11
-259.9239613789125
 21
-1682.269251735652
 31
0.0
  0
LINE
  5
188
330
75
100
AcDbEntity
  8
0
 62
     0
100
AcDbLine
 10
-261.2012274653806
 20
-1683.900071212714
 30
0.0
 11
-259.1644810357195
 21
-1681.863324783053
 31
0.0
  0
LINE
  5
189
330
75
100
AcDbEntity
  8
0
 62
     0
100
AcDbLine
 10
-260.9522466683674
 20
-1684.004643806294
 30
0.0
 11
-258.8440558107263
 21
-1681.896452948653
 31
0.0
  0
LINE
  5
18A
330
75
100
AcDbEntity
  8
0
 62
     0
100
AcDbLine
 10
-260.7032658713542
 20
-1684.109216399874
 30
0.0
 11
-258.541587380238
 21
-1681.947537908758
 31
0.0
  0
LINE
  5
18B
330
75
100
AcDbEntity
  8
0
 62
     0
100
AcDbLine
 10
-260.454285074341
 20
-1684.213788993454
 30
0.0
 11
-258.2391189497497
 21
-1681.998622868863
 31
0.0
  0
LINE
  5
18C
330
75
100
AcDbEntity
  8
0
 62
     0
100
AcDbLine
 10
-260.2053042773278
 20
-1684.318361587034
 30
0.0
 11
-257.9366505192614
 21
-1682.049707828968
 31
0.0
  0
LINE
  5
18D
330
75
100
AcDbEntity
  8
0
 62
     0
100
AcDbLine
 10
-259.9563234803146
 20
-1684.422934180614
 30
0.0
 11
-257.634182088773
 21
-1682.100792789073
 31
0.0
  0
LINE
  5
18E
330
75
100
AcDbEntity
  8
0
 62
     0
100
AcDbLine
 10
-259.7073426833014
 20
-1684.527506774194
 30
0.0
 11
-257.3317136582848
 21
-1682.151877749178
 31
0.0
  0
LINE
  5
18F
330
75
100
AcDbEntity
  8
0
 62
     0
100
AcDbLine
 10
-259.4583618862882
 20
-1684.632079367775
 30
0.0
 11
-257.0292452277965
 21
-1682.202962709283
 31
0.0
  0
LINE
  5
190
330
75
100
AcDbEntity
  8
0
 62
     0
100
AcDbLine
 10
-259.1504953913877
 20
-1684.677766263467
 30
0.0
 11
-256.7267767973082
 21
-1682.254047669388
 31
0.0
  0
LINE
  5
191
330
75
100
AcDbEntity
  8
0
 62
     0
100
AcDbLine
 10
-258.7080403727783
 20
-1684.588864635451
 30
0.0
 11
-256.42859435376
 21
-1682.309418616433
 31
0.0
  0
LINE
  5
192
330
75
100
AcDbEntity
  8
0
 62
     0
100
AcDbLine
 10
-258.2655853541688
 20
-1684.499963007435
 30
0.0
 11
-256.3543838822852
 21
-1682.588761535551
 31
0.0
  0
LINE
  5
193
330
75
100
AcDbEntity
  8
0
 62
     0
100
AcDbLine
 10
-262.8243886945659
 20
-1689.412319738425
 30
0.0
 11
-261.8452007795594
 21
-1688.433131823419
 31
0.0
  0
LINE
  5
194
330
75
100
AcDbEntity
  8
0
 62
     0
100
AcDbLine
 10
-257.8231303355594
 20
-1684.411061379419
 30
0.0
 11
-256.2801734108105
 21
-1682.86810445467
 31
0.0
  0
LINE
  5
195
330
75
100
AcDbEntity
  8
0
 62
     0
100
AcDbLine
 10
-262.6058509947575
 20
-1689.54733542921
 30
0.0
 11
-260.4469161850284
 21
-1687.388400619481
 31
0.0
  0
LINE
  5
196
330
75
100
AcDbEntity
  8
0
 62
     0
100
AcDbLine
 10
-257.3806753169499
 20
-1684.322159751403
 30
0.0
 11
-256.2059629393358
 21
-1683.147447373788
 31
0.0
  0
LINE
  5
197
330
75
100
AcDbEntity
  8
0
 62
     0
100
AcDbLine
 10
-262.3873132949491
 20
-1689.682351119995
 30
0.0
 11
-259.8486156387531
 21
-1687.143653463799
 31
0.0
  0
LINE
  5
198
330
75
100
AcDbEntity
  8
0
 62
     0
100
AcDbLine
 10
-256.9382202983405
 20
-1684.233258123386
 30
0.0
 11
-256.131752467861
 21
-1683.426790292907
 31
0.0
  0
LINE
  5
199
330
75
100
AcDbEntity
  8
0
 62
     0
100
AcDbLine
 10
-262.1687755951407
 20
-1689.81736681078
 30
0.0
 11
-259.6293453302665
 21
-1687.277936545906
 31
0.0
  0
LINE
  5
19A
330
75
100
AcDbEntity
  8
0
 62
     0
100
AcDbLine
 10
-256.495765279731
 20
-1684.14435649537
 30
0.0
 11
-256.0575419963863
 21
-1683.706133212026
 31
0.0
  0
LINE
  5
19B
330
75
100
AcDbEntity
  8
0
 62
     0
100
AcDbLine
 10
-261.9502378953324
 20
-1689.952382501564
 30
0.0
 11
-259.41007502178
 21
-1687.412219628012
 31
0.0
  0
LINE
  5
19C
330
75
100
AcDbEntity
  8
0
 62
     0
100
AcDbLine
 10
-256.0533102611216
 20
-1684.055454867354
 30
0.0
 11
-255.9833315249115
 21
-1683.985476131144
 31
0.0
  0
LINE
  5
19D
330
75
100
AcDbEntity
  8
0
 62
     0
100
AcDbLine
 10
-261.6317944613544
 20
-1689.98749245818
 30
0.0
 11
-259.1908047132934
 21
-1687.546502710119
 31
0.0
  0
LINE
  5
19E
330
75
100
AcDbEntity
  8
0
 62
     0
100
AcDbLine
 10
-261.305166635342
 20
-1690.014418022761
 30
0.0
 11
-258.971534404807
 21
-1687.680785792226
 31
0.0
  0
LINE
  5
19F
330
75
100
AcDbEntity
  8
0
 62
     0
100
AcDbLine
 10
-260.9785388093298
 20
-1690.041343587342
 30
0.0
 11
-258.7522640963204
 21
-1687.815068874333
 31
0.0
  0
LINE
  5
1A0
330
75
100
AcDbEntity
  8
0
 62
     0
100
AcDbLine
 10
-260.6519109833175
 20
-1690.068269151923
 30
0.0
 11
-258.5329937878338
 21
-1687.949351956439
 31
0.0
  0
LINE
  5
1A1
330
75
100
AcDbEntity
  8
0
 62
     0
100
AcDbLine
 10
-260.3252831573052
 20
-1690.095194716504
 30
0.0
 11
-258.3137234793473
 21
-1688.083635038546
 31
0.0
  0
LINE
  5
1A2
330
75
100
AcDbEntity
  8
0
 62
     0
100
AcDbLine
 10
-259.9986553312929
 20
-1690.122120281085
 30
0.0
 11
-258.0944531708608
 21
-1688.217918120653
 31
0.0
  0
LINE
  5
1A3
330
75
100
AcDbEntity
  8
0
 62
     0
100
AcDbLine
 10
-259.6720275052807
 20
-1690.149045845666
 30
0.0
 11
-257.8751828623743
 21
-1688.35220120276
 31
0.0
  0
ENDBLK
  5
1A4
330
75
100
AcDbEntity
  8
0
100
AcDbBlockEnd
  0
BLOCK
  5
1A5
330
76
100
AcDbEntity
  8
0
100
AcDbBlockBegin
  2
*X3
 70
     1
 10
0.0
 20
0.0
 30
0.0
  3
*X3
  1

  0
LINE
  5
1A6
330
76
100
AcDbEntity
  8
0
 62
     0
100
AcDbLine
 10
-253.5738674232662
 20
-1697.485914606196
 30
0.0
 11
-253.3816235403088
 21
-1697.293670723238
 31
0.0
  0
LINE
  5
1A7
330
76
100
AcDbEntity
  8
0
 62
     0
100
AcDbLine
 10
-254.1767321462103
 20
-1697.735225938547
 30
0.0
 11
-253.6231705564789
 21
-1697.181664348815
 31
0.0
  0
LINE
  5
1A8
330
76
100
AcDbEntity
  8
0
 62
     0
100
AcDbLine
 10
-254.7795968691544
 20
-1697.984537270898
 30
0.0
 11
-253.864717572649
 21
-1697.069657974392
 31
0.0
  0
LINE
  5
1A9
330
76
100
AcDbEntity
  8
0
 62
     0
100
AcDbLine
 10
-255.3824615920985
 20
-1698.233848603248
 30
0.0
 11
-254.1062645888191
 21
-1696.957651599969
 31
0.0
  0
LINE
  5
1AA
330
76
100
AcDbEntity
  8
0
 62
     0
100
AcDbLine
 10
-255.9853263150426
 20
-1698.483159935599
 30
0.0
 11
-254.3478116049891
 21
-1696.845645225546
 31
0.0
  0
LINE
  5
1AB
330
76
100
AcDbEntity
  8
0
 62
     0
100
AcDbLine
 10
-256.5881910379867
 20
-1698.73247126795
 30
0.0
 11
-254.5893586211592
 21
-1696.733638851123
 31
0.0
  0
LINE
  5
1AC
330
76
100
AcDbEntity
  8
0
 62
     0
100
AcDbLine
 10
-257.1910557609307
 20
-1698.981782600301
 30
0.0
 11
-254.8309056373293
 21
-1696.6216324767
 31
0.0
  0
LINE
  5
1AD
330
76
100
AcDbEntity
  8
0
 62
     0
100
AcDbLine
 10
-257.7939204838748
 20
-1699.231093932652
 30
0.0
 11
-255.0724526534994
 21
-1696.509626102276
 31
0.0
  0
LINE
  5
1AE
330
76
100
AcDbEntity
  8
0
 62
     0
100
AcDbLine
 10
-258.396785206819
 20
-1699.480405265003
 30
0.0
 11
-255.3139996696694
 21
-1696.397619727853
 31
0.0
  0
LINE
  5
1AF
330
76
100
AcDbEntity
  8
0
 62
     0
100
AcDbLine
 10
-258.999649929763
 20
-1699.729716597353
 30
0.0
 11
-255.5555466858395
 21
-1696.28561335343
 31
0.0
  0
LINE
  5
1B0
330
76
100
AcDbEntity
  8
0
 62
     0
100
AcDbLine
 10
-259.6025146527071
 20
-1699.979027929704
 30
0.0
 11
-255.7970937020096
 21
-1696.173606979006
 31
0.0
  0
LINE
  5
1B1
330
76
100
AcDbEntity
  8
0
 62
     0
100
AcDbLine
 10
-260.2053793756512
 20
-1700.228339262055
 30
0.0
 11
-256.0386407181797
 21
-1696.061600604583
 31
0.0
  0
LINE
  5
1B2
330
76
100
AcDbEntity
  8
0
 62
     0
100
AcDbLine
 10
-260.8082440985953
 20
-1700.477650594406
 30
0.0
 11
-256.2801877343497
 21
-1695.94959423016
 31
0.0
  0
LINE
  5
1B3
330
76
100
AcDbEntity
  8
0
 62
     0
100
AcDbLine
 10
-261.4111088215394
 20
-1700.726961926757
 30
0.0
 11
-256.5217347505198
 21
-1695.837587855737
 31
0.0
  0
LINE
  5
1B4
330
76
100
AcDbEntity
  8
0
 62
     0
100
AcDbLine
 10
-262.0139735444835
 20
-1700.976273259107
 30
0.0
 11
-256.7632817666899
 21
-1695.725581481314
 31
0.0
  0
LINE
  5
1B5
330
76
100
AcDbEntity
  8
0
 62
     0
100
AcDbLine
 10
-262.6168382674276
 20
-1701.225584591458
 30
0.0
 11
-257.2296009633573
 21
-1695.838347287388
 31
0.0
  0
LINE
  5
1B6
330
76
100
AcDbEntity
  8
0
 62
     0
100
AcDbLine
 10
-263.2197029903717
 20
-1701.474895923809
 30
0.0
 11
-257.8967849903191
 21
-1696.151977923756
 31
0.0
  0
LINE
  5
1B7
330
76
100
AcDbEntity
  8
0
 62
     0
100
AcDbLine
 10
-263.8225677133158
 20
-1701.72420725616
 30
0.0
 11
-258.563969017281
 21
-1696.465608560125
 31
0.0
  0
LINE
  5
1B8
330
76
100
AcDbEntity
  8
0
 62
     0
100
AcDbLine
 10
-264.4254324362598
 20
-1701.97351858851
 30
0.0
 11
-259.2311530442428
 21
-1696.779239196494
 31
0.0
  0
LINE
  5
1B9
330
76
100
AcDbEntity
  8
0
 62
     0
100
AcDbLine
 10
-265.0282971592039
 20
-1702.222829920861
 30
0.0
 11
-259.8983370712047
 21
-1697.092869832862
 31
0.0
  0
LINE
  5
1BA
330
76
100
AcDbEntity
  8
0
 62
     0
100
AcDbLine
 10
-265.631161882148
 20
-1702.472141253212
 30
0.0
 11
-260.5655210981665
 21
-1697.406500469231
 31
0.0
  0
LINE
  5
1BB
330
76
100
AcDbEntity
  8
0
 62
     0
100
AcDbLine
 10
-266.2340266050922
 20
-1702.721452585563
 30
0.0
 11
-261.2327051251284
 21
-1697.720131105599
 31
0.0
  0
LINE
  5
1BC
330
76
100
AcDbEntity
  8
0
 62
     0
100
AcDbLine
 10
-266.8368913280362
 20
-1702.970763917914
 30
0.0
 11
-261.8998891520903
 21
-1698.033761741968
 31
0.0
  0
LINE
  5
1BD
330
76
100
AcDbEntity
  8
0
 62
     0
100
AcDbLine
 10
-267.4397560509803
 20
-1703.220075250265
 30
0.0
 11
-262.5670731790521
 21
-1698.347392378337
 31
0.0
  0
LINE
  5
1BE
330
76
100
AcDbEntity
  8
0
 62
     0
100
AcDbLine
 10
-268.0426207739244
 20
-1703.469386582615
 30
0.0
 11
-263.234257206014
 21
-1698.661023014705
 31
0.0
  0
LINE
  5
1BF
330
76
100
AcDbEntity
  8
0
 62
     0
100
AcDbLine
 10
-268.6454854968685
 20
-1703.718697914966
 30
0.0
 11
-263.9014412329758
 21
-1698.974653651074
 31
0.0
  0
LINE
  5
1C0
330
76
100
AcDbEntity
  8
0
 62
     0
100
AcDbLine
 10
-269.2483502198125
 20
-1703.968009247317
 30
0.0
 11
-264.5686252599377
 21
-1699.288284287442
 31
0.0
  0
LINE
  5
1C1
330
76
100
AcDbEntity
  8
0
 62
     0
100
AcDbLine
 10
-269.6022477795478
 20
-1703.968353416459
 30
0.0
 11
-265.2358092868995
 21
-1699.601914923811
 31
0.0
  0
LINE
  5
1C2
330
76
100
AcDbEntity
  8
0
 62
     0
100
AcDbLine
 10
-269.6625115173239
 20
-1703.675063763642
 30
0.0
 11
-265.9029933138614
 21
-1699.91554556018
 31
0.0
  0
LINE
  5
1C3
330
76
100
AcDbEntity
  8
0
 62
     0
100
AcDbLine
 10
-269.7227752551
 20
-1703.381774110825
 30
0.0
 11
-266.5701773408232
 21
-1700.229176196548
 31
0.0
  0
LINE
  5
1C4
330
76
100
AcDbEntity
  8
0
 62
     0
100
AcDbLine
 10
-269.7830389928761
 20
-1703.088484458008
 30
0.0
 11
-267.2373613677851
 21
-1700.542806832916
 31
0.0
  0
LINE
  5
1C5
330
76
100
AcDbEntity
  8
0
 62
     0
100
AcDbLine
 10
-269.8433027306522
 20
-1702.79519480519
 30
0.0
 11
-267.904545394747
 21
-1700.856437469285
 31
0.0
  0
LINE
  5
1C6
330
76
100
AcDbEntity
  8
0
 62
     0
100
AcDbLine
 10
-269.9035664684284
 20
-1702.501905152373
 30
0.0
 11
-268.5717294217088
 21
-1701.170068105654
 31
0.0
  0
LINE
  5
1C7
330
76
100
AcDbEntity
  8
0
 62
     0
100
AcDbLine
 10
-269.9638302062045
 20
-1702.208615499556
 30
0.0
 11
-269.2389134486707
 21
-1701.483698742022
 31
0.0
  0
LINE
  5
1C8
330
76
100
AcDbEntity
  8
0
 62
     0
100
AcDbLine
 10
-262.6333449966387
 20
-1694.87813028999
 30
0.0
 11
-261.6951333442658
 21
-1693.939918637618
 31
0.0
  0
LINE
  5
1C9
330
76
100
AcDbEntity
  8
0
 62
     0
100
AcDbLine
 10
-270.0240939439806
 20
-1701.915325846739
 30
0.0
 11
-269.9060974756325
 21
-1701.797329378391
 31
0.0
  0
LINE
  5
1CA
330
76
100
AcDbEntity
  8
0
 62
     0
100
AcDbLine
 10
-263.0598196593719
 20
-1694.95105156213
 30
0.0
 11
-261.1158644209945
 21
-1693.007096323753
 31
0.0
  0
LINE
  5
1CB
330
76
100
AcDbEntity
  8
0
 62
     0
100
AcDbLine
 10
-263.4862943221051
 20
-1695.02397283427
 30
0.0
 11
-260.9795428085341
 21
-1692.517221320699
 31
0.0
  0
LINE
  5
1CC
330
76
100
AcDbEntity
  8
0
 62
     0
100
AcDbLine
 10
-260.9795428085341
 20
-1692.517221320699
 30
0.0
 11
-260.4548941749551
 21
-1691.99257268712
 31
0.0
  0
LINE
  5
1CD
330
76
100
AcDbEntity
  8
0
 62
     0
100
AcDbLine
 10
-263.9127689848383
 20
-1695.09689410641
 30
0.0
 11
-261.3425526126745
 21
-1692.526677734246
 31
0.0
  0
LINE
  5
1CE
330
76
100
AcDbEntity
  8
0
 62
     0
100
AcDbLine
 10
-261.3425526126745
 20
-1692.526677734246
 30
0.0
 11
-260.1932662260127
 21
-1691.377391347584
 31
0.0
  0
LINE
  5
1CF
330
76
100
AcDbEntity
  8
0
 62
     0
100
AcDbLine
 10
-264.3392436475715
 20
-1695.16981537855
 30
0.0
 11
-261.7055624168148
 21
-1692.536134147793
 31
0.0
  0
LINE
  5
1D0
330
76
100
AcDbEntity
  8
0
 62
     0
100
AcDbLine
 10
-261.7055624168148
 20
-1692.536134147793
 30
0.0
 11
-260.5200428911879
 21
-1691.350614622166
 31
0.0
  0
LINE
  5
1D1
330
76
100
AcDbEntity
  8
0
 62
     0
100
AcDbLine
 10
-264.7657183103048
 20
-1695.24273665069
 30
0.0
 11
-262.0685722209552
 21
-1692.545590561341
 31
0.0
  0
LINE
  5
1D2
330
76
100
AcDbEntity
  8
0
 62
     0
100
AcDbLine
 10
-262.0685722209552
 20
-1692.545590561341
 30
0.0
 11
-260.846819556363
 21
-1691.323837896748
 31
0.0
  0
LINE
  5
1D3
330
76
100
AcDbEntity
  8
0
 62
     0
100
AcDbLine
 10
-265.192192973038
 20
-1695.31565792283
 30
0.0
 11
-262.4315820250956
 21
-1692.555046974888
 31
0.0
  0
LINE
  5
1D4
330
76
100
AcDbEntity
  8
0
 62
     0
100
AcDbLine
 10
-262.4315820250956
 20
-1692.555046974888
 30
0.0
 11
-261.1735962215381
 21
-1691.29706117133
 31
0.0
  0
LINE
  5
1D5
330
76
100
AcDbEntity
  8
0
 62
     0
100
AcDbLine
 10
-265.6186676357712
 20
-1695.38857919497
 30
0.0
 11
-262.7945918292359
 21
-1692.564503388435
 31
0.0
  0
LINE
  5
1D6
330
76
100
AcDbEntity
  8
0
 62
     0
100
AcDbLine
 10
-262.7945918292359
 20
-1692.564503388435
 30
0.0
 11
-261.5003728867133
 21
-1691.270284445912
 31
0.0
  0
LINE
  5
1D7
330
76
100
AcDbEntity
  8
0
 62
     0
100
AcDbLine
 10
-266.0451422985044
 20
-1695.46150046711
 30
0.0
 11
-263.1576016333763
 21
-1692.573959801982
 31
0.0
  0
LINE
  5
1D8
330
76
100
AcDbEntity
  8
0
 62
     0
100
AcDbLine
 10
-263.1576016333763
 20
-1692.573959801982
 30
0.0
 11
-261.8271495518885
 21
-1691.243507720494
 31
0.0
  0
LINE
  5
1D9
330
76
100
AcDbEntity
  8
0
 62
     0
100
AcDbLine
 10
-266.4716169612376
 20
-1695.53442173925
 30
0.0
 11
-263.5206114375167
 21
-1692.583416215529
 31
0.0
  0
LINE
  5
1DA
330
76
100
AcDbEntity
  8
0
 62
     0
100
AcDbLine
 10
-263.5206114375167
 20
-1692.583416215529
 30
0.0
 11
-262.1539262170636
 21
-1691.216730995076
 31
0.0
  0
LINE
  5
1DB
330
76
100
AcDbEntity
  8
0
 62
     0
100
AcDbLine
 10
-266.8980916239708
 20
-1695.60734301139
 30
0.0
 11
-263.883621241657
 21
-1692.592872629076
 31
0.0
  0
LINE
  5
1DC
330
76
100
AcDbEntity
  8
0
 62
     0
100
AcDbLine
 10
-263.883621241657
 20
-1692.592872629076
 30
0.0
 11
-262.4807028822388
 21
-1691.189954269658
 31
0.0
  0
LINE
  5
1DD
330
76
100
AcDbEntity
  8
0
 62
     0
100
AcDbLine
 10
-267.324566286704
 20
-1695.68026428353
 30
0.0
 11
-264.2466310457974
 21
-1692.602329042623
 31
0.0
  0
LINE
  5
1DE
330
76
100
AcDbEntity
  8
0
 62
     0
100
AcDbLine
 10
-264.2466310457974
 20
-1692.602329042623
 30
0.0
 11
-262.807479547414
 21
-1691.16317754424
 31
0.0
  0
LINE
  5
1DF
330
76
100
AcDbEntity
  8
0
 62
     0
100
AcDbLine
 10
-267.7510409494372
 20
-1695.75318555567
 30
0.0
 11
-264.6096408499378
 21
-1692.61178545617
 31
0.0
  0
LINE
  5
1E0
330
76
100
AcDbEntity
  8
0
 62
     0
100
AcDbLine
 10
-264.6096408499378
 20
-1692.61178545617
 30
0.0
 11
-263.1342562125891
 21
-1691.136400818821
 31
0.0
  0
LINE
  5
1E1
330
76
100
AcDbEntity
  8
0
 62
     0
100
AcDbLine
 10
-268.1775156121704
 20
-1695.826106827809
 30
0.0
 11
-264.9726506540781
 21
-1692.621241869717
 31
0.0
  0
LINE
  5
1E2
330
76
100
AcDbEntity
  8
0
 62
     0
100
AcDbLine
 10
-264.9726506540781
 20
-1692.621241869717
 30
0.0
 11
-263.4610328777642
 21
-1691.109624093403
 31
0.0
  0
LINE
  5
1E3
330
76
100
AcDbEntity
  8
0
 62
     0
100
AcDbLine
 10
-268.6039902749036
 20
-1695.899028099949
 30
0.0
 11
-265.3356604582185
 21
-1692.630698283264
 31
0.0
  0
LINE
  5
1E4
330
76
100
AcDbEntity
  8
0
 62
     0
100
AcDbLine
 10
-265.3356604582185
 20
-1692.630698283264
 30
0.0
 11
-263.7878095429394
 21
-1691.082847367985
 31
0.0
  0
LINE
  5
1E5
330
76
100
AcDbEntity
  8
0
 62
     0
100
AcDbLine
 10
-269.0304649376369
 20
-1695.971949372089
 30
0.0
 11
-265.6986702623588
 21
-1692.640154696811
 31
0.0
  0
LINE
  5
1E6
330
76
100
AcDbEntity
  8
0
 62
     0
100
AcDbLine
 10
-265.6986702623588
 20
-1692.640154696811
 30
0.0
 11
-264.1145862081145
 21
-1691.056070642567
 31
0.0
  0
LINE
  5
1E7
330
76
100
AcDbEntity
  8
0
 62
     0
100
AcDbLine
 10
-269.4569396003701
 20
-1696.044870644229
 30
0.0
 11
-266.0616800664992
 21
-1692.649611110359
 31
0.0
  0
LINE
  5
1E8
330
76
100
AcDbEntity
  8
0
 62
     0
100
AcDbLine
 10
-266.0616800664992
 20
-1692.649611110359
 30
0.0
 11
-264.4413628732897
 21
-1691.029293917149
 31
0.0
  0
LINE
  5
1E9
330
76
100
AcDbEntity
  8
0
 62
     0
100
AcDbLine
 10
-269.6955949263942
 20
-1695.92997257966
 30
0.0
 11
-266.4246898706395
 21
-1692.659067523906
 31
0.0
  0
LINE
  5
1EA
330
76
100
AcDbEntity
  8
0
 62
     0
100
AcDbLine
 10
-266.4246898706395
 20
-1692.659067523906
 30
0.0
 11
-264.7681395384648
 21
-1691.002517191731
 31
0.0
  0
LINE
  5
1EB
330
76
100
AcDbEntity
  8
0
 62
     0
100
AcDbLine
 10
-269.5830389187808
 20
-1695.463863181453
 30
0.0
 11
-266.7876996747799
 21
-1692.668523937452
 31
0.0
  0
LINE
  5
1EC
330
76
100
AcDbEntity
  8
0
 62
     0
100
AcDbLine
 10
-266.7876996747799
 20
-1692.668523937452
 30
0.0
 11
-265.09491620364
 21
-1690.975740466313
 31
0.0
  0
LINE
  5
1ED
330
76
100
AcDbEntity
  8
0
 62
     0
100
AcDbLine
 10
-269.4704829111673
 20
-1694.997753783247
 30
0.0
 11
-267.1507094789203
 21
-1692.677980351
 31
0.0
  0
LINE
  5
1EE
330
76
100
AcDbEntity
  8
0
 62
     0
100
AcDbLine
 10
-267.1507094789203
 20
-1692.677980351
 30
0.0
 11
-265.4216928688151
 21
-1690.948963740894
 31
0.0
  0
LINE
  5
1EF
330
76
100
AcDbEntity
  8
0
 62
     0
100
AcDbLine
 10
-269.3579269035538
 20
-1694.53164438504
 30
0.0
 11
-267.5137192830606
 21
-1692.687436764547
 31
0.0
  0
LINE
  5
1F0
330
76
100
AcDbEntity
  8
0
 62
     0
100
AcDbLine
 10
-267.5137192830606
 20
-1692.687436764547
 30
0.0
 11
-265.7484695339903
 21
-1690.922187015476
 31
0.0
  0
LINE
  5
1F1
330
76
100
AcDbEntity
  8
0
 62
     0
100
AcDbLine
 10
-269.2453708959404
 20
-1694.065534986833
 30
0.0
 11
-267.8767290872011
 21
-1692.696893178094
 31
0.0
  0
LINE
  5
1F2
330
76
100
AcDbEntity
  8
0
 62
     0
100
AcDbLine
 10
-267.8767290872011
 20
-1692.696893178094
 30
0.0
 11
-266.0752461991655
 21
-1690.895410290058
 31
0.0
  0
LINE
  5
1F3
330
76
100
AcDbEntity
  8
0
 62
     0
100
AcDbLine
 10
-269.132814888327
 20
-1693.599425588627
 30
0.0
 11
-268.2397388913414
 21
-1692.706349591641
 31
0.0
  0
LINE
  5
1F4
330
76
100
AcDbEntity
  8
0
 62
     0
100
AcDbLine
 10
-268.2397388913414
 20
-1692.706349591641
 30
0.0
 11
-266.4020228643406
 21
-1690.86863356464
 31
0.0
  0
LINE
  5
1F5
330
76
100
AcDbEntity
  8
0
 62
     0
100
AcDbLine
 10
-269.0202588807135
 20
-1693.13331619042
 30
0.0
 11
-268.6027486954817
 21
-1692.715806005188
 31
0.0
  0
LINE
  5
1F6
330
76
100
AcDbEntity
  8
0
 62
     0
100
AcDbLine
 10
-268.6027486954817
 20
-1692.715806005188
 30
0.0
 11
-266.7287995295158
 21
-1690.841856839222
 31
0.0
  0
LINE
  5
1F7
330
76
100
AcDbEntity
  8
0
 62
     0
100
AcDbLine
 10
-268.9153285742755
 20
-1692.674832493389
 30
0.0
 11
-267.0555761946909
 21
-1690.815080113804
 31
0.0
  0
LINE
  5
1F8
330
76
100
AcDbEntity
  8
0
 62
     0
100
AcDbLine
 10
-268.8652389112177
 20
-1692.271189439737
 30
0.0
 11
-267.382352859866
 21
-1690.788303388386
 31
0.0
  0
LINE
  5
1F9
330
76
100
AcDbEntity
  8
0
 62
     0
100
AcDbLine
 10
-268.8151492481599
 20
-1691.867546386086
 30
0.0
 11
-267.7091295250412
 21
-1690.761526662967
 31
0.0
  0
LINE
  5
1FA
330
76
100
AcDbEntity
  8
0
 62
     0
100
AcDbLine
 10
-268.7650595851021
 20
-1691.463903332435
 30
0.0
 11
-268.0359061902163
 21
-1690.73474993755
 31
0.0
  0
LINE
  5
1FB
330
76
100
AcDbEntity
  8
0
 62
     0
100
AcDbLine
 10
-268.7149699220443
 20
-1691.060260278784
 30
0.0
 11
-268.3626828553915
 21
-1690.707973212131
 31
0.0
  0
LINE
  5
1FC
330
76
100
AcDbEntity
  8
0
 62
     0
100
AcDbLine
 10
-240.2046105010076
 20
-1717.350676399705
 30
0.0
 11
-239.9109362172624
 21
-1717.05700211596
 31
0.0
  0
LINE
  5
1FD
330
76
100
AcDbEntity
  8
0
 62
     0
100
AcDbLine
 10
-240.5640729184426
 20
-1718.063692207733
 30
0.0
 11
-239.6969950873644
 21
-1717.196614376655
 31
0.0
  0
LINE
  5
1FE
330
76
100
AcDbEntity
  8
0
 62
     0
100
AcDbLine
 10
-240.9235353358774
 20
-1718.776708015761
 30
0.0
 11
-239.4830539574664
 21
-1717.33622663735
 31
0.0
  0
LINE
  5
1FF
330
76
100
AcDbEntity
  8
0
 62
     0
100
AcDbLine
 10
-241.2829977533124
 20
-1719.489723823789
 30
0.0
 11
-239.2691128275684
 21
-1717.475838898046
 31
0.0
  0
LINE
  5
200
330
76
100
AcDbEntity
  8
0
 62
     0
100
AcDbLine
 10
-241.6424601707472
 20
-1720.202739631818
 30
0.0
 11
-239.0551716976705
 21
-1717.615451158741
 31
0.0
  0
LINE
  5
201
330
76
100
AcDbEntity
  8
0
 62
     0
100
AcDbLine
 10
-242.0019225881822
 20
-1720.915755439846
 30
0.0
 11
-238.8412305677725
 21
-1717.755063419436
 31
0.0
  0
LINE
  5
202
330
76
100
AcDbEntity
  8
0
 62
     0
100
AcDbLine
 10
-242.361385005617
 20
-1721.628771247874
 30
0.0
 11
-238.8014390067484
 21
-1718.068825249005
 31
0.0
  0
LINE
  5
203
330
76
100
AcDbEntity
  8
0
 62
     0
100
AcDbLine
 10
-242.2534906877404
 20
-1721.874430320591
 30
0.0
 11
-239.1534193970708
 21
-1718.774359029921
 31
0.0
  0
LINE
  5
204
330
76
100
AcDbEntity
  8
0
 62
     0
100
AcDbLine
 10
-241.9555298180396
 20
-1721.930022841483
 30
0.0
 11
-239.5053997873932
 21
-1719.479892810837
 31
0.0
  0
LINE
  5
205
330
76
100
AcDbEntity
  8
0
 62
     0
100
AcDbLine
 10
-241.6575689483388
 20
-1721.985615362376
 30
0.0
 11
-239.8573801777156
 21
-1720.185426591753
 31
0.0
  0
LINE
  5
206
330
76
100
AcDbEntity
  8
0
 62
     0
100
AcDbLine
 10
-241.359608078638
 20
-1722.041207883268
 30
0.0
 11
-240.209360568038
 21
-1720.890960372668
 31
0.0
  0
LINE
  5
207
330
76
100
AcDbEntity
  8
0
 62
     0
100
AcDbLine
 10
-241.0616472089372
 20
-1722.096800404161
 30
0.0
 11
-240.5613409583604
 21
-1721.596494153584
 31
0.0
  0
LINE
  5
208
330
76
100
AcDbEntity
  8
0
 62
     0
100
AcDbLine
 10
-205.9876726683155
 20
-1695.154553847185
 30
0.0
 11
-205.5085987419897
 21
-1694.675479920858
 31
0.0
  0
LINE
  5
209
330
76
100
AcDbEntity
  8
0
 62
     0
100
AcDbLine
 10
-205.6762966950174
 20
-1695.19673126448
 30
0.0
 11
-204.6543910245318
 21
-1694.174825593994
 31
0.0
  0
LINE
  5
20A
330
76
100
AcDbEntity
  8
0
 62
     0
100
AcDbLine
 10
-205.3649207217192
 20
-1695.238908681775
 30
0.0
 11
-203.8001833070739
 21
-1693.674171267129
 31
0.0
  0
LINE
  5
20B
330
76
100
AcDbEntity
  8
0
 62
     0
100
AcDbLine
 10
-205.2107658988118
 20
-1695.43830724946
 30
0.0
 11
-203.6860775230139
 21
-1693.913618873662
 31
0.0
  0
LINE
  5
20C
330
76
100
AcDbEntity
  8
0
 62
     0
100
AcDbLine
 10
-205.4667901006534
 20
-1696.047884841895
 30
0.0
 11
-203.8620670177057
 21
-1694.443161758947
 31
0.0
  0
LINE
  5
20D
330
76
100
AcDbEntity
  8
0
 62
     0
100
AcDbLine
 10
-205.3485149527847
 20
-1696.28316308462
 30
0.0
 11
-203.5794659633863
 21
-1694.514114095222
 31
0.0
  0
LINE
  5
20E
330
76
100
AcDbEntity
  8
0
 62
     0
100
AcDbLine
 10
-205.0590222793908
 20
-1696.347223801819
 30
0.0
 11
-203.0950215716154
 21
-1694.383223094044
 31
0.0
  0
LINE
  5
20F
330
76
100
AcDbEntity
  8
0
 62
     0
100
AcDbLine
 10
-204.7695296059969
 20
-1696.411284519018
 30
0.0
 11
-202.6105771798446
 21
-1694.252332092866
 31
0.0
  0
LINE
  5
210
330
76
100
AcDbEntity
  8
0
 62
     0
100
AcDbLine
 10
-204.4800369326031
 20
-1696.475345236218
 30
0.0
 11
-203.3338959773821
 21
-1695.329204280997
 31
0.0
  0
LINE
  5
211
330
76
100
AcDbEntity
  8
0
 62
     0
100
AcDbLine
 10
-204.1905442592092
 20
-1696.539405953418
 30
0.0
 11
-204.1119816988719
 21
-1696.46084339308
 31
0.0
  0
ENDBLK
  5
212
330
76
100
AcDbEntity
  8
0
100
AcDbBlockEnd
  0
BLOCK
  5
213
330
77
100
AcDbEntity
  8
0
100
AcDbBlockBegin
  2
*X4
 70
     1
 10
0.0
 20
0.0
 30
0.0
  3
*X4
  1

  0
LINE
  5
214
330
77
100
AcDbEntity
  8
0
 62
     0
100
AcDbLine
 10
-245.625
 20
-1686.25
 30
0.0
 11
-245.625
 21
-1686.25
 31
0.0
  0
LINE
  5
215
330
77
100
AcDbEntity
  8
0
 62
     0
100
AcDbLine
 10
-244.375
 20
-1686.25
 30
0.0
 11
-244.375
 21
-1686.25
 31
0.0
  0
LINE
  5
216
330
77
100
AcDbEntity
  8
0
 62
     0
100
AcDbLine
 10
-243.125
 20
-1686.25
 30
0.0
 11
-243.125
 21
-1686.25
 31
0.0
  0
LINE
  5
217
330
77
100
AcDbEntity
  8
0
 62
     0
100
AcDbLine
 10
-241.875
 20
-1686.25
 30
0.0
 11
-241.875
 21
-1686.25
 31
0.0
  0
LINE
  5
218
330
77
100
AcDbEntity
  8
0
 62
     0
100
AcDbLine
 10
-240.625
 20
-1686.25
 30
0.0
 11
-240.625
 21
-1686.25
 31
0.0
  0
LINE
  5
219
330
77
100
AcDbEntity
  8
0
 62
     0
100
AcDbLine
 10
-239.375
 20
-1686.25
 30
0.0
 11
-239.375
 21
-1686.25
 31
0.0
  0
LINE
  5
21A
330
77
100
AcDbEntity
  8
0
 62
     0
100
AcDbLine
 10
-238.125
 20
-1686.25
 30
0.0
 11
-238.125
 21
-1686.25
 31
0.0
  0
LINE
  5
21B
330
77
100
AcDbEntity
  8
0
 62
     0
100
AcDbLine
 10
-233.125
 20
-1686.25
 30
0.0
 11
-233.125
 21
-1686.25
 31
0.0
  0
LINE
  5
21C
330
77
100
AcDbEntity
  8
0
 62
     0
100
AcDbLine
 10
-231.875
 20
-1686.25
 30
0.0
 11
-231.875
 21
-1686.25
 31
0.0
  0
LINE
  5
21D
330
77
100
AcDbEntity
  8
0
 62
     0
100
AcDbLine
 10
-230.625
 20
-1686.25
 30
0.0
 11
-230.625
 21
-1686.25
 31
0.0
  0
LINE
  5
21E
330
77
100
AcDbEntity
  8
0
 62
     0
100
AcDbLine
 10
-229.375
 20
-1686.25
 30
0.0
 11
-229.375
 21
-1686.25
 31
0.0
  0
LINE
  5
21F
330
77
100
AcDbEntity
  8
0
 62
     0
100
AcDbLine
 10
-228.125
 20
-1686.25
 30
0.0
 11
-228.125
 21
-1686.25
 31
0.0
  0
LINE
  5
220
330
77
100
AcDbEntity
  8
0
 62
     0
100
AcDbLine
 10
-226.875
 20
-1686.25
 30
0.0
 11
-226.875
 21
-1686.25
 31
0.0
  0
LINE
  5
221
330
77
100
AcDbEntity
  8
0
 62
     0
100
AcDbLine
 10
-225.625
 20
-1686.25
 30
0.0
 11
-225.625
 21
-1686.25
 31
0.0
  0
LINE
  5
222
330
77
100
AcDbEntity
  8
0
 62
     0
100
AcDbLine
 10
-236.875
 20
-1686.25
 30
0.0
 11
-236.875
 21
-1686.25
 31
0.0
  0
LINE
  5
223
330
77
100
AcDbEntity
  8
0
 62
     0
100
AcDbLine
 10
-247.5
 20
-1685.0
 30
0.0
 11
-247.5
 21
-1685.0
 31
0.0
  0
LINE
  5
224
330
77
100
AcDbEntity
  8
0
 62
     0
100
AcDbLine
 10
-246.25
 20
-1685.0
 30
0.0
 11
-246.25
 21
-1685.0
 31
0.0
  0
LINE
  5
225
330
77
100
AcDbEntity
  8
0
 62
     0
100
AcDbLine
 10
-245.0
 20
-1685.0
 30
0.0
 11
-245.0
 21
-1685.0
 31
0.0
  0
LINE
  5
226
330
77
100
AcDbEntity
  8
0
 62
     0
100
AcDbLine
 10
-243.75
 20
-1685.0
 30
0.0
 11
-243.75
 21
-1685.0
 31
0.0
  0
LINE
  5
227
330
77
100
AcDbEntity
  8
0
 62
     0
100
AcDbLine
 10
-242.5
 20
-1685.0
 30
0.0
 11
-242.5
 21
-1685.0
 31
0.0
  0
LINE
  5
228
330
77
100
AcDbEntity
  8
0
 62
     0
100
AcDbLine
 10
-241.25
 20
-1685.0
 30
0.0
 11
-241.25
 21
-1685.0
 31
0.0
  0
LINE
  5
229
330
77
100
AcDbEntity
  8
0
 62
     0
100
AcDbLine
 10
-240.0
 20
-1685.0
 30
0.0
 11
-240.0
 21
-1685.0
 31
0.0
  0
LINE
  5
22A
330
77
100
AcDbEntity
  8
0
 62
     0
100
AcDbLine
 10
-238.75
 20
-1685.0
 30
0.0
 11
-238.75
 21
-1685.0
 31
0.0
  0
LINE
  5
22B
330
77
100
AcDbEntity
  8
0
 62
     0
100
AcDbLine
 10
-233.75
 20
-1685.0
 30
0.0
 11
-233.75
 21
-1685.0
 31
0.0
  0
LINE
  5
22C
330
77
100
AcDbEntity
  8
0
 62
     0
100
AcDbLine
 10
-232.5
 20
-1685.0
 30
0.0
 11
-232.5
 21
-1685.0
 31
0.0
  0
LINE
  5
22D
330
77
100
AcDbEntity
  8
0
 62
     0
100
AcDbLine
 10
-231.25
 20
-1685.0
 30
0.0
 11
-231.25
 21
-1685.0
 31
0.0
  0
LINE
  5
22E
330
77
100
AcDbEntity
  8
0
 62
     0
100
AcDbLine
 10
-230.0
 20
-1685.0
 30
0.0
 11
-230.0
 21
-1685.0
 31
0.0
  0
LINE
  5
22F
330
77
100
AcDbEntity
  8
0
 62
     0
100
AcDbLine
 10
-228.75
 20
-1685.0
 30
0.0
 11
-228.75
 21
-1685.0
 31
0.0
  0
LINE
  5
230
330
77
100
AcDbEntity
  8
0
 62
     0
100
AcDbLine
 10
-227.5
 20
-1685.0
 30
0.0
 11
-227.5
 21
-1685.0
 31
0.0
  0
LINE
  5
231
330
77
100
AcDbEntity
  8
0
 62
     0
100
AcDbLine
 10
-226.25
 20
-1685.0
 30
0.0
 11
-226.25
 21
-1685.0
 31
0.0
  0
LINE
  5
232
330
77
100
AcDbEntity
  8
0
 62
     0
100
AcDbLine
 10
-225.0
 20
-1685.0
 30
0.0
 11
-225.0
 21
-1685.0
 31
0.0
  0
LINE
  5
233
330
77
100
AcDbEntity
  8
0
 62
     0
100
AcDbLine
 10
-236.25
 20
-1685.0
 30
0.0
 11
-236.25
 21
-1685.0
 31
0.0
  0
LINE
  5
234
330
77
100
AcDbEntity
  8
0
 62
     0
100
AcDbLine
 10
-241.8750000000001
 20
-1683.75
 30
0.0
 11
-241.8750000000001
 21
-1683.75
 31
0.0
  0
LINE
  5
235
330
77
100
AcDbEntity
  8
0
 62
     0
100
AcDbLine
 10
-240.625
 20
-1683.75
 30
0.0
 11
-240.625
 21
-1683.75
 31
0.0
  0
LINE
  5
236
330
77
100
AcDbEntity
  8
0
 62
     0
100
AcDbLine
 10
-239.3750000000001
 20
-1683.75
 30
0.0
 11
-239.3750000000001
 21
-1683.75
 31
0.0
  0
LINE
  5
237
330
77
100
AcDbEntity
  8
0
 62
     0
100
AcDbLine
 10
-231.875
 20
-1683.75
 30
0.0
 11
-231.875
 21
-1683.75
 31
0.0
  0
LINE
  5
238
330
77
100
AcDbEntity
  8
0
 62
     0
100
AcDbLine
 10
-230.625
 20
-1683.75
 30
0.0
 11
-230.625
 21
-1683.75
 31
0.0
  0
LINE
  5
239
330
77
100
AcDbEntity
  8
0
 62
     0
100
AcDbLine
 10
-229.375
 20
-1683.75
 30
0.0
 11
-229.375
 21
-1683.75
 31
0.0
  0
LINE
  5
23A
330
77
100
AcDbEntity
  8
0
 62
     0
100
AcDbLine
 10
-228.125
 20
-1683.75
 30
0.0
 11
-228.125
 21
-1683.75
 31
0.0
  0
LINE
  5
23B
330
77
100
AcDbEntity
  8
0
 62
     0
100
AcDbLine
 10
-226.875
 20
-1683.75
 30
0.0
 11
-226.875
 21
-1683.75
 31
0.0
  0
LINE
  5
23C
330
77
100
AcDbEntity
  8
0
 62
     0
100
AcDbLine
 10
-243.75
 20
-1687.5
 30
0.0
 11
-243.75
 21
-1687.5
 31
0.0
  0
LINE
  5
23D
330
77
100
AcDbEntity
  8
0
 62
     0
100
AcDbLine
 10
-242.5
 20
-1687.5
 30
0.0
 11
-242.5
 21
-1687.5
 31
0.0
  0
LINE
  5
23E
330
77
100
AcDbEntity
  8
0
 62
     0
100
AcDbLine
 10
-241.25
 20
-1687.5
 30
0.0
 11
-241.25
 21
-1687.5
 31
0.0
  0
LINE
  5
23F
330
77
100
AcDbEntity
  8
0
 62
     0
100
AcDbLine
 10
-240.0
 20
-1687.5
 30
0.0
 11
-240.0
 21
-1687.5
 31
0.0
  0
LINE
  5
240
330
77
100
AcDbEntity
  8
0
 62
     0
100
AcDbLine
 10
-238.75
 20
-1687.5
 30
0.0
 11
-238.75
 21
-1687.5
 31
0.0
  0
LINE
  5
241
330
77
100
AcDbEntity
  8
0
 62
     0
100
AcDbLine
 10
-232.5
 20
-1687.5
 30
0.0
 11
-232.5
 21
-1687.5
 31
0.0
  0
LINE
  5
242
330
77
100
AcDbEntity
  8
0
 62
     0
100
AcDbLine
 10
-231.25
 20
-1687.5
 30
0.0
 11
-231.25
 21
-1687.5
 31
0.0
  0
LINE
  5
243
330
77
100
AcDbEntity
  8
0
 62
     0
100
AcDbLine
 10
-230.0
 20
-1687.5
 30
0.0
 11
-230.0
 21
-1687.5
 31
0.0
  0
LINE
  5
244
330
77
100
AcDbEntity
  8
0
 62
     0
100
AcDbLine
 10
-228.75
 20
-1687.5
 30
0.0
 11
-228.75
 21
-1687.5
 31
0.0
  0
LINE
  5
245
330
77
100
AcDbEntity
  8
0
 62
     0
100
AcDbLine
 10
-227.5
 20
-1687.5
 30
0.0
 11
-227.5
 21
-1687.5
 31
0.0
  0
LINE
  5
246
330
77
100
AcDbEntity
  8
0
 62
     0
100
AcDbLine
 10
-226.25
 20
-1687.5
 30
0.0
 11
-226.25
 21
-1687.5
 31
0.0
  0
LINE
  5
247
330
77
100
AcDbEntity
  8
0
 62
     0
100
AcDbLine
 10
-240.625
 20
-1688.75
 30
0.0
 11
-240.625
 21
-1688.75
 31
0.0
  0
LINE
  5
248
330
77
100
AcDbEntity
  8
0
 62
     0
100
AcDbLine
 10
-239.3750000000001
 20
-1688.75
 30
0.0
 11
-239.3750000000001
 21
-1688.75
 31
0.0
  0
LINE
  5
249
330
77
100
AcDbEntity
  8
0
 62
     0
100
AcDbLine
 10
-238.125
 20
-1688.75
 30
0.0
 11
-238.125
 21
-1688.75
 31
0.0
  0
LINE
  5
24A
330
77
100
AcDbEntity
  8
0
 62
     0
100
AcDbLine
 10
-231.875
 20
-1688.75
 30
0.0
 11
-231.875
 21
-1688.75
 31
0.0
  0
LINE
  5
24B
330
77
100
AcDbEntity
  8
0
 62
     0
100
AcDbLine
 10
-230.6249999999999
 20
-1688.75
 30
0.0
 11
-230.6249999999999
 21
-1688.75
 31
0.0
  0
ENDBLK
  5
24C
330
77
100
AcDbEntity
  8
0
100
AcDbBlockEnd
  0
BLOCK
  5
24D
330
79
100
AcDbEntity
  8
0
100
AcDbBlockBegin
  2
*X5
 70
     1
 10
0.0
 20
0.0
 30
0.0
  3
*X5
  1

  0
LINE
  5
24E
330
79
100
AcDbEntity
  8
0
 62
     0
100
AcDbLine
 10
-206.7287456994621
 20
-1660.0
 30
0.0
 11
-202.9862525228091
 21
-1660.0
 31
0.0
  0
LINE
  5
24F
330
79
100
AcDbEntity
  8
0
 62
     0
100
AcDbLine
 10
-205.9928124481179
 20
-1655.0
 30
0.0
 11
-202.667305381846
 21
-1655.0
 31
0.0
  0
LINE
  5
250
330
79
100
AcDbEntity
  8
0
 62
     0
100
AcDbLine
 10
-205.6936791760549
 20
-1649.999999999999
 30
0.0
 11
-202.348358240883
 21
-1649.999999999999
 31
0.0
  0
LINE
  5
251
330
79
100
AcDbEntity
  8
0
 62
     0
100
AcDbLine
 10
-205.3945459039919
 20
-1645.0
 30
0.0
 11
-202.02941109992
 21
-1645.0
 31
0.0
  0
LINE
  5
252
330
79
100
AcDbEntity
  8
0
 62
     0
100
AcDbLine
 10
-205.0954126319288
 20
-1640.0
 30
0.0
 11
-201.7104639589569
 21
-1640.0
 31
0.0
  0
LINE
  5
253
330
79
100
AcDbEntity
  8
0
 62
     0
100
AcDbLine
 10
-204.7962793598658
 20
-1634.999999999999
 30
0.0
 11
-201.3915168179939
 21
-1634.999999999999
 31
0.0
  0
LINE
  5
254
330
79
100
AcDbEntity
  8
0
 62
     0
100
AcDbLine
 10
-204.4971460878028
 20
-1630.0
 30
0.0
 11
-200.9614564413809
 21
-1630.0
 31
0.0
  0
LINE
  5
255
330
79
100
AcDbEntity
  8
0
 62
     0
100
AcDbLine
 10
-204.1980128157398
 20
-1625.0
 30
0.0
 11
-200.3957995794358
 21
-1625.0
 31
0.0
  0
LINE
  5
256
330
79
100
AcDbEntity
  8
0
 62
     0
100
AcDbLine
 10
-203.8988795436767
 20
-1620.0
 30
0.0
 11
-200.1957497606825
 21
-1620.0
 31
0.0
  0
LINE
  5
257
330
79
100
AcDbEntity
  8
0
 62
     0
100
AcDbLine
 10
-203.5997462716137
 20
-1615.0
 30
0.0
 11
-200.2072989774174
 21
-1615.0
 31
0.0
  0
LINE
  5
258
330
79
100
AcDbEntity
  8
0
 62
     0
100
AcDbLine
 10
-203.3006129995507
 20
-1610.0
 30
0.0
 11
-200.2188481941523
 21
-1610.0
 31
0.0
  0
LINE
  5
259
330
79
100
AcDbEntity
  8
0
 62
     0
100
AcDbLine
 10
-203.0014797274876
 20
-1604.999999999999
 30
0.0
 11
-200.2303974108872
 21
-1604.999999999999
 31
0.0
  0
LINE
  5
25A
330
79
100
AcDbEntity
  8
0
 62
     0
100
AcDbLine
 10
-202.7023464554246
 20
-1600.0
 30
0.0
 11
-200.241946627622
 21
-1600.0
 31
0.0
  0
LINE
  5
25B
330
79
100
AcDbEntity
  8
0
 62
     0
100
AcDbLine
 10
-202.4032131833616
 20
-1594.999999999999
 30
0.0
 11
-200.2534958443569
 21
-1594.999999999999
 31
0.0
  0
LINE
  5
25C
330
79
100
AcDbEntity
  8
0
 62
     0
100
AcDbLine
 10
-202.1040799112985
 20
-1590.0
 30
0.0
 11
-200.2650450610918
 21
-1590.0
 31
0.0
  0
LINE
  5
25D
330
79
100
AcDbEntity
  8
0
 62
     0
100
AcDbLine
 10
-201.8049466392355
 20
-1585.0
 30
0.0
 11
-200.2765942778267
 21
-1585.0
 31
0.0
  0
LINE
  5
25E
330
79
100
AcDbEntity
  8
0
 62
     0
100
AcDbLine
 10
-201.5058133671725
 20
-1580.0
 30
0.0
 11
-200.2881434945616
 21
-1580.0
 31
0.0
  0
LINE
  5
25F
330
79
100
AcDbEntity
  8
0
 62
     0
100
AcDbLine
 10
-201.2066800951094
 20
-1575.0
 30
0.0
 11
-200.2996927112965
 21
-1575.0
 31
0.0
  0
LINE
  5
260
330
79
100
AcDbEntity
  8
0
 62
     0
100
AcDbLine
 10
-200.9075468230464
 20
-1570.0
 30
0.0
 11
-200.3112419280313
 21
-1570.0
 31
0.0
  0
LINE
  5
261
330
79
100
AcDbEntity
  8
0
 62
     0
100
AcDbLine
 10
-200.6084135509833
 20
-1565.0
 30
0.0
 11
-200.4048845382353
 21
-1565.0
 31
0.0
  0
LINE
  5
262
330
79
100
AcDbEntity
  8
0
 62
     0
100
AcDbLine
 10
-207.5515013394732
 20
-1665.0
 30
0.0
 11
-203.1314809516119
 21
-1665.0
 31
0.0
  0
LINE
  5
263
330
79
100
AcDbEntity
  8
0
 62
     0
100
AcDbLine
 10
-208.3742569794843
 20
-1670.0
 30
0.0
 11
-203.2065101181163
 21
-1670.0
 31
0.0
  0
LINE
  5
264
330
79
100
AcDbEntity
  8
0
 62
     0
100
AcDbLine
 10
-208.4907780003706
 20
-1675.0
 30
0.0
 11
-203.2815392846206
 21
-1675.0
 31
0.0
  0
LINE
  5
265
330
79
100
AcDbEntity
  8
0
 62
     0
100
AcDbLine
 10
-208.6050793984355
 20
-1679.999999999999
 30
0.0
 11
-203.356568451125
 21
-1679.999999999999
 31
0.0
  0
LINE
  5
266
330
79
100
AcDbEntity
  8
0
 62
     0
100
AcDbLine
 10
-208.7193807965003
 20
-1685.0
 30
0.0
 11
-203.4315976176294
 21
-1685.0
 31
0.0
  0
LINE
  5
267
330
79
100
AcDbEntity
  8
0
 62
     0
100
AcDbLine
 10
-208.8336821945652
 20
-1690.0
 30
0.0
 11
-203.5066267841337
 21
-1690.0
 31
0.0
  0
LINE
  5
268
330
79
100
AcDbEntity
  8
0
 62
     0
100
AcDbLine
 10
-208.9479835926301
 20
-1695.0
 30
0.0
 11
-203.6207516486348
 21
-1695.0
 31
0.0
  0
LINE
  5
269
330
79
100
AcDbEntity
  8
0
 62
     0
100
AcDbLine
 10
-209.062284990695
 20
-1700.0
 30
0.0
 11
-203.8290486726347
 21
-1700.0
 31
0.0
  0
LINE
  5
26A
330
79
100
AcDbEntity
  8
0
 62
     0
100
AcDbLine
 10
-209.1765863887599
 20
-1705.0
 30
0.0
 11
-204.0373456966346
 21
-1705.0
 31
0.0
  0
LINE
  5
26B
330
79
100
AcDbEntity
  8
0
 62
     0
100
AcDbLine
 10
-209.2908877868248
 20
-1710.0
 30
0.0
 11
-204.2456427206345
 21
-1710.0
 31
0.0
  0
LINE
  5
26C
330
79
100
AcDbEntity
  8
0
 62
     0
100
AcDbLine
 10
-209.4051891848896
 20
-1715.0
 30
0.0
 11
-204.4539397446344
 21
-1715.0
 31
0.0
  0
LINE
  5
26D
330
79
100
AcDbEntity
  8
0
 62
     0
100
AcDbLine
 10
-209.5194905829545
 20
-1720.0
 30
0.0
 11
-204.6650233704601
 21
-1720.0
 31
0.0
  0
LINE
  5
26E
330
79
100
AcDbEntity
  8
0
 62
     0
100
AcDbLine
 10
-209.6337919810194
 20
-1724.999999999999
 30
0.0
 11
-204.8789275040731
 21
-1724.999999999999
 31
0.0
  0
LINE
  5
26F
330
79
100
AcDbEntity
  8
0
 62
     0
100
AcDbLine
 10
-209.7480933790843
 20
-1729.999999999999
 30
0.0
 11
-205.092831637686
 21
-1729.999999999999
 31
0.0
  0
LINE
  5
270
330
79
100
AcDbEntity
  8
0
 62
     0
100
AcDbLine
 10
-209.8422770611331
 20
-1735.0
 30
0.0
 11
-205.3067357712989
 21
-1735.0
 31
0.0
  0
LINE
  5
271
330
79
100
AcDbEntity
  8
0
 62
     0
100
AcDbLine
 10
-209.770429727267
 20
-1740.0
 30
0.0
 11
-205.5206399049118
 21
-1740.0
 31
0.0
  0
LINE
  5
272
330
79
100
AcDbEntity
  8
0
 62
     0
100
AcDbLine
 10
-209.698582393401
 20
-1745.0
 30
0.0
 11
-205.7345440385248
 21
-1745.0
 31
0.0
  0
LINE
  5
273
330
79
100
AcDbEntity
  8
0
 62
     0
100
AcDbLine
 10
-209.626735059535
 20
-1750.0
 30
0.0
 11
-205.9484481721376
 21
-1750.0
 31
0.0
  0
LINE
  5
274
330
79
100
AcDbEntity
  8
0
 62
     0
100
AcDbLine
 10
-209.2038503780813
 20
-1755.0
 30
0.0
 11
-206.8172543070879
 21
-1755.0
 31
0.0
  0
LINE
  5
275
330
79
100
AcDbEntity
  8
0
 62
     0
100
AcDbLine
 10
-208.0424332119065
 20
-1759.999999999999
 30
0.0
 11
-207.9397351440817
 21
-1759.999999999999
 31
0.0
  0
ENDBLK
  5
276
330
79
100
AcDbEntity
  8
0
100
AcDbBlockEnd
  0
ENDSEC
  0
SECTION
  2
ENTITIES
  0
LWPOLYLINE
  5
277
330
6F
100
AcDbEntity
  8
GRABUNGSGRENZE
100
AcDbPolyline
 90
        8
 70
   128
 43
0.0
 10
-2.54450374485453
 20
-18.99509356100028
 10
-2.556109186530143
 20
-17.42511147522006
 10
-2.614957308215821
 20
-17.23331569982377
 10
-2.696796477705238
 20
-17.00735470641385
 10
-2.674008008892207
 20
-16.81446562486557
 10
-2.577882897131558
 20
-15.89595724459662
 10
-2.602499791918991
 20
-15.75515440664711
 10
-2.546177886867791
 20
-15.40304215279162
  0
LWPOLYLINE
  5
281
330
6F
100
AcDbEntity
  8
GRABUNGSGRENZE
100
AcDbPolyline
 90
        2
 70
     0
 43
0.0
 10
-2.003798284590698
 20
-15.4030684737634
 10
-1.995484722352325
 20
-19.00225724526866
  0
LWPOLYLINE
  5
285
330
6F
100
AcDbEntity
  8
STEINE
100
AcDbPolyline
 90
        9
 70
     0
 43
0.0
 10
-2.046525169266689
 20
-17.83947770378436
 10
-2.077689527074462
 20
-17.79460484750791
 10
-2.131798498849902
 20
-17.76761068008372
 10
-2.155736267558424
 20
-17.81610434226562
 10
-2.13528227941558
 20
-17.86608910225987
 10
-2.119986173592927
 20
-17.85382982010435
 10
-2.097520382881897
 20
-17.87115775877741
 10
-2.06538199014812
 20
-17.8639857977206
 10
-2.046525169266689
 20
-17.83947770378436
  0
LWPOLYLINE
  5
290
330
6F
100
AcDbEntity
  8
STEINE
100
AcDbPolyline
 90
        2
 70
     0
 43
0.0
 10
-2.123188247088434
 20
-17.69617012776572
 10
-2.123699847170533
 20
-17.6946398798563
  0
LWPOLYLINE
  5
294
330
6F
100
AcDbEntity
  8
STEINE
100
AcDbPolyline
 90
        5
 70
     0
 43
0.0
 10
-2.123188247088434
 20
-17.69617012776572
 10
-2.101275482725018
 20
-17.6655364898549
 10
-2.083907938721185
 20
-17.68746109029418
 10
-2.099191298000603
 20
-17.71400693511876
 10
-2.123699847170533
 20
-17.6946398798563
  0
LWPOLYLINE
  5
29B
330
6F
100
AcDbEntity
  8
STEINE
100
AcDbPolyline
 90
        6
 70
     0
 43
0.0
 10
-2.023224645137873
 20
-17.64862910452654
 10
-1.987526447812691
 20
-17.62818786292693
 10
-1.952322096455817
 20
-17.62611551427838
 10
-1.96912978560673
 20
-17.65980600613855
 10
-2.010962176346542
 20
-17.66749685101646
 10
-2.023224645137873
 20
-17.64862910452654
  0
LWPOLYLINE
  5
2A3
330
6F
100
AcDbEntity
  8
STEINE
100
AcDbPolyline
 90
        5
 70
     0
 43
0.0
 10
-2.252910237733888
 20
-17.55903270862299
 10
-2.271300071434544
 20
-17.53506808112694
 10
-2.267240958070589
 20
-17.50955272020554
 10
-2.23252908698096
 20
-17.52737996765115
 10
-2.252910237733888
 20
-17.55903270862299
  0
LWPOLYLINE
  5
2AA
330
6F
100
AcDbEntity
  8
STEINE
100
AcDbPolyline
 90
        7
 70
     0
 43
0.0
 10
-2.212289969138372
 20
-17.33653409979546
 10
-2.164347967603026
 20
-17.31404099506321
 10
-2.126571958825047
 20
-17.33492691739293
 10
-2.124004398507125
 20
-17.35329307894186
 10
-2.159195548087078
 20
-17.37016222464052
 10
-2.204109830629032
 20
-17.35489525377383
 10
-2.212289969138372
 20
-17.33653409979546
  0
LWPOLYLINE
  5
2B3
330
6F
100
AcDbEntity
  8
STEINE
100
AcDbPolyline
 90
        6
 70
     0
 43
0.0
 10
-2.432450910659909
 20
-17.05661163032468
 10
-2.546791666783245
 20
-17.00262875828054
 10
-2.53610041693317
 20
-16.97608701055913
 10
-2.500897886511043
 20
-16.97197372438642
 10
-2.46672675045948
 20
-16.95561572353618
 10
-2.428928435230838
 20
-17.00150313053677
  0
LWPOLYLINE
  5
2BB
330
6F
100
AcDbEntity
  8
STEINE
100
AcDbPolyline
 90
        8
 70
     0
 43
0.0
 10
-2.432450910659909
 20
-17.05661163032468
 10
-2.428928435230838
 20
-17.00150313053677
 10
-2.422842496587028
 20
-16.96016868286844
 10
-2.395313967396385
 20
-16.93310167805433
 10
-2.325915718303598
 20
-16.94018304760743
 10
-2.333008013465188
 20
-16.99733567155531
 10
-2.40386731494698
 20
-17.06832152800209
 10
-2.432450910659909
 20
-17.05661163032468
  0
LWPOLYLINE
  5
2C5
330
6F
100
AcDbEntity
  8
STEINE
100
AcDbPolyline
 90
        5
 70
     0
 43
0.0
 10
-2.671303423234503
 20
-16.98641233510694
 10
-2.663161069121183
 20
-16.96242403545917
 10
-2.623867558977012
 20
-16.96851179503772
 10
-2.634557898359714
 20
-16.9960740115212
 10
-2.671303423234503
 20
-16.98641233510694
  0
LWPOLYLINE
  5
2CC
330
6F
100
AcDbEntity
  8
STEINE
100
AcDbPolyline
 90
        7
 70
     0
 43
0.0
 10
-2.374931906176084
 20
-16.90246940584457
 10
-2.437200986178636
 20
-16.87956439720768
 10
-2.481111643604933
 20
-16.84541784377521
 10
-2.385199416045648
 20
-16.83206616593507
 10
-2.379565897104629
 20
-16.85553193989226
 10
-2.378530860864569
 20
-16.8718585296181
 10
-2.374931906176084
 20
-16.90246940584457
  0
LWPOLYLINE
  5
2D5
330
6F
100
AcDbEntity
  8
STEINE
100
AcDbPolyline
 90
        4
 70
     0
 43
0.0
 10
-2.378530860864569
 20
-16.8718585296181
 10
-2.357113308170521
 20
-16.85806308151522
 10
-2.358654936922123
 20
-16.84581882207137
 10
-2.379565897104629
 20
-16.85553193989226
  0
LWPOLYLINE
  5
2DB
330
6F
100
AcDbEntity
  8
STEINE
100
AcDbPolyline
 90
        6
 70
     0
 43
0.0
 10
-2.325959420737548
 20
-16.89120054702778
 10
-2.344368374253058
 20
-16.84580607552813
 10
-2.314279568483486
 20
-16.82894148216635
 10
-2.239265099329785
 20
-16.8400997191972
 10
-2.259126911027935
 20
-16.88195669255611
 10
-2.325959420737548
 20
-16.89120054702778
  0
LWPOLYLINE
  5
2E3
330
6F
100
AcDbEntity
  8
STEINE
100
AcDbPolyline
 90
        7
 70
     0
 43
0.0
 10
-2.269204133216339
 20
-17.02483142392049
 10
-2.288639928765543
 20
-16.97229458155368
 10
-2.292268018409995
 20
-16.90902870494078
 10
-2.270329305726422
 20
-16.90747842674912
 10
-2.256487879021157
 20
-16.98042965192801
 10
-2.231993442095523
 20
-16.9839794413783
 10
-2.269204133216339
 20
-17.02483142392049
  0
LWPOLYLINE
  5
2EC
330
6F
100
AcDbEntity
  8
STEINE
100
AcDbPolyline
 90
        4
 70
     0
 43
0.0
 10
-2.670939774100674
 20
-16.82211640917901
 10
-2.655690557347781
 20
-16.75730298577658
 10
-2.638329386615566
 20
-16.77208430488133
 10
-2.670939774100674
 20
-16.82211640917901
  0
LWPOLYLINE
  5
2F2
330
6F
100
AcDbEntity
  8
STEINE
100
AcDbPolyline
 90
        9
 70
     0
 43
0.0
 10
-2.651640093423879
 20
-16.72209317161546
 10
-2.62818888694467
 20
-16.70013215248123
 10
-2.616489004408382
 20
-16.66032340038546
 10
-2.582288733400851
 20
-16.67662039992165
 10
-2.543006148865168
 20
-16.6704625343553
 10
-2.528178395924351
 20
-16.70514527048896
 10
-2.601610720528308
 20
-16.75164215281434
 10
-2.635289376312627
 20
-16.74810055757042
 10
-2.651640093423879
 20
-16.72209317161546
  0
LWPOLYLINE
  5
2FD
330
6F
100
AcDbEntity
  8
STEINE
100
AcDbPolyline
 90
        5
 70
     0
 43
0.0
 10
-2.374494591767036
 20
-16.24885825326751
 10
-2.347966956289929
 20
-16.2437322373054
 10
-2.331120572275622
 20
-16.25341166783345
 10
-2.346929643881435
 20
-16.26260999893643
 10
-2.374494591767036
 20
-16.24885825326751
  0
LWPOLYLINE
  5
304
330
6F
100
AcDbEntity
  8
STEINE
100
AcDbPolyline
 90
        5
 70
     0
 43
0.0
 10
-2.13477365848182
 20
-16.14863835475117
 10
-2.139377148753336
 20
-16.1358865923284
 10
-2.122036918770723
 20
-16.1271971299054
 10
-2.118456628663404
 20
-16.13688839650931
 10
-2.13477365848182
 20
-16.14863835475117
  0
LWPOLYLINE
  5
30B
330
6F
100
AcDbEntity
  8
STEINE
100
AcDbPolyline
 90
        4
 70
     0
 43
0.0
 10
-2.315478571432933
 20
-16.05695731888952
 10
-2.285896358174903
 20
-16.04417505580973
 10
-2.300669027839595
 20
-16.07123067978166
 10
-2.315478571432933
 20
-16.05695731888952
  0
LWPOLYLINE
  5
311
330
6F
100
AcDbEntity
  8
STEINE
100
AcDbPolyline
 90
        5
 70
     0
 43
0.0
 10
-2.295731478623904
 20
-15.88652128150903
 10
-2.290138475481026
 20
-15.86457619555385
 10
-2.273305293243641
 20
-15.85945882903179
 10
-2.276351676818199
 20
-15.87629929500817
 10
-2.295731478623904
 20
-15.88652128150903
  0
LWPOLYLINE
  5
318
330
6F
100
AcDbEntity
  8
STEINE
100
AcDbPolyline
 90
        4
 70
     0
 43
0.0
 10
-2.282019793519429
 20
-15.81405570809209
 10
-2.297866194287574
 20
-15.78141481994995
 10
-2.261623164821144
 20
-15.79975093607554
 10
-2.282019793519429
 20
-15.81405570809209
  0
LWPOLYLINE
  5
31E
330
6F
100
AcDbEntity
  8
STEINE
100
AcDbPolyline
 90
        4
 70
     0
 43
0.0
 10
-2.365743300144675
 20
-15.76361716269399
 10
-2.380561037944378
 20
-15.74015958294317
 10
-2.340753651549674
 20
-15.75032876233634
 10
-2.365743300144675
 20
-15.76361716269399
  0
LWPOLYLINE
  5
324
330
6F
100
AcDbEntity
  8
STEINE
100
AcDbPolyline
 90
        5
 70
     0
 43
0.0
 10
-2.362624989647573
 20
-15.82739372892162
 10
-2.359076110664656
 20
-15.80187882323391
 10
-2.343768623999829
 20
-15.80237540060434
 10
-2.347830013532219
 20
-15.82533958962055
 10
-2.362624989647573
 20
-15.82739372892162
  0
LWPOLYLINE
  5
32B
330
6F
100
AcDbEntity
  8
STEINE
100
AcDbPolyline
 90
        6
 70
     0
 43
0.0
 10
-2.548995743131482
 20
-15.67602027804908
 10
-2.574528858166671
 20
-15.65206202382464
 10
-2.55312086538005
 20
-15.62755165371997
 10
-2.531171682321676
 20
-15.63773676629218
 10
-2.532162105660411
 20
-15.67141314590807
 10
-2.548995743131482
 20
-15.67602027804908
  0
LWPOLYLINE
  5
333
330
6F
100
AcDbEntity
  8
STEINE
100
AcDbPolyline
 90
        7
 70
     0
 43
0.0
 10
-2.285775803829924
 20
-15.6074139704075
 10
-2.314378974591394
 20
-15.57376399434547
 10
-2.284275601343838
 20
-15.5732269011769
 10
-2.280182800687046
 20
-15.58546888445231
 10
-2.259768873108656
 20
-15.59055301891521
 10
-2.260778416262245
 20
-15.6027995545275
 10
-2.285775803829924
 20
-15.6074139704075
  0
LWPOLYLINE
  5
33C
330
6F
100
AcDbEntity
  8
KNOCHEN
100
AcDbPolyline
 90
        5
 70
     0
 43
0.0
 10
-2.408322854270227
 20
-17.22139593941667
 10
-2.424653085865565
 20
-17.21834910060843
 10
-2.400205082776004
 20
-17.16985498319284
 10
-2.386931249896337
 20
-17.17851713159463
 10
-2.408322854270227
 20
-17.22139593941667
  0
LWPOLYLINE
  5
343
330
6F
100
AcDbEntity
  8
KNOCHEN
100
AcDbPolyline
 90
        5
 70
     0
 43
0.0
 10
-2.69574596351982
 20
-17.04102926509499
 10
-2.70035810323139
 20
-17.0185830494325
 10
-2.568772716199708
 20
-16.95672723903566
 10
-2.532531052434339
 20
-16.97353265201813
 10
-2.69574596351982
 20
-17.04102926509499
  0
LWPOLYLINE
  5
34A
330
6F
100
AcDbEntity
  8
KNOCHEN
100
AcDbPolyline
 90
        5
 70
     0
 43
0.0
 10
-2.697348138351791
 20
-16.96092383297308
 10
-2.689214433678524
 20
-16.92724108008558
 10
-2.608088988028228
 20
-16.9251277604052
 10
-2.622355065181378
 20
-16.94810105409515
 10
-2.697348138351791
 20
-16.96092383297308
  0
LWPOLYLINE
  5
351
330
6F
100
AcDbEntity
  8
KNOCHEN
100
AcDbPolyline
 90
        4
 70
     0
 43
0.0
 10
-2.689214433678524
 20
-16.92724108008558
 10
-2.686681471120813
 20
-16.90682942867562
 10
-2.600445487453772
 20
-16.91389577551706
 10
-2.608088988028228
 20
-16.9251277604052
  0
LWPOLYLINE
  5
357
330
6F
100
AcDbEntity
  8
KNOCHEN
100
AcDbPolyline
 90
        6
 70
     0
 43
0.0
 10
-2.630057746135142
 20
-16.89300256944834
 10
-2.599973947936127
 20
-16.87052539789514
 10
-2.577511343860906
 20
-16.88428169590094
 10
-2.594843834870841
 20
-16.90164514280159
 10
-2.619336906095413
 20
-16.89962605649441
 10
-2.630057746135142
 20
-16.89300256944834
  0
LWPOLYLINE
  5
35F
330
6F
100
AcDbEntity
  8
KNOCHEN
100
AcDbPolyline
 90
        6
 70
     0
 43
0.0
 10
-2.621945892678851
 20
-16.83482856627102
 10
-2.591346397294553
 20
-16.81847375205658
 10
-2.564299877996356
 20
-16.82304173410052
 10
-2.559692290621657
 20
-16.84038560595262
 10
-2.592851607351196
 20
-16.84704824309577
 10
-2.621945892678851
 20
-16.83482856627102
  0
LWPOLYLINE
  5
367
330
6F
100
AcDbEntity
  8
KNOCHEN
100
AcDbPolyline
 90
        9
 70
     0
 43
0.0
 10
-2.621945892678851
 20
-16.83482856627102
 10
-2.65156133799603
 20
-16.81036371953504
 10
-2.652605023676143
 20
-16.78434267656947
 10
-2.641914229059755
 20
-16.75729069446703
 10
-2.616919572894197
 20
-16.7496148723008
 10
-2.589356445943344
 20
-16.76132568044558
 10
-2.583716553730706
 20
-16.7919347357373
 10
-2.609718932115105
 20
-16.81389803103997
 10
-2.621945892678851
 20
-16.83482856627102
  0
LWPOLYLINE
  5
372
330
6F
100
AcDbEntity
  8
KNOCHEN
100
AcDbPolyline
 90
        8
 70
     0
 43
0.0
 10
-2.041692406381076
 20
-16.96544120149568
 10
-2.055471466071224
 20
-16.962392086519
 10
-2.051398240462973
 20
-16.95269399140979
 10
-2.06262476254687
 20
-16.95117330340779
 10
-2.035596452596152
 20
-16.9353319102102
 10
-2.039158533355992
 20
-16.9460500188478
 10
-2.025895626084813
 20
-16.94246654210468
 10
-2.041692406381076
 20
-16.96544120149568
  0
LWPOLYLINE
  5
37C
330
6F
100
AcDbEntity
  8
KNOCHEN
100
AcDbPolyline
 90
        5
 70
     0
 43
0.0
 10
-2.126608004868391
 20
-16.72264520491363
 10
-2.131722184754633
 20
-16.70938366334351
 10
-2.089901630090682
 20
-16.68842672455862
 10
-2.083768347143426
 20
-16.70015665251825
 10
-2.126608004868391
 20
-16.72264520491363
  0
LWPOLYLINE
  5
383
330
6F
100
AcDbEntity
  8
KNOCHEN
100
AcDbPolyline
 90
        4
 70
     0
 43
0.0
 10
-2.113473018263254
 20
-16.57568586709882
 10
-2.104309740154171
 20
-16.55220689136471
 10
-2.060424120580659
 20
-16.55829055384008
 10
-2.113473018263254
 20
-16.57568586709882
  0
LWPOLYLINE
  5
389
330
6F
100
AcDbEntity
  8
KNOCHEN
100
AcDbPolyline
 90
        7
 70
     0
 43
0.0
 10
-2.176040731564468
 20
-16.21806710450099
 10
-2.205637512300482
 20
-16.21452186738757
 10
-2.200549735968086
 20
-16.19818981485748
 10
-2.093979945851563
 20
-16.12053904509912
 10
-2.055716009143208
 20
-16.1164230275243
 10
-2.069983907231106
 20
-16.13735538369009
 10
-2.176040731564468
 20
-16.21806710450099
  0
LWPOLYLINE
  5
392
330
6F
100
AcDbEntity
  8
KNOCHEN
100
AcDbPolyline
 90
        5
 70
     0
 43
0.0
 10
-2.214263242007308
 20
-16.26861445075028
 10
-2.186731981414544
 20
-16.24460885222239
 10
-2.17244086640861
 20
-16.24969844948954
 10
-2.198433684885581
 20
-16.282376666794
 10
-2.214263242007308
 20
-16.26861445075028
  0
LWPOLYLINE
  5
399
330
6F
100
AcDbEntity
  8
KNOCHEN
100
AcDbPolyline
 90
        6
 70
     0
 43
0.0
 10
-2.177981972911171
 20
-16.32981025488306
 10
-2.180542704723788
 20
-16.3190976090497
 10
-2.168308005187363
 20
-16.30684105829629
 10
-2.151470270613109
 20
-16.30682603558463
 10
-2.142277857548059
 20
-16.31600206023694
 10
-2.177981972911171
 20
-16.32981025488306
  0
LWPOLYLINE
  5
3A1
330
6F
100
AcDbEntity
  8
KNOCHEN
100
AcDbPolyline
 90
        5
 70
     0
 43
0.0
 10
-2.325635004282873
 20
-16.11105126795329
 10
-2.344035763592017
 20
-16.07484101531232
 10
-2.334854276135455
 20
-16.07177141481973
 10
-2.316459434864241
 20
-16.1013486205072
 10
-2.325635004282873
 20
-16.11105126795329
  0
LWPOLYLINE
  5
3A8
330
6F
100
AcDbEntity
  8
KNOCHEN
100
AcDbPolyline
 90
       13
 70
     0
 43
0.0
 10
-2.538077786905288
 20
-15.90357525208461
 10
-2.585549614624051
 20
-15.88116727605182
 10
-2.602381431160375
 20
-15.88781534571699
 10
-2.623801715256544
 20
-15.89854938753364
 10
-2.643719520698193
 20
-15.87764753202487
 10
-2.636595814412201
 20
-15.85570108036862
 10
-2.639157001458505
 20
-15.84447820015422
 10
-2.600903990358637
 20
-15.82811655743448
 10
-2.587621052805231
 20
-15.84698339345703
 10
-2.57230355099929
 20
-15.85870512721029
 10
-2.554438063923968
 20
-15.86685294412785
 10
-2.522786233419505
 20
-15.88621362611871
 10
-2.538077786905288
 20
-15.90357525208461
  0
LWPOLYLINE
  5
3B7
330
6F
100
AcDbEntity
  8
KNOCHEN
100
AcDbPolyline
 90
        5
 70
     0
 43
0.0
 10
-2.461538532646404
 20
-15.9080990764609
 10
-2.464586281922023
 20
-15.92340883929417
 10
-2.527358767800307
 20
-15.90815780160652
 10
-2.513599738392386
 20
-15.88875660381753
 10
-2.461538532646404
 20
-15.9080990764609
  0
LWPOLYLINE
  5
3BE
330
6F
100
AcDbEntity
  8
KNOCHEN
100
AcDbPolyline
 90
        4
 70
     0
 43
0.0
 10
-2.587621052805231
 20
-15.84698339345703
 10
-2.507547031807726
 20
-15.81017504633343
 10
-2.501922617540447
 20
-15.82343613266986
 10
-2.587621052805231
 20
-15.84698339345703
  0
LWPOLYLINE
  5
3C4
330
6F
100
AcDbEntity
  8
KNOCHEN
100
AcDbPolyline
 90
        4
 70
     0
 43
0.0
 10
-2.57230355099929
 20
-15.85870512721029
 10
-2.508038601607598
 20
-15.83109511118968
 10
-2.507005386302286
 20
-15.84538076339137
 10
-2.57230355099929
 20
-15.85870512721029
  0
LWPOLYLINE
  5
3CA
330
6F
100
AcDbEntity
  8
KNOCHEN
100
AcDbPolyline
 90
        4
 70
     0
 43
0.0
 10
-2.554438063923968
 20
-15.86685294412785
 10
-2.515161852659903
 20
-15.85355179722697
 10
-2.511068596769424
 20
-15.86630401488342
 10
-2.554438063923968
 20
-15.86685294412785
  0
LWPOLYLINE
  5
3D0
330
6F
100
AcDbEntity
  8
BEFUND
100
AcDbPolyline
 90
        9
 70
     0
 43
0.0
 10
-2.004620271465249
 20
-15.62553157436334
 10
-2.060424120580659
 20
-16.55829055384008
 10
-2.083768347143426
 20
-16.70015665251825
 10
-2.098500418427903
 20
-17.34459633277987
 10
-2.095780354824842
 20
-17.53389101197654
 10
-2.079902087698608
 20
-17.60224830679133
 10
-2.060081702265974
 20
-17.51396000475796
 10
-2.045587180384029
 20
-17.1751511739718
 10
-2.035596452596152
 20
-16.9353319102102
  0
LWPOLYLINE
  5
3DB
330
6F
100
AcDbEntity
  8
BEFUND
100
AcDbPolyline
 90
        4
 70
     0
 43
0.0
 10
-2.035596452596152
 20
-16.9353319102102
 10
-2.030780450774886
 20
-16.61438993220042
 10
-2.012162172345435
 20
-16.32251902260026
 10
-1.992418721405901
 20
-16.14800111017147
  0
INSERT
  5
3E1
330
6F
100
AcDbEntity
  8
KNOCHENSCHRAFF
100
AcDbBlockReference
  2
*X1
 10
0.0
 20
0.0
 30
0.0
 41
0.01
 42
0.01
 43
0.01
1001
ACAD
1000
HATCH
1002
{
1070
    16
1000
ANSI31,I
1040
2.0
1040
0.0
1002
}
  0
INSERT
  5
3E2
330
6F
100
AcDbEntity
  8
KNOCHENSCHRAFF
100
AcDbBlockReference
  2
*X2
 10
0.0
 20
0.0
 30
0.0
 41
0.01
 42
0.01
 43
0.01
1001
ACAD
1000
HATCH
1002
{
1070
    16
1000
ANSI31,I
1040
2.0
1040
0.0
1002
}
  0
INSERT
  5
3E3
330
6F
100
AcDbEntity
  8
KNOCHENSCHRAFF
100
AcDbBlockReference
  2
*X3
 10
0.0
 20
0.0
 30
0.0
 41
0.01
 42
0.01
 43
0.01
1001
ACAD
1000
HATCH
1002
{
1070
    16
1000
ANSI31,I
1040
2.0
1040
0.0
1002
}
  0
INSERT
  5
3E4
330
6F
100
AcDbEntity
  8
STEINESCHRAFF
100
AcDbBlockReference
  2
*X4
 10
0.0
 20
0.0
 30
0.0
 41
0.01
 42
0.01
 43
0.01
1001
ACAD
1000
HATCH
1002
{
1070
    16
1000
DOTS,I
1040
20.0
1040
0.0
1002
}
  0
INSERT
  5
3E5
330
6F
100
AcDbEntity
  8
BEFUNDSCHRAFF
100
AcDbBlockReference
  2
*X5
 10
0.0
 20
0.0
 30
0.0
 41
0.01
 42
0.01
 43
0.01
1001
ACAD
1000
HATCH
1002
{
1070
    16
1000
ANSI31,I
1040
40.0
1040
5.497787143782137
1002
}
  0
ENDSEC
  0
SECTION
  2
OBJECTS
  0
DICTIONARY
  5
C
330
0
100
AcDbDictionary
281
     1
  3
ACAD_CIP_PREVIOUS_PRODUCT_INFO
350
3E8
  3
ACAD_COLOR
350
62
  3
ACAD_DETAILVIEWSTYLE
350
69
  3
ACAD_GROUP
350
D
  3
ACAD_LAYOUT
350
61
  3
ACAD_MATERIAL
350
10
  3
ACAD_MLEADERSTYLE
350
65
  3
ACAD_MLINESTYLE
350
5E
  3
ACAD_PLOTSETTINGS
350
60
  3
ACAD_PLOTSTYLENAME
350
E
  3
ACAD_SCALELIST
350
42
  3
ACAD_SECTIONVIEWSTYLE
350
67
  3
ACAD_TABLESTYLE
350
63
  3
ACAD_VISUALSTYLE
350
29
  3
ACDB_RECOMPOSE_DATA
350
493
  3
AcDbVariableDictionary
350
433
  0
DICTIONARY
  5
3EC
330
2
100
AcDbDictionary
280
     1
281
     1
  3
ACAD_LAYERSTATES
360
3ED
  0
XRECORD
  5
3E8
102
{ACAD_REACTORS
330
C
102
}
330
C
100
AcDbXrecord
280
     1
300
ACD
300
2014
300
DSADV_F_S
  0
DICTIONARY
  5
62
102
{ACAD_REACTORS
330
C
102
}
330
C
100
AcDbDictionary
281
     1
  0
DICTIONARY
  5
69
102
{ACAD_REACTORS
330
C
102
}
330
C
100
AcDbDictionary
281
     1
  3
Imperial24
350
6A
  0
DICTIONARY
  5
D
102
{ACAD_REACTORS
330
C
102
}
330
C
100
AcDbDictionary
281
     1
  0
DICTIONARY
  5
61
102
{ACAD_REACTORS
330
C
102
}
330
C
100
AcDbDictionary
281
     1
  3
Layout1
350
6E
  3
Model
350
72
  0
DICTIONARY
  5
10
102
{ACAD_REACTORS
330
C
102
}
330
C
100
AcDbDictionary
281
     1
  3
ByBlock
350
19
  3
ByLayer
350
11
  3
Global
350
21
  0
DICTIONARY
  5
65
102
{ACAD_REACTORS
330
C
102
}
330
C
100
AcDbDictionary
281
     1
  3
Standard
350
66
  0
DICTIONARY
  5
5E
102
{ACAD_REACTORS
330
C
102
}
330
C
100
AcDbDictionary
281
     1
  3
Standard
350
5F
  0
DICTIONARY
  5
60
102
{ACAD_REACTORS
330
C
102
}
330
C
100
AcDbDictionary
281
     1
  0
ACDBDICTIONARYWDFLT
  5
E
102
{ACAD_REACTORS
330
C
102
}
330
C
100
AcDbDictionary
281
     1
  3
Normal
350
F
100
AcDbDictionaryWithDefault
340
F
  0
DICTIONARY
  5
42
102
{ACAD_REACTORS
330
C
102
}
330
C
100
AcDbDictionary
281
     1
  3
A0
350
43
  3
A1
350
44
  3
A2
350
45
  3
A3
350
46
  3
A4
350
47
  3
A5
350
48
  3
A6
350
49
  3
A7
350
4A
  3
A8
350
4B
  3
A9
350
4C
  3
B0
350
4D
  3
B1
350
4E
  3
B2
350
4F
  3
B3
350
50
  3
B4
350
51
  3
B5
350
52
  3
B6
350
53
  0
DICTIONARY
  5
67
102
{ACAD_REACTORS
330
C
102
}
330
C
100
AcDbDictionary
281
     1
  3
Imperial24
350
68
  0
DICTIONARY
  5
63
102
{ACAD_REACTORS
330
C
102
}
330
C
100
AcDbDictionary
281
     1
  3
Standard
350
64
  0
DICTIONARY
  5
29
102
{ACAD_REACTORS
330
C
102
}
330
C
100
AcDbDictionary
281
     1
  3
2dWireframe
350
2F
  3
Basic
350
2E
  3
Brighten
350
35
  3
ColorChange
350
39
  3
Conceptual
350
32
  3
Dim
350
34
  3
EdgeColorOff
350
41
  3
Facepattern
350
38
  3
Flat
350
2A
  3
FlatWithEdges
350
2B
  3
Gouraud
350
2C
  3
GouraudWithEdges
350
2D
  3
Hidden
350
31
  3
JitterOff
350
3F
  3
Linepattern
350
37
  3
OverhangOff
350
40
  3
Realistic
350
33
  3
Shaded
350
3E
  3
Shaded with edges
350
3D
  3
Shades of Gray
350
3A
  3
Sketchy
350
3B
  3
Thicken
350
36
  3
Wireframe
350
30
  3
X-Ray
350
3C
  0
XRECORD
  5
493
102
{ACAD_REACTORS
330
C
102
}
330
C
100
AcDbXrecord
280
     1
 90
        1
330
64
330
68
330
6A
  0
DICTIONARY
  5
433
102
{ACAD_REACTORS
330
C
102
}
330
C
100
AcDbDictionary
281
     1
  3
CANNOSCALE
350
438
  3
CMLEADERSTYLE
350
435
  3
CTABLESTYLE
350
434
  3
CVIEWDETAILSTYLE
350
436
  3
CVIEWSECTIONSTYLE
350
437
  0
DICTIONARY
  5
3ED
102
{ACAD_REACTORS
330
3EC
102
}
330
3EC
100
AcDbDictionary
281
     1
  0
ACDBDETAILVIEWSTYLE
  5
6A
102
{ACAD_XDICTIONARY
360
491
102
}
102
{ACAD_REACTORS
330
69
102
}
330
69
100
AcDbModelDocViewStyle
 70
     0
  3
Imperial24
290
     0
100
AcDbDetailViewStyle
 70
     0
 71
     0
 90
        3
 71
     1
340
55
 62
   256
 40
0.24
340
0
 62
   256
 40
0.24
300

 40
0.36
280
     3
 71
     2
340
5C
 90
       25
 62
   256
 71
     3
340
55
 62
   256
 40
0.24
 90
        1
 40
0.75
 90
        1
300
%<\AcVar ViewType \f "%tc1">% %<\AcVar ViewDetailId>%\PVARIA %<\AcVar ViewScale \f "%sn">%
 71
     4
340
5C
 90
       25
 62
   256
340
5C
 90
       25
 62
   256
280
     0
  0
LAYOUT
  5
6E
102
{ACAD_REACTORS
330
61
102
}
330
61
100
AcDbPlotSettings
  1

  2
Kyocera FS-1350DN KX
  4

  6

 40
0.0
 41
0.0
 42
0.0
 43
0.0
 44
0.0
 45
0.0
 46
0.0
 47
0.0
 48
0.0
 49
0.0
140
0.0
141
0.0
142
1.0
143
1.0
 70
   688
 72
     0
 73
     0
 74
     5
  7

 75
    16
147
1.0
 76
     0
 77
     2
 78
   300
148
0.0
149
0.0
100
AcDbLayout
  1
Layout1
 70
     0
 71
     1
 10
0.0
 20
0.0
 11
12.0
 21
9.0
 12
0.0
 22
0.0
 32
0.0
 14
1.000000000000000E+20
 24
1.000000000000000E+20
 34
1.000000000000000E+20
 15
-1.000000000000000E+20
 25
-1.000000000000000E+20
 35
-1.000000000000000E+20
146
0.0
 13
0.0
 23
0.0
 33
0.0
 16
1.0
 26
0.0
 36
0.0
 17
0.0
 27
1.0
 37
0.0
 76
     0
330
6B
  0
LAYOUT
  5
72
102
{ACAD_XDICTIONARY
360
431
102
}
102
{ACAD_REACTORS
330
61
102
}
330
61
100
AcDbPlotSettings
  1

  2
Kyocera FS-1350DN KX
  4

  6

 40
0.0
 41
0.0
 42
0.0
 43
0.0
 44
0.0
 45
0.0
 46
0.0
 47
0.0
 48
0.0
 49
0.0
140
0.0
141
0.0
142
1.0
143
1.0
 70
  1712
 72
     0
 73
     0
 74
     0
  7

 75
     0
147
1.0
 76
     0
 77
     2
 78
   300
148
0.0
149
0.0
100
AcDbLayout
  1
Model
 70
     1
 71
     0
 10
0.0
 20
0.0
 11
12.0
 21
9.0
 12
0.0
 22
0.0
 32
0.0
 14
0.0
 24
0.0
 34
0.0
 15
0.0
 25
0.0
 35
0.0
146
0.0
 13
0.0
 23
0.0
 33
0.0
 16
1.0
 26
0.0
 36
0.0
 17
0.0
 27
1.0
 37
0.0
 76
     0
330
6F
331
93
  0
MATERIAL
  5
19
102
{ACAD_XDICTIONARY
360
1A
102
}
102
{ACAD_REACTORS
330
10
102
}
330
10
100
AcDbMaterial
  1
ByBlock
 72
     0
 43
0.0208333333333333
 43
0.0
 43
0.0
 43
0.0
 43
0.0
 43
0.0208333333333333
 43
0.0
 43
0.0
 43
0.0
 43
0.0
 43
1.0
 43
0.0
 43
0.0
 43
0.0
 43
0.0
 43
1.0
 77
     0
 47
0.0208333333333333
 47
0.0
 47
0.0
 47
0.0
 47
0.0
 47
0.0208333333333333
 47
0.0
 47
0.0
 47
0.0
 47
0.0
 47
1.0
 47
0.0
 47
0.0
 47
0.0
 47
0.0
 47
1.0
171
     0
 49
0.0208333333333333
 49
0.0
 49
0.0
 49
0.0
 49
0.0
 49
0.0208333333333333
 49
0.0
 49
0.0
 49
0.0
 49
0.0
 49
1.0
 49
0.0
 49
0.0
 49
0.0
 49
0.0
 49
1.0
175
     0
142
0.0208333333333333
142
0.0
142
0.0
142
0.0
142
0.0
142
0.0208333333333333
142
0.0
142
0.0
142
0.0
142
0.0
142
1.0
142
0.0
142
0.0
142
0.0
142
0.0
142
1.0
179
     0
144
0.0208333333333333
144
0.0
144
0.0
144
0.0
144
0.0
144
0.0208333333333333
144
0.0
144
0.0
144
0.0
144
0.0
144
1.0
144
0.0
144
0.0
144
0.0
144
0.0
144
1.0
147
0.0208333333333333
147
0.0
147
0.0
147
0.0
147
0.0
147
0.0208333333333333
147
0.0
147
0.0
147
0.0
147
0.0
147
1.0
147
0.0
147
0.0
147
0.0
147
0.0
147
1.0
  0
MATERIAL
  5
11
102
{ACAD_XDICTIONARY
360
12
102
}
102
{ACAD_REACTORS
330
10
102
}
330
10
100
AcDbMaterial
  1
ByLayer
 72
     0
 43
0.0208333333333333
 43
0.0
 43
0.0
 43
0.0
 43
0.0
 43
0.0208333333333333
 43
0.0
 43
0.0
 43
0.0
 43
0.0
 43
1.0
 43
0.0
 43
0.0
 43
0.0
 43
0.0
 43
1.0
 77
     0
 47
0.0208333333333333
 47
0.0
 47
0.0
 47
0.0
 47
0.0
 47
0.0208333333333333
 47
0.0
 47
0.0
 47
0.0
 47
0.0
 47
1.0
 47
0.0
 47
0.0
 47
0.0
 47
0.0
 47
1.0
171
     0
 49
0.0208333333333333
 49
0.0
 49
0.0
 49
0.0
 49
0.0
 49
0.0208333333333333
 49
0.0
 49
0.0
 49
0.0
 49
0.0
 49
1.0
 49
0.0
 49
0.0
 49
0.0
 49
0.0
 49
1.0
175
     0
142
0.0208333333333333
142
0.0
142
0.0
142
0.0
142
0.0
142
0.0208333333333333
142
0.0
142
0.0
142
0.0
142
0.0
142
1.0
142
0.0
142
0.0
142
0.0
142
0.0
142
1.0
179
     0
144
0.0208333333333333
144
0.0
144
0.0
144
0.0
144
0.0
144
0.0208333333333333
144
0.0
144
0.0
144
0.0
144
0.0
144
1.0
144
0.0
144
0.0
144
0.0
144
0.0
144
1.0
147
0.0208333333333333
147
0.0
147
0.0
147
0.0
147
0.0
147
0.0208333333333333
147
0.0
147
0.0
147
0.0
147
0.0
147
1.0
147
0.0
147
0.0
147
0.0
147
0.0
147
1.0
  0
MATERIAL
  5
21
102
{ACAD_XDICTIONARY
360
22
102
}
102
{ACAD_REACTORS
330
10
102
}
330
10
100
AcDbMaterial
  1
Global
 72
     0
 43
0.0208333333333333
 43
0.0
 43
0.0
 43
0.0
 43
0.0
 43
0.0208333333333333
 43
0.0
 43
0.0
 43
0.0
 43
0.0
 43
1.0
 43
0.0
 43
0.0
 43
0.0
 43
0.0
 43
1.0
 77
     0
 47
0.0208333333333333
 47
0.0
 47
0.0
 47
0.0
 47
0.0
 47
0.0208333333333333
 47
0.0
 47
0.0
 47
0.0
 47
0.0
 47
1.0
 47
0.0
 47
0.0
 47
0.0
 47
0.0
 47
1.0
171
     0
 49
0.0208333333333333
 49
0.0
 49
0.0
 49
0.0
 49
0.0
 49
0.0208333333333333
 49
0.0
 49
0.0
 49
0.0
 49
0.0
 49
1.0
 49
0.0
 49
0.0
 49
0.0
 49
0.0
 49
1.0
175
     0
142
0.0208333333333333
142
0.0
142
0.0
142
0.0
142
0.0
142
0.0208333333333333
142
0.0
142
0.0
142
0.0
142
0.0
142
1.0
142
0.0
142
0.0
142
0.0
142
0.0
142
1.0
179
     0
144
0.0208333333333333
144
0.0
144
0.0
144
0.0
144
0.0
144
0.0208333333333333
144
0.0
144
0.0
144
0.0
144
0.0
144
1.0
144
0.0
144
0.0
144
0.0
144
0.0
144
1.0
147
0.0208333333333333
147
0.0
147
0.0
147
0.0
147
0.0
147
0.0208333333333333
147
0.0
147
0.0
147
0.0
147
0.0
147
1.0
147
0.0
147
0.0
147
0.0
147
0.0
147
1.0
  0
MLEADERSTYLE
  5
66
102
{ACAD_REACTORS
330
65
102
}
330
65
100
AcDbMLeaderStyle
179
     2
170
     2
171
     1
172
     0
 90
        2
 40
0.0
 41
0.0
173
     1
 91
-1056964608
340
5A
 92
       -2
290
     1
 42
0.09
291
     1
 43
0.36
  3
Standard
 44
0.18
300

342
55
174
     1
178
     6
175
     1
176
     0
 93
-1056964608
 45
0.18
292
     0
297
     0
 46
0.18
 94
-1056964608
 47
1.0
 49
1.0
140
1.0
293
     1
141
0.0
294
     1
177
     0
142
1.0
295
     0
296
     0
143
0.125
271
     0
272
     9
273
     9
298
     1
  0
MLINESTYLE
  5
5F
102
{ACAD_REACTORS
330
5E
102
}
330
5E
100
AcDbMlineStyle
  2
STANDARD
 70
     0
  3

 62
   256
 51
90.0
 52
90.0
 71
     2
 49
0.5
 62
   256
  6
BYLAYER
 49
-0.5
 62
   256
  6
BYLAYER
  0
ACDBPLACEHOLDER
  5
F
102
{ACAD_REACTORS
330
E
102
}
330
E
  0
SCALE
  5
43
102
{ACAD_REACTORS
330
42
102
}
330
42
100
AcDbScale
 70
     0
300
1:1
140
1.0
141
1.0
290
     1
  0
SCALE
  5
44
102
{ACAD_REACTORS
330
42
102
}
330
42
100
AcDbScale
 70
     0
300
1/128" = 1'-0"
140
0.0078125
141
12.0
290
     0
  0
SCALE
  5
45
102
{ACAD_REACTORS
330
42
102
}
330
42
100
AcDbScale
 70
     0
300
1/64" = 1'-0"
140
0.015625
141
12.0
290
     0
  0
SCALE
  5
46
102
{ACAD_REACTORS
330
42
102
}
330
42
100
AcDbScale
 70
     0
300
1/32" = 1'-0"
140
0.03125
141
12.0
290
     0
  0
SCALE
  5
47
102
{ACAD_REACTORS
330
42
102
}
330
42
100
AcDbScale
 70
     0
300
1/16" = 1'-0"
140
0.0625
141
12.0
290
     0
  0
SCALE
  5
48
102
{ACAD_REACTORS
330
42
102
}
330
42
100
AcDbScale
 70
     0
300
3/32" = 1'-0"
140
0.09375
141
12.0
290
     0
  0
SCALE
  5
49
102
{ACAD_REACTORS
330
42
102
}
330
42
100
AcDbScale
 70
     0
300
1/8" = 1'-0"
140
0.125
141
12.0
290
     0
  0
SCALE
  5
4A
102
{ACAD_REACTORS
330
42
102
}
330
42
100
AcDbScale
 70
     0
300
3/16" = 1'-0"
140
0.1875
141
12.0
290
     0
  0
SCALE
  5
4B
102
{ACAD_REACTORS
330
42
102
}
330
42
100
AcDbScale
 70
     0
300
1/4" = 1'-0"
140
0.25
141
12.0
290
     0
  0
SCALE
  5
4C
102
{ACAD_REACTORS
330
42
102
}
330
42
100
AcDbScale
 70
     0
300
3/8" = 1'-0"
140
0.375
141
12.0
290
     0
  0
SCALE
  5
4D
102
{ACAD_REACTORS
330
42
102
}
330
42
100
AcDbScale
 70
     0
300
1/2" = 1'-0"
140
0.5
141
12.0
290
     0
  0
SCALE
  5
4E
102
{ACAD_REACTORS
330
42
102
}
330
42
100
AcDbScale
 70
     0
300
3/4" = 1'-0"
140
0.75
141
12.0
290
     0
  0
SCALE
  5
4F
102
{ACAD_REACTORS
330
42
102
}
330
42
100
AcDbScale
 70
     0
300
1" = 1'-0"
140
1.0
141
12.0
290
     0
  0
SCALE
  5
50
102
{ACAD_REACTORS
330
42
102
}
330
42
100
AcDbScale
 70
     0
300
1-1/2" = 1'-0"
140
1.5
141
12.0
290
     0
  0
SCALE
  5
51
102
{ACAD_REACTORS
330
42
102
}
330
42
100
AcDbScale
 70
     0
300
3" = 1'-0"
140
3.0
141
12.0
290
     0
  0
SCALE
  5
52
102
{ACAD_REACTORS
330
42
102
}
330
42
100
AcDbScale
 70
     0
300
6" = 1'-0"
140
6.0
141
12.0
290
     0
  0
SCALE
  5
53
102
{ACAD_REACTORS
330
42
102
}
330
42
100
AcDbScale
 70
     0
300
1'-0" = 1'-0"
140
12.0
141
12.0
290
     0
  0
ACDBSECTIONVIEWSTYLE
  5
68
102
{ACAD_XDICTIONARY
360
48F
102
}
102
{ACAD_REACTORS
330
67
102
}
330
67
100
AcDbModelDocViewStyle
 70
     0
  3
Imperial24
290
     0
100
AcDbSectionViewStyle
 70
     0
 71
     0
 90
       78
 71
     1
340
55
 62
   256
 40
0.24
340
0
340
0
 62
   256
 40
0.24
300
I, O, Q, S, X, Z
 40
0.48
 90
        3
 40
0.18
 90
        1
 71
     2
340
5C
 90
       25
 62
   256
340
5C
 90
       50
 62
   256
 40
0.24
 40
0.0
 40
0.24
 71
     3
340
55
 62
   256
 40
0.24
 90
        1
 40
0.75
 90
        1
300
%<\AcVar ViewType \f "%tc1">% %<\AcVar ViewSectionStartId>%-%<\AcVar ViewSectionEndId>%\PVARIA %<\AcVar ViewScale \f "%sn">%
 71
     4
 62
   256
 62
   257
300
ANSI31
 40
1.0
 90
        0
290
     0
290
     0
 90
        6
 40
0.0
 40
1.570796326794896
 40
0.2617993877991494
 40
1.308996938995747
 40
-0.2617993877991494
 40
1.832595714594046
  0
TABLESTYLE
  5
64
102
{ACAD_XDICTIONARY
360
48D
102
}
102
{ACAD_REACTORS
330
63
102
}
330
63
100
AcDbTableStyle
280
     0
  3
Standard
 70
     0
 71
     0
 40
0.06
 41
0.06
280
     0
281
     0
  7
STANDARD
140
0.18
170
     2
 62
     0
 63
     7
283
     0
 90
      512
 91
        0
  1

274
    -2
284
     1
 64
     0
275
    -2
285
     1
 65
     0
276
    -2
286
     1
 66
     0
277
    -2
287
     1
 67
     0
278
    -2
288
     1
 68
     0
279
    -2
289
     1
 69
     0
  7
STANDARD
140
0.25
170
     5
 62
     0
 63
     7
283
     0
 90
      512
 91
        0
  1

274
    -2
284
     1
 64
     0
275
    -2
285
     1
 65
     0
276
    -2
286
     1
 66
     0
277
    -2
287
     1
 67
     0
278
    -2
288
     1
 68
     0
279
    -2
289
     1
 69
     0
  7
STANDARD
140
0.18
170
     5
 62
     0
 63
     7
283
     0
 90
      512
 91
        0
  1

274
    -2
284
     1
 64
     0
275
    -2
285
     1
 65
     0
276
    -2
286
     1
 66
     0
277
    -2
287
     1
 67
     0
278
    -2
288
     1
 68
     0
279
    -2
289
     1
 69
     0
  0
VISUALSTYLE
  5
2F
102
{ACAD_REACTORS
330
29
102
}
330
29
100
AcDbVisualStyle
  2
2dWireframe
 70
     4
177
     3
291
     0
 70
    58
 90
        0
176
     1
 90
        2
176
     1
 90
        0
176
     1
 90
        0
176
     1
 40
0.6
176
     1
 40
30.0
176
     1
 62
     7
420
 16777215
176
     1
 90
        1
176
     1
 90
        4
176
     1
 62
     7
176
     1
 62
   257
176
     1
 90
        1
176
     1
 90
        1
176
     1
 40
1.0
176
     1
 90
        0
176
     1
 62
   257
176
     1
 40
1.0
176
     1
 90
        1
176
     1
 90
        6
176
     1
 90
        2
176
     1
 62
     7
176
     1
 90
        5
176
     1
 90
        0
176
     1
 90
        0
176
     1
290
     0
176
     1
 90
        1
176
     1
 40
0.0
176
     1
 90
        0
176
     1
290
     1
176
     1
290
     1
176
     1
290
     0
176
     1
290
     0
176
     1
290
     0
176
     1
290
     0
176
     1
290
     0
176
     1
290
     0
176
     1
290
     0
176
     1
 90
       50
176
     1
 40
0.0
176
     1
 40
1.0
176
     1
 90
        0
176
     1
 62
    18
420
        0
176
     1
 90
       50
176
     1
 90
        3
176
     1
 62
     5
420
      255
176
     1
290
     0
176
     1
 90
       50
176
     1
 90
       50
176
     1
 90
       50
176
     1
290
     0
176
     1
 90
       50
176
     1
 62
   256
176
     0
 40
1.0
176
     0
 90
        2
176
     1
  1
strokes_ogs.tif
176
     1
290
     0
176
     1
 40
1.0
176
     1
 40
1.0
176
     1
  0
VISUALSTYLE
  5
2E
102
{ACAD_REACTORS
330
29
102
}
330
29
100
AcDbVisualStyle
  2
Basic
 70
     7
177
     3
291
     1
 70
    58
 90
        1
176
     1
 90
        0
176
     1
 90
        1
176
     1
 90
        0
176
     1
 40
0.6
176
     1
 40
30.0
176
     1
 62
     7
420
 16777215
176
     1
 90
        0
176
     1
 90
        4
176
     1
 62
     7
176
     1
 62
   257
176
     1
 90
        1
176
     1
 90
        1
176
     1
 40
1.0
176
     1
 90
        8
176
     1
 62
     7
176
     1
 40
1.0
176
     1
 90
        1
176
     1
 90
        6
176
     1
 90
        2
176
     1
 62
     7
176
     1
 90
        5
176
     1
 90
        0
176
     1
 90
        0
176
     1
290
     0
176
     1
 90
        1
176
     1
 40
0.0
176
     1
 90
        0
176
     1
290
     0
176
     1
290
     1
176
     1
290
     1
176
     1
290
     0
176
     1
290
     0
176
     1
290
     0
176
     1
290
     0
176
     1
290
     0
176
     1
290
     0
176
     1
 90
       50
176
     1
 40
0.0
176
     1
 40
1.0
176
     1
 90
        0
176
     1
 62
    18
420
        0
176
     1
 90
       50
176
     1
 90
        3
176
     1
 62
     5
420
      255
176
     1
290
     0
176
     1
 90
       50
176
     1
 90
       50
176
     1
 90
       50
176
     1
290
     0
176
     1
 90
       50
176
     1
 62
   256
176
     0
 40
1.0
176
     0
 90
        2
176
     1
  1
strokes_ogs.tif
176
     1
290
     0
176
     1
 40
1.0
176
     1
 40
1.0
176
     1
  0
VISUALSTYLE
  5
35
102
{ACAD_REACTORS
330
29
102
}
330
29
100
AcDbVisualStyle
  2
Brighten
 70
    12
177
     3
291
     1
 70
    58
 90
        2
176
     1
 90
        2
176
     1
 90
        0
176
     1
 90
        0
176
     1
 40
0.6
176
     1
 40
30.0
176
     1
 62
     7
420
 16777215
176
     1
 90
        1
176
     1
 90
        4
176
     1
 62
     7
176
     1
 62
   257
176
     1
 90
        1
176
     1
 90
        1
176
     1
 40
1.0
176
     1
 90
        8
176
     1
 62
     7
176
     1
 40
1.0
176
     1
 90
        1
176
     1
 90
        6
176
     1
 90
        2
176
     1
 62
     7
176
     1
 90
        5
176
     1
 90
        0
176
     1
 90
        0
176
     1
290
     0
176
     1
 90
        1
176
     1
 40
50.0
176
     1
 90
        0
176
     1
290
     0
176
     1
290
     1
176
     1
290
     1
176
     1
290
     0
176
     1
290
     0
176
     1
290
     0
176
     1
290
     0
176
     1
290
     0
176
     1
290
     0
176
     1
 90
       50
176
     1
 40
0.0
176
     1
 40
1.0
176
     1
 90
        0
176
     1
 62
    18
420
        0
176
     1
 90
       50
176
     1
 90
        3
176
     1
 62
     5
420
      255
176
     1
290
     0
176
     1
 90
       50
176
     1
 90
       50
176
     1
 90
       50
176
     1
290
     0
176
     1
 90
       50
176
     1
 62
   256
176
     0
 40
1.0
176
     0
 90
        2
176
     1
  1
strokes_ogs.tif
176
     1
290
     0
176
     1
 40
1.0
176
     1
 40
1.0
176
     1
  0
VISUALSTYLE
  5
39
102
{ACAD_REACTORS
330
29
102
}
330
29
100
AcDbVisualStyle
  2
ColorChange
 70
    16
177
     3
291
     1
 70
    58
 90
        2
176
     1
 90
        2
176
     1
 90
        3
176
     1
 90
        0
176
     1
 40
0.6
176
     1
 40
30.0
176
     1
 62
     8
420
  8421504
176
     1
 90
        1
176
     1
 90
        4
176
     1
 62
     7
176
     1
 62
   257
176
     1
 90
        1
176
     1
 90
        1
176
     1
 40
1.0
176
     1
 90
        8
176
     1
 62
     8
420
  8421504
176
     1
 40
1.0
176
     1
 90
        1
176
     1
 90
        6
176
     1
 90
        2
176
     1
 62
     7
176
     1
 90
        5
176
     1
 90
        0
176
     1
 90
        0
176
     1
290
     0
176
     1
 90
        1
176
     1
 40
0.0
176
     1
 90
        0
176
     1
290
     0
176
     1
290
     1
176
     1
290
     1
176
     1
290
     0
176
     1
290
     0
176
     1
290
     0
176
     1
290
     0
176
     1
290
     0
176
     1
290
     0
176
     1
 90
       50
176
     1
 40
0.0
176
     1
 40
1.0
176
     1
 90
        0
176
     1
 62
    18
420
        0
176
     1
 90
       50
176
     1
 90
        3
176
     1
 62
     5
420
      255
176
     1
290
     0
176
     1
 90
       50
176
     1
 90
       50
176
     1
 90
       50
176
     1
290
     0
176
     1
 90
       50
176
     1
 62
   256
176
     0
 40
1.0
176
     0
 90
        2
176
     1
  1
strokes_ogs.tif
176
     1
290
     0
176
     1
 40
1.0
176
     1
 40
1.0
176
     1
  0
VISUALSTYLE
  5
32
102
{ACAD_REACTORS
330
29
102
}
330
29
100
AcDbVisualStyle
  2
Conceptual
 70
     9
177
     3
291
     0
 70
    58
 90
        3
176
     1
 90
        2
176
     1
 90
        0
176
     1
 90
        0
176
     1
 40
0.6
176
     1
 40
30.0
176
     1
 62
     7
420
 16777215
176
     1
 90
        2
176
     1
 90
        2
176
     1
 62
     7
176
     1
 62
   257
176
     1
 90
        1
176
     1
 90
        1
176
     1
 40
179.0
176
     1
 90
        8
176
     1
 62
     7
176
     1
 40
1.0
176
     1
 90
        1
176
     1
 90
        6
176
     1
 90
        2
176
     1
 62
     7
176
     1
 90
        3
176
     1
 90
        0
176
     1
 90
        0
176
     1
290
     0
176
     1
 90
        1
176
     1
 40
0.0
176
     1
 90
        0
176
     1
290
     0
176
     1
290
     1
176
     1
290
     1
176
     1
290
     0
176
     1
290
     0
176
     1
290
     0
176
     1
290
     0
176
     1
290
     0
176
     1
290
     0
176
     1
 90
       50
176
     1
 40
0.0
176
     1
 40
1.0
176
     1
 90
        0
176
     1
 62
    18
420
        0
176
     1
 90
       50
176
     1
 90
        3
176
     1
 62
     5
420
      255
176
     1
290
     0
176
     1
 90
       50
176
     1
 90
       50
176
     1
 90
       50
176
     1
290
     0
176
     1
 90
       50
176
     1
 62
   256
176
     0
 40
1.0
176
     0
 90
        2
176
     1
  1
strokes_ogs.tif
176
     1
290
     0
176
     1
 40
1.0
176
     1
 40
1.0
176
     1
  0
VISUALSTYLE
  5
34
102
{ACAD_REACTORS
330
29
102
}
330
29
100
AcDbVisualStyle
  2
Dim
 70
    11
177
     3
291
     1
 70
    58
 90
        2
176
     1
 90
        2
176
     1
 90
        0
176
     1
 90
        0
176
     1
 40
0.6
176
     1
 40
30.0
176
     1
 62
     7
420
 16777215
176
     1
 90
        1
176
     1
 90
        4
176
     1
 62
     7
176
     1
 62
   257
176
     1
 90
        1
176
     1
 90
        1
176
     1
 40
1.0
176
     1
 90
        8
176
     1
 62
     7
176
     1
 40
1.0
176
     1
 90
        1
176
     1
 90
        6
176
     1
 90
        2
176
     1
 62
     7
176
     1
 90
        5
176
     1
 90
        0
176
     1
 90
        0
176
     1
290
     0
176
     1
 90
        1
176
     1
 40
-50.0
176
     1
 90
        0
176
     1
290
     0
176
     1
290
     1
176
     1
290
     1
176
     1
290
     0
176
     1
290
     0
176
     1
290
     0
176
     1
290
     0
176
     1
290
     0
176
     1
290
     0
176
     1
 90
       50
176
     1
 40
0.0
176
     1
 40
1.0
176
     1
 90
        0
176
     1
 62
    18
420
        0
176
     1
 90
       50
176
     1
 90
        3
176
     1
 62
     5
420
      255
176
     1
290
     0
176
     1
 90
       50
176
     1
 90
       50
176
     1
 90
       50
176
     1
290
     0
176
     1
 90
       50
176
     1
 62
   256
176
     0
 40
1.0
176
     0
 90
        2
176
     1
  1
strokes_ogs.tif
176
     1
290
     0
176
     1
 40
1.0
176
     1
 40
1.0
176
     1
  0
VISUALSTYLE
  5
41
102
{ACAD_REACTORS
330
29
102
}
330
29
100
AcDbVisualStyle
  2
EdgeColorOff
 70
    22
177
     3
291
     1
 70
    58
 90
        2
176
     0
 90
        2
176
     0
 90
        0
176
     0
 90
        0
176
     0
 40
0.6
176
     0
 40
30.0
176
     0
 62
     7
420
 16777215
176
     0
 90
        1
176
     0
 90
        4
176
     0
 62
     7
176
     0
 62
   257
176
     0
 90
        1
176
     0
 90
        1
176
     0
 40
1.0
176
     0
 90
        8
176
     2
 62
     7
176
     0
 40
1.0
176
     0
 90
        1
176
     0
 90
        6
176
     0
 90
        2
176
     0
 62
     7
176
     0
 90
        5
176
     0
 90
        0
176
     0
 90
        0
176
     0
290
     0
176
     0
 90
        1
176
     0
 40
0.0
176
     0
 90
        0
176
     0
290
     0
176
     0
290
     1
176
     0
290
     1
176
     0
290
     0
176
     0
290
     0
176
     0
290
     0
176
     0
290
     0
176
     0
290
     0
176
     0
290
     0
176
     0
 90
       50
176
     0
 40
0.0
176
     0
 40
1.0
176
     0
 90
        0
176
     0
 62
    18
420
        0
176
     0
 90
       50
176
     0
 90
        3
176
     0
 62
     5
420
      255
176
     0
290
     0
176
     0
 90
       50
176
     0
 90
       50
176
     0
 90
       50
176
     0
290
     0
176
     0
 90
       50
176
     0
 62
   256
176
     0
 40
1.0
176
     0
 90
        2
176
     0
  1
strokes_ogs.tif
176
     0
290
     0
176
     0
 40
1.0
176
     0
 40
1.0
176
     0
  0
VISUALSTYLE
  5
38
102
{ACAD_REACTORS
330
29
102
}
330
29
100
AcDbVisualStyle
  2
Facepattern
 70
    15
177
     3
291
     1
 70
    58
 90
        2
176
     1
 90
        2
176
     1
 90
        0
176
     1
 90
        0
176
     1
 40
0.6
176
     1
 40
30.0
176
     1
 62
     7
420
 16777215
176
     1
 90
        1
176
     1
 90
        4
176
     1
 62
     7
176
     1
 62
   257
176
     1
 90
        1
176
     1
 90
        1
176
     1
 40
1.0
176
     1
 90
        8
176
     1
 62
     7
176
     1
 40
1.0
176
     1
 90
        1
176
     1
 90
        6
176
     1
 90
        2
176
     1
 62
     7
176
     1
 90
        5
176
     1
 90
        0
176
     1
 90
        0
176
     1
290
     0
176
     1
 90
        1
176
     1
 40
0.0
176
     1
 90
        0
176
     1
290
     0
176
     1
290
     1
176
     1
290
     1
176
     1
290
     0
176
     1
290
     0
176
     1
290
     0
176
     1
290
     0
176
     1
290
     0
176
     1
290
     0
176
     1
 90
       50
176
     1
 40
0.0
176
     1
 40
1.0
176
     1
 90
        0
176
     1
 62
    18
420
        0
176
     1
 90
       50
176
     1
 90
        3
176
     1
 62
     5
420
      255
176
     1
290
     0
176
     1
 90
       50
176
     1
 90
       50
176
     1
 90
       50
176
     1
290
     0
176
     1
 90
       50
176
     1
 62
   256
176
     0
 40
1.0
176
     0
 90
        2
176
     1
  1
strokes_ogs.tif
176
     1
290
     0
176
     1
 40
1.0
176
     1
 40
1.0
176
     1
  0
VISUALSTYLE
  5
2A
102
{ACAD_REACTORS
330
29
102
}
330
29
100
AcDbVisualStyle
  2
Flat
 70
     0
177
     3
291
     1
 70
    58
 90
        2
176
     1
 90
        1
176
     1
 90
        1
176
     1
 90
        2
176
     1
 40
0.6
176
     1
 40
30.0
176
     1
 62
     7
420
 16777215
176
     1
 90
        0
176
     1
 90
        0
176
     1
 62
     7
176
     1
 62
   257
176
     1
 90
        1
176
     1
 90
        1
176
     1
 40
1.0
176
     1
 90
        8
176
     1
 62
     7
176
     1
 40
1.0
176
     1
 90
        1
176
     1
 90
        6
176
     1
 90
        2
176
     1
 62
     7
176
     1
 90
        5
176
     1
 90
        0
176
     1
 90
        0
176
     1
290
     0
176
     1
 90
       13
176
     1
 40
0.0
176
     1
 90
        0
176
     1
290
     0
176
     1
290
     1
176
     1
290
     1
176
     1
290
     0
176
     1
290
     0
176
     1
290
     0
176
     1
290
     0
176
     1
290
     0
176
     1
290
     0
176
     1
 90
       50
176
     1
 40
0.0
176
     1
 40
1.0
176
     1
 90
        0
176
     1
 62
    18
420
        0
176
     1
 90
       50
176
     1
 90
        3
176
     1
 62
     5
420
      255
176
     1
290
     0
176
     1
 90
       50
176
     1
 90
       50
176
     1
 90
       50
176
     1
290
     0
176
     1
 90
       50
176
     1
 62
   256
176
     0
 40
1.0
176
     0
 90
        2
176
     1
  1
strokes_ogs.tif
176
     1
290
     0
176
     1
 40
1.0
176
     1
 40
1.0
176
     1
  0
VISUALSTYLE
  5
2B
102
{ACAD_REACTORS
330
29
102
}
330
29
100
AcDbVisualStyle
  2
FlatWithEdges
 70
     1
177
     3
291
     1
 70
    58
 90
        2
176
     1
 90
        1
176
     1
 90
        1
176
     1
 90
        2
176
     1
 40
0.6
176
     1
 40
30.0
176
     1
 62
     7
420
 16777215
176
     1
 90
        1
176
     1
 90
        0
176
     1
 62
     7
176
     1
 62
   257
176
     1
 90
        1
176
     1
 90
        1
176
     1
 40
1.0
176
     1
 90
        0
176
     1
 62
   257
176
     1
 40
1.0
176
     1
 90
        1
176
     1
 90
        6
176
     1
 90
        2
176
     1
 62
     7
176
     1
 90
        5
176
     1
 90
        0
176
     1
 90
        0
176
     1
290
     0
176
     1
 90
       13
176
     1
 40
0.0
176
     1
 90
        0
176
     1
290
     0
176
     1
290
     1
176
     1
290
     1
176
     1
290
     0
176
     1
290
     0
176
     1
290
     0
176
     1
290
     0
176
     1
290
     0
176
     1
290
     0
176
     1
 90
       50
176
     1
 40
0.0
176
     1
 40
1.0
176
     1
 90
        0
176
     1
 62
    18
420
        0
176
     1
 90
       50
176
     1
 90
        3
176
     1
 62
     5
420
      255
176
     1
290
     0
176
     1
 90
       50
176
     1
 90
       50
176
     1
 90
       50
176
     1
290
     0
176
     1
 90
       50
176
     1
 62
   256
176
     0
 40
1.0
176
     0
 90
        2
176
     1
  1
strokes_ogs.tif
176
     1
290
     0
176
     1
 40
1.0
176
     1
 40
1.0
176
     1
  0
VISUALSTYLE
  5
2C
102
{ACAD_REACTORS
330
29
102
}
330
29
100
AcDbVisualStyle
  2
Gouraud
 70
     2
177
     3
291
     1
 70
    58
 90
        2
176
     1
 90
        2
176
     1
 90
        1
176
     1
 90
        2
176
     1
 40
0.6
176
     1
 40
30.0
176
     1
 62
     7
420
 16777215
176
     1
 90
        0
176
     1
 90
        0
176
     1
 62
     7
176
     1
 62
   257
176
     1
 90
        1
176
     1
 90
        1
176
     1
 40
1.0
176
     1
 90
        0
176
     1
 62
     7
176
     1
 40
1.0
176
     1
 90
        1
176
     1
 90
        6
176
     1
 90
        2
176
     1
 62
     7
176
     1
 90
        5
176
     1
 90
        0
176
     1
 90
        0
176
     1
290
     0
176
     1
 90
       13
176
     1
 40
0.0
176
     1
 90
        0
176
     1
290
     0
176
     1
290
     1
176
     1
290
     1
176
     1
290
     0
176
     1
290
     0
176
     1
290
     0
176
     1
290
     0
176
     1
290
     0
176
     1
290
     0
176
     1
 90
       50
176
     1
 40
0.0
176
     1
 40
1.0
176
     1
 90
        0
176
     1
 62
    18
420
        0
176
     1
 90
       50
176
     1
 90
        3
176
     1
 62
     5
420
      255
176
     1
290
     0
176
     1
 90
       50
176
     1
 90
       50
176
     1
 90
       50
176
     1
290
     0
176
     1
 90
       50
176
     1
 62
   256
176
     0
 40
1.0
176
     0
 90
        2
176
     1
  1
strokes_ogs.tif
176
     1
290
     0
176
     1
 40
1.0
176
     1
 40
1.0
176
     1
  0
VISUALSTYLE
  5
2D
102
{ACAD_REACTORS
330
29
102
}
330
29
100
AcDbVisualStyle
  2
GouraudWithEdges
 70
     3
177
     3
291
     1
 70
    58
 90
        2
176
     1
 90
        2
176
     1
 90
        1
176
     1
 90
        2
176
     1
 40
0.6
176
     1
 40
30.0
176
     1
 62
     7
420
 16777215
176
     1
 90
        1
176
     1
 90
        0
176
     1
 62
     7
176
     1
 62
   257
176
     1
 90
        1
176
     1
 90
        1
176
     1
 40
1.0
176
     1
 90
        0
176
     1
 62
   257
176
     1
 40
1.0
176
     1
 90
        1
176
     1
 90
        6
176
     1
 90
        2
176
     1
 62
     7
176
     1
 90
        5
176
     1
 90
        0
176
     1
 90
        0
176
     1
290
     0
176
     1
 90
       13
176
     1
 40
0.0
176
     1
 90
        0
176
     1
290
     0
176
     1
290
     1
176
     1
290
     1
176
     1
290
     0
176
     1
290
     0
176
     1
290
     0
176
     1
290
     0
176
     1
290
     0
176
     1
290
     0
176
     1
 90
       50
176
     1
 40
0.0
176
     1
 40
1.0
176
     1
 90
        0
176
     1
 62
    18
420
        0
176
     1
 90
       50
176
     1
 90
        3
176
     1
 62
     5
420
      255
176
     1
290
     0
176
     1
 90
       50
176
     1
 90
       50
176
     1
 90
       50
176
     1
290
     0
176
     1
 90
       50
176
     1
 62
   256
176
     0
 40
1.0
176
     0
 90
        2
176
     1
  1
strokes_ogs.tif
176
     1
290
     0
176
     1
 40
1.0
176
     1
 40
1.0
176
     1
  0
VISUALSTYLE
  5
31
102
{ACAD_REACTORS
330
29
102
}
330
29
100
AcDbVisualStyle
  2
Hidden
 70
     6
177
     3
291
     0
 70
    58
 90
        1
176
     1
 90
        2
176
     1
 90
        2
176
     1
 90
        0
176
     1
 40
0.6
176
     1
 40
30.0
176
     1
 62
     7
420
 16777215
176
     1
 90
        2
176
     1
 90
        2
176
     1
 62
     7
176
     1
 62
   257
176
     1
 90
        2
176
     1
 90
        1
176
     1
 40
40.0
176
     1
 90
        0
176
     1
 62
   257
176
     1
 40
1.0
176
     1
 90
        1
176
     1
 90
        6
176
     1
 90
        2
176
     1
 62
     7
176
     1
 90
        3
176
     1
 90
        0
176
     1
 90
        0
176
     1
290
     0
176
     1
 90
        1
176
     1
 40
0.0
176
     1
 90
        0
176
     1
290
     0
176
     1
290
     1
176
     1
290
     1
176
     1
290
     0
176
     1
290
     0
176
     1
290
     0
176
     1
290
     0
176
     1
290
     0
176
     1
290
     0
176
     1
 90
       50
176
     1
 40
0.0
176
     1
 40
1.0
176
     1
 90
        0
176
     1
 62
    18
420
        0
176
     1
 90
       50
176
     1
 90
        3
176
     1
 62
     5
420
      255
176
     1
290
     0
176
     1
 90
       50
176
     1
 90
       50
176
     1
 90
       50
176
     1
290
     0
176
     1
 90
       50
176
     1
 62
   256
176
     0
 40
1.0
176
     0
 90
        2
176
     1
  1
strokes_ogs.tif
176
     1
290
     0
176
     1
 40
1.0
176
     1
 40
1.0
176
     1
  0
VISUALSTYLE
  5
3F
102
{ACAD_REACTORS
330
29
102
}
330
29
100
AcDbVisualStyle
  2
JitterOff
 70
    20
177
     3
291
     1
 70
    58
 90
        2
176
     0
 90
        2
176
     0
 90
        0
176
     0
 90
        0
176
     0
 40
0.6
176
     0
 40
30.0
176
     0
 62
     7
420
 16777215
176
     0
 90
        1
176
     0
 90
        4
176
     0
 62
     7
176
     0
 62
   257
176
     0
 90
        1
176
     0
 90
        1
176
     0
 40
1.0
176
     0
 90
       10
176
     2
 62
     7
176
     0
 40
1.0
176
     0
 90
        1
176
     0
 90
        6
176
     0
 90
        2
176
     0
 62
     7
176
     0
 90
        5
176
     0
 90
        0
176
     0
 90
        0
176
     0
290
     0
176
     0
 90
        1
176
     0
 40
0.0
176
     0
 90
        0
176
     0
290
     0
176
     0
290
     1
176
     0
290
     1
176
     0
290
     0
176
     0
290
     0
176
     0
290
     0
176
     0
290
     0
176
     0
290
     0
176
     0
290
     0
176
     0
 90
       50
176
     0
 40
0.0
176
     0
 40
1.0
176
     0
 90
        0
176
     0
 62
    18
420
        0
176
     0
 90
       50
176
     0
 90
        3
176
     0
 62
     5
420
      255
176
     0
290
     0
176
     0
 90
       50
176
     0
 90
       50
176
     0
 90
       50
176
     0
290
     0
176
     0
 90
       50
176
     0
 62
   256
176
     0
 40
1.0
176
     0
 90
        2
176
     0
  1
strokes_ogs.tif
176
     0
290
     0
176
     0
 40
1.0
176
     0
 40
1.0
176
     0
  0
VISUALSTYLE
  5
37
102
{ACAD_REACTORS
330
29
102
}
330
29
100
AcDbVisualStyle
  2
Linepattern
 70
    14
177
     3
291
     1
 70
    58
 90
        2
176
     1
 90
        2
176
     1
 90
        0
176
     1
 90
        0
176
     1
 40
0.6
176
     1
 40
30.0
176
     1
 62
     7
420
 16777215
176
     1
 90
        1
176
     1
 90
        4
176
     1
 62
     7
176
     1
 62
   257
176
     1
 90
        7
176
     1
 90
        7
176
     1
 40
1.0
176
     1
 90
        8
176
     1
 62
     7
176
     1
 40
1.0
176
     1
 90
        1
176
     1
 90
        6
176
     1
 90
        2
176
     1
 62
     7
176
     1
 90
        5
176
     1
 90
        0
176
     1
 90
        0
176
     1
290
     0
176
     1
 90
        1
176
     1
 40
0.0
176
     1
 90
        0
176
     1
290
     0
176
     1
290
     1
176
     1
290
     1
176
     1
290
     0
176
     1
290
     0
176
     1
290
     0
176
     1
290
     0
176
     1
290
     0
176
     1
290
     0
176
     1
 90
       50
176
     1
 40
0.0
176
     1
 40
1.0
176
     1
 90
        0
176
     1
 62
    18
420
        0
176
     1
 90
       50
176
     1
 90
        3
176
     1
 62
     5
420
      255
176
     1
290
     0
176
     1
 90
       50
176
     1
 90
       50
176
     1
 90
       50
176
     1
290
     0
176
     1
 90
       50
176
     1
 62
   256
176
     0
 40
1.0
176
     0
 90
        2
176
     1
  1
strokes_ogs.tif
176
     1
290
     0
176
     1
 40
1.0
176
     1
 40
1.0
176
     1
  0
VISUALSTYLE
  5
40
102
{ACAD_REACTORS
330
29
102
}
330
29
100
AcDbVisualStyle
  2
OverhangOff
 70
    21
177
     3
291
     1
 70
    58
 90
        2
176
     0
 90
        2
176
     0
 90
        0
176
     0
 90
        0
176
     0
 40
0.6
176
     0
 40
30.0
176
     0
 62
     7
420
 16777215
176
     0
 90
        1
176
     0
 90
        4
176
     0
 62
     7
176
     0
 62
   257
176
     0
 90
        1
176
     0
 90
        1
176
     0
 40
1.0
176
     0
 90
        9
176
     2
 62
     7
176
     0
 40
1.0
176
     0
 90
        1
176
     0
 90
        6
176
     0
 90
        2
176
     0
 62
     7
176
     0
 90
        5
176
     0
 90
        0
176
     0
 90
        0
176
     0
290
     0
176
     0
 90
        1
176
     0
 40
0.0
176
     0
 90
        0
176
     0
290
     0
176
     0
290
     1
176
     0
290
     1
176
     0
290
     0
176
     0
290
     0
176
     0
290
     0
176
     0
290
     0
176
     0
290
     0
176
     0
290
     0
176
     0
 90
       50
176
     0
 40
0.0
176
     0
 40
1.0
176
     0
 90
        0
176
     0
 62
    18
420
        0
176
     0
 90
       50
176
     0
 90
        3
176
     0
 62
     5
420
      255
176
     0
290
     0
176
     0
 90
       50
176
     0
 90
       50
176
     0
 90
       50
176
     0
290
     0
176
     0
 90
       50
176
     0
 62
   256
176
     0
 40
1.0
176
     0
 90
        2
176
     0
  1
strokes_ogs.tif
176
     0
290
     0
176
     0
 40
1.0
176
     0
 40
1.0
176
     0
  0
VISUALSTYLE
  5
33
102
{ACAD_REACTORS
330
29
102
}
330
29
100
AcDbVisualStyle
  2
Realistic
 70
     8
177
     3
291
     0
 70
    58
 90
        2
176
     1
 90
        3
176
     1
 90
        0
176
     1
 90
        2
176
     1
 40
0.6
176
     1
 40
30.0
176
     1
 62
     7
420
 16777215
176
     1
 90
        0
176
     1
 90
        0
176
     1
 62
     7
176
     1
 62
   257
176
     1
 90
        1
176
     1
 90
        1
176
     1
 40
1.0
176
     1
 90
        8
176
     1
 62
   257
176
     1
 40
1.0
176
     1
 90
        1
176
     1
 90
        6
176
     1
 90
        2
176
     1
 62
     7
176
     1
 90
        3
176
     1
 90
        0
176
     1
 90
        0
176
     1
290
     0
176
     1
 90
       13
176
     1
 40
0.0
176
     1
 90
        0
176
     1
290
     0
176
     1
290
     1
176
     1
290
     1
176
     1
290
     0
176
     1
290
     0
176
     1
290
     0
176
     1
290
     0
176
     1
290
     0
176
     1
290
     0
176
     1
 90
       50
176
     1
 40
0.0
176
     1
 40
1.0
176
     1
 90
        0
176
     1
 62
    18
420
        0
176
     1
 90
       50
176
     1
 90
        3
176
     1
 62
     5
420
      255
176
     1
290
     0
176
     1
 90
       50
176
     1
 90
       50
176
     1
 90
       50
176
     1
290
     0
176
     1
 90
       50
176
     1
 62
   256
176
     0
 40
1.0
176
     0
 90
        2
176
     1
  1
strokes_ogs.tif
176
     1
290
     0
176
     1
 40
1.0
176
     1
 40
1.0
176
     1
  0
VISUALSTYLE
  5
3E
102
{ACAD_REACTORS
330
29
102
}
330
29
100
AcDbVisualStyle
  2
Shaded
 70
    27
177
     3
291
     0
 70
    58
 90
        2
176
     1
 90
        2
176
     1
 90
        1
176
     1
 90
        2
176
     1
 40
0.6
176
     1
 40
30.0
176
     1
 62
     7
420
 16777215
176
     1
 90
        0
176
     1
 90
        4
176
     1
 62
     7
176
     1
 62
   257
176
     1
 90
        1
176
     1
 90
        1
176
     1
 40
1.0
176
     1
 90
        8
176
     1
 62
   257
176
     1
 40
1.0
176
     1
 90
        1
176
     1
 90
        6
176
     1
 90
        2
176
     1
 62
     8
420
  7895160
176
     1
 90
        3
176
     1
 90
        0
176
     1
 90
        0
176
     1
290
     0
176
     1
 90
        5
176
     1
 40
0.0
176
     1
 90
        0
176
     1
290
     0
176
     1
290
     1
176
     1
290
     1
176
     1
290
     0
176
     1
290
     0
176
     1
290
     0
176
     1
290
     0
176
     1
290
     0
176
     1
290
     0
176
     1
 90
       50
176
     1
 40
0.0
176
     1
 40
1.0
176
     1
 90
        0
176
     1
 62
    18
420
        0
176
     1
 90
       50
176
     1
 90
        3
176
     1
 62
     5
420
      255
176
     1
290
     0
176
     1
 90
       50
176
     1
 90
       50
176
     1
 90
       50
176
     1
290
     0
176
     1
 90
       50
176
     1
 62
   256
176
     0
 40
1.0
176
     0
 90
        2
176
     1
  1
strokes_ogs.tif
176
     1
290
     0
176
     1
 40
1.0
176
     1
 40
1.0
176
     1
  0
VISUALSTYLE
  5
3D
102
{ACAD_REACTORS
330
29
102
}
330
29
100
AcDbVisualStyle
  2
Shaded with edges
 70
    26
177
     3
291
     0
 70
    58
 90
        2
176
     1
 90
        2
176
     1
 90
        1
176
     1
 90
        2
176
     1
 40
0.6
176
     1
 40
30.0
176
     1
 62
     7
420
 16777215
176
     1
 90
        1
176
     1
 90
       10
176
     1
 62
     7
176
     1
 62
   257
176
     1
 90
        2
176
     1
 90
        1
176
     1
 40
1.0
176
     1
 90
        8
176
     1
 62
   257
176
     1
 40
1.0
176
     1
 90
        1
176
     1
 90
        6
176
     1
 90
        2
176
     1
 62
     7
176
     1
 90
        3
176
     1
 90
        0
176
     1
 90
        0
176
     1
290
     0
176
     1
 90
        5
176
     1
 40
0.0
176
     1
 90
        0
176
     1
290
     0
176
     1
290
     1
176
     1
290
     1
176
     1
290
     0
176
     1
290
     0
176
     1
290
     0
176
     1
290
     0
176
     1
290
     0
176
     1
290
     0
176
     1
 90
       50
176
     1
 40
0.0
176
     1
 40
1.0
176
     1
 90
        0
176
     1
 62
    18
420
        0
176
     1
 90
       50
176
     1
 90
        3
176
     1
 62
     5
420
      255
176
     1
290
     0
176
     1
 90
       50
176
     1
 90
       50
176
     1
 90
       50
176
     1
290
     0
176
     1
 90
       50
176
     1
 62
   256
176
     0
 40
1.0
176
     0
 90
        2
176
     1
  1
strokes_ogs.tif
176
     1
290
     0
176
     1
 40
1.0
176
     1
 40
1.0
176
     1
  0
VISUALSTYLE
  5
3A
102
{ACAD_REACTORS
330
29
102
}
330
29
100
AcDbVisualStyle
  2
Shades of Gray
 70
    23
177
     3
291
     0
 70
    58
 90
        2
176
     1
 90
        2
176
     1
 90
        3
176
     1
 90
        0
176
     1
 40
0.6
176
     1
 40
30.0
176
     1
 62
     7
420
 16777215
176
     1
 90
        2
176
     1
 90
        2
176
     1
 62
     7
176
     1
 62
     7
176
     1
 90
        1
176
     1
 90
        1
176
     1
 40
40.0
176
     1
 90
        8
176
     1
 62
     7
176
     1
 40
1.0
176
     1
 90
        1
176
     1
 90
        6
176
     1
 90
        2
176
     1
 62
     7
176
     1
 90
        3
176
     1
 90
        0
176
     1
 90
        0
176
     1
290
     0
176
     1
 90
        1
176
     1
 40
0.0
176
     1
 90
        0
176
     1
290
     0
176
     1
290
     1
176
     1
290
     1
176
     1
290
     0
176
     1
290
     0
176
     1
290
     0
176
     1
290
     0
176
     1
290
     0
176
     1
290
     0
176
     1
 90
       50
176
     1
 40
0.0
176
     1
 40
1.0
176
     1
 90
        0
176
     1
 62
    18
420
        0
176
     1
 90
       50
176
     1
 90
        3
176
     1
 62
     5
420
      255
176
     1
290
     0
176
     1
 90
       50
176
     1
 90
       50
176
     1
 90
       50
176
     1
290
     0
176
     1
 90
       50
176
     1
 62
   256
176
     0
 40
1.0
176
     0
 90
        2
176
     1
  1
strokes_ogs.tif
176
     1
290
     0
176
     1
 40
1.0
176
     1
 40
1.0
176
     1
  0
VISUALSTYLE
  5
3B
102
{ACAD_REACTORS
330
29
102
}
330
29
100
AcDbVisualStyle
  2
Sketchy
 70
    24
177
     3
291
     0
 70
    58
 90
        1
176
     1
 90
        2
176
     1
 90
        2
176
     1
 90
        0
176
     1
 40
0.6
176
     1
 40
30.0
176
     1
 62
     7
420
 16777215
176
     1
 90
        2
176
     1
 90
        2
176
     1
 62
     7
176
     1
 62
     7
176
     1
 90
        1
176
     1
 90
        1
176
     1
 40
40.0
176
     1
 90
       11
176
     1
 62
     7
176
     1
 40
1.0
176
     1
 90
        1
176
     1
 90
        6
176
     1
 90
        2
176
     1
 62
     7
176
     1
 90
        6
176
     1
 90
        0
176
     1
 90
        0
176
     1
290
     0
176
     1
 90
        1
176
     1
 40
0.0
176
     1
 90
        0
176
     1
290
     0
176
     1
290
     1
176
     1
290
     1
176
     1
290
     0
176
     1
290
     0
176
     1
290
     0
176
     1
290
     0
176
     1
290
     0
176
     1
290
     0
176
     1
 90
       50
176
     1
 40
0.0
176
     1
 40
1.0
176
     1
 90
        0
176
     1
 62
    18
420
        0
176
     1
 90
       50
176
     1
 90
        3
176
     1
 62
     5
420
      255
176
     1
290
     0
176
     1
 90
       50
176
     1
 90
       50
176
     1
 90
       50
176
     1
290
     0
176
     1
 90
       50
176
     1
 62
   256
176
     0
 40
1.0
176
     0
 90
        2
176
     1
  1
strokes_ogs.tif
176
     1
290
     0
176
     1
 40
1.0
176
     1
 40
1.0
176
     1
  0
VISUALSTYLE
  5
36
102
{ACAD_REACTORS
330
29
102
}
330
29
100
AcDbVisualStyle
  2
Thicken
 70
    13
177
     3
291
     1
 70
    58
 90
        2
176
     1
 90
        2
176
     1
 90
        0
176
     1
 90
        0
176
     1
 40
0.6
176
     1
 40
30.0
176
     1
 62
     7
420
 16777215
176
     1
 90
        1
176
     1
 90
        4
176
     1
 62
     7
176
     1
 62
   257
176
     1
 90
        1
176
     1
 90
        1
176
     1
 40
1.0
176
     1
 90
       12
176
     1
 62
     7
176
     1
 40
1.0
176
     1
 90
        1
176
     1
 90
        6
176
     1
 90
        2
176
     1
 62
     7
176
     1
 90
        5
176
     1
 90
        0
176
     1
 90
        0
176
     1
290
     0
176
     1
 90
        1
176
     1
 40
0.0
176
     1
 90
        0
176
     1
290
     0
176
     1
290
     1
176
     1
290
     1
176
     1
290
     0
176
     1
290
     0
176
     1
290
     0
176
     1
290
     0
176
     1
290
     0
176
     1
290
     0
176
     1
 90
       50
176
     1
 40
0.0
176
     1
 40
1.0
176
     1
 90
        0
176
     1
 62
    18
420
        0
176
     1
 90
       50
176
     1
 90
        3
176
     1
 62
     5
420
      255
176
     1
290
     0
176
     1
 90
       50
176
     1
 90
       50
176
     1
 90
       50
176
     1
290
     0
176
     1
 90
       50
176
     1
 62
   256
176
     0
 40
1.0
176
     0
 90
        2
176
     1
  1
strokes_ogs.tif
176
     1
290
     0
176
     1
 40
1.0
176
     1
 40
1.0
176
     1
  0
VISUALSTYLE
  5
30
102
{ACAD_REACTORS
330
29
102
}
330
29
100
AcDbVisualStyle
  2
Wireframe
 70
     5
177
     3
291
     0
 70
    58
 90
        0
176
     1
 90
        2
176
     1
 90
        0
176
     1
 90
        0
176
     1
 40
0.6
176
     1
 40
30.0
176
     1
 62
     7
420
 16777215
176
     1
 90
        1
176
     1
 90
        4
176
     1
 62
     7
176
     1
 62
   257
176
     1
 90
        1
176
     1
 90
        1
176
     1
 40
1.0
176
     1
 90
        0
176
     1
 62
   257
176
     1
 40
1.0
176
     1
 90
        1
176
     1
 90
        6
176
     1
 90
        2
176
     1
 62
     7
176
     1
 90
        3
176
     1
 90
        0
176
     1
 90
        0
176
     1
290
     0
176
     1
 90
        1
176
     1
 40
0.0
176
     1
 90
        0
176
     1
290
     0
176
     1
290
     1
176
     1
290
     1
176
     1
290
     0
176
     1
290
     0
176
     1
290
     0
176
     1
290
     0
176
     1
290
     0
176
     1
290
     0
176
     1
 90
       50
176
     1
 40
0.0
176
     1
 40
1.0
176
     1
 90
        0
176
     1
 62
    18
420
        0
176
     1
 90
       50
176
     1
 90
        3
176
     1
 62
     5
420
      255
176
     1
290
     0
176
     1
 90
       50
176
     1
 90
       50
176
     1
 90
       50
176
     1
290
     0
176
     1
 90
       50
176
     1
 62
   256
176
     0
 40
1.0
176
     0
 90
        2
176
     1
  1
strokes_ogs.tif
176
     1
290
     0
176
     1
 40
1.0
176
     1
 40
1.0
176
     1
  0
VISUALSTYLE
  5
3C
102
{ACAD_REACTORS
330
29
102
}
330
29
100
AcDbVisualStyle
  2
X-Ray
 70
    25
177
     3
291
     0
 70
    58
 90
        2
176
     1
 90
        2
176
     1
 90
        1
176
     1
 90
        1
176
     1
 40
0.5
176
     1
 40
30.0
176
     1
 62
     7
420
 16777215
176
     1
 90
        1
176
     1
 90
        0
176
     1
 62
     7
176
     1
 62
   257
176
     1
 90
        1
176
     1
 90
        1
176
     1
 40
1.0
176
     1
 90
        8
176
     1
 62
     7
176
     1
 40
1.0
176
     1
 90
        1
176
     1
 90
        6
176
     1
 90
        2
176
     1
 62
     7
176
     1
 90
        3
176
     1
 90
        0
176
     1
 90
        0
176
     1
290
     0
176
     1
 90
       13
176
     1
 40
0.0
176
     1
 90
        0
176
     1
290
     0
176
     1
290
     1
176
     1
290
     1
176
     1
290
     0
176
     1
290
     0
176
     1
290
     0
176
     1
290
     0
176
     1
290
     0
176
     1
290
     0
176
     1
 90
       50
176
     1
 40
0.0
176
     1
 40
1.0
176
     1
 90
        0
176
     1
 62
    18
420
        0
176
     1
 90
       50
176
     1
 90
        3
176
     1
 62
     5
420
      255
176
     1
290
     0
176
     1
 90
       50
176
     1
 90
       50
176
     1
 90
       50
176
     1
290
     0
176
     1
 90
       50
176
     1
 62
   256
176
     0
 40
1.0
176
     0
 90
        2
176
     1
  1
strokes_ogs.tif
176
     1
290
     0
176
     1
 40
1.0
176
     1
 40
1.0
176
     1
  0
DICTIONARYVAR
  5
438
102
{ACAD_REACTORS
330
433
102
}
330
433
100
DictionaryVariables
280
     0
  1
1:1
  0
DICTIONARYVAR
  5
435
102
{ACAD_REACTORS
330
433
102
}
330
433
100
DictionaryVariables
280
     0
  1
STANDARD
  0
DICTIONARYVAR
  5
434
102
{ACAD_REACTORS
330
433
102
}
330
433
100
DictionaryVariables
280
     0
  1
STANDARD
  0
DICTIONARYVAR
  5
436
102
{ACAD_REACTORS
330
433
102
}
330
433
100
DictionaryVariables
280
     0
  1
Imperial24
  0
DICTIONARYVAR
  5
437
102
{ACAD_REACTORS
330
433
102
}
330
433
100
DictionaryVariables
280
     0
  1
Imperial24
  0
DICTIONARY
  5
491
330
6A
100
AcDbDictionary
280
     1
281
     1
  3
ACAD_XREC_ROUNDTRIP
360
492
  0
DICTIONARY
  5
431
330
72
100
AcDbDictionary
280
     1
281
     1
  0
DICTIONARY
  5
1A
330
19
100
AcDbDictionary
280
     1
281
     1
  3
BUMPTILE
360
1C
  3
DIFFUSETILE
360
1B
  3
OPACITYTILE
360
1F
  3
REFLECTIONTILE
360
1E
  3
REFRACTIONTILE
360
20
  3
SPECULARTILE
360
1D
  0
DICTIONARY
  5
12
330
11
100
AcDbDictionary
280
     1
281
     1
  3
BUMPTILE
360
14
  3
DIFFUSETILE
360
13
  3
OPACITYTILE
360
17
  3
REFLECTIONTILE
360
16
  3
REFRACTIONTILE
360
18
  3
SPECULARTILE
360
15
  0
DICTIONARY
  5
22
330
21
100
AcDbDictionary
280
     1
281
     1
  3
BUMPTILE
360
24
  3
DIFFUSETILE
360
23
  3
OPACITYTILE
360
27
  3
REFLECTIONTILE
360
26
  3
REFRACTIONTILE
360
28
  3
SPECULARTILE
360
25
  0
DICTIONARY
  5
48F
330
68
100
AcDbDictionary
280
     1
281
     1
  3
ACAD_XREC_ROUNDTRIP
360
490
  0
DICTIONARY
  5
48D
330
64
100
AcDbDictionary
280
     1
281
     1
  3
ACAD_ROUNDTRIP_2008_TABLESTYLE_CELLSTYLEMAP
360
48E
  0
XRECORD
  5
492
102
{ACAD_REACTORS
330
491
102
}
330
491
100
AcDbXrecord
280
     1
102
DISPLAYNAME
  1
Imperial24
102
FLAGS
 90
        0
  0
XRECORD
  5
1C
102
{ACAD_REACTORS
330
1A
102
}
330
1A
100
AcDbXrecord
280
     1
270
     1
271
     1
  0
XRECORD
  5
1B
102
{ACAD_REACTORS
330
1A
102
}
330
1A
100
AcDbXrecord
280
     1
270
     1
271
     1
  0
XRECORD
  5
1F
102
{ACAD_REACTORS
330
1A
102
}
330
1A
100
AcDbXrecord
280
     1
270
     1
271
     1
  0
XRECORD
  5
1E
102
{ACAD_REACTORS
330
1A
102
}
330
1A
100
AcDbXrecord
280
     1
270
     1
271
     1
  0
XRECORD
  5
20
102
{ACAD_REACTORS
330
1A
102
}
330
1A
100
AcDbXrecord
280
     1
270
     1
271
     1
  0
XRECORD
  5
1D
102
{ACAD_REACTORS
330
1A
102
}
330
1A
100
AcDbXrecord
280
     1
270
     1
271
     1
  0
XRECORD
  5
14
102
{ACAD_REACTORS
330
12
102
}
330
12
100
AcDbXrecord
280
     1
270
     1
271
     1
  0
XRECORD
  5
13
102
{ACAD_REACTORS
330
12
102
}
330
12
100
AcDbXrecord
280
     1
270
     1
271
     1
  0
XRECORD
  5
17
102
{ACAD_REACTORS
330
12
102
}
330
12
100
AcDbXrecord
280
     1
270
     1
271
     1
  0
XRECORD
  5
16
102
{ACAD_REACTORS
330
12
102
}
330
12
100
AcDbXrecord
280
     1
270
     1
271
     1
  0
XRECORD
  5
18
102
{ACAD_REACTORS
330
12
102
}
330
12
100
AcDbXrecord
280
     1
270
     1
271
     1
  0
XRECORD
  5
15
102
{ACAD_REACTORS
330
12
102
}
330
12
100
AcDbXrecord
280
     1
270
     1
271
     1
  0
XRECORD
  5
24
102
{ACAD_REACTORS
330
22
102
}
330
22
100
AcDbXrecord
280
     1
270
     1
271
     1
  0
XRECORD
  5
23
102
{ACAD_REACTORS
330
22
102
}
330
22
100
AcDbXrecord
280
     1
270
     1
271
     1
  0
XRECORD
  5
27
102
{ACAD_REACTORS
330
22
102
}
330
22
100
AcDbXrecord
280
     1
270
     1
271
     1
  0
XRECORD
  5
26
102
{ACAD_REACTORS
330
22
102
}
330
22
100
AcDbXrecord
280
     1
270
     1
271
     1
  0
XRECORD
  5
28
102
{ACAD_REACTORS
330
22
102
}
330
22
100
AcDbXrecord
280
     1
270
     1
271
     1
  0
XRECORD
  5
25
102
{ACAD_REACTORS
330
22
102
}
330
22
100
AcDbXrecord
280
     1
270
     1
271
     1
  0
XRECORD
  5
490
102
{ACAD_REACTORS
330
48F
102
}
330
48F
100
AcDbXrecord
280
     1
102
DISPLAYNAME
  1
Imperial24
102
FLAGS
 90
        0
  0
CELLSTYLEMAP
  5
48E
102
{ACAD_REACTORS
330
48D
102
}
330
48D
100
AcDbCellStyleMap
 90
        3
300
CELLSTYLE
  1
TABLEFORMAT_BEGIN
 90
        5
170
     1
 91
        0
 92
    32768
 62
   257
 93
        1
300
CONTENTFORMAT
  1
CONTENTFORMAT_BEGIN
 90
        0
 91
        0
 92
      512
 93
        0
300

 40
0.0
140
1.0
 94
        5
 62
     0
340
55
144
0.25
309
CONTENTFORMAT_END
171
     0
 94
        0
309
TABLEFORMAT_END
  1
CELLSTYLE_BEGIN
 90
        1
 91
        1
300
_TITLE
309
CELLSTYLE_END
300
CELLSTYLE
  1
TABLEFORMAT_BEGIN
 90
        5
170
     1
 91
        0
 92
        0
 62
   257
 93
        1
300
CONTENTFORMAT
  1
CONTENTFORMAT_BEGIN
 90
        0
 91
        0
 92
      512
 93
        0
300

 40
0.0
140
1.0
 94
        5
 62
     0
340
55
144
0.18
309
CONTENTFORMAT_END
171
     0
 94
        0
309
TABLEFORMAT_END
  1
CELLSTYLE_BEGIN
 90
        2
 91
        1
300
_HEADER
309
CELLSTYLE_END
300
CELLSTYLE
  1
TABLEFORMAT_BEGIN
 90
        5
170
     1
 91
        0
 92
        0
 62
   257
 93
        1
300
CONTENTFORMAT
  1
CONTENTFORMAT_BEGIN
 90
        0
 91
        0
 92
      512
 93
        0
300

 40
0.0
140
1.0
 94
        2
 62
     0
340
55
144
0.18
309
CONTENTFORMAT_END
171
     0
 94
        0
309
TABLEFORMAT_END
  1
CELLSTYLE_BEGIN
 90
        3
 91
        2
300
_DATA
309
CELLSTYLE_END
  0
ENDSEC
  0
SECTION
  2
ACDSDATA
 70
     2
 71
     6
  0
ACDSSCHEMA
 90
        0
  1
AcDb_Thumbnail_Schema
  2
AcDbDs::ID
280
    10
 91
        8
  2
Thumbnail_Data
280
    15
 91
        0
101
ACDSRECORD
 95
        0
 90
        1
  2
AcDbDs::TreatedAsObjectData
280
     1
291
     1
101
ACDSRECORD
 95
        0
 90
        2
  2
AcDbDs::Legacy
280
     1
291
     1
101
ACDSRECORD
  1
AcDbDs::ID
 90
        3
  2
AcDs:Indexable
280
     1
291
     1
101
ACDSRECORD
  1
AcDbDs::ID
 90
        4
  2
AcDbDs::HandleAttribute
280
     7
282
     1
  0
ACDSSCHEMA
 90
        1
  1
AcDbDs::TreatedAsObjectDataSchema
  2
AcDbDs::TreatedAsObjectData
280
     1
 91
        0
  0
ACDSSCHEMA
 90
        2
  1
AcDbDs::LegacySchema
  2
AcDbDs::Legacy
280
     1
 91
        0
  0
ACDSSCHEMA
 90
        3
  1
AcDbDs::IndexedPropertySchema
  2
AcDs:Indexable
280
     1
 91
        0
  0
ACDSSCHEMA
 90
        4
  1
AcDbDs::HandleAttributeSchema
  2
AcDbDs::HandleAttribute
280
     7
 91
        1
284
     1
  0
ACDSRECORD
 90
        0
  2
AcDbDs::ID
280
    10
320
72
  2
Thumbnail_Data
280
    15
 94
     1409
310
89504E470D0A1A0A0000000D49484452000001000000009B0803000000BA7AB56000000300504C54455B5B5B000000C8C8C80000000000000000000000000000000000000000000000000000330000660000990000CC0000FF0033000033330033660033990033CC0033FF0066000066330066660066990066CC0066FF0099
310
000099330099660099990099CC0099FF00CC0000CC3300CC6600CC9900CCCC00CCFF00FF0000FF3300FF6600FF9900FFCC00FFFF3300003300333300663300993300CC3300FF3333003333333333663333993333CC3333FF3366003366333366663366993366CC3366FF3399003399333399663399993399CC3399FF33CC00
310
33CC3333CC6633CC9933CCCC33CCFF33FF0033FF3333FF6633FF9933FFCC33FFFF6600006600336600666600996600CC6600FF6633006633336633666633996633CC6633FF6666006666336666666666996666CC6666FF6699006699336699666699996699CC6699FF66CC0066CC3366CC6666CC9966CCCC66CCFF66FF0066
310
FF3366FF6666FF9966FFCC66FFFF9900009900339900669900999900CC9900FF9933009933339933669933999933CC9933FF9966009966339966669966999966CC9966FF9999009999339999669999999999CC9999FF99CC0099CC3399CC6699CC9999CCCC99CCFF99FF0099FF3399FF6699FF9999FFCC99FFFFCC0000CC00
310
33CC0066CC0099CC00CCCC00FFCC3300CC3333CC3366CC3399CC33CCCC33FFCC6600CC6633CC6666CC6699CC66CCCC66FFCC9900CC9933CC9966CC9999CC99CCCC99FFCCCC00CCCC33CCCC66CCCC99CCCCCCCCCCFFCCFF00CCFF33CCFF66CCFF99CCFFCCCCFFFFFF0000FF0033FF0066FF0099FF00CCFF00FFFF3300FF3333
310
FF3366FF3399FF33CCFF33FFFF6600FF6633FF6666FF6699FF66CCFF66FFFF9900FF9933FF9966FF9999FF99CCFF99FFFFCC00FFCC33FFCC66FFCC99FFCCCCFFCCFFFFFF00FFFF33FFFF66FFFF99FFFFCCFFFFFF0000000D0D0D1A1A1A2828283535354343435050505D5D5D6B6B6B787878868686939393A1A1A1AEAEAEBB
310
BBBBC9C9C9D6D6D6E4E4E4F1F1F1FFFFFF00000000000000000000000000000000000000000000000000000000000054549EDE0000023C4944415478DAEDDC319683300C45512F8746FBEF58891693000663638A3953A4788F329DEFF916322894E2F58B6BF9D3CF0208200063FD0208000488A027E02EC00188F9EF2B0520
310
4AB001966003BC6E75016800316C055E02C22DD0F5011C80CC3C571FB804E4713D1B6122406FB0A200720200390B6459BA0CD012506F033300FA03115602660026007E18C224E0ED89183101796F858909E86E86C8045C0DE1B73342D6805B7FFC4DC04A05383AE375A102D493013701F564044C40ED026A29A400DCD71FB7
310
0014700D2C708002AF812740E102D41D4007300126C004C00116F4FA05800364E201D22D2000BD0F8200C47C5276C52420A6B3C2DB63710C4079026C774106C0B6FEC9AC74626A40CCA683483520F245809480C4276017D8DF0AB4724049C052DF0446BB5809B826A587F55312304EC9B69E089280C7902C31016DEDDD16A0
310
24E0B80D9C2BBF016412008E41F13CCF03D1084035A06EFCB80C5835E0AA7D8FFF0B51FA805602874E1806F03C0B1536C00A7F288A49C0FBBF257809E847C5310968CB1C66E57100FDA1689F0F2117817D3E84B607A00978010025E0B1CEAD2B2625605CE7B6FE4027603B13A312305B282A01530013600204807E5191BE05
310
CEA7E2DC2D1016C11A0101F01F168E974F6D5200A29001F6D784E02D70BC2824D7802816413440D01340AF017554049D003AC0DE057A171040000104104000010410400001041040000104104000010410400001041040000104104000010410400001041040000104104000010410400001BCFE7D7D0064063EADB2BECE8A
310
0000000049454E44AE426082
  0
ENDSEC
  0
EOF
