  0
SECTION
  2
HEADER
  9
$ACADVER
  1
AC1027
  9
$ACADMAINTVER
 70
    55
  9
$DWGCODEPAGE
  3
ANSI_1252
  9
$LASTSAVEDBY
  1
crinne
  9
$REQUIREDVERSIONS
160
                 0
  9
$INSBASE
 10
0.0
 20
0.0
 30
0.0
  9
$EXTMIN
 10
3.346852871993988
 20
-19.65378983103061
 30
0.0
  9
$EXTMAX
 10
4.027863587377668
 20
-18.60636360514366
 30
0.0
  9
$LIMMIN
 10
-2600.0
 20
-2600.0
  9
$LIMMAX
 10
2000.0
 20
200.0
  9
$ORTHOMODE
 70
     0
  9
$REGENMODE
 70
     1
  9
$FILLMODE
 70
     1
  9
$QTEXTMODE
 70
     0
  9
$MIRRTEXT
 70
     1
  9
$LTSCALE
 40
25.0
  9
$ATTMODE
 70
     1
  9
$TEXTSIZE
 40
3.5
  9
$TRACEWID
 40
1.0
  9
$TEXTSTYLE
  7
STANDARD
  9
$CLAYER
  8
GRABUNGSGRENZE
  9
$CELTYPE
  6
ByLayer
  9
$CECOLOR
 62
   256
  9
$CELTSCALE
 40
1.0
  9
$DISPSILH
 70
     0
  9
$DIMSCALE
 40
1.0
  9
$DIMASZ
 40
3.5
  9
$DIMEXO
 40
0.1
  9
$DIMDLI
 40
7.0
  9
$DIMRND
 40
0.0
  9
$DIMDLE
 40
0.0
  9
$DIMEXE
 40
1.8
  9
$DIMTP
 40
0.0
  9
$DIMTM
 40
0.0
  9
$DIMTXT
 40
3.5
  9
$DIMCEN
 40
1.5
  9
$DIMTSZ
 40
0.0
  9
$DIMTOL
 70
     0
  9
$DIMLIM
 70
     0
  9
$DIMTIH
 70
     0
  9
$DIMTOH
 70
     0
  9
$DIMSE1
 70
     0
  9
$DIMSE2
 70
     0
  9
$DIMTAD
 70
     0
  9
$DIMZIN
 70
     0
  9
$DIMBLK
  1

  9
$DIMASO
 70
     1
  9
$DIMSHO
 70
     0
  9
$DIMPOST
  1

  9
$DIMAPOST
  1

  9
$DIMALT
 70
     0
  9
$DIMALTD
 70
     2
  9
$DIMALTF
 40
25.4
  9
$DIMLFAC
 40
1.0
  9
$DIMTOFL
 70
     0
  9
$DIMTVP
 40
0.0
  9
$DIMTIX
 70
     0
  9
$DIMSOXD
 70
     0
  9
$DIMSAH
 70
     0
  9
$DIMBLK1
  1

  9
$DIMBLK2
  1

  9
$DIMSTYLE
  2
Standard
  9
$DIMCLRD
 70
     0
  9
$DIMCLRE
 70
     0
  9
$DIMCLRT
 70
     0
  9
$DIMTFAC
 40
1.0
  9
$DIMGAP
 40
0.09
  9
$DIMJUST
 70
     0
  9
$DIMSD1
 70
     0
  9
$DIMSD2
 70
     0
  9
$DIMTOLJ
 70
     1
  9
$DIMTZIN
 70
     0
  9
$DIMALTZ
 70
     0
  9
$DIMALTTZ
 70
     0
  9
$DIMUPT
 70
     0
  9
$DIMDEC
 70
     2
  9
$DIMTDEC
 70
     2
  9
$DIMALTU
 70
     2
  9
$DIMALTTD
 70
     2
  9
$DIMTXSTY
  7
STANDARD
  9
$DIMAUNIT
 70
     0
  9
$DIMADEC
 70
     0
  9
$DIMALTRND
 40
0.0
  9
$DIMAZIN
 70
     0
  9
$DIMDSEP
 70
    46
  9
$DIMATFIT
 70
     3
  9
$DIMFRAC
 70
     0
  9
$DIMLDRBLK
  1

  9
$DIMLUNIT
 70
     2
  9
$DIMLWD
 70
    -2
  9
$DIMLWE
 70
    -2
  9
$DIMTMOVE
 70
     2
  9
$DIMFXL
 40
1.0
  9
$DIMFXLON
 70
     0
  9
$DIMJOGANG
 40
0.7853981633974483
  9
$DIMTFILL
 70
     0
  9
$DIMTFILLCLR
 70
     0
  9
$DIMARCSYM
 70
     0
  9
$DIMLTYPE
  6

  9
$DIMLTEX1
  6

  9
$DIMLTEX2
  6

  9
$DIMTXTDIRECTION
 70
     0
  9
$LUNITS
 70
     2
  9
$LUPREC
 70
     2
  9
$SKETCHINC
 40
1.0
  9
$FILLETRAD
 40
0.0
  9
$AUNITS
 70
     0
  9
$AUPREC
 70
     0
  9
$MENU
  1
ACAD
  9
$ELEVATION
 40
0.0
  9
$PELEVATION
 40
0.0
  9
$THICKNESS
 40
0.0
  9
$LIMCHECK
 70
     0
  9
$CHAMFERA
 40
0.0
  9
$CHAMFERB
 40
0.0
  9
$CHAMFERC
 40
0.0
  9
$CHAMFERD
 40
0.0
  9
$SKPOLY
 70
     0
  9
$TDCREATE
 40
2450595.598545370
  9
$TDUCREATE
 40
2450595.515212037
  9
$TDUPDATE
 40
2459796.511412361
  9
$TDUUPDATE
 40
2459796.428079028
  9
$TDINDWG
 40
0.0132310648
  9
$TDUSRTIMER
 40
0.0132310648
  9
$USRTIMER
 70
     1
  9
$ANGBASE
 50
0.0
  9
$ANGDIR
 70
     0
  9
$PDMODE
 70
     0
  9
$PDSIZE
 40
0.0
  9
$PLINEWID
 40
0.0
  9
$SPLFRAME
 70
     0
  9
$SPLINETYPE
 70
     6
  9
$SPLINESEGS
 70
     8
  9
$HANDSEED
  5
4BE
  9
$SURFTAB1
 70
     6
  9
$SURFTAB2
 70
     6
  9
$SURFTYPE
 70
     6
  9
$SURFU
 70
     6
  9
$SURFV
 70
     6
  9
$UCSBASE
  2

  9
$UCSNAME
  2

  9
$UCSORG
 10
0.0
 20
0.0
 30
0.0
  9
$UCSXDIR
 10
1.0
 20
0.0
 30
0.0
  9
$UCSYDIR
 10
0.0
 20
1.0
 30
0.0
  9
$UCSORTHOREF
  2

  9
$UCSORTHOVIEW
 70
     0
  9
$UCSORGTOP
 10
0.0
 20
0.0
 30
0.0
  9
$UCSORGBOTTOM
 10
0.0
 20
0.0
 30
0.0
  9
$UCSORGLEFT
 10
0.0
 20
0.0
 30
0.0
  9
$UCSORGRIGHT
 10
0.0
 20
0.0
 30
0.0
  9
$UCSORGFRONT
 10
0.0
 20
0.0
 30
0.0
  9
$UCSORGBACK
 10
0.0
 20
0.0
 30
0.0
  9
$PUCSBASE
  2

  9
$PUCSNAME
  2

  9
$PUCSORG
 10
0.0
 20
0.0
 30
0.0
  9
$PUCSXDIR
 10
1.0
 20
0.0
 30
0.0
  9
$PUCSYDIR
 10
0.0
 20
1.0
 30
0.0
  9
$PUCSORTHOREF
  2

  9
$PUCSORTHOVIEW
 70
     0
  9
$PUCSORGTOP
 10
0.0
 20
0.0
 30
0.0
  9
$PUCSORGBOTTOM
 10
0.0
 20
0.0
 30
0.0
  9
$PUCSORGLEFT
 10
0.0
 20
0.0
 30
0.0
  9
$PUCSORGRIGHT
 10
0.0
 20
0.0
 30
0.0
  9
$PUCSORGFRONT
 10
0.0
 20
0.0
 30
0.0
  9
$PUCSORGBACK
 10
0.0
 20
0.0
 30
0.0
  9
$USERI1
 70
     0
  9
$USERI2
 70
     0
  9
$USERI3
 70
     0
  9
$USERI4
 70
     0
  9
$USERI5
 70
     0
  9
$USERR1
 40
0.0
  9
$USERR2
 40
0.0
  9
$USERR3
 40
0.0
  9
$USERR4
 40
0.0
  9
$USERR5
 40
0.0
  9
$WORLDVIEW
 70
     1
  9
$SHADEDGE
 70
     3
  9
$SHADEDIF
 70
    70
  9
$TILEMODE
 70
     1
  9
$MAXACTVP
 70
    16
  9
$PINSBASE
 10
0.0
 20
0.0
 30
0.0
  9
$PLIMCHECK
 70
     0
  9
$PEXTMIN
 10
1.000000000000000E+20
 20
1.000000000000000E+20
 30
1.000000000000000E+20
  9
$PEXTMAX
 10
-1.000000000000000E+20
 20
-1.000000000000000E+20
 30
-1.000000000000000E+20
  9
$PLIMMIN
 10
0.0
 20
0.0
  9
$PLIMMAX
 10
12.0
 20
9.0
  9
$UNITMODE
 70
     0
  9
$VISRETAIN
 70
     0
  9
$PLINEGEN
 70
     0
  9
$PSLTSCALE
 70
     0
  9
$TREEDEPTH
 70
  3020
  9
$CMLSTYLE
  2
Standard
  9
$CMLJUST
 70
     0
  9
$CMLSCALE
 40
1.0
  9
$PROXYGRAPHICS
 70
     1
  9
$MEASUREMENT
 70
     0
  9
$CELWEIGHT
370
    -1
  9
$ENDCAPS
280
     0
  9
$JOINSTYLE
280
     0
  9
$LWDISPLAY
290
     0
  9
$INSUNITS
 70
     6
  9
$HYPERLINKBASE
  1

  9
$STYLESHEET
  1

  9
$XEDIT
290
     1
  9
$CEPSNTYPE
380
     0
  9
$PSTYLEMODE
290
     1
  9
$FINGERPRINTGUID
  2
{CF259456-7A2D-46F3-BB6C-8A2F6F777F4B}
  9
$VERSIONGUID
  2
{06FDA98F-58C9-435D-A1C2-F6B0AC555CA5}
  9
$EXTNAMES
290
     1
  9
$PSVPSCALE
 40
0.0
  9
$OLESTARTUP
290
     0
  9
$SORTENTS
280
   127
  9
$INDEXCTL
280
     0
  9
$HIDETEXT
280
     1
  9
$XCLIPFRAME
280
     2
  9
$HALOGAP
280
     0
  9
$OBSCOLOR
 70
   257
  9
$OBSLTYPE
280
     0
  9
$INTERSECTIONDISPLAY
280
     0
  9
$INTERSECTIONCOLOR
 70
   257
  9
$DIMASSOC
280
     2
  9
$PROJECTNAME
  1

  9
$CAMERADISPLAY
290
     0
  9
$LENSLENGTH
 40
50.0
  9
$CAMERAHEIGHT
 40
0.0
  9
$STEPSPERSEC
 40
2.0
  9
$STEPSIZE
 40
6.0
  9
$3DDWFPREC
 40
2.0
  9
$PSOLWIDTH
 40
0.25
  9
$PSOLHEIGHT
 40
4.0
  9
$LOFTANG1
 40
1.570796326794896
  9
$LOFTANG2
 40
1.570796326794896
  9
$LOFTMAG1
 40
0.0
  9
$LOFTMAG2
 40
0.0
  9
$LOFTPARAM
 70
     7
  9
$LOFTNORMALS
280
     1
  9
$LATITUDE
 40
37.795
  9
$LONGITUDE
 40
-122.394
  9
$NORTHDIRECTION
 40
0.0
  9
$TIMEZONE
 70
 -8000
  9
$LIGHTGLYPHDISPLAY
280
     1
  9
$TILEMODELIGHTSYNCH
280
     1
  9
$CMATERIAL
347
11
  9
$SOLIDHIST
280
     0
  9
$SHOWHIST
280
     1
  9
$DWFFRAME
280
     2
  9
$DGNFRAME
280
     0
  9
$REALWORLDSCALE
290
     1
  9
$INTERFERECOLOR
 62
     1
  9
$INTERFEREOBJVS
345
33
  9
$INTERFEREVPVS
346
30
  9
$CSHADOW
280
     0
  9
$SHADOWPLANELOCATION
 40
0.0
  0
ENDSEC
  0
SECTION
  2
CLASSES
  0
CLASS
  1
ACDBDICTIONARYWDFLT
  2
AcDbDictionaryWithDefault
  3
ObjectDBX Classes
 90
        0
 91
        1
280
     0
281
     0
  0
CLASS
  1
MATERIAL
  2
AcDbMaterial
  3
ObjectDBX Classes
 90
     1153
 91
        3
280
     0
281
     0
  0
CLASS
  1
VISUALSTYLE
  2
AcDbVisualStyle
  3
ObjectDBX Classes
 90
     4095
 91
       24
280
     0
281
     0
  0
CLASS
  1
SCALE
  2
AcDbScale
  3
ObjectDBX Classes
 90
     1153
 91
       17
280
     0
281
     0
  0
CLASS
  1
TABLESTYLE
  2
AcDbTableStyle
  3
ObjectDBX Classes
 90
     4095
 91
        1
280
     0
281
     0
  0
CLASS
  1
MLEADERSTYLE
  2
AcDbMLeaderStyle
  3
ACDB_MLEADERSTYLE_CLASS
 90
     4095
 91
        1
280
     0
281
     0
  0
CLASS
  1
ACDBSECTIONVIEWSTYLE
  2
AcDbSectionViewStyle
  3
ObjectDBX Classes
 90
     1025
 91
        1
280
     0
281
     0
  0
CLASS
  1
ACDBDETAILVIEWSTYLE
  2
AcDbDetailViewStyle
  3
ObjectDBX Classes
 90
     1025
 91
        1
280
     0
281
     0
  0
CLASS
  1
DICTIONARYVAR
  2
AcDbDictionaryVar
  3
ObjectDBX Classes
 90
        0
 91
        5
280
     0
281
     0
  0
CLASS
  1
CELLSTYLEMAP
  2
AcDbCellStyleMap
  3
ObjectDBX Classes
 90
     1152
 91
        1
280
     0
281
     0
  0
ENDSEC
  0
SECTION
  2
TABLES
  0
TABLE
  2
VPORT
  5
8
330
0
100
AcDbSymbolTable
 70
     1
  0
VPORT
  5
90
330
8
100
AcDbSymbolTableRecord
100
AcDbViewportTableRecord
  2
*ACTIVE
 70
     0
 10
0.0
 20
0.0
 11
1.0
 21
1.0
 12
3.687358229685828
 22
-19.13007671808714
 13
0.0
 23
0.0
 14
5.0
 24
5.0
 15
100.0
 25
100.0
 16
0.0
 26
0.0
 36
1.0
 17
0.0
 27
0.0
 37
0.0
 40
1.055988293128532
 41
1.649386084583901
 42
50.0
 43
0.0
 44
0.0
 50
0.0
 51
0.0
 71
     0
 72
   100
 73
     1
 74
     0
 75
     0
 76
     1
 77
     0
 78
     0
281
     0
 65
     1
110
0.0
120
0.0
130
0.0
111
1.0
121
0.0
131
0.0
112
0.0
122
1.0
132
0.0
 79
     0
146
0.0
348
2F
 60
     3
 61
     5
292
     1
282
     0
141
0.0
142
0.0
 63
   250
421
  3355443
1001
ACAD_NAV_VCDISPLAY
1070
     3
  0
ENDTAB
  0
TABLE
  2
LTYPE
  5
5
330
0
100
AcDbSymbolTable
 70
    25
  0
LTYPE
  5
5A
330
5
100
AcDbSymbolTableRecord
100
AcDbLinetypeTableRecord
  2
ByBlock
 70
     0
  3

 72
    65
 73
     0
 40
0.0
  0
LTYPE
  5
5B
330
5
100
AcDbSymbolTableRecord
100
AcDbLinetypeTableRecord
  2
ByLayer
 70
     0
  3

 72
    65
 73
     0
 40
0.0
  0
LTYPE
  5
5C
330
5
100
AcDbSymbolTableRecord
100
AcDbLinetypeTableRecord
  2
CONTINUOUS
 70
     0
  3
Ausgezogene Linie
 72
    65
 73
     0
 40
0.0
  0
LTYPE
  5
77
330
5
100
AcDbSymbolTableRecord
100
AcDbLinetypeTableRecord
  2
RAND
 70
     0
  3
__ __ . __ __ . __ __ . __ __ . __ __ . __ __ .
 72
    65
 73
     6
 40
1.75
 49
0.5
 74
     0
 49
-0.25
 74
     0
 49
0.5
 74
     0
 49
-0.25
 74
     0
 49
0.0
 74
     0
 49
-0.25
 74
     0
  0
LTYPE
  5
78
330
5
100
AcDbSymbolTableRecord
100
AcDbLinetypeTableRecord
  2
RAND2
 70
     0
  3
__.__.__.__.__.__.__.__.__.__.__.__.__.__.__.__
 72
    65
 73
     6
 40
0.875
 49
0.25
 74
     0
 49
-0.125
 74
     0
 49
0.25
 74
     0
 49
-0.125
 74
     0
 49
0.0
 74
     0
 49
-0.125
 74
     0
  0
LTYPE
  5
79
330
5
100
AcDbSymbolTableRecord
100
AcDbLinetypeTableRecord
  2
RANDX2
 70
     0
  3
____  ____  .  ____  ____  .  ____  ____  .  __
 72
    65
 73
     6
 40
3.5
 49
1.0
 74
     0
 49
-0.5
 74
     0
 49
1.0
 74
     0
 49
-0.5
 74
     0
 49
0.0
 74
     0
 49
-0.5
 74
     0
  0
LTYPE
  5
7A
330
5
100
AcDbSymbolTableRecord
100
AcDbLinetypeTableRecord
  2
MITTE
 70
     0
  3
____ _ ____ _ ____ _ ____ _ ____ _ ____ _ ____ 
 72
    65
 73
     4
 40
2.0
 49
1.25
 74
     0
 49
-0.25
 74
     0
 49
0.25
 74
     0
 49
-0.25
 74
     0
  0
LTYPE
  5
7B
330
5
100
AcDbSymbolTableRecord
100
AcDbLinetypeTableRecord
  2
MITTE2
 70
     0
  3
___ _ ___ _ ___ _ ___ _ ___ _ ___ _ ___ _ ___ _
 72
    65
 73
     4
 40
1.125
 49
0.75
 74
     0
 49
-0.125
 74
     0
 49
0.125
 74
     0
 49
-0.125
 74
     0
  0
LTYPE
  5
7C
330
5
100
AcDbSymbolTableRecord
100
AcDbLinetypeTableRecord
  2
MITTEX2
 70
     0
  3
________  __  ________  __  ________  __  _____
 72
    65
 73
     4
 40
4.0
 49
2.5
 74
     0
 49
-0.5
 74
     0
 49
0.5
 74
     0
 49
-0.5
 74
     0
  0
LTYPE
  5
7D
330
5
100
AcDbSymbolTableRecord
100
AcDbLinetypeTableRecord
  2
STRICHPUNKT
 70
     0
  3
__ . __ . __ . __ . __ . __ . __ . __ . __ . __
 72
    65
 73
     4
 40
1.0
 49
0.5
 74
     0
 49
-0.25
 74
     0
 49
0.0
 74
     0
 49
-0.25
 74
     0
  0
LTYPE
  5
7E
330
5
100
AcDbSymbolTableRecord
100
AcDbLinetypeTableRecord
  2
STRICHPUNKT2
 70
     0
  3
_._._._._._._._._._._._._._._._._._._._._._._._
 72
    65
 73
     4
 40
0.5
 49
0.25
 74
     0
 49
-0.125
 74
     0
 49
0.0
 74
     0
 49
-0.125
 74
     0
  0
LTYPE
  5
7F
330
5
100
AcDbSymbolTableRecord
100
AcDbLinetypeTableRecord
  2
STRICHPUNKTX2
 70
     0
  3
____  .  ____  .  ____  .  ____  .  ____  .  __
 72
    65
 73
     4
 40
2.0
 49
1.0
 74
     0
 49
-0.5
 74
     0
 49
0.0
 74
     0
 49
-0.5
 74
     0
  0
LTYPE
  5
80
330
5
100
AcDbSymbolTableRecord
100
AcDbLinetypeTableRecord
  2
GESTRICHELT
 70
     0
  3
__ __ __ __ __ __ __ __ __ __ __ __ __ __ __ __
 72
    65
 73
     2
 40
0.75
 49
0.5
 74
     0
 49
-0.25
 74
     0
  0
LTYPE
  5
81
330
5
100
AcDbSymbolTableRecord
100
AcDbLinetypeTableRecord
  2
GESTRICHELT2
 70
     0
  3
_ _ _ _ _ _ _ _ _ _ _ _ _ _ _ _ _ _ _ _ _ _ _ _
 72
    65
 73
     2
 40
0.375
 49
0.25
 74
     0
 49
-0.125
 74
     0
  0
LTYPE
  5
82
330
5
100
AcDbSymbolTableRecord
100
AcDbLinetypeTableRecord
  2
GESTRICHELTX2
 70
     0
  3
____  ____  ____  ____  ____  ____  ____  ____ 
 72
    65
 73
     2
 40
1.5
 49
1.0
 74
     0
 49
-0.5
 74
     0
  0
LTYPE
  5
83
330
5
100
AcDbSymbolTableRecord
100
AcDbLinetypeTableRecord
  2
GETRENNT
 70
     0
  3
____ . . ____ . . ____ . . ____ . . ____ . . __
 72
    65
 73
     6
 40
1.25
 49
0.5
 74
     0
 49
-0.25
 74
     0
 49
0.0
 74
     0
 49
-0.25
 74
     0
 49
0.0
 74
     0
 49
-0.25
 74
     0
  0
LTYPE
  5
84
330
5
100
AcDbSymbolTableRecord
100
AcDbLinetypeTableRecord
  2
GETRENNT2
 70
     0
  3
__..__..__..__..__..__..__..__..__..__..__..__.
 72
    65
 73
     6
 40
0.625
 49
0.25
 74
     0
 49
-0.125
 74
     0
 49
0.0
 74
     0
 49
-0.125
 74
     0
 49
0.0
 74
     0
 49
-0.125
 74
     0
  0
LTYPE
  5
85
330
5
100
AcDbSymbolTableRecord
100
AcDbLinetypeTableRecord
  2
GETRENNTX2
 70
     0
  3
________  .  .  ________  .  .  ________  .  . 
 72
    65
 73
     6
 40
2.5
 49
1.0
 74
     0
 49
-0.5
 74
     0
 49
0.0
 74
     0
 49
-0.5
 74
     0
 49
0.0
 74
     0
 49
-0.5
 74
     0
  0
LTYPE
  5
86
330
5
100
AcDbSymbolTableRecord
100
AcDbLinetypeTableRecord
  2
PUNKT
 70
     0
  3
. . . . . . . . . . . . . . . . . . . . . . . .
 72
    65
 73
     2
 40
0.25
 49
0.0
 74
     0
 49
-0.25
 74
     0
  0
LTYPE
  5
87
330
5
100
AcDbSymbolTableRecord
100
AcDbLinetypeTableRecord
  2
PUNKT2
 70
     0
  3
...............................................
 72
    65
 73
     2
 40
0.125
 49
0.0
 74
     0
 49
-0.125
 74
     0
  0
LTYPE
  5
88
330
5
100
AcDbSymbolTableRecord
100
AcDbLinetypeTableRecord
  2
PUNKTX2
 70
     0
  3
.  .  .  .  .  .  .  .  .  .  .  .  .  .  .  . 
 72
    65
 73
     2
 40
0.5
 49
0.0
 74
     0
 49
-0.5
 74
     0
  0
LTYPE
  5
89
330
5
100
AcDbSymbolTableRecord
100
AcDbLinetypeTableRecord
  2
VERDECKT
 70
     0
  3
__ __ __ __ __ __ __ __ __ __ __ __ __ __ __ __
 72
    65
 73
     2
 40
0.375
 49
0.25
 74
     0
 49
-0.125
 74
     0
  0
LTYPE
  5
8A
330
5
100
AcDbSymbolTableRecord
100
AcDbLinetypeTableRecord
  2
VERDECKT2
 70
     0
  3
_ _ _ _ _ _ _ _ _ _ _ _ _ _ _ _ _ _ _ _ _ _ _ _
 72
    65
 73
     2
 40
0.1875
 49
0.125
 74
     0
 49
-0.0625
 74
     0
  0
LTYPE
  5
8B
330
5
100
AcDbSymbolTableRecord
100
AcDbLinetypeTableRecord
  2
VERDECKTX2
 70
     0
  3
____ ____ ____ ____ ____ ____ ____ ____ ____ __
 72
    65
 73
     2
 40
0.75
 49
0.5
 74
     0
 49
-0.25
 74
     0
  0
LTYPE
  5
8C
330
5
100
AcDbSymbolTableRecord
100
AcDbLinetypeTableRecord
  2
PHANTOM
 70
     0
  3
______  __  __  ______  __  __  ______  __  __ 
 72
    65
 73
     6
 40
2.5
 49
1.25
 74
     0
 49
-0.25
 74
     0
 49
0.25
 74
     0
 49
-0.25
 74
     0
 49
0.25
 74
     0
 49
-0.25
 74
     0
  0
LTYPE
  5
8D
330
5
100
AcDbSymbolTableRecord
100
AcDbLinetypeTableRecord
  2
PHANTOM2
 70
     0
  3
___ _ _ ___ _ _ ___ _ _ ___ _ _ ___ _ _ ___ _ _
 72
    65
 73
     6
 40
1.25
 49
0.625
 74
     0
 49
-0.125
 74
     0
 49
0.125
 74
     0
 49
-0.125
 74
     0
 49
0.125
 74
     0
 49
-0.125
 74
     0
  0
LTYPE
  5
8E
330
5
100
AcDbSymbolTableRecord
100
AcDbLinetypeTableRecord
  2
PHANTOMX2
 70
     0
  3
____________    ____    ____    ____________   
 72
    65
 73
     6
 40
5.0
 49
2.5
 74
     0
 49
-0.5
 74
     0
 49
0.5
 74
     0
 49
-0.5
 74
     0
 49
0.5
 74
     0
 49
-0.5
 74
     0
  0
ENDTAB
  0
TABLE
  2
LAYER
  5
2
102
{ACAD_XDICTIONARY
360
416
102
}
330
0
100
AcDbSymbolTable
 70
    10
  0
LAYER
  5
54
330
2
100
AcDbSymbolTableRecord
100
AcDbLayerTableRecord
  2
0
 70
     0
 62
     7
  6
CONTINUOUS
370
    -3
390
F
347
21
348
0
  0
LAYER
  5
91
330
2
100
AcDbSymbolTableRecord
100
AcDbLayerTableRecord
  2
GRABUNGSGRENZE
 70
     0
 62
     3
  6
STRICHPUNKTX2
370
    -3
390
F
347
21
348
0
  0
LAYER
  5
92
330
2
100
AcDbSymbolTableRecord
100
AcDbLayerTableRecord
  2
BEFUND
 70
     0
 62
     1
  6
CONTINUOUS
370
    -3
390
F
347
21
348
0
  0
LAYER
  5
93
330
2
100
AcDbSymbolTableRecord
100
AcDbLayerTableRecord
  2
STEINE
 70
     0
 62
     4
  6
CONTINUOUS
370
    -3
390
F
347
21
348
0
  0
LAYER
  5
94
330
2
100
AcDbSymbolTableRecord
100
AcDbLayerTableRecord
  2
KNOCHEN
 70
     0
 62
     2
  6
CONTINUOUS
370
    -3
390
F
347
21
348
0
  0
LAYER
  5
95
330
2
100
AcDbSymbolTableRecord
100
AcDbLayerTableRecord
  2
BEFUND_UNSICHER
 70
     0
 62
     1
  6
GESTRICHELT
370
    -3
390
F
347
21
348
0
  0
LAYER
  5
96
330
2
100
AcDbSymbolTableRecord
100
AcDbLayerTableRecord
  2
FEUER
 70
     0
 62
     1
  6
CONTINUOUS
370
    -3
390
F
347
21
348
0
  0
LAYER
  5
97
330
2
100
AcDbSymbolTableRecord
100
AcDbLayerTableRecord
  2
KNOCHENSCHRAFF
 70
     0
 62
     2
  6
CONTINUOUS
370
    -3
390
F
347
21
348
0
  0
LAYER
  5
98
330
2
100
AcDbSymbolTableRecord
100
AcDbLayerTableRecord
  2
TPROFIL
 70
     0
 62
     3
  6
CONTINUOUS
370
    -3
390
F
347
21
348
0
  0
LAYER
  5
99
330
2
100
AcDbSymbolTableRecord
100
AcDbLayerTableRecord
  2
STEINESCHRAFF
 70
     0
 62
     4
  6
CONTINUOUS
370
    -3
390
F
347
21
348
0
  0
ENDTAB
  0
TABLE
  2
STYLE
  5
3
330
0
100
AcDbSymbolTable
 70
     2
  0
STYLE
  5
55
330
3
100
AcDbSymbolTableRecord
100
AcDbTextStyleTableRecord
  2
STANDARD
 70
     0
 40
0.0
 41
1.0
 50
0.0
 71
     0
 42
3.5
  3
txt.shx
  4

  0
STYLE
  5
59
330
3
100
AcDbSymbolTableRecord
100
AcDbTextStyleTableRecord
  2
Annotative
 70
     0
 40
0.0
 41
1.0
 50
0.0
 71
     0
 42
3.5
  3
txt
  4

1001
AcadAnnotative
1000
AnnotativeData
1002
{
1070
     1
1070
     1
1002
}
  0
ENDTAB
  0
TABLE
  2
VIEW
  5
6
330
0
100
AcDbSymbolTable
 70
     1
  0
ENDTAB
  0
TABLE
  2
UCS
  5
7
330
0
100
AcDbSymbolTable
 70
     0
  0
ENDTAB
  0
TABLE
  2
APPID
  5
9
330
0
100
AcDbSymbolTable
 70
     3
  0
APPID
  5
56
330
9
100
AcDbSymbolTableRecord
100
AcDbRegAppTableRecord
  2
ACAD
 70
     0
  0
APPID
  5
5D
330
9
100
AcDbSymbolTableRecord
100
AcDbRegAppTableRecord
  2
AcadAnnotative
 70
     0
  0
APPID
  5
41C
330
9
100
AcDbSymbolTableRecord
100
AcDbRegAppTableRecord
  2
ACAD_NAV_VCDISPLAY
 70
     0
  0
ENDTAB
  0
TABLE
  2
DIMSTYLE
  5
A
330
0
100
AcDbSymbolTable
 70
     2
100
AcDbDimStyleTable
 71
     0
  0
DIMSTYLE
105
57
330
A
100
AcDbSymbolTableRecord
100
AcDbDimStyleTableRecord
  2
Standard
 70
     0
340
55
  0
DIMSTYLE
105
58
330
A
100
AcDbSymbolTableRecord
100
AcDbDimStyleTableRecord
  2
Annotative
 70
     0
340
55
1001
AcadAnnotative
1000
AnnotativeData
1002
{
1070
     1
1070
     1
1002
}
  0
ENDTAB
  0
TABLE
  2
BLOCK_RECORD
  5
1
330
0
100
AcDbSymbolTable
 70
     4
  0
BLOCK_RECORD
  5
6F
330
1
100
AcDbSymbolTableRecord
100
AcDbBlockTableRecord
  2
*Model_Space
340
72
 70
     0
280
     1
281
     0
  0
BLOCK_RECORD
  5
6B
330
1
100
AcDbSymbolTableRecord
100
AcDbBlockTableRecord
  2
*Paper_Space
340
6E
 70
     0
280
     1
281
     0
  0
BLOCK_RECORD
  5
73
330
1
100
AcDbSymbolTableRecord
100
AcDbBlockTableRecord
  2
TPFEIL
340
0
 70
     0
280
     1
281
     0
  0
BLOCK_RECORD
  5
74
330
1
100
AcDbSymbolTableRecord
100
AcDbBlockTableRecord
  2
RL
340
0
102
{BLKREFS
331
3E3
331
3E4
331
3E5
331
3E6
331
3E7
331
3E8
331
3E9
331
3EA
331
3EB
331
3EC
331
3ED
331
3EE
331
3EF
331
3F0
331
3F1
331
3F2
331
3F3
331
3F4
331
3F5
331
3F6
331
3F7
331
3F8
331
3F9
331
3FA
331
3FB
331
3FC
331
3FD
331
3FE
331
3FF
331
400
331
401
331
402
102
}
 70
     0
280
     1
281
     0
  0
BLOCK_RECORD
  5
75
330
1
100
AcDbSymbolTableRecord
100
AcDbBlockTableRecord
  2
*X2
340
0
102
{BLKREFS
331
403
102
}
 70
     0
280
     1
281
     0
  0
BLOCK_RECORD
  5
76
330
1
100
AcDbSymbolTableRecord
100
AcDbBlockTableRecord
  2
*X3
340
0
102
{BLKREFS
331
40F
102
}
 70
     0
280
     1
281
     0
  0
ENDTAB
  0
ENDSEC
  0
SECTION
  2
BLOCKS
  0
BLOCK
  5
9C
330
6F
100
AcDbEntity
  8
0
100
AcDbBlockBegin
  2
*Model_Space
 70
     0
 10
0.0
 20
0.0
 30
0.0
  3
*Model_Space
  1

  0
ENDBLK
  5
9D
330
6F
100
AcDbEntity
  8
0
100
AcDbBlockEnd
  0
BLOCK
  5
9A
330
6B
100
AcDbEntity
 67
     1
  8
0
100
AcDbBlockBegin
  2
*Paper_Space
 70
     0
 10
0.0
 20
0.0
 30
0.0
  3
*Paper_Space
  1

  0
ENDBLK
  5
9B
330
6B
100
AcDbEntity
 67
     1
  8
0
100
AcDbBlockEnd
  0
BLOCK
  5
9E
330
73
100
AcDbEntity
  8
0
100
AcDbBlockBegin
  2
TPFEIL
 70
     0
 10
0.0
 20
0.0
 30
0.0
  3
TPFEIL
  1

  0
LWPOLYLINE
  5
9F
330
73
100
AcDbEntity
  8
GRABUNGSGRENZE
100
AcDbPolyline
 90
        2
 70
     0
 10
0.0
 20
-10.0
 40
5.0
 41
0.0
 10
0.0
 20
0.0
 40
0.0
 41
0.0
  0
ENDBLK
  5
A3
330
73
100
AcDbEntity
  8
0
100
AcDbBlockEnd
  0
BLOCK
  5
A4
330
74
100
AcDbEntity
  8
0
100
AcDbBlockBegin
  2
RL
 70
     0
 10
0.0
 20
0.0
 30
0.0
  3
RL
  1

  0
LWPOLYLINE
  5
A5
330
74
100
AcDbEntity
  8
FEUER
100
AcDbPolyline
 90
        5
 70
     0
 43
0.1
 10
0.0
 20
-1.40000000000009
 10
0.0
 20
0.0
 10
1.5
 20
0.0
 10
1.5
 20
-1.40000000000009
 10
0.0
 20
-1.40000000000009
  0
ENDBLK
  5
AC
330
74
100
AcDbEntity
  8
0
100
AcDbBlockEnd
  0
BLOCK
  5
AD
330
75
100
AcDbEntity
  8
0
100
AcDbBlockBegin
  2
*X2
 70
     1
 10
0.0
 20
0.0
 30
0.0
  3
*X2
  1

  0
LINE
  5
AE
330
75
100
AcDbEntity
  8
0
 62
     0
100
AcDbLine
 10
387.4999999999999
 20
-1907.5
 30
0.0
 11
387.4999999999999
 21
-1907.5
 31
0.0
  0
LINE
  5
AF
330
75
100
AcDbEntity
  8
0
 62
     0
100
AcDbLine
 10
388.7499999999999
 20
-1907.5
 30
0.0
 11
388.7499999999999
 21
-1907.5
 31
0.0
  0
LINE
  5
B0
330
75
100
AcDbEntity
  8
0
 62
     0
100
AcDbLine
 10
389.9999999999999
 20
-1907.5
 30
0.0
 11
389.9999999999999
 21
-1907.5
 31
0.0
  0
LINE
  5
B1
330
75
100
AcDbEntity
  8
0
 62
     0
100
AcDbLine
 10
385.625
 20
-1906.25
 30
0.0
 11
385.625
 21
-1906.25
 31
0.0
  0
LINE
  5
B2
330
75
100
AcDbEntity
  8
0
 62
     0
100
AcDbLine
 10
386.875
 20
-1906.25
 30
0.0
 11
386.875
 21
-1906.25
 31
0.0
  0
LINE
  5
B3
330
75
100
AcDbEntity
  8
0
 62
     0
100
AcDbLine
 10
388.125
 20
-1906.25
 30
0.0
 11
388.125
 21
-1906.25
 31
0.0
  0
LINE
  5
B4
330
75
100
AcDbEntity
  8
0
 62
     0
100
AcDbLine
 10
386.2499999999999
 20
-1905.0
 30
0.0
 11
386.2499999999999
 21
-1905.0
 31
0.0
  0
LINE
  5
B5
330
75
100
AcDbEntity
  8
0
 62
     0
100
AcDbLine
 10
387.5
 20
-1905.0
 30
0.0
 11
387.5
 21
-1905.0
 31
0.0
  0
LINE
  5
B6
330
75
100
AcDbEntity
  8
0
 62
     0
100
AcDbLine
 10
388.7500000000001
 20
-1897.5
 30
0.0
 11
388.7500000000001
 21
-1897.5
 31
0.0
  0
LINE
  5
B7
330
75
100
AcDbEntity
  8
0
 62
     0
100
AcDbLine
 10
390.0000000000001
 20
-1897.5
 30
0.0
 11
390.0000000000001
 21
-1897.5
 31
0.0
  0
LINE
  5
B8
330
75
100
AcDbEntity
  8
0
 62
     0
100
AcDbLine
 10
388.1250000000001
 20
-1896.25
 30
0.0
 11
388.1250000000001
 21
-1896.25
 31
0.0
  0
LINE
  5
B9
330
75
100
AcDbEntity
  8
0
 62
     0
100
AcDbLine
 10
389.3750000000001
 20
-1896.25
 30
0.0
 11
389.3750000000001
 21
-1896.25
 31
0.0
  0
LINE
  5
BA
330
75
100
AcDbEntity
  8
0
 62
     0
100
AcDbLine
 10
390.625
 20
-1896.25
 30
0.0
 11
390.625
 21
-1896.25
 31
0.0
  0
LINE
  5
BB
330
75
100
AcDbEntity
  8
0
 62
     0
100
AcDbLine
 10
342.5
 20
-1895.0
 30
0.0
 11
342.5
 21
-1895.0
 31
0.0
  0
LINE
  5
BC
330
75
100
AcDbEntity
  8
0
 62
     0
100
AcDbLine
 10
388.75
 20
-1895.0
 30
0.0
 11
388.75
 21
-1895.0
 31
0.0
  0
LINE
  5
BD
330
75
100
AcDbEntity
  8
0
 62
     0
100
AcDbLine
 10
390.0
 20
-1895.0
 30
0.0
 11
390.0
 21
-1895.0
 31
0.0
  0
LINE
  5
BE
330
75
100
AcDbEntity
  8
0
 62
     0
100
AcDbLine
 10
376.2500000000001
 20
-1895.0
 30
0.0
 11
376.2500000000001
 21
-1895.0
 31
0.0
  0
LINE
  5
BF
330
75
100
AcDbEntity
  8
0
 62
     0
100
AcDbLine
 10
377.5000000000001
 20
-1895.0
 30
0.0
 11
377.5000000000001
 21
-1895.0
 31
0.0
  0
LINE
  5
C0
330
75
100
AcDbEntity
  8
0
 62
     0
100
AcDbLine
 10
378.75
 20
-1895.0
 30
0.0
 11
378.75
 21
-1895.0
 31
0.0
  0
LINE
  5
C1
330
75
100
AcDbEntity
  8
0
 62
     0
100
AcDbLine
 10
340.6250000000001
 20
-1893.75
 30
0.0
 11
340.6250000000001
 21
-1893.75
 31
0.0
  0
LINE
  5
C2
330
75
100
AcDbEntity
  8
0
 62
     0
100
AcDbLine
 10
341.8750000000001
 20
-1893.75
 30
0.0
 11
341.8750000000001
 21
-1893.75
 31
0.0
  0
LINE
  5
C3
330
75
100
AcDbEntity
  8
0
 62
     0
100
AcDbLine
 10
343.1250000000001
 20
-1893.75
 30
0.0
 11
343.1250000000001
 21
-1893.75
 31
0.0
  0
LINE
  5
C4
330
75
100
AcDbEntity
  8
0
 62
     0
100
AcDbLine
 10
373.125
 20
-1893.75
 30
0.0
 11
373.125
 21
-1893.75
 31
0.0
  0
LINE
  5
C5
330
75
100
AcDbEntity
  8
0
 62
     0
100
AcDbLine
 10
374.375
 20
-1893.75
 30
0.0
 11
374.375
 21
-1893.75
 31
0.0
  0
LINE
  5
C6
330
75
100
AcDbEntity
  8
0
 62
     0
100
AcDbLine
 10
375.625
 20
-1893.75
 30
0.0
 11
375.625
 21
-1893.75
 31
0.0
  0
LINE
  5
C7
330
75
100
AcDbEntity
  8
0
 62
     0
100
AcDbLine
 10
376.875
 20
-1893.75
 30
0.0
 11
376.875
 21
-1893.75
 31
0.0
  0
LINE
  5
C8
330
75
100
AcDbEntity
  8
0
 62
     0
100
AcDbLine
 10
378.125
 20
-1893.75
 30
0.0
 11
378.125
 21
-1893.75
 31
0.0
  0
LINE
  5
C9
330
75
100
AcDbEntity
  8
0
 62
     0
100
AcDbLine
 10
379.375
 20
-1893.75
 30
0.0
 11
379.375
 21
-1893.75
 31
0.0
  0
LINE
  5
CA
330
75
100
AcDbEntity
  8
0
 62
     0
100
AcDbLine
 10
338.75
 20
-1892.5
 30
0.0
 11
338.75
 21
-1892.5
 31
0.0
  0
LINE
  5
CB
330
75
100
AcDbEntity
  8
0
 62
     0
100
AcDbLine
 10
340.0
 20
-1892.5
 30
0.0
 11
340.0
 21
-1892.5
 31
0.0
  0
LINE
  5
CC
330
75
100
AcDbEntity
  8
0
 62
     0
100
AcDbLine
 10
341.25
 20
-1892.5
 30
0.0
 11
341.25
 21
-1892.5
 31
0.0
  0
LINE
  5
CD
330
75
100
AcDbEntity
  8
0
 62
     0
100
AcDbLine
 10
342.5
 20
-1892.5
 30
0.0
 11
342.5
 21
-1892.5
 31
0.0
  0
LINE
  5
CE
330
75
100
AcDbEntity
  8
0
 62
     0
100
AcDbLine
 10
343.75
 20
-1892.5
 30
0.0
 11
343.75
 21
-1892.5
 31
0.0
  0
LINE
  5
CF
330
75
100
AcDbEntity
  8
0
 62
     0
100
AcDbLine
 10
373.7499999999999
 20
-1892.5
 30
0.0
 11
373.7499999999999
 21
-1892.5
 31
0.0
  0
LINE
  5
D0
330
75
100
AcDbEntity
  8
0
 62
     0
100
AcDbLine
 10
375.0
 20
-1892.5
 30
0.0
 11
375.0
 21
-1892.5
 31
0.0
  0
LINE
  5
D1
330
75
100
AcDbEntity
  8
0
 62
     0
100
AcDbLine
 10
376.2499999999999
 20
-1892.5
 30
0.0
 11
376.2499999999999
 21
-1892.5
 31
0.0
  0
LINE
  5
D2
330
75
100
AcDbEntity
  8
0
 62
     0
100
AcDbLine
 10
377.4999999999999
 20
-1892.5
 30
0.0
 11
377.4999999999999
 21
-1892.5
 31
0.0
  0
LINE
  5
D3
330
75
100
AcDbEntity
  8
0
 62
     0
100
AcDbLine
 10
378.75
 20
-1892.5
 30
0.0
 11
378.75
 21
-1892.5
 31
0.0
  0
LINE
  5
D4
330
75
100
AcDbEntity
  8
0
 62
     0
100
AcDbLine
 10
379.9999999999999
 20
-1892.5
 30
0.0
 11
379.9999999999999
 21
-1892.5
 31
0.0
  0
LINE
  5
D5
330
75
100
AcDbEntity
  8
0
 62
     0
100
AcDbLine
 10
336.8750000000001
 20
-1891.25
 30
0.0
 11
336.8750000000001
 21
-1891.25
 31
0.0
  0
LINE
  5
D6
330
75
100
AcDbEntity
  8
0
 62
     0
100
AcDbLine
 10
338.125
 20
-1891.25
 30
0.0
 11
338.125
 21
-1891.25
 31
0.0
  0
LINE
  5
D7
330
75
100
AcDbEntity
  8
0
 62
     0
100
AcDbLine
 10
339.3750000000001
 20
-1891.25
 30
0.0
 11
339.3750000000001
 21
-1891.25
 31
0.0
  0
LINE
  5
D8
330
75
100
AcDbEntity
  8
0
 62
     0
100
AcDbLine
 10
340.625
 20
-1891.25
 30
0.0
 11
340.625
 21
-1891.25
 31
0.0
  0
LINE
  5
D9
330
75
100
AcDbEntity
  8
0
 62
     0
100
AcDbLine
 10
341.8750000000001
 20
-1891.25
 30
0.0
 11
341.8750000000001
 21
-1891.25
 31
0.0
  0
LINE
  5
DA
330
75
100
AcDbEntity
  8
0
 62
     0
100
AcDbLine
 10
343.1250000000001
 20
-1891.25
 30
0.0
 11
343.1250000000001
 21
-1891.25
 31
0.0
  0
LINE
  5
DB
330
75
100
AcDbEntity
  8
0
 62
     0
100
AcDbLine
 10
344.375
 20
-1891.25
 30
0.0
 11
344.375
 21
-1891.25
 31
0.0
  0
LINE
  5
DC
330
75
100
AcDbEntity
  8
0
 62
     0
100
AcDbLine
 10
345.6250000000001
 20
-1891.25
 30
0.0
 11
345.6250000000001
 21
-1891.25
 31
0.0
  0
LINE
  5
DD
330
75
100
AcDbEntity
  8
0
 62
     0
100
AcDbLine
 10
374.3750000000001
 20
-1891.25
 30
0.0
 11
374.3750000000001
 21
-1891.25
 31
0.0
  0
LINE
  5
DE
330
75
100
AcDbEntity
  8
0
 62
     0
100
AcDbLine
 10
375.625
 20
-1891.25
 30
0.0
 11
375.625
 21
-1891.25
 31
0.0
  0
LINE
  5
DF
330
75
100
AcDbEntity
  8
0
 62
     0
100
AcDbLine
 10
376.8750000000001
 20
-1891.25
 30
0.0
 11
376.8750000000001
 21
-1891.25
 31
0.0
  0
LINE
  5
E0
330
75
100
AcDbEntity
  8
0
 62
     0
100
AcDbLine
 10
378.125
 20
-1891.25
 30
0.0
 11
378.125
 21
-1891.25
 31
0.0
  0
LINE
  5
E1
330
75
100
AcDbEntity
  8
0
 62
     0
100
AcDbLine
 10
379.3750000000001
 20
-1891.25
 30
0.0
 11
379.3750000000001
 21
-1891.25
 31
0.0
  0
LINE
  5
E2
330
75
100
AcDbEntity
  8
0
 62
     0
100
AcDbLine
 10
380.6250000000001
 20
-1891.25
 30
0.0
 11
380.6250000000001
 21
-1891.25
 31
0.0
  0
LINE
  5
E3
330
75
100
AcDbEntity
  8
0
 62
     0
100
AcDbLine
 10
336.2499999999999
 20
-1890.0
 30
0.0
 11
336.2499999999999
 21
-1890.0
 31
0.0
  0
LINE
  5
E4
330
75
100
AcDbEntity
  8
0
 62
     0
100
AcDbLine
 10
337.5
 20
-1890.0
 30
0.0
 11
337.5
 21
-1890.0
 31
0.0
  0
LINE
  5
E5
330
75
100
AcDbEntity
  8
0
 62
     0
100
AcDbLine
 10
338.7499999999999
 20
-1890.0
 30
0.0
 11
338.7499999999999
 21
-1890.0
 31
0.0
  0
LINE
  5
E6
330
75
100
AcDbEntity
  8
0
 62
     0
100
AcDbLine
 10
339.9999999999999
 20
-1890.0
 30
0.0
 11
339.9999999999999
 21
-1890.0
 31
0.0
  0
LINE
  5
E7
330
75
100
AcDbEntity
  8
0
 62
     0
100
AcDbLine
 10
341.25
 20
-1890.0
 30
0.0
 11
341.25
 21
-1890.0
 31
0.0
  0
LINE
  5
E8
330
75
100
AcDbEntity
  8
0
 62
     0
100
AcDbLine
 10
342.4999999999999
 20
-1890.0
 30
0.0
 11
342.4999999999999
 21
-1890.0
 31
0.0
  0
LINE
  5
E9
330
75
100
AcDbEntity
  8
0
 62
     0
100
AcDbLine
 10
343.75
 20
-1890.0
 30
0.0
 11
343.75
 21
-1890.0
 31
0.0
  0
LINE
  5
EA
330
75
100
AcDbEntity
  8
0
 62
     0
100
AcDbLine
 10
344.9999999999999
 20
-1890.0
 30
0.0
 11
344.9999999999999
 21
-1890.0
 31
0.0
  0
LINE
  5
EB
330
75
100
AcDbEntity
  8
0
 62
     0
100
AcDbLine
 10
346.2499999999999
 20
-1890.0
 30
0.0
 11
346.2499999999999
 21
-1890.0
 31
0.0
  0
LINE
  5
EC
330
75
100
AcDbEntity
  8
0
 62
     0
100
AcDbLine
 10
385.0000000000001
 20
-1890.0
 30
0.0
 11
385.0000000000001
 21
-1890.0
 31
0.0
  0
LINE
  5
ED
330
75
100
AcDbEntity
  8
0
 62
     0
100
AcDbLine
 10
386.2500000000001
 20
-1890.0
 30
0.0
 11
386.2500000000001
 21
-1890.0
 31
0.0
  0
LINE
  5
EE
330
75
100
AcDbEntity
  8
0
 62
     0
100
AcDbLine
 10
387.5000000000001
 20
-1890.0
 30
0.0
 11
387.5000000000001
 21
-1890.0
 31
0.0
  0
LINE
  5
EF
330
75
100
AcDbEntity
  8
0
 62
     0
100
AcDbLine
 10
375.0
 20
-1890.0
 30
0.0
 11
375.0
 21
-1890.0
 31
0.0
  0
LINE
  5
F0
330
75
100
AcDbEntity
  8
0
 62
     0
100
AcDbLine
 10
376.2500000000001
 20
-1890.0
 30
0.0
 11
376.2500000000001
 21
-1890.0
 31
0.0
  0
LINE
  5
F1
330
75
100
AcDbEntity
  8
0
 62
     0
100
AcDbLine
 10
377.5000000000001
 20
-1890.0
 30
0.0
 11
377.5000000000001
 21
-1890.0
 31
0.0
  0
LINE
  5
F2
330
75
100
AcDbEntity
  8
0
 62
     0
100
AcDbLine
 10
378.75
 20
-1890.0
 30
0.0
 11
378.75
 21
-1890.0
 31
0.0
  0
LINE
  5
F3
330
75
100
AcDbEntity
  8
0
 62
     0
100
AcDbLine
 10
380.0000000000001
 20
-1890.0
 30
0.0
 11
380.0000000000001
 21
-1890.0
 31
0.0
  0
LINE
  5
F4
330
75
100
AcDbEntity
  8
0
 62
     0
100
AcDbLine
 10
335.6250000000001
 20
-1888.75
 30
0.0
 11
335.6250000000001
 21
-1888.75
 31
0.0
  0
LINE
  5
F5
330
75
100
AcDbEntity
  8
0
 62
     0
100
AcDbLine
 10
336.8750000000001
 20
-1888.75
 30
0.0
 11
336.8750000000001
 21
-1888.75
 31
0.0
  0
LINE
  5
F6
330
75
100
AcDbEntity
  8
0
 62
     0
100
AcDbLine
 10
338.125
 20
-1888.75
 30
0.0
 11
338.125
 21
-1888.75
 31
0.0
  0
LINE
  5
F7
330
75
100
AcDbEntity
  8
0
 62
     0
100
AcDbLine
 10
339.3750000000001
 20
-1888.75
 30
0.0
 11
339.3750000000001
 21
-1888.75
 31
0.0
  0
LINE
  5
F8
330
75
100
AcDbEntity
  8
0
 62
     0
100
AcDbLine
 10
340.625
 20
-1888.75
 30
0.0
 11
340.625
 21
-1888.75
 31
0.0
  0
LINE
  5
F9
330
75
100
AcDbEntity
  8
0
 62
     0
100
AcDbLine
 10
341.8750000000001
 20
-1888.75
 30
0.0
 11
341.8750000000001
 21
-1888.75
 31
0.0
  0
LINE
  5
FA
330
75
100
AcDbEntity
  8
0
 62
     0
100
AcDbLine
 10
343.1250000000001
 20
-1888.75
 30
0.0
 11
343.1250000000001
 21
-1888.75
 31
0.0
  0
LINE
  5
FB
330
75
100
AcDbEntity
  8
0
 62
     0
100
AcDbLine
 10
344.375
 20
-1888.75
 30
0.0
 11
344.375
 21
-1888.75
 31
0.0
  0
LINE
  5
FC
330
75
100
AcDbEntity
  8
0
 62
     0
100
AcDbLine
 10
345.6250000000001
 20
-1888.75
 30
0.0
 11
345.6250000000001
 21
-1888.75
 31
0.0
  0
LINE
  5
FD
330
75
100
AcDbEntity
  8
0
 62
     0
100
AcDbLine
 10
385.6249999999999
 20
-1888.75
 30
0.0
 11
385.6249999999999
 21
-1888.75
 31
0.0
  0
LINE
  5
FE
330
75
100
AcDbEntity
  8
0
 62
     0
100
AcDbLine
 10
386.8749999999999
 20
-1888.75
 30
0.0
 11
386.8749999999999
 21
-1888.75
 31
0.0
  0
LINE
  5
FF
330
75
100
AcDbEntity
  8
0
 62
     0
100
AcDbLine
 10
388.1249999999999
 20
-1888.75
 30
0.0
 11
388.1249999999999
 21
-1888.75
 31
0.0
  0
LINE
  5
100
330
75
100
AcDbEntity
  8
0
 62
     0
100
AcDbLine
 10
376.8750000000001
 20
-1888.75
 30
0.0
 11
376.8750000000001
 21
-1888.75
 31
0.0
  0
LINE
  5
101
330
75
100
AcDbEntity
  8
0
 62
     0
100
AcDbLine
 10
378.125
 20
-1888.75
 30
0.0
 11
378.125
 21
-1888.75
 31
0.0
  0
LINE
  5
102
330
75
100
AcDbEntity
  8
0
 62
     0
100
AcDbLine
 10
379.3750000000001
 20
-1888.75
 30
0.0
 11
379.3750000000001
 21
-1888.75
 31
0.0
  0
LINE
  5
103
330
75
100
AcDbEntity
  8
0
 62
     0
100
AcDbLine
 10
335.0
 20
-1887.5
 30
0.0
 11
335.0
 21
-1887.5
 31
0.0
  0
LINE
  5
104
330
75
100
AcDbEntity
  8
0
 62
     0
100
AcDbLine
 10
336.25
 20
-1887.5
 30
0.0
 11
336.25
 21
-1887.5
 31
0.0
  0
LINE
  5
105
330
75
100
AcDbEntity
  8
0
 62
     0
100
AcDbLine
 10
337.5
 20
-1887.5
 30
0.0
 11
337.5
 21
-1887.5
 31
0.0
  0
LINE
  5
106
330
75
100
AcDbEntity
  8
0
 62
     0
100
AcDbLine
 10
338.75
 20
-1887.5
 30
0.0
 11
338.75
 21
-1887.5
 31
0.0
  0
LINE
  5
107
330
75
100
AcDbEntity
  8
0
 62
     0
100
AcDbLine
 10
340.0
 20
-1887.5
 30
0.0
 11
340.0
 21
-1887.5
 31
0.0
  0
LINE
  5
108
330
75
100
AcDbEntity
  8
0
 62
     0
100
AcDbLine
 10
341.25
 20
-1887.5
 30
0.0
 11
341.25
 21
-1887.5
 31
0.0
  0
LINE
  5
109
330
75
100
AcDbEntity
  8
0
 62
     0
100
AcDbLine
 10
342.5
 20
-1887.5
 30
0.0
 11
342.5
 21
-1887.5
 31
0.0
  0
LINE
  5
10A
330
75
100
AcDbEntity
  8
0
 62
     0
100
AcDbLine
 10
343.75
 20
-1887.5
 30
0.0
 11
343.75
 21
-1887.5
 31
0.0
  0
LINE
  5
10B
330
75
100
AcDbEntity
  8
0
 62
     0
100
AcDbLine
 10
345.0
 20
-1887.5
 30
0.0
 11
345.0
 21
-1887.5
 31
0.0
  0
LINE
  5
10C
330
75
100
AcDbEntity
  8
0
 62
     0
100
AcDbLine
 10
346.25
 20
-1887.5
 30
0.0
 11
346.25
 21
-1887.5
 31
0.0
  0
LINE
  5
10D
330
75
100
AcDbEntity
  8
0
 62
     0
100
AcDbLine
 10
386.2500000000001
 20
-1887.5
 30
0.0
 11
386.2500000000001
 21
-1887.5
 31
0.0
  0
LINE
  5
10E
330
75
100
AcDbEntity
  8
0
 62
     0
100
AcDbLine
 10
387.5
 20
-1887.5
 30
0.0
 11
387.5
 21
-1887.5
 31
0.0
  0
LINE
  5
10F
330
75
100
AcDbEntity
  8
0
 62
     0
100
AcDbLine
 10
388.7500000000001
 20
-1887.5
 30
0.0
 11
388.7500000000001
 21
-1887.5
 31
0.0
  0
LINE
  5
110
330
75
100
AcDbEntity
  8
0
 62
     0
100
AcDbLine
 10
381.25
 20
-1887.5
 30
0.0
 11
381.25
 21
-1887.5
 31
0.0
  0
LINE
  5
111
330
75
100
AcDbEntity
  8
0
 62
     0
100
AcDbLine
 10
382.5000000000001
 20
-1887.5
 30
0.0
 11
382.5000000000001
 21
-1887.5
 31
0.0
  0
LINE
  5
112
330
75
100
AcDbEntity
  8
0
 62
     0
100
AcDbLine
 10
335.625
 20
-1886.25
 30
0.0
 11
335.625
 21
-1886.25
 31
0.0
  0
LINE
  5
113
330
75
100
AcDbEntity
  8
0
 62
     0
100
AcDbLine
 10
336.875
 20
-1886.25
 30
0.0
 11
336.875
 21
-1886.25
 31
0.0
  0
LINE
  5
114
330
75
100
AcDbEntity
  8
0
 62
     0
100
AcDbLine
 10
338.125
 20
-1886.25
 30
0.0
 11
338.125
 21
-1886.25
 31
0.0
  0
LINE
  5
115
330
75
100
AcDbEntity
  8
0
 62
     0
100
AcDbLine
 10
339.375
 20
-1886.25
 30
0.0
 11
339.375
 21
-1886.25
 31
0.0
  0
LINE
  5
116
330
75
100
AcDbEntity
  8
0
 62
     0
100
AcDbLine
 10
340.625
 20
-1886.25
 30
0.0
 11
340.625
 21
-1886.25
 31
0.0
  0
LINE
  5
117
330
75
100
AcDbEntity
  8
0
 62
     0
100
AcDbLine
 10
341.875
 20
-1886.25
 30
0.0
 11
341.875
 21
-1886.25
 31
0.0
  0
LINE
  5
118
330
75
100
AcDbEntity
  8
0
 62
     0
100
AcDbLine
 10
343.125
 20
-1886.25
 30
0.0
 11
343.125
 21
-1886.25
 31
0.0
  0
LINE
  5
119
330
75
100
AcDbEntity
  8
0
 62
     0
100
AcDbLine
 10
344.375
 20
-1886.25
 30
0.0
 11
344.375
 21
-1886.25
 31
0.0
  0
LINE
  5
11A
330
75
100
AcDbEntity
  8
0
 62
     0
100
AcDbLine
 10
345.625
 20
-1886.25
 30
0.0
 11
345.625
 21
-1886.25
 31
0.0
  0
LINE
  5
11B
330
75
100
AcDbEntity
  8
0
 62
     0
100
AcDbLine
 10
346.875
 20
-1886.25
 30
0.0
 11
346.875
 21
-1886.25
 31
0.0
  0
LINE
  5
11C
330
75
100
AcDbEntity
  8
0
 62
     0
100
AcDbLine
 10
380.625
 20
-1886.25
 30
0.0
 11
380.625
 21
-1886.25
 31
0.0
  0
LINE
  5
11D
330
75
100
AcDbEntity
  8
0
 62
     0
100
AcDbLine
 10
390.625
 20
-1886.25
 30
0.0
 11
390.625
 21
-1886.25
 31
0.0
  0
LINE
  5
11E
330
75
100
AcDbEntity
  8
0
 62
     0
100
AcDbLine
 10
381.875
 20
-1886.25
 30
0.0
 11
381.875
 21
-1886.25
 31
0.0
  0
LINE
  5
11F
330
75
100
AcDbEntity
  8
0
 62
     0
100
AcDbLine
 10
383.125
 20
-1886.25
 30
0.0
 11
383.125
 21
-1886.25
 31
0.0
  0
LINE
  5
120
330
75
100
AcDbEntity
  8
0
 62
     0
100
AcDbLine
 10
386.875
 20
-1886.25
 30
0.0
 11
386.875
 21
-1886.25
 31
0.0
  0
LINE
  5
121
330
75
100
AcDbEntity
  8
0
 62
     0
100
AcDbLine
 10
384.3749999999999
 20
-1886.25
 30
0.0
 11
384.3749999999999
 21
-1886.25
 31
0.0
  0
LINE
  5
122
330
75
100
AcDbEntity
  8
0
 62
     0
100
AcDbLine
 10
336.25
 20
-1885.0
 30
0.0
 11
336.25
 21
-1885.0
 31
0.0
  0
LINE
  5
123
330
75
100
AcDbEntity
  8
0
 62
     0
100
AcDbLine
 10
337.5
 20
-1885.0
 30
0.0
 11
337.5
 21
-1885.0
 31
0.0
  0
LINE
  5
124
330
75
100
AcDbEntity
  8
0
 62
     0
100
AcDbLine
 10
338.75
 20
-1885.0
 30
0.0
 11
338.75
 21
-1885.0
 31
0.0
  0
LINE
  5
125
330
75
100
AcDbEntity
  8
0
 62
     0
100
AcDbLine
 10
340.0
 20
-1885.0
 30
0.0
 11
340.0
 21
-1885.0
 31
0.0
  0
LINE
  5
126
330
75
100
AcDbEntity
  8
0
 62
     0
100
AcDbLine
 10
341.25
 20
-1885.0
 30
0.0
 11
341.25
 21
-1885.0
 31
0.0
  0
LINE
  5
127
330
75
100
AcDbEntity
  8
0
 62
     0
100
AcDbLine
 10
342.5
 20
-1885.0
 30
0.0
 11
342.5
 21
-1885.0
 31
0.0
  0
LINE
  5
128
330
75
100
AcDbEntity
  8
0
 62
     0
100
AcDbLine
 10
343.75
 20
-1885.0
 30
0.0
 11
343.75
 21
-1885.0
 31
0.0
  0
LINE
  5
129
330
75
100
AcDbEntity
  8
0
 62
     0
100
AcDbLine
 10
345.0
 20
-1885.0
 30
0.0
 11
345.0
 21
-1885.0
 31
0.0
  0
LINE
  5
12A
330
75
100
AcDbEntity
  8
0
 62
     0
100
AcDbLine
 10
346.25
 20
-1885.0
 30
0.0
 11
346.25
 21
-1885.0
 31
0.0
  0
LINE
  5
12B
330
75
100
AcDbEntity
  8
0
 62
     0
100
AcDbLine
 10
347.5
 20
-1885.0
 30
0.0
 11
347.5
 21
-1885.0
 31
0.0
  0
LINE
  5
12C
330
75
100
AcDbEntity
  8
0
 62
     0
100
AcDbLine
 10
393.75
 20
-1885.0
 30
0.0
 11
393.75
 21
-1885.0
 31
0.0
  0
LINE
  5
12D
330
75
100
AcDbEntity
  8
0
 62
     0
100
AcDbLine
 10
377.5000000000001
 20
-1885.0
 30
0.0
 11
377.5000000000001
 21
-1885.0
 31
0.0
  0
LINE
  5
12E
330
75
100
AcDbEntity
  8
0
 62
     0
100
AcDbLine
 10
378.75
 20
-1885.0
 30
0.0
 11
378.75
 21
-1885.0
 31
0.0
  0
LINE
  5
12F
330
75
100
AcDbEntity
  8
0
 62
     0
100
AcDbLine
 10
390.0000000000001
 20
-1885.0
 30
0.0
 11
390.0000000000001
 21
-1885.0
 31
0.0
  0
LINE
  5
130
330
75
100
AcDbEntity
  8
0
 62
     0
100
AcDbLine
 10
391.2500000000001
 20
-1885.0
 30
0.0
 11
391.2500000000001
 21
-1885.0
 31
0.0
  0
LINE
  5
131
330
75
100
AcDbEntity
  8
0
 62
     0
100
AcDbLine
 10
380.0000000000001
 20
-1885.0
 30
0.0
 11
380.0000000000001
 21
-1885.0
 31
0.0
  0
LINE
  5
132
330
75
100
AcDbEntity
  8
0
 62
     0
100
AcDbLine
 10
381.2500000000001
 20
-1885.0
 30
0.0
 11
381.2500000000001
 21
-1885.0
 31
0.0
  0
LINE
  5
133
330
75
100
AcDbEntity
  8
0
 62
     0
100
AcDbLine
 10
382.4999999999999
 20
-1885.0
 30
0.0
 11
382.4999999999999
 21
-1885.0
 31
0.0
  0
LINE
  5
134
330
75
100
AcDbEntity
  8
0
 62
     0
100
AcDbLine
 10
336.8749999999999
 20
-1883.75
 30
0.0
 11
336.8749999999999
 21
-1883.75
 31
0.0
  0
LINE
  5
135
330
75
100
AcDbEntity
  8
0
 62
     0
100
AcDbLine
 10
338.125
 20
-1883.75
 30
0.0
 11
338.125
 21
-1883.75
 31
0.0
  0
LINE
  5
136
330
75
100
AcDbEntity
  8
0
 62
     0
100
AcDbLine
 10
339.3749999999999
 20
-1883.75
 30
0.0
 11
339.3749999999999
 21
-1883.75
 31
0.0
  0
LINE
  5
137
330
75
100
AcDbEntity
  8
0
 62
     0
100
AcDbLine
 10
340.625
 20
-1883.75
 30
0.0
 11
340.625
 21
-1883.75
 31
0.0
  0
LINE
  5
138
330
75
100
AcDbEntity
  8
0
 62
     0
100
AcDbLine
 10
341.8749999999999
 20
-1883.75
 30
0.0
 11
341.8749999999999
 21
-1883.75
 31
0.0
  0
LINE
  5
139
330
75
100
AcDbEntity
  8
0
 62
     0
100
AcDbLine
 10
343.1249999999999
 20
-1883.75
 30
0.0
 11
343.1249999999999
 21
-1883.75
 31
0.0
  0
LINE
  5
13A
330
75
100
AcDbEntity
  8
0
 62
     0
100
AcDbLine
 10
344.375
 20
-1883.75
 30
0.0
 11
344.375
 21
-1883.75
 31
0.0
  0
LINE
  5
13B
330
75
100
AcDbEntity
  8
0
 62
     0
100
AcDbLine
 10
345.6249999999999
 20
-1883.75
 30
0.0
 11
345.6249999999999
 21
-1883.75
 31
0.0
  0
LINE
  5
13C
330
75
100
AcDbEntity
  8
0
 62
     0
100
AcDbLine
 10
346.875
 20
-1883.75
 30
0.0
 11
346.875
 21
-1883.75
 31
0.0
  0
LINE
  5
13D
330
75
100
AcDbEntity
  8
0
 62
     0
100
AcDbLine
 10
348.1249999999999
 20
-1883.75
 30
0.0
 11
348.1249999999999
 21
-1883.75
 31
0.0
  0
LINE
  5
13E
330
75
100
AcDbEntity
  8
0
 62
     0
100
AcDbLine
 10
390.6249999999999
 20
-1883.75
 30
0.0
 11
390.6249999999999
 21
-1883.75
 31
0.0
  0
LINE
  5
13F
330
75
100
AcDbEntity
  8
0
 62
     0
100
AcDbLine
 10
391.8749999999999
 20
-1883.75
 30
0.0
 11
391.8749999999999
 21
-1883.75
 31
0.0
  0
LINE
  5
140
330
75
100
AcDbEntity
  8
0
 62
     0
100
AcDbLine
 10
365.625
 20
-1883.75
 30
0.0
 11
365.625
 21
-1883.75
 31
0.0
  0
LINE
  5
141
330
75
100
AcDbEntity
  8
0
 62
     0
100
AcDbLine
 10
366.875
 20
-1883.75
 30
0.0
 11
366.875
 21
-1883.75
 31
0.0
  0
LINE
  5
142
330
75
100
AcDbEntity
  8
0
 62
     0
100
AcDbLine
 10
368.125
 20
-1883.75
 30
0.0
 11
368.125
 21
-1883.75
 31
0.0
  0
LINE
  5
143
330
75
100
AcDbEntity
  8
0
 62
     0
100
AcDbLine
 10
380.625
 20
-1883.75
 30
0.0
 11
380.625
 21
-1883.75
 31
0.0
  0
LINE
  5
144
330
75
100
AcDbEntity
  8
0
 62
     0
100
AcDbLine
 10
375.6249999999999
 20
-1883.75
 30
0.0
 11
375.6249999999999
 21
-1883.75
 31
0.0
  0
LINE
  5
145
330
75
100
AcDbEntity
  8
0
 62
     0
100
AcDbLine
 10
376.8749999999999
 20
-1883.75
 30
0.0
 11
376.8749999999999
 21
-1883.75
 31
0.0
  0
LINE
  5
146
330
75
100
AcDbEntity
  8
0
 62
     0
100
AcDbLine
 10
378.1250000000001
 20
-1883.75
 30
0.0
 11
378.1250000000001
 21
-1883.75
 31
0.0
  0
LINE
  5
147
330
75
100
AcDbEntity
  8
0
 62
     0
100
AcDbLine
 10
336.2500000000001
 20
-1882.5
 30
0.0
 11
336.2500000000001
 21
-1882.5
 31
0.0
  0
LINE
  5
148
330
75
100
AcDbEntity
  8
0
 62
     0
100
AcDbLine
 10
337.5000000000001
 20
-1882.5
 30
0.0
 11
337.5000000000001
 21
-1882.5
 31
0.0
  0
LINE
  5
149
330
75
100
AcDbEntity
  8
0
 62
     0
100
AcDbLine
 10
338.7500000000001
 20
-1882.5
 30
0.0
 11
338.7500000000001
 21
-1882.5
 31
0.0
  0
LINE
  5
14A
330
75
100
AcDbEntity
  8
0
 62
     0
100
AcDbLine
 10
340.0000000000001
 20
-1882.5
 30
0.0
 11
340.0000000000001
 21
-1882.5
 31
0.0
  0
LINE
  5
14B
330
75
100
AcDbEntity
  8
0
 62
     0
100
AcDbLine
 10
341.2500000000001
 20
-1882.5
 30
0.0
 11
341.2500000000001
 21
-1882.5
 31
0.0
  0
LINE
  5
14C
330
75
100
AcDbEntity
  8
0
 62
     0
100
AcDbLine
 10
342.5000000000001
 20
-1882.5
 30
0.0
 11
342.5000000000001
 21
-1882.5
 31
0.0
  0
LINE
  5
14D
330
75
100
AcDbEntity
  8
0
 62
     0
100
AcDbLine
 10
343.7500000000001
 20
-1882.5
 30
0.0
 11
343.7500000000001
 21
-1882.5
 31
0.0
  0
LINE
  5
14E
330
75
100
AcDbEntity
  8
0
 62
     0
100
AcDbLine
 10
345.0000000000001
 20
-1882.5
 30
0.0
 11
345.0000000000001
 21
-1882.5
 31
0.0
  0
LINE
  5
14F
330
75
100
AcDbEntity
  8
0
 62
     0
100
AcDbLine
 10
346.2500000000001
 20
-1882.5
 30
0.0
 11
346.2500000000001
 21
-1882.5
 31
0.0
  0
LINE
  5
150
330
75
100
AcDbEntity
  8
0
 62
     0
100
AcDbLine
 10
347.5000000000001
 20
-1882.5
 30
0.0
 11
347.5000000000001
 21
-1882.5
 31
0.0
  0
LINE
  5
151
330
75
100
AcDbEntity
  8
0
 62
     0
100
AcDbLine
 10
392.4999999999999
 20
-1882.5
 30
0.0
 11
392.4999999999999
 21
-1882.5
 31
0.0
  0
LINE
  5
152
330
75
100
AcDbEntity
  8
0
 62
     0
100
AcDbLine
 10
365.0
 20
-1882.5
 30
0.0
 11
365.0
 21
-1882.5
 31
0.0
  0
LINE
  5
153
330
75
100
AcDbEntity
  8
0
 62
     0
100
AcDbLine
 10
366.25
 20
-1882.5
 30
0.0
 11
366.25
 21
-1882.5
 31
0.0
  0
LINE
  5
154
330
75
100
AcDbEntity
  8
0
 62
     0
100
AcDbLine
 10
367.5
 20
-1882.5
 30
0.0
 11
367.5
 21
-1882.5
 31
0.0
  0
LINE
  5
155
330
75
100
AcDbEntity
  8
0
 62
     0
100
AcDbLine
 10
377.4999999999999
 20
-1882.5
 30
0.0
 11
377.4999999999999
 21
-1882.5
 31
0.0
  0
LINE
  5
156
330
75
100
AcDbEntity
  8
0
 62
     0
100
AcDbLine
 10
378.7499999999999
 20
-1882.5
 30
0.0
 11
378.7499999999999
 21
-1882.5
 31
0.0
  0
LINE
  5
157
330
75
100
AcDbEntity
  8
0
 62
     0
100
AcDbLine
 10
375.0
 20
-1882.5
 30
0.0
 11
375.0
 21
-1882.5
 31
0.0
  0
LINE
  5
158
330
75
100
AcDbEntity
  8
0
 62
     0
100
AcDbLine
 10
376.2500000000001
 20
-1882.5
 30
0.0
 11
376.2500000000001
 21
-1882.5
 31
0.0
  0
LINE
  5
159
330
75
100
AcDbEntity
  8
0
 62
     0
100
AcDbLine
 10
336.8750000000001
 20
-1881.25
 30
0.0
 11
336.8750000000001
 21
-1881.25
 31
0.0
  0
LINE
  5
15A
330
75
100
AcDbEntity
  8
0
 62
     0
100
AcDbLine
 10
338.1250000000001
 20
-1881.25
 30
0.0
 11
338.1250000000001
 21
-1881.25
 31
0.0
  0
LINE
  5
15B
330
75
100
AcDbEntity
  8
0
 62
     0
100
AcDbLine
 10
339.3750000000001
 20
-1881.25
 30
0.0
 11
339.3750000000001
 21
-1881.25
 31
0.0
  0
LINE
  5
15C
330
75
100
AcDbEntity
  8
0
 62
     0
100
AcDbLine
 10
340.6250000000001
 20
-1881.25
 30
0.0
 11
340.6250000000001
 21
-1881.25
 31
0.0
  0
LINE
  5
15D
330
75
100
AcDbEntity
  8
0
 62
     0
100
AcDbLine
 10
341.8750000000001
 20
-1881.25
 30
0.0
 11
341.8750000000001
 21
-1881.25
 31
0.0
  0
LINE
  5
15E
330
75
100
AcDbEntity
  8
0
 62
     0
100
AcDbLine
 10
343.1250000000001
 20
-1881.25
 30
0.0
 11
343.1250000000001
 21
-1881.25
 31
0.0
  0
LINE
  5
15F
330
75
100
AcDbEntity
  8
0
 62
     0
100
AcDbLine
 10
344.3750000000001
 20
-1881.25
 30
0.0
 11
344.3750000000001
 21
-1881.25
 31
0.0
  0
LINE
  5
160
330
75
100
AcDbEntity
  8
0
 62
     0
100
AcDbLine
 10
345.6250000000001
 20
-1881.25
 30
0.0
 11
345.6250000000001
 21
-1881.25
 31
0.0
  0
LINE
  5
161
330
75
100
AcDbEntity
  8
0
 62
     0
100
AcDbLine
 10
346.8750000000001
 20
-1881.25
 30
0.0
 11
346.8750000000001
 21
-1881.25
 31
0.0
  0
LINE
  5
162
330
75
100
AcDbEntity
  8
0
 62
     0
100
AcDbLine
 10
348.1250000000001
 20
-1881.25
 30
0.0
 11
348.1250000000001
 21
-1881.25
 31
0.0
  0
LINE
  5
163
330
75
100
AcDbEntity
  8
0
 62
     0
100
AcDbLine
 10
393.1250000000001
 20
-1881.25
 30
0.0
 11
393.1250000000001
 21
-1881.25
 31
0.0
  0
LINE
  5
164
330
75
100
AcDbEntity
  8
0
 62
     0
100
AcDbLine
 10
364.3750000000001
 20
-1881.25
 30
0.0
 11
364.3750000000001
 21
-1881.25
 31
0.0
  0
LINE
  5
165
330
75
100
AcDbEntity
  8
0
 62
     0
100
AcDbLine
 10
365.625
 20
-1881.25
 30
0.0
 11
365.625
 21
-1881.25
 31
0.0
  0
LINE
  5
166
330
75
100
AcDbEntity
  8
0
 62
     0
100
AcDbLine
 10
366.8750000000001
 20
-1881.25
 30
0.0
 11
366.8750000000001
 21
-1881.25
 31
0.0
  0
LINE
  5
167
330
75
100
AcDbEntity
  8
0
 62
     0
100
AcDbLine
 10
368.1250000000001
 20
-1881.25
 30
0.0
 11
368.1250000000001
 21
-1881.25
 31
0.0
  0
LINE
  5
168
330
75
100
AcDbEntity
  8
0
 62
     0
100
AcDbLine
 10
376.8750000000001
 20
-1881.25
 30
0.0
 11
376.8750000000001
 21
-1881.25
 31
0.0
  0
LINE
  5
169
330
75
100
AcDbEntity
  8
0
 62
     0
100
AcDbLine
 10
337.5
 20
-1880.0
 30
0.0
 11
337.5
 21
-1880.0
 31
0.0
  0
LINE
  5
16A
330
75
100
AcDbEntity
  8
0
 62
     0
100
AcDbLine
 10
338.7500000000001
 20
-1880.0
 30
0.0
 11
338.7500000000001
 21
-1880.0
 31
0.0
  0
LINE
  5
16B
330
75
100
AcDbEntity
  8
0
 62
     0
100
AcDbLine
 10
343.75
 20
-1880.0
 30
0.0
 11
343.75
 21
-1880.0
 31
0.0
  0
LINE
  5
16C
330
75
100
AcDbEntity
  8
0
 62
     0
100
AcDbLine
 10
345.0000000000001
 20
-1880.0
 30
0.0
 11
345.0000000000001
 21
-1880.0
 31
0.0
  0
LINE
  5
16D
330
75
100
AcDbEntity
  8
0
 62
     0
100
AcDbLine
 10
346.2500000000001
 20
-1880.0
 30
0.0
 11
346.2500000000001
 21
-1880.0
 31
0.0
  0
LINE
  5
16E
330
75
100
AcDbEntity
  8
0
 62
     0
100
AcDbLine
 10
344.375
 20
-1878.75
 30
0.0
 11
344.375
 21
-1878.75
 31
0.0
  0
LINE
  5
16F
330
75
100
AcDbEntity
  8
0
 62
     0
100
AcDbLine
 10
345.6250000000001
 20
-1878.75
 30
0.0
 11
345.6250000000001
 21
-1878.75
 31
0.0
  0
LINE
  5
170
330
75
100
AcDbEntity
  8
0
 62
     0
100
AcDbLine
 10
358.7499999999999
 20
-1927.5
 30
0.0
 11
358.7499999999999
 21
-1927.5
 31
0.0
  0
LINE
  5
171
330
75
100
AcDbEntity
  8
0
 62
     0
100
AcDbLine
 10
359.9999999999999
 20
-1927.5
 30
0.0
 11
359.9999999999999
 21
-1927.5
 31
0.0
  0
LINE
  5
172
330
75
100
AcDbEntity
  8
0
 62
     0
100
AcDbLine
 10
361.2499999999999
 20
-1927.5
 30
0.0
 11
361.2499999999999
 21
-1927.5
 31
0.0
  0
LINE
  5
173
330
75
100
AcDbEntity
  8
0
 62
     0
100
AcDbLine
 10
356.875
 20
-1928.75
 30
0.0
 11
356.875
 21
-1928.75
 31
0.0
  0
LINE
  5
174
330
75
100
AcDbEntity
  8
0
 62
     0
100
AcDbLine
 10
358.125
 20
-1928.75
 30
0.0
 11
358.125
 21
-1928.75
 31
0.0
  0
LINE
  5
175
330
75
100
AcDbEntity
  8
0
 62
     0
100
AcDbLine
 10
359.375
 20
-1928.75
 30
0.0
 11
359.375
 21
-1928.75
 31
0.0
  0
LINE
  5
176
330
75
100
AcDbEntity
  8
0
 62
     0
100
AcDbLine
 10
360.625
 20
-1928.75
 30
0.0
 11
360.625
 21
-1928.75
 31
0.0
  0
LINE
  5
177
330
75
100
AcDbEntity
  8
0
 62
     0
100
AcDbLine
 10
356.2499999999999
 20
-1930.0
 30
0.0
 11
356.2499999999999
 21
-1930.0
 31
0.0
  0
LINE
  5
178
330
75
100
AcDbEntity
  8
0
 62
     0
100
AcDbLine
 10
357.4999999999999
 20
-1930.0
 30
0.0
 11
357.4999999999999
 21
-1930.0
 31
0.0
  0
LINE
  5
179
330
75
100
AcDbEntity
  8
0
 62
     0
100
AcDbLine
 10
358.7499999999999
 20
-1930.0
 30
0.0
 11
358.7499999999999
 21
-1930.0
 31
0.0
  0
LINE
  5
17A
330
75
100
AcDbEntity
  8
0
 62
     0
100
AcDbLine
 10
359.9999999999999
 20
-1930.0
 30
0.0
 11
359.9999999999999
 21
-1930.0
 31
0.0
  0
LINE
  5
17B
330
75
100
AcDbEntity
  8
0
 62
     0
100
AcDbLine
 10
364.9999999999999
 20
-1937.5
 30
0.0
 11
364.9999999999999
 21
-1937.5
 31
0.0
  0
LINE
  5
17C
330
75
100
AcDbEntity
  8
0
 62
     0
100
AcDbLine
 10
366.2499999999999
 20
-1937.5
 30
0.0
 11
366.2499999999999
 21
-1937.5
 31
0.0
  0
LINE
  5
17D
330
75
100
AcDbEntity
  8
0
 62
     0
100
AcDbLine
 10
367.4999999999999
 20
-1937.5
 30
0.0
 11
367.4999999999999
 21
-1937.5
 31
0.0
  0
LINE
  5
17E
330
75
100
AcDbEntity
  8
0
 62
     0
100
AcDbLine
 10
365.6250000000001
 20
-1938.75
 30
0.0
 11
365.6250000000001
 21
-1938.75
 31
0.0
  0
LINE
  5
17F
330
75
100
AcDbEntity
  8
0
 62
     0
100
AcDbLine
 10
366.8750000000001
 20
-1938.75
 30
0.0
 11
366.8750000000001
 21
-1938.75
 31
0.0
  0
LINE
  5
180
330
75
100
AcDbEntity
  8
0
 62
     0
100
AcDbLine
 10
368.1250000000001
 20
-1938.75
 30
0.0
 11
368.1250000000001
 21
-1938.75
 31
0.0
  0
LINE
  5
181
330
75
100
AcDbEntity
  8
0
 62
     0
100
AcDbLine
 10
369.3750000000001
 20
-1938.75
 30
0.0
 11
369.3750000000001
 21
-1938.75
 31
0.0
  0
LINE
  5
182
330
75
100
AcDbEntity
  8
0
 62
     0
100
AcDbLine
 10
364.9999999999999
 20
-1940.0
 30
0.0
 11
364.9999999999999
 21
-1940.0
 31
0.0
  0
LINE
  5
183
330
75
100
AcDbEntity
  8
0
 62
     0
100
AcDbLine
 10
366.2499999999999
 20
-1940.0
 30
0.0
 11
366.2499999999999
 21
-1940.0
 31
0.0
  0
LINE
  5
184
330
75
100
AcDbEntity
  8
0
 62
     0
100
AcDbLine
 10
367.4999999999999
 20
-1940.0
 30
0.0
 11
367.4999999999999
 21
-1940.0
 31
0.0
  0
LINE
  5
185
330
75
100
AcDbEntity
  8
0
 62
     0
100
AcDbLine
 10
368.7499999999999
 20
-1940.0
 30
0.0
 11
368.7499999999999
 21
-1940.0
 31
0.0
  0
LINE
  5
186
330
75
100
AcDbEntity
  8
0
 62
     0
100
AcDbLine
 10
369.9999999999999
 20
-1940.0
 30
0.0
 11
369.9999999999999
 21
-1940.0
 31
0.0
  0
LINE
  5
187
330
75
100
AcDbEntity
  8
0
 62
     0
100
AcDbLine
 10
371.2499999999999
 20
-1940.0
 30
0.0
 11
371.2499999999999
 21
-1940.0
 31
0.0
  0
LINE
  5
188
330
75
100
AcDbEntity
  8
0
 62
     0
100
AcDbLine
 10
372.4999999999999
 20
-1940.0
 30
0.0
 11
372.4999999999999
 21
-1940.0
 31
0.0
  0
LINE
  5
189
330
75
100
AcDbEntity
  8
0
 62
     0
100
AcDbLine
 10
365.625
 20
-1941.25
 30
0.0
 11
365.625
 21
-1941.25
 31
0.0
  0
LINE
  5
18A
330
75
100
AcDbEntity
  8
0
 62
     0
100
AcDbLine
 10
366.8749999999999
 20
-1941.25
 30
0.0
 11
366.8749999999999
 21
-1941.25
 31
0.0
  0
LINE
  5
18B
330
75
100
AcDbEntity
  8
0
 62
     0
100
AcDbLine
 10
368.1249999999999
 20
-1941.25
 30
0.0
 11
368.1249999999999
 21
-1941.25
 31
0.0
  0
LINE
  5
18C
330
75
100
AcDbEntity
  8
0
 62
     0
100
AcDbLine
 10
369.375
 20
-1941.25
 30
0.0
 11
369.375
 21
-1941.25
 31
0.0
  0
LINE
  5
18D
330
75
100
AcDbEntity
  8
0
 62
     0
100
AcDbLine
 10
370.6249999999999
 20
-1941.25
 30
0.0
 11
370.6249999999999
 21
-1941.25
 31
0.0
  0
LINE
  5
18E
330
75
100
AcDbEntity
  8
0
 62
     0
100
AcDbLine
 10
371.875
 20
-1941.25
 30
0.0
 11
371.875
 21
-1941.25
 31
0.0
  0
LINE
  5
18F
330
75
100
AcDbEntity
  8
0
 62
     0
100
AcDbLine
 10
373.1249999999999
 20
-1941.25
 30
0.0
 11
373.1249999999999
 21
-1941.25
 31
0.0
  0
LINE
  5
190
330
75
100
AcDbEntity
  8
0
 62
     0
100
AcDbLine
 10
357.5000000000001
 20
-1942.5
 30
0.0
 11
357.5000000000001
 21
-1942.5
 31
0.0
  0
LINE
  5
191
330
75
100
AcDbEntity
  8
0
 62
     0
100
AcDbLine
 10
367.4999999999999
 20
-1942.5
 30
0.0
 11
367.4999999999999
 21
-1942.5
 31
0.0
  0
LINE
  5
192
330
75
100
AcDbEntity
  8
0
 62
     0
100
AcDbLine
 10
368.75
 20
-1942.5
 30
0.0
 11
368.75
 21
-1942.5
 31
0.0
  0
LINE
  5
193
330
75
100
AcDbEntity
  8
0
 62
     0
100
AcDbLine
 10
369.9999999999999
 20
-1942.5
 30
0.0
 11
369.9999999999999
 21
-1942.5
 31
0.0
  0
LINE
  5
194
330
75
100
AcDbEntity
  8
0
 62
     0
100
AcDbLine
 10
371.2499999999999
 20
-1942.5
 30
0.0
 11
371.2499999999999
 21
-1942.5
 31
0.0
  0
LINE
  5
195
330
75
100
AcDbEntity
  8
0
 62
     0
100
AcDbLine
 10
372.5
 20
-1942.5
 30
0.0
 11
372.5
 21
-1942.5
 31
0.0
  0
LINE
  5
196
330
75
100
AcDbEntity
  8
0
 62
     0
100
AcDbLine
 10
373.7499999999999
 20
-1942.5
 30
0.0
 11
373.7499999999999
 21
-1942.5
 31
0.0
  0
LINE
  5
197
330
75
100
AcDbEntity
  8
0
 62
     0
100
AcDbLine
 10
354.3750000000001
 20
-1943.75
 30
0.0
 11
354.3750000000001
 21
-1943.75
 31
0.0
  0
LINE
  5
198
330
75
100
AcDbEntity
  8
0
 62
     0
100
AcDbLine
 10
355.6250000000001
 20
-1943.75
 30
0.0
 11
355.6250000000001
 21
-1943.75
 31
0.0
  0
LINE
  5
199
330
75
100
AcDbEntity
  8
0
 62
     0
100
AcDbLine
 10
356.875
 20
-1943.75
 30
0.0
 11
356.875
 21
-1943.75
 31
0.0
  0
LINE
  5
19A
330
75
100
AcDbEntity
  8
0
 62
     0
100
AcDbLine
 10
358.1250000000001
 20
-1943.75
 30
0.0
 11
358.1250000000001
 21
-1943.75
 31
0.0
  0
LINE
  5
19B
330
75
100
AcDbEntity
  8
0
 62
     0
100
AcDbLine
 10
359.375
 20
-1943.75
 30
0.0
 11
359.375
 21
-1943.75
 31
0.0
  0
LINE
  5
19C
330
75
100
AcDbEntity
  8
0
 62
     0
100
AcDbLine
 10
369.375
 20
-1943.75
 30
0.0
 11
369.375
 21
-1943.75
 31
0.0
  0
LINE
  5
19D
330
75
100
AcDbEntity
  8
0
 62
     0
100
AcDbLine
 10
370.6249999999999
 20
-1943.75
 30
0.0
 11
370.6249999999999
 21
-1943.75
 31
0.0
  0
LINE
  5
19E
330
75
100
AcDbEntity
  8
0
 62
     0
100
AcDbLine
 10
371.875
 20
-1943.75
 30
0.0
 11
371.875
 21
-1943.75
 31
0.0
  0
LINE
  5
19F
330
75
100
AcDbEntity
  8
0
 62
     0
100
AcDbLine
 10
353.75
 20
-1945.0
 30
0.0
 11
353.75
 21
-1945.0
 31
0.0
  0
LINE
  5
1A0
330
75
100
AcDbEntity
  8
0
 62
     0
100
AcDbLine
 10
354.9999999999999
 20
-1945.0
 30
0.0
 11
354.9999999999999
 21
-1945.0
 31
0.0
  0
LINE
  5
1A1
330
75
100
AcDbEntity
  8
0
 62
     0
100
AcDbLine
 10
356.25
 20
-1945.0
 30
0.0
 11
356.25
 21
-1945.0
 31
0.0
  0
LINE
  5
1A2
330
75
100
AcDbEntity
  8
0
 62
     0
100
AcDbLine
 10
357.4999999999999
 20
-1945.0
 30
0.0
 11
357.4999999999999
 21
-1945.0
 31
0.0
  0
LINE
  5
1A3
330
75
100
AcDbEntity
  8
0
 62
     0
100
AcDbLine
 10
358.7499999999999
 20
-1945.0
 30
0.0
 11
358.7499999999999
 21
-1945.0
 31
0.0
  0
LINE
  5
1A4
330
75
100
AcDbEntity
  8
0
 62
     0
100
AcDbLine
 10
360.0
 20
-1945.0
 30
0.0
 11
360.0
 21
-1945.0
 31
0.0
  0
LINE
  5
1A5
330
75
100
AcDbEntity
  8
0
 62
     0
100
AcDbLine
 10
361.2499999999999
 20
-1945.0
 30
0.0
 11
361.2499999999999
 21
-1945.0
 31
0.0
  0
LINE
  5
1A6
330
75
100
AcDbEntity
  8
0
 62
     0
100
AcDbLine
 10
373.7500000000001
 20
-1945.0
 30
0.0
 11
373.7500000000001
 21
-1945.0
 31
0.0
  0
LINE
  5
1A7
330
75
100
AcDbEntity
  8
0
 62
     0
100
AcDbLine
 10
375.0000000000001
 20
-1945.0
 30
0.0
 11
375.0000000000001
 21
-1945.0
 31
0.0
  0
LINE
  5
1A8
330
75
100
AcDbEntity
  8
0
 62
     0
100
AcDbLine
 10
369.9999999999999
 20
-1945.0
 30
0.0
 11
369.9999999999999
 21
-1945.0
 31
0.0
  0
LINE
  5
1A9
330
75
100
AcDbEntity
  8
0
 62
     0
100
AcDbLine
 10
353.125
 20
-1946.25
 30
0.0
 11
353.125
 21
-1946.25
 31
0.0
  0
LINE
  5
1AA
330
75
100
AcDbEntity
  8
0
 62
     0
100
AcDbLine
 10
354.3750000000001
 20
-1946.25
 30
0.0
 11
354.3750000000001
 21
-1946.25
 31
0.0
  0
LINE
  5
1AB
330
75
100
AcDbEntity
  8
0
 62
     0
100
AcDbLine
 10
355.6250000000001
 20
-1946.25
 30
0.0
 11
355.6250000000001
 21
-1946.25
 31
0.0
  0
LINE
  5
1AC
330
75
100
AcDbEntity
  8
0
 62
     0
100
AcDbLine
 10
356.875
 20
-1946.25
 30
0.0
 11
356.875
 21
-1946.25
 31
0.0
  0
LINE
  5
1AD
330
75
100
AcDbEntity
  8
0
 62
     0
100
AcDbLine
 10
358.1250000000001
 20
-1946.25
 30
0.0
 11
358.1250000000001
 21
-1946.25
 31
0.0
  0
LINE
  5
1AE
330
75
100
AcDbEntity
  8
0
 62
     0
100
AcDbLine
 10
359.375
 20
-1946.25
 30
0.0
 11
359.375
 21
-1946.25
 31
0.0
  0
LINE
  5
1AF
330
75
100
AcDbEntity
  8
0
 62
     0
100
AcDbLine
 10
360.6250000000001
 20
-1946.25
 30
0.0
 11
360.6250000000001
 21
-1946.25
 31
0.0
  0
LINE
  5
1B0
330
75
100
AcDbEntity
  8
0
 62
     0
100
AcDbLine
 10
361.8750000000001
 20
-1946.25
 30
0.0
 11
361.8750000000001
 21
-1946.25
 31
0.0
  0
LINE
  5
1B1
330
75
100
AcDbEntity
  8
0
 62
     0
100
AcDbLine
 10
363.125
 20
-1946.25
 30
0.0
 11
363.125
 21
-1946.25
 31
0.0
  0
LINE
  5
1B2
330
75
100
AcDbEntity
  8
0
 62
     0
100
AcDbLine
 10
364.3750000000001
 20
-1946.25
 30
0.0
 11
364.3750000000001
 21
-1946.25
 31
0.0
  0
LINE
  5
1B3
330
75
100
AcDbEntity
  8
0
 62
     0
100
AcDbLine
 10
371.8749999999999
 20
-1946.25
 30
0.0
 11
371.8749999999999
 21
-1946.25
 31
0.0
  0
LINE
  5
1B4
330
75
100
AcDbEntity
  8
0
 62
     0
100
AcDbLine
 10
373.1249999999999
 20
-1946.25
 30
0.0
 11
373.1249999999999
 21
-1946.25
 31
0.0
  0
LINE
  5
1B5
330
75
100
AcDbEntity
  8
0
 62
     0
100
AcDbLine
 10
374.3749999999999
 20
-1946.25
 30
0.0
 11
374.3749999999999
 21
-1946.25
 31
0.0
  0
LINE
  5
1B6
330
75
100
AcDbEntity
  8
0
 62
     0
100
AcDbLine
 10
375.6249999999999
 20
-1946.25
 30
0.0
 11
375.6249999999999
 21
-1946.25
 31
0.0
  0
LINE
  5
1B7
330
75
100
AcDbEntity
  8
0
 62
     0
100
AcDbLine
 10
376.8749999999999
 20
-1946.25
 30
0.0
 11
376.8749999999999
 21
-1946.25
 31
0.0
  0
LINE
  5
1B8
330
75
100
AcDbEntity
  8
0
 62
     0
100
AcDbLine
 10
378.1249999999999
 20
-1946.25
 30
0.0
 11
378.1249999999999
 21
-1946.25
 31
0.0
  0
LINE
  5
1B9
330
75
100
AcDbEntity
  8
0
 62
     0
100
AcDbLine
 10
351.2499999999999
 20
-1947.5
 30
0.0
 11
351.2499999999999
 21
-1947.5
 31
0.0
  0
LINE
  5
1BA
330
75
100
AcDbEntity
  8
0
 62
     0
100
AcDbLine
 10
352.4999999999999
 20
-1947.5
 30
0.0
 11
352.4999999999999
 21
-1947.5
 31
0.0
  0
LINE
  5
1BB
330
75
100
AcDbEntity
  8
0
 62
     0
100
AcDbLine
 10
353.7499999999999
 20
-1947.5
 30
0.0
 11
353.7499999999999
 21
-1947.5
 31
0.0
  0
LINE
  5
1BC
330
75
100
AcDbEntity
  8
0
 62
     0
100
AcDbLine
 10
354.9999999999999
 20
-1947.5
 30
0.0
 11
354.9999999999999
 21
-1947.5
 31
0.0
  0
LINE
  5
1BD
330
75
100
AcDbEntity
  8
0
 62
     0
100
AcDbLine
 10
356.2499999999999
 20
-1947.5
 30
0.0
 11
356.2499999999999
 21
-1947.5
 31
0.0
  0
LINE
  5
1BE
330
75
100
AcDbEntity
  8
0
 62
     0
100
AcDbLine
 10
357.4999999999999
 20
-1947.5
 30
0.0
 11
357.4999999999999
 21
-1947.5
 31
0.0
  0
LINE
  5
1BF
330
75
100
AcDbEntity
  8
0
 62
     0
100
AcDbLine
 10
358.7499999999999
 20
-1947.5
 30
0.0
 11
358.7499999999999
 21
-1947.5
 31
0.0
  0
LINE
  5
1C0
330
75
100
AcDbEntity
  8
0
 62
     0
100
AcDbLine
 10
359.9999999999999
 20
-1947.5
 30
0.0
 11
359.9999999999999
 21
-1947.5
 31
0.0
  0
LINE
  5
1C1
330
75
100
AcDbEntity
  8
0
 62
     0
100
AcDbLine
 10
361.2499999999999
 20
-1947.5
 30
0.0
 11
361.2499999999999
 21
-1947.5
 31
0.0
  0
LINE
  5
1C2
330
75
100
AcDbEntity
  8
0
 62
     0
100
AcDbLine
 10
362.4999999999999
 20
-1947.5
 30
0.0
 11
362.4999999999999
 21
-1947.5
 31
0.0
  0
LINE
  5
1C3
330
75
100
AcDbEntity
  8
0
 62
     0
100
AcDbLine
 10
363.7499999999999
 20
-1947.5
 30
0.0
 11
363.7499999999999
 21
-1947.5
 31
0.0
  0
LINE
  5
1C4
330
75
100
AcDbEntity
  8
0
 62
     0
100
AcDbLine
 10
364.9999999999999
 20
-1947.5
 30
0.0
 11
364.9999999999999
 21
-1947.5
 31
0.0
  0
LINE
  5
1C5
330
75
100
AcDbEntity
  8
0
 62
     0
100
AcDbLine
 10
371.2500000000001
 20
-1947.5
 30
0.0
 11
371.2500000000001
 21
-1947.5
 31
0.0
  0
LINE
  5
1C6
330
75
100
AcDbEntity
  8
0
 62
     0
100
AcDbLine
 10
372.5000000000001
 20
-1947.5
 30
0.0
 11
372.5000000000001
 21
-1947.5
 31
0.0
  0
LINE
  5
1C7
330
75
100
AcDbEntity
  8
0
 62
     0
100
AcDbLine
 10
373.7500000000001
 20
-1947.5
 30
0.0
 11
373.7500000000001
 21
-1947.5
 31
0.0
  0
LINE
  5
1C8
330
75
100
AcDbEntity
  8
0
 62
     0
100
AcDbLine
 10
375.0000000000001
 20
-1947.5
 30
0.0
 11
375.0000000000001
 21
-1947.5
 31
0.0
  0
LINE
  5
1C9
330
75
100
AcDbEntity
  8
0
 62
     0
100
AcDbLine
 10
376.2500000000001
 20
-1947.5
 30
0.0
 11
376.2500000000001
 21
-1947.5
 31
0.0
  0
LINE
  5
1CA
330
75
100
AcDbEntity
  8
0
 62
     0
100
AcDbLine
 10
377.5000000000001
 20
-1947.5
 30
0.0
 11
377.5000000000001
 21
-1947.5
 31
0.0
  0
LINE
  5
1CB
330
75
100
AcDbEntity
  8
0
 62
     0
100
AcDbLine
 10
378.7500000000001
 20
-1947.5
 30
0.0
 11
378.7500000000001
 21
-1947.5
 31
0.0
  0
LINE
  5
1CC
330
75
100
AcDbEntity
  8
0
 62
     0
100
AcDbLine
 10
380.0000000000001
 20
-1947.5
 30
0.0
 11
380.0000000000001
 21
-1947.5
 31
0.0
  0
LINE
  5
1CD
330
75
100
AcDbEntity
  8
0
 62
     0
100
AcDbLine
 10
349.3749999999999
 20
-1948.75
 30
0.0
 11
349.3749999999999
 21
-1948.75
 31
0.0
  0
LINE
  5
1CE
330
75
100
AcDbEntity
  8
0
 62
     0
100
AcDbLine
 10
350.6249999999999
 20
-1948.75
 30
0.0
 11
350.6249999999999
 21
-1948.75
 31
0.0
  0
LINE
  5
1CF
330
75
100
AcDbEntity
  8
0
 62
     0
100
AcDbLine
 10
351.8749999999999
 20
-1948.75
 30
0.0
 11
351.8749999999999
 21
-1948.75
 31
0.0
  0
LINE
  5
1D0
330
75
100
AcDbEntity
  8
0
 62
     0
100
AcDbLine
 10
353.1249999999999
 20
-1948.75
 30
0.0
 11
353.1249999999999
 21
-1948.75
 31
0.0
  0
LINE
  5
1D1
330
75
100
AcDbEntity
  8
0
 62
     0
100
AcDbLine
 10
354.3749999999999
 20
-1948.75
 30
0.0
 11
354.3749999999999
 21
-1948.75
 31
0.0
  0
LINE
  5
1D2
330
75
100
AcDbEntity
  8
0
 62
     0
100
AcDbLine
 10
355.6249999999999
 20
-1948.75
 30
0.0
 11
355.6249999999999
 21
-1948.75
 31
0.0
  0
LINE
  5
1D3
330
75
100
AcDbEntity
  8
0
 62
     0
100
AcDbLine
 10
356.8749999999999
 20
-1948.75
 30
0.0
 11
356.8749999999999
 21
-1948.75
 31
0.0
  0
LINE
  5
1D4
330
75
100
AcDbEntity
  8
0
 62
     0
100
AcDbLine
 10
358.1249999999999
 20
-1948.75
 30
0.0
 11
358.1249999999999
 21
-1948.75
 31
0.0
  0
LINE
  5
1D5
330
75
100
AcDbEntity
  8
0
 62
     0
100
AcDbLine
 10
359.3749999999999
 20
-1948.75
 30
0.0
 11
359.3749999999999
 21
-1948.75
 31
0.0
  0
LINE
  5
1D6
330
75
100
AcDbEntity
  8
0
 62
     0
100
AcDbLine
 10
360.6249999999999
 20
-1948.75
 30
0.0
 11
360.6249999999999
 21
-1948.75
 31
0.0
  0
LINE
  5
1D7
330
75
100
AcDbEntity
  8
0
 62
     0
100
AcDbLine
 10
361.8749999999999
 20
-1948.75
 30
0.0
 11
361.8749999999999
 21
-1948.75
 31
0.0
  0
LINE
  5
1D8
330
75
100
AcDbEntity
  8
0
 62
     0
100
AcDbLine
 10
363.1249999999999
 20
-1948.75
 30
0.0
 11
363.1249999999999
 21
-1948.75
 31
0.0
  0
LINE
  5
1D9
330
75
100
AcDbEntity
  8
0
 62
     0
100
AcDbLine
 10
364.3749999999999
 20
-1948.75
 30
0.0
 11
364.3749999999999
 21
-1948.75
 31
0.0
  0
LINE
  5
1DA
330
75
100
AcDbEntity
  8
0
 62
     0
100
AcDbLine
 10
370.6249999999999
 20
-1948.75
 30
0.0
 11
370.6249999999999
 21
-1948.75
 31
0.0
  0
LINE
  5
1DB
330
75
100
AcDbEntity
  8
0
 62
     0
100
AcDbLine
 10
371.8749999999999
 20
-1948.75
 30
0.0
 11
371.8749999999999
 21
-1948.75
 31
0.0
  0
LINE
  5
1DC
330
75
100
AcDbEntity
  8
0
 62
     0
100
AcDbLine
 10
373.1249999999999
 20
-1948.75
 30
0.0
 11
373.1249999999999
 21
-1948.75
 31
0.0
  0
LINE
  5
1DD
330
75
100
AcDbEntity
  8
0
 62
     0
100
AcDbLine
 10
374.3749999999999
 20
-1948.75
 30
0.0
 11
374.3749999999999
 21
-1948.75
 31
0.0
  0
LINE
  5
1DE
330
75
100
AcDbEntity
  8
0
 62
     0
100
AcDbLine
 10
375.6249999999999
 20
-1948.75
 30
0.0
 11
375.6249999999999
 21
-1948.75
 31
0.0
  0
LINE
  5
1DF
330
75
100
AcDbEntity
  8
0
 62
     0
100
AcDbLine
 10
376.8749999999999
 20
-1948.75
 30
0.0
 11
376.8749999999999
 21
-1948.75
 31
0.0
  0
LINE
  5
1E0
330
75
100
AcDbEntity
  8
0
 62
     0
100
AcDbLine
 10
378.1249999999999
 20
-1948.75
 30
0.0
 11
378.1249999999999
 21
-1948.75
 31
0.0
  0
LINE
  5
1E1
330
75
100
AcDbEntity
  8
0
 62
     0
100
AcDbLine
 10
379.3749999999999
 20
-1948.75
 30
0.0
 11
379.3749999999999
 21
-1948.75
 31
0.0
  0
LINE
  5
1E2
330
75
100
AcDbEntity
  8
0
 62
     0
100
AcDbLine
 10
380.6249999999999
 20
-1948.75
 30
0.0
 11
380.6249999999999
 21
-1948.75
 31
0.0
  0
LINE
  5
1E3
330
75
100
AcDbEntity
  8
0
 62
     0
100
AcDbLine
 10
381.8749999999999
 20
-1948.75
 30
0.0
 11
381.8749999999999
 21
-1948.75
 31
0.0
  0
LINE
  5
1E4
330
75
100
AcDbEntity
  8
0
 62
     0
100
AcDbLine
 10
350.0
 20
-1950.0
 30
0.0
 11
350.0
 21
-1950.0
 31
0.0
  0
LINE
  5
1E5
330
75
100
AcDbEntity
  8
0
 62
     0
100
AcDbLine
 10
351.25
 20
-1950.0
 30
0.0
 11
351.25
 21
-1950.0
 31
0.0
  0
LINE
  5
1E6
330
75
100
AcDbEntity
  8
0
 62
     0
100
AcDbLine
 10
352.5
 20
-1950.0
 30
0.0
 11
352.5
 21
-1950.0
 31
0.0
  0
LINE
  5
1E7
330
75
100
AcDbEntity
  8
0
 62
     0
100
AcDbLine
 10
353.75
 20
-1950.0
 30
0.0
 11
353.75
 21
-1950.0
 31
0.0
  0
LINE
  5
1E8
330
75
100
AcDbEntity
  8
0
 62
     0
100
AcDbLine
 10
355.0
 20
-1950.0
 30
0.0
 11
355.0
 21
-1950.0
 31
0.0
  0
LINE
  5
1E9
330
75
100
AcDbEntity
  8
0
 62
     0
100
AcDbLine
 10
356.25
 20
-1950.0
 30
0.0
 11
356.25
 21
-1950.0
 31
0.0
  0
LINE
  5
1EA
330
75
100
AcDbEntity
  8
0
 62
     0
100
AcDbLine
 10
357.5
 20
-1950.0
 30
0.0
 11
357.5
 21
-1950.0
 31
0.0
  0
LINE
  5
1EB
330
75
100
AcDbEntity
  8
0
 62
     0
100
AcDbLine
 10
358.75
 20
-1950.0
 30
0.0
 11
358.75
 21
-1950.0
 31
0.0
  0
LINE
  5
1EC
330
75
100
AcDbEntity
  8
0
 62
     0
100
AcDbLine
 10
360.0
 20
-1950.0
 30
0.0
 11
360.0
 21
-1950.0
 31
0.0
  0
LINE
  5
1ED
330
75
100
AcDbEntity
  8
0
 62
     0
100
AcDbLine
 10
361.25
 20
-1950.0
 30
0.0
 11
361.25
 21
-1950.0
 31
0.0
  0
LINE
  5
1EE
330
75
100
AcDbEntity
  8
0
 62
     0
100
AcDbLine
 10
362.5
 20
-1950.0
 30
0.0
 11
362.5
 21
-1950.0
 31
0.0
  0
LINE
  5
1EF
330
75
100
AcDbEntity
  8
0
 62
     0
100
AcDbLine
 10
363.75
 20
-1950.0
 30
0.0
 11
363.75
 21
-1950.0
 31
0.0
  0
LINE
  5
1F0
330
75
100
AcDbEntity
  8
0
 62
     0
100
AcDbLine
 10
365.0
 20
-1950.0
 30
0.0
 11
365.0
 21
-1950.0
 31
0.0
  0
LINE
  5
1F1
330
75
100
AcDbEntity
  8
0
 62
     0
100
AcDbLine
 10
370.0000000000001
 20
-1950.0
 30
0.0
 11
370.0000000000001
 21
-1950.0
 31
0.0
  0
LINE
  5
1F2
330
75
100
AcDbEntity
  8
0
 62
     0
100
AcDbLine
 10
371.2500000000001
 20
-1950.0
 30
0.0
 11
371.2500000000001
 21
-1950.0
 31
0.0
  0
LINE
  5
1F3
330
75
100
AcDbEntity
  8
0
 62
     0
100
AcDbLine
 10
372.5000000000001
 20
-1950.0
 30
0.0
 11
372.5000000000001
 21
-1950.0
 31
0.0
  0
LINE
  5
1F4
330
75
100
AcDbEntity
  8
0
 62
     0
100
AcDbLine
 10
373.7500000000001
 20
-1950.0
 30
0.0
 11
373.7500000000001
 21
-1950.0
 31
0.0
  0
LINE
  5
1F5
330
75
100
AcDbEntity
  8
0
 62
     0
100
AcDbLine
 10
375.0000000000001
 20
-1950.0
 30
0.0
 11
375.0000000000001
 21
-1950.0
 31
0.0
  0
LINE
  5
1F6
330
75
100
AcDbEntity
  8
0
 62
     0
100
AcDbLine
 10
376.2500000000001
 20
-1950.0
 30
0.0
 11
376.2500000000001
 21
-1950.0
 31
0.0
  0
LINE
  5
1F7
330
75
100
AcDbEntity
  8
0
 62
     0
100
AcDbLine
 10
377.5000000000001
 20
-1950.0
 30
0.0
 11
377.5000000000001
 21
-1950.0
 31
0.0
  0
LINE
  5
1F8
330
75
100
AcDbEntity
  8
0
 62
     0
100
AcDbLine
 10
378.7500000000001
 20
-1950.0
 30
0.0
 11
378.7500000000001
 21
-1950.0
 31
0.0
  0
LINE
  5
1F9
330
75
100
AcDbEntity
  8
0
 62
     0
100
AcDbLine
 10
380.0000000000001
 20
-1950.0
 30
0.0
 11
380.0000000000001
 21
-1950.0
 31
0.0
  0
LINE
  5
1FA
330
75
100
AcDbEntity
  8
0
 62
     0
100
AcDbLine
 10
381.2500000000001
 20
-1950.0
 30
0.0
 11
381.2500000000001
 21
-1950.0
 31
0.0
  0
LINE
  5
1FB
330
75
100
AcDbEntity
  8
0
 62
     0
100
AcDbLine
 10
351.8749999999999
 20
-1951.25
 30
0.0
 11
351.8749999999999
 21
-1951.25
 31
0.0
  0
LINE
  5
1FC
330
75
100
AcDbEntity
  8
0
 62
     0
100
AcDbLine
 10
353.125
 20
-1951.25
 30
0.0
 11
353.125
 21
-1951.25
 31
0.0
  0
LINE
  5
1FD
330
75
100
AcDbEntity
  8
0
 62
     0
100
AcDbLine
 10
354.3749999999999
 20
-1951.25
 30
0.0
 11
354.3749999999999
 21
-1951.25
 31
0.0
  0
LINE
  5
1FE
330
75
100
AcDbEntity
  8
0
 62
     0
100
AcDbLine
 10
355.6249999999999
 20
-1951.25
 30
0.0
 11
355.6249999999999
 21
-1951.25
 31
0.0
  0
LINE
  5
1FF
330
75
100
AcDbEntity
  8
0
 62
     0
100
AcDbLine
 10
356.875
 20
-1951.25
 30
0.0
 11
356.875
 21
-1951.25
 31
0.0
  0
LINE
  5
200
330
75
100
AcDbEntity
  8
0
 62
     0
100
AcDbLine
 10
358.1249999999999
 20
-1951.25
 30
0.0
 11
358.1249999999999
 21
-1951.25
 31
0.0
  0
LINE
  5
201
330
75
100
AcDbEntity
  8
0
 62
     0
100
AcDbLine
 10
359.375
 20
-1951.25
 30
0.0
 11
359.375
 21
-1951.25
 31
0.0
  0
LINE
  5
202
330
75
100
AcDbEntity
  8
0
 62
     0
100
AcDbLine
 10
360.6249999999999
 20
-1951.25
 30
0.0
 11
360.6249999999999
 21
-1951.25
 31
0.0
  0
LINE
  5
203
330
75
100
AcDbEntity
  8
0
 62
     0
100
AcDbLine
 10
361.8749999999999
 20
-1951.25
 30
0.0
 11
361.8749999999999
 21
-1951.25
 31
0.0
  0
LINE
  5
204
330
75
100
AcDbEntity
  8
0
 62
     0
100
AcDbLine
 10
363.125
 20
-1951.25
 30
0.0
 11
363.125
 21
-1951.25
 31
0.0
  0
LINE
  5
205
330
75
100
AcDbEntity
  8
0
 62
     0
100
AcDbLine
 10
364.3749999999999
 20
-1951.25
 30
0.0
 11
364.3749999999999
 21
-1951.25
 31
0.0
  0
LINE
  5
206
330
75
100
AcDbEntity
  8
0
 62
     0
100
AcDbLine
 10
369.3749999999999
 20
-1951.25
 30
0.0
 11
369.3749999999999
 21
-1951.25
 31
0.0
  0
LINE
  5
207
330
75
100
AcDbEntity
  8
0
 62
     0
100
AcDbLine
 10
370.6249999999999
 20
-1951.25
 30
0.0
 11
370.6249999999999
 21
-1951.25
 31
0.0
  0
LINE
  5
208
330
75
100
AcDbEntity
  8
0
 62
     0
100
AcDbLine
 10
371.8749999999999
 20
-1951.25
 30
0.0
 11
371.8749999999999
 21
-1951.25
 31
0.0
  0
LINE
  5
209
330
75
100
AcDbEntity
  8
0
 62
     0
100
AcDbLine
 10
373.1249999999999
 20
-1951.25
 30
0.0
 11
373.1249999999999
 21
-1951.25
 31
0.0
  0
LINE
  5
20A
330
75
100
AcDbEntity
  8
0
 62
     0
100
AcDbLine
 10
374.3749999999999
 20
-1951.25
 30
0.0
 11
374.3749999999999
 21
-1951.25
 31
0.0
  0
LINE
  5
20B
330
75
100
AcDbEntity
  8
0
 62
     0
100
AcDbLine
 10
375.6249999999999
 20
-1951.25
 30
0.0
 11
375.6249999999999
 21
-1951.25
 31
0.0
  0
LINE
  5
20C
330
75
100
AcDbEntity
  8
0
 62
     0
100
AcDbLine
 10
376.8749999999999
 20
-1951.25
 30
0.0
 11
376.8749999999999
 21
-1951.25
 31
0.0
  0
LINE
  5
20D
330
75
100
AcDbEntity
  8
0
 62
     0
100
AcDbLine
 10
378.1249999999999
 20
-1951.25
 30
0.0
 11
378.1249999999999
 21
-1951.25
 31
0.0
  0
LINE
  5
20E
330
75
100
AcDbEntity
  8
0
 62
     0
100
AcDbLine
 10
379.3749999999999
 20
-1951.25
 30
0.0
 11
379.3749999999999
 21
-1951.25
 31
0.0
  0
LINE
  5
20F
330
75
100
AcDbEntity
  8
0
 62
     0
100
AcDbLine
 10
380.6249999999999
 20
-1951.25
 30
0.0
 11
380.6249999999999
 21
-1951.25
 31
0.0
  0
LINE
  5
210
330
75
100
AcDbEntity
  8
0
 62
     0
100
AcDbLine
 10
352.5
 20
-1952.5
 30
0.0
 11
352.5
 21
-1952.5
 31
0.0
  0
LINE
  5
211
330
75
100
AcDbEntity
  8
0
 62
     0
100
AcDbLine
 10
353.75
 20
-1952.5
 30
0.0
 11
353.75
 21
-1952.5
 31
0.0
  0
LINE
  5
212
330
75
100
AcDbEntity
  8
0
 62
     0
100
AcDbLine
 10
355.0
 20
-1952.5
 30
0.0
 11
355.0
 21
-1952.5
 31
0.0
  0
LINE
  5
213
330
75
100
AcDbEntity
  8
0
 62
     0
100
AcDbLine
 10
356.25
 20
-1952.5
 30
0.0
 11
356.25
 21
-1952.5
 31
0.0
  0
LINE
  5
214
330
75
100
AcDbEntity
  8
0
 62
     0
100
AcDbLine
 10
357.5
 20
-1952.5
 30
0.0
 11
357.5
 21
-1952.5
 31
0.0
  0
LINE
  5
215
330
75
100
AcDbEntity
  8
0
 62
     0
100
AcDbLine
 10
358.75
 20
-1952.5
 30
0.0
 11
358.75
 21
-1952.5
 31
0.0
  0
LINE
  5
216
330
75
100
AcDbEntity
  8
0
 62
     0
100
AcDbLine
 10
360.0
 20
-1952.5
 30
0.0
 11
360.0
 21
-1952.5
 31
0.0
  0
LINE
  5
217
330
75
100
AcDbEntity
  8
0
 62
     0
100
AcDbLine
 10
361.25
 20
-1952.5
 30
0.0
 11
361.25
 21
-1952.5
 31
0.0
  0
LINE
  5
218
330
75
100
AcDbEntity
  8
0
 62
     0
100
AcDbLine
 10
362.5
 20
-1952.5
 30
0.0
 11
362.5
 21
-1952.5
 31
0.0
  0
LINE
  5
219
330
75
100
AcDbEntity
  8
0
 62
     0
100
AcDbLine
 10
363.75
 20
-1952.5
 30
0.0
 11
363.75
 21
-1952.5
 31
0.0
  0
LINE
  5
21A
330
75
100
AcDbEntity
  8
0
 62
     0
100
AcDbLine
 10
368.75
 20
-1952.5
 30
0.0
 11
368.75
 21
-1952.5
 31
0.0
  0
LINE
  5
21B
330
75
100
AcDbEntity
  8
0
 62
     0
100
AcDbLine
 10
370.0000000000001
 20
-1952.5
 30
0.0
 11
370.0000000000001
 21
-1952.5
 31
0.0
  0
LINE
  5
21C
330
75
100
AcDbEntity
  8
0
 62
     0
100
AcDbLine
 10
371.2500000000001
 20
-1952.5
 30
0.0
 11
371.2500000000001
 21
-1952.5
 31
0.0
  0
LINE
  5
21D
330
75
100
AcDbEntity
  8
0
 62
     0
100
AcDbLine
 10
372.5
 20
-1952.5
 30
0.0
 11
372.5
 21
-1952.5
 31
0.0
  0
LINE
  5
21E
330
75
100
AcDbEntity
  8
0
 62
     0
100
AcDbLine
 10
373.7500000000001
 20
-1952.5
 30
0.0
 11
373.7500000000001
 21
-1952.5
 31
0.0
  0
LINE
  5
21F
330
75
100
AcDbEntity
  8
0
 62
     0
100
AcDbLine
 10
375.0
 20
-1952.5
 30
0.0
 11
375.0
 21
-1952.5
 31
0.0
  0
LINE
  5
220
330
75
100
AcDbEntity
  8
0
 62
     0
100
AcDbLine
 10
376.2500000000001
 20
-1952.5
 30
0.0
 11
376.2500000000001
 21
-1952.5
 31
0.0
  0
LINE
  5
221
330
75
100
AcDbEntity
  8
0
 62
     0
100
AcDbLine
 10
377.5000000000001
 20
-1952.5
 30
0.0
 11
377.5000000000001
 21
-1952.5
 31
0.0
  0
LINE
  5
222
330
75
100
AcDbEntity
  8
0
 62
     0
100
AcDbLine
 10
378.75
 20
-1952.5
 30
0.0
 11
378.75
 21
-1952.5
 31
0.0
  0
LINE
  5
223
330
75
100
AcDbEntity
  8
0
 62
     0
100
AcDbLine
 10
351.8750000000001
 20
-1953.75
 30
0.0
 11
351.8750000000001
 21
-1953.75
 31
0.0
  0
LINE
  5
224
330
75
100
AcDbEntity
  8
0
 62
     0
100
AcDbLine
 10
353.125
 20
-1953.75
 30
0.0
 11
353.125
 21
-1953.75
 31
0.0
  0
LINE
  5
225
330
75
100
AcDbEntity
  8
0
 62
     0
100
AcDbLine
 10
354.3750000000001
 20
-1953.75
 30
0.0
 11
354.3750000000001
 21
-1953.75
 31
0.0
  0
LINE
  5
226
330
75
100
AcDbEntity
  8
0
 62
     0
100
AcDbLine
 10
355.6250000000001
 20
-1953.75
 30
0.0
 11
355.6250000000001
 21
-1953.75
 31
0.0
  0
LINE
  5
227
330
75
100
AcDbEntity
  8
0
 62
     0
100
AcDbLine
 10
356.875
 20
-1953.75
 30
0.0
 11
356.875
 21
-1953.75
 31
0.0
  0
LINE
  5
228
330
75
100
AcDbEntity
  8
0
 62
     0
100
AcDbLine
 10
358.1250000000001
 20
-1953.75
 30
0.0
 11
358.1250000000001
 21
-1953.75
 31
0.0
  0
LINE
  5
229
330
75
100
AcDbEntity
  8
0
 62
     0
100
AcDbLine
 10
359.375
 20
-1953.75
 30
0.0
 11
359.375
 21
-1953.75
 31
0.0
  0
LINE
  5
22A
330
75
100
AcDbEntity
  8
0
 62
     0
100
AcDbLine
 10
360.6250000000001
 20
-1953.75
 30
0.0
 11
360.6250000000001
 21
-1953.75
 31
0.0
  0
LINE
  5
22B
330
75
100
AcDbEntity
  8
0
 62
     0
100
AcDbLine
 10
361.8750000000001
 20
-1953.75
 30
0.0
 11
361.8750000000001
 21
-1953.75
 31
0.0
  0
LINE
  5
22C
330
75
100
AcDbEntity
  8
0
 62
     0
100
AcDbLine
 10
363.125
 20
-1953.75
 30
0.0
 11
363.125
 21
-1953.75
 31
0.0
  0
LINE
  5
22D
330
75
100
AcDbEntity
  8
0
 62
     0
100
AcDbLine
 10
368.1250000000001
 20
-1953.75
 30
0.0
 11
368.1250000000001
 21
-1953.75
 31
0.0
  0
LINE
  5
22E
330
75
100
AcDbEntity
  8
0
 62
     0
100
AcDbLine
 10
369.3750000000001
 20
-1953.75
 30
0.0
 11
369.3750000000001
 21
-1953.75
 31
0.0
  0
LINE
  5
22F
330
75
100
AcDbEntity
  8
0
 62
     0
100
AcDbLine
 10
370.6250000000001
 20
-1953.75
 30
0.0
 11
370.6250000000001
 21
-1953.75
 31
0.0
  0
LINE
  5
230
330
75
100
AcDbEntity
  8
0
 62
     0
100
AcDbLine
 10
371.8750000000001
 20
-1953.75
 30
0.0
 11
371.8750000000001
 21
-1953.75
 31
0.0
  0
LINE
  5
231
330
75
100
AcDbEntity
  8
0
 62
     0
100
AcDbLine
 10
373.1250000000001
 20
-1953.75
 30
0.0
 11
373.1250000000001
 21
-1953.75
 31
0.0
  0
LINE
  5
232
330
75
100
AcDbEntity
  8
0
 62
     0
100
AcDbLine
 10
374.3750000000001
 20
-1953.75
 30
0.0
 11
374.3750000000001
 21
-1953.75
 31
0.0
  0
LINE
  5
233
330
75
100
AcDbEntity
  8
0
 62
     0
100
AcDbLine
 10
375.6250000000001
 20
-1953.75
 30
0.0
 11
375.6250000000001
 21
-1953.75
 31
0.0
  0
LINE
  5
234
330
75
100
AcDbEntity
  8
0
 62
     0
100
AcDbLine
 10
376.8750000000001
 20
-1953.75
 30
0.0
 11
376.8750000000001
 21
-1953.75
 31
0.0
  0
LINE
  5
235
330
75
100
AcDbEntity
  8
0
 62
     0
100
AcDbLine
 10
378.1250000000001
 20
-1953.75
 30
0.0
 11
378.1250000000001
 21
-1953.75
 31
0.0
  0
LINE
  5
236
330
75
100
AcDbEntity
  8
0
 62
     0
100
AcDbLine
 10
347.5
 20
-1955.0
 30
0.0
 11
347.5
 21
-1955.0
 31
0.0
  0
LINE
  5
237
330
75
100
AcDbEntity
  8
0
 62
     0
100
AcDbLine
 10
348.75
 20
-1955.0
 30
0.0
 11
348.75
 21
-1955.0
 31
0.0
  0
LINE
  5
238
330
75
100
AcDbEntity
  8
0
 62
     0
100
AcDbLine
 10
366.25
 20
-1955.0
 30
0.0
 11
366.25
 21
-1955.0
 31
0.0
  0
LINE
  5
239
330
75
100
AcDbEntity
  8
0
 62
     0
100
AcDbLine
 10
367.4999999999999
 20
-1955.0
 30
0.0
 11
367.4999999999999
 21
-1955.0
 31
0.0
  0
LINE
  5
23A
330
75
100
AcDbEntity
  8
0
 62
     0
100
AcDbLine
 10
368.75
 20
-1955.0
 30
0.0
 11
368.75
 21
-1955.0
 31
0.0
  0
LINE
  5
23B
330
75
100
AcDbEntity
  8
0
 62
     0
100
AcDbLine
 10
369.9999999999999
 20
-1955.0
 30
0.0
 11
369.9999999999999
 21
-1955.0
 31
0.0
  0
LINE
  5
23C
330
75
100
AcDbEntity
  8
0
 62
     0
100
AcDbLine
 10
371.2499999999999
 20
-1955.0
 30
0.0
 11
371.2499999999999
 21
-1955.0
 31
0.0
  0
LINE
  5
23D
330
75
100
AcDbEntity
  8
0
 62
     0
100
AcDbLine
 10
372.5
 20
-1955.0
 30
0.0
 11
372.5
 21
-1955.0
 31
0.0
  0
LINE
  5
23E
330
75
100
AcDbEntity
  8
0
 62
     0
100
AcDbLine
 10
373.7499999999999
 20
-1955.0
 30
0.0
 11
373.7499999999999
 21
-1955.0
 31
0.0
  0
LINE
  5
23F
330
75
100
AcDbEntity
  8
0
 62
     0
100
AcDbLine
 10
375.0
 20
-1955.0
 30
0.0
 11
375.0
 21
-1955.0
 31
0.0
  0
LINE
  5
240
330
75
100
AcDbEntity
  8
0
 62
     0
100
AcDbLine
 10
376.2499999999999
 20
-1955.0
 30
0.0
 11
376.2499999999999
 21
-1955.0
 31
0.0
  0
LINE
  5
241
330
75
100
AcDbEntity
  8
0
 62
     0
100
AcDbLine
 10
377.4999999999999
 20
-1955.0
 30
0.0
 11
377.4999999999999
 21
-1955.0
 31
0.0
  0
LINE
  5
242
330
75
100
AcDbEntity
  8
0
 62
     0
100
AcDbLine
 10
351.2500000000001
 20
-1955.0
 30
0.0
 11
351.2500000000001
 21
-1955.0
 31
0.0
  0
LINE
  5
243
330
75
100
AcDbEntity
  8
0
 62
     0
100
AcDbLine
 10
352.5000000000001
 20
-1955.0
 30
0.0
 11
352.5000000000001
 21
-1955.0
 31
0.0
  0
LINE
  5
244
330
75
100
AcDbEntity
  8
0
 62
     0
100
AcDbLine
 10
353.7500000000001
 20
-1955.0
 30
0.0
 11
353.7500000000001
 21
-1955.0
 31
0.0
  0
LINE
  5
245
330
75
100
AcDbEntity
  8
0
 62
     0
100
AcDbLine
 10
355.0000000000001
 20
-1955.0
 30
0.0
 11
355.0000000000001
 21
-1955.0
 31
0.0
  0
LINE
  5
246
330
75
100
AcDbEntity
  8
0
 62
     0
100
AcDbLine
 10
356.2500000000001
 20
-1955.0
 30
0.0
 11
356.2500000000001
 21
-1955.0
 31
0.0
  0
LINE
  5
247
330
75
100
AcDbEntity
  8
0
 62
     0
100
AcDbLine
 10
357.5000000000001
 20
-1955.0
 30
0.0
 11
357.5000000000001
 21
-1955.0
 31
0.0
  0
LINE
  5
248
330
75
100
AcDbEntity
  8
0
 62
     0
100
AcDbLine
 10
358.7500000000001
 20
-1955.0
 30
0.0
 11
358.7500000000001
 21
-1955.0
 31
0.0
  0
LINE
  5
249
330
75
100
AcDbEntity
  8
0
 62
     0
100
AcDbLine
 10
360.0000000000001
 20
-1955.0
 30
0.0
 11
360.0000000000001
 21
-1955.0
 31
0.0
  0
LINE
  5
24A
330
75
100
AcDbEntity
  8
0
 62
     0
100
AcDbLine
 10
361.2500000000001
 20
-1955.0
 30
0.0
 11
361.2500000000001
 21
-1955.0
 31
0.0
  0
LINE
  5
24B
330
75
100
AcDbEntity
  8
0
 62
     0
100
AcDbLine
 10
362.5000000000001
 20
-1955.0
 30
0.0
 11
362.5000000000001
 21
-1955.0
 31
0.0
  0
LINE
  5
24C
330
75
100
AcDbEntity
  8
0
 62
     0
100
AcDbLine
 10
345.6249999999999
 20
-1956.25
 30
0.0
 11
345.6249999999999
 21
-1956.25
 31
0.0
  0
LINE
  5
24D
330
75
100
AcDbEntity
  8
0
 62
     0
100
AcDbLine
 10
346.8749999999999
 20
-1956.25
 30
0.0
 11
346.8749999999999
 21
-1956.25
 31
0.0
  0
LINE
  5
24E
330
75
100
AcDbEntity
  8
0
 62
     0
100
AcDbLine
 10
348.1249999999999
 20
-1956.25
 30
0.0
 11
348.1249999999999
 21
-1956.25
 31
0.0
  0
LINE
  5
24F
330
75
100
AcDbEntity
  8
0
 62
     0
100
AcDbLine
 10
349.3749999999999
 20
-1956.25
 30
0.0
 11
349.3749999999999
 21
-1956.25
 31
0.0
  0
LINE
  5
250
330
75
100
AcDbEntity
  8
0
 62
     0
100
AcDbLine
 10
365.625
 20
-1956.25
 30
0.0
 11
365.625
 21
-1956.25
 31
0.0
  0
LINE
  5
251
330
75
100
AcDbEntity
  8
0
 62
     0
100
AcDbLine
 10
366.875
 20
-1956.25
 30
0.0
 11
366.875
 21
-1956.25
 31
0.0
  0
LINE
  5
252
330
75
100
AcDbEntity
  8
0
 62
     0
100
AcDbLine
 10
368.125
 20
-1956.25
 30
0.0
 11
368.125
 21
-1956.25
 31
0.0
  0
LINE
  5
253
330
75
100
AcDbEntity
  8
0
 62
     0
100
AcDbLine
 10
369.375
 20
-1956.25
 30
0.0
 11
369.375
 21
-1956.25
 31
0.0
  0
LINE
  5
254
330
75
100
AcDbEntity
  8
0
 62
     0
100
AcDbLine
 10
370.625
 20
-1956.25
 30
0.0
 11
370.625
 21
-1956.25
 31
0.0
  0
LINE
  5
255
330
75
100
AcDbEntity
  8
0
 62
     0
100
AcDbLine
 10
371.875
 20
-1956.25
 30
0.0
 11
371.875
 21
-1956.25
 31
0.0
  0
LINE
  5
256
330
75
100
AcDbEntity
  8
0
 62
     0
100
AcDbLine
 10
373.125
 20
-1956.25
 30
0.0
 11
373.125
 21
-1956.25
 31
0.0
  0
LINE
  5
257
330
75
100
AcDbEntity
  8
0
 62
     0
100
AcDbLine
 10
374.375
 20
-1956.25
 30
0.0
 11
374.375
 21
-1956.25
 31
0.0
  0
LINE
  5
258
330
75
100
AcDbEntity
  8
0
 62
     0
100
AcDbLine
 10
375.625
 20
-1956.25
 30
0.0
 11
375.625
 21
-1956.25
 31
0.0
  0
LINE
  5
259
330
75
100
AcDbEntity
  8
0
 62
     0
100
AcDbLine
 10
351.8749999999999
 20
-1956.25
 30
0.0
 11
351.8749999999999
 21
-1956.25
 31
0.0
  0
LINE
  5
25A
330
75
100
AcDbEntity
  8
0
 62
     0
100
AcDbLine
 10
353.125
 20
-1956.25
 30
0.0
 11
353.125
 21
-1956.25
 31
0.0
  0
LINE
  5
25B
330
75
100
AcDbEntity
  8
0
 62
     0
100
AcDbLine
 10
354.3749999999999
 20
-1956.25
 30
0.0
 11
354.3749999999999
 21
-1956.25
 31
0.0
  0
LINE
  5
25C
330
75
100
AcDbEntity
  8
0
 62
     0
100
AcDbLine
 10
355.6249999999999
 20
-1956.25
 30
0.0
 11
355.6249999999999
 21
-1956.25
 31
0.0
  0
LINE
  5
25D
330
75
100
AcDbEntity
  8
0
 62
     0
100
AcDbLine
 10
356.875
 20
-1956.25
 30
0.0
 11
356.875
 21
-1956.25
 31
0.0
  0
LINE
  5
25E
330
75
100
AcDbEntity
  8
0
 62
     0
100
AcDbLine
 10
358.1249999999999
 20
-1956.25
 30
0.0
 11
358.1249999999999
 21
-1956.25
 31
0.0
  0
LINE
  5
25F
330
75
100
AcDbEntity
  8
0
 62
     0
100
AcDbLine
 10
359.375
 20
-1956.25
 30
0.0
 11
359.375
 21
-1956.25
 31
0.0
  0
LINE
  5
260
330
75
100
AcDbEntity
  8
0
 62
     0
100
AcDbLine
 10
360.6249999999999
 20
-1956.25
 30
0.0
 11
360.6249999999999
 21
-1956.25
 31
0.0
  0
LINE
  5
261
330
75
100
AcDbEntity
  8
0
 62
     0
100
AcDbLine
 10
343.75
 20
-1957.5
 30
0.0
 11
343.75
 21
-1957.5
 31
0.0
  0
LINE
  5
262
330
75
100
AcDbEntity
  8
0
 62
     0
100
AcDbLine
 10
345.0000000000001
 20
-1957.5
 30
0.0
 11
345.0000000000001
 21
-1957.5
 31
0.0
  0
LINE
  5
263
330
75
100
AcDbEntity
  8
0
 62
     0
100
AcDbLine
 10
346.2500000000001
 20
-1957.5
 30
0.0
 11
346.2500000000001
 21
-1957.5
 31
0.0
  0
LINE
  5
264
330
75
100
AcDbEntity
  8
0
 62
     0
100
AcDbLine
 10
347.5
 20
-1957.5
 30
0.0
 11
347.5
 21
-1957.5
 31
0.0
  0
LINE
  5
265
330
75
100
AcDbEntity
  8
0
 62
     0
100
AcDbLine
 10
348.7500000000001
 20
-1957.5
 30
0.0
 11
348.7500000000001
 21
-1957.5
 31
0.0
  0
LINE
  5
266
330
75
100
AcDbEntity
  8
0
 62
     0
100
AcDbLine
 10
370.0000000000001
 20
-1957.5
 30
0.0
 11
370.0000000000001
 21
-1957.5
 31
0.0
  0
LINE
  5
267
330
75
100
AcDbEntity
  8
0
 62
     0
100
AcDbLine
 10
371.2500000000001
 20
-1957.5
 30
0.0
 11
371.2500000000001
 21
-1957.5
 31
0.0
  0
LINE
  5
268
330
75
100
AcDbEntity
  8
0
 62
     0
100
AcDbLine
 10
372.5
 20
-1957.5
 30
0.0
 11
372.5
 21
-1957.5
 31
0.0
  0
LINE
  5
269
330
75
100
AcDbEntity
  8
0
 62
     0
100
AcDbLine
 10
373.7500000000001
 20
-1957.5
 30
0.0
 11
373.7500000000001
 21
-1957.5
 31
0.0
  0
LINE
  5
26A
330
75
100
AcDbEntity
  8
0
 62
     0
100
AcDbLine
 10
375.0
 20
-1957.5
 30
0.0
 11
375.0
 21
-1957.5
 31
0.0
  0
LINE
  5
26B
330
75
100
AcDbEntity
  8
0
 62
     0
100
AcDbLine
 10
351.25
 20
-1957.5
 30
0.0
 11
351.25
 21
-1957.5
 31
0.0
  0
LINE
  5
26C
330
75
100
AcDbEntity
  8
0
 62
     0
100
AcDbLine
 10
352.5
 20
-1957.5
 30
0.0
 11
352.5
 21
-1957.5
 31
0.0
  0
LINE
  5
26D
330
75
100
AcDbEntity
  8
0
 62
     0
100
AcDbLine
 10
353.75
 20
-1957.5
 30
0.0
 11
353.75
 21
-1957.5
 31
0.0
  0
LINE
  5
26E
330
75
100
AcDbEntity
  8
0
 62
     0
100
AcDbLine
 10
355.0
 20
-1957.5
 30
0.0
 11
355.0
 21
-1957.5
 31
0.0
  0
LINE
  5
26F
330
75
100
AcDbEntity
  8
0
 62
     0
100
AcDbLine
 10
356.25
 20
-1957.5
 30
0.0
 11
356.25
 21
-1957.5
 31
0.0
  0
LINE
  5
270
330
75
100
AcDbEntity
  8
0
 62
     0
100
AcDbLine
 10
357.5
 20
-1957.5
 30
0.0
 11
357.5
 21
-1957.5
 31
0.0
  0
LINE
  5
271
330
75
100
AcDbEntity
  8
0
 62
     0
100
AcDbLine
 10
358.75
 20
-1957.5
 30
0.0
 11
358.75
 21
-1957.5
 31
0.0
  0
LINE
  5
272
330
75
100
AcDbEntity
  8
0
 62
     0
100
AcDbLine
 10
360.0
 20
-1957.5
 30
0.0
 11
360.0
 21
-1957.5
 31
0.0
  0
LINE
  5
273
330
75
100
AcDbEntity
  8
0
 62
     0
100
AcDbLine
 10
366.25
 20
-1957.5
 30
0.0
 11
366.25
 21
-1957.5
 31
0.0
  0
LINE
  5
274
330
75
100
AcDbEntity
  8
0
 62
     0
100
AcDbLine
 10
367.5
 20
-1957.5
 30
0.0
 11
367.5
 21
-1957.5
 31
0.0
  0
LINE
  5
275
330
75
100
AcDbEntity
  8
0
 62
     0
100
AcDbLine
 10
368.75
 20
-1957.5
 30
0.0
 11
368.75
 21
-1957.5
 31
0.0
  0
LINE
  5
276
330
75
100
AcDbEntity
  8
0
 62
     0
100
AcDbLine
 10
344.375
 20
-1958.75
 30
0.0
 11
344.375
 21
-1958.75
 31
0.0
  0
LINE
  5
277
330
75
100
AcDbEntity
  8
0
 62
     0
100
AcDbLine
 10
345.6250000000001
 20
-1958.75
 30
0.0
 11
345.6250000000001
 21
-1958.75
 31
0.0
  0
LINE
  5
278
330
75
100
AcDbEntity
  8
0
 62
     0
100
AcDbLine
 10
346.875
 20
-1958.75
 30
0.0
 11
346.875
 21
-1958.75
 31
0.0
  0
LINE
  5
279
330
75
100
AcDbEntity
  8
0
 62
     0
100
AcDbLine
 10
373.1250000000001
 20
-1958.75
 30
0.0
 11
373.1250000000001
 21
-1958.75
 31
0.0
  0
LINE
  5
27A
330
75
100
AcDbEntity
  8
0
 62
     0
100
AcDbLine
 10
374.3750000000001
 20
-1958.75
 30
0.0
 11
374.3750000000001
 21
-1958.75
 31
0.0
  0
LINE
  5
27B
330
75
100
AcDbEntity
  8
0
 62
     0
100
AcDbLine
 10
350.625
 20
-1958.75
 30
0.0
 11
350.625
 21
-1958.75
 31
0.0
  0
LINE
  5
27C
330
75
100
AcDbEntity
  8
0
 62
     0
100
AcDbLine
 10
351.8750000000001
 20
-1958.75
 30
0.0
 11
351.8750000000001
 21
-1958.75
 31
0.0
  0
LINE
  5
27D
330
75
100
AcDbEntity
  8
0
 62
     0
100
AcDbLine
 10
353.125
 20
-1958.75
 30
0.0
 11
353.125
 21
-1958.75
 31
0.0
  0
LINE
  5
27E
330
75
100
AcDbEntity
  8
0
 62
     0
100
AcDbLine
 10
354.3750000000001
 20
-1958.75
 30
0.0
 11
354.3750000000001
 21
-1958.75
 31
0.0
  0
LINE
  5
27F
330
75
100
AcDbEntity
  8
0
 62
     0
100
AcDbLine
 10
355.6250000000001
 20
-1958.75
 30
0.0
 11
355.6250000000001
 21
-1958.75
 31
0.0
  0
LINE
  5
280
330
75
100
AcDbEntity
  8
0
 62
     0
100
AcDbLine
 10
356.875
 20
-1958.75
 30
0.0
 11
356.875
 21
-1958.75
 31
0.0
  0
LINE
  5
281
330
75
100
AcDbEntity
  8
0
 62
     0
100
AcDbLine
 10
358.1250000000001
 20
-1958.75
 30
0.0
 11
358.1250000000001
 21
-1958.75
 31
0.0
  0
LINE
  5
282
330
75
100
AcDbEntity
  8
0
 62
     0
100
AcDbLine
 10
359.375
 20
-1958.75
 30
0.0
 11
359.375
 21
-1958.75
 31
0.0
  0
LINE
  5
283
330
75
100
AcDbEntity
  8
0
 62
     0
100
AcDbLine
 10
363.125
 20
-1958.75
 30
0.0
 11
363.125
 21
-1958.75
 31
0.0
  0
LINE
  5
284
330
75
100
AcDbEntity
  8
0
 62
     0
100
AcDbLine
 10
362.4999999999999
 20
-1960.0
 30
0.0
 11
362.4999999999999
 21
-1960.0
 31
0.0
  0
LINE
  5
285
330
75
100
AcDbEntity
  8
0
 62
     0
100
AcDbLine
 10
363.7499999999999
 20
-1960.0
 30
0.0
 11
363.7499999999999
 21
-1960.0
 31
0.0
  0
LINE
  5
286
330
75
100
AcDbEntity
  8
0
 62
     0
100
AcDbLine
 10
351.2500000000001
 20
-1960.0
 30
0.0
 11
351.2500000000001
 21
-1960.0
 31
0.0
  0
LINE
  5
287
330
75
100
AcDbEntity
  8
0
 62
     0
100
AcDbLine
 10
352.5000000000001
 20
-1960.0
 30
0.0
 11
352.5000000000001
 21
-1960.0
 31
0.0
  0
LINE
  5
288
330
75
100
AcDbEntity
  8
0
 62
     0
100
AcDbLine
 10
353.7500000000001
 20
-1960.0
 30
0.0
 11
353.7500000000001
 21
-1960.0
 31
0.0
  0
LINE
  5
289
330
75
100
AcDbEntity
  8
0
 62
     0
100
AcDbLine
 10
355.0000000000001
 20
-1960.0
 30
0.0
 11
355.0000000000001
 21
-1960.0
 31
0.0
  0
LINE
  5
28A
330
75
100
AcDbEntity
  8
0
 62
     0
100
AcDbLine
 10
356.2500000000001
 20
-1960.0
 30
0.0
 11
356.2500000000001
 21
-1960.0
 31
0.0
  0
LINE
  5
28B
330
75
100
AcDbEntity
  8
0
 62
     0
100
AcDbLine
 10
357.5000000000001
 20
-1960.0
 30
0.0
 11
357.5000000000001
 21
-1960.0
 31
0.0
  0
LINE
  5
28C
330
75
100
AcDbEntity
  8
0
 62
     0
100
AcDbLine
 10
358.7500000000001
 20
-1960.0
 30
0.0
 11
358.7500000000001
 21
-1960.0
 31
0.0
  0
LINE
  5
28D
330
75
100
AcDbEntity
  8
0
 62
     0
100
AcDbLine
 10
336.8750000000001
 20
-1961.25
 30
0.0
 11
336.8750000000001
 21
-1961.25
 31
0.0
  0
LINE
  5
28E
330
75
100
AcDbEntity
  8
0
 62
     0
100
AcDbLine
 10
338.125
 20
-1961.25
 30
0.0
 11
338.125
 21
-1961.25
 31
0.0
  0
LINE
  5
28F
330
75
100
AcDbEntity
  8
0
 62
     0
100
AcDbLine
 10
350.625
 20
-1961.25
 30
0.0
 11
350.625
 21
-1961.25
 31
0.0
  0
LINE
  5
290
330
75
100
AcDbEntity
  8
0
 62
     0
100
AcDbLine
 10
351.8749999999999
 20
-1961.25
 30
0.0
 11
351.8749999999999
 21
-1961.25
 31
0.0
  0
LINE
  5
291
330
75
100
AcDbEntity
  8
0
 62
     0
100
AcDbLine
 10
353.125
 20
-1961.25
 30
0.0
 11
353.125
 21
-1961.25
 31
0.0
  0
LINE
  5
292
330
75
100
AcDbEntity
  8
0
 62
     0
100
AcDbLine
 10
354.3749999999999
 20
-1961.25
 30
0.0
 11
354.3749999999999
 21
-1961.25
 31
0.0
  0
LINE
  5
293
330
75
100
AcDbEntity
  8
0
 62
     0
100
AcDbLine
 10
355.6249999999999
 20
-1961.25
 30
0.0
 11
355.6249999999999
 21
-1961.25
 31
0.0
  0
LINE
  5
294
330
75
100
AcDbEntity
  8
0
 62
     0
100
AcDbLine
 10
356.875
 20
-1961.25
 30
0.0
 11
356.875
 21
-1961.25
 31
0.0
  0
LINE
  5
295
330
75
100
AcDbEntity
  8
0
 62
     0
100
AcDbLine
 10
358.1249999999999
 20
-1961.25
 30
0.0
 11
358.1249999999999
 21
-1961.25
 31
0.0
  0
LINE
  5
296
330
75
100
AcDbEntity
  8
0
 62
     0
100
AcDbLine
 10
337.4999999999999
 20
-1962.5
 30
0.0
 11
337.4999999999999
 21
-1962.5
 31
0.0
  0
LINE
  5
297
330
75
100
AcDbEntity
  8
0
 62
     0
100
AcDbLine
 10
350.0
 20
-1962.5
 30
0.0
 11
350.0
 21
-1962.5
 31
0.0
  0
LINE
  5
298
330
75
100
AcDbEntity
  8
0
 62
     0
100
AcDbLine
 10
351.2499999999999
 20
-1962.5
 30
0.0
 11
351.2499999999999
 21
-1962.5
 31
0.0
  0
LINE
  5
299
330
75
100
AcDbEntity
  8
0
 62
     0
100
AcDbLine
 10
352.4999999999999
 20
-1962.5
 30
0.0
 11
352.4999999999999
 21
-1962.5
 31
0.0
  0
LINE
  5
29A
330
75
100
AcDbEntity
  8
0
 62
     0
100
AcDbLine
 10
353.75
 20
-1962.5
 30
0.0
 11
353.75
 21
-1962.5
 31
0.0
  0
LINE
  5
29B
330
75
100
AcDbEntity
  8
0
 62
     0
100
AcDbLine
 10
354.9999999999999
 20
-1962.5
 30
0.0
 11
354.9999999999999
 21
-1962.5
 31
0.0
  0
LINE
  5
29C
330
75
100
AcDbEntity
  8
0
 62
     0
100
AcDbLine
 10
356.25
 20
-1962.5
 30
0.0
 11
356.25
 21
-1962.5
 31
0.0
  0
LINE
  5
29D
330
75
100
AcDbEntity
  8
0
 62
     0
100
AcDbLine
 10
349.3749999999999
 20
-1963.75
 30
0.0
 11
349.3749999999999
 21
-1963.75
 31
0.0
  0
LINE
  5
29E
330
75
100
AcDbEntity
  8
0
 62
     0
100
AcDbLine
 10
350.6249999999999
 20
-1963.75
 30
0.0
 11
350.6249999999999
 21
-1963.75
 31
0.0
  0
LINE
  5
29F
330
75
100
AcDbEntity
  8
0
 62
     0
100
AcDbLine
 10
351.8749999999999
 20
-1963.75
 30
0.0
 11
351.8749999999999
 21
-1963.75
 31
0.0
  0
LINE
  5
2A0
330
75
100
AcDbEntity
  8
0
 62
     0
100
AcDbLine
 10
353.1249999999999
 20
-1963.75
 30
0.0
 11
353.1249999999999
 21
-1963.75
 31
0.0
  0
LINE
  5
2A1
330
75
100
AcDbEntity
  8
0
 62
     0
100
AcDbLine
 10
354.3749999999999
 20
-1963.75
 30
0.0
 11
354.3749999999999
 21
-1963.75
 31
0.0
  0
LINE
  5
2A2
330
75
100
AcDbEntity
  8
0
 62
     0
100
AcDbLine
 10
352.4999999999999
 20
-1965.0
 30
0.0
 11
352.4999999999999
 21
-1965.0
 31
0.0
  0
LINE
  5
2A3
330
75
100
AcDbEntity
  8
0
 62
     0
100
AcDbLine
 10
353.75
 20
-1965.0
 30
0.0
 11
353.75
 21
-1965.0
 31
0.0
  0
ENDBLK
  5
2A4
330
75
100
AcDbEntity
  8
0
100
AcDbBlockEnd
  0
BLOCK
  5
2A5
330
76
100
AcDbEntity
  8
0
100
AcDbBlockBegin
  2
*X3
 70
     1
 10
0.0
 20
0.0
 30
0.0
  3
*X3
  1

  0
LINE
  5
2A6
330
76
100
AcDbEntity
  8
0
 62
     0
100
AcDbLine
 10
365.3390765888558
 20
-1877.957186725466
 30
0.0
 11
366.6729781698067
 21
-1876.623285144515
 31
0.0
  0
LINE
  5
2A7
330
76
100
AcDbEntity
  8
0
 62
     0
100
AcDbLine
 10
364.0138469829427
 20
-1877.514649378413
 30
0.0
 11
366.2269778456779
 21
-1875.301518515678
 31
0.0
  0
LINE
  5
2A8
330
76
100
AcDbEntity
  8
0
 62
     0
100
AcDbLine
 10
362.6851847239098
 20
-1877.075544684479
 30
0.0
 11
365.7809775215491
 21
-1873.97975188684
 31
0.0
  0
LINE
  5
2A9
330
76
100
AcDbEntity
  8
0
 62
     0
100
AcDbLine
 10
361.3557484273168
 20
-1876.637214028106
 30
0.0
 11
365.1402451341144
 21
-1872.852717321308
 31
0.0
  0
LINE
  5
2AA
330
76
100
AcDbEntity
  8
0
 62
     0
100
AcDbLine
 10
341.2971297754247
 20
-1894.928065727032
 30
0.0
 11
346.4447540758487
 21
-1889.780441426608
 31
0.0
  0
LINE
  5
2AB
330
76
100
AcDbEntity
  8
0
 62
     0
100
AcDbLine
 10
360.0263121307238
 20
-1876.198883371732
 30
0.0
 11
364.2989290555318
 21
-1871.926266446925
 31
0.0
  0
LINE
  5
2AC
330
76
100
AcDbEntity
  8
0
 62
     0
100
AcDbLine
 10
340.3276856513011
 20
-1894.129742898189
 30
0.0
 11
346.5405173448829
 21
-1887.916911204607
 31
0.0
  0
LINE
  5
2AD
330
76
100
AcDbEntity
  8
0
 62
     0
100
AcDbLine
 10
360.0245335173308
 20
-1874.432895032159
 30
0.0
 11
363.385717369887
 21
-1871.071711179603
 31
0.0
  0
LINE
  5
2AE
330
76
100
AcDbEntity
  8
0
 62
     0
100
AcDbLine
 10
347.4901921227814
 20
-1886.967236426708
 30
0.0
 11
348.0516087135663
 21
-1886.405819835924
 31
0.0
  0
LINE
  5
2AF
330
76
100
AcDbEntity
  8
0
 62
     0
100
AcDbLine
 10
339.3582415271774
 20
-1893.331420069346
 30
0.0
 11
348.4151062350495
 21
-1884.274555361474
 31
0.0
  0
LINE
  5
2B0
330
76
100
AcDbEntity
  8
0
 62
     0
100
AcDbLine
 10
360.3751273116823
 20
-1872.314534284841
 30
0.0
 11
361.5558390424376
 21
-1871.133822554086
 31
0.0
  0
LINE
  5
2B1
330
76
100
AcDbEntity
  8
0
 62
     0
100
AcDbLine
 10
338.1911471244831
 20
-1892.730747519074
 30
0.0
 11
348.7786037565326
 21
-1882.143290887024
 31
0.0
  0
LINE
  5
2B2
330
76
100
AcDbEntity
  8
0
 62
     0
100
AcDbLine
 10
336.8863040947374
 20
-1892.267823595853
 30
0.0
 11
348.1480068719625
 21
-1881.006120818628
 31
0.0
  0
LINE
  5
2B3
330
76
100
AcDbEntity
  8
0
 62
     0
100
AcDbLine
 10
336.1685123680977
 20
-1891.217848369527
 30
0.0
 11
347.0365327198964
 21
-1880.349828017728
 31
0.0
  0
LINE
  5
2B4
330
76
100
AcDbEntity
  8
0
 62
     0
100
AcDbLine
 10
335.6832872493523
 20
-1889.935306535306
 30
0.0
 11
346.3779102769515
 21
-1879.240683507706
 31
0.0
  0
LINE
  5
2B5
330
76
100
AcDbEntity
  8
0
 62
     0
100
AcDbLine
 10
335.1980621306071
 20
-1888.652764701085
 30
0.0
 11
345.5242802710096
 21
-1878.326546560682
 31
0.0
  0
LINE
  5
2B6
330
76
100
AcDbEntity
  8
0
 62
     0
100
AcDbLine
 10
334.7128370118618
 20
-1887.370222866864
 30
0.0
 11
341.648856241251
 21
-1880.434203637474
 31
0.0
  0
LINE
  5
2B7
330
76
100
AcDbEntity
  8
0
 62
     0
100
AcDbLine
 10
335.2879335463657
 20
-1885.027359379393
 30
0.0
 11
339.8930716444939
 21
-1880.422221281265
 31
0.0
  0
LINE
  5
2B8
330
76
100
AcDbEntity
  8
0
 62
     0
100
AcDbLine
 10
335.9268562526042
 20
-1882.620669720188
 30
0.0
 11
339.0277034255777
 21
-1879.519822547215
 31
0.0
  0
LINE
  5
2B9
330
76
100
AcDbEntity
  8
0
 62
     0
100
AcDbLine
 10
336.5657789588427
 20
-1880.213980060984
 30
0.0
 11
337.2035170474783
 21
-1879.576241972348
 31
0.0
  0
LINE
  5
2BA
330
76
100
AcDbEntity
  8
0
 62
     0
100
AcDbLine
 10
383.8829900402751
 20
-1870.019874991845
 30
0.0
 11
384.2705102044058
 21
-1869.632354827714
 31
0.0
  0
LINE
  5
2BB
330
76
100
AcDbEntity
  8
0
 62
     0
100
AcDbLine
 10
384.9498239402525
 20
-1870.720808044834
 30
0.0
 11
386.5431970815639
 21
-1869.127434903522
 31
0.0
  0
LINE
  5
2BC
330
76
100
AcDbEntity
  8
0
 62
     0
100
AcDbLine
 10
381.5460304212534
 20
-1881.195669375698
 30
0.0
 11
384.5393301373498
 21
-1878.202369659602
 31
0.0
  0
LINE
  5
2BD
330
76
100
AcDbEntity
  8
0
 62
     0
100
AcDbLine
 10
382.1037312008855
 20
-1882.405735549033
 30
0.0
 11
386.7152054819148
 21
-1877.794261268004
 31
0.0
  0
LINE
  5
2BE
330
76
100
AcDbEntity
  8
0
 62
     0
100
AcDbLine
 10
383.0446369029068
 20
-1883.232596799978
 30
0.0
 11
388.3827136324028
 21
-1877.894520070482
 31
0.0
  0
LINE
  5
2BF
330
76
100
AcDbEntity
  8
0
 62
     0
100
AcDbLine
 10
384.2011986636549
 20
-1883.843801992196
 30
0.0
 11
389.5835706345561
 21
-1878.461430021295
 31
0.0
  0
LINE
  5
2C0
330
76
100
AcDbEntity
  8
0
 62
     0
100
AcDbLine
 10
385.3577604244029
 20
-1884.455007184415
 30
0.0
 11
390.7844276367093
 21
-1879.028339972108
 31
0.0
  0
LINE
  5
2C1
330
76
100
AcDbEntity
  8
0
 62
     0
100
AcDbLine
 10
388.5433834111648
 20
-1883.037151150619
 30
0.0
 11
390.9549841316864
 21
-1880.625550430097
 31
0.0
  0
LINE
  5
2C2
330
76
100
AcDbEntity
  8
0
 62
     0
100
AcDbLine
 10
397.0111650564771
 20
-1874.569369505307
 30
0.0
 11
397.5477084244047
 21
-1874.032826137379
 31
0.0
  0
LINE
  5
2C3
330
76
100
AcDbEntity
  8
0
 62
     0
100
AcDbLine
 10
394.988655319412
 20
-1878.359646195338
 30
0.0
 11
398.5620505638006
 21
-1874.786250950949
 31
0.0
  0
LINE
  5
2C4
330
76
100
AcDbEntity
  8
0
 62
     0
100
AcDbLine
 10
395.9939681111763
 20
-1879.12210035654
 30
0.0
 11
398.6890019399699
 21
-1876.427066527747
 31
0.0
  0
ENDBLK
  5
2C5
330
76
100
AcDbEntity
  8
0
100
AcDbBlockEnd
  0
ENDSEC
  0
SECTION
  2
ENTITIES
  0
LWPOLYLINE
  5
2C6
330
6F
100
AcDbEntity
  8
STEINE
100
AcDbPolyline
 90
        5
 70
     0
 43
0.0
 10
3.360710157626319
 20
-19.6190640955108
 10
3.368342360930585
 20
-19.63179999579842
 10
3.392793696722922
 20
-19.62009993866502
 10
3.382111632848459
 20
-19.59666769458671
 10
3.360710157626319
 20
-19.6190640955108
  0
LWPOLYLINE
  5
2CD
330
6F
100
AcDbEntity
  8
STEINE
100
AcDbPolyline
 90
        6
 70
     0
 43
0.0
 10
3.507409384739584
 20
-19.56516043249412
 10
3.487027825072792
 20
-19.58501102642955
 10
3.446789629967548
 20
-19.59568402804949
 10
3.433562857559525
 20
-19.56919478344287
 10
3.482975624228761
 20
-19.54426713006013
 10
3.507409384739584
 20
-19.56516043249412
  0
LWPOLYLINE
  5
2D5
330
6F
100
AcDbEntity
  8
STEINE
100
AcDbPolyline
 90
       16
 70
     0
 43
0.0
 10
3.507409384739584
 20
-19.56516043249412
 10
3.504332886633343
 20
-19.60386339929776
 10
3.490561967032827
 20
-19.6420513279689
 10
3.537408605294156
 20
-19.65378983103061
 10
3.592946082957186
 20
-19.60391118209437
 10
3.621490262432056
 20
-19.55758287733081
 10
3.653095012414294
 20
-19.50208933787157
 10
3.655669104621635
 20
-19.45065431537314
 10
3.621548205938296
 20
-19.45012664500707
 10
3.573691812831242
 20
-19.42209091293412
 10
3.542111228861086
 20
-19.4327685829882
 10
3.512042805635553
 20
-19.47247553774832
 10
3.488099368017588
 20
-19.48672222571169
 10
3.491657675989704
 20
-19.49894665784588
 10
3.515591502125591
 20
-19.50252446339592
 10
3.507409384739584
 20
-19.56516043249412
  0
LWPOLYLINE
  5
2E7
330
6F
100
AcDbEntity
  8
STEINE
100
AcDbPolyline
 90
        9
 70
     0
 43
0.0
 10
3.729517828711883
 20
-19.44254579447848
 10
3.687717218541436
 20
-19.51738614890539
 10
3.651024424560946
 20
-19.56421933109181
 10
3.654071538993405
 20
-19.58000838731491
 10
3.692269628374178
 20
-19.57493627091553
 10
3.741659876713974
 20
-19.5917688594785
 10
3.829312474057577
 20
-19.48435986072383
 10
3.742249060565348
 20
-19.4435712023093
 10
3.729517828711883
 20
-19.44254579447848
  0
LWPOLYLINE
  5
2F2
330
6F
100
AcDbEntity
  8
STEINE
100
AcDbPolyline
 90
        6
 70
     0
 43
0.0
 10
3.643359267603841
 20
-19.61259597999305
 10
3.618407722822795
 20
-19.60748981148574
 10
3.619437249860222
 20
-19.58711951098366
 10
3.631154333047584
 20
-19.57999602969509
 10
3.642860157070226
 20
-19.59375266937938
 10
3.643359267603841
 20
-19.61259597999305
  0
LWPOLYLINE
  5
2FA
330
6F
100
AcDbEntity
  8
STEINE
100
AcDbPolyline
 90
        8
 70
     0
 43
0.0
 10
3.702519312862023
 20
-19.45577229227273
 10
3.641435323505625
 20
-19.40277512932288
 10
3.648581597737411
 20
-19.37222269932128
 10
3.668956566673635
 20
-19.36459461522362
 10
3.711719423506963
 20
-19.39415541488856
 10
3.729541445496417
 20
-19.3987484675598
 10
3.739203593815529
 20
-19.42472651862676
 10
3.702519312862023
 20
-19.45577229227273
  0
LWPOLYLINE
  5
304
330
6F
100
AcDbEntity
  8
STEINE
100
AcDbPolyline
 90
        6
 70
     0
 43
0.0
 10
3.645550136290049
 20
-19.32740518223348
 10
3.646067920560273
 20
-19.31161804830679
 10
3.677131818715301
 20
-19.31469042720643
 10
3.690366829536533
 20
-19.32590153451584
 10
3.676102840905421
 20
-19.33404218522202
 10
3.645550136290049
 20
-19.32740518223348
  0
LWPOLYLINE
  5
30C
330
6F
100
AcDbEntity
  8
STEINE
100
AcDbPolyline
 90
        6
 70
     0
 43
0.0
 10
3.560510626309646
 20
-19.31106264194958
 10
3.552373820196293
 20
-19.2896688559131
 10
3.602804580124462
 20
-19.26576029424439
 10
3.621135873357156
 20
-19.27035362152941
 10
3.598707068007777
 20
-19.30904615300964
 10
3.560510626309646
 20
-19.31106264194958
  0
LWPOLYLINE
  5
314
330
6F
100
AcDbEntity
  8
STEINE
100
AcDbPolyline
 90
        5
 70
     0
 43
0.0
 10
3.638961465325667
 20
-19.26832614803853
 10
3.597726147608287
 20
-19.23927544345815
 10
3.667496857159779
 20
-19.23829452305866
 10
3.659332864282834
 20
-19.26731859010299
 10
3.638961465325667
 20
-19.26832614803853
  0
LWPOLYLINE
  5
31B
330
6F
100
AcDbEntity
  8
STEINE
100
AcDbPolyline
 90
        7
 70
     0
 43
0.0
 10
3.488261390144044
 20
-19.18625219219981
 10
3.503028333901602
 20
-19.18982505470193
 10
3.49537306304035
 20
-19.21986793884651
 10
3.459203270991782
 20
-19.24123783348468
 10
3.440871977759087
 20
-19.23664450619966
 10
3.454640425835642
 20
-19.20304001871768
 10
3.488261390144044
 20
-19.18625219219981
  0
LWPOLYLINE
  5
324
330
6F
100
AcDbEntity
  8
STEINE
100
AcDbPolyline
 90
        8
 70
     0
 43
0.0
 10
3.616611748743101
 20
-19.1603485614655
 10
3.550427083154863
 20
-19.12211751843189
 10
3.562157897030907
 20
-19.0895304749813
 10
3.601894784692347
 20
-19.06408833269362
 10
3.628370298610285
 20
-19.07632512244762
 10
3.645164441244953
 20
-19.09823284816149
 10
3.649219388226721
 20
-19.13388403209851
 10
3.616611748743101
 20
-19.1603485614655
  0
LWPOLYLINE
  5
32E
330
6F
100
AcDbEntity
  8
STEINE
100
AcDbPolyline
 90
        6
 70
     0
 43
0.0
 10
3.56782578801223
 20
-18.96730839735509
 10
3.521991376120586
 20
-18.96728368211546
 10
3.508757738368223
 20
-18.95352621858985
 10
3.521495560952255
 20
-18.9423291165829
 10
3.581081394866486
 20
-18.94032416142146
 10
3.56782578801223
 20
-18.96730839735509
  0
LWPOLYLINE
  5
336
330
6F
100
AcDbEntity
  8
STEINE
100
AcDbPolyline
 90
       17
 70
     0
 43
0.0
 10
3.488971129442051
 20
-18.81448445924803
 10
3.469115867072467
 20
-18.80276051071633
 10
3.460976040207603
 20
-18.78696870835549
 10
3.445194123942621
 20
-18.7767747704637
 10
3.429393259327257
 20
-18.8017205483555
 10
3.401889591440761
 20
-18.80730770288737
 10
3.389673946947331
 20
-18.79456933107579
 10
3.367265188403429
 20
-18.79608506179947
 10
3.346852871993988
 20
-18.87297403497784
 10
3.365160548442148
 20
-18.92136468918153
 10
3.389600899683539
 20
-18.93003548177776
 10
3.421161711461992
 20
-18.95602534123699
 10
3.431861350617968
 20
-18.94686422574791
 10
3.463966858816463
 20
-18.90715836944289
 10
3.46551087475883
 20
-18.87711218993302
 10
3.480286056929598
 20
-18.86540691513793
 10
3.488971129442051
 20
-18.81448445924803
  0
LWPOLYLINE
  5
349
330
6F
100
AcDbEntity
  8
STEINE
100
AcDbPolyline
 90
        7
 70
     0
 43
0.0
 10
3.785801569304816
 20
-18.95316633723948
 10
3.726729675067979
 20
-18.94651395587961
 10
3.737446065664147
 20
-18.90628729455286
 10
3.776674505923667
 20
-18.87931706392168
 10
3.79755105691747
 20
-18.88594884924853
 10
3.818927267672434
 20
-18.91040540270257
 10
3.785801569304816
 20
-18.95316633723948
  0
LWPOLYLINE
  5
352
330
6F
100
AcDbEntity
  8
STEINE
100
AcDbPolyline
 90
        6
 70
     0
 43
0.0
 10
3.873836017100685
 20
-19.08205946996217
 10
3.847369290823504
 20
-19.05352600042447
 10
3.871311629986374
 20
-19.04131639743406
 10
3.903378966870332
 20
-19.07239924393947
 10
3.890131323815511
 20
-19.08461461381912
 10
3.873836017100685
 20
-19.08205946996217
  0
LWPOLYLINE
  5
35A
330
6F
100
AcDbEntity
  8
STEINE
100
AcDbPolyline
 90
        6
 70
     0
 43
0.0
 10
3.884581516756861
 20
-18.98785005685192
 10
3.869829951370627
 20
-18.95575800472833
 10
3.88562395064165
 20
-18.94354400791755
 10
3.907013617471523
 20
-18.9430462704528
 10
3.907506961115892
 20
-18.97258427717452
 10
3.884581516756861
 20
-18.98785005685192
  0
LWPOLYLINE
  5
362
330
6F
100
AcDbEntity
  8
STEINE
100
AcDbPolyline
 90
        6
 70
     0
 43
0.0
 10
3.872428484203824
 20
-18.85899784158151
 10
3.851542596341717
 20
-18.86968127852484
 10
3.845924410453426
 20
-18.89972526112453
 10
3.873419290699166
 20
-18.91043478637635
 10
3.892279078139256
 20
-18.87937940124831
 10
3.872428484203824
 20
-18.85899784158151
  0
LWPOLYLINE
  5
36A
330
6F
100
AcDbEntity
  8
STEINE
100
AcDbPolyline
 90
        5
 70
     0
 43
0.0
 10
3.625973057673176
 20
-18.79978946429917
 10
3.647340755401157
 20
-18.84003342629366
 10
3.682985073993839
 20
-18.8487102603929
 10
3.691158129125315
 20
-18.80288024232164
 10
3.625973057673176
 20
-18.79978946429917
  0
LWPOLYLINE
  5
371
330
6F
100
AcDbEntity
  8
STEINE
100
AcDbPolyline
 90
        8
 70
     0
 43
0.0
 10
3.605649716126399
 20
-18.71167455466762
 10
3.597474738698507
 20
-18.76106947144157
 10
3.63770002695639
 20
-18.77433221825394
 10
3.660613113695606
 20
-18.78198364452236
 10
3.667749776445314
 20
-18.76925570803418
 10
3.655546764185472
 20
-18.73309085903354
 10
3.635187997461894
 20
-18.71067193978001
 10
3.605649716126399
 20
-18.71167455466762
  0
LWPOLYLINE
  5
37B
330
6F
100
AcDbEntity
  8
STEINE
100
AcDbPolyline
 90
       17
 70
     0
 43
0.0
 10
3.70344627165499
 20
-18.68117100591774
 10
3.693247665329045
 20
-18.7056105333178
 10
3.705961321900996
 20
-18.73922930071602
 10
3.728363764328104
 20
-18.74942680858687
 10
3.750774719782195
 20
-18.74383690791726
 10
3.759419698683695
 20
-18.76726805354048
 10
3.778764865968718
 20
-18.78051954118813
 10
3.794039982514422
 20
-18.78612976327698
 10
3.823073111813282
 20
-18.77748780512699
 10
3.83988977277739
 20
-18.75763528889515
 10
3.817018427331768
 20
-18.67257463365417
 10
3.803797421812993
 20
-18.6353906929395
 10
3.810933809948927
 20
-18.62317202769456
 10
3.806359431014294
 20
-18.60636360514366
 10
3.776820875065025
 20
-18.60787549127451
 10
3.736066817985972
 20
-18.63077072811844
 10
3.70344627165499
 20
-18.68117100591774
  0
LWPOLYLINE
  5
38E
330
6F
100
AcDbEntity
  8
STEINE
100
AcDbPolyline
 90
       16
 70
     0
 43
0.0
 10
3.972820002586554
 20
-18.73835465584693
 10
3.962109653493405
 20
-18.76737734982239
 10
3.943260575990487
 20
-18.77857115646406
 10
3.925947001402953
 20
-18.77550619213631
 10
3.894896010095287
 20
-18.74849806480437
 10
3.873000642001231
 20
-18.74237500149322
 10
3.856703962217535
 20
-18.74236621385246
 10
3.850094969833903
 20
-18.7209732516573
 10
3.854174906669073
 20
-18.71028075245944
 10
3.875583796463103
 20
-18.67413402796786
 10
3.939248468757409
 20
-18.66347365858152
 10
3.953511908160974
 20
-18.65635155036181
 10
3.977970658525199
 20
-18.63090116966093
 10
4.011585306716807
 20
-18.62582658173758
 10
4.027863587377668
 20
-18.65995654267545
 10
3.972820002586554
 20
-18.73835465584693
  0
LWPOLYLINE
  5
3A0
330
6F
100
AcDbEntity
  8
STEINE
100
AcDbPolyline
 90
        5
 70
     0
 43
0.0
 10
3.972820002586554
 20
-18.73835465584693
 10
3.988601095010214
 20
-18.75007640746844
 10
3.985531736862089
 20
-18.77553832194783
 10
3.960059661673082
 20
-18.7913119997996
 10
3.943260575990487
 20
-18.77857115646406
  0
LWPOLYLINE
  5
3A7
330
6F
100
AcDbEntity
  8
STEINE
100
AcDbPolyline
 90
        4
 70
     0
 43
0.0
 10
3.875583796463103
 20
-18.67413402796786
 10
3.875583796463103
 20
-18.67413402796786
 10
3.837883993774624
 20
-18.69957726871064
 10
3.854174906669073
 20
-18.71028075245944
  0
LWPOLYLINE
  5
3AD
330
6F
100
AcDbEntity
  8
STEINE
100
AcDbPolyline
 90
        7
 70
     0
 43
0.0
 10
3.834238084008713
 20
-18.84981036317016
 10
3.827090436708059
 20
-18.88290914938796
 10
3.808759692702912
 20
-18.87729727961646
 10
3.805708733677622
 20
-18.86863802079873
 10
3.817432956823099
 20
-18.84827348718591
 10
3.83220539285613
 20
-18.84166092482322
 10
3.834238084008713
 20
-18.84981036317016
  0
LWPOLYLINE
  5
3B6
330
6F
100
AcDbEntity
  8
STEINE
100
AcDbPolyline
 90
        5
 70
     0
 43
0.0
 10
3.834238084008713
 20
-18.84981036317016
 10
3.845440129063589
 20
-18.85338130337586
 10
3.847977697639034
 20
-18.86967935622843
 10
3.835248113468211
 20
-18.86559832093816
 10
3.834238084008713
 20
-18.84981036317016
  0
LWPOLYLINE
  5
3BD
330
6F
100
AcDbEntity
  8
STEINE
100
AcDbPolyline
 90
        4
 70
     0
 43
0.0
 10
3.817432956823099
 20
-18.84827348718591
 10
3.799619173246854
 20
-18.82840229721745
 10
3.795527428019417
 20
-18.86099345987465
 10
3.805708733677622
 20
-18.86863802079873
  0
LWPOLYLINE
  5
3C3
330
6F
100
AcDbEntity
  8
STEINE
100
AcDbPolyline
 90
        7
 70
     0
 43
0.0
 10
3.787403803367198
 20
-18.81515465416263
 10
3.76958150676397
 20
-18.81107087273463
 10
3.77058192474139
 20
-18.84468332401605
 10
3.772103147740544
 20
-18.85690665769514
 10
3.781267833208683
 20
-18.86098577068899
 10
3.78993285891566
 20
-18.84724011555565
 10
3.787403803367198
 20
-18.81515465416263
  0
LWPOLYLINE
  5
3CC
330
6F
100
AcDbEntity
  8
STEINE
100
AcDbPolyline
 90
        4
 70
     0
 43
0.0
 10
3.77058192474139
 20
-18.84468332401605
 10
3.740541237506996
 20
-18.83295388320888
 10
3.76041599745451
 20
-18.8085195734705
 10
3.76958150676397
 20
-18.81107087273463
  0
LWPOLYLINE
  5
3D2
330
6F
100
AcDbEntity
  8
STEINE
100
AcDbPolyline
 90
        5
 70
     0
 43
0.0
 10
3.920805133105064
 20
-18.86666299853862
 10
3.922849358036141
 20
-18.85342304466946
 10
3.942209629078715
 20
-18.83866461393888
 10
3.948823564510274
 20
-18.85089069375571
 10
3.920805133105064
 20
-18.86666299853862
  0
LWPOLYLINE
  5
3D9
330
6F
100
AcDbEntity
  8
STEINE
100
AcDbPolyline
 90
        8
 70
     0
 43
0.0
 10
3.906546362135652
 20
-18.86512749562323
 10
3.886695218972672
 20
-18.84576447844293
 10
3.910638381976863
 20
-18.83202706172279
 10
3.930006067591325
 20
-18.80351830742473
 10
3.939163338487576
 20
-18.82134774398607
 10
3.917252866635969
 20
-18.84323459905314
 10
3.912153563472997
 20
-18.85545436275318
 10
3.906546362135652
 20
-18.86512749562323
  0
INSERT
  5
3E3
330
6F
100
AcDbEntity
  8
FEUER
100
AcDbBlockReference
  2
RL
 10
3.490987343768216
 20
-18.8531901721894
 30
0.0
 41
0.01
 42
0.01
 43
0.01
  0
INSERT
  5
3E4
330
6F
100
AcDbEntity
  8
FEUER
100
AcDbBlockReference
  2
RL
 10
3.626928164377943
 20
-18.91743167071527
 30
0.0
 41
0.01
 42
0.01
 43
0.01
  0
INSERT
  5
3E5
330
6F
100
AcDbEntity
  8
FEUER
100
AcDbBlockReference
  2
RL
 10
3.695623486391808
 20
-19.02186934843901
 30
0.0
 41
0.01
 42
0.01
 43
0.01
  0
INSERT
  5
3E6
330
6F
100
AcDbEntity
  8
FEUER
100
AcDbBlockReference
  2
RL
 10
3.886562580519997
 20
-19.09174248892808
 30
0.0
 41
0.01
 42
0.01
 43
0.01
  0
INSERT
  5
3E7
330
6F
100
AcDbEntity
  8
FEUER
100
AcDbBlockReference
  2
RL
 10
3.863138300241124
 20
-19.08765568674856
 30
0.0
 41
0.01
 42
0.01
 43
0.01
  0
INSERT
  5
3E8
330
6F
100
AcDbEntity
  8
FEUER
100
AcDbBlockReference
  2
RL
 10
3.830039239409551
 20
-19.08101731069115
 30
0.0
 41
0.01
 42
0.01
 43
0.01
  0
INSERT
  5
3E9
330
6F
100
AcDbEntity
  8
FEUER
100
AcDbBlockReference
  2
RL
 10
3.796433104244926
 20
-19.07030449007404
 30
0.0
 41
0.01
 42
0.01
 43
0.01
  0
INSERT
  5
3EA
330
6F
100
AcDbEntity
  8
FEUER
100
AcDbBlockReference
  2
RL
 10
3.775558200933766
 20
-19.06061707728775
 30
0.0
 41
0.01
 42
0.01
 43
0.01
  0
INSERT
  5
3EB
330
6F
100
AcDbEntity
  8
FEUER
100
AcDbBlockReference
  2
RL
 10
3.748061398391612
 20
-19.0534724507386
 30
0.0
 41
0.01
 42
0.01
 43
0.01
  0
INSERT
  5
3EC
330
6F
100
AcDbEntity
  8
FEUER
100
AcDbBlockReference
  2
RL
 10
3.720058070743953
 20
-19.04123483714328
 30
0.0
 41
0.01
 42
0.01
 43
0.01
  0
INSERT
  5
3ED
330
6F
100
AcDbEntity
  8
FEUER
100
AcDbBlockReference
  2
RL
 10
3.673736356710961
 20
-19.00046814783064
 30
0.0
 41
0.01
 42
0.01
 43
0.01
  0
INSERT
  5
3EE
330
6F
100
AcDbEntity
  8
FEUER
100
AcDbBlockReference
  2
RL
 10
3.657452583774628
 20
-18.97652361175758
 30
0.0
 41
0.01
 42
0.01
 43
0.01
  0
INSERT
  5
3EF
330
6F
100
AcDbEntity
  8
FEUER
100
AcDbBlockReference
  2
RL
 10
3.64269772302311
 20
-18.95054281455288
 30
0.0
 41
0.01
 42
0.01
 43
0.01
  0
INSERT
  5
3F0
330
6F
100
AcDbEntity
  8
FEUER
100
AcDbBlockReference
  2
RL
 10
3.599433284132204
 20
-18.90672214546344
 30
0.0
 41
0.01
 42
0.01
 43
0.01
  0
INSERT
  5
3F1
330
6F
100
AcDbEntity
  8
FEUER
100
AcDbBlockReference
  2
RL
 10
3.574994031345908
 20
-18.89601426789425
 30
0.0
 41
0.01
 42
0.01
 43
0.01
  0
INSERT
  5
3F2
330
6F
100
AcDbEntity
  8
FEUER
100
AcDbBlockReference
  2
RL
 10
3.549536510686905
 20
-18.88479656985428
 30
0.0
 41
0.01
 42
0.01
 43
0.01
  0
INSERT
  5
3F3
330
6F
100
AcDbEntity
  8
FEUER
100
AcDbBlockReference
  2
RL
 10
3.519497196521378
 20
-18.8705207728309
 30
0.0
 41
0.01
 42
0.01
 43
0.01
  0
INSERT
  5
3F4
330
6F
100
AcDbEntity
  8
FEUER
100
AcDbBlockReference
  2
RL
 10
3.494056976530115
 20
-18.82721898646678
 30
0.0
 41
0.01
 42
0.01
 43
0.01
  0
INSERT
  5
3F5
330
6F
100
AcDbEntity
  8
FEUER
100
AcDbBlockReference
  2
RL
 10
3.51696539483518
 20
-18.84352802387029
 30
0.0
 41
0.01
 42
0.01
 43
0.01
  0
INSERT
  5
3F6
330
6F
100
AcDbEntity
  8
FEUER
100
AcDbBlockReference
  2
RL
 10
3.545985342672904
 20
-18.85933108539584
 30
0.0
 41
0.01
 42
0.01
 43
0.01
  0
INSERT
  5
3F7
330
6F
100
AcDbEntity
  8
FEUER
100
AcDbBlockReference
  2
RL
 10
3.5785723861235
 20
-18.87106189927189
 30
0.0
 41
0.01
 42
0.01
 43
0.01
  0
INSERT
  5
3F8
330
6F
100
AcDbEntity
  8
FEUER
100
AcDbBlockReference
  2
RL
 10
3.600974553936834
 20
-18.88176867838598
 30
0.0
 41
0.01
 42
0.01
 43
0.01
  0
INSERT
  5
3F9
330
6F
100
AcDbEntity
  8
FEUER
100
AcDbBlockReference
  2
RL
 10
3.627959064484238
 20
-18.89451501399699
 30
0.0
 41
0.01
 42
0.01
 43
0.01
  0
INSERT
  5
3FA
330
6F
100
AcDbEntity
  8
FEUER
100
AcDbBlockReference
  2
RL
 10
3.64780361691665
 20
-18.92610054101508
 30
0.0
 41
0.01
 42
0.01
 43
0.01
  0
INSERT
  5
3FB
330
6F
100
AcDbEntity
  8
FEUER
100
AcDbBlockReference
  2
RL
 10
3.664596661096225
 20
-18.95004535170191
 30
0.0
 41
0.01
 42
0.01
 43
0.01
  0
INSERT
  5
3FC
330
6F
100
AcDbEntity
  8
FEUER
100
AcDbBlockReference
  2
RL
 10
3.677824257345568
 20
-18.97500678257881
 30
0.0
 41
0.01
 42
0.01
 43
0.01
  0
INSERT
  5
3FD
330
6F
100
AcDbEntity
  8
FEUER
100
AcDbBlockReference
  2
RL
 10
3.703276560342872
 20
-18.99590063424035
 30
0.0
 41
0.01
 42
0.01
 43
0.01
  0
INSERT
  5
3FE
330
6F
100
AcDbEntity
  8
FEUER
100
AcDbBlockReference
  2
RL
 10
3.72771141930879
 20
-19.01475685170138
 30
0.0
 41
0.01
 42
0.01
 43
0.01
  0
INSERT
  5
3FF
330
6F
100
AcDbEntity
  8
FEUER
100
AcDbBlockReference
  2
RL
 10
3.750622583751591
 20
-19.02597317667249
 30
0.0
 41
0.01
 42
0.01
 43
0.01
  0
INSERT
  5
400
330
6F
100
AcDbEntity
  8
FEUER
100
AcDbBlockReference
  2
RL
 10
3.780664918668627
 20
-19.03464699002022
 30
0.0
 41
0.01
 42
0.01
 43
0.01
  0
INSERT
  5
401
330
6F
100
AcDbEntity
  8
FEUER
100
AcDbBlockReference
  2
RL
 10
3.804084805127121
 20
-19.04688213209158
 30
0.0
 41
0.01
 42
0.01
 43
0.01
  0
INSERT
  5
402
330
6F
100
AcDbEntity
  8
FEUER
100
AcDbBlockReference
  2
RL
 10
3.828014786670177
 20
-19.05758973504699
 30
0.0
 41
0.01
 42
0.01
 43
0.01
  0
INSERT
  5
403
330
6F
100
AcDbEntity
  8
STEINESCHRAFF
100
AcDbBlockReference
  2
*X2
 10
0.0
 20
0.0
 30
0.0
 41
0.01
 42
0.01
 43
0.01
1001
ACAD
1000
HATCH
1002
{
1070
    16
1000
DOTS,I
1040
20.0
1040
0.0
1002
}
  0
LWPOLYLINE
  5
404
330
6F
100
AcDbEntity
  8
STEINE
100
AcDbPolyline
 90
        9
 70
     0
 43
0.0
 10
3.859702744625832
 20
-18.84778700888588
 10
3.823045650435916
 20
-18.82841492945104
 10
3.810837420514375
 20
-18.80192623407197
 10
3.826124345452346
 20
-18.78563779270148
 10
3.877565958681334
 20
-18.77598937507105
 10
3.913205883453637
 20
-18.79281454906214
 10
3.903510506867912
 20
-18.82845831842728
 10
3.879573385366741
 20
-18.83099176779612
 10
3.859702744625832
 20
-18.84778700888588
  0
INSERT
  5
40F
330
6F
100
AcDbEntity
  8
FEUER
100
AcDbBlockReference
  2
*X3
 10
0.0
 20
0.0
 30
0.0
 41
0.01
 42
0.01
 43
0.01
1001
ACAD
1000
HATCH
1002
{
1070
    16
1000
ANSI31,I
1040
10.0
1040
0.0
1002
}
  0
ENDSEC
  0
SECTION
  2
OBJECTS
  0
DICTIONARY
  5
C
330
0
100
AcDbDictionary
281
     1
  3
ACAD_CIP_PREVIOUS_PRODUCT_INFO
350
412
  3
ACAD_COLOR
350
62
  3
ACAD_DETAILVIEWSTYLE
350
69
  3
ACAD_GROUP
350
D
  3
ACAD_LAYOUT
350
61
  3
ACAD_MATERIAL
350
10
  3
ACAD_MLEADERSTYLE
350
65
  3
ACAD_MLINESTYLE
350
5E
  3
ACAD_PLOTSETTINGS
350
60
  3
ACAD_PLOTSTYLENAME
350
E
  3
ACAD_SCALELIST
350
42
  3
ACAD_SECTIONVIEWSTYLE
350
67
  3
ACAD_TABLESTYLE
350
63
  3
ACAD_VISUALSTYLE
350
29
  3
ACDB_RECOMPOSE_DATA
350
4BD
  3
AcDbVariableDictionary
350
45D
  0
DICTIONARY
  5
416
330
2
100
AcDbDictionary
280
     1
281
     1
  3
ACAD_LAYERSTATES
360
417
  0
XRECORD
  5
412
102
{ACAD_REACTORS
330
C
102
}
330
C
100
AcDbXrecord
280
     1
300
ACD
300
2014
300
DSADV_F_S
  0
DICTIONARY
  5
62
102
{ACAD_REACTORS
330
C
102
}
330
C
100
AcDbDictionary
281
     1
  0
DICTIONARY
  5
69
102
{ACAD_REACTORS
330
C
102
}
330
C
100
AcDbDictionary
281
     1
  3
Imperial24
350
6A
  0
DICTIONARY
  5
D
102
{ACAD_REACTORS
330
C
102
}
330
C
100
AcDbDictionary
281
     1
  0
DICTIONARY
  5
61
102
{ACAD_REACTORS
330
C
102
}
330
C
100
AcDbDictionary
281
     1
  3
Layout1
350
6E
  3
Model
350
72
  0
DICTIONARY
  5
10
102
{ACAD_REACTORS
330
C
102
}
330
C
100
AcDbDictionary
281
     1
  3
ByBlock
350
19
  3
ByLayer
350
11
  3
Global
350
21
  0
DICTIONARY
  5
65
102
{ACAD_REACTORS
330
C
102
}
330
C
100
AcDbDictionary
281
     1
  3
Standard
350
66
  0
DICTIONARY
  5
5E
102
{ACAD_REACTORS
330
C
102
}
330
C
100
AcDbDictionary
281
     1
  3
Standard
350
5F
  0
DICTIONARY
  5
60
102
{ACAD_REACTORS
330
C
102
}
330
C
100
AcDbDictionary
281
     1
  0
ACDBDICTIONARYWDFLT
  5
E
102
{ACAD_REACTORS
330
C
102
}
330
C
100
AcDbDictionary
281
     1
  3
Normal
350
F
100
AcDbDictionaryWithDefault
340
F
  0
DICTIONARY
  5
42
102
{ACAD_REACTORS
330
C
102
}
330
C
100
AcDbDictionary
281
     1
  3
A0
350
43
  3
A1
350
44
  3
A2
350
45
  3
A3
350
46
  3
A4
350
47
  3
A5
350
48
  3
A6
350
49
  3
A7
350
4A
  3
A8
350
4B
  3
A9
350
4C
  3
B0
350
4D
  3
B1
350
4E
  3
B2
350
4F
  3
B3
350
50
  3
B4
350
51
  3
B5
350
52
  3
B6
350
53
  0
DICTIONARY
  5
67
102
{ACAD_REACTORS
330
C
102
}
330
C
100
AcDbDictionary
281
     1
  3
Imperial24
350
68
  0
DICTIONARY
  5
63
102
{ACAD_REACTORS
330
C
102
}
330
C
100
AcDbDictionary
281
     1
  3
Standard
350
64
  0
DICTIONARY
  5
29
102
{ACAD_REACTORS
330
C
102
}
330
C
100
AcDbDictionary
281
     1
  3
2dWireframe
350
2F
  3
Basic
350
2E
  3
Brighten
350
35
  3
ColorChange
350
39
  3
Conceptual
350
32
  3
Dim
350
34
  3
EdgeColorOff
350
41
  3
Facepattern
350
38
  3
Flat
350
2A
  3
FlatWithEdges
350
2B
  3
Gouraud
350
2C
  3
GouraudWithEdges
350
2D
  3
Hidden
350
31
  3
JitterOff
350
3F
  3
Linepattern
350
37
  3
OverhangOff
350
40
  3
Realistic
350
33
  3
Shaded
350
3E
  3
Shaded with edges
350
3D
  3
Shades of Gray
350
3A
  3
Sketchy
350
3B
  3
Thicken
350
36
  3
Wireframe
350
30
  3
X-Ray
350
3C
  0
XRECORD
  5
4BD
102
{ACAD_REACTORS
330
C
102
}
330
C
100
AcDbXrecord
280
     1
 90
        1
330
64
330
68
330
6A
  0
DICTIONARY
  5
45D
102
{ACAD_REACTORS
330
C
102
}
330
C
100
AcDbDictionary
281
     1
  3
CANNOSCALE
350
462
  3
CMLEADERSTYLE
350
45F
  3
CTABLESTYLE
350
45E
  3
CVIEWDETAILSTYLE
350
460
  3
CVIEWSECTIONSTYLE
350
461
  0
DICTIONARY
  5
417
102
{ACAD_REACTORS
330
416
102
}
330
416
100
AcDbDictionary
281
     1
  0
ACDBDETAILVIEWSTYLE
  5
6A
102
{ACAD_XDICTIONARY
360
4BB
102
}
102
{ACAD_REACTORS
330
69
102
}
330
69
100
AcDbModelDocViewStyle
 70
     0
  3
Imperial24
290
     0
100
AcDbDetailViewStyle
 70
     0
 71
     0
 90
        3
 71
     1
340
55
 62
   256
 40
0.24
340
0
 62
   256
 40
0.24
300

 40
0.36
280
     3
 71
     2
340
5C
 90
       25
 62
   256
 71
     3
340
55
 62
   256
 40
0.24
 90
        1
 40
0.75
 90
        1
300
%<\AcVar ViewType \f "%tc1">% %<\AcVar ViewDetailId>%\PVARIA %<\AcVar ViewScale \f "%sn">%
 71
     4
340
5C
 90
       25
 62
   256
340
5C
 90
       25
 62
   256
280
     0
  0
LAYOUT
  5
6E
102
{ACAD_REACTORS
330
61
102
}
330
61
100
AcDbPlotSettings
  1

  2
Kyocera FS-1350DN KX
  4

  6

 40
0.0
 41
0.0
 42
0.0
 43
0.0
 44
0.0
 45
0.0
 46
0.0
 47
0.0
 48
0.0
 49
0.0
140
0.0
141
0.0
142
1.0
143
1.0
 70
   688
 72
     0
 73
     0
 74
     5
  7

 75
    16
147
1.0
 76
     0
 77
     2
 78
   300
148
0.0
149
0.0
100
AcDbLayout
  1
Layout1
 70
     0
 71
     1
 10
0.0
 20
0.0
 11
12.0
 21
9.0
 12
0.0
 22
0.0
 32
0.0
 14
1.000000000000000E+20
 24
1.000000000000000E+20
 34
1.000000000000000E+20
 15
-1.000000000000000E+20
 25
-1.000000000000000E+20
 35
-1.000000000000000E+20
146
0.0
 13
0.0
 23
0.0
 33
0.0
 16
1.0
 26
0.0
 36
0.0
 17
0.0
 27
1.0
 37
0.0
 76
     0
330
6B
  0
LAYOUT
  5
72
102
{ACAD_XDICTIONARY
360
45B
102
}
102
{ACAD_REACTORS
330
61
102
}
330
61
100
AcDbPlotSettings
  1

  2
Kyocera FS-1350DN KX
  4

  6

 40
0.0
 41
0.0
 42
0.0
 43
0.0
 44
0.0
 45
0.0
 46
0.0
 47
0.0
 48
0.0
 49
0.0
140
0.0
141
0.0
142
1.0
143
1.0
 70
  1712
 72
     0
 73
     0
 74
     0
  7

 75
     0
147
1.0
 76
     0
 77
     2
 78
   300
148
0.0
149
0.0
100
AcDbLayout
  1
Model
 70
     1
 71
     0
 10
0.0
 20
0.0
 11
12.0
 21
9.0
 12
0.0
 22
0.0
 32
0.0
 14
0.0
 24
0.0
 34
0.0
 15
0.0
 25
0.0
 35
0.0
146
0.0
 13
0.0
 23
0.0
 33
0.0
 16
1.0
 26
0.0
 36
0.0
 17
0.0
 27
1.0
 37
0.0
 76
     0
330
6F
331
90
  0
MATERIAL
  5
19
102
{ACAD_XDICTIONARY
360
1A
102
}
102
{ACAD_REACTORS
330
10
102
}
330
10
100
AcDbMaterial
  1
ByBlock
 72
     0
 43
0.0208333333333333
 43
0.0
 43
0.0
 43
0.0
 43
0.0
 43
0.0208333333333333
 43
0.0
 43
0.0
 43
0.0
 43
0.0
 43
1.0
 43
0.0
 43
0.0
 43
0.0
 43
0.0
 43
1.0
 77
     0
 47
0.0208333333333333
 47
0.0
 47
0.0
 47
0.0
 47
0.0
 47
0.0208333333333333
 47
0.0
 47
0.0
 47
0.0
 47
0.0
 47
1.0
 47
0.0
 47
0.0
 47
0.0
 47
0.0
 47
1.0
171
     0
 49
0.0208333333333333
 49
0.0
 49
0.0
 49
0.0
 49
0.0
 49
0.0208333333333333
 49
0.0
 49
0.0
 49
0.0
 49
0.0
 49
1.0
 49
0.0
 49
0.0
 49
0.0
 49
0.0
 49
1.0
175
     0
142
0.0208333333333333
142
0.0
142
0.0
142
0.0
142
0.0
142
0.0208333333333333
142
0.0
142
0.0
142
0.0
142
0.0
142
1.0
142
0.0
142
0.0
142
0.0
142
0.0
142
1.0
179
     0
144
0.0208333333333333
144
0.0
144
0.0
144
0.0
144
0.0
144
0.0208333333333333
144
0.0
144
0.0
144
0.0
144
0.0
144
1.0
144
0.0
144
0.0
144
0.0
144
0.0
144
1.0
147
0.0208333333333333
147
0.0
147
0.0
147
0.0
147
0.0
147
0.0208333333333333
147
0.0
147
0.0
147
0.0
147
0.0
147
1.0
147
0.0
147
0.0
147
0.0
147
0.0
147
1.0
  0
MATERIAL
  5
11
102
{ACAD_XDICTIONARY
360
12
102
}
102
{ACAD_REACTORS
330
10
102
}
330
10
100
AcDbMaterial
  1
ByLayer
 72
     0
 43
0.0208333333333333
 43
0.0
 43
0.0
 43
0.0
 43
0.0
 43
0.0208333333333333
 43
0.0
 43
0.0
 43
0.0
 43
0.0
 43
1.0
 43
0.0
 43
0.0
 43
0.0
 43
0.0
 43
1.0
 77
     0
 47
0.0208333333333333
 47
0.0
 47
0.0
 47
0.0
 47
0.0
 47
0.0208333333333333
 47
0.0
 47
0.0
 47
0.0
 47
0.0
 47
1.0
 47
0.0
 47
0.0
 47
0.0
 47
0.0
 47
1.0
171
     0
 49
0.0208333333333333
 49
0.0
 49
0.0
 49
0.0
 49
0.0
 49
0.0208333333333333
 49
0.0
 49
0.0
 49
0.0
 49
0.0
 49
1.0
 49
0.0
 49
0.0
 49
0.0
 49
0.0
 49
1.0
175
     0
142
0.0208333333333333
142
0.0
142
0.0
142
0.0
142
0.0
142
0.0208333333333333
142
0.0
142
0.0
142
0.0
142
0.0
142
1.0
142
0.0
142
0.0
142
0.0
142
0.0
142
1.0
179
     0
144
0.0208333333333333
144
0.0
144
0.0
144
0.0
144
0.0
144
0.0208333333333333
144
0.0
144
0.0
144
0.0
144
0.0
144
1.0
144
0.0
144
0.0
144
0.0
144
0.0
144
1.0
147
0.0208333333333333
147
0.0
147
0.0
147
0.0
147
0.0
147
0.0208333333333333
147
0.0
147
0.0
147
0.0
147
0.0
147
1.0
147
0.0
147
0.0
147
0.0
147
0.0
147
1.0
  0
MATERIAL
  5
21
102
{ACAD_XDICTIONARY
360
22
102
}
102
{ACAD_REACTORS
330
10
102
}
330
10
100
AcDbMaterial
  1
Global
 72
     0
 43
0.0208333333333333
 43
0.0
 43
0.0
 43
0.0
 43
0.0
 43
0.0208333333333333
 43
0.0
 43
0.0
 43
0.0
 43
0.0
 43
1.0
 43
0.0
 43
0.0
 43
0.0
 43
0.0
 43
1.0
 77
     0
 47
0.0208333333333333
 47
0.0
 47
0.0
 47
0.0
 47
0.0
 47
0.0208333333333333
 47
0.0
 47
0.0
 47
0.0
 47
0.0
 47
1.0
 47
0.0
 47
0.0
 47
0.0
 47
0.0
 47
1.0
171
     0
 49
0.0208333333333333
 49
0.0
 49
0.0
 49
0.0
 49
0.0
 49
0.0208333333333333
 49
0.0
 49
0.0
 49
0.0
 49
0.0
 49
1.0
 49
0.0
 49
0.0
 49
0.0
 49
0.0
 49
1.0
175
     0
142
0.0208333333333333
142
0.0
142
0.0
142
0.0
142
0.0
142
0.0208333333333333
142
0.0
142
0.0
142
0.0
142
0.0
142
1.0
142
0.0
142
0.0
142
0.0
142
0.0
142
1.0
179
     0
144
0.0208333333333333
144
0.0
144
0.0
144
0.0
144
0.0
144
0.0208333333333333
144
0.0
144
0.0
144
0.0
144
0.0
144
1.0
144
0.0
144
0.0
144
0.0
144
0.0
144
1.0
147
0.0208333333333333
147
0.0
147
0.0
147
0.0
147
0.0
147
0.0208333333333333
147
0.0
147
0.0
147
0.0
147
0.0
147
1.0
147
0.0
147
0.0
147
0.0
147
0.0
147
1.0
  0
MLEADERSTYLE
  5
66
102
{ACAD_REACTORS
330
65
102
}
330
65
100
AcDbMLeaderStyle
179
     2
170
     2
171
     1
172
     0
 90
        2
 40
0.0
 41
0.0
173
     1
 91
-1056964608
340
5A
 92
       -2
290
     1
 42
0.09
291
     1
 43
0.36
  3
Standard
 44
0.18
300

342
55
174
     1
178
     6
175
     1
176
     0
 93
-1056964608
 45
0.18
292
     0
297
     0
 46
0.18
 94
-1056964608
 47
1.0
 49
1.0
140
1.0
293
     1
141
0.0
294
     1
177
     0
142
1.0
295
     0
296
     0
143
0.125
271
     0
272
     9
273
     9
298
     1
  0
MLINESTYLE
  5
5F
102
{ACAD_REACTORS
330
5E
102
}
330
5E
100
AcDbMlineStyle
  2
STANDARD
 70
     0
  3

 62
   256
 51
90.0
 52
90.0
 71
     2
 49
0.5
 62
   256
  6
BYLAYER
 49
-0.5
 62
   256
  6
BYLAYER
  0
ACDBPLACEHOLDER
  5
F
102
{ACAD_REACTORS
330
E
102
}
330
E
  0
SCALE
  5
43
102
{ACAD_REACTORS
330
42
102
}
330
42
100
AcDbScale
 70
     0
300
1:1
140
1.0
141
1.0
290
     1
  0
SCALE
  5
44
102
{ACAD_REACTORS
330
42
102
}
330
42
100
AcDbScale
 70
     0
300
1/128" = 1'-0"
140
0.0078125
141
12.0
290
     0
  0
SCALE
  5
45
102
{ACAD_REACTORS
330
42
102
}
330
42
100
AcDbScale
 70
     0
300
1/64" = 1'-0"
140
0.015625
141
12.0
290
     0
  0
SCALE
  5
46
102
{ACAD_REACTORS
330
42
102
}
330
42
100
AcDbScale
 70
     0
300
1/32" = 1'-0"
140
0.03125
141
12.0
290
     0
  0
SCALE
  5
47
102
{ACAD_REACTORS
330
42
102
}
330
42
100
AcDbScale
 70
     0
300
1/16" = 1'-0"
140
0.0625
141
12.0
290
     0
  0
SCALE
  5
48
102
{ACAD_REACTORS
330
42
102
}
330
42
100
AcDbScale
 70
     0
300
3/32" = 1'-0"
140
0.09375
141
12.0
290
     0
  0
SCALE
  5
49
102
{ACAD_REACTORS
330
42
102
}
330
42
100
AcDbScale
 70
     0
300
1/8" = 1'-0"
140
0.125
141
12.0
290
     0
  0
SCALE
  5
4A
102
{ACAD_REACTORS
330
42
102
}
330
42
100
AcDbScale
 70
     0
300
3/16" = 1'-0"
140
0.1875
141
12.0
290
     0
  0
SCALE
  5
4B
102
{ACAD_REACTORS
330
42
102
}
330
42
100
AcDbScale
 70
     0
300
1/4" = 1'-0"
140
0.25
141
12.0
290
     0
  0
SCALE
  5
4C
102
{ACAD_REACTORS
330
42
102
}
330
42
100
AcDbScale
 70
     0
300
3/8" = 1'-0"
140
0.375
141
12.0
290
     0
  0
SCALE
  5
4D
102
{ACAD_REACTORS
330
42
102
}
330
42
100
AcDbScale
 70
     0
300
1/2" = 1'-0"
140
0.5
141
12.0
290
     0
  0
SCALE
  5
4E
102
{ACAD_REACTORS
330
42
102
}
330
42
100
AcDbScale
 70
     0
300
3/4" = 1'-0"
140
0.75
141
12.0
290
     0
  0
SCALE
  5
4F
102
{ACAD_REACTORS
330
42
102
}
330
42
100
AcDbScale
 70
     0
300
1" = 1'-0"
140
1.0
141
12.0
290
     0
  0
SCALE
  5
50
102
{ACAD_REACTORS
330
42
102
}
330
42
100
AcDbScale
 70
     0
300
1-1/2" = 1'-0"
140
1.5
141
12.0
290
     0
  0
SCALE
  5
51
102
{ACAD_REACTORS
330
42
102
}
330
42
100
AcDbScale
 70
     0
300
3" = 1'-0"
140
3.0
141
12.0
290
     0
  0
SCALE
  5
52
102
{ACAD_REACTORS
330
42
102
}
330
42
100
AcDbScale
 70
     0
300
6" = 1'-0"
140
6.0
141
12.0
290
     0
  0
SCALE
  5
53
102
{ACAD_REACTORS
330
42
102
}
330
42
100
AcDbScale
 70
     0
300
1'-0" = 1'-0"
140
12.0
141
12.0
290
     0
  0
ACDBSECTIONVIEWSTYLE
  5
68
102
{ACAD_XDICTIONARY
360
4B9
102
}
102
{ACAD_REACTORS
330
67
102
}
330
67
100
AcDbModelDocViewStyle
 70
     0
  3
Imperial24
290
     0
100
AcDbSectionViewStyle
 70
     0
 71
     0
 90
       78
 71
     1
340
55
 62
   256
 40
0.24
340
0
340
0
 62
   256
 40
0.24
300
I, O, Q, S, X, Z
 40
0.48
 90
        3
 40
0.18
 90
        1
 71
     2
340
5C
 90
       25
 62
   256
340
5C
 90
       50
 62
   256
 40
0.24
 40
0.0
 40
0.24
 71
     3
340
55
 62
   256
 40
0.24
 90
        1
 40
0.75
 90
        1
300
%<\AcVar ViewType \f "%tc1">% %<\AcVar ViewSectionStartId>%-%<\AcVar ViewSectionEndId>%\PVARIA %<\AcVar ViewScale \f "%sn">%
 71
     4
 62
   256
 62
   257
300
ANSI31
 40
1.0
 90
        0
290
     0
290
     0
 90
        6
 40
0.0
 40
1.570796326794896
 40
0.2617993877991494
 40
1.308996938995747
 40
-0.2617993877991494
 40
1.832595714594046
  0
TABLESTYLE
  5
64
102
{ACAD_XDICTIONARY
360
4B7
102
}
102
{ACAD_REACTORS
330
63
102
}
330
63
100
AcDbTableStyle
280
     0
  3
Standard
 70
     0
 71
     0
 40
0.06
 41
0.06
280
     0
281
     0
  7
STANDARD
140
0.18
170
     2
 62
     0
 63
     7
283
     0
 90
      512
 91
        0
  1

274
    -2
284
     1
 64
     0
275
    -2
285
     1
 65
     0
276
    -2
286
     1
 66
     0
277
    -2
287
     1
 67
     0
278
    -2
288
     1
 68
     0
279
    -2
289
     1
 69
     0
  7
STANDARD
140
0.25
170
     5
 62
     0
 63
     7
283
     0
 90
      512
 91
        0
  1

274
    -2
284
     1
 64
     0
275
    -2
285
     1
 65
     0
276
    -2
286
     1
 66
     0
277
    -2
287
     1
 67
     0
278
    -2
288
     1
 68
     0
279
    -2
289
     1
 69
     0
  7
STANDARD
140
0.18
170
     5
 62
     0
 63
     7
283
     0
 90
      512
 91
        0
  1

274
    -2
284
     1
 64
     0
275
    -2
285
     1
 65
     0
276
    -2
286
     1
 66
     0
277
    -2
287
     1
 67
     0
278
    -2
288
     1
 68
     0
279
    -2
289
     1
 69
     0
  0
VISUALSTYLE
  5
2F
102
{ACAD_REACTORS
330
29
102
}
330
29
100
AcDbVisualStyle
  2
2dWireframe
 70
     4
177
     3
291
     0
 70
    58
 90
        0
176
     1
 90
        2
176
     1
 90
        0
176
     1
 90
        0
176
     1
 40
0.6
176
     1
 40
30.0
176
     1
 62
     7
420
 16777215
176
     1
 90
        1
176
     1
 90
        4
176
     1
 62
     7
176
     1
 62
   257
176
     1
 90
        1
176
     1
 90
        1
176
     1
 40
1.0
176
     1
 90
        0
176
     1
 62
   257
176
     1
 40
1.0
176
     1
 90
        1
176
     1
 90
        6
176
     1
 90
        2
176
     1
 62
     7
176
     1
 90
        5
176
     1
 90
        0
176
     1
 90
        0
176
     1
290
     0
176
     1
 90
        1
176
     1
 40
0.0
176
     1
 90
        0
176
     1
290
     1
176
     1
290
     1
176
     1
290
     0
176
     1
290
     0
176
     1
290
     0
176
     1
290
     0
176
     1
290
     0
176
     1
290
     0
176
     1
290
     0
176
     1
 90
       50
176
     1
 40
0.0
176
     1
 40
1.0
176
     1
 90
        0
176
     1
 62
    18
420
        0
176
     1
 90
       50
176
     1
 90
        3
176
     1
 62
     5
420
      255
176
     1
290
     0
176
     1
 90
       50
176
     1
 90
       50
176
     1
 90
       50
176
     1
290
     0
176
     1
 90
       50
176
     1
 62
   256
176
     0
 40
1.0
176
     0
 90
        2
176
     1
  1
strokes_ogs.tif
176
     1
290
     0
176
     1
 40
1.0
176
     1
 40
1.0
176
     1
  0
VISUALSTYLE
  5
2E
102
{ACAD_REACTORS
330
29
102
}
330
29
100
AcDbVisualStyle
  2
Basic
 70
     7
177
     3
291
     1
 70
    58
 90
        1
176
     1
 90
        0
176
     1
 90
        1
176
     1
 90
        0
176
     1
 40
0.6
176
     1
 40
30.0
176
     1
 62
     7
420
 16777215
176
     1
 90
        0
176
     1
 90
        4
176
     1
 62
     7
176
     1
 62
   257
176
     1
 90
        1
176
     1
 90
        1
176
     1
 40
1.0
176
     1
 90
        8
176
     1
 62
     7
176
     1
 40
1.0
176
     1
 90
        1
176
     1
 90
        6
176
     1
 90
        2
176
     1
 62
     7
176
     1
 90
        5
176
     1
 90
        0
176
     1
 90
        0
176
     1
290
     0
176
     1
 90
        1
176
     1
 40
0.0
176
     1
 90
        0
176
     1
290
     0
176
     1
290
     1
176
     1
290
     1
176
     1
290
     0
176
     1
290
     0
176
     1
290
     0
176
     1
290
     0
176
     1
290
     0
176
     1
290
     0
176
     1
 90
       50
176
     1
 40
0.0
176
     1
 40
1.0
176
     1
 90
        0
176
     1
 62
    18
420
        0
176
     1
 90
       50
176
     1
 90
        3
176
     1
 62
     5
420
      255
176
     1
290
     0
176
     1
 90
       50
176
     1
 90
       50
176
     1
 90
       50
176
     1
290
     0
176
     1
 90
       50
176
     1
 62
   256
176
     0
 40
1.0
176
     0
 90
        2
176
     1
  1
strokes_ogs.tif
176
     1
290
     0
176
     1
 40
1.0
176
     1
 40
1.0
176
     1
  0
VISUALSTYLE
  5
35
102
{ACAD_REACTORS
330
29
102
}
330
29
100
AcDbVisualStyle
  2
Brighten
 70
    12
177
     3
291
     1
 70
    58
 90
        2
176
     1
 90
        2
176
     1
 90
        0
176
     1
 90
        0
176
     1
 40
0.6
176
     1
 40
30.0
176
     1
 62
     7
420
 16777215
176
     1
 90
        1
176
     1
 90
        4
176
     1
 62
     7
176
     1
 62
   257
176
     1
 90
        1
176
     1
 90
        1
176
     1
 40
1.0
176
     1
 90
        8
176
     1
 62
     7
176
     1
 40
1.0
176
     1
 90
        1
176
     1
 90
        6
176
     1
 90
        2
176
     1
 62
     7
176
     1
 90
        5
176
     1
 90
        0
176
     1
 90
        0
176
     1
290
     0
176
     1
 90
        1
176
     1
 40
50.0
176
     1
 90
        0
176
     1
290
     0
176
     1
290
     1
176
     1
290
     1
176
     1
290
     0
176
     1
290
     0
176
     1
290
     0
176
     1
290
     0
176
     1
290
     0
176
     1
290
     0
176
     1
 90
       50
176
     1
 40
0.0
176
     1
 40
1.0
176
     1
 90
        0
176
     1
 62
    18
420
        0
176
     1
 90
       50
176
     1
 90
        3
176
     1
 62
     5
420
      255
176
     1
290
     0
176
     1
 90
       50
176
     1
 90
       50
176
     1
 90
       50
176
     1
290
     0
176
     1
 90
       50
176
     1
 62
   256
176
     0
 40
1.0
176
     0
 90
        2
176
     1
  1
strokes_ogs.tif
176
     1
290
     0
176
     1
 40
1.0
176
     1
 40
1.0
176
     1
  0
VISUALSTYLE
  5
39
102
{ACAD_REACTORS
330
29
102
}
330
29
100
AcDbVisualStyle
  2
ColorChange
 70
    16
177
     3
291
     1
 70
    58
 90
        2
176
     1
 90
        2
176
     1
 90
        3
176
     1
 90
        0
176
     1
 40
0.6
176
     1
 40
30.0
176
     1
 62
     8
420
  8421504
176
     1
 90
        1
176
     1
 90
        4
176
     1
 62
     7
176
     1
 62
   257
176
     1
 90
        1
176
     1
 90
        1
176
     1
 40
1.0
176
     1
 90
        8
176
     1
 62
     8
420
  8421504
176
     1
 40
1.0
176
     1
 90
        1
176
     1
 90
        6
176
     1
 90
        2
176
     1
 62
     7
176
     1
 90
        5
176
     1
 90
        0
176
     1
 90
        0
176
     1
290
     0
176
     1
 90
        1
176
     1
 40
0.0
176
     1
 90
        0
176
     1
290
     0
176
     1
290
     1
176
     1
290
     1
176
     1
290
     0
176
     1
290
     0
176
     1
290
     0
176
     1
290
     0
176
     1
290
     0
176
     1
290
     0
176
     1
 90
       50
176
     1
 40
0.0
176
     1
 40
1.0
176
     1
 90
        0
176
     1
 62
    18
420
        0
176
     1
 90
       50
176
     1
 90
        3
176
     1
 62
     5
420
      255
176
     1
290
     0
176
     1
 90
       50
176
     1
 90
       50
176
     1
 90
       50
176
     1
290
     0
176
     1
 90
       50
176
     1
 62
   256
176
     0
 40
1.0
176
     0
 90
        2
176
     1
  1
strokes_ogs.tif
176
     1
290
     0
176
     1
 40
1.0
176
     1
 40
1.0
176
     1
  0
VISUALSTYLE
  5
32
102
{ACAD_REACTORS
330
29
102
}
330
29
100
AcDbVisualStyle
  2
Conceptual
 70
     9
177
     3
291
     0
 70
    58
 90
        3
176
     1
 90
        2
176
     1
 90
        0
176
     1
 90
        0
176
     1
 40
0.6
176
     1
 40
30.0
176
     1
 62
     7
420
 16777215
176
     1
 90
        2
176
     1
 90
        2
176
     1
 62
     7
176
     1
 62
   257
176
     1
 90
        1
176
     1
 90
        1
176
     1
 40
179.0
176
     1
 90
        8
176
     1
 62
     7
176
     1
 40
1.0
176
     1
 90
        1
176
     1
 90
        6
176
     1
 90
        2
176
     1
 62
     7
176
     1
 90
        3
176
     1
 90
        0
176
     1
 90
        0
176
     1
290
     0
176
     1
 90
        1
176
     1
 40
0.0
176
     1
 90
        0
176
     1
290
     0
176
     1
290
     1
176
     1
290
     1
176
     1
290
     0
176
     1
290
     0
176
     1
290
     0
176
     1
290
     0
176
     1
290
     0
176
     1
290
     0
176
     1
 90
       50
176
     1
 40
0.0
176
     1
 40
1.0
176
     1
 90
        0
176
     1
 62
    18
420
        0
176
     1
 90
       50
176
     1
 90
        3
176
     1
 62
     5
420
      255
176
     1
290
     0
176
     1
 90
       50
176
     1
 90
       50
176
     1
 90
       50
176
     1
290
     0
176
     1
 90
       50
176
     1
 62
   256
176
     0
 40
1.0
176
     0
 90
        2
176
     1
  1
strokes_ogs.tif
176
     1
290
     0
176
     1
 40
1.0
176
     1
 40
1.0
176
     1
  0
VISUALSTYLE
  5
34
102
{ACAD_REACTORS
330
29
102
}
330
29
100
AcDbVisualStyle
  2
Dim
 70
    11
177
     3
291
     1
 70
    58
 90
        2
176
     1
 90
        2
176
     1
 90
        0
176
     1
 90
        0
176
     1
 40
0.6
176
     1
 40
30.0
176
     1
 62
     7
420
 16777215
176
     1
 90
        1
176
     1
 90
        4
176
     1
 62
     7
176
     1
 62
   257
176
     1
 90
        1
176
     1
 90
        1
176
     1
 40
1.0
176
     1
 90
        8
176
     1
 62
     7
176
     1
 40
1.0
176
     1
 90
        1
176
     1
 90
        6
176
     1
 90
        2
176
     1
 62
     7
176
     1
 90
        5
176
     1
 90
        0
176
     1
 90
        0
176
     1
290
     0
176
     1
 90
        1
176
     1
 40
-50.0
176
     1
 90
        0
176
     1
290
     0
176
     1
290
     1
176
     1
290
     1
176
     1
290
     0
176
     1
290
     0
176
     1
290
     0
176
     1
290
     0
176
     1
290
     0
176
     1
290
     0
176
     1
 90
       50
176
     1
 40
0.0
176
     1
 40
1.0
176
     1
 90
        0
176
     1
 62
    18
420
        0
176
     1
 90
       50
176
     1
 90
        3
176
     1
 62
     5
420
      255
176
     1
290
     0
176
     1
 90
       50
176
     1
 90
       50
176
     1
 90
       50
176
     1
290
     0
176
     1
 90
       50
176
     1
 62
   256
176
     0
 40
1.0
176
     0
 90
        2
176
     1
  1
strokes_ogs.tif
176
     1
290
     0
176
     1
 40
1.0
176
     1
 40
1.0
176
     1
  0
VISUALSTYLE
  5
41
102
{ACAD_REACTORS
330
29
102
}
330
29
100
AcDbVisualStyle
  2
EdgeColorOff
 70
    22
177
     3
291
     1
 70
    58
 90
        2
176
     0
 90
        2
176
     0
 90
        0
176
     0
 90
        0
176
     0
 40
0.6
176
     0
 40
30.0
176
     0
 62
     7
420
 16777215
176
     0
 90
        1
176
     0
 90
        4
176
     0
 62
     7
176
     0
 62
   257
176
     0
 90
        1
176
     0
 90
        1
176
     0
 40
1.0
176
     0
 90
        8
176
     2
 62
     7
176
     0
 40
1.0
176
     0
 90
        1
176
     0
 90
        6
176
     0
 90
        2
176
     0
 62
     7
176
     0
 90
        5
176
     0
 90
        0
176
     0
 90
        0
176
     0
290
     0
176
     0
 90
        1
176
     0
 40
0.0
176
     0
 90
        0
176
     0
290
     0
176
     0
290
     1
176
     0
290
     1
176
     0
290
     0
176
     0
290
     0
176
     0
290
     0
176
     0
290
     0
176
     0
290
     0
176
     0
290
     0
176
     0
 90
       50
176
     0
 40
0.0
176
     0
 40
1.0
176
     0
 90
        0
176
     0
 62
    18
420
        0
176
     0
 90
       50
176
     0
 90
        3
176
     0
 62
     5
420
      255
176
     0
290
     0
176
     0
 90
       50
176
     0
 90
       50
176
     0
 90
       50
176
     0
290
     0
176
     0
 90
       50
176
     0
 62
   256
176
     0
 40
1.0
176
     0
 90
        2
176
     0
  1
strokes_ogs.tif
176
     0
290
     0
176
     0
 40
1.0
176
     0
 40
1.0
176
     0
  0
VISUALSTYLE
  5
38
102
{ACAD_REACTORS
330
29
102
}
330
29
100
AcDbVisualStyle
  2
Facepattern
 70
    15
177
     3
291
     1
 70
    58
 90
        2
176
     1
 90
        2
176
     1
 90
        0
176
     1
 90
        0
176
     1
 40
0.6
176
     1
 40
30.0
176
     1
 62
     7
420
 16777215
176
     1
 90
        1
176
     1
 90
        4
176
     1
 62
     7
176
     1
 62
   257
176
     1
 90
        1
176
     1
 90
        1
176
     1
 40
1.0
176
     1
 90
        8
176
     1
 62
     7
176
     1
 40
1.0
176
     1
 90
        1
176
     1
 90
        6
176
     1
 90
        2
176
     1
 62
     7
176
     1
 90
        5
176
     1
 90
        0
176
     1
 90
        0
176
     1
290
     0
176
     1
 90
        1
176
     1
 40
0.0
176
     1
 90
        0
176
     1
290
     0
176
     1
290
     1
176
     1
290
     1
176
     1
290
     0
176
     1
290
     0
176
     1
290
     0
176
     1
290
     0
176
     1
290
     0
176
     1
290
     0
176
     1
 90
       50
176
     1
 40
0.0
176
     1
 40
1.0
176
     1
 90
        0
176
     1
 62
    18
420
        0
176
     1
 90
       50
176
     1
 90
        3
176
     1
 62
     5
420
      255
176
     1
290
     0
176
     1
 90
       50
176
     1
 90
       50
176
     1
 90
       50
176
     1
290
     0
176
     1
 90
       50
176
     1
 62
   256
176
     0
 40
1.0
176
     0
 90
        2
176
     1
  1
strokes_ogs.tif
176
     1
290
     0
176
     1
 40
1.0
176
     1
 40
1.0
176
     1
  0
VISUALSTYLE
  5
2A
102
{ACAD_REACTORS
330
29
102
}
330
29
100
AcDbVisualStyle
  2
Flat
 70
     0
177
     3
291
     1
 70
    58
 90
        2
176
     1
 90
        1
176
     1
 90
        1
176
     1
 90
        2
176
     1
 40
0.6
176
     1
 40
30.0
176
     1
 62
     7
420
 16777215
176
     1
 90
        0
176
     1
 90
        0
176
     1
 62
     7
176
     1
 62
   257
176
     1
 90
        1
176
     1
 90
        1
176
     1
 40
1.0
176
     1
 90
        8
176
     1
 62
     7
176
     1
 40
1.0
176
     1
 90
        1
176
     1
 90
        6
176
     1
 90
        2
176
     1
 62
     7
176
     1
 90
        5
176
     1
 90
        0
176
     1
 90
        0
176
     1
290
     0
176
     1
 90
       13
176
     1
 40
0.0
176
     1
 90
        0
176
     1
290
     0
176
     1
290
     1
176
     1
290
     1
176
     1
290
     0
176
     1
290
     0
176
     1
290
     0
176
     1
290
     0
176
     1
290
     0
176
     1
290
     0
176
     1
 90
       50
176
     1
 40
0.0
176
     1
 40
1.0
176
     1
 90
        0
176
     1
 62
    18
420
        0
176
     1
 90
       50
176
     1
 90
        3
176
     1
 62
     5
420
      255
176
     1
290
     0
176
     1
 90
       50
176
     1
 90
       50
176
     1
 90
       50
176
     1
290
     0
176
     1
 90
       50
176
     1
 62
   256
176
     0
 40
1.0
176
     0
 90
        2
176
     1
  1
strokes_ogs.tif
176
     1
290
     0
176
     1
 40
1.0
176
     1
 40
1.0
176
     1
  0
VISUALSTYLE
  5
2B
102
{ACAD_REACTORS
330
29
102
}
330
29
100
AcDbVisualStyle
  2
FlatWithEdges
 70
     1
177
     3
291
     1
 70
    58
 90
        2
176
     1
 90
        1
176
     1
 90
        1
176
     1
 90
        2
176
     1
 40
0.6
176
     1
 40
30.0
176
     1
 62
     7
420
 16777215
176
     1
 90
        1
176
     1
 90
        0
176
     1
 62
     7
176
     1
 62
   257
176
     1
 90
        1
176
     1
 90
        1
176
     1
 40
1.0
176
     1
 90
        0
176
     1
 62
   257
176
     1
 40
1.0
176
     1
 90
        1
176
     1
 90
        6
176
     1
 90
        2
176
     1
 62
     7
176
     1
 90
        5
176
     1
 90
        0
176
     1
 90
        0
176
     1
290
     0
176
     1
 90
       13
176
     1
 40
0.0
176
     1
 90
        0
176
     1
290
     0
176
     1
290
     1
176
     1
290
     1
176
     1
290
     0
176
     1
290
     0
176
     1
290
     0
176
     1
290
     0
176
     1
290
     0
176
     1
290
     0
176
     1
 90
       50
176
     1
 40
0.0
176
     1
 40
1.0
176
     1
 90
        0
176
     1
 62
    18
420
        0
176
     1
 90
       50
176
     1
 90
        3
176
     1
 62
     5
420
      255
176
     1
290
     0
176
     1
 90
       50
176
     1
 90
       50
176
     1
 90
       50
176
     1
290
     0
176
     1
 90
       50
176
     1
 62
   256
176
     0
 40
1.0
176
     0
 90
        2
176
     1
  1
strokes_ogs.tif
176
     1
290
     0
176
     1
 40
1.0
176
     1
 40
1.0
176
     1
  0
VISUALSTYLE
  5
2C
102
{ACAD_REACTORS
330
29
102
}
330
29
100
AcDbVisualStyle
  2
Gouraud
 70
     2
177
     3
291
     1
 70
    58
 90
        2
176
     1
 90
        2
176
     1
 90
        1
176
     1
 90
        2
176
     1
 40
0.6
176
     1
 40
30.0
176
     1
 62
     7
420
 16777215
176
     1
 90
        0
176
     1
 90
        0
176
     1
 62
     7
176
     1
 62
   257
176
     1
 90
        1
176
     1
 90
        1
176
     1
 40
1.0
176
     1
 90
        0
176
     1
 62
     7
176
     1
 40
1.0
176
     1
 90
        1
176
     1
 90
        6
176
     1
 90
        2
176
     1
 62
     7
176
     1
 90
        5
176
     1
 90
        0
176
     1
 90
        0
176
     1
290
     0
176
     1
 90
       13
176
     1
 40
0.0
176
     1
 90
        0
176
     1
290
     0
176
     1
290
     1
176
     1
290
     1
176
     1
290
     0
176
     1
290
     0
176
     1
290
     0
176
     1
290
     0
176
     1
290
     0
176
     1
290
     0
176
     1
 90
       50
176
     1
 40
0.0
176
     1
 40
1.0
176
     1
 90
        0
176
     1
 62
    18
420
        0
176
     1
 90
       50
176
     1
 90
        3
176
     1
 62
     5
420
      255
176
     1
290
     0
176
     1
 90
       50
176
     1
 90
       50
176
     1
 90
       50
176
     1
290
     0
176
     1
 90
       50
176
     1
 62
   256
176
     0
 40
1.0
176
     0
 90
        2
176
     1
  1
strokes_ogs.tif
176
     1
290
     0
176
     1
 40
1.0
176
     1
 40
1.0
176
     1
  0
VISUALSTYLE
  5
2D
102
{ACAD_REACTORS
330
29
102
}
330
29
100
AcDbVisualStyle
  2
GouraudWithEdges
 70
     3
177
     3
291
     1
 70
    58
 90
        2
176
     1
 90
        2
176
     1
 90
        1
176
     1
 90
        2
176
     1
 40
0.6
176
     1
 40
30.0
176
     1
 62
     7
420
 16777215
176
     1
 90
        1
176
     1
 90
        0
176
     1
 62
     7
176
     1
 62
   257
176
     1
 90
        1
176
     1
 90
        1
176
     1
 40
1.0
176
     1
 90
        0
176
     1
 62
   257
176
     1
 40
1.0
176
     1
 90
        1
176
     1
 90
        6
176
     1
 90
        2
176
     1
 62
     7
176
     1
 90
        5
176
     1
 90
        0
176
     1
 90
        0
176
     1
290
     0
176
     1
 90
       13
176
     1
 40
0.0
176
     1
 90
        0
176
     1
290
     0
176
     1
290
     1
176
     1
290
     1
176
     1
290
     0
176
     1
290
     0
176
     1
290
     0
176
     1
290
     0
176
     1
290
     0
176
     1
290
     0
176
     1
 90
       50
176
     1
 40
0.0
176
     1
 40
1.0
176
     1
 90
        0
176
     1
 62
    18
420
        0
176
     1
 90
       50
176
     1
 90
        3
176
     1
 62
     5
420
      255
176
     1
290
     0
176
     1
 90
       50
176
     1
 90
       50
176
     1
 90
       50
176
     1
290
     0
176
     1
 90
       50
176
     1
 62
   256
176
     0
 40
1.0
176
     0
 90
        2
176
     1
  1
strokes_ogs.tif
176
     1
290
     0
176
     1
 40
1.0
176
     1
 40
1.0
176
     1
  0
VISUALSTYLE
  5
31
102
{ACAD_REACTORS
330
29
102
}
330
29
100
AcDbVisualStyle
  2
Hidden
 70
     6
177
     3
291
     0
 70
    58
 90
        1
176
     1
 90
        2
176
     1
 90
        2
176
     1
 90
        0
176
     1
 40
0.6
176
     1
 40
30.0
176
     1
 62
     7
420
 16777215
176
     1
 90
        2
176
     1
 90
        2
176
     1
 62
     7
176
     1
 62
   257
176
     1
 90
        2
176
     1
 90
        1
176
     1
 40
40.0
176
     1
 90
        0
176
     1
 62
   257
176
     1
 40
1.0
176
     1
 90
        1
176
     1
 90
        6
176
     1
 90
        2
176
     1
 62
     7
176
     1
 90
        3
176
     1
 90
        0
176
     1
 90
        0
176
     1
290
     0
176
     1
 90
        1
176
     1
 40
0.0
176
     1
 90
        0
176
     1
290
     0
176
     1
290
     1
176
     1
290
     1
176
     1
290
     0
176
     1
290
     0
176
     1
290
     0
176
     1
290
     0
176
     1
290
     0
176
     1
290
     0
176
     1
 90
       50
176
     1
 40
0.0
176
     1
 40
1.0
176
     1
 90
        0
176
     1
 62
    18
420
        0
176
     1
 90
       50
176
     1
 90
        3
176
     1
 62
     5
420
      255
176
     1
290
     0
176
     1
 90
       50
176
     1
 90
       50
176
     1
 90
       50
176
     1
290
     0
176
     1
 90
       50
176
     1
 62
   256
176
     0
 40
1.0
176
     0
 90
        2
176
     1
  1
strokes_ogs.tif
176
     1
290
     0
176
     1
 40
1.0
176
     1
 40
1.0
176
     1
  0
VISUALSTYLE
  5
3F
102
{ACAD_REACTORS
330
29
102
}
330
29
100
AcDbVisualStyle
  2
JitterOff
 70
    20
177
     3
291
     1
 70
    58
 90
        2
176
     0
 90
        2
176
     0
 90
        0
176
     0
 90
        0
176
     0
 40
0.6
176
     0
 40
30.0
176
     0
 62
     7
420
 16777215
176
     0
 90
        1
176
     0
 90
        4
176
     0
 62
     7
176
     0
 62
   257
176
     0
 90
        1
176
     0
 90
        1
176
     0
 40
1.0
176
     0
 90
       10
176
     2
 62
     7
176
     0
 40
1.0
176
     0
 90
        1
176
     0
 90
        6
176
     0
 90
        2
176
     0
 62
     7
176
     0
 90
        5
176
     0
 90
        0
176
     0
 90
        0
176
     0
290
     0
176
     0
 90
        1
176
     0
 40
0.0
176
     0
 90
        0
176
     0
290
     0
176
     0
290
     1
176
     0
290
     1
176
     0
290
     0
176
     0
290
     0
176
     0
290
     0
176
     0
290
     0
176
     0
290
     0
176
     0
290
     0
176
     0
 90
       50
176
     0
 40
0.0
176
     0
 40
1.0
176
     0
 90
        0
176
     0
 62
    18
420
        0
176
     0
 90
       50
176
     0
 90
        3
176
     0
 62
     5
420
      255
176
     0
290
     0
176
     0
 90
       50
176
     0
 90
       50
176
     0
 90
       50
176
     0
290
     0
176
     0
 90
       50
176
     0
 62
   256
176
     0
 40
1.0
176
     0
 90
        2
176
     0
  1
strokes_ogs.tif
176
     0
290
     0
176
     0
 40
1.0
176
     0
 40
1.0
176
     0
  0
VISUALSTYLE
  5
37
102
{ACAD_REACTORS
330
29
102
}
330
29
100
AcDbVisualStyle
  2
Linepattern
 70
    14
177
     3
291
     1
 70
    58
 90
        2
176
     1
 90
        2
176
     1
 90
        0
176
     1
 90
        0
176
     1
 40
0.6
176
     1
 40
30.0
176
     1
 62
     7
420
 16777215
176
     1
 90
        1
176
     1
 90
        4
176
     1
 62
     7
176
     1
 62
   257
176
     1
 90
        7
176
     1
 90
        7
176
     1
 40
1.0
176
     1
 90
        8
176
     1
 62
     7
176
     1
 40
1.0
176
     1
 90
        1
176
     1
 90
        6
176
     1
 90
        2
176
     1
 62
     7
176
     1
 90
        5
176
     1
 90
        0
176
     1
 90
        0
176
     1
290
     0
176
     1
 90
        1
176
     1
 40
0.0
176
     1
 90
        0
176
     1
290
     0
176
     1
290
     1
176
     1
290
     1
176
     1
290
     0
176
     1
290
     0
176
     1
290
     0
176
     1
290
     0
176
     1
290
     0
176
     1
290
     0
176
     1
 90
       50
176
     1
 40
0.0
176
     1
 40
1.0
176
     1
 90
        0
176
     1
 62
    18
420
        0
176
     1
 90
       50
176
     1
 90
        3
176
     1
 62
     5
420
      255
176
     1
290
     0
176
     1
 90
       50
176
     1
 90
       50
176
     1
 90
       50
176
     1
290
     0
176
     1
 90
       50
176
     1
 62
   256
176
     0
 40
1.0
176
     0
 90
        2
176
     1
  1
strokes_ogs.tif
176
     1
290
     0
176
     1
 40
1.0
176
     1
 40
1.0
176
     1
  0
VISUALSTYLE
  5
40
102
{ACAD_REACTORS
330
29
102
}
330
29
100
AcDbVisualStyle
  2
OverhangOff
 70
    21
177
     3
291
     1
 70
    58
 90
        2
176
     0
 90
        2
176
     0
 90
        0
176
     0
 90
        0
176
     0
 40
0.6
176
     0
 40
30.0
176
     0
 62
     7
420
 16777215
176
     0
 90
        1
176
     0
 90
        4
176
     0
 62
     7
176
     0
 62
   257
176
     0
 90
        1
176
     0
 90
        1
176
     0
 40
1.0
176
     0
 90
        9
176
     2
 62
     7
176
     0
 40
1.0
176
     0
 90
        1
176
     0
 90
        6
176
     0
 90
        2
176
     0
 62
     7
176
     0
 90
        5
176
     0
 90
        0
176
     0
 90
        0
176
     0
290
     0
176
     0
 90
        1
176
     0
 40
0.0
176
     0
 90
        0
176
     0
290
     0
176
     0
290
     1
176
     0
290
     1
176
     0
290
     0
176
     0
290
     0
176
     0
290
     0
176
     0
290
     0
176
     0
290
     0
176
     0
290
     0
176
     0
 90
       50
176
     0
 40
0.0
176
     0
 40
1.0
176
     0
 90
        0
176
     0
 62
    18
420
        0
176
     0
 90
       50
176
     0
 90
        3
176
     0
 62
     5
420
      255
176
     0
290
     0
176
     0
 90
       50
176
     0
 90
       50
176
     0
 90
       50
176
     0
290
     0
176
     0
 90
       50
176
     0
 62
   256
176
     0
 40
1.0
176
     0
 90
        2
176
     0
  1
strokes_ogs.tif
176
     0
290
     0
176
     0
 40
1.0
176
     0
 40
1.0
176
     0
  0
VISUALSTYLE
  5
33
102
{ACAD_REACTORS
330
29
102
}
330
29
100
AcDbVisualStyle
  2
Realistic
 70
     8
177
     3
291
     0
 70
    58
 90
        2
176
     1
 90
        3
176
     1
 90
        0
176
     1
 90
        2
176
     1
 40
0.6
176
     1
 40
30.0
176
     1
 62
     7
420
 16777215
176
     1
 90
        0
176
     1
 90
        0
176
     1
 62
     7
176
     1
 62
   257
176
     1
 90
        1
176
     1
 90
        1
176
     1
 40
1.0
176
     1
 90
        8
176
     1
 62
   257
176
     1
 40
1.0
176
     1
 90
        1
176
     1
 90
        6
176
     1
 90
        2
176
     1
 62
     7
176
     1
 90
        3
176
     1
 90
        0
176
     1
 90
        0
176
     1
290
     0
176
     1
 90
       13
176
     1
 40
0.0
176
     1
 90
        0
176
     1
290
     0
176
     1
290
     1
176
     1
290
     1
176
     1
290
     0
176
     1
290
     0
176
     1
290
     0
176
     1
290
     0
176
     1
290
     0
176
     1
290
     0
176
     1
 90
       50
176
     1
 40
0.0
176
     1
 40
1.0
176
     1
 90
        0
176
     1
 62
    18
420
        0
176
     1
 90
       50
176
     1
 90
        3
176
     1
 62
     5
420
      255
176
     1
290
     0
176
     1
 90
       50
176
     1
 90
       50
176
     1
 90
       50
176
     1
290
     0
176
     1
 90
       50
176
     1
 62
   256
176
     0
 40
1.0
176
     0
 90
        2
176
     1
  1
strokes_ogs.tif
176
     1
290
     0
176
     1
 40
1.0
176
     1
 40
1.0
176
     1
  0
VISUALSTYLE
  5
3E
102
{ACAD_REACTORS
330
29
102
}
330
29
100
AcDbVisualStyle
  2
Shaded
 70
    27
177
     3
291
     0
 70
    58
 90
        2
176
     1
 90
        2
176
     1
 90
        1
176
     1
 90
        2
176
     1
 40
0.6
176
     1
 40
30.0
176
     1
 62
     7
420
 16777215
176
     1
 90
        0
176
     1
 90
        4
176
     1
 62
     7
176
     1
 62
   257
176
     1
 90
        1
176
     1
 90
        1
176
     1
 40
1.0
176
     1
 90
        8
176
     1
 62
   257
176
     1
 40
1.0
176
     1
 90
        1
176
     1
 90
        6
176
     1
 90
        2
176
     1
 62
     8
420
  7895160
176
     1
 90
        3
176
     1
 90
        0
176
     1
 90
        0
176
     1
290
     0
176
     1
 90
        5
176
     1
 40
0.0
176
     1
 90
        0
176
     1
290
     0
176
     1
290
     1
176
     1
290
     1
176
     1
290
     0
176
     1
290
     0
176
     1
290
     0
176
     1
290
     0
176
     1
290
     0
176
     1
290
     0
176
     1
 90
       50
176
     1
 40
0.0
176
     1
 40
1.0
176
     1
 90
        0
176
     1
 62
    18
420
        0
176
     1
 90
       50
176
     1
 90
        3
176
     1
 62
     5
420
      255
176
     1
290
     0
176
     1
 90
       50
176
     1
 90
       50
176
     1
 90
       50
176
     1
290
     0
176
     1
 90
       50
176
     1
 62
   256
176
     0
 40
1.0
176
     0
 90
        2
176
     1
  1
strokes_ogs.tif
176
     1
290
     0
176
     1
 40
1.0
176
     1
 40
1.0
176
     1
  0
VISUALSTYLE
  5
3D
102
{ACAD_REACTORS
330
29
102
}
330
29
100
AcDbVisualStyle
  2
Shaded with edges
 70
    26
177
     3
291
     0
 70
    58
 90
        2
176
     1
 90
        2
176
     1
 90
        1
176
     1
 90
        2
176
     1
 40
0.6
176
     1
 40
30.0
176
     1
 62
     7
420
 16777215
176
     1
 90
        1
176
     1
 90
       10
176
     1
 62
     7
176
     1
 62
   257
176
     1
 90
        2
176
     1
 90
        1
176
     1
 40
1.0
176
     1
 90
        8
176
     1
 62
   257
176
     1
 40
1.0
176
     1
 90
        1
176
     1
 90
        6
176
     1
 90
        2
176
     1
 62
     7
176
     1
 90
        3
176
     1
 90
        0
176
     1
 90
        0
176
     1
290
     0
176
     1
 90
        5
176
     1
 40
0.0
176
     1
 90
        0
176
     1
290
     0
176
     1
290
     1
176
     1
290
     1
176
     1
290
     0
176
     1
290
     0
176
     1
290
     0
176
     1
290
     0
176
     1
290
     0
176
     1
290
     0
176
     1
 90
       50
176
     1
 40
0.0
176
     1
 40
1.0
176
     1
 90
        0
176
     1
 62
    18
420
        0
176
     1
 90
       50
176
     1
 90
        3
176
     1
 62
     5
420
      255
176
     1
290
     0
176
     1
 90
       50
176
     1
 90
       50
176
     1
 90
       50
176
     1
290
     0
176
     1
 90
       50
176
     1
 62
   256
176
     0
 40
1.0
176
     0
 90
        2
176
     1
  1
strokes_ogs.tif
176
     1
290
     0
176
     1
 40
1.0
176
     1
 40
1.0
176
     1
  0
VISUALSTYLE
  5
3A
102
{ACAD_REACTORS
330
29
102
}
330
29
100
AcDbVisualStyle
  2
Shades of Gray
 70
    23
177
     3
291
     0
 70
    58
 90
        2
176
     1
 90
        2
176
     1
 90
        3
176
     1
 90
        0
176
     1
 40
0.6
176
     1
 40
30.0
176
     1
 62
     7
420
 16777215
176
     1
 90
        2
176
     1
 90
        2
176
     1
 62
     7
176
     1
 62
     7
176
     1
 90
        1
176
     1
 90
        1
176
     1
 40
40.0
176
     1
 90
        8
176
     1
 62
     7
176
     1
 40
1.0
176
     1
 90
        1
176
     1
 90
        6
176
     1
 90
        2
176
     1
 62
     7
176
     1
 90
        3
176
     1
 90
        0
176
     1
 90
        0
176
     1
290
     0
176
     1
 90
        1
176
     1
 40
0.0
176
     1
 90
        0
176
     1
290
     0
176
     1
290
     1
176
     1
290
     1
176
     1
290
     0
176
     1
290
     0
176
     1
290
     0
176
     1
290
     0
176
     1
290
     0
176
     1
290
     0
176
     1
 90
       50
176
     1
 40
0.0
176
     1
 40
1.0
176
     1
 90
        0
176
     1
 62
    18
420
        0
176
     1
 90
       50
176
     1
 90
        3
176
     1
 62
     5
420
      255
176
     1
290
     0
176
     1
 90
       50
176
     1
 90
       50
176
     1
 90
       50
176
     1
290
     0
176
     1
 90
       50
176
     1
 62
   256
176
     0
 40
1.0
176
     0
 90
        2
176
     1
  1
strokes_ogs.tif
176
     1
290
     0
176
     1
 40
1.0
176
     1
 40
1.0
176
     1
  0
VISUALSTYLE
  5
3B
102
{ACAD_REACTORS
330
29
102
}
330
29
100
AcDbVisualStyle
  2
Sketchy
 70
    24
177
     3
291
     0
 70
    58
 90
        1
176
     1
 90
        2
176
     1
 90
        2
176
     1
 90
        0
176
     1
 40
0.6
176
     1
 40
30.0
176
     1
 62
     7
420
 16777215
176
     1
 90
        2
176
     1
 90
        2
176
     1
 62
     7
176
     1
 62
     7
176
     1
 90
        1
176
     1
 90
        1
176
     1
 40
40.0
176
     1
 90
       11
176
     1
 62
     7
176
     1
 40
1.0
176
     1
 90
        1
176
     1
 90
        6
176
     1
 90
        2
176
     1
 62
     7
176
     1
 90
        6
176
     1
 90
        0
176
     1
 90
        0
176
     1
290
     0
176
     1
 90
        1
176
     1
 40
0.0
176
     1
 90
        0
176
     1
290
     0
176
     1
290
     1
176
     1
290
     1
176
     1
290
     0
176
     1
290
     0
176
     1
290
     0
176
     1
290
     0
176
     1
290
     0
176
     1
290
     0
176
     1
 90
       50
176
     1
 40
0.0
176
     1
 40
1.0
176
     1
 90
        0
176
     1
 62
    18
420
        0
176
     1
 90
       50
176
     1
 90
        3
176
     1
 62
     5
420
      255
176
     1
290
     0
176
     1
 90
       50
176
     1
 90
       50
176
     1
 90
       50
176
     1
290
     0
176
     1
 90
       50
176
     1
 62
   256
176
     0
 40
1.0
176
     0
 90
        2
176
     1
  1
strokes_ogs.tif
176
     1
290
     0
176
     1
 40
1.0
176
     1
 40
1.0
176
     1
  0
VISUALSTYLE
  5
36
102
{ACAD_REACTORS
330
29
102
}
330
29
100
AcDbVisualStyle
  2
Thicken
 70
    13
177
     3
291
     1
 70
    58
 90
        2
176
     1
 90
        2
176
     1
 90
        0
176
     1
 90
        0
176
     1
 40
0.6
176
     1
 40
30.0
176
     1
 62
     7
420
 16777215
176
     1
 90
        1
176
     1
 90
        4
176
     1
 62
     7
176
     1
 62
   257
176
     1
 90
        1
176
     1
 90
        1
176
     1
 40
1.0
176
     1
 90
       12
176
     1
 62
     7
176
     1
 40
1.0
176
     1
 90
        1
176
     1
 90
        6
176
     1
 90
        2
176
     1
 62
     7
176
     1
 90
        5
176
     1
 90
        0
176
     1
 90
        0
176
     1
290
     0
176
     1
 90
        1
176
     1
 40
0.0
176
     1
 90
        0
176
     1
290
     0
176
     1
290
     1
176
     1
290
     1
176
     1
290
     0
176
     1
290
     0
176
     1
290
     0
176
     1
290
     0
176
     1
290
     0
176
     1
290
     0
176
     1
 90
       50
176
     1
 40
0.0
176
     1
 40
1.0
176
     1
 90
        0
176
     1
 62
    18
420
        0
176
     1
 90
       50
176
     1
 90
        3
176
     1
 62
     5
420
      255
176
     1
290
     0
176
     1
 90
       50
176
     1
 90
       50
176
     1
 90
       50
176
     1
290
     0
176
     1
 90
       50
176
     1
 62
   256
176
     0
 40
1.0
176
     0
 90
        2
176
     1
  1
strokes_ogs.tif
176
     1
290
     0
176
     1
 40
1.0
176
     1
 40
1.0
176
     1
  0
VISUALSTYLE
  5
30
102
{ACAD_REACTORS
330
29
102
}
330
29
100
AcDbVisualStyle
  2
Wireframe
 70
     5
177
     3
291
     0
 70
    58
 90
        0
176
     1
 90
        2
176
     1
 90
        0
176
     1
 90
        0
176
     1
 40
0.6
176
     1
 40
30.0
176
     1
 62
     7
420
 16777215
176
     1
 90
        1
176
     1
 90
        4
176
     1
 62
     7
176
     1
 62
   257
176
     1
 90
        1
176
     1
 90
        1
176
     1
 40
1.0
176
     1
 90
        0
176
     1
 62
   257
176
     1
 40
1.0
176
     1
 90
        1
176
     1
 90
        6
176
     1
 90
        2
176
     1
 62
     7
176
     1
 90
        3
176
     1
 90
        0
176
     1
 90
        0
176
     1
290
     0
176
     1
 90
        1
176
     1
 40
0.0
176
     1
 90
        0
176
     1
290
     0
176
     1
290
     1
176
     1
290
     1
176
     1
290
     0
176
     1
290
     0
176
     1
290
     0
176
     1
290
     0
176
     1
290
     0
176
     1
290
     0
176
     1
 90
       50
176
     1
 40
0.0
176
     1
 40
1.0
176
     1
 90
        0
176
     1
 62
    18
420
        0
176
     1
 90
       50
176
     1
 90
        3
176
     1
 62
     5
420
      255
176
     1
290
     0
176
     1
 90
       50
176
     1
 90
       50
176
     1
 90
       50
176
     1
290
     0
176
     1
 90
       50
176
     1
 62
   256
176
     0
 40
1.0
176
     0
 90
        2
176
     1
  1
strokes_ogs.tif
176
     1
290
     0
176
     1
 40
1.0
176
     1
 40
1.0
176
     1
  0
VISUALSTYLE
  5
3C
102
{ACAD_REACTORS
330
29
102
}
330
29
100
AcDbVisualStyle
  2
X-Ray
 70
    25
177
     3
291
     0
 70
    58
 90
        2
176
     1
 90
        2
176
     1
 90
        1
176
     1
 90
        1
176
     1
 40
0.5
176
     1
 40
30.0
176
     1
 62
     7
420
 16777215
176
     1
 90
        1
176
     1
 90
        0
176
     1
 62
     7
176
     1
 62
   257
176
     1
 90
        1
176
     1
 90
        1
176
     1
 40
1.0
176
     1
 90
        8
176
     1
 62
     7
176
     1
 40
1.0
176
     1
 90
        1
176
     1
 90
        6
176
     1
 90
        2
176
     1
 62
     7
176
     1
 90
        3
176
     1
 90
        0
176
     1
 90
        0
176
     1
290
     0
176
     1
 90
       13
176
     1
 40
0.0
176
     1
 90
        0
176
     1
290
     0
176
     1
290
     1
176
     1
290
     1
176
     1
290
     0
176
     1
290
     0
176
     1
290
     0
176
     1
290
     0
176
     1
290
     0
176
     1
290
     0
176
     1
 90
       50
176
     1
 40
0.0
176
     1
 40
1.0
176
     1
 90
        0
176
     1
 62
    18
420
        0
176
     1
 90
       50
176
     1
 90
        3
176
     1
 62
     5
420
      255
176
     1
290
     0
176
     1
 90
       50
176
     1
 90
       50
176
     1
 90
       50
176
     1
290
     0
176
     1
 90
       50
176
     1
 62
   256
176
     0
 40
1.0
176
     0
 90
        2
176
     1
  1
strokes_ogs.tif
176
     1
290
     0
176
     1
 40
1.0
176
     1
 40
1.0
176
     1
  0
DICTIONARYVAR
  5
462
102
{ACAD_REACTORS
330
45D
102
}
330
45D
100
DictionaryVariables
280
     0
  1
1:1
  0
DICTIONARYVAR
  5
45F
102
{ACAD_REACTORS
330
45D
102
}
330
45D
100
DictionaryVariables
280
     0
  1
STANDARD
  0
DICTIONARYVAR
  5
45E
102
{ACAD_REACTORS
330
45D
102
}
330
45D
100
DictionaryVariables
280
     0
  1
STANDARD
  0
DICTIONARYVAR
  5
460
102
{ACAD_REACTORS
330
45D
102
}
330
45D
100
DictionaryVariables
280
     0
  1
Imperial24
  0
DICTIONARYVAR
  5
461
102
{ACAD_REACTORS
330
45D
102
}
330
45D
100
DictionaryVariables
280
     0
  1
Imperial24
  0
DICTIONARY
  5
4BB
330
6A
100
AcDbDictionary
280
     1
281
     1
  3
ACAD_XREC_ROUNDTRIP
360
4BC
  0
DICTIONARY
  5
45B
330
72
100
AcDbDictionary
280
     1
281
     1
  0
DICTIONARY
  5
1A
330
19
100
AcDbDictionary
280
     1
281
     1
  3
BUMPTILE
360
1C
  3
DIFFUSETILE
360
1B
  3
OPACITYTILE
360
1F
  3
REFLECTIONTILE
360
1E
  3
REFRACTIONTILE
360
20
  3
SPECULARTILE
360
1D
  0
DICTIONARY
  5
12
330
11
100
AcDbDictionary
280
     1
281
     1
  3
BUMPTILE
360
14
  3
DIFFUSETILE
360
13
  3
OPACITYTILE
360
17
  3
REFLECTIONTILE
360
16
  3
REFRACTIONTILE
360
18
  3
SPECULARTILE
360
15
  0
DICTIONARY
  5
22
330
21
100
AcDbDictionary
280
     1
281
     1
  3
BUMPTILE
360
24
  3
DIFFUSETILE
360
23
  3
OPACITYTILE
360
27
  3
REFLECTIONTILE
360
26
  3
REFRACTIONTILE
360
28
  3
SPECULARTILE
360
25
  0
DICTIONARY
  5
4B9
330
68
100
AcDbDictionary
280
     1
281
     1
  3
ACAD_XREC_ROUNDTRIP
360
4BA
  0
DICTIONARY
  5
4B7
330
64
100
AcDbDictionary
280
     1
281
     1
  3
ACAD_ROUNDTRIP_2008_TABLESTYLE_CELLSTYLEMAP
360
4B8
  0
XRECORD
  5
4BC
102
{ACAD_REACTORS
330
4BB
102
}
330
4BB
100
AcDbXrecord
280
     1
102
DISPLAYNAME
  1
Imperial24
102
FLAGS
 90
        0
  0
XRECORD
  5
1C
102
{ACAD_REACTORS
330
1A
102
}
330
1A
100
AcDbXrecord
280
     1
270
     1
271
     1
  0
XRECORD
  5
1B
102
{ACAD_REACTORS
330
1A
102
}
330
1A
100
AcDbXrecord
280
     1
270
     1
271
     1
  0
XRECORD
  5
1F
102
{ACAD_REACTORS
330
1A
102
}
330
1A
100
AcDbXrecord
280
     1
270
     1
271
     1
  0
XRECORD
  5
1E
102
{ACAD_REACTORS
330
1A
102
}
330
1A
100
AcDbXrecord
280
     1
270
     1
271
     1
  0
XRECORD
  5
20
102
{ACAD_REACTORS
330
1A
102
}
330
1A
100
AcDbXrecord
280
     1
270
     1
271
     1
  0
XRECORD
  5
1D
102
{ACAD_REACTORS
330
1A
102
}
330
1A
100
AcDbXrecord
280
     1
270
     1
271
     1
  0
XRECORD
  5
14
102
{ACAD_REACTORS
330
12
102
}
330
12
100
AcDbXrecord
280
     1
270
     1
271
     1
  0
XRECORD
  5
13
102
{ACAD_REACTORS
330
12
102
}
330
12
100
AcDbXrecord
280
     1
270
     1
271
     1
  0
XRECORD
  5
17
102
{ACAD_REACTORS
330
12
102
}
330
12
100
AcDbXrecord
280
     1
270
     1
271
     1
  0
XRECORD
  5
16
102
{ACAD_REACTORS
330
12
102
}
330
12
100
AcDbXrecord
280
     1
270
     1
271
     1
  0
XRECORD
  5
18
102
{ACAD_REACTORS
330
12
102
}
330
12
100
AcDbXrecord
280
     1
270
     1
271
     1
  0
XRECORD
  5
15
102
{ACAD_REACTORS
330
12
102
}
330
12
100
AcDbXrecord
280
     1
270
     1
271
     1
  0
XRECORD
  5
24
102
{ACAD_REACTORS
330
22
102
}
330
22
100
AcDbXrecord
280
     1
270
     1
271
     1
  0
XRECORD
  5
23
102
{ACAD_REACTORS
330
22
102
}
330
22
100
AcDbXrecord
280
     1
270
     1
271
     1
  0
XRECORD
  5
27
102
{ACAD_REACTORS
330
22
102
}
330
22
100
AcDbXrecord
280
     1
270
     1
271
     1
  0
XRECORD
  5
26
102
{ACAD_REACTORS
330
22
102
}
330
22
100
AcDbXrecord
280
     1
270
     1
271
     1
  0
XRECORD
  5
28
102
{ACAD_REACTORS
330
22
102
}
330
22
100
AcDbXrecord
280
     1
270
     1
271
     1
  0
XRECORD
  5
25
102
{ACAD_REACTORS
330
22
102
}
330
22
100
AcDbXrecord
280
     1
270
     1
271
     1
  0
XRECORD
  5
4BA
102
{ACAD_REACTORS
330
4B9
102
}
330
4B9
100
AcDbXrecord
280
     1
102
DISPLAYNAME
  1
Imperial24
102
FLAGS
 90
        0
  0
CELLSTYLEMAP
  5
4B8
102
{ACAD_REACTORS
330
4B7
102
}
330
4B7
100
AcDbCellStyleMap
 90
        3
300
CELLSTYLE
  1
TABLEFORMAT_BEGIN
 90
        5
170
     1
 91
        0
 92
    32768
 62
   257
 93
        1
300
CONTENTFORMAT
  1
CONTENTFORMAT_BEGIN
 90
        0
 91
        0
 92
      512
 93
        0
300

 40
0.0
140
1.0
 94
        5
 62
     0
340
55
144
0.25
309
CONTENTFORMAT_END
171
     0
 94
        0
309
TABLEFORMAT_END
  1
CELLSTYLE_BEGIN
 90
        1
 91
        1
300
_TITLE
309
CELLSTYLE_END
300
CELLSTYLE
  1
TABLEFORMAT_BEGIN
 90
        5
170
     1
 91
        0
 92
        0
 62
   257
 93
        1
300
CONTENTFORMAT
  1
CONTENTFORMAT_BEGIN
 90
        0
 91
        0
 92
      512
 93
        0
300

 40
0.0
140
1.0
 94
        5
 62
     0
340
55
144
0.18
309
CONTENTFORMAT_END
171
     0
 94
        0
309
TABLEFORMAT_END
  1
CELLSTYLE_BEGIN
 90
        2
 91
        1
300
_HEADER
309
CELLSTYLE_END
300
CELLSTYLE
  1
TABLEFORMAT_BEGIN
 90
        5
170
     1
 91
        0
 92
        0
 62
   257
 93
        1
300
CONTENTFORMAT
  1
CONTENTFORMAT_BEGIN
 90
        0
 91
        0
 92
      512
 93
        0
300

 40
0.0
140
1.0
 94
        2
 62
     0
340
55
144
0.18
309
CONTENTFORMAT_END
171
     0
 94
        0
309
TABLEFORMAT_END
  1
CELLSTYLE_BEGIN
 90
        3
 91
        2
300
_DATA
309
CELLSTYLE_END
  0
ENDSEC
  0
SECTION
  2
ACDSDATA
 70
     2
 71
     6
  0
ACDSSCHEMA
 90
        0
  1
AcDb_Thumbnail_Schema
  2
AcDbDs::ID
280
    10
 91
        8
  2
Thumbnail_Data
280
    15
 91
        0
101
ACDSRECORD
 95
        0
 90
        1
  2
AcDbDs::TreatedAsObjectData
280
     1
291
     1
101
ACDSRECORD
 95
        0
 90
        2
  2
AcDbDs::Legacy
280
     1
291
     1
101
ACDSRECORD
  1
AcDbDs::ID
 90
        3
  2
AcDs:Indexable
280
     1
291
     1
101
ACDSRECORD
  1
AcDbDs::ID
 90
        4
  2
AcDbDs::HandleAttribute
280
     7
282
     1
  0
ACDSSCHEMA
 90
        1
  1
AcDbDs::TreatedAsObjectDataSchema
  2
AcDbDs::TreatedAsObjectData
280
     1
 91
        0
  0
ACDSSCHEMA
 90
        2
  1
AcDbDs::LegacySchema
  2
AcDbDs::Legacy
280
     1
 91
        0
  0
ACDSSCHEMA
 90
        3
  1
AcDbDs::IndexedPropertySchema
  2
AcDs:Indexable
280
     1
 91
        0
  0
ACDSSCHEMA
 90
        4
  1
AcDbDs::HandleAttributeSchema
  2
AcDbDs::HandleAttribute
280
     7
 91
        1
284
     1
  0
ACDSRECORD
 90
        0
  2
AcDbDs::ID
280
    10
320
72
  2
Thumbnail_Data
280
    15
 94
     2058
310
89504E470D0A1A0A0000000D49484452000001000000009B0803000000BA7AB56000000300504C54455B5B5B000000C8C8C80000000000000000000000000000000000000000000000000000330000660000990000CC0000FF0033000033330033660033990033CC0033FF0066000066330066660066990066CC0066FF0099
310
000099330099660099990099CC0099FF00CC0000CC3300CC6600CC9900CCCC00CCFF00FF0000FF3300FF6600FF9900FFCC00FFFF3300003300333300663300993300CC3300FF3333003333333333663333993333CC3333FF3366003366333366663366993366CC3366FF3399003399333399663399993399CC3399FF33CC00
310
33CC3333CC6633CC9933CCCC33CCFF33FF0033FF3333FF6633FF9933FFCC33FFFF6600006600336600666600996600CC6600FF6633006633336633666633996633CC6633FF6666006666336666666666996666CC6666FF6699006699336699666699996699CC6699FF66CC0066CC3366CC6666CC9966CCCC66CCFF66FF0066
310
FF3366FF6666FF9966FFCC66FFFF9900009900339900669900999900CC9900FF9933009933339933669933999933CC9933FF9966009966339966669966999966CC9966FF9999009999339999669999999999CC9999FF99CC0099CC3399CC6699CC9999CCCC99CCFF99FF0099FF3399FF6699FF9999FFCC99FFFFCC0000CC00
310
33CC0066CC0099CC00CCCC00FFCC3300CC3333CC3366CC3399CC33CCCC33FFCC6600CC6633CC6666CC6699CC66CCCC66FFCC9900CC9933CC9966CC9999CC99CCCC99FFCCCC00CCCC33CCCC66CCCC99CCCCCCCCCCFFCCFF00CCFF33CCFF66CCFF99CCFFCCCCFFFFFF0000FF0033FF0066FF0099FF00CCFF00FFFF3300FF3333
310
FF3366FF3399FF33CCFF33FFFF6600FF6633FF6666FF6699FF66CCFF66FFFF9900FF9933FF9966FF9999FF99CCFF99FFFFCC00FFCC33FFCC66FFCC99FFCCCCFFCCFFFFFF00FFFF33FFFF66FFFF99FFFFCCFFFFFF0000000D0D0D1A1A1A2828283535354343435050505D5D5D6B6B6B787878868686939393A1A1A1AEAEAEBB
310
BBBBC9C9C9D6D6D6E4E4E4F1F1F1FFFFFF00000000000000000000000000000000000000000000000000000000000054549EDE000004C54944415478DAED5D5B72E4200CE4427DFF3F9D2D19838CC0023C5BFB115A50957DB892AD9568B55A1283533AEBEF2C5C2BB0F9E5F7D8E64F1D408C0FB87F7C5A8FC0F65307C8DA01
310
48CC0E405A390029317B0069EE01BC08111AFB1F16B6D4CF6F7F1B0F8FC417C9015ED60F60BF3E70354F08FBAF27BFE64B64074892B8F6170F80D87E08207307246A06900BE313DD13C37EF9D201200AFB6C3FBEF3009103CAFECB50EFA0B4C7BA9FE2098162BFD57CAEE0B70F85C603B84950D615212C02401301EA02AC9B
310
02303FC5A403721C8C1CE0F8A207CCB62AAF46343A07D48847438E572FF463FF7E00C09CB79E1601DAFCBDB4A2DC2ED8D67E7CFF33B7C117EA8B0BB191FD55E7E31FE3D6A60925CA7DE2FF637F46EC276F0D9337EEE50BC5DBFEDFBF6E86FD4BE7995427738244E393FB1F304ED86C1CA6F697540719FCFF816B6FED481079
310
B305260204BB0D0455E28991BC3308A0298060ABE5CC009B0D0475DF73FC233382DFDEEA000005C59504B2FDC0760028A51E8CFD18F080DA6B49319B5B8200835AF1EF0BFDFCA51C26653989A0D5BF59061532106D0E63AF56C02704AE7DCF11ACA2407C14F4257F2A2050D7E8838D3C80BCFF860C3F4F32027C2EE81C60D8
310
B0E8E2BD58B0D01F72B1A3CD9F6CF8D20149B7DFECFB662C08699260F9A5EC7EF95AC2206FFD9D23F75201BAEF0A01B16D3091111934D560A5BFFDCE44B522C8B43C74F70719C19A5F2AC2ED36DF367B4AE8773A58077E735D004F266DA604ABFD8DA9361B3C505095E0AD7FB63C1488B60878B4316E2EE850F06C08025B36
310
416B115820F060491F0116007B9F88C36CFF5B27F800D8BDF99D8BA0E4347D5B07B48AE02E0112C369E0BB1D346B8B4BA308D8CE41E291026BCDDB00811200D922799CF7C358DB54CFE0F17C530F08FCE3ADE854C1101F3B6B0127989D69EFAA2E4820E2843A07486304CC7B66A46BEA0226527C930A5DD8706FFFAA3DC2FE
310
F9B162FDBA53C61E04A11D90E42040D609919E09B63C01F51F73416C10A8E191E9A0B64A6D24205414D4E159410110C803CDB82433029831E02A7C297ED02A91B712BA875F0E0AAC3664C5C0EC1A80028142031B9E0FFA06FD586843CE6AF8E5A7E025B18AA39703201309426BFF92DF1811F09503087B25F38B22022C84F7
310
40A2BF0DE42B1744BD350D931B32E2B820B2F991D17FD659D1335F54F3CF45A9611D10FB9ED8E3800300044F02889E0307075D81C9E501C194D161C7E0020971A901292C0380FE04F0A90DA6E04FA101C07D45FE3B0FC4668064F51F4E6B3CB80F82F78A74FB63C741781A38EBACE0EBCC8C62CFC983ABE2E9CB6462154681
310
0F4BA907620AA2AFCFCD924220728B80FD257A2FAA9FEE06B580F56FA42E61BD2B0D0E11C462FDEED03852844CD85C97D7364755152390FD2DF1958109B50BA62F4F037D81DC689EC7C5716662C6498858BC4B19AFBE9DA2EAF101D033039F07E68FF1F2FBB796802E043A0050ABE2491200FBFE3FAA9E880018BF42949F00
310
CC3E779BED0AC438F6238CFD98BC423600010295009B6AD00706A908864F75F4FB0FBF06BE09A07FCA9BFA80900030D40EB7D8D1A110AD00C2280BE88BB434146807E503BA8737200063F0C3AF789112F5D908EF3DAADD1890FA0E09B869BF1D83327F620C8B04C73F04C200009CF7037E53FAA7B81F133BA781427F4CB075
310
C2597F6DFD009CE66DC36B60DE070000000049454E44AE426082
  0
ENDSEC
  0
EOF
