  0
SECTION
  2
HEADER
  9
$ACADVER
  1
AC1027
  9
$ACADMAINTVER
 70
    55
  9
$DWGCODEPAGE
  3
ANSI_1252
  9
$LASTSAVEDBY
  1
crinne
  9
$REQUIREDVERSIONS
160
                 0
  9
$INSBASE
 10
0.0
 20
0.0
 30
0.0
  9
$EXTMIN
 10
6.030287181529274
 20
-17.59642602130316
 30
-0.0015258207003583
  9
$EXTMAX
 10
13.7512291010371
 20
-6.274407783377682
 30
0.0000000349246037
  9
$LIMMIN
 10
-2600.0
 20
-2600.0
  9
$LIMMAX
 10
2000.0
 20
200.0
  9
$ORTHOMODE
 70
     0
  9
$REGENMODE
 70
     1
  9
$FILLMODE
 70
     1
  9
$QTEXTMODE
 70
     0
  9
$MIRRTEXT
 70
     1
  9
$LTSCALE
 40
25.0
  9
$ATTMODE
 70
     1
  9
$TEXTSIZE
 40
7.0
  9
$TRACEWID
 40
1.0
  9
$TEXTSTYLE
  7
STANDARD
  9
$CLAYER
  8
BEFUNDSCHRAFF
  9
$CELTYPE
  6
ByLayer
  9
$CECOLOR
 62
   256
  9
$CELTSCALE
 40
1.0
  9
$DISPSILH
 70
     0
  9
$DIMSCALE
 40
1.0
  9
$DIMASZ
 40
3.5
  9
$DIMEXO
 40
0.1
  9
$DIMDLI
 40
7.0
  9
$DIMRND
 40
0.0
  9
$DIMDLE
 40
0.0
  9
$DIMEXE
 40
1.8
  9
$DIMTP
 40
0.0
  9
$DIMTM
 40
0.0
  9
$DIMTXT
 40
3.5
  9
$DIMCEN
 40
1.5
  9
$DIMTSZ
 40
0.0
  9
$DIMTOL
 70
     0
  9
$DIMLIM
 70
     0
  9
$DIMTIH
 70
     0
  9
$DIMTOH
 70
     0
  9
$DIMSE1
 70
     0
  9
$DIMSE2
 70
     0
  9
$DIMTAD
 70
     0
  9
$DIMZIN
 70
     0
  9
$DIMBLK
  1

  9
$DIMASO
 70
     1
  9
$DIMSHO
 70
     0
  9
$DIMPOST
  1

  9
$DIMAPOST
  1

  9
$DIMALT
 70
     0
  9
$DIMALTD
 70
     2
  9
$DIMALTF
 40
25.4
  9
$DIMLFAC
 40
1.0
  9
$DIMTOFL
 70
     0
  9
$DIMTVP
 40
0.0
  9
$DIMTIX
 70
     0
  9
$DIMSOXD
 70
     0
  9
$DIMSAH
 70
     0
  9
$DIMBLK1
  1

  9
$DIMBLK2
  1

  9
$DIMSTYLE
  2
Standard
  9
$DIMCLRD
 70
     0
  9
$DIMCLRE
 70
     0
  9
$DIMCLRT
 70
     0
  9
$DIMTFAC
 40
1.0
  9
$DIMGAP
 40
0.09
  9
$DIMJUST
 70
     0
  9
$DIMSD1
 70
     0
  9
$DIMSD2
 70
     0
  9
$DIMTOLJ
 70
     1
  9
$DIMTZIN
 70
     0
  9
$DIMALTZ
 70
     0
  9
$DIMALTTZ
 70
     0
  9
$DIMUPT
 70
     0
  9
$DIMDEC
 70
     2
  9
$DIMTDEC
 70
     2
  9
$DIMALTU
 70
     2
  9
$DIMALTTD
 70
     2
  9
$DIMTXSTY
  7
STANDARD
  9
$DIMAUNIT
 70
     0
  9
$DIMADEC
 70
     0
  9
$DIMALTRND
 40
0.0
  9
$DIMAZIN
 70
     0
  9
$DIMDSEP
 70
    46
  9
$DIMATFIT
 70
     3
  9
$DIMFRAC
 70
     0
  9
$DIMLDRBLK
  1

  9
$DIMLUNIT
 70
     2
  9
$DIMLWD
 70
    -2
  9
$DIMLWE
 70
    -2
  9
$DIMTMOVE
 70
     2
  9
$DIMFXL
 40
1.0
  9
$DIMFXLON
 70
     0
  9
$DIMJOGANG
 40
0.7853981633974483
  9
$DIMTFILL
 70
     0
  9
$DIMTFILLCLR
 70
     0
  9
$DIMARCSYM
 70
     0
  9
$DIMLTYPE
  6

  9
$DIMLTEX1
  6

  9
$DIMLTEX2
  6

  9
$DIMTXTDIRECTION
 70
     0
  9
$LUNITS
 70
     2
  9
$LUPREC
 70
     2
  9
$SKETCHINC
 40
1.0
  9
$FILLETRAD
 40
0.0
  9
$AUNITS
 70
     0
  9
$AUPREC
 70
     0
  9
$MENU
  1
ACAD
  9
$ELEVATION
 40
0.0
  9
$PELEVATION
 40
0.0
  9
$THICKNESS
 40
0.0
  9
$LIMCHECK
 70
     0
  9
$CHAMFERA
 40
0.0
  9
$CHAMFERB
 40
0.0
  9
$CHAMFERC
 40
0.0
  9
$CHAMFERD
 40
0.0
  9
$SKPOLY
 70
     0
  9
$TDCREATE
 40
2450582.571033102
  9
$TDUCREATE
 40
2450582.487699769
  9
$TDUPDATE
 40
2459796.511307106
  9
$TDUUPDATE
 40
2459796.427973774
  9
$TDINDWG
 40
0.0535055787
  9
$TDUSRTIMER
 40
0.0535055787
  9
$USRTIMER
 70
     1
  9
$ANGBASE
 50
0.0
  9
$ANGDIR
 70
     0
  9
$PDMODE
 70
     0
  9
$PDSIZE
 40
0.0
  9
$PLINEWID
 40
0.0
  9
$SPLFRAME
 70
     0
  9
$SPLINETYPE
 70
     6
  9
$SPLINESEGS
 70
     8
  9
$HANDSEED
  5
B45
  9
$SURFTAB1
 70
     6
  9
$SURFTAB2
 70
     6
  9
$SURFTYPE
 70
     6
  9
$SURFU
 70
     6
  9
$SURFV
 70
     6
  9
$UCSBASE
  2

  9
$UCSNAME
  2

  9
$UCSORG
 10
0.0
 20
0.0
 30
0.0
  9
$UCSXDIR
 10
1.0
 20
0.0
 30
0.0
  9
$UCSYDIR
 10
0.0
 20
1.0
 30
0.0
  9
$UCSORTHOREF
  2

  9
$UCSORTHOVIEW
 70
     0
  9
$UCSORGTOP
 10
0.0
 20
0.0
 30
0.0
  9
$UCSORGBOTTOM
 10
0.0
 20
0.0
 30
0.0
  9
$UCSORGLEFT
 10
0.0
 20
0.0
 30
0.0
  9
$UCSORGRIGHT
 10
0.0
 20
0.0
 30
0.0
  9
$UCSORGFRONT
 10
0.0
 20
0.0
 30
0.0
  9
$UCSORGBACK
 10
0.0
 20
0.0
 30
0.0
  9
$PUCSBASE
  2

  9
$PUCSNAME
  2

  9
$PUCSORG
 10
0.0
 20
0.0
 30
0.0
  9
$PUCSXDIR
 10
1.0
 20
0.0
 30
0.0
  9
$PUCSYDIR
 10
0.0
 20
1.0
 30
0.0
  9
$PUCSORTHOREF
  2

  9
$PUCSORTHOVIEW
 70
     0
  9
$PUCSORGTOP
 10
0.0
 20
0.0
 30
0.0
  9
$PUCSORGBOTTOM
 10
0.0
 20
0.0
 30
0.0
  9
$PUCSORGLEFT
 10
0.0
 20
0.0
 30
0.0
  9
$PUCSORGRIGHT
 10
0.0
 20
0.0
 30
0.0
  9
$PUCSORGFRONT
 10
0.0
 20
0.0
 30
0.0
  9
$PUCSORGBACK
 10
0.0
 20
0.0
 30
0.0
  9
$USERI1
 70
     0
  9
$USERI2
 70
     0
  9
$USERI3
 70
     0
  9
$USERI4
 70
     0
  9
$USERI5
 70
     0
  9
$USERR1
 40
0.0
  9
$USERR2
 40
0.0
  9
$USERR3
 40
0.0
  9
$USERR4
 40
0.0
  9
$USERR5
 40
0.0
  9
$WORLDVIEW
 70
     1
  9
$SHADEDGE
 70
     3
  9
$SHADEDIF
 70
    70
  9
$TILEMODE
 70
     1
  9
$MAXACTVP
 70
    16
  9
$PINSBASE
 10
0.0
 20
0.0
 30
0.0
  9
$PLIMCHECK
 70
     0
  9
$PEXTMIN
 10
1.000000000000000E+20
 20
1.000000000000000E+20
 30
1.000000000000000E+20
  9
$PEXTMAX
 10
-1.000000000000000E+20
 20
-1.000000000000000E+20
 30
-1.000000000000000E+20
  9
$PLIMMIN
 10
0.0
 20
0.0
  9
$PLIMMAX
 10
12.0
 20
9.0
  9
$UNITMODE
 70
     0
  9
$VISRETAIN
 70
     0
  9
$PLINEGEN
 70
     0
  9
$PSLTSCALE
 70
     0
  9
$TREEDEPTH
 70
  3020
  9
$CMLSTYLE
  2
Standard
  9
$CMLJUST
 70
     0
  9
$CMLSCALE
 40
1.0
  9
$PROXYGRAPHICS
 70
     1
  9
$MEASUREMENT
 70
     0
  9
$CELWEIGHT
370
    -1
  9
$ENDCAPS
280
     0
  9
$JOINSTYLE
280
     0
  9
$LWDISPLAY
290
     0
  9
$INSUNITS
 70
     6
  9
$HYPERLINKBASE
  1

  9
$STYLESHEET
  1

  9
$XEDIT
290
     1
  9
$CEPSNTYPE
380
     0
  9
$PSTYLEMODE
290
     1
  9
$FINGERPRINTGUID
  2
{8C75E428-1ADF-4EEB-9C77-C0ADBD5E3D22}
  9
$VERSIONGUID
  2
{5EB16A6B-62B8-4EB2-9FAC-23912B234EA3}
  9
$EXTNAMES
290
     1
  9
$PSVPSCALE
 40
0.0
  9
$OLESTARTUP
290
     0
  9
$SORTENTS
280
   127
  9
$INDEXCTL
280
     0
  9
$HIDETEXT
280
     1
  9
$XCLIPFRAME
280
     2
  9
$HALOGAP
280
     0
  9
$OBSCOLOR
 70
   257
  9
$OBSLTYPE
280
     0
  9
$INTERSECTIONDISPLAY
280
     0
  9
$INTERSECTIONCOLOR
 70
   257
  9
$DIMASSOC
280
     2
  9
$PROJECTNAME
  1

  9
$CAMERADISPLAY
290
     0
  9
$LENSLENGTH
 40
50.0
  9
$CAMERAHEIGHT
 40
0.0
  9
$STEPSPERSEC
 40
2.0
  9
$STEPSIZE
 40
6.0
  9
$3DDWFPREC
 40
2.0
  9
$PSOLWIDTH
 40
0.25
  9
$PSOLHEIGHT
 40
4.0
  9
$LOFTANG1
 40
1.570796326794896
  9
$LOFTANG2
 40
1.570796326794896
  9
$LOFTMAG1
 40
0.0
  9
$LOFTMAG2
 40
0.0
  9
$LOFTPARAM
 70
     7
  9
$LOFTNORMALS
280
     1
  9
$LATITUDE
 40
37.795
  9
$LONGITUDE
 40
-122.394
  9
$NORTHDIRECTION
 40
0.0
  9
$TIMEZONE
 70
 -8000
  9
$LIGHTGLYPHDISPLAY
280
     1
  9
$TILEMODELIGHTSYNCH
280
     1
  9
$CMATERIAL
347
11
  9
$SOLIDHIST
280
     0
  9
$SHOWHIST
280
     1
  9
$DWFFRAME
280
     2
  9
$DGNFRAME
280
     0
  9
$REALWORLDSCALE
290
     1
  9
$INTERFERECOLOR
 62
     1
  9
$INTERFEREOBJVS
345
33
  9
$INTERFEREVPVS
346
30
  9
$CSHADOW
280
     0
  9
$SHADOWPLANELOCATION
 40
0.0
  0
ENDSEC
  0
SECTION
  2
CLASSES
  0
CLASS
  1
ACDBDICTIONARYWDFLT
  2
AcDbDictionaryWithDefault
  3
ObjectDBX Classes
 90
        0
 91
        1
280
     0
281
     0
  0
CLASS
  1
MATERIAL
  2
AcDbMaterial
  3
ObjectDBX Classes
 90
     1153
 91
        3
280
     0
281
     0
  0
CLASS
  1
VISUALSTYLE
  2
AcDbVisualStyle
  3
ObjectDBX Classes
 90
     4095
 91
       24
280
     0
281
     0
  0
CLASS
  1
SCALE
  2
AcDbScale
  3
ObjectDBX Classes
 90
     1153
 91
       17
280
     0
281
     0
  0
CLASS
  1
TABLESTYLE
  2
AcDbTableStyle
  3
ObjectDBX Classes
 90
     4095
 91
        1
280
     0
281
     0
  0
CLASS
  1
MLEADERSTYLE
  2
AcDbMLeaderStyle
  3
ACDB_MLEADERSTYLE_CLASS
 90
     4095
 91
        1
280
     0
281
     0
  0
CLASS
  1
ACDBSECTIONVIEWSTYLE
  2
AcDbSectionViewStyle
  3
ObjectDBX Classes
 90
     1025
 91
        1
280
     0
281
     0
  0
CLASS
  1
ACDBDETAILVIEWSTYLE
  2
AcDbDetailViewStyle
  3
ObjectDBX Classes
 90
     1025
 91
        1
280
     0
281
     0
  0
CLASS
  1
DICTIONARYVAR
  2
AcDbDictionaryVar
  3
ObjectDBX Classes
 90
        0
 91
        5
280
     0
281
     0
  0
CLASS
  1
CELLSTYLEMAP
  2
AcDbCellStyleMap
  3
ObjectDBX Classes
 90
     1152
 91
        1
280
     0
281
     0
  0
ENDSEC
  0
SECTION
  2
TABLES
  0
TABLE
  2
VPORT
  5
8
330
0
100
AcDbSymbolTable
 70
     1
  0
VPORT
  5
96
330
8
100
AcDbSymbolTableRecord
100
AcDbViewportTableRecord
  2
*ACTIVE
 70
     0
 10
0.0
 20
0.0
 11
1.0
 21
1.0
 12
9.890758141283185
 22
-11.93541690234042
 13
0.0
 23
0.0
 14
5.0
 24
5.0
 15
100.0
 25
100.0
 16
0.0
 26
0.0
 36
1.0
 17
0.0
 27
0.0
 37
0.0
 40
11.41456879572868
 41
1.649386084583901
 42
50.0
 43
0.0
 44
0.0
 50
0.0
 51
0.0
 71
     0
 72
   100
 73
     1
 74
     0
 75
     0
 76
     1
 77
     0
 78
     0
281
     0
 65
     1
110
0.0
120
0.0
130
0.0
111
1.0
121
0.0
131
0.0
112
0.0
122
1.0
132
0.0
 79
     0
146
0.0
348
2F
 60
     3
 61
     5
292
     1
282
     0
141
0.0
142
0.0
 63
   250
421
  3355443
1001
ACAD_NAV_VCDISPLAY
1070
     3
  0
ENDTAB
  0
TABLE
  2
LTYPE
  5
5
330
0
100
AcDbSymbolTable
 70
    25
  0
LTYPE
  5
5A
330
5
100
AcDbSymbolTableRecord
100
AcDbLinetypeTableRecord
  2
ByBlock
 70
     0
  3

 72
    65
 73
     0
 40
0.0
  0
LTYPE
  5
5B
330
5
100
AcDbSymbolTableRecord
100
AcDbLinetypeTableRecord
  2
ByLayer
 70
     0
  3

 72
    65
 73
     0
 40
0.0
  0
LTYPE
  5
5C
330
5
100
AcDbSymbolTableRecord
100
AcDbLinetypeTableRecord
  2
CONTINUOUS
 70
     0
  3
Ausgezogene Linie
 72
    65
 73
     0
 40
0.0
  0
LTYPE
  5
7D
330
5
100
AcDbSymbolTableRecord
100
AcDbLinetypeTableRecord
  2
RAND
 70
     0
  3
__ __ . __ __ . __ __ . __ __ . __ __ . __ __ .
 72
    65
 73
     6
 40
1.75
 49
0.5
 74
     0
 49
-0.25
 74
     0
 49
0.5
 74
     0
 49
-0.25
 74
     0
 49
0.0
 74
     0
 49
-0.25
 74
     0
  0
LTYPE
  5
7E
330
5
100
AcDbSymbolTableRecord
100
AcDbLinetypeTableRecord
  2
RAND2
 70
     0
  3
__.__.__.__.__.__.__.__.__.__.__.__.__.__.__.__
 72
    65
 73
     6
 40
0.875
 49
0.25
 74
     0
 49
-0.125
 74
     0
 49
0.25
 74
     0
 49
-0.125
 74
     0
 49
0.0
 74
     0
 49
-0.125
 74
     0
  0
LTYPE
  5
7F
330
5
100
AcDbSymbolTableRecord
100
AcDbLinetypeTableRecord
  2
RANDX2
 70
     0
  3
____  ____  .  ____  ____  .  ____  ____  .  __
 72
    65
 73
     6
 40
3.5
 49
1.0
 74
     0
 49
-0.5
 74
     0
 49
1.0
 74
     0
 49
-0.5
 74
     0
 49
0.0
 74
     0
 49
-0.5
 74
     0
  0
LTYPE
  5
80
330
5
100
AcDbSymbolTableRecord
100
AcDbLinetypeTableRecord
  2
MITTE
 70
     0
  3
____ _ ____ _ ____ _ ____ _ ____ _ ____ _ ____ 
 72
    65
 73
     4
 40
2.0
 49
1.25
 74
     0
 49
-0.25
 74
     0
 49
0.25
 74
     0
 49
-0.25
 74
     0
  0
LTYPE
  5
81
330
5
100
AcDbSymbolTableRecord
100
AcDbLinetypeTableRecord
  2
MITTE2
 70
     0
  3
___ _ ___ _ ___ _ ___ _ ___ _ ___ _ ___ _ ___ _
 72
    65
 73
     4
 40
1.125
 49
0.75
 74
     0
 49
-0.125
 74
     0
 49
0.125
 74
     0
 49
-0.125
 74
     0
  0
LTYPE
  5
82
330
5
100
AcDbSymbolTableRecord
100
AcDbLinetypeTableRecord
  2
MITTEX2
 70
     0
  3
________  __  ________  __  ________  __  _____
 72
    65
 73
     4
 40
4.0
 49
2.5
 74
     0
 49
-0.5
 74
     0
 49
0.5
 74
     0
 49
-0.5
 74
     0
  0
LTYPE
  5
83
330
5
100
AcDbSymbolTableRecord
100
AcDbLinetypeTableRecord
  2
STRICHPUNKT
 70
     0
  3
__ . __ . __ . __ . __ . __ . __ . __ . __ . __
 72
    65
 73
     4
 40
1.0
 49
0.5
 74
     0
 49
-0.25
 74
     0
 49
0.0
 74
     0
 49
-0.25
 74
     0
  0
LTYPE
  5
84
330
5
100
AcDbSymbolTableRecord
100
AcDbLinetypeTableRecord
  2
STRICHPUNKT2
 70
     0
  3
_._._._._._._._._._._._._._._._._._._._._._._._
 72
    65
 73
     4
 40
0.5
 49
0.25
 74
     0
 49
-0.125
 74
     0
 49
0.0
 74
     0
 49
-0.125
 74
     0
  0
LTYPE
  5
85
330
5
100
AcDbSymbolTableRecord
100
AcDbLinetypeTableRecord
  2
STRICHPUNKTX2
 70
     0
  3
____  .  ____  .  ____  .  ____  .  ____  .  __
 72
    65
 73
     4
 40
2.0
 49
1.0
 74
     0
 49
-0.5
 74
     0
 49
0.0
 74
     0
 49
-0.5
 74
     0
  0
LTYPE
  5
86
330
5
100
AcDbSymbolTableRecord
100
AcDbLinetypeTableRecord
  2
GESTRICHELT
 70
     0
  3
__ __ __ __ __ __ __ __ __ __ __ __ __ __ __ __
 72
    65
 73
     2
 40
0.75
 49
0.5
 74
     0
 49
-0.25
 74
     0
  0
LTYPE
  5
87
330
5
100
AcDbSymbolTableRecord
100
AcDbLinetypeTableRecord
  2
GESTRICHELT2
 70
     0
  3
_ _ _ _ _ _ _ _ _ _ _ _ _ _ _ _ _ _ _ _ _ _ _ _
 72
    65
 73
     2
 40
0.375
 49
0.25
 74
     0
 49
-0.125
 74
     0
  0
LTYPE
  5
88
330
5
100
AcDbSymbolTableRecord
100
AcDbLinetypeTableRecord
  2
GESTRICHELTX2
 70
     0
  3
____  ____  ____  ____  ____  ____  ____  ____ 
 72
    65
 73
     2
 40
1.5
 49
1.0
 74
     0
 49
-0.5
 74
     0
  0
LTYPE
  5
89
330
5
100
AcDbSymbolTableRecord
100
AcDbLinetypeTableRecord
  2
GETRENNT
 70
     0
  3
____ . . ____ . . ____ . . ____ . . ____ . . __
 72
    65
 73
     6
 40
1.25
 49
0.5
 74
     0
 49
-0.25
 74
     0
 49
0.0
 74
     0
 49
-0.25
 74
     0
 49
0.0
 74
     0
 49
-0.25
 74
     0
  0
LTYPE
  5
8A
330
5
100
AcDbSymbolTableRecord
100
AcDbLinetypeTableRecord
  2
GETRENNT2
 70
     0
  3
__..__..__..__..__..__..__..__..__..__..__..__.
 72
    65
 73
     6
 40
0.625
 49
0.25
 74
     0
 49
-0.125
 74
     0
 49
0.0
 74
     0
 49
-0.125
 74
     0
 49
0.0
 74
     0
 49
-0.125
 74
     0
  0
LTYPE
  5
8B
330
5
100
AcDbSymbolTableRecord
100
AcDbLinetypeTableRecord
  2
GETRENNTX2
 70
     0
  3
________  .  .  ________  .  .  ________  .  . 
 72
    65
 73
     6
 40
2.5
 49
1.0
 74
     0
 49
-0.5
 74
     0
 49
0.0
 74
     0
 49
-0.5
 74
     0
 49
0.0
 74
     0
 49
-0.5
 74
     0
  0
LTYPE
  5
8C
330
5
100
AcDbSymbolTableRecord
100
AcDbLinetypeTableRecord
  2
PUNKT
 70
     0
  3
. . . . . . . . . . . . . . . . . . . . . . . .
 72
    65
 73
     2
 40
0.25
 49
0.0
 74
     0
 49
-0.25
 74
     0
  0
LTYPE
  5
8D
330
5
100
AcDbSymbolTableRecord
100
AcDbLinetypeTableRecord
  2
PUNKT2
 70
     0
  3
...............................................
 72
    65
 73
     2
 40
0.125
 49
0.0
 74
     0
 49
-0.125
 74
     0
  0
LTYPE
  5
8E
330
5
100
AcDbSymbolTableRecord
100
AcDbLinetypeTableRecord
  2
PUNKTX2
 70
     0
  3
.  .  .  .  .  .  .  .  .  .  .  .  .  .  .  . 
 72
    65
 73
     2
 40
0.5
 49
0.0
 74
     0
 49
-0.5
 74
     0
  0
LTYPE
  5
8F
330
5
100
AcDbSymbolTableRecord
100
AcDbLinetypeTableRecord
  2
VERDECKT
 70
     0
  3
__ __ __ __ __ __ __ __ __ __ __ __ __ __ __ __
 72
    65
 73
     2
 40
0.375
 49
0.25
 74
     0
 49
-0.125
 74
     0
  0
LTYPE
  5
90
330
5
100
AcDbSymbolTableRecord
100
AcDbLinetypeTableRecord
  2
VERDECKT2
 70
     0
  3
_ _ _ _ _ _ _ _ _ _ _ _ _ _ _ _ _ _ _ _ _ _ _ _
 72
    65
 73
     2
 40
0.1875
 49
0.125
 74
     0
 49
-0.0625
 74
     0
  0
LTYPE
  5
91
330
5
100
AcDbSymbolTableRecord
100
AcDbLinetypeTableRecord
  2
VERDECKTX2
 70
     0
  3
____ ____ ____ ____ ____ ____ ____ ____ ____ __
 72
    65
 73
     2
 40
0.75
 49
0.5
 74
     0
 49
-0.25
 74
     0
  0
LTYPE
  5
92
330
5
100
AcDbSymbolTableRecord
100
AcDbLinetypeTableRecord
  2
PHANTOM
 70
     0
  3
______  __  __  ______  __  __  ______  __  __ 
 72
    65
 73
     6
 40
2.5
 49
1.25
 74
     0
 49
-0.25
 74
     0
 49
0.25
 74
     0
 49
-0.25
 74
     0
 49
0.25
 74
     0
 49
-0.25
 74
     0
  0
LTYPE
  5
93
330
5
100
AcDbSymbolTableRecord
100
AcDbLinetypeTableRecord
  2
PHANTOM2
 70
     0
  3
___ _ _ ___ _ _ ___ _ _ ___ _ _ ___ _ _ ___ _ _
 72
    65
 73
     6
 40
1.25
 49
0.625
 74
     0
 49
-0.125
 74
     0
 49
0.125
 74
     0
 49
-0.125
 74
     0
 49
0.125
 74
     0
 49
-0.125
 74
     0
  0
LTYPE
  5
94
330
5
100
AcDbSymbolTableRecord
100
AcDbLinetypeTableRecord
  2
PHANTOMX2
 70
     0
  3
____________    ____    ____    ____________   
 72
    65
 73
     6
 40
5.0
 49
2.5
 74
     0
 49
-0.5
 74
     0
 49
0.5
 74
     0
 49
-0.5
 74
     0
 49
0.5
 74
     0
 49
-0.5
 74
     0
  0
ENDTAB
  0
TABLE
  2
LAYER
  5
2
102
{ACAD_XDICTIONARY
360
A9D
102
}
330
0
100
AcDbSymbolTable
 70
    10
  0
LAYER
  5
54
330
2
100
AcDbSymbolTableRecord
100
AcDbLayerTableRecord
  2
0
 70
     0
 62
     7
  6
CONTINUOUS
370
    -3
390
F
347
21
348
0
  0
LAYER
  5
97
330
2
100
AcDbSymbolTableRecord
100
AcDbLayerTableRecord
  2
GRABUNGSGRENZE
 70
     0
 62
     3
  6
STRICHPUNKTX2
370
    -3
390
F
347
21
348
0
  0
LAYER
  5
98
330
2
100
AcDbSymbolTableRecord
100
AcDbLayerTableRecord
  2
BEFUND
 70
     0
 62
     1
  6
CONTINUOUS
370
    -3
390
F
347
21
348
0
  0
LAYER
  5
99
330
2
100
AcDbSymbolTableRecord
100
AcDbLayerTableRecord
  2
STEINE
 70
     0
 62
     4
  6
CONTINUOUS
370
    -3
390
F
347
21
348
0
  0
LAYER
  5
9A
330
2
100
AcDbSymbolTableRecord
100
AcDbLayerTableRecord
  2
KNOCHEN
 70
     0
 62
     2
  6
CONTINUOUS
370
    -3
390
F
347
21
348
0
  0
LAYER
  5
9B
330
2
100
AcDbSymbolTableRecord
100
AcDbLayerTableRecord
  2
BEFUND_UNSICHER
 70
     0
 62
     1
  6
GESTRICHELT
370
    -3
390
F
347
21
348
0
  0
LAYER
  5
9C
330
2
100
AcDbSymbolTableRecord
100
AcDbLayerTableRecord
  2
FEUER
 70
     0
 62
     1
  6
CONTINUOUS
370
    -3
390
F
347
21
348
0
  0
LAYER
  5
9D
330
2
100
AcDbSymbolTableRecord
100
AcDbLayerTableRecord
  2
KNOCHENSCHRAFF
 70
     0
 62
     2
  6
CONTINUOUS
370
    -3
390
F
347
21
348
0
  0
LAYER
  5
9E
330
2
100
AcDbSymbolTableRecord
100
AcDbLayerTableRecord
  2
BEFUNDSCHRAFF
 70
     0
 62
     1
  6
CONTINUOUS
370
    -3
390
F
347
21
348
0
  0
LAYER
  5
9F
330
2
100
AcDbSymbolTableRecord
100
AcDbLayerTableRecord
  2
STEINESCHRAFF
 70
     0
 62
     4
  6
CONTINUOUS
370
    -3
390
F
347
21
348
0
  0
ENDTAB
  0
TABLE
  2
STYLE
  5
3
330
0
100
AcDbSymbolTable
 70
     2
  0
STYLE
  5
55
330
3
100
AcDbSymbolTableRecord
100
AcDbTextStyleTableRecord
  2
STANDARD
 70
     0
 40
0.0
 41
1.0
 50
0.0
 71
     0
 42
7.0
  3
txt.shx
  4

  0
STYLE
  5
59
330
3
100
AcDbSymbolTableRecord
100
AcDbTextStyleTableRecord
  2
Annotative
 70
     0
 40
0.0
 41
1.0
 50
0.0
 71
     0
 42
7.0
  3
txt
  4

1001
AcadAnnotative
1000
AnnotativeData
1002
{
1070
     1
1070
     1
1002
}
  0
ENDTAB
  0
TABLE
  2
VIEW
  5
6
330
0
100
AcDbSymbolTable
 70
     1
  0
ENDTAB
  0
TABLE
  2
UCS
  5
7
330
0
100
AcDbSymbolTable
 70
     0
  0
ENDTAB
  0
TABLE
  2
APPID
  5
9
330
0
100
AcDbSymbolTable
 70
     3
  0
APPID
  5
56
330
9
100
AcDbSymbolTableRecord
100
AcDbRegAppTableRecord
  2
ACAD
 70
     0
  0
APPID
  5
5D
330
9
100
AcDbSymbolTableRecord
100
AcDbRegAppTableRecord
  2
AcadAnnotative
 70
     0
  0
APPID
  5
AA3
330
9
100
AcDbSymbolTableRecord
100
AcDbRegAppTableRecord
  2
ACAD_NAV_VCDISPLAY
 70
     0
  0
ENDTAB
  0
TABLE
  2
DIMSTYLE
  5
A
330
0
100
AcDbSymbolTable
 70
     2
100
AcDbDimStyleTable
 71
     0
  0
DIMSTYLE
105
57
330
A
100
AcDbSymbolTableRecord
100
AcDbDimStyleTableRecord
  2
Standard
 70
     0
340
55
  0
DIMSTYLE
105
58
330
A
100
AcDbSymbolTableRecord
100
AcDbDimStyleTableRecord
  2
Annotative
 70
     0
340
55
1001
AcadAnnotative
1000
AnnotativeData
1002
{
1070
     1
1070
     1
1002
}
  0
ENDTAB
  0
TABLE
  2
BLOCK_RECORD
  5
1
330
0
100
AcDbSymbolTable
 70
     5
  0
BLOCK_RECORD
  5
6F
330
1
100
AcDbSymbolTableRecord
100
AcDbBlockTableRecord
  2
*Model_Space
340
72
 70
     0
280
     1
281
     0
  0
BLOCK_RECORD
  5
6B
330
1
100
AcDbSymbolTableRecord
100
AcDbBlockTableRecord
  2
*Paper_Space
340
6E
 70
     0
280
     1
281
     0
  0
BLOCK_RECORD
  5
73
330
1
100
AcDbSymbolTableRecord
100
AcDbBlockTableRecord
  2
TPFEIL
340
0
 70
     0
280
     1
281
     0
  0
BLOCK_RECORD
  5
79
330
1
100
AcDbSymbolTableRecord
100
AcDbBlockTableRecord
  2
*X1
340
0
102
{BLKREFS
331
A93
102
}
 70
     0
280
     1
281
     0
  0
BLOCK_RECORD
  5
7A
330
1
100
AcDbSymbolTableRecord
100
AcDbBlockTableRecord
  2
*X2
340
0
102
{BLKREFS
331
A94
102
}
 70
     0
280
     1
281
     0
  0
BLOCK_RECORD
  5
7B
330
1
100
AcDbSymbolTableRecord
100
AcDbBlockTableRecord
  2
*X3
340
0
102
{BLKREFS
331
A95
102
}
 70
     0
280
     1
281
     0
  0
BLOCK_RECORD
  5
7C
330
1
100
AcDbSymbolTableRecord
100
AcDbBlockTableRecord
  2
*X4
340
0
102
{BLKREFS
331
A96
102
}
 70
     0
280
     1
281
     0
  0
ENDTAB
  0
ENDSEC
  0
SECTION
  2
BLOCKS
  0
BLOCK
  5
A2
330
6F
100
AcDbEntity
  8
0
100
AcDbBlockBegin
  2
*Model_Space
 70
     0
 10
0.0
 20
0.0
 30
0.0
  3
*Model_Space
  1

  0
ENDBLK
  5
A3
330
6F
100
AcDbEntity
  8
0
100
AcDbBlockEnd
  0
BLOCK
  5
A0
330
6B
100
AcDbEntity
 67
     1
  8
0
100
AcDbBlockBegin
  2
*Paper_Space
 70
     0
 10
0.0
 20
0.0
 30
0.0
  3
*Paper_Space
  1

  0
ENDBLK
  5
A1
330
6B
100
AcDbEntity
 67
     1
  8
0
100
AcDbBlockEnd
  0
BLOCK
  5
A4
330
73
100
AcDbEntity
  8
0
100
AcDbBlockBegin
  2
TPFEIL
 70
     0
 10
0.0
 20
0.0
 30
0.0
  3
TPFEIL
  1

  0
LWPOLYLINE
  5
A5
330
73
100
AcDbEntity
  8
GRABUNGSGRENZE
100
AcDbPolyline
 90
        2
 70
     0
 10
0.0
 20
-10.0
 40
5.0
 41
0.0
 10
0.0
 20
0.0
 40
0.0
 41
0.0
  0
ENDBLK
  5
A9
330
73
100
AcDbEntity
  8
0
100
AcDbBlockEnd
  0
BLOCK
  5
708
330
79
100
AcDbEntity
  8
0
100
AcDbBlockBegin
  2
*X1
 70
     1
 10
0.0
 20
0.0
 30
0.0
  3
*X1
  1

  0
LINE
  5
709
330
79
100
AcDbEntity
  8
0
 62
     0
100
AcDbLine
 10
1288.523250216218
 20
-1110.0
 30
0.0
 11
1313.894518797598
 21
-1110.0
 31
0.0
  0
LINE
  5
70A
330
79
100
AcDbEntity
  8
0
 62
     0
100
AcDbLine
 10
1288.714338405039
 20
-1104.999999999999
 30
0.0
 11
1314.057236033717
 21
-1104.999999999999
 31
0.0
  0
LINE
  5
70B
330
79
100
AcDbEntity
  8
0
 62
     0
100
AcDbLine
 10
1288.90542659386
 20
-1100.0
 30
0.0
 11
1314.219953269837
 21
-1100.0
 31
0.0
  0
LINE
  5
70C
330
79
100
AcDbEntity
  8
0
 62
     0
100
AcDbLine
 10
1289.096514782681
 20
-1094.999999999999
 30
0.0
 11
1314.382670505956
 21
-1094.999999999999
 31
0.0
  0
LINE
  5
70D
330
79
100
AcDbEntity
  8
0
 62
     0
100
AcDbLine
 10
1289.287602971502
 20
-1090.0
 30
0.0
 11
1314.545387742075
 21
-1090.0
 31
0.0
  0
LINE
  5
70E
330
79
100
AcDbEntity
  8
0
 62
     0
100
AcDbLine
 10
1289.478691160323
 20
-1084.999999999999
 30
0.0
 11
1314.708104978194
 21
-1084.999999999999
 31
0.0
  0
LINE
  5
70F
330
79
100
AcDbEntity
  8
0
 62
     0
100
AcDbLine
 10
1289.669779349144
 20
-1080.0
 30
0.0
 11
1314.870822214313
 21
-1080.0
 31
0.0
  0
LINE
  5
710
330
79
100
AcDbEntity
  8
0
 62
     0
100
AcDbLine
 10
1289.860867537965
 20
-1075.0
 30
0.0
 11
1315.033539450432
 21
-1075.0
 31
0.0
  0
LINE
  5
711
330
79
100
AcDbEntity
  8
0
 62
     0
100
AcDbLine
 10
1290.051955726786
 20
-1070.0
 30
0.0
 11
1315.196256686551
 21
-1070.0
 31
0.0
  0
LINE
  5
712
330
79
100
AcDbEntity
  8
0
 62
     0
100
AcDbLine
 10
1290.243043915607
 20
-1065.0
 30
0.0
 11
1315.35897392267
 21
-1065.0
 31
0.0
  0
LINE
  5
713
330
79
100
AcDbEntity
  8
0
 62
     0
100
AcDbLine
 10
1290.434132104428
 20
-1060.0
 30
0.0
 11
1315.521691158789
 21
-1060.0
 31
0.0
  0
LINE
  5
714
330
79
100
AcDbEntity
  8
0
 62
     0
100
AcDbLine
 10
1290.625220293249
 20
-1054.999999999999
 30
0.0
 11
1315.684408394908
 21
-1054.999999999999
 31
0.0
  0
LINE
  5
715
330
79
100
AcDbEntity
  8
0
 62
     0
100
AcDbLine
 10
1290.81630848207
 20
-1050.0
 30
0.0
 11
1315.847125631027
 21
-1050.0
 31
0.0
  0
LINE
  5
716
330
79
100
AcDbEntity
  8
0
 62
     0
100
AcDbLine
 10
1291.007396670891
 20
-1044.999999999999
 30
0.0
 11
1316.009842867146
 21
-1044.999999999999
 31
0.0
  0
LINE
  5
717
330
79
100
AcDbEntity
  8
0
 62
     0
100
AcDbLine
 10
1291.198484859712
 20
-1040.0
 30
0.0
 11
1316.172560103266
 21
-1040.0
 31
0.0
  0
LINE
  5
718
330
79
100
AcDbEntity
  8
0
 62
     0
100
AcDbLine
 10
1291.389573048533
 20
-1035.0
 30
0.0
 11
1316.335277339385
 21
-1035.0
 31
0.0
  0
LINE
  5
719
330
79
100
AcDbEntity
  8
0
 62
     0
100
AcDbLine
 10
1291.580661237354
 20
-1030.0
 30
0.0
 11
1316.497994575503
 21
-1030.0
 31
0.0
  0
LINE
  5
71A
330
79
100
AcDbEntity
  8
0
 62
     0
100
AcDbLine
 10
1291.771749426175
 20
-1025.0
 30
0.0
 11
1316.660711811622
 21
-1025.0
 31
0.0
  0
LINE
  5
71B
330
79
100
AcDbEntity
  8
0
 62
     0
100
AcDbLine
 10
1291.962837614996
 20
-1020.0
 30
0.0
 11
1316.823429047741
 21
-1020.0
 31
0.0
  0
LINE
  5
71C
330
79
100
AcDbEntity
  8
0
 62
     0
100
AcDbLine
 10
1292.153925803817
 20
-1015.0
 30
0.0
 11
1316.986146283861
 21
-1015.0
 31
0.0
  0
LINE
  5
71D
330
79
100
AcDbEntity
  8
0
 62
     0
100
AcDbLine
 10
1292.345013992638
 20
-1010.0
 30
0.0
 11
1317.14886351998
 21
-1010.0
 31
0.0
  0
LINE
  5
71E
330
79
100
AcDbEntity
  8
0
 62
     0
100
AcDbLine
 10
1292.536102181459
 20
-1004.999999999999
 30
0.0
 11
1317.311580756099
 21
-1004.999999999999
 31
0.0
  0
LINE
  5
71F
330
79
100
AcDbEntity
  8
0
 62
     0
100
AcDbLine
 10
1292.72719037028
 20
-999.9999999999998
 30
0.0
 11
1317.474297992218
 21
-999.9999999999998
 31
0.0
  0
LINE
  5
720
330
79
100
AcDbEntity
  8
0
 62
     0
100
AcDbLine
 10
1292.918278559101
 20
-994.9999999999997
 30
0.0
 11
1317.637015228337
 21
-994.9999999999997
 31
0.0
  0
LINE
  5
721
330
79
100
AcDbEntity
  8
0
 62
     0
100
AcDbLine
 10
1293.109366747922
 20
-989.9999999999998
 30
0.0
 11
1317.799732464456
 21
-989.9999999999998
 31
0.0
  0
LINE
  5
722
330
79
100
AcDbEntity
  8
0
 62
     0
100
AcDbLine
 10
1293.300454936743
 20
-984.9999999999997
 30
0.0
 11
1317.962449700575
 21
-984.9999999999997
 31
0.0
  0
LINE
  5
723
330
79
100
AcDbEntity
  8
0
 62
     0
100
AcDbLine
 10
1293.491543125564
 20
-979.9999999999997
 30
0.0
 11
1318.125166936694
 21
-979.9999999999997
 31
0.0
  0
LINE
  5
724
330
79
100
AcDbEntity
  8
0
 62
     0
100
AcDbLine
 10
1293.682631314385
 20
-974.9999999999998
 30
0.0
 11
1318.287884172813
 21
-974.9999999999998
 31
0.0
  0
LINE
  5
725
330
79
100
AcDbEntity
  8
0
 62
     0
100
AcDbLine
 10
1293.873719503206
 20
-969.9999999999997
 30
0.0
 11
1318.450601408932
 21
-969.9999999999997
 31
0.0
  0
LINE
  5
726
330
79
100
AcDbEntity
  8
0
 62
     0
100
AcDbLine
 10
1294.064807692027
 20
-964.9999999999998
 30
0.0
 11
1318.613318645051
 21
-964.9999999999998
 31
0.0
  0
LINE
  5
727
330
79
100
AcDbEntity
  8
0
 62
     0
100
AcDbLine
 10
1294.255895880848
 20
-959.9999999999997
 30
0.0
 11
1318.77603588117
 21
-959.9999999999997
 31
0.0
  0
LINE
  5
728
330
79
100
AcDbEntity
  8
0
 62
     0
100
AcDbLine
 10
1294.446984069669
 20
-954.9999999999998
 30
0.0
 11
1318.93875311729
 21
-954.9999999999998
 31
0.0
  0
LINE
  5
729
330
79
100
AcDbEntity
  8
0
 62
     0
100
AcDbLine
 10
1294.63807225849
 20
-949.9999999999998
 30
0.0
 11
1319.101470353409
 21
-949.9999999999998
 31
0.0
  0
LINE
  5
72A
330
79
100
AcDbEntity
  8
0
 62
     0
100
AcDbLine
 10
1294.829160447311
 20
-944.9999999999999
 30
0.0
 11
1319.264187589528
 21
-944.9999999999999
 31
0.0
  0
LINE
  5
72B
330
79
100
AcDbEntity
  8
0
 62
     0
100
AcDbLine
 10
1295.020248636132
 20
-939.9999999999998
 30
0.0
 11
1319.426904825647
 21
-939.9999999999998
 31
0.0
  0
LINE
  5
72C
330
79
100
AcDbEntity
  8
0
 62
     0
100
AcDbLine
 10
1295.211336824953
 20
-934.9999999999999
 30
0.0
 11
1319.589622061766
 21
-934.9999999999999
 31
0.0
  0
LINE
  5
72D
330
79
100
AcDbEntity
  8
0
 62
     0
100
AcDbLine
 10
1295.402425013774
 20
-929.9999999999998
 30
0.0
 11
1319.752339297885
 21
-929.9999999999998
 31
0.0
  0
LINE
  5
72E
330
79
100
AcDbEntity
  8
0
 62
     0
100
AcDbLine
 10
1295.593513202595
 20
-924.9999999999998
 30
0.0
 11
1319.915056534004
 21
-924.9999999999998
 31
0.0
  0
LINE
  5
72F
330
79
100
AcDbEntity
  8
0
 62
     0
100
AcDbLine
 10
1295.784601391416
 20
-919.9999999999999
 30
0.0
 11
1320.077773770123
 21
-919.9999999999999
 31
0.0
  0
LINE
  5
730
330
79
100
AcDbEntity
  8
0
 62
     0
100
AcDbLine
 10
1295.975689580237
 20
-914.9999999999998
 30
0.0
 11
1320.240491006242
 21
-914.9999999999998
 31
0.0
  0
LINE
  5
731
330
79
100
AcDbEntity
  8
0
 62
     0
100
AcDbLine
 10
1296.166777769058
 20
-909.9999999999999
 30
0.0
 11
1320.403208242361
 21
-909.9999999999999
 31
0.0
  0
LINE
  5
732
330
79
100
AcDbEntity
  8
0
 62
     0
100
AcDbLine
 10
1296.357865957879
 20
-904.9999999999998
 30
0.0
 11
1320.56592547848
 21
-904.9999999999998
 31
0.0
  0
LINE
  5
733
330
79
100
AcDbEntity
  8
0
 62
     0
100
AcDbLine
 10
1296.548954146701
 20
-899.9999999999998
 30
0.0
 11
1320.728642714599
 21
-899.9999999999998
 31
0.0
  0
LINE
  5
734
330
79
100
AcDbEntity
  8
0
 62
     0
100
AcDbLine
 10
1296.740042335521
 20
-894.9999999999999
 30
0.0
 11
1320.891359950718
 21
-894.9999999999999
 31
0.0
  0
LINE
  5
735
330
79
100
AcDbEntity
  8
0
 62
     0
100
AcDbLine
 10
1296.931130524343
 20
-889.9999999999998
 30
0.0
 11
1321.054077186837
 21
-889.9999999999998
 31
0.0
  0
LINE
  5
736
330
79
100
AcDbEntity
  8
0
 62
     0
100
AcDbLine
 10
1297.122218713164
 20
-884.9999999999999
 30
0.0
 11
1321.216794422956
 21
-884.9999999999999
 31
0.0
  0
LINE
  5
737
330
79
100
AcDbEntity
  8
0
 62
     0
100
AcDbLine
 10
1297.313306901985
 20
-879.9999999999998
 30
0.0
 11
1321.379511659076
 21
-879.9999999999998
 31
0.0
  0
LINE
  5
738
330
79
100
AcDbEntity
  8
0
 62
     0
100
AcDbLine
 10
1297.504395090806
 20
-874.9999999999998
 30
0.0
 11
1321.542228895195
 21
-874.9999999999998
 31
0.0
  0
LINE
  5
739
330
79
100
AcDbEntity
  8
0
 62
     0
100
AcDbLine
 10
1297.695483279627
 20
-869.9999999999999
 30
0.0
 11
1321.704946131314
 21
-869.9999999999999
 31
0.0
  0
LINE
  5
73A
330
79
100
AcDbEntity
  8
0
 62
     0
100
AcDbLine
 10
1297.886571468447
 20
-864.9999999999998
 30
0.0
 11
1321.867663367433
 21
-864.9999999999998
 31
0.0
  0
LINE
  5
73B
330
79
100
AcDbEntity
  8
0
 62
     0
100
AcDbLine
 10
1298.077659657268
 20
-859.9999999999999
 30
0.0
 11
1322.030380603552
 21
-859.9999999999999
 31
0.0
  0
LINE
  5
73C
330
79
100
AcDbEntity
  8
0
 62
     0
100
AcDbLine
 10
1298.26874784609
 20
-854.9999999999998
 30
0.0
 11
1322.193097839671
 21
-854.9999999999998
 31
0.0
  0
LINE
  5
73D
330
79
100
AcDbEntity
  8
0
 62
     0
100
AcDbLine
 10
1298.459836034911
 20
-849.9999999999998
 30
0.0
 11
1322.35581507579
 21
-849.9999999999998
 31
0.0
  0
LINE
  5
73E
330
79
100
AcDbEntity
  8
0
 62
     0
100
AcDbLine
 10
1298.650924223732
 20
-844.9999999999999
 30
0.0
 11
1322.518532311909
 21
-844.9999999999999
 31
0.0
  0
LINE
  5
73F
330
79
100
AcDbEntity
  8
0
 62
     0
100
AcDbLine
 10
1298.842012412553
 20
-839.9999999999998
 30
0.0
 11
1322.681249548028
 21
-839.9999999999998
 31
0.0
  0
LINE
  5
740
330
79
100
AcDbEntity
  8
0
 62
     0
100
AcDbLine
 10
1299.033100601374
 20
-834.9999999999999
 30
0.0
 11
1322.843966784147
 21
-834.9999999999999
 31
0.0
  0
LINE
  5
741
330
79
100
AcDbEntity
  8
0
 62
     0
100
AcDbLine
 10
1299.224188790195
 20
-829.9999999999998
 30
0.0
 11
1323.006684020266
 21
-829.9999999999998
 31
0.0
  0
LINE
  5
742
330
79
100
AcDbEntity
  8
0
 62
     0
100
AcDbLine
 10
1299.415276979016
 20
-824.9999999999998
 30
0.0
 11
1323.169401256385
 21
-824.9999999999998
 31
0.0
  0
LINE
  5
743
330
79
100
AcDbEntity
  8
0
 62
     0
100
AcDbLine
 10
1299.606365167837
 20
-819.9999999999999
 30
0.0
 11
1323.332118492504
 21
-819.9999999999999
 31
0.0
  0
LINE
  5
744
330
79
100
AcDbEntity
  8
0
 62
     0
100
AcDbLine
 10
1299.797453356658
 20
-814.9999999999998
 30
0.0
 11
1323.494835728623
 21
-814.9999999999998
 31
0.0
  0
LINE
  5
745
330
79
100
AcDbEntity
  8
0
 62
     0
100
AcDbLine
 10
1299.988541545479
 20
-809.9999999999999
 30
0.0
 11
1323.657552964742
 21
-809.9999999999999
 31
0.0
  0
LINE
  5
746
330
79
100
AcDbEntity
  8
0
 62
     0
100
AcDbLine
 10
1300.1796297343
 20
-804.9999999999998
 30
0.0
 11
1323.820270200861
 21
-804.9999999999998
 31
0.0
  0
LINE
  5
747
330
79
100
AcDbEntity
  8
0
 62
     0
100
AcDbLine
 10
1300.370717923121
 20
-799.9999999999999
 30
0.0
 11
1323.982987436981
 21
-799.9999999999999
 31
0.0
  0
LINE
  5
748
330
79
100
AcDbEntity
  8
0
 62
     0
100
AcDbLine
 10
1300.561806111942
 20
-794.9999999999999
 30
0.0
 11
1324.1457046731
 21
-794.9999999999999
 31
0.0
  0
LINE
  5
749
330
79
100
AcDbEntity
  8
0
 62
     0
100
AcDbLine
 10
1300.752894300763
 20
-789.9999999999999
 30
0.0
 11
1324.308421909219
 21
-789.9999999999999
 31
0.0
  0
LINE
  5
74A
330
79
100
AcDbEntity
  8
0
 62
     0
100
AcDbLine
 10
1300.943982489584
 20
-784.9999999999998
 30
0.0
 11
1324.471139145338
 21
-784.9999999999998
 31
0.0
  0
LINE
  5
74B
330
79
100
AcDbEntity
  8
0
 62
     0
100
AcDbLine
 10
1301.135070678405
 20
-779.9999999999998
 30
0.0
 11
1324.633856381457
 21
-779.9999999999998
 31
0.0
  0
LINE
  5
74C
330
79
100
AcDbEntity
  8
0
 62
     0
100
AcDbLine
 10
1301.326158867226
 20
-774.9999999999999
 30
0.0
 11
1324.796573617576
 21
-774.9999999999999
 31
0.0
  0
LINE
  5
74D
330
79
100
AcDbEntity
  8
0
 62
     0
100
AcDbLine
 10
1301.517247056047
 20
-769.9999999999999
 30
0.0
 11
1324.959290853695
 21
-769.9999999999999
 31
0.0
  0
LINE
  5
74E
330
79
100
AcDbEntity
  8
0
 62
     0
100
AcDbLine
 10
1301.708335244868
 20
-764.9999999999998
 30
0.0
 11
1325.122008089814
 21
-764.9999999999998
 31
0.0
  0
LINE
  5
74F
330
79
100
AcDbEntity
  8
0
 62
     0
100
AcDbLine
 10
1301.899423433689
 20
-759.9999999999998
 30
0.0
 11
1325.284725325933
 21
-759.9999999999998
 31
0.0
  0
LINE
  5
750
330
79
100
AcDbEntity
  8
0
 62
     0
100
AcDbLine
 10
1302.09051162251
 20
-754.9999999999998
 30
0.0
 11
1325.447442562052
 21
-754.9999999999998
 31
0.0
  0
LINE
  5
751
330
79
100
AcDbEntity
  8
0
 62
     0
100
AcDbLine
 10
1302.281599811331
 20
-749.9999999999999
 30
0.0
 11
1325.610159798171
 21
-749.9999999999999
 31
0.0
  0
LINE
  5
752
330
79
100
AcDbEntity
  8
0
 62
     0
100
AcDbLine
 10
1302.472688000152
 20
-744.9999999999999
 30
0.0
 11
1325.77287703429
 21
-744.9999999999999
 31
0.0
  0
LINE
  5
753
330
79
100
AcDbEntity
  8
0
 62
     0
100
AcDbLine
 10
1302.663776188973
 20
-739.9999999999998
 30
0.0
 11
1325.93559427041
 21
-739.9999999999998
 31
0.0
  0
LINE
  5
754
330
79
100
AcDbEntity
  8
0
 62
     0
100
AcDbLine
 10
1302.854864377794
 20
-734.9999999999998
 30
0.0
 11
1326.098311506529
 21
-734.9999999999998
 31
0.0
  0
LINE
  5
755
330
79
100
AcDbEntity
  8
0
 62
     0
100
AcDbLine
 10
1303.045952566615
 20
-729.9999999999998
 30
0.0
 11
1326.261028742648
 21
-729.9999999999998
 31
0.0
  0
LINE
  5
756
330
79
100
AcDbEntity
  8
0
 62
     0
100
AcDbLine
 10
1303.237040755436
 20
-724.9999999999999
 30
0.0
 11
1326.423745978767
 21
-724.9999999999999
 31
0.0
  0
LINE
  5
757
330
79
100
AcDbEntity
  8
0
 62
     0
100
AcDbLine
 10
1303.428128944257
 20
-719.9999999999999
 30
0.0
 11
1326.586463214886
 21
-719.9999999999999
 31
0.0
  0
LINE
  5
758
330
79
100
AcDbEntity
  8
0
 62
     0
100
AcDbLine
 10
1303.619217133078
 20
-714.9999999999998
 30
0.0
 11
1326.749180451004
 21
-714.9999999999998
 31
0.0
  0
LINE
  5
759
330
79
100
AcDbEntity
  8
0
 62
     0
100
AcDbLine
 10
1303.810305321899
 20
-709.9999999999998
 30
0.0
 11
1326.911897687124
 21
-709.9999999999998
 31
0.0
  0
LINE
  5
75A
330
79
100
AcDbEntity
  8
0
 62
     0
100
AcDbLine
 10
1304.00139351072
 20
-704.9999999999998
 30
0.0
 11
1327.074614923243
 21
-704.9999999999998
 31
0.0
  0
LINE
  5
75B
330
79
100
AcDbEntity
  8
0
 62
     0
100
AcDbLine
 10
1304.192481699541
 20
-699.9999999999999
 30
0.0
 11
1327.237332159362
 21
-699.9999999999999
 31
0.0
  0
LINE
  5
75C
330
79
100
AcDbEntity
  8
0
 62
     0
100
AcDbLine
 10
1304.383569888362
 20
-694.9999999999999
 30
0.0
 11
1327.400049395481
 21
-694.9999999999999
 31
0.0
  0
LINE
  5
75D
330
79
100
AcDbEntity
  8
0
 62
     0
100
AcDbLine
 10
1304.574658077183
 20
-689.9999999999998
 30
0.0
 11
1327.5627666316
 21
-689.9999999999998
 31
0.0
  0
LINE
  5
75E
330
79
100
AcDbEntity
  8
0
 62
     0
100
AcDbLine
 10
1304.765746266004
 20
-684.9999999999998
 30
0.0
 11
1327.725483867719
 21
-684.9999999999998
 31
0.0
  0
LINE
  5
75F
330
79
100
AcDbEntity
  8
0
 62
     0
100
AcDbLine
 10
1304.956834454825
 20
-679.9999999999998
 30
0.0
 11
1327.888201103838
 21
-679.9999999999998
 31
0.0
  0
LINE
  5
760
330
79
100
AcDbEntity
  8
0
 62
     0
100
AcDbLine
 10
1305.147922643646
 20
-674.9999999999999
 30
0.0
 11
1328.050918339957
 21
-674.9999999999999
 31
0.0
  0
LINE
  5
761
330
79
100
AcDbEntity
  8
0
 62
     0
100
AcDbLine
 10
1305.339010832467
 20
-669.9999999999999
 30
0.0
 11
1328.213635576076
 21
-669.9999999999999
 31
0.0
  0
LINE
  5
762
330
79
100
AcDbEntity
  8
0
 62
     0
100
AcDbLine
 10
1305.530099021289
 20
-664.9999999999998
 30
0.0
 11
1328.376352812195
 21
-664.9999999999998
 31
0.0
  0
LINE
  5
763
330
79
100
AcDbEntity
  8
0
 62
     0
100
AcDbLine
 10
1305.721187210109
 20
-659.9999999999998
 30
0.0
 11
1328.539070048315
 21
-659.9999999999998
 31
0.0
  0
LINE
  5
764
330
79
100
AcDbEntity
  8
0
 62
     0
100
AcDbLine
 10
1305.91227539893
 20
-654.9999999999998
 30
0.0
 11
1328.701787284433
 21
-654.9999999999998
 31
0.0
  0
LINE
  5
765
330
79
100
AcDbEntity
  8
0
 62
     0
100
AcDbLine
 10
1306.103363587751
 20
-649.9999999999999
 30
0.0
 11
1328.864504520553
 21
-649.9999999999999
 31
0.0
  0
LINE
  5
766
330
79
100
AcDbEntity
  8
0
 62
     0
100
AcDbLine
 10
1288.332162027397
 20
-1115.0
 30
0.0
 11
1313.731801561479
 21
-1115.0
 31
0.0
  0
LINE
  5
767
330
79
100
AcDbEntity
  8
0
 62
     0
100
AcDbLine
 10
1288.141073838575
 20
-1120.0
 30
0.0
 11
1313.56908432536
 21
-1120.0
 31
0.0
  0
LINE
  5
768
330
79
100
AcDbEntity
  8
0
 62
     0
100
AcDbLine
 10
1287.949985649755
 20
-1125.0
 30
0.0
 11
1313.406367089241
 21
-1125.0
 31
0.0
  0
LINE
  5
769
330
79
100
AcDbEntity
  8
0
 62
     0
100
AcDbLine
 10
1287.758897460933
 20
-1129.999999999999
 30
0.0
 11
1313.243649853122
 21
-1129.999999999999
 31
0.0
  0
LINE
  5
76A
330
79
100
AcDbEntity
  8
0
 62
     0
100
AcDbLine
 10
1287.567809272113
 20
-1135.0
 30
0.0
 11
1313.080932617003
 21
-1135.0
 31
0.0
  0
LINE
  5
76B
330
79
100
AcDbEntity
  8
0
 62
     0
100
AcDbLine
 10
1287.376721083292
 20
-1140.0
 30
0.0
 11
1312.918215380884
 21
-1140.0
 31
0.0
  0
LINE
  5
76C
330
79
100
AcDbEntity
  8
0
 62
     0
100
AcDbLine
 10
1287.185632894471
 20
-1145.0
 30
0.0
 11
1312.755498144765
 21
-1145.0
 31
0.0
  0
LINE
  5
76D
330
79
100
AcDbEntity
  8
0
 62
     0
100
AcDbLine
 10
1286.994544705649
 20
-1150.0
 30
0.0
 11
1312.592780908646
 21
-1150.0
 31
0.0
  0
LINE
  5
76E
330
79
100
AcDbEntity
  8
0
 62
     0
100
AcDbLine
 10
1286.803456516828
 20
-1155.0
 30
0.0
 11
1312.430063672527
 21
-1155.0
 31
0.0
  0
LINE
  5
76F
330
79
100
AcDbEntity
  8
0
 62
     0
100
AcDbLine
 10
1286.612368328007
 20
-1160.0
 30
0.0
 11
1312.267346436408
 21
-1160.0
 31
0.0
  0
LINE
  5
770
330
79
100
AcDbEntity
  8
0
 62
     0
100
AcDbLine
 10
1286.421280139187
 20
-1165.0
 30
0.0
 11
1312.104629200289
 21
-1165.0
 31
0.0
  0
LINE
  5
771
330
79
100
AcDbEntity
  8
0
 62
     0
100
AcDbLine
 10
1286.230191950365
 20
-1169.999999999999
 30
0.0
 11
1311.94191196417
 21
-1169.999999999999
 31
0.0
  0
LINE
  5
772
330
79
100
AcDbEntity
  8
0
 62
     0
100
AcDbLine
 10
1286.039103761544
 20
-1175.0
 30
0.0
 11
1311.779194728051
 21
-1175.0
 31
0.0
  0
LINE
  5
773
330
79
100
AcDbEntity
  8
0
 62
     0
100
AcDbLine
 10
1285.848015572723
 20
-1179.999999999999
 30
0.0
 11
1311.616477491931
 21
-1179.999999999999
 31
0.0
  0
LINE
  5
774
330
79
100
AcDbEntity
  8
0
 62
     0
100
AcDbLine
 10
1285.656927383902
 20
-1185.0
 30
0.0
 11
1311.453760255812
 21
-1185.0
 31
0.0
  0
LINE
  5
775
330
79
100
AcDbEntity
  8
0
 62
     0
100
AcDbLine
 10
1285.465839195081
 20
-1190.0
 30
0.0
 11
1311.291043019693
 21
-1190.0
 31
0.0
  0
LINE
  5
776
330
79
100
AcDbEntity
  8
0
 62
     0
100
AcDbLine
 10
1285.27475100626
 20
-1195.0
 30
0.0
 11
1311.128325783574
 21
-1195.0
 31
0.0
  0
LINE
  5
777
330
79
100
AcDbEntity
  8
0
 62
     0
100
AcDbLine
 10
1285.083662817439
 20
-1200.0
 30
0.0
 11
1310.965608547455
 21
-1200.0
 31
0.0
  0
LINE
  5
778
330
79
100
AcDbEntity
  8
0
 62
     0
100
AcDbLine
 10
1284.892574628618
 20
-1205.0
 30
0.0
 11
1310.802891311336
 21
-1205.0
 31
0.0
  0
LINE
  5
779
330
79
100
AcDbEntity
  8
0
 62
     0
100
AcDbLine
 10
1284.701486439797
 20
-1210.0
 30
0.0
 11
1310.640174075217
 21
-1210.0
 31
0.0
  0
LINE
  5
77A
330
79
100
AcDbEntity
  8
0
 62
     0
100
AcDbLine
 10
1284.510398250976
 20
-1215.0
 30
0.0
 11
1310.477456839098
 21
-1215.0
 31
0.0
  0
LINE
  5
77B
330
79
100
AcDbEntity
  8
0
 62
     0
100
AcDbLine
 10
1284.319310062155
 20
-1219.999999999999
 30
0.0
 11
1310.314739602979
 21
-1219.999999999999
 31
0.0
  0
LINE
  5
77C
330
79
100
AcDbEntity
  8
0
 62
     0
100
AcDbLine
 10
1284.128221873334
 20
-1225.0
 30
0.0
 11
1310.15202236686
 21
-1225.0
 31
0.0
  0
LINE
  5
77D
330
79
100
AcDbEntity
  8
0
 62
     0
100
AcDbLine
 10
1283.937133684513
 20
-1229.999999999999
 30
0.0
 11
1309.989305130741
 21
-1229.999999999999
 31
0.0
  0
LINE
  5
77E
330
79
100
AcDbEntity
  8
0
 62
     0
100
AcDbLine
 10
1283.746045495692
 20
-1235.0
 30
0.0
 11
1309.826587894622
 21
-1235.0
 31
0.0
  0
LINE
  5
77F
330
79
100
AcDbEntity
  8
0
 62
     0
100
AcDbLine
 10
1283.554957306871
 20
-1240.0
 30
0.0
 11
1309.663870658503
 21
-1240.0
 31
0.0
  0
LINE
  5
780
330
79
100
AcDbEntity
  8
0
 62
     0
100
AcDbLine
 10
1283.36386911805
 20
-1245.0
 30
0.0
 11
1309.501153422384
 21
-1245.0
 31
0.0
  0
LINE
  5
781
330
79
100
AcDbEntity
  8
0
 62
     0
100
AcDbLine
 10
1283.172780929229
 20
-1250.0
 30
0.0
 11
1309.338436186264
 21
-1250.0
 31
0.0
  0
LINE
  5
782
330
79
100
AcDbEntity
  8
0
 62
     0
100
AcDbLine
 10
1282.981692740408
 20
-1255.0
 30
0.0
 11
1309.175718950146
 21
-1255.0
 31
0.0
  0
LINE
  5
783
330
79
100
AcDbEntity
  8
0
 62
     0
100
AcDbLine
 10
1282.790604551587
 20
-1260.0
 30
0.0
 11
1309.013001714026
 21
-1260.0
 31
0.0
  0
LINE
  5
784
330
79
100
AcDbEntity
  8
0
 62
     0
100
AcDbLine
 10
1282.599516362766
 20
-1265.0
 30
0.0
 11
1308.850284477907
 21
-1265.0
 31
0.0
  0
LINE
  5
785
330
79
100
AcDbEntity
  8
0
 62
     0
100
AcDbLine
 10
1282.408428173945
 20
-1270.0
 30
0.0
 11
1308.687567241788
 21
-1270.0
 31
0.0
  0
LINE
  5
786
330
79
100
AcDbEntity
  8
0
 62
     0
100
AcDbLine
 10
1282.217339985124
 20
-1275.0
 30
0.0
 11
1308.524850005669
 21
-1275.0
 31
0.0
  0
LINE
  5
787
330
79
100
AcDbEntity
  8
0
 62
     0
100
AcDbLine
 10
1282.026251796303
 20
-1280.0
 30
0.0
 11
1308.36213276955
 21
-1280.0
 31
0.0
  0
LINE
  5
788
330
79
100
AcDbEntity
  8
0
 62
     0
100
AcDbLine
 10
1281.835163607482
 20
-1285.0
 30
0.0
 11
1308.199415533431
 21
-1285.0
 31
0.0
  0
LINE
  5
789
330
79
100
AcDbEntity
  8
0
 62
     0
100
AcDbLine
 10
1281.644075418661
 20
-1290.0
 30
0.0
 11
1308.036698297312
 21
-1290.0
 31
0.0
  0
LINE
  5
78A
330
79
100
AcDbEntity
  8
0
 62
     0
100
AcDbLine
 10
1281.45298722984
 20
-1295.0
 30
0.0
 11
1307.873981061193
 21
-1295.0
 31
0.0
  0
LINE
  5
78B
330
79
100
AcDbEntity
  8
0
 62
     0
100
AcDbLine
 10
1281.261899041019
 20
-1300.0
 30
0.0
 11
1307.711263825074
 21
-1300.0
 31
0.0
  0
LINE
  5
78C
330
79
100
AcDbEntity
  8
0
 62
     0
100
AcDbLine
 10
1281.070810852198
 20
-1304.999999999999
 30
0.0
 11
1307.548546588955
 21
-1304.999999999999
 31
0.0
  0
LINE
  5
78D
330
79
100
AcDbEntity
  8
0
 62
     0
100
AcDbLine
 10
1280.879722663377
 20
-1310.0
 30
0.0
 11
1307.385829352836
 21
-1310.0
 31
0.0
  0
LINE
  5
78E
330
79
100
AcDbEntity
  8
0
 62
     0
100
AcDbLine
 10
1280.688634474556
 20
-1315.0
 30
0.0
 11
1307.223112116717
 21
-1315.0
 31
0.0
  0
LINE
  5
78F
330
79
100
AcDbEntity
  8
0
 62
     0
100
AcDbLine
 10
1280.497546285735
 20
-1320.0
 30
0.0
 11
1307.060394880597
 21
-1320.0
 31
0.0
  0
LINE
  5
790
330
79
100
AcDbEntity
  8
0
 62
     0
100
AcDbLine
 10
1280.306458096914
 20
-1325.0
 30
0.0
 11
1306.897677644478
 21
-1325.0
 31
0.0
  0
LINE
  5
791
330
79
100
AcDbEntity
  8
0
 62
     0
100
AcDbLine
 10
1280.115369908093
 20
-1330.0
 30
0.0
 11
1306.734960408359
 21
-1330.0
 31
0.0
  0
LINE
  5
792
330
79
100
AcDbEntity
  8
0
 62
     0
100
AcDbLine
 10
1279.924281719272
 20
-1335.0
 30
0.0
 11
1306.57224317224
 21
-1335.0
 31
0.0
  0
LINE
  5
793
330
79
100
AcDbEntity
  8
0
 62
     0
100
AcDbLine
 10
1279.733193530451
 20
-1340.0
 30
0.0
 11
1306.409525936121
 21
-1340.0
 31
0.0
  0
LINE
  5
794
330
79
100
AcDbEntity
  8
0
 62
     0
100
AcDbLine
 10
1279.513854037107
 20
-1344.999999999999
 30
0.0
 11
1306.246808700002
 21
-1344.999999999999
 31
0.0
  0
LINE
  5
795
330
79
100
AcDbEntity
  8
0
 62
     0
100
AcDbLine
 10
1279.238475917909
 20
-1350.0
 30
0.0
 11
1306.086994368576
 21
-1350.0
 31
0.0
  0
LINE
  5
796
330
79
100
AcDbEntity
  8
0
 62
     0
100
AcDbLine
 10
1278.963097798711
 20
-1354.999999999999
 30
0.0
 11
1305.939543109586
 21
-1354.999999999999
 31
0.0
  0
LINE
  5
797
330
79
100
AcDbEntity
  8
0
 62
     0
100
AcDbLine
 10
1278.687719679514
 20
-1360.0
 30
0.0
 11
1305.792091850596
 21
-1360.0
 31
0.0
  0
LINE
  5
798
330
79
100
AcDbEntity
  8
0
 62
     0
100
AcDbLine
 10
1278.412341560316
 20
-1365.0
 30
0.0
 11
1305.644640591606
 21
-1365.0
 31
0.0
  0
LINE
  5
799
330
79
100
AcDbEntity
  8
0
 62
     0
100
AcDbLine
 10
1278.136963441118
 20
-1370.0
 30
0.0
 11
1305.497189332617
 21
-1370.0
 31
0.0
  0
LINE
  5
79A
330
79
100
AcDbEntity
  8
0
 62
     0
100
AcDbLine
 10
1277.861585321921
 20
-1375.0
 30
0.0
 11
1305.349738073627
 21
-1375.0
 31
0.0
  0
LINE
  5
79B
330
79
100
AcDbEntity
  8
0
 62
     0
100
AcDbLine
 10
1277.586207202723
 20
-1380.0
 30
0.0
 11
1305.202286814637
 21
-1380.0
 31
0.0
  0
LINE
  5
79C
330
79
100
AcDbEntity
  8
0
 62
     0
100
AcDbLine
 10
1277.310829083525
 20
-1385.0
 30
0.0
 11
1305.054835555648
 21
-1385.0
 31
0.0
  0
LINE
  5
79D
330
79
100
AcDbEntity
  8
0
 62
     0
100
AcDbLine
 10
1277.035450964328
 20
-1390.0
 30
0.0
 11
1304.907384296658
 21
-1390.0
 31
0.0
  0
LINE
  5
79E
330
79
100
AcDbEntity
  8
0
 62
     0
100
AcDbLine
 10
1276.76007284513
 20
-1395.0
 30
0.0
 11
1304.759933037668
 21
-1395.0
 31
0.0
  0
LINE
  5
79F
330
79
100
AcDbEntity
  8
0
 62
     0
100
AcDbLine
 10
1276.484694725932
 20
-1400.0
 30
0.0
 11
1304.612481778679
 21
-1400.0
 31
0.0
  0
LINE
  5
7A0
330
79
100
AcDbEntity
  8
0
 62
     0
100
AcDbLine
 10
1276.209316606734
 20
-1405.0
 30
0.0
 11
1304.465030519689
 21
-1405.0
 31
0.0
  0
LINE
  5
7A1
330
79
100
AcDbEntity
  8
0
 62
     0
100
AcDbLine
 10
1275.933938487537
 20
-1410.0
 30
0.0
 11
1304.429084932345
 21
-1410.0
 31
0.0
  0
LINE
  5
7A2
330
79
100
AcDbEntity
  8
0
 62
     0
100
AcDbLine
 10
1275.658560368339
 20
-1415.0
 30
0.0
 11
1304.400178987376
 21
-1415.0
 31
0.0
  0
LINE
  5
7A3
330
79
100
AcDbEntity
  8
0
 62
     0
100
AcDbLine
 10
1275.383182249141
 20
-1420.0
 30
0.0
 11
1304.371273042407
 21
-1420.0
 31
0.0
  0
LINE
  5
7A4
330
79
100
AcDbEntity
  8
0
 62
     0
100
AcDbLine
 10
1275.329604979132
 20
-1425.0
 30
0.0
 11
1304.342367097439
 21
-1425.0
 31
0.0
  0
LINE
  5
7A5
330
79
100
AcDbEntity
  8
0
 62
     0
100
AcDbLine
 10
1275.293503794659
 20
-1429.999999999999
 30
0.0
 11
1304.31346115247
 21
-1429.999999999999
 31
0.0
  0
LINE
  5
7A6
330
79
100
AcDbEntity
  8
0
 62
     0
100
AcDbLine
 10
1275.257402610186
 20
-1435.0
 30
0.0
 11
1304.284555207501
 21
-1435.0
 31
0.0
  0
LINE
  5
7A7
330
79
100
AcDbEntity
  8
0
 62
     0
100
AcDbLine
 10
1275.221301425713
 20
-1440.0
 30
0.0
 11
1304.255649262532
 21
-1440.0
 31
0.0
  0
LINE
  5
7A8
330
79
100
AcDbEntity
  8
0
 62
     0
100
AcDbLine
 10
1275.18520024124
 20
-1445.0
 30
0.0
 11
1304.226743317563
 21
-1445.0
 31
0.0
  0
LINE
  5
7A9
330
79
100
AcDbEntity
  8
0
 62
     0
100
AcDbLine
 10
1275.149099056767
 20
-1450.0
 30
0.0
 11
1304.197837372594
 21
-1450.0
 31
0.0
  0
LINE
  5
7AA
330
79
100
AcDbEntity
  8
0
 62
     0
100
AcDbLine
 10
1275.112997872294
 20
-1455.0
 30
0.0
 11
1304.168931427626
 21
-1455.0
 31
0.0
  0
LINE
  5
7AB
330
79
100
AcDbEntity
  8
0
 62
     0
100
AcDbLine
 10
1275.069054811898
 20
-1460.0
 30
0.0
 11
1304.140025482657
 21
-1460.0
 31
0.0
  0
LINE
  5
7AC
330
79
100
AcDbEntity
  8
0
 62
     0
100
AcDbLine
 10
1274.839829037682
 20
-1465.0
 30
0.0
 11
1303.983538777161
 21
-1465.0
 31
0.0
  0
LINE
  5
7AD
330
79
100
AcDbEntity
  8
0
 62
     0
100
AcDbLine
 10
1274.610603263465
 20
-1469.999999999999
 30
0.0
 11
1303.693265252515
 21
-1469.999999999999
 31
0.0
  0
LINE
  5
7AE
330
79
100
AcDbEntity
  8
0
 62
     0
100
AcDbLine
 10
1274.381377489248
 20
-1475.0
 30
0.0
 11
1303.402991727868
 21
-1475.0
 31
0.0
  0
LINE
  5
7AF
330
79
100
AcDbEntity
  8
0
 62
     0
100
AcDbLine
 10
1274.152151715032
 20
-1479.999999999999
 30
0.0
 11
1303.112718203221
 21
-1479.999999999999
 31
0.0
  0
LINE
  5
7B0
330
79
100
AcDbEntity
  8
0
 62
     0
100
AcDbLine
 10
1273.922925940815
 20
-1485.0
 30
0.0
 11
1302.822444678574
 21
-1485.0
 31
0.0
  0
LINE
  5
7B1
330
79
100
AcDbEntity
  8
0
 62
     0
100
AcDbLine
 10
1273.693700166599
 20
-1490.0
 30
0.0
 11
1302.532171153928
 21
-1490.0
 31
0.0
  0
LINE
  5
7B2
330
79
100
AcDbEntity
  8
0
 62
     0
100
AcDbLine
 10
1273.464474392382
 20
-1495.0
 30
0.0
 11
1302.241897629281
 21
-1495.0
 31
0.0
  0
LINE
  5
7B3
330
79
100
AcDbEntity
  8
0
 62
     0
100
AcDbLine
 10
1273.235248618165
 20
-1500.0
 30
0.0
 11
1301.951624104634
 21
-1500.0
 31
0.0
  0
LINE
  5
7B4
330
79
100
AcDbEntity
  8
0
 62
     0
100
AcDbLine
 10
1273.006022843949
 20
-1505.0
 30
0.0
 11
1301.661350579987
 21
-1505.0
 31
0.0
  0
LINE
  5
7B5
330
79
100
AcDbEntity
  8
0
 62
     0
100
AcDbLine
 10
1272.776797069732
 20
-1509.999999999999
 30
0.0
 11
1301.371077055341
 21
-1509.999999999999
 31
0.0
  0
LINE
  5
7B6
330
79
100
AcDbEntity
  8
0
 62
     0
100
AcDbLine
 10
1272.547571295516
 20
-1515.0
 30
0.0
 11
1301.080803530694
 21
-1515.0
 31
0.0
  0
LINE
  5
7B7
330
79
100
AcDbEntity
  8
0
 62
     0
100
AcDbLine
 10
1272.318345521299
 20
-1520.0
 30
0.0
 11
1300.790530006047
 21
-1520.0
 31
0.0
  0
LINE
  5
7B8
330
79
100
AcDbEntity
  8
0
 62
     0
100
AcDbLine
 10
1272.089119747083
 20
-1525.0
 30
0.0
 11
1300.5002564814
 21
-1525.0
 31
0.0
  0
LINE
  5
7B9
330
79
100
AcDbEntity
  8
0
 62
     0
100
AcDbLine
 10
1271.859893972866
 20
-1530.0
 30
0.0
 11
1300.209982956754
 21
-1530.0
 31
0.0
  0
LINE
  5
7BA
330
79
100
AcDbEntity
  8
0
 62
     0
100
AcDbLine
 10
1271.630668198649
 20
-1535.0
 30
0.0
 11
1299.919709432107
 21
-1535.0
 31
0.0
  0
LINE
  5
7BB
330
79
100
AcDbEntity
  8
0
 62
     0
100
AcDbLine
 10
1271.401442424433
 20
-1540.0
 30
0.0
 11
1299.62943590746
 21
-1540.0
 31
0.0
  0
LINE
  5
7BC
330
79
100
AcDbEntity
  8
0
 62
     0
100
AcDbLine
 10
1271.172216650217
 20
-1545.0
 30
0.0
 11
1299.339162382813
 21
-1545.0
 31
0.0
  0
LINE
  5
7BD
330
79
100
AcDbEntity
  8
0
 62
     0
100
AcDbLine
 10
1270.942990876
 20
-1550.0
 30
0.0
 11
1299.048888858167
 21
-1550.0
 31
0.0
  0
LINE
  5
7BE
330
79
100
AcDbEntity
  8
0
 62
     0
100
AcDbLine
 10
1270.713765101783
 20
-1555.0
 30
0.0
 11
1298.75861533352
 21
-1555.0
 31
0.0
  0
LINE
  5
7BF
330
79
100
AcDbEntity
  8
0
 62
     0
100
AcDbLine
 10
1270.484539327567
 20
-1560.0
 30
0.0
 11
1298.468341808873
 21
-1560.0
 31
0.0
  0
LINE
  5
7C0
330
79
100
AcDbEntity
  8
0
 62
     0
100
AcDbLine
 10
1270.25531355335
 20
-1565.0
 30
0.0
 11
1298.178068284227
 21
-1565.0
 31
0.0
  0
LINE
  5
7C1
330
79
100
AcDbEntity
  8
0
 62
     0
100
AcDbLine
 10
1270.026087779134
 20
-1570.0
 30
0.0
 11
1297.88779475958
 21
-1570.0
 31
0.0
  0
LINE
  5
7C2
330
79
100
AcDbEntity
  8
0
 62
     0
100
AcDbLine
 10
1269.796862004917
 20
-1575.0
 30
0.0
 11
1297.597521234933
 21
-1575.0
 31
0.0
  0
LINE
  5
7C3
330
79
100
AcDbEntity
  8
0
 62
     0
100
AcDbLine
 10
1282.703118749542
 20
-1580.0
 30
0.0
 11
1297.307247710286
 21
-1580.0
 31
0.0
  0
ENDBLK
  5
7C4
330
79
100
AcDbEntity
  8
0
100
AcDbBlockEnd
  0
BLOCK
  5
7C5
330
7A
100
AcDbEntity
  8
0
100
AcDbBlockBegin
  2
*X2
 70
     1
 10
0.0
 20
0.0
 30
0.0
  3
*X2
  1

  0
LINE
  5
7C6
330
7A
100
AcDbEntity
  8
0
 62
     0
100
AcDbLine
 10
746.7446393717219
 20
-1020.0
 30
0.0
 11
812.3857437351192
 21
-1020.0
 31
0.0
  0
LINE
  5
7C7
330
7A
100
AcDbEntity
  8
0
 62
     0
100
AcDbLine
 10
746.9834744293497
 20
-1015.0
 30
0.0
 11
816.3240577586709
 21
-1015.0
 31
0.0
  0
LINE
  5
7C8
330
7A
100
AcDbEntity
  8
0
 62
     0
100
AcDbLine
 10
747.2223094869774
 20
-1010.0
 30
0.0
 11
820.2623717822225
 21
-1010.0
 31
0.0
  0
LINE
  5
7C9
330
7A
100
AcDbEntity
  8
0
 62
     0
100
AcDbLine
 10
747.4611445446052
 20
-1004.999999999999
 30
0.0
 11
823.2663634517077
 21
-1004.999999999999
 31
0.0
  0
LINE
  5
7CA
330
7A
100
AcDbEntity
  8
0
 62
     0
100
AcDbLine
 10
747.699979602233
 20
-999.9999999999998
 30
0.0
 11
825.429379398137
 21
-999.9999999999998
 31
0.0
  0
LINE
  5
7CB
330
7A
100
AcDbEntity
  8
0
 62
     0
100
AcDbLine
 10
747.9388146598608
 20
-994.9999999999997
 30
0.0
 11
826.5657796749952
 21
-994.9999999999997
 31
0.0
  0
LINE
  5
7CC
330
7A
100
AcDbEntity
  8
0
 62
     0
100
AcDbLine
 10
748.1776497174885
 20
-989.9999999999998
 30
0.0
 11
824.0603823324503
 21
-989.9999999999998
 31
0.0
  0
LINE
  5
7CD
330
7A
100
AcDbEntity
  8
0
 62
     0
100
AcDbLine
 10
748.4164847751164
 20
-984.9999999999997
 30
0.0
 11
821.5549849899055
 21
-984.9999999999997
 31
0.0
  0
LINE
  5
7CE
330
7A
100
AcDbEntity
  8
0
 62
     0
100
AcDbLine
 10
748.6553198327441
 20
-979.9999999999997
 30
0.0
 11
822.0938499473612
 21
-979.9999999999997
 31
0.0
  0
LINE
  5
7CF
330
7A
100
AcDbEntity
  8
0
 62
     0
100
AcDbLine
 10
748.8941548903718
 20
-974.9999999999998
 30
0.0
 11
823.1523318151806
 21
-974.9999999999998
 31
0.0
  0
LINE
  5
7D0
330
7A
100
AcDbEntity
  8
0
 62
     0
100
AcDbLine
 10
749.1329899479997
 20
-969.9999999999997
 30
0.0
 11
824.0688020687437
 21
-969.9999999999997
 31
0.0
  0
LINE
  5
7D1
330
7A
100
AcDbEntity
  8
0
 62
     0
100
AcDbLine
 10
749.2880295345149
 20
-964.9999999999998
 30
0.0
 11
824.5864174356331
 21
-964.9999999999998
 31
0.0
  0
LINE
  5
7D2
330
7A
100
AcDbEntity
  8
0
 62
     0
100
AcDbLine
 10
749.4346013382564
 20
-959.9999999999997
 30
0.0
 11
825.1040328025224
 21
-959.9999999999997
 31
0.0
  0
LINE
  5
7D3
330
7A
100
AcDbEntity
  8
0
 62
     0
100
AcDbLine
 10
749.5811731419981
 20
-954.9999999999998
 30
0.0
 11
825.6216481694119
 21
-954.9999999999998
 31
0.0
  0
LINE
  5
7D4
330
7A
100
AcDbEntity
  8
0
 62
     0
100
AcDbLine
 10
749.7277449457396
 20
-949.9999999999998
 30
0.0
 11
824.0138295765556
 21
-949.9999999999998
 31
0.0
  0
LINE
  5
7D5
330
7A
100
AcDbEntity
  8
0
 62
     0
100
AcDbLine
 10
749.8743167494811
 20
-944.9999999999999
 30
0.0
 11
820.6593602726554
 21
-944.9999999999999
 31
0.0
  0
LINE
  5
7D6
330
7A
100
AcDbEntity
  8
0
 62
     0
100
AcDbLine
 10
750.0208885532226
 20
-939.9999999999998
 30
0.0
 11
818.9133446626966
 21
-939.9999999999998
 31
0.0
  0
LINE
  5
7D7
330
7A
100
AcDbEntity
  8
0
 62
     0
100
AcDbLine
 10
750.1674603569641
 20
-934.9999999999999
 30
0.0
 11
821.6258765816531
 21
-934.9999999999999
 31
0.0
  0
LINE
  5
7D8
330
7A
100
AcDbEntity
  8
0
 62
     0
100
AcDbLine
 10
750.3140321607057
 20
-929.9999999999998
 30
0.0
 11
824.3384085006097
 21
-929.9999999999998
 31
0.0
  0
LINE
  5
7D9
330
7A
100
AcDbEntity
  8
0
 62
     0
100
AcDbLine
 10
750.4606039644472
 20
-924.9999999999998
 30
0.0
 11
826.2903914282274
 21
-924.9999999999998
 31
0.0
  0
LINE
  5
7DA
330
7A
100
AcDbEntity
  8
0
 62
     0
100
AcDbLine
 10
750.6071757681889
 20
-919.9999999999999
 30
0.0
 11
825.6025410197743
 21
-919.9999999999999
 31
0.0
  0
LINE
  5
7DB
330
7A
100
AcDbEntity
  8
0
 62
     0
100
AcDbLine
 10
750.7537475719304
 20
-914.9999999999998
 30
0.0
 11
824.914690611321
 21
-914.9999999999998
 31
0.0
  0
LINE
  5
7DC
330
7A
100
AcDbEntity
  8
0
 62
     0
100
AcDbLine
 10
750.9003193756719
 20
-909.9999999999999
 30
0.0
 11
824.2268402028679
 21
-909.9999999999999
 31
0.0
  0
LINE
  5
7DD
330
7A
100
AcDbEntity
  8
0
 62
     0
100
AcDbLine
 10
751.0468911794134
 20
-904.9999999999998
 30
0.0
 11
823.5389897944147
 21
-904.9999999999998
 31
0.0
  0
LINE
  5
7DE
330
7A
100
AcDbEntity
  8
0
 62
     0
100
AcDbLine
 10
751.193462983155
 20
-899.9999999999998
 30
0.0
 11
822.8511393859616
 21
-899.9999999999998
 31
0.0
  0
LINE
  5
7DF
330
7A
100
AcDbEntity
  8
0
 62
     0
100
AcDbLine
 10
751.3400347868966
 20
-894.9999999999999
 30
0.0
 11
822.193168087759
 21
-894.9999999999999
 31
0.0
  0
LINE
  5
7E0
330
7A
100
AcDbEntity
  8
0
 62
     0
100
AcDbLine
 10
751.4866065906381
 20
-889.9999999999998
 30
0.0
 11
821.5594125873691
 21
-889.9999999999998
 31
0.0
  0
LINE
  5
7E1
330
7A
100
AcDbEntity
  8
0
 62
     0
100
AcDbLine
 10
751.6331783943797
 20
-884.9999999999999
 30
0.0
 11
820.9256570869793
 21
-884.9999999999999
 31
0.0
  0
LINE
  5
7E2
330
7A
100
AcDbEntity
  8
0
 62
     0
100
AcDbLine
 10
751.7797501981211
 20
-879.9999999999998
 30
0.0
 11
817.8194182403888
 21
-879.9999999999998
 31
0.0
  0
LINE
  5
7E3
330
7A
100
AcDbEntity
  8
0
 62
     0
100
AcDbLine
 10
751.9263220018627
 20
-874.9999999999998
 30
0.0
 11
813.2923394252884
 21
-874.9999999999998
 31
0.0
  0
LINE
  5
7E4
330
7A
100
AcDbEntity
  8
0
 62
     0
100
AcDbLine
 10
752.0728938056042
 20
-869.9999999999999
 30
0.0
 11
810.5596778188461
 21
-869.9999999999999
 31
0.0
  0
LINE
  5
7E5
330
7A
100
AcDbEntity
  8
0
 62
     0
100
AcDbLine
 10
752.2194656093459
 20
-864.9999999999998
 30
0.0
 11
809.5181382998578
 21
-864.9999999999998
 31
0.0
  0
LINE
  5
7E6
330
7A
100
AcDbEntity
  8
0
 62
     0
100
AcDbLine
 10
752.3660374130874
 20
-859.9999999999999
 30
0.0
 11
808.4765987808696
 21
-859.9999999999999
 31
0.0
  0
LINE
  5
7E7
330
7A
100
AcDbEntity
  8
0
 62
     0
100
AcDbLine
 10
752.512609216829
 20
-854.9999999999998
 30
0.0
 11
811.9681239012015
 21
-854.9999999999998
 31
0.0
  0
LINE
  5
7E8
330
7A
100
AcDbEntity
  8
0
 62
     0
100
AcDbLine
 10
752.6591810205705
 20
-849.9999999999998
 30
0.0
 11
815.6590764444244
 21
-849.9999999999998
 31
0.0
  0
LINE
  5
7E9
330
7A
100
AcDbEntity
  8
0
 62
     0
100
AcDbLine
 10
752.8057528243119
 20
-844.9999999999999
 30
0.0
 11
817.6134323593149
 21
-844.9999999999999
 31
0.0
  0
LINE
  5
7EA
330
7A
100
AcDbEntity
  8
0
 62
     0
100
AcDbLine
 10
752.9523246280535
 20
-839.9999999999998
 30
0.0
 11
820.1354883925541
 21
-839.9999999999998
 31
0.0
  0
LINE
  5
7EB
330
7A
100
AcDbEntity
  8
0
 62
     0
100
AcDbLine
 10
753.098896431795
 20
-834.9999999999999
 30
0.0
 11
822.6863815856667
 21
-834.9999999999999
 31
0.0
  0
LINE
  5
7EC
330
7A
100
AcDbEntity
  8
0
 62
     0
100
AcDbLine
 10
753.2454682355367
 20
-829.9999999999998
 30
0.0
 11
825.4040022073423
 21
-829.9999999999998
 31
0.0
  0
LINE
  5
7ED
330
7A
100
AcDbEntity
  8
0
 62
     0
100
AcDbLine
 10
753.3920400392782
 20
-824.9999999999998
 30
0.0
 11
828.121622829018
 21
-824.9999999999998
 31
0.0
  0
LINE
  5
7EE
330
7A
100
AcDbEntity
  8
0
 62
     0
100
AcDbLine
 10
753.5968757154924
 20
-819.9999999999999
 30
0.0
 11
825.8595825408802
 21
-819.9999999999999
 31
0.0
  0
LINE
  5
7EF
330
7A
100
AcDbEntity
  8
0
 62
     0
100
AcDbLine
 10
754.107348539556
 20
-814.9999999999998
 30
0.0
 11
822.7953962803994
 21
-814.9999999999998
 31
0.0
  0
LINE
  5
7F0
330
7A
100
AcDbEntity
  8
0
 62
     0
100
AcDbLine
 10
754.6178213636197
 20
-809.9999999999999
 30
0.0
 11
818.0438307511012
 21
-809.9999999999999
 31
0.0
  0
LINE
  5
7F1
330
7A
100
AcDbEntity
  8
0
 62
     0
100
AcDbLine
 10
755.1282941876832
 20
-804.9999999999998
 30
0.0
 11
817.5194508564935
 21
-804.9999999999998
 31
0.0
  0
LINE
  5
7F2
330
7A
100
AcDbEntity
  8
0
 62
     0
100
AcDbLine
 10
755.6387670117468
 20
-799.9999999999999
 30
0.0
 11
819.6740947738774
 21
-799.9999999999999
 31
0.0
  0
LINE
  5
7F3
330
7A
100
AcDbEntity
  8
0
 62
     0
100
AcDbLine
 10
756.1492398358104
 20
-794.9999999999999
 30
0.0
 11
821.8287386912614
 21
-794.9999999999999
 31
0.0
  0
LINE
  5
7F4
330
7A
100
AcDbEntity
  8
0
 62
     0
100
AcDbLine
 10
756.6597126598739
 20
-789.9999999999999
 30
0.0
 11
822.8607035657683
 21
-789.9999999999999
 31
0.0
  0
LINE
  5
7F5
330
7A
100
AcDbEntity
  8
0
 62
     0
100
AcDbLine
 10
757.1701854839375
 20
-784.9999999999998
 30
0.0
 11
819.1183418433856
 21
-784.9999999999998
 31
0.0
  0
LINE
  5
7F6
330
7A
100
AcDbEntity
  8
0
 62
     0
100
AcDbLine
 10
757.680658308001
 20
-779.9999999999998
 30
0.0
 11
818.7699105499483
 21
-779.9999999999998
 31
0.0
  0
LINE
  5
7F7
330
7A
100
AcDbEntity
  8
0
 62
     0
100
AcDbLine
 10
758.1911311320647
 20
-774.9999999999999
 30
0.0
 11
823.1766505494007
 21
-774.9999999999999
 31
0.0
  0
LINE
  5
7F8
330
7A
100
AcDbEntity
  8
0
 62
     0
100
AcDbLine
 10
758.7016039561282
 20
-769.9999999999999
 30
0.0
 11
826.7936715859663
 21
-769.9999999999999
 31
0.0
  0
LINE
  5
7F9
330
7A
100
AcDbEntity
  8
0
 62
     0
100
AcDbLine
 10
759.2120767801918
 20
-764.9999999999998
 30
0.0
 11
825.9369567940527
 21
-764.9999999999998
 31
0.0
  0
LINE
  5
7FA
330
7A
100
AcDbEntity
  8
0
 62
     0
100
AcDbLine
 10
759.7225496042554
 20
-759.9999999999998
 30
0.0
 11
824.3385028298101
 21
-759.9999999999998
 31
0.0
  0
LINE
  5
7FB
330
7A
100
AcDbEntity
  8
0
 62
     0
100
AcDbLine
 10
760.2330224283189
 20
-754.9999999999998
 30
0.0
 11
821.3915139682338
 21
-754.9999999999998
 31
0.0
  0
LINE
  5
7FC
330
7A
100
AcDbEntity
  8
0
 62
     0
100
AcDbLine
 10
760.7434952523825
 20
-749.9999999999999
 30
0.0
 11
815.9029218597249
 21
-749.9999999999999
 31
0.0
  0
LINE
  5
7FD
330
7A
100
AcDbEntity
  8
0
 62
     0
100
AcDbLine
 10
761.253968076446
 20
-744.9999999999999
 30
0.0
 11
812.6874141660648
 21
-744.9999999999999
 31
0.0
  0
LINE
  5
7FE
330
7A
100
AcDbEntity
  8
0
 62
     0
100
AcDbLine
 10
761.7644409005097
 20
-739.9999999999998
 30
0.0
 11
814.0978479227895
 21
-739.9999999999998
 31
0.0
  0
LINE
  5
7FF
330
7A
100
AcDbEntity
  8
0
 62
     0
100
AcDbLine
 10
762.2749137245732
 20
-734.9999999999998
 30
0.0
 11
821.9204154886906
 21
-734.9999999999998
 31
0.0
  0
LINE
  5
800
330
7A
100
AcDbEntity
  8
0
 62
     0
100
AcDbLine
 10
762.7853865486368
 20
-729.9999999999998
 30
0.0
 11
825.2959863111387
 21
-729.9999999999998
 31
0.0
  0
LINE
  5
801
330
7A
100
AcDbEntity
  8
0
 62
     0
100
AcDbLine
 10
763.2958593727003
 20
-724.9999999999999
 30
0.0
 11
825.1121774255761
 21
-724.9999999999999
 31
0.0
  0
LINE
  5
802
330
7A
100
AcDbEntity
  8
0
 62
     0
100
AcDbLine
 10
763.8063321967639
 20
-719.9999999999999
 30
0.0
 11
824.9283685400136
 21
-719.9999999999999
 31
0.0
  0
LINE
  5
803
330
7A
100
AcDbEntity
  8
0
 62
     0
100
AcDbLine
 10
764.3168050208275
 20
-714.9999999999998
 30
0.0
 11
824.744559654451
 21
-714.9999999999998
 31
0.0
  0
LINE
  5
804
330
7A
100
AcDbEntity
  8
0
 62
     0
100
AcDbLine
 10
764.8272778448911
 20
-709.9999999999998
 30
0.0
 11
826.9091260185033
 21
-709.9999999999998
 31
0.0
  0
LINE
  5
805
330
7A
100
AcDbEntity
  8
0
 62
     0
100
AcDbLine
 10
765.3377506689547
 20
-704.9999999999998
 30
0.0
 11
829.2535857356249
 21
-704.9999999999998
 31
0.0
  0
LINE
  5
806
330
7A
100
AcDbEntity
  8
0
 62
     0
100
AcDbLine
 10
765.8482234930183
 20
-699.9999999999999
 30
0.0
 11
831.5980454527462
 21
-699.9999999999999
 31
0.0
  0
LINE
  5
807
330
7A
100
AcDbEntity
  8
0
 62
     0
100
AcDbLine
 10
766.3586963170819
 20
-694.9999999999999
 30
0.0
 11
832.9625673115561
 21
-694.9999999999999
 31
0.0
  0
LINE
  5
808
330
7A
100
AcDbEntity
  8
0
 62
     0
100
AcDbLine
 10
766.8691691411454
 20
-689.9999999999998
 30
0.0
 11
830.2457120051458
 21
-689.9999999999998
 31
0.0
  0
LINE
  5
809
330
7A
100
AcDbEntity
  8
0
 62
     0
100
AcDbLine
 10
767.379641965209
 20
-684.9999999999998
 30
0.0
 11
827.5288566987356
 21
-684.9999999999998
 31
0.0
  0
LINE
  5
80A
330
7A
100
AcDbEntity
  8
0
 62
     0
100
AcDbLine
 10
767.8901147892726
 20
-679.9999999999998
 30
0.0
 11
826.0052154699854
 21
-679.9999999999998
 31
0.0
  0
LINE
  5
80B
330
7A
100
AcDbEntity
  8
0
 62
     0
100
AcDbLine
 10
768.4005876133361
 20
-674.9999999999999
 30
0.0
 11
827.295575011507
 21
-674.9999999999999
 31
0.0
  0
LINE
  5
80C
330
7A
100
AcDbEntity
  8
0
 62
     0
100
AcDbLine
 10
768.9110604373998
 20
-669.9999999999999
 30
0.0
 11
828.5859345530283
 21
-669.9999999999999
 31
0.0
  0
LINE
  5
80D
330
7A
100
AcDbEntity
  8
0
 62
     0
100
AcDbLine
 10
769.4215332614633
 20
-664.9999999999998
 30
0.0
 11
843.3926714313489
 21
-664.9999999999998
 31
0.0
  0
LINE
  5
80E
330
7A
100
AcDbEntity
  8
0
 62
     0
100
AcDbLine
 10
769.9320060855269
 20
-659.9999999999998
 30
0.0
 11
848.1127633317083
 21
-659.9999999999998
 31
0.0
  0
LINE
  5
80F
330
7A
100
AcDbEntity
  8
0
 62
     0
100
AcDbLine
 10
770.4424789095904
 20
-654.9999999999998
 30
0.0
 11
851.9415651933099
 21
-654.9999999999998
 31
0.0
  0
LINE
  5
810
330
7A
100
AcDbEntity
  8
0
 62
     0
100
AcDbLine
 10
770.9529517336541
 20
-649.9999999999999
 30
0.0
 11
851.4825297551134
 21
-649.9999999999999
 31
0.0
  0
LINE
  5
811
330
7A
100
AcDbEntity
  8
0
 62
     0
100
AcDbLine
 10
746.5058043140942
 20
-1025.0
 30
0.0
 11
810.387749916285
 21
-1025.0
 31
0.0
  0
LINE
  5
812
330
7A
100
AcDbEntity
  8
0
 62
     0
100
AcDbLine
 10
746.2669692564664
 20
-1030.0
 30
0.0
 11
808.7046582894918
 21
-1030.0
 31
0.0
  0
LINE
  5
813
330
7A
100
AcDbEntity
  8
0
 62
     0
100
AcDbLine
 10
746.0281341988386
 20
-1035.0
 30
0.0
 11
807.0215666626987
 21
-1035.0
 31
0.0
  0
LINE
  5
814
330
7A
100
AcDbEntity
  8
0
 62
     0
100
AcDbLine
 10
745.7892991412109
 20
-1040.0
 30
0.0
 11
807.8985095623183
 21
-1040.0
 31
0.0
  0
LINE
  5
815
330
7A
100
AcDbEntity
  8
0
 62
     0
100
AcDbLine
 10
745.550464083583
 20
-1044.999999999999
 30
0.0
 11
810.116787871224
 21
-1044.999999999999
 31
0.0
  0
LINE
  5
816
330
7A
100
AcDbEntity
  8
0
 62
     0
100
AcDbLine
 10
745.3116290259552
 20
-1050.0
 30
0.0
 11
811.8119643141181
 21
-1050.0
 31
0.0
  0
LINE
  5
817
330
7A
100
AcDbEntity
  8
0
 62
     0
100
AcDbLine
 10
745.0727939683275
 20
-1054.999999999999
 30
0.0
 11
810.916419471067
 21
-1054.999999999999
 31
0.0
  0
LINE
  5
818
330
7A
100
AcDbEntity
  8
0
 62
     0
100
AcDbLine
 10
744.8339589106998
 20
-1060.0
 30
0.0
 11
810.0208746280159
 21
-1060.0
 31
0.0
  0
LINE
  5
819
330
7A
100
AcDbEntity
  8
0
 62
     0
100
AcDbLine
 10
744.5951238530719
 20
-1065.0
 30
0.0
 11
809.1253297849648
 21
-1065.0
 31
0.0
  0
LINE
  5
81A
330
7A
100
AcDbEntity
  8
0
 62
     0
100
AcDbLine
 10
744.3562887954442
 20
-1070.0
 30
0.0
 11
808.4674255972139
 21
-1070.0
 31
0.0
  0
LINE
  5
81B
330
7A
100
AcDbEntity
  8
0
 62
     0
100
AcDbLine
 10
744.1174537378165
 20
-1075.0
 30
0.0
 11
810.3099329718995
 21
-1075.0
 31
0.0
  0
LINE
  5
81C
330
7A
100
AcDbEntity
  8
0
 62
     0
100
AcDbLine
 10
743.8786186801888
 20
-1080.0
 30
0.0
 11
812.1524403465851
 21
-1080.0
 31
0.0
  0
LINE
  5
81D
330
7A
100
AcDbEntity
  8
0
 62
     0
100
AcDbLine
 10
743.6397836225609
 20
-1084.999999999999
 30
0.0
 11
819.4785738695848
 21
-1084.999999999999
 31
0.0
  0
LINE
  5
81E
330
7A
100
AcDbEntity
  8
0
 62
     0
100
AcDbLine
 10
743.4009485649331
 20
-1090.0
 30
0.0
 11
822.4782608014246
 21
-1090.0
 31
0.0
  0
LINE
  5
81F
330
7A
100
AcDbEntity
  8
0
 62
     0
100
AcDbLine
 10
743.1621135073054
 20
-1094.999999999999
 30
0.0
 11
811.2037086720759
 21
-1094.999999999999
 31
0.0
  0
LINE
  5
820
330
7A
100
AcDbEntity
  8
0
 62
     0
100
AcDbLine
 10
742.9232784496775
 20
-1100.0
 30
0.0
 11
809.4471951712597
 21
-1100.0
 31
0.0
  0
LINE
  5
821
330
7A
100
AcDbEntity
  8
0
 62
     0
100
AcDbLine
 10
742.6844433920498
 20
-1104.999999999999
 30
0.0
 11
808.0248756032506
 21
-1104.999999999999
 31
0.0
  0
LINE
  5
822
330
7A
100
AcDbEntity
  8
0
 62
     0
100
AcDbLine
 10
742.4456083344221
 20
-1110.0
 30
0.0
 11
807.5955502877009
 21
-1110.0
 31
0.0
  0
LINE
  5
823
330
7A
100
AcDbEntity
  8
0
 62
     0
100
AcDbLine
 10
742.2067732767943
 20
-1115.0
 30
0.0
 11
807.1662249721516
 21
-1115.0
 31
0.0
  0
LINE
  5
824
330
7A
100
AcDbEntity
  8
0
 62
     0
100
AcDbLine
 10
741.9679382191665
 20
-1120.0
 30
0.0
 11
806.7368996566019
 21
-1120.0
 31
0.0
  0
LINE
  5
825
330
7A
100
AcDbEntity
  8
0
 62
     0
100
AcDbLine
 10
741.7291031615388
 20
-1125.0
 30
0.0
 11
806.8335012794012
 21
-1125.0
 31
0.0
  0
LINE
  5
826
330
7A
100
AcDbEntity
  8
0
 62
     0
100
AcDbLine
 10
741.490268103911
 20
-1129.999999999999
 30
0.0
 11
808.4866393751969
 21
-1129.999999999999
 31
0.0
  0
LINE
  5
827
330
7A
100
AcDbEntity
  8
0
 62
     0
100
AcDbLine
 10
741.2514330462832
 20
-1135.0
 30
0.0
 11
810.4057553654007
 21
-1135.0
 31
0.0
  0
LINE
  5
828
330
7A
100
AcDbEntity
  8
0
 62
     0
100
AcDbLine
 10
741.1191820081766
 20
-1140.0
 30
0.0
 11
812.7298423470763
 21
-1140.0
 31
0.0
  0
LINE
  5
829
330
7A
100
AcDbEntity
  8
0
 62
     0
100
AcDbLine
 10
741.0823248374724
 20
-1145.0
 30
0.0
 11
815.0539293287522
 21
-1145.0
 31
0.0
  0
LINE
  5
82A
330
7A
100
AcDbEntity
  8
0
 62
     0
100
AcDbLine
 10
741.0454676667683
 20
-1150.0
 30
0.0
 11
815.5745999883425
 21
-1150.0
 31
0.0
  0
LINE
  5
82B
330
7A
100
AcDbEntity
  8
0
 62
     0
100
AcDbLine
 10
741.0086104960641
 20
-1155.0
 30
0.0
 11
814.7839287640699
 21
-1155.0
 31
0.0
  0
LINE
  5
82C
330
7A
100
AcDbEntity
  8
0
 62
     0
100
AcDbLine
 10
740.97175332536
 20
-1160.0
 30
0.0
 11
812.52950884123
 21
-1160.0
 31
0.0
  0
LINE
  5
82D
330
7A
100
AcDbEntity
  8
0
 62
     0
100
AcDbLine
 10
740.9348961546559
 20
-1165.0
 30
0.0
 11
810.2750889183903
 21
-1165.0
 31
0.0
  0
LINE
  5
82E
330
7A
100
AcDbEntity
  8
0
 62
     0
100
AcDbLine
 10
740.8980389839517
 20
-1169.999999999999
 30
0.0
 11
811.1766243344366
 21
-1169.999999999999
 31
0.0
  0
LINE
  5
82F
330
7A
100
AcDbEntity
  8
0
 62
     0
100
AcDbLine
 10
740.8611818132476
 20
-1175.0
 30
0.0
 11
812.4761949097166
 21
-1175.0
 31
0.0
  0
LINE
  5
830
330
7A
100
AcDbEntity
  8
0
 62
     0
100
AcDbLine
 10
740.8243246425435
 20
-1179.999999999999
 30
0.0
 11
813.8760350694116
 21
-1179.999999999999
 31
0.0
  0
LINE
  5
831
330
7A
100
AcDbEntity
  8
0
 62
     0
100
AcDbLine
 10
740.7874674718393
 20
-1185.0
 30
0.0
 11
817.0803184855556
 21
-1185.0
 31
0.0
  0
LINE
  5
832
330
7A
100
AcDbEntity
  8
0
 62
     0
100
AcDbLine
 10
740.7506103011352
 20
-1190.0
 30
0.0
 11
820.2846019016993
 21
-1190.0
 31
0.0
  0
LINE
  5
833
330
7A
100
AcDbEntity
  8
0
 62
     0
100
AcDbLine
 10
740.7137531304312
 20
-1195.0
 30
0.0
 11
817.8965703485619
 21
-1195.0
 31
0.0
  0
LINE
  5
834
330
7A
100
AcDbEntity
  8
0
 62
     0
100
AcDbLine
 10
740.676895959727
 20
-1200.0
 30
0.0
 11
815.0974472964628
 21
-1200.0
 31
0.0
  0
LINE
  5
835
330
7A
100
AcDbEntity
  8
0
 62
     0
100
AcDbLine
 10
740.6400387890229
 20
-1205.0
 30
0.0
 11
814.6079778758899
 21
-1205.0
 31
0.0
  0
LINE
  5
836
330
7A
100
AcDbEntity
  8
0
 62
     0
100
AcDbLine
 10
740.6031816183188
 20
-1210.0
 30
0.0
 11
815.25204005667
 21
-1210.0
 31
0.0
  0
LINE
  5
837
330
7A
100
AcDbEntity
  8
0
 62
     0
100
AcDbLine
 10
740.5663244476146
 20
-1215.0
 30
0.0
 11
826.2399383156552
 21
-1215.0
 31
0.0
  0
LINE
  5
838
330
7A
100
AcDbEntity
  8
0
 62
     0
100
AcDbLine
 10
740.5294672769104
 20
-1219.999999999999
 30
0.0
 11
828.017906468462
 21
-1219.999999999999
 31
0.0
  0
LINE
  5
839
330
7A
100
AcDbEntity
  8
0
 62
     0
100
AcDbLine
 10
740.4926101062064
 20
-1225.0
 30
0.0
 11
825.0825364891891
 21
-1225.0
 31
0.0
  0
LINE
  5
83A
330
7A
100
AcDbEntity
  8
0
 62
     0
100
AcDbLine
 10
740.4557529355022
 20
-1229.999999999999
 30
0.0
 11
822.1471665099162
 21
-1229.999999999999
 31
0.0
  0
LINE
  5
83B
330
7A
100
AcDbEntity
  8
0
 62
     0
100
AcDbLine
 10
740.418895764798
 20
-1235.0
 30
0.0
 11
824.8402530516449
 21
-1235.0
 31
0.0
  0
LINE
  5
83C
330
7A
100
AcDbEntity
  8
0
 62
     0
100
AcDbLine
 10
740.3820385940939
 20
-1240.0
 30
0.0
 11
824.1204504344553
 21
-1240.0
 31
0.0
  0
LINE
  5
83D
330
7A
100
AcDbEntity
  8
0
 62
     0
100
AcDbLine
 10
740.3451814233898
 20
-1245.0
 30
0.0
 11
820.9071677245297
 21
-1245.0
 31
0.0
  0
LINE
  5
83E
330
7A
100
AcDbEntity
  8
0
 62
     0
100
AcDbLine
 10
740.3083242526856
 20
-1250.0
 30
0.0
 11
817.5581605030092
 21
-1250.0
 31
0.0
  0
LINE
  5
83F
330
7A
100
AcDbEntity
  8
0
 62
     0
100
AcDbLine
 10
740.2714670819817
 20
-1255.0
 30
0.0
 11
825.1415075567676
 21
-1255.0
 31
0.0
  0
LINE
  5
840
330
7A
100
AcDbEntity
  8
0
 62
     0
100
AcDbLine
 10
740.2346099112775
 20
-1260.0
 30
0.0
 11
827.6097438169275
 21
-1260.0
 31
0.0
  0
LINE
  5
841
330
7A
100
AcDbEntity
  8
0
 62
     0
100
AcDbLine
 10
740.1977527405733
 20
-1265.0
 30
0.0
 11
826.9244862433323
 21
-1265.0
 31
0.0
  0
LINE
  5
842
330
7A
100
AcDbEntity
  8
0
 62
     0
100
AcDbLine
 10
740.1608955698692
 20
-1270.0
 30
0.0
 11
826.2392286697373
 21
-1270.0
 31
0.0
  0
LINE
  5
843
330
7A
100
AcDbEntity
  8
0
 62
     0
100
AcDbLine
 10
740.1240383991651
 20
-1275.0
 30
0.0
 11
829.3743616798705
 21
-1275.0
 31
0.0
  0
LINE
  5
844
330
7A
100
AcDbEntity
  8
0
 62
     0
100
AcDbLine
 10
740.0871812284609
 20
-1280.0
 30
0.0
 11
834.2082861816885
 21
-1280.0
 31
0.0
  0
LINE
  5
845
330
7A
100
AcDbEntity
  8
0
 62
     0
100
AcDbLine
 10
740.0503240577568
 20
-1285.0
 30
0.0
 11
830.6900467429301
 21
-1285.0
 31
0.0
  0
LINE
  5
846
330
7A
100
AcDbEntity
  8
0
 62
     0
100
AcDbLine
 10
740.0134668870527
 20
-1290.0
 30
0.0
 11
828.5037580995799
 21
-1290.0
 31
0.0
  0
LINE
  5
847
330
7A
100
AcDbEntity
  8
0
 62
     0
100
AcDbLine
 10
739.9766097163485
 20
-1295.0
 30
0.0
 11
822.6572656990365
 21
-1295.0
 31
0.0
  0
LINE
  5
848
330
7A
100
AcDbEntity
  8
0
 62
     0
100
AcDbLine
 10
739.9397525456444
 20
-1300.0
 30
0.0
 11
819.7891661439246
 21
-1300.0
 31
0.0
  0
LINE
  5
849
330
7A
100
AcDbEntity
  8
0
 62
     0
100
AcDbLine
 10
739.9028953749402
 20
-1304.999999999999
 30
0.0
 11
828.3072550979609
 21
-1304.999999999999
 31
0.0
  0
LINE
  5
84A
330
7A
100
AcDbEntity
  8
0
 62
     0
100
AcDbLine
 10
739.8660382042361
 20
-1310.0
 30
0.0
 11
826.3376643002967
 21
-1310.0
 31
0.0
  0
LINE
  5
84B
330
7A
100
AcDbEntity
  8
0
 62
     0
100
AcDbLine
 10
739.8291810335321
 20
-1315.0
 30
0.0
 11
826.4866333074971
 21
-1315.0
 31
0.0
  0
LINE
  5
84C
330
7A
100
AcDbEntity
  8
0
 62
     0
100
AcDbLine
 10
739.792323862828
 20
-1320.0
 30
0.0
 11
827.6186206324233
 21
-1320.0
 31
0.0
  0
LINE
  5
84D
330
7A
100
AcDbEntity
  8
0
 62
     0
100
AcDbLine
 10
739.7554666921238
 20
-1325.0
 30
0.0
 11
825.7687673981074
 21
-1325.0
 31
0.0
  0
LINE
  5
84E
330
7A
100
AcDbEntity
  8
0
 62
     0
100
AcDbLine
 10
739.7186095214197
 20
-1330.0
 30
0.0
 11
822.3437398239029
 21
-1330.0
 31
0.0
  0
LINE
  5
84F
330
7A
100
AcDbEntity
  8
0
 62
     0
100
AcDbLine
 10
739.6817523507155
 20
-1335.0
 30
0.0
 11
818.9187122496987
 21
-1335.0
 31
0.0
  0
LINE
  5
850
330
7A
100
AcDbEntity
  8
0
 62
     0
100
AcDbLine
 10
739.6038402473135
 20
-1340.0
 30
0.0
 11
815.4936846754944
 21
-1340.0
 31
0.0
  0
LINE
  5
851
330
7A
100
AcDbEntity
  8
0
 62
     0
100
AcDbLine
 10
739.5205778988245
 20
-1344.999999999999
 30
0.0
 11
812.06865710129
 21
-1344.999999999999
 31
0.0
  0
LINE
  5
852
330
7A
100
AcDbEntity
  8
0
 62
     0
100
AcDbLine
 10
739.4373155503355
 20
-1350.0
 30
0.0
 11
808.6436295270857
 21
-1350.0
 31
0.0
  0
LINE
  5
853
330
7A
100
AcDbEntity
  8
0
 62
     0
100
AcDbLine
 10
739.3540532018465
 20
-1354.999999999999
 30
0.0
 11
805.2186019528814
 21
-1354.999999999999
 31
0.0
  0
LINE
  5
854
330
7A
100
AcDbEntity
  8
0
 62
     0
100
AcDbLine
 10
739.2707908533576
 20
-1360.0
 30
0.0
 11
801.793574378677
 21
-1360.0
 31
0.0
  0
LINE
  5
855
330
7A
100
AcDbEntity
  8
0
 62
     0
100
AcDbLine
 10
739.1875285048687
 20
-1365.0
 30
0.0
 11
798.3685468044727
 21
-1365.0
 31
0.0
  0
LINE
  5
856
330
7A
100
AcDbEntity
  8
0
 62
     0
100
AcDbLine
 10
739.1042661563797
 20
-1370.0
 30
0.0
 11
795.4155269200458
 21
-1370.0
 31
0.0
  0
LINE
  5
857
330
7A
100
AcDbEntity
  8
0
 62
     0
100
AcDbLine
 10
739.0210038078907
 20
-1375.0
 30
0.0
 11
793.6531392508734
 21
-1375.0
 31
0.0
  0
LINE
  5
858
330
7A
100
AcDbEntity
  8
0
 62
     0
100
AcDbLine
 10
738.9377414594017
 20
-1380.0
 30
0.0
 11
791.8907515817009
 21
-1380.0
 31
0.0
  0
LINE
  5
859
330
7A
100
AcDbEntity
  8
0
 62
     0
100
AcDbLine
 10
738.8544791109128
 20
-1385.0
 30
0.0
 11
794.4442213890401
 21
-1385.0
 31
0.0
  0
LINE
  5
85A
330
7A
100
AcDbEntity
  8
0
 62
     0
100
AcDbLine
 10
738.7712167624238
 20
-1390.0
 30
0.0
 11
796.5884795819702
 21
-1390.0
 31
0.0
  0
LINE
  5
85B
330
7A
100
AcDbEntity
  8
0
 62
     0
100
AcDbLine
 10
738.6879544139349
 20
-1395.0
 30
0.0
 11
795.1508458717588
 21
-1395.0
 31
0.0
  0
ENDBLK
  5
85C
330
7A
100
AcDbEntity
  8
0
100
AcDbBlockEnd
  0
BLOCK
  5
85D
330
7B
100
AcDbEntity
  8
0
100
AcDbBlockBegin
  2
*X3
 70
     1
 10
0.0
 20
0.0
 30
0.0
  3
*X3
  1

  0
LINE
  5
85E
330
7B
100
AcDbEntity
  8
0
 62
     0
100
AcDbLine
 10
809.6504464488477
 20
-1465.0
 30
0.0
 11
819.0052659740166
 21
-1465.0
 31
0.0
  0
LINE
  5
85F
330
7B
100
AcDbEntity
  8
0
 62
     0
100
AcDbLine
 10
808.3958596979353
 20
-1460.0
 30
0.0
 11
812.4734060060339
 21
-1460.0
 31
0.0
  0
LINE
  5
860
330
7B
100
AcDbEntity
  8
0
 62
     0
100
AcDbLine
 10
807.1412729470228
 20
-1455.0
 30
0.0
 11
812.8694135979174
 21
-1455.0
 31
0.0
  0
LINE
  5
861
330
7B
100
AcDbEntity
  8
0
 62
     0
100
AcDbLine
 10
805.8866861961103
 20
-1450.0
 30
0.0
 11
814.7034067922916
 21
-1450.0
 31
0.0
  0
LINE
  5
862
330
7B
100
AcDbEntity
  8
0
 62
     0
100
AcDbLine
 10
804.8378300724225
 20
-1445.0
 30
0.0
 11
810.5994312952091
 21
-1445.0
 31
0.0
  0
LINE
  5
863
330
7B
100
AcDbEntity
  8
0
 62
     0
100
AcDbLine
 10
804.0676464763144
 20
-1440.0
 30
0.0
 11
807.8330863286742
 21
-1440.0
 31
0.0
  0
LINE
  5
864
330
7B
100
AcDbEntity
  8
0
 62
     0
100
AcDbLine
 10
803.2974628802064
 20
-1435.0
 30
0.0
 11
807.6576042979073
 21
-1435.0
 31
0.0
  0
LINE
  5
865
330
7B
100
AcDbEntity
  8
0
 62
     0
100
AcDbLine
 10
802.5272792840985
 20
-1429.999999999999
 30
0.0
 11
806.7051105527903
 21
-1429.999999999999
 31
0.0
  0
LINE
  5
866
330
7B
100
AcDbEntity
  8
0
 62
     0
100
AcDbLine
 10
801.7570956879904
 20
-1425.0
 30
0.0
 11
805.7526168076732
 21
-1425.0
 31
0.0
  0
LINE
  5
867
330
7B
100
AcDbEntity
  8
0
 62
     0
100
AcDbLine
 10
800.9869120918823
 20
-1420.0
 30
0.0
 11
804.8001230625562
 21
-1420.0
 31
0.0
  0
LINE
  5
868
330
7B
100
AcDbEntity
  8
0
 62
     0
100
AcDbLine
 10
800.2167284957744
 20
-1415.0
 30
0.0
 11
801.1325051322742
 21
-1415.0
 31
0.0
  0
LINE
  5
869
330
7B
100
AcDbEntity
  8
0
 62
     0
100
AcDbLine
 10
810.9050331997602
 20
-1469.999999999999
 30
0.0
 11
821.6517593876567
 21
-1469.999999999999
 31
0.0
  0
LINE
  5
86A
330
7B
100
AcDbEntity
  8
0
 62
     0
100
AcDbLine
 10
811.3594058037445
 20
-1475.0
 30
0.0
 11
822.9308984971764
 21
-1475.0
 31
0.0
  0
LINE
  5
86B
330
7B
100
AcDbEntity
  8
0
 62
     0
100
AcDbLine
 10
811.2760037789676
 20
-1479.999999999999
 30
0.0
 11
815.4165848986142
 21
-1479.999999999999
 31
0.0
  0
LINE
  5
86C
330
7B
100
AcDbEntity
  8
0
 62
     0
100
AcDbLine
 10
807.0384612977312
 20
-1505.0
 30
0.0
 11
811.6109428702882
 21
-1505.0
 31
0.0
  0
LINE
  5
86D
330
7B
100
AcDbEntity
  8
0
 62
     0
100
AcDbLine
 10
806.9516337538388
 20
-1509.999999999999
 30
0.0
 11
812.418582521
 21
-1509.999999999999
 31
0.0
  0
LINE
  5
86E
330
7B
100
AcDbEntity
  8
0
 62
     0
100
AcDbLine
 10
806.8648062099466
 20
-1515.0
 30
0.0
 11
810.1787376007427
 21
-1515.0
 31
0.0
  0
LINE
  5
86F
330
7B
100
AcDbEntity
  8
0
 62
     0
100
AcDbLine
 10
806.7779786660544
 20
-1520.0
 30
0.0
 11
811.6130256386504
 21
-1520.0
 31
0.0
  0
ENDBLK
  5
870
330
7B
100
AcDbEntity
  8
0
100
AcDbBlockEnd
  0
BLOCK
  5
871
330
7C
100
AcDbEntity
  8
0
100
AcDbBlockBegin
  2
*X4
 70
     1
 10
0.0
 20
0.0
 30
0.0
  3
*X4
  1

  0
LINE
  5
872
330
7C
100
AcDbEntity
  8
0
 62
     0
100
AcDbLine
 10
814.2732947023061
 20
-1634.999999999999
 30
0.0
 11
831.5463738442421
 21
-1634.999999999999
 31
0.0
  0
LINE
  5
873
330
7C
100
AcDbEntity
  8
0
 62
     0
100
AcDbLine
 10
814.3956910482955
 20
-1630.0
 30
0.0
 11
830.2339671949187
 21
-1630.0
 31
0.0
  0
LINE
  5
874
330
7C
100
AcDbEntity
  8
0
 62
     0
100
AcDbLine
 10
814.5180873942852
 20
-1625.0
 30
0.0
 11
830.0701300091311
 21
-1625.0
 31
0.0
  0
LINE
  5
875
330
7C
100
AcDbEntity
  8
0
 62
     0
100
AcDbLine
 10
814.6404837402746
 20
-1620.0
 30
0.0
 11
830.5003148113955
 21
-1620.0
 31
0.0
  0
LINE
  5
876
330
7C
100
AcDbEntity
  8
0
 62
     0
100
AcDbLine
 10
814.7628800862642
 20
-1615.0
 30
0.0
 11
830.9304996136601
 21
-1615.0
 31
0.0
  0
LINE
  5
877
330
7C
100
AcDbEntity
  8
0
 62
     0
100
AcDbLine
 10
814.8852764322539
 20
-1610.0
 30
0.0
 11
831.3606844159247
 21
-1610.0
 31
0.0
  0
LINE
  5
878
330
7C
100
AcDbEntity
  8
0
 62
     0
100
AcDbLine
 10
815.0007664951221
 20
-1604.999999999999
 30
0.0
 11
828.9810108093632
 21
-1604.999999999999
 31
0.0
  0
LINE
  5
879
330
7C
100
AcDbEntity
  8
0
 62
     0
100
AcDbLine
 10
814.8613661720716
 20
-1600.0
 30
0.0
 11
833.7881130793153
 21
-1600.0
 31
0.0
  0
LINE
  5
87A
330
7C
100
AcDbEntity
  8
0
 62
     0
100
AcDbLine
 10
814.7219658490209
 20
-1594.999999999999
 30
0.0
 11
836.0890287571001
 21
-1594.999999999999
 31
0.0
  0
LINE
  5
87B
330
7C
100
AcDbEntity
  8
0
 62
     0
100
AcDbLine
 10
814.5825655259702
 20
-1590.0
 30
0.0
 11
833.0467894262515
 21
-1590.0
 31
0.0
  0
LINE
  5
87C
330
7C
100
AcDbEntity
  8
0
 62
     0
100
AcDbLine
 10
814.4431652029195
 20
-1585.0
 30
0.0
 11
839.2535340221755
 21
-1585.0
 31
0.0
  0
LINE
  5
87D
330
7C
100
AcDbEntity
  8
0
 62
     0
100
AcDbLine
 10
814.3037648798689
 20
-1580.0
 30
0.0
 11
838.9910087469875
 21
-1580.0
 31
0.0
  0
LINE
  5
87E
330
7C
100
AcDbEntity
  8
0
 62
     0
100
AcDbLine
 10
814.1643645568182
 20
-1575.0
 30
0.0
 11
836.8644999899668
 21
-1575.0
 31
0.0
  0
LINE
  5
87F
330
7C
100
AcDbEntity
  8
0
 62
     0
100
AcDbLine
 10
814.0249642337675
 20
-1570.0
 30
0.0
 11
826.0783013694315
 21
-1570.0
 31
0.0
  0
LINE
  5
880
330
7C
100
AcDbEntity
  8
0
 62
     0
100
AcDbLine
 10
813.2587816278597
 20
-1565.0
 30
0.0
 11
828.0494876114081
 21
-1565.0
 31
0.0
  0
LINE
  5
881
330
7C
100
AcDbEntity
  8
0
 62
     0
100
AcDbLine
 10
812.1173274298929
 20
-1560.0
 30
0.0
 11
828.0867332299383
 21
-1560.0
 31
0.0
  0
LINE
  5
882
330
7C
100
AcDbEntity
  8
0
 62
     0
100
AcDbLine
 10
810.975873231926
 20
-1555.0
 30
0.0
 11
825.52168674775
 21
-1555.0
 31
0.0
  0
LINE
  5
883
330
7C
100
AcDbEntity
  8
0
 62
     0
100
AcDbLine
 10
809.8344190339592
 20
-1550.0
 30
0.0
 11
817.3383802314519
 21
-1550.0
 31
0.0
  0
LINE
  5
884
330
7C
100
AcDbEntity
  8
0
 62
     0
100
AcDbLine
 10
808.6929648359925
 20
-1545.0
 30
0.0
 11
818.7953271750949
 21
-1545.0
 31
0.0
  0
LINE
  5
885
330
7C
100
AcDbEntity
  8
0
 62
     0
100
AcDbLine
 10
807.5515106380256
 20
-1540.0
 30
0.0
 11
817.9928855218159
 21
-1540.0
 31
0.0
  0
LINE
  5
886
330
7C
100
AcDbEntity
  8
0
 62
     0
100
AcDbLine
 10
806.4100564400588
 20
-1535.0
 30
0.0
 11
811.0052967600026
 21
-1535.0
 31
0.0
  0
LINE
  5
887
330
7C
100
AcDbEntity
  8
0
 62
     0
100
AcDbLine
 10
814.1508983563165
 20
-1640.0
 30
0.0
 11
830.4797486932104
 21
-1640.0
 31
0.0
  0
LINE
  5
888
330
7C
100
AcDbEntity
  8
0
 62
     0
100
AcDbLine
 10
814.0285020103268
 20
-1645.0
 30
0.0
 11
829.2794513302306
 21
-1645.0
 31
0.0
  0
LINE
  5
889
330
7C
100
AcDbEntity
  8
0
 62
     0
100
AcDbLine
 10
813.9061056643374
 20
-1649.999999999999
 30
0.0
 11
827.562129985792
 21
-1649.999999999999
 31
0.0
  0
LINE
  5
88A
330
7C
100
AcDbEntity
  8
0
 62
     0
100
AcDbLine
 10
813.7837093183478
 20
-1655.0
 30
0.0
 11
831.8716114069626
 21
-1655.0
 31
0.0
  0
LINE
  5
88B
330
7C
100
AcDbEntity
  8
0
 62
     0
100
AcDbLine
 10
813.6613129723581
 20
-1660.0
 30
0.0
 11
834.4747712281401
 21
-1660.0
 31
0.0
  0
LINE
  5
88C
330
7C
100
AcDbEntity
  8
0
 62
     0
100
AcDbLine
 10
813.2839894181353
 20
-1665.0
 30
0.0
 11
835.2553008857114
 21
-1665.0
 31
0.0
  0
LINE
  5
88D
330
7C
100
AcDbEntity
  8
0
 62
     0
100
AcDbLine
 10
812.5273178013493
 20
-1670.0
 30
0.0
 11
833.3056697946437
 21
-1670.0
 31
0.0
  0
LINE
  5
88E
330
7C
100
AcDbEntity
  8
0
 62
     0
100
AcDbLine
 10
811.7706461845633
 20
-1675.0
 30
0.0
 11
831.3399321220019
 21
-1675.0
 31
0.0
  0
LINE
  5
88F
330
7C
100
AcDbEntity
  8
0
 62
     0
100
AcDbLine
 10
811.0139745677773
 20
-1679.999999999999
 30
0.0
 11
828.7350469329474
 21
-1679.999999999999
 31
0.0
  0
LINE
  5
890
330
7C
100
AcDbEntity
  8
0
 62
     0
100
AcDbLine
 10
810.2573029509914
 20
-1685.0
 30
0.0
 11
825.4901099657564
 21
-1685.0
 31
0.0
  0
LINE
  5
891
330
7C
100
AcDbEntity
  8
0
 62
     0
100
AcDbLine
 10
809.5006313342054
 20
-1690.0
 30
0.0
 11
829.2454030165307
 21
-1690.0
 31
0.0
  0
LINE
  5
892
330
7C
100
AcDbEntity
  8
0
 62
     0
100
AcDbLine
 10
808.7439597174194
 20
-1695.0
 30
0.0
 11
829.0181370208834
 21
-1695.0
 31
0.0
  0
LINE
  5
893
330
7C
100
AcDbEntity
  8
0
 62
     0
100
AcDbLine
 10
807.9872881006334
 20
-1700.0
 30
0.0
 11
826.0643042894677
 21
-1700.0
 31
0.0
  0
LINE
  5
894
330
7C
100
AcDbEntity
  8
0
 62
     0
100
AcDbLine
 10
808.7445551296454
 20
-1705.0
 30
0.0
 11
831.5029356082497
 21
-1705.0
 31
0.0
  0
LINE
  5
895
330
7C
100
AcDbEntity
  8
0
 62
     0
100
AcDbLine
 10
861.4771629329206
 20
-1705.0
 30
0.0
 11
865.9891080691931
 21
-1705.0
 31
0.0
  0
LINE
  5
896
330
7C
100
AcDbEntity
  8
0
 62
     0
100
AcDbLine
 10
810.1068744304857
 20
-1710.0
 30
0.0
 11
837.103641929295
 21
-1710.0
 31
0.0
  0
LINE
  5
897
330
7C
100
AcDbEntity
  8
0
 62
     0
100
AcDbLine
 10
844.2046672814964
 20
-1710.0
 30
0.0
 11
863.4535399142928
 21
-1710.0
 31
0.0
  0
LINE
  5
898
330
7C
100
AcDbEntity
  8
0
 62
     0
100
AcDbLine
 10
811.4691937313262
 20
-1715.0
 30
0.0
 11
842.1386505067047
 21
-1715.0
 31
0.0
  0
LINE
  5
899
330
7C
100
AcDbEntity
  8
0
 62
     0
100
AcDbLine
 10
843.8903191277296
 20
-1715.0
 30
0.0
 11
860.7609754065439
 21
-1715.0
 31
0.0
  0
LINE
  5
89A
330
7C
100
AcDbEntity
  8
0
 62
     0
100
AcDbLine
 10
814.5417187358823
 20
-1720.0
 30
0.0
 11
842.8825307894996
 21
-1720.0
 31
0.0
  0
LINE
  5
89B
330
7C
100
AcDbEntity
  8
0
 62
     0
100
AcDbLine
 10
843.7142935503723
 20
-1720.0
 30
0.0
 11
858.7927543785282
 21
-1720.0
 31
0.0
  0
LINE
  5
89C
330
7C
100
AcDbEntity
  8
0
 62
     0
100
AcDbLine
 10
822.4926544140034
 20
-1724.999999999999
 30
0.0
 11
843.0762915085431
 21
-1724.999999999999
 31
0.0
  0
LINE
  5
89D
330
7C
100
AcDbEntity
  8
0
 62
     0
100
AcDbLine
 10
843.0762915085434
 20
-1724.999999999999
 30
0.0
 11
857.7790013047334
 21
-1724.999999999999
 31
0.0
  0
LINE
  5
89E
330
7C
100
AcDbEntity
  8
0
 62
     0
100
AcDbLine
 10
830.4435900921244
 20
-1729.999999999999
 30
0.0
 11
831.8603390011695
 21
-1729.999999999999
 31
0.0
  0
LINE
  5
89F
330
7C
100
AcDbEntity
  8
0
 62
     0
100
AcDbLine
 10
831.8603390011695
 20
-1729.999999999999
 30
0.0
 11
858.7803302763139
 21
-1729.999999999999
 31
0.0
  0
LINE
  5
8A0
330
7C
100
AcDbEntity
  8
0
 62
     0
100
AcDbLine
 10
839.1669632249797
 20
-1735.0
 30
0.0
 11
860.7680278733422
 21
-1735.0
 31
0.0
  0
LINE
  5
8A1
330
7C
100
AcDbEntity
  8
0
 62
     0
100
AcDbLine
 10
847.9136455682629
 20
-1740.0
 30
0.0
 11
861.706790519282
 21
-1740.0
 31
0.0
  0
LINE
  5
8A2
330
7C
100
AcDbEntity
  8
0
 62
     0
100
AcDbLine
 10
856.6603279115462
 20
-1745.0
 30
0.0
 11
857.8539197816883
 21
-1745.0
 31
0.0
  0
ENDBLK
  5
8A3
330
7C
100
AcDbEntity
  8
0
100
AcDbBlockEnd
  0
ENDSEC
  0
SECTION
  2
ENTITIES
  0
LWPOLYLINE
  5
8A4
330
6F
100
AcDbEntity
  8
GRABUNGSGRENZE
100
AcDbPolyline
 90
        6
 70
   128
 43
0.0
 10
8.512376718128106
 20
-6.473329080727974
 10
12.504229898942
 20
-6.427269420846265
 10
13.06267259551903
 20
-6.457115098226842
 10
13.2898979151618
 20
-6.461501621273972
 10
13.56300441762178
 20
-6.475934067278334
 10
13.44443216166884
 20
-14.52958109860808
  0
LWPOLYLINE
  5
8AC
330
6F
100
AcDbEntity
  8
BEFUND
100
AcDbPolyline
 90
        4
 70
     0
 43
0.0
 10
13.2898979151618
 20
-6.461501621273972
 10
13.06115032989884
 20
-13.49049224079197
 10
13.04456274339492
 20
-14.05296917783447
 10
13.04125229330675
 20
-14.62559361404272
  0
LWPOLYLINE
  5
8B2
330
6F
100
AcDbEntity
  8
BEFUND
100
AcDbPolyline
 90
        4
 70
     0
 43
0.0
 10
12.75078362586129
 20
-14.59796973654854
 10
12.75363069438973
 20
-14.2036518533548
 10
12.79606152026554
 20
-13.43324158983356
 10
13.06267259551903
 20
-6.457115098226842
  0
LWPOLYLINE
  5
8B8
330
6F
100
AcDbEntity
  8
BEFUND
100
AcDbPolyline
 90
       47
 70
     0
 43
0.0
 10
12.504229898942
 20
-6.427269420846265
 10
12.51899887602871
 20
-6.5892263368123
 10
12.44846474014152
 20
-6.842129894379756
 10
12.35777209895302
 20
-7.165399412130685
 10
12.39062697151088
 20
-7.572851590196953
 10
12.39732746766664
 20
-7.761324687916306
 10
12.31034529277898
 20
-7.967410716885918
 10
12.14388758053123
 20
-8.172725461413744
 10
12.07844465263774
 20
-8.424594271248572
 10
12.06008271663294
 20
-8.74458178743672
 10
11.96797441692988
 20
-8.940494923188456
 10
11.80963597371734
 20
-9.135595509163694
 10
11.78080593863866
 20
-9.365953640312984
 10
11.92092528738962
 20
-9.536690010777947
 10
11.96908546660216
 20
-9.624164195425617
 10
11.9473875666738
 20
-9.854500106779292
 10
11.97559556725858
 20
-10.0785672208634
 10
12.1482173862025
 20
-10.21659796871839
 10
12.41131923103995
 20
-10.29015699139056
 10
12.6224805967207
 20
-10.37101003629538
 10
12.76245710392844
 20
-10.49589696650828
 10
12.80255832497958
 20
-10.61294396225941
 10
12.7478119827375
 20
-10.7007387468152
 10
12.62588962843576
 20
-10.81115831420207
 10
12.51437823659061
 20
-10.99286749052698
 10
12.46301864637634
 20
-11.18661590311798
 10
12.33987426320753
 20
-11.23183055195844
 10
12.19001054586836
 20
-11.20376862706503
 10
12.01088509456432
 20
-11.2674976361147
 10
11.80937927818096
 20
-11.34250411975823
 10
11.57830699920717
 20
-11.41148939814045
 10
11.41554705623419
 20
-11.49554514808678
 10
11.15413385597168
 20
-11.63696588211772
 10
10.97891567487247
 20
-11.64668174228891
 10
10.74432967361022
 20
-11.5689583346341
 10
10.54773095834263
 20
-11.58383523644236
 10
10.43049356709217
 20
-11.88986638521193
 10
10.51985320021879
 20
-12.11985630260534
 10
11.37762978355778
 20
-12.40654766468825
 10
11.55306381410009
 20
-12.46611540312017
 10
11.66817151879475
 20
-12.78466821525466
 10
11.88394166537039
 20
-13.03667980674108
 10
12.09099895694231
 20
-13.10837566062155
 10
12.31740220403902
 20
-13.17593569782803
 10
12.55001711178802
 20
-13.27506185944682
 10
12.72977741439528
 20
-13.41510814040629
 10
12.79606152026554
 20
-13.43324158983356
  0
LWPOLYLINE
  5
8E9
330
6F
100
AcDbEntity
  8
BEFUND
100
AcDbPolyline
 90
       95
 70
     0
 43
0.0
 10
12.75363069438973
 20
-14.2036518533548
 10
12.57627953269494
 20
-14.18280776853765
 10
12.52983015796134
 20
-13.99038296102224
 10
12.45086561600873
 20
-13.82658827031663
 10
12.33767510235817
 20
-13.79637431928855
 10
12.22887117164638
 20
-13.86599756333888
 10
12.12939901606733
 20
-13.9875549380329
 10
11.97685958015996
 20
-14.08176770991452
 10
11.80262535868912
 20
-14.08027275487869
 10
11.61605034658315
 20
-14.0421363387194
 10
11.65130471750068
 20
-13.91160905413549
 10
11.59292720547904
 20
-13.81499672400257
 10
10.98455638859326
 20
-13.78428770874124
 10
10.85057251833818
 20
-13.6206644278875
 10
10.69445904926855
 20
-13.54880986118123
 10
10.50902988387327
 20
-13.55142532876725
 10
10.33606213086073
 20
-13.62939956257847
 10
10.28743539583196
 20
-13.71921305449526
 10
10.36513029506975
 20
-13.80251967990378
 10
10.54939456821525
 20
-13.75303906987217
 10
10.73487452171478
 20
-13.76672562548687
 10
10.87698718377462
 20
-13.92319137713816
 10
10.81517854002557
 20
-14.03342366339058
 10
10.6425186898951
 20
-14.21022891285622
 10
10.40833264495389
 20
-14.26088393790717
 10
10.20936922836504
 20
-14.17082291387375
 10
9.978062054409067
 20
-14.16441133495259
 10
9.815289414410017
 20
-14.24439157909874
 10
9.576253404970318
 20
-14.37351596208578
 10
9.317315945115492
 20
-14.32847278298882
 10
9.042857269271269
 20
-14.20706148398618
 10
8.833720959464553
 20
-14.12212658476815
 10
8.761863158610129
 20
-13.95015866266656
 10
8.880297184675537
 20
-13.70118142084303
 10
8.945029139001041
 20
-13.54814680091915
 10
9.149264636313381
 20
-13.36818652015137
 10
9.256944940110093
 20
-13.26494352750605
 10
9.256944940110093
 20
-13.26494352750605
 10
9.003809661816958
 20
-13.12003141076552
 10
8.926098891296586
 20
-13.03163040310677
 10
8.864836099885051
 20
-12.66298440932469
 10
8.848159514415417
 20
-12.54280777632356
 10
8.6439937908548
 20
-12.41812082427117
 10
8.626196752726603
 20
-12.26534331912509
 10
8.662428734759473
 20
-12.12156746643407
 10
8.722501179977458
 20
-12.10813479144903
 10
8.806274421093847
 20
-12.18021473036794
 10
8.821941652882983
 20
-12.30345116697573
 10
8.999257897756093
 20
-12.31308761084238
 10
9.238709734799407
 20
-12.31743604281131
 10
9.409623863629272
 20
-12.23437377526291
 10
9.491324435023894
 20
-12.29525242174436
 10
9.433696047540065
 20
-12.43909493382221
 10
9.422799483728143
 20
-12.53897974274837
 10
9.422799483728143
 20
-12.53897974274837
 10
9.517605781686649
 20
-12.5549865600931
 10
9.636598476898894
 20
-12.48533157347761
 10
9.710805047900358
 20
-12.43008052444946
 10
9.78942677014923
 20
-12.48383655855014
 10
10.12350085816474
 20
-12.77215948848233
 10
10.29309461606716
 20
-12.91936964715728
 10
10.35052308528211
 20
-13.03840043344772
 10
10.39480773685498
 20
-13.19007653147433
 10
10.48467201687603
 20
-13.25500528970384
 10
10.58749918191773
 20
-13.22921277854457
 10
10.65098688758055
 20
-13.00384110492396
 10
10.60066198520728
 20
-12.87561821078749
 10
10.39206841337318
 20
-12.63784866980609
 10
10.15197537651362
 20
-12.42768719492793
 10
10.04061311483309
 20
-12.3302210496838
 10
10.04947192574492
 20
-12.23034258927068
 10
10.12145981122487
 20
-12.11702193110297
 10
10.14663328247186
 20
-11.6941056736646
 10
10.13713327174377
 20
-11.58817109116849
 10
10.05921934880637
 20
-11.43456199070682
 10
10.04749430404374
 20
-11.26852004617106
 10
10.09092825487028
 20
-11.14713725558543
 10
10.0590161364977
 20
-11.04229138318272
 10
10.13491129218248
 20
-10.87495757613652
 10
10.15089906398812
 20
-10.77403801947774
 10
10.11903138520676
 20
-10.68345641737568
 10
10.0305288013395
 20
-10.72856314149459
 10
10.0305288013395
 20
-10.72856314149459
 10
9.838567435275452
 20
-10.92376847793486
 10
9.838567435275452
 20
-10.92376847793486
 10
9.745433910609316
 20
-11.11764703504303
 10
9.68292381606184
 20
-11.32977014055652
 10
9.574548409979728
 20
-11.53694170536302
 10
9.45564776820645
 20
-11.63614410902984
 10
9.358841808426047
 20
-11.63237015759869
 10
9.288872570415456
 20
-11.41250869383192
 10
9.243067509862994
 20
-11.09985329095461
 10
9.151333652645574
 20
-10.76186881836938
 10
9.048700057359717
 20
-10.52275027826026
 10
8.878928541092394
 20
-10.31848303838276
  0
LWPOLYLINE
  5
94A
330
6F
100
AcDbEntity
  8
BEFUND_UNSICHER
100
AcDbPolyline
 90
        2
 70
   128
 43
0.0
 10
8.878928541092394
 20
-10.31848303838276
 10
8.528571475415244
 20
-10.0363241552551
  0
LWPOLYLINE
  5
94E
330
6F
100
AcDbEntity
  8
BEFUND_UNSICHER
100
AcDbPolyline
 90
       17
 70
   128
 43
0.0
 10
10.0305288013395
 20
-10.72856314149459
 10
9.994084084228422
 20
-10.47701175731138
 10
10.16944822123574
 20
-10.18710169912112
 10
10.35012258993639
 20
-9.966459368251381
 10
10.40079971499968
 20
-9.553652518900562
 10
10.46901041490033
 20
-9.209056429342028
 10
10.66102891758167
 20
-9.03219086900258
 10
10.90815562774793
 20
-8.883682439412538
 10
11.04604353405969
 20
-8.665211180216571
 10
10.79912309067535
 20
-8.552884064338405
 10
10.47146070136426
 20
-8.687378989892581
 10
10.24119462365393
 20
-8.688096371865228
 10
10.01903511795275
 20
-8.674524089485103
 10
9.967431109986748
 20
-8.789819015422589
 10
9.829657417017939
 20
-8.717907312099024
 10
9.711585196303738
 20
-8.755973954506584
 10
9.625475882066371
 20
-8.915188492517579
  0
LWPOLYLINE
  5
961
330
6F
100
AcDbEntity
  8
GRABUNGSGRENZE
100
AcDbPolyline
 90
       24
 70
   128
 43
0.0
 10
8.512376718128106
 20
-6.473329080727974
 10
7.714202826023977
 20
-6.454225685804029
 10
7.205118561374377
 20
-6.415899707762156
 10
6.935726252820533
 20
-6.329420122645475
 10
6.253237240102206
 20
-6.313686966210384
 10
6.215855673328435
 20
-6.735038147873988
 10
6.251148984259794
 20
-7.439926252705461
 10
6.278966678301934
 20
-7.757166604087334
 10
6.210581527957815
 20
-8.897745115278679
 10
6.31298669813369
 20
-9.350600054841656
 10
6.359763985241826
 20
-10.35948075592428
 10
6.344994613024201
 20
-10.97667980720013
 10
6.365754969765657
 20
-11.39083980209471
 10
6.374244144142038
 20
-12.95267086902563
 10
6.904761955510102
 20
-13.00322005736685
 10
7.104794302131393
 20
-13.10098108328059
 10
7.097383428518199
 20
-13.9701490168566
 10
7.386106478222698
 20
-13.99642349937757
 10
7.938004120404173
 20
-13.99696724282929
 10
7.938004120404173
 20
-13.99696724282929
 10
7.999328871400859
 20
-14.13157313677395
 10
8.051649343712563
 20
-14.47123547557276
 10
8.114092862521623
 20
-14.72009638042309
 10
8.112152965846188
 20
-14.83639431687126
  0
LWPOLYLINE
  5
97B
330
6F
100
AcDbEntity
  8
BEFUND
100
AcDbPolyline
 90
        6
 70
     0
 43
0.0
 10
7.714202826023977
 20
-6.454225685804029
 10
7.535151443603682
 20
-8.208005456046956
 10
7.491549098706294
 20
-9.695411075147905
 10
7.411386315898196
 20
-11.37361492855862
 10
7.396775029348985
 20
-13.35576470702429
 10
7.386106478222698
 20
-13.99642349937757
  0
LWPOLYLINE
  5
983
330
6F
100
AcDbEntity
  8
BEFUND
100
AcDbPolyline
 90
       78
 70
     0
 43
0.0
 10
7.938004120404173
 20
-13.99696724282929
 10
7.968516795839251
 20
-13.89084606878353
 10
7.917434851390533
 20
-13.80417803770485
 10
7.95915852053408
 20
-13.68580547452431
 10
8.280099025190905
 20
-13.21728296236412
 10
8.256545941721087
 20
-13.11324874329123
 10
8.288117504943233
 20
-13.0520129317439
 10
8.206477975040458
 20
-13.01943883840556
 10
8.179902331215735
 20
-12.95927336229719
 10
8.179902331215735
 20
-12.95927336229719
 10
8.272719392459897
 20
-12.94083067474377
 10
8.296115731157591
 20
-12.86327963769182
 10
8.345030587070155
 20
-12.80304899802651
 10
8.260283079717552
 20
-12.71538988448354
 10
8.177605796154287
 20
-12.66241383396697
 10
8.260283079717552
 20
-12.71538988448354
 10
8.280558232136307
 20
-12.56745169890184
 10
8.280558232136307
 20
-12.56745169890184
 10
8.173387856778159
 20
-12.50327522174009
 10
8.225348168349421
 20
-12.42569952820714
 10
8.259984560179631
 20
-12.3695617843357
 10
8.220140907686213
 20
-12.30226676266083
 10
8.281259600948757
 20
-12.19815945473353
 10
8.255699696069338
 20
-12.13289238859485
 10
8.158780052556622
 20
-12.12583505129416
 10
8.144446991980606
 20
-12.06667915001085
 10
8.152536799410139
 20
-11.98404061234631
 10
8.209601342777538
 20
-11.91054108342369
 10
8.137073523369851
 20
-11.79736785560888
 10
8.100226013573115
 20
-11.65559983431925
 10
8.148081101110003
 20
-11.54946369026717
 10
8.16025499844733
 20
-11.47090219780156
 10
8.094844396365633
 20
-11.33017897488128
 10
8.064160006152103
 20
-11.23737248070041
 10
8.081329822886855
 20
-11.03740970057911
 10
8.112876729627995
 20
-10.94760991615821
 10
8.112876729627995
 20
-10.94760991615821
 10
8.235281427988494
 20
-10.93322225908853
 10
8.211753881588293
 20
-10.85877215477756
 10
8.12704423954581
 20
-10.81497914243328
 10
8.083075109480045
 20
-10.69566040680742
 10
8.11962409973886
 20
-10.49160032794921
 10
8.064429005958299
 20
-10.36719056935632
 10
8.118358273629043
 20
-10.20698162169048
 10
8.221279889009803
 20
-10.07631452053338
 10
8.271167335025907
 20
-9.960995338309009
 10
8.211896957223624
 20
-9.842709953400602
 10
8.239328953455705
 20
-9.713128157688801
 10
8.258551382207645
 20
-9.527445602827068
 10
8.181942114657982
 20
-9.413255755478354
 10
8.264442399911153
 20
-9.261183286438235
 10
8.225432204521299
 20
-8.977617303846322
 10
8.206943726360284
 20
-8.83175286440839
 10
8.11095880764099
 20
-8.725740883349951
 10
8.082275955305417
 20
-8.588046384904828
 10
8.082275955305417
 20
-8.588046384904828
 10
8.148527059199537
 20
-8.52065978201479
 10
8.176010129570851
 20
-8.450246215826812
 10
8.222856522871293
 20
-8.357372796911773
 10
8.222856522871293
 20
-8.357372796911773
 10
8.284986552136103
 20
-8.243063189512447
 10
8.220626912544009
 20
-8.138044052095519
 10
8.161410250646781
 20
-8.081987322375956
 10
8.235731789021068
 20
-7.909519060277863
 10
8.16934595507001
 20
-7.820823954251617
 10
8.269222114792071
 20
-7.707501906962158
 10
8.253842494669491
 20
-7.617742629617198
 10
8.212976939110516
 20
-7.548408204754259
 10
8.122113863959508
 20
-7.466875226072984
 10
8.152624778217372
 20
-7.358713768250539
 10
8.254627519399647
 20
-7.345363864841353
 10
8.247314811402805
 20
-7.14644236073497
 10
8.334885866085031
 20
-6.959680664548196
 10
8.256209897100461
 20
-6.814888321726446
 10
8.29281260326433
 20
-6.67305689805708
 10
8.431534288306654
 20
-6.652534300239633
 10
8.520205618440499
 20
-6.558604635303348
 10
8.512376718128106
 20
-6.473329080727974
  0
LWPOLYLINE
  5
9D3
330
6F
100
AcDbEntity
  8
BEFUND
100
AcDbPolyline
 90
        8
 70
     0
 43
0.0
 10
6.278966678301934
 20
-7.757166604087334
 10
6.35243362544608
 20
-7.77648589758609
 10
6.466671024579595
 20
-7.754964292006882
 10
6.518586426131878
 20
-7.625361362168504
 10
6.514373770287395
 20
-7.472343601271676
 10
6.427585979158109
 20
-7.384686248905921
 10
6.316416930987085
 20
-7.415386489714384
 10
6.238946908087029
 20
-7.485843204744128
  0
LWPOLYLINE
  5
9DD
330
6F
100
AcDbEntity
  8
BEFUND
100
AcDbPolyline
 90
        6
 70
     0
 43
0.0
 10
6.359763985241826
 20
-10.35948075592428
 10
6.526099067769364
 20
-10.41952559139343
 10
6.634353867984198
 20
-10.55817154581551
 10
6.614109536166703
 20
-10.74181469748917
 10
6.451026847620611
 20
-10.90415815191269
 10
6.344994613024201
 20
-10.97667980720013
  0
LWPOLYLINE
  5
9E5
330
6F
100
AcDbEntity
  8
BEFUND
100
AcDbPolyline
 90
       27
 70
     0
 43
0.0
 10
6.365754969765657
 20
-11.39083980209471
 10
6.431933865393967
 20
-11.23980156436066
 10
6.517467278065331
 20
-11.05610205501612
 10
6.517467278065331
 20
-11.05610205501612
 10
6.66624332369363
 20
-10.86520695595954
 10
6.911008690984261
 20
-10.78542454740309
 10
7.054883920784742
 20
-10.82610605994312
 10
7.1121800589559
 20
-11.02090384765437
 10
7.017532294023624
 20
-11.28214206581034
 10
6.79838583104911
 20
-11.49554104702436
 10
6.681222736307508
 20
-11.67314700328567
 10
6.624266505338822
 20
-11.87212398447432
 10
6.63151581095593
 20
-11.9975952726201
 10
6.762264806853512
 20
-12.19539008361664
 10
6.916476185594347
 20
-12.39214449918687
 10
7.052332935642498
 20
-12.59809604234711
 10
7.143248846109952
 20
-12.74083753432889
 10
7.268730701319021
 20
-12.74582993137188
 10
7.329855558701816
 20
-12.64886361666297
 10
7.310313476285378
 20
-12.46423466605666
 10
7.230656111311194
 20
-12.36432944691055
 10
7.010880908070967
 20
-11.84934711984858
 10
7.07402139274944
 20
-11.72381507108889
 10
7.143295056998465
 20
-11.61255972523434
 10
7.21972116211778
 20
-11.51456005980797
 10
7.33386786062473
 20
-11.38796383972957
 10
7.411386315898196
 20
-11.37361492855862
  0
LWPOLYLINE
  5
A02
330
6F
100
AcDbEntity
  8
GRABUNGSGRENZE
100
AcDbPolyline
 90
       20
 70
   128
 43
0.0
 10
13.44443216166884
 20
-14.52958109860808
 10
13.42468126585037
 20
-15.80463616128739
 10
12.97285596786431
 20
-15.80372940037872
 10
12.69583019132089
 20
-15.79664459604476
 10
9.817230302265873
 20
-15.78102458790553
 10
9.823790799730424
 20
-17.4523667649987
 10
9.057121185960186
 20
-17.45971829445157
 10
9.078617767605772
 20
-17.57624686768199
 10
8.856793379874702
 20
-17.57323687079645
 10
8.569516058653066
 20
-17.45166507678185
 10
8.306764908894896
 20
-17.30146461251099
 10
8.124778961109244
 20
-17.18702151099878
 10
8.077712296565145
 20
-17.01427689629992
 10
8.135881100290088
 20
-16.62990405585945
 10
8.150044439219653
 20
-16.0513190166144
 10
8.139727584766976
 20
-15.68127487945244
 10
8.05478752077156
 20
-15.30920535556478
 10
8.067037283309302
 20
-15.24275736235047
 10
8.071066896393789
 20
-15.01071042748105
 10
8.112152965846188
 20
-14.83639431687126
  0
LWPOLYLINE
  5
A18
330
6F
100
AcDbEntity
  8
BEFUND
100
AcDbPolyline
 90
        2
 70
     0
 43
0.0
 10
13.04125229330675
 20
-14.62559361404272
 10
12.97285596786431
 20
-15.80372940037872
  0
LWPOLYLINE
  5
A1C
330
6F
100
AcDbEntity
  8
BEFUND
100
AcDbPolyline
 90
        2
 70
     0
 43
0.0
 10
12.69583019132089
 20
-15.79664459604476
 10
12.75078362586129
 20
-14.59796973654854
  0
LWPOLYLINE
  5
A20
330
6F
100
AcDbEntity
  8
BEFUND
100
AcDbPolyline
 90
        9
 70
     0
 43
0.0
 10
12.17113381442145
 20
-14.64983813380585
 10
12.08328746546234
 20
-14.90541774784957
 10
11.98723298404849
 20
-15.04242093537475
 10
11.66213581739059
 20
-14.93108109310602
 10
11.62428880308816
 20
-14.83500127149967
 10
11.80411404229542
 20
-14.49455317297335
 10
11.88179766786958
 20
-14.47204428982355
 10
12.15578314379211
 20
-14.58237496545725
 10
12.17113381442145
 20
-14.64983813380585
  0
LWPOLYLINE
  5
A2B
330
6F
100
AcDbEntity
  8
BEFUND
100
AcDbPolyline
 90
       13
 70
     0
 43
0.0
 10
8.046608723905034
 20
-14.19269020543355
 10
8.000597218346197
 20
-14.13702024590672
 10
8.046608723905034
 20
-14.19269020543355
 10
8.07703202995432
 20
-14.35239364813461
 10
8.079095818827411
 20
-14.42803804131088
 10
8.151689200579777
 20
-14.4873087515506
 10
8.122065209360679
 20
-14.56807238608853
 10
8.125141299737977
 20
-14.60487183160855
 10
8.160919822863556
 20
-14.60690714541997
 10
8.212050584053057
 20
-14.68253899911954
 10
8.235585353140146
 20
-14.77453356371356
 10
8.153813596923574
 20
-14.80011017758952
 10
8.112152965846188
 20
-14.83639431687126
  0
LWPOLYLINE
  5
A3A
330
6F
100
AcDbEntity
  8
BEFUND
100
AcDbPolyline
 90
       35
 70
     0
 43
0.0
 10
8.050639579757895
 20
-15.3177731256085
 10
8.172362879067106
 20
-15.38379800013307
 10
8.19384143521494
 20
-15.42979280065865
 10
8.172393444041556
 20
-15.50339874515432
 10
8.227600057635866
 20
-15.52791812440124
 10
8.278721936696044
 20
-15.56879420604336
 10
8.283852150099813
 20
-15.64341558691241
 10
8.258309236067477
 20
-15.69351131879619
 10
8.274675865548392
 20
-15.73644073974749
 10
8.361564511974743
 20
-15.73335184865439
 10
8.396341183160028
 20
-15.81512125371909
 10
8.389202302332815
 20
-15.88054571214798
 10
8.336048244330388
 20
-15.88771489671055
 10
8.320723436371739
 20
-15.92145235876455
 10
8.366732082569505
 20
-15.95415191788276
 10
8.331990417423332
 20
-16.00936114386805
 10
8.276803658000458
 20
-16.06253113745544
 10
8.314632646805138
 20
-16.08807718635695
 10
8.297306224878688
 20
-16.28946065963688
 10
8.318784519787424
 20
-16.33443323157254
 10
8.296322398436149
 20
-16.43972852359499
 10
8.273850088760056
 20
-16.50515690061036
 10
8.340311927646558
 20
-16.57158477841414
 10
8.352598786136194
 20
-16.65029324496921
 10
8.303563684989722
 20
-16.77501767241678
 10
8.252472370903998
 20
-16.85374233579592
 10
8.292351041670483
 20
-16.89973243401774
 10
8.30769465884418
 20
-16.93959543043836
 10
8.242281956174684
 20
-16.97845683615778
 10
8.265800267198606
 20
-17.00605099958651
 10
8.371113845957907
 20
-17.10006912223255
 10
8.420191529077332
 20
-17.14196795494279
 10
8.435551343075093
 20
-17.24520912393877
 10
8.389562812287861
 20
-17.29122116624481
 10
8.306764908894896
 20
-17.30146461251099
  0
LWPOLYLINE
  5
A5F
330
6F
100
AcDbEntity
  8
BEFUND
100
AcDbPolyline
 90
       11
 70
     0
 43
0.0
 10
8.435551343075093
 20
-17.24520912393877
 10
8.440625651311922
 20
-17.10107358656382
 10
8.490705186371638
 20
-17.06323832802079
 10
8.554091196119937
 20
-17.09388898889448
 10
8.63892049473786
 20
-17.03253359065385
 10
8.663459205678023
 20
-17.052971892714
 10
8.614412610011244
 20
-17.13271826220487
 10
8.574571557674849
 20
-17.23392908093228
 10
8.594018718597725
 20
-17.33103583343232
 10
8.630832009789926
 20
-17.38213785832106
 10
8.574950678717863
 20
-17.45465694198355
  0
LWPOLYLINE
  5
A6C
330
6F
100
AcDbEntity
  8
BEFUND
100
AcDbPolyline
 90
        5
 70
     0
 43
0.0
 10
13.45383446116513
 20
-13.89095951873358
 10
13.38033805322818
 20
-13.90622234082762
 10
13.21037931571804
 20
-13.9689039051186
 10
13.11478268777865
 20
-14.02625936643367
 10
13.04456274339492
 20
-14.05296917783447
  0
LWPOLYLINE
  5
A73
330
6F
100
AcDbEntity
  8
BEFUND
100
AcDbPolyline
 90
        5
 70
     0
 43
0.0
 10
13.06115032989884
 20
-13.49049224079197
 10
13.15198904677871
 20
-13.54115355446432
 10
13.21301053480338
 20
-13.50530242332175
 10
13.31406658449236
 20
-13.56510188247935
 10
13.45938076683702
 20
-13.51424417457239
  0
LWPOLYLINE
  5
A7A
330
6F
100
AcDbEntity
  8
BEFUND
100
AcDbPolyline
 90
       15
 70
     0
 43
0.0
 10
7.205118561374377
 20
-6.415899707762156
 10
7.068614158418832
 20
-6.641469063959073
 10
6.949486510520785
 20
-6.906808983794989
 10
6.876352425870253
 20
-7.273103324089401
 10
6.822594872977961
 20
-7.632239939981879
 10
6.896158684868924
 20
-7.763774841198225
 10
6.902442445091351
 20
-7.952495807009797
 10
6.94944118022088
 20
-8.036106934777876
 10
6.96489300860927
 20
-8.209517846966857
 10
7.045589007832552
 20
-8.330845165179532
 10
7.238470674760768
 20
-8.417390794441772
 10
7.309954576387712
 20
-8.503021071859956
 10
7.333549928110689
 20
-8.656022101573242
 10
7.424449107394601
 20
-8.779380897676528
 10
7.516039959990856
 20
-8.859954982660038
  0
LWPOLYLINE
  5
A8B
330
6F
100
AcDbEntity
  8
BEFUND
100
AcDbPolyline
 90
        6
 70
     0
 43
0.0
 10
8.071066896393789
 20
-15.01071042748105
 10
8.127302008316375
 20
-15.05976303164708
 10
8.125267216983145
 20
-15.09758601195251
 10
8.098704425512764
 20
-15.15688206238471
 10
8.120184810334283
 20
-15.21003246303977
 10
8.067180460542234
 20
-15.23451244221845
  0
INSERT
  5
A93
330
6F
100
AcDbEntity
  8
BEFUNDSCHRAFF
100
AcDbBlockReference
  2
*X1
 10
0.0
 20
0.0
 30
0.0
 41
0.01
 42
0.01
 43
0.01
1001
ACAD
1000
HATCH
1002
{
1070
    16
1000
ANSI31,I
1040
40.0
1040
5.497787143782137
1002
}
  0
INSERT
  5
A94
330
6F
100
AcDbEntity
  8
BEFUNDSCHRAFF
100
AcDbBlockReference
  2
*X2
 10
0.0
 20
0.0
 30
0.0
 41
0.01
 42
0.01
 43
0.01
1001
ACAD
1000
HATCH
1002
{
1070
    16
1000
ANSI31,I
1040
40.0
1040
5.497787143782137
1002
}
  0
INSERT
  5
A95
330
6F
100
AcDbEntity
  8
BEFUNDSCHRAFF
100
AcDbBlockReference
  2
*X3
 10
0.0
 20
0.0
 30
0.0
 41
0.01
 42
0.01
 43
0.01
1001
ACAD
1000
HATCH
1002
{
1070
    16
1000
ANSI31,I
1040
40.0
1040
5.497787143782137
1002
}
  0
INSERT
  5
A96
330
6F
100
AcDbEntity
  8
BEFUNDSCHRAFF
100
AcDbBlockReference
  2
*X4
 10
0.0
 20
0.0
 30
0.0
 41
0.01
 42
0.01
 43
0.01
1001
ACAD
1000
HATCH
1002
{
1070
    16
1000
ANSI31,I
1040
40.0
1040
5.497787143782137
1002
}
  0
ENDSEC
  0
SECTION
  2
OBJECTS
  0
DICTIONARY
  5
C
330
0
100
AcDbDictionary
281
     1
  3
ACAD_CIP_PREVIOUS_PRODUCT_INFO
350
A99
  3
ACAD_COLOR
350
62
  3
ACAD_DETAILVIEWSTYLE
350
69
  3
ACAD_GROUP
350
D
  3
ACAD_LAYOUT
350
61
  3
ACAD_MATERIAL
350
10
  3
ACAD_MLEADERSTYLE
350
65
  3
ACAD_MLINESTYLE
350
5E
  3
ACAD_PLOTSETTINGS
350
60
  3
ACAD_PLOTSTYLENAME
350
E
  3
ACAD_SCALELIST
350
42
  3
ACAD_SECTIONVIEWSTYLE
350
67
  3
ACAD_TABLESTYLE
350
63
  3
ACAD_VISUALSTYLE
350
29
  3
ACDB_RECOMPOSE_DATA
350
B44
  3
AcDbVariableDictionary
350
AE4
  0
DICTIONARY
  5
A9D
330
2
100
AcDbDictionary
280
     1
281
     1
  3
ACAD_LAYERSTATES
360
A9E
  0
XRECORD
  5
A99
102
{ACAD_REACTORS
330
C
102
}
330
C
100
AcDbXrecord
280
     1
300
ACD
300
2014
300
DSADV_F_S
  0
DICTIONARY
  5
62
102
{ACAD_REACTORS
330
C
102
}
330
C
100
AcDbDictionary
281
     1
  0
DICTIONARY
  5
69
102
{ACAD_REACTORS
330
C
102
}
330
C
100
AcDbDictionary
281
     1
  3
Imperial24
350
6A
  0
DICTIONARY
  5
D
102
{ACAD_REACTORS
330
C
102
}
330
C
100
AcDbDictionary
281
     1
  0
DICTIONARY
  5
61
102
{ACAD_REACTORS
330
C
102
}
330
C
100
AcDbDictionary
281
     1
  3
Layout1
350
6E
  3
Model
350
72
  0
DICTIONARY
  5
10
102
{ACAD_REACTORS
330
C
102
}
330
C
100
AcDbDictionary
281
     1
  3
ByBlock
350
19
  3
ByLayer
350
11
  3
Global
350
21
  0
DICTIONARY
  5
65
102
{ACAD_REACTORS
330
C
102
}
330
C
100
AcDbDictionary
281
     1
  3
Standard
350
66
  0
DICTIONARY
  5
5E
102
{ACAD_REACTORS
330
C
102
}
330
C
100
AcDbDictionary
281
     1
  3
Standard
350
5F
  0
DICTIONARY
  5
60
102
{ACAD_REACTORS
330
C
102
}
330
C
100
AcDbDictionary
281
     1
  0
ACDBDICTIONARYWDFLT
  5
E
102
{ACAD_REACTORS
330
C
102
}
330
C
100
AcDbDictionary
281
     1
  3
Normal
350
F
100
AcDbDictionaryWithDefault
340
F
  0
DICTIONARY
  5
42
102
{ACAD_REACTORS
330
C
102
}
330
C
100
AcDbDictionary
281
     1
  3
A0
350
43
  3
A1
350
44
  3
A2
350
45
  3
A3
350
46
  3
A4
350
47
  3
A5
350
48
  3
A6
350
49
  3
A7
350
4A
  3
A8
350
4B
  3
A9
350
4C
  3
B0
350
4D
  3
B1
350
4E
  3
B2
350
4F
  3
B3
350
50
  3
B4
350
51
  3
B5
350
52
  3
B6
350
53
  0
DICTIONARY
  5
67
102
{ACAD_REACTORS
330
C
102
}
330
C
100
AcDbDictionary
281
     1
  3
Imperial24
350
68
  0
DICTIONARY
  5
63
102
{ACAD_REACTORS
330
C
102
}
330
C
100
AcDbDictionary
281
     1
  3
Standard
350
64
  0
DICTIONARY
  5
29
102
{ACAD_REACTORS
330
C
102
}
330
C
100
AcDbDictionary
281
     1
  3
2dWireframe
350
2F
  3
Basic
350
2E
  3
Brighten
350
35
  3
ColorChange
350
39
  3
Conceptual
350
32
  3
Dim
350
34
  3
EdgeColorOff
350
41
  3
Facepattern
350
38
  3
Flat
350
2A
  3
FlatWithEdges
350
2B
  3
Gouraud
350
2C
  3
GouraudWithEdges
350
2D
  3
Hidden
350
31
  3
JitterOff
350
3F
  3
Linepattern
350
37
  3
OverhangOff
350
40
  3
Realistic
350
33
  3
Shaded
350
3E
  3
Shaded with edges
350
3D
  3
Shades of Gray
350
3A
  3
Sketchy
350
3B
  3
Thicken
350
36
  3
Wireframe
350
30
  3
X-Ray
350
3C
  0
XRECORD
  5
B44
102
{ACAD_REACTORS
330
C
102
}
330
C
100
AcDbXrecord
280
     1
 90
        1
330
64
330
68
330
6A
  0
DICTIONARY
  5
AE4
102
{ACAD_REACTORS
330
C
102
}
330
C
100
AcDbDictionary
281
     1
  3
CANNOSCALE
350
AE9
  3
CMLEADERSTYLE
350
AE6
  3
CTABLESTYLE
350
AE5
  3
CVIEWDETAILSTYLE
350
AE7
  3
CVIEWSECTIONSTYLE
350
AE8
  0
DICTIONARY
  5
A9E
102
{ACAD_REACTORS
330
A9D
102
}
330
A9D
100
AcDbDictionary
281
     1
  0
ACDBDETAILVIEWSTYLE
  5
6A
102
{ACAD_XDICTIONARY
360
B42
102
}
102
{ACAD_REACTORS
330
69
102
}
330
69
100
AcDbModelDocViewStyle
 70
     0
  3
Imperial24
290
     0
100
AcDbDetailViewStyle
 70
     0
 71
     0
 90
        3
 71
     1
340
55
 62
   256
 40
0.24
340
0
 62
   256
 40
0.24
300

 40
0.36
280
     3
 71
     2
340
5C
 90
       25
 62
   256
 71
     3
340
55
 62
   256
 40
0.24
 90
        1
 40
0.75
 90
        1
300
%<\AcVar ViewType \f "%tc1">% %<\AcVar ViewDetailId>%\PVARIA %<\AcVar ViewScale \f "%sn">%
 71
     4
340
5C
 90
       25
 62
   256
340
5C
 90
       25
 62
   256
280
     0
  0
LAYOUT
  5
6E
102
{ACAD_REACTORS
330
61
102
}
330
61
100
AcDbPlotSettings
  1

  2
Kyocera FS-1350DN KX
  4

  6

 40
0.0
 41
0.0
 42
0.0
 43
0.0
 44
0.0
 45
0.0
 46
0.0
 47
0.0
 48
0.0
 49
0.0
140
0.0
141
0.0
142
1.0
143
1.0
 70
   688
 72
     0
 73
     0
 74
     5
  7

 75
    16
147
1.0
 76
     0
 77
     2
 78
   300
148
0.0
149
0.0
100
AcDbLayout
  1
Layout1
 70
     0
 71
     1
 10
0.0
 20
0.0
 11
12.0
 21
9.0
 12
0.0
 22
0.0
 32
0.0
 14
1.000000000000000E+20
 24
1.000000000000000E+20
 34
1.000000000000000E+20
 15
-1.000000000000000E+20
 25
-1.000000000000000E+20
 35
-1.000000000000000E+20
146
0.0
 13
0.0
 23
0.0
 33
0.0
 16
1.0
 26
0.0
 36
0.0
 17
0.0
 27
1.0
 37
0.0
 76
     0
330
6B
  0
LAYOUT
  5
72
102
{ACAD_XDICTIONARY
360
AE2
102
}
102
{ACAD_REACTORS
330
61
102
}
330
61
100
AcDbPlotSettings
  1

  2
Kyocera FS-1350DN KX
  4

  6

 40
0.0
 41
0.0
 42
0.0
 43
0.0
 44
0.0
 45
0.0
 46
0.0
 47
0.0
 48
0.0
 49
0.0
140
0.0
141
0.0
142
1.0
143
1.0
 70
  1712
 72
     0
 73
     0
 74
     0
  7

 75
     0
147
1.0
 76
     0
 77
     2
 78
   300
148
0.0
149
0.0
100
AcDbLayout
  1
Model
 70
     1
 71
     0
 10
0.0
 20
0.0
 11
12.0
 21
9.0
 12
0.0
 22
0.0
 32
0.0
 14
0.0
 24
0.0
 34
0.0
 15
0.0
 25
0.0
 35
0.0
146
0.0
 13
0.0
 23
0.0
 33
0.0
 16
1.0
 26
0.0
 36
0.0
 17
0.0
 27
1.0
 37
0.0
 76
     0
330
6F
331
96
  0
MATERIAL
  5
19
102
{ACAD_XDICTIONARY
360
1A
102
}
102
{ACAD_REACTORS
330
10
102
}
330
10
100
AcDbMaterial
  1
ByBlock
 72
     0
 43
0.0208333333333333
 43
0.0
 43
0.0
 43
0.0
 43
0.0
 43
0.0208333333333333
 43
0.0
 43
0.0
 43
0.0
 43
0.0
 43
1.0
 43
0.0
 43
0.0
 43
0.0
 43
0.0
 43
1.0
 77
     0
 47
0.0208333333333333
 47
0.0
 47
0.0
 47
0.0
 47
0.0
 47
0.0208333333333333
 47
0.0
 47
0.0
 47
0.0
 47
0.0
 47
1.0
 47
0.0
 47
0.0
 47
0.0
 47
0.0
 47
1.0
171
     0
 49
0.0208333333333333
 49
0.0
 49
0.0
 49
0.0
 49
0.0
 49
0.0208333333333333
 49
0.0
 49
0.0
 49
0.0
 49
0.0
 49
1.0
 49
0.0
 49
0.0
 49
0.0
 49
0.0
 49
1.0
175
     0
142
0.0208333333333333
142
0.0
142
0.0
142
0.0
142
0.0
142
0.0208333333333333
142
0.0
142
0.0
142
0.0
142
0.0
142
1.0
142
0.0
142
0.0
142
0.0
142
0.0
142
1.0
179
     0
144
0.0208333333333333
144
0.0
144
0.0
144
0.0
144
0.0
144
0.0208333333333333
144
0.0
144
0.0
144
0.0
144
0.0
144
1.0
144
0.0
144
0.0
144
0.0
144
0.0
144
1.0
147
0.0208333333333333
147
0.0
147
0.0
147
0.0
147
0.0
147
0.0208333333333333
147
0.0
147
0.0
147
0.0
147
0.0
147
1.0
147
0.0
147
0.0
147
0.0
147
0.0
147
1.0
  0
MATERIAL
  5
11
102
{ACAD_XDICTIONARY
360
12
102
}
102
{ACAD_REACTORS
330
10
102
}
330
10
100
AcDbMaterial
  1
ByLayer
 72
     0
 43
0.0208333333333333
 43
0.0
 43
0.0
 43
0.0
 43
0.0
 43
0.0208333333333333
 43
0.0
 43
0.0
 43
0.0
 43
0.0
 43
1.0
 43
0.0
 43
0.0
 43
0.0
 43
0.0
 43
1.0
 77
     0
 47
0.0208333333333333
 47
0.0
 47
0.0
 47
0.0
 47
0.0
 47
0.0208333333333333
 47
0.0
 47
0.0
 47
0.0
 47
0.0
 47
1.0
 47
0.0
 47
0.0
 47
0.0
 47
0.0
 47
1.0
171
     0
 49
0.0208333333333333
 49
0.0
 49
0.0
 49
0.0
 49
0.0
 49
0.0208333333333333
 49
0.0
 49
0.0
 49
0.0
 49
0.0
 49
1.0
 49
0.0
 49
0.0
 49
0.0
 49
0.0
 49
1.0
175
     0
142
0.0208333333333333
142
0.0
142
0.0
142
0.0
142
0.0
142
0.0208333333333333
142
0.0
142
0.0
142
0.0
142
0.0
142
1.0
142
0.0
142
0.0
142
0.0
142
0.0
142
1.0
179
     0
144
0.0208333333333333
144
0.0
144
0.0
144
0.0
144
0.0
144
0.0208333333333333
144
0.0
144
0.0
144
0.0
144
0.0
144
1.0
144
0.0
144
0.0
144
0.0
144
0.0
144
1.0
147
0.0208333333333333
147
0.0
147
0.0
147
0.0
147
0.0
147
0.0208333333333333
147
0.0
147
0.0
147
0.0
147
0.0
147
1.0
147
0.0
147
0.0
147
0.0
147
0.0
147
1.0
  0
MATERIAL
  5
21
102
{ACAD_XDICTIONARY
360
22
102
}
102
{ACAD_REACTORS
330
10
102
}
330
10
100
AcDbMaterial
  1
Global
 72
     0
 43
0.0208333333333333
 43
0.0
 43
0.0
 43
0.0
 43
0.0
 43
0.0208333333333333
 43
0.0
 43
0.0
 43
0.0
 43
0.0
 43
1.0
 43
0.0
 43
0.0
 43
0.0
 43
0.0
 43
1.0
 77
     0
 47
0.0208333333333333
 47
0.0
 47
0.0
 47
0.0
 47
0.0
 47
0.0208333333333333
 47
0.0
 47
0.0
 47
0.0
 47
0.0
 47
1.0
 47
0.0
 47
0.0
 47
0.0
 47
0.0
 47
1.0
171
     0
 49
0.0208333333333333
 49
0.0
 49
0.0
 49
0.0
 49
0.0
 49
0.0208333333333333
 49
0.0
 49
0.0
 49
0.0
 49
0.0
 49
1.0
 49
0.0
 49
0.0
 49
0.0
 49
0.0
 49
1.0
175
     0
142
0.0208333333333333
142
0.0
142
0.0
142
0.0
142
0.0
142
0.0208333333333333
142
0.0
142
0.0
142
0.0
142
0.0
142
1.0
142
0.0
142
0.0
142
0.0
142
0.0
142
1.0
179
     0
144
0.0208333333333333
144
0.0
144
0.0
144
0.0
144
0.0
144
0.0208333333333333
144
0.0
144
0.0
144
0.0
144
0.0
144
1.0
144
0.0
144
0.0
144
0.0
144
0.0
144
1.0
147
0.0208333333333333
147
0.0
147
0.0
147
0.0
147
0.0
147
0.0208333333333333
147
0.0
147
0.0
147
0.0
147
0.0
147
1.0
147
0.0
147
0.0
147
0.0
147
0.0
147
1.0
  0
MLEADERSTYLE
  5
66
102
{ACAD_REACTORS
330
65
102
}
330
65
100
AcDbMLeaderStyle
179
     2
170
     2
171
     1
172
     0
 90
        2
 40
0.0
 41
0.0
173
     1
 91
-1056964608
340
5A
 92
       -2
290
     1
 42
0.09
291
     1
 43
0.36
  3
Standard
 44
0.18
300

342
55
174
     1
178
     6
175
     1
176
     0
 93
-1056964608
 45
0.18
292
     0
297
     0
 46
0.18
 94
-1056964608
 47
1.0
 49
1.0
140
1.0
293
     1
141
0.0
294
     1
177
     0
142
1.0
295
     0
296
     0
143
0.125
271
     0
272
     9
273
     9
298
     1
  0
MLINESTYLE
  5
5F
102
{ACAD_REACTORS
330
5E
102
}
330
5E
100
AcDbMlineStyle
  2
STANDARD
 70
     0
  3

 62
   256
 51
90.0
 52
90.0
 71
     2
 49
0.5
 62
   256
  6
BYLAYER
 49
-0.5
 62
   256
  6
BYLAYER
  0
ACDBPLACEHOLDER
  5
F
102
{ACAD_REACTORS
330
E
102
}
330
E
  0
SCALE
  5
43
102
{ACAD_REACTORS
330
42
102
}
330
42
100
AcDbScale
 70
     0
300
1:1
140
1.0
141
1.0
290
     1
  0
SCALE
  5
44
102
{ACAD_REACTORS
330
42
102
}
330
42
100
AcDbScale
 70
     0
300
1/128" = 1'-0"
140
0.0078125
141
12.0
290
     0
  0
SCALE
  5
45
102
{ACAD_REACTORS
330
42
102
}
330
42
100
AcDbScale
 70
     0
300
1/64" = 1'-0"
140
0.015625
141
12.0
290
     0
  0
SCALE
  5
46
102
{ACAD_REACTORS
330
42
102
}
330
42
100
AcDbScale
 70
     0
300
1/32" = 1'-0"
140
0.03125
141
12.0
290
     0
  0
SCALE
  5
47
102
{ACAD_REACTORS
330
42
102
}
330
42
100
AcDbScale
 70
     0
300
1/16" = 1'-0"
140
0.0625
141
12.0
290
     0
  0
SCALE
  5
48
102
{ACAD_REACTORS
330
42
102
}
330
42
100
AcDbScale
 70
     0
300
3/32" = 1'-0"
140
0.09375
141
12.0
290
     0
  0
SCALE
  5
49
102
{ACAD_REACTORS
330
42
102
}
330
42
100
AcDbScale
 70
     0
300
1/8" = 1'-0"
140
0.125
141
12.0
290
     0
  0
SCALE
  5
4A
102
{ACAD_REACTORS
330
42
102
}
330
42
100
AcDbScale
 70
     0
300
3/16" = 1'-0"
140
0.1875
141
12.0
290
     0
  0
SCALE
  5
4B
102
{ACAD_REACTORS
330
42
102
}
330
42
100
AcDbScale
 70
     0
300
1/4" = 1'-0"
140
0.25
141
12.0
290
     0
  0
SCALE
  5
4C
102
{ACAD_REACTORS
330
42
102
}
330
42
100
AcDbScale
 70
     0
300
3/8" = 1'-0"
140
0.375
141
12.0
290
     0
  0
SCALE
  5
4D
102
{ACAD_REACTORS
330
42
102
}
330
42
100
AcDbScale
 70
     0
300
1/2" = 1'-0"
140
0.5
141
12.0
290
     0
  0
SCALE
  5
4E
102
{ACAD_REACTORS
330
42
102
}
330
42
100
AcDbScale
 70
     0
300
3/4" = 1'-0"
140
0.75
141
12.0
290
     0
  0
SCALE
  5
4F
102
{ACAD_REACTORS
330
42
102
}
330
42
100
AcDbScale
 70
     0
300
1" = 1'-0"
140
1.0
141
12.0
290
     0
  0
SCALE
  5
50
102
{ACAD_REACTORS
330
42
102
}
330
42
100
AcDbScale
 70
     0
300
1-1/2" = 1'-0"
140
1.5
141
12.0
290
     0
  0
SCALE
  5
51
102
{ACAD_REACTORS
330
42
102
}
330
42
100
AcDbScale
 70
     0
300
3" = 1'-0"
140
3.0
141
12.0
290
     0
  0
SCALE
  5
52
102
{ACAD_REACTORS
330
42
102
}
330
42
100
AcDbScale
 70
     0
300
6" = 1'-0"
140
6.0
141
12.0
290
     0
  0
SCALE
  5
53
102
{ACAD_REACTORS
330
42
102
}
330
42
100
AcDbScale
 70
     0
300
1'-0" = 1'-0"
140
12.0
141
12.0
290
     0
  0
ACDBSECTIONVIEWSTYLE
  5
68
102
{ACAD_XDICTIONARY
360
B40
102
}
102
{ACAD_REACTORS
330
67
102
}
330
67
100
AcDbModelDocViewStyle
 70
     0
  3
Imperial24
290
     0
100
AcDbSectionViewStyle
 70
     0
 71
     0
 90
       78
 71
     1
340
55
 62
   256
 40
0.24
340
0
340
0
 62
   256
 40
0.24
300
I, O, Q, S, X, Z
 40
0.48
 90
        3
 40
0.18
 90
        1
 71
     2
340
5C
 90
       25
 62
   256
340
5C
 90
       50
 62
   256
 40
0.24
 40
0.0
 40
0.24
 71
     3
340
55
 62
   256
 40
0.24
 90
        1
 40
0.75
 90
        1
300
%<\AcVar ViewType \f "%tc1">% %<\AcVar ViewSectionStartId>%-%<\AcVar ViewSectionEndId>%\PVARIA %<\AcVar ViewScale \f "%sn">%
 71
     4
 62
   256
 62
   257
300
ANSI31
 40
1.0
 90
        0
290
     0
290
     0
 90
        6
 40
0.0
 40
1.570796326794896
 40
0.2617993877991494
 40
1.308996938995747
 40
-0.2617993877991494
 40
1.832595714594046
  0
TABLESTYLE
  5
64
102
{ACAD_XDICTIONARY
360
B3E
102
}
102
{ACAD_REACTORS
330
63
102
}
330
63
100
AcDbTableStyle
280
     0
  3
Standard
 70
     0
 71
     0
 40
0.06
 41
0.06
280
     0
281
     0
  7
STANDARD
140
0.18
170
     2
 62
     0
 63
     7
283
     0
 90
      512
 91
        0
  1

274
    -2
284
     1
 64
     0
275
    -2
285
     1
 65
     0
276
    -2
286
     1
 66
     0
277
    -2
287
     1
 67
     0
278
    -2
288
     1
 68
     0
279
    -2
289
     1
 69
     0
  7
STANDARD
140
0.25
170
     5
 62
     0
 63
     7
283
     0
 90
      512
 91
        0
  1

274
    -2
284
     1
 64
     0
275
    -2
285
     1
 65
     0
276
    -2
286
     1
 66
     0
277
    -2
287
     1
 67
     0
278
    -2
288
     1
 68
     0
279
    -2
289
     1
 69
     0
  7
STANDARD
140
0.18
170
     5
 62
     0
 63
     7
283
     0
 90
      512
 91
        0
  1

274
    -2
284
     1
 64
     0
275
    -2
285
     1
 65
     0
276
    -2
286
     1
 66
     0
277
    -2
287
     1
 67
     0
278
    -2
288
     1
 68
     0
279
    -2
289
     1
 69
     0
  0
VISUALSTYLE
  5
2F
102
{ACAD_REACTORS
330
29
102
}
330
29
100
AcDbVisualStyle
  2
2dWireframe
 70
     4
177
     3
291
     0
 70
    58
 90
        0
176
     1
 90
        2
176
     1
 90
        0
176
     1
 90
        0
176
     1
 40
0.6
176
     1
 40
30.0
176
     1
 62
     7
420
 16777215
176
     1
 90
        1
176
     1
 90
        4
176
     1
 62
     7
176
     1
 62
   257
176
     1
 90
        1
176
     1
 90
        1
176
     1
 40
1.0
176
     1
 90
        0
176
     1
 62
   257
176
     1
 40
1.0
176
     1
 90
        1
176
     1
 90
        6
176
     1
 90
        2
176
     1
 62
     7
176
     1
 90
        5
176
     1
 90
        0
176
     1
 90
        0
176
     1
290
     0
176
     1
 90
        1
176
     1
 40
0.0
176
     1
 90
        0
176
     1
290
     1
176
     1
290
     1
176
     1
290
     0
176
     1
290
     0
176
     1
290
     0
176
     1
290
     0
176
     1
290
     0
176
     1
290
     0
176
     1
290
     0
176
     1
 90
       50
176
     1
 40
0.0
176
     1
 40
1.0
176
     1
 90
        0
176
     1
 62
    18
420
        0
176
     1
 90
       50
176
     1
 90
        3
176
     1
 62
     5
420
      255
176
     1
290
     0
176
     1
 90
       50
176
     1
 90
       50
176
     1
 90
       50
176
     1
290
     0
176
     1
 90
       50
176
     1
 62
   256
176
     0
 40
1.0
176
     0
 90
        2
176
     1
  1
strokes_ogs.tif
176
     1
290
     0
176
     1
 40
1.0
176
     1
 40
1.0
176
     1
  0
VISUALSTYLE
  5
2E
102
{ACAD_REACTORS
330
29
102
}
330
29
100
AcDbVisualStyle
  2
Basic
 70
     7
177
     3
291
     1
 70
    58
 90
        1
176
     1
 90
        0
176
     1
 90
        1
176
     1
 90
        0
176
     1
 40
0.6
176
     1
 40
30.0
176
     1
 62
     7
420
 16777215
176
     1
 90
        0
176
     1
 90
        4
176
     1
 62
     7
176
     1
 62
   257
176
     1
 90
        1
176
     1
 90
        1
176
     1
 40
1.0
176
     1
 90
        8
176
     1
 62
     7
176
     1
 40
1.0
176
     1
 90
        1
176
     1
 90
        6
176
     1
 90
        2
176
     1
 62
     7
176
     1
 90
        5
176
     1
 90
        0
176
     1
 90
        0
176
     1
290
     0
176
     1
 90
        1
176
     1
 40
0.0
176
     1
 90
        0
176
     1
290
     0
176
     1
290
     1
176
     1
290
     1
176
     1
290
     0
176
     1
290
     0
176
     1
290
     0
176
     1
290
     0
176
     1
290
     0
176
     1
290
     0
176
     1
 90
       50
176
     1
 40
0.0
176
     1
 40
1.0
176
     1
 90
        0
176
     1
 62
    18
420
        0
176
     1
 90
       50
176
     1
 90
        3
176
     1
 62
     5
420
      255
176
     1
290
     0
176
     1
 90
       50
176
     1
 90
       50
176
     1
 90
       50
176
     1
290
     0
176
     1
 90
       50
176
     1
 62
   256
176
     0
 40
1.0
176
     0
 90
        2
176
     1
  1
strokes_ogs.tif
176
     1
290
     0
176
     1
 40
1.0
176
     1
 40
1.0
176
     1
  0
VISUALSTYLE
  5
35
102
{ACAD_REACTORS
330
29
102
}
330
29
100
AcDbVisualStyle
  2
Brighten
 70
    12
177
     3
291
     1
 70
    58
 90
        2
176
     1
 90
        2
176
     1
 90
        0
176
     1
 90
        0
176
     1
 40
0.6
176
     1
 40
30.0
176
     1
 62
     7
420
 16777215
176
     1
 90
        1
176
     1
 90
        4
176
     1
 62
     7
176
     1
 62
   257
176
     1
 90
        1
176
     1
 90
        1
176
     1
 40
1.0
176
     1
 90
        8
176
     1
 62
     7
176
     1
 40
1.0
176
     1
 90
        1
176
     1
 90
        6
176
     1
 90
        2
176
     1
 62
     7
176
     1
 90
        5
176
     1
 90
        0
176
     1
 90
        0
176
     1
290
     0
176
     1
 90
        1
176
     1
 40
50.0
176
     1
 90
        0
176
     1
290
     0
176
     1
290
     1
176
     1
290
     1
176
     1
290
     0
176
     1
290
     0
176
     1
290
     0
176
     1
290
     0
176
     1
290
     0
176
     1
290
     0
176
     1
 90
       50
176
     1
 40
0.0
176
     1
 40
1.0
176
     1
 90
        0
176
     1
 62
    18
420
        0
176
     1
 90
       50
176
     1
 90
        3
176
     1
 62
     5
420
      255
176
     1
290
     0
176
     1
 90
       50
176
     1
 90
       50
176
     1
 90
       50
176
     1
290
     0
176
     1
 90
       50
176
     1
 62
   256
176
     0
 40
1.0
176
     0
 90
        2
176
     1
  1
strokes_ogs.tif
176
     1
290
     0
176
     1
 40
1.0
176
     1
 40
1.0
176
     1
  0
VISUALSTYLE
  5
39
102
{ACAD_REACTORS
330
29
102
}
330
29
100
AcDbVisualStyle
  2
ColorChange
 70
    16
177
     3
291
     1
 70
    58
 90
        2
176
     1
 90
        2
176
     1
 90
        3
176
     1
 90
        0
176
     1
 40
0.6
176
     1
 40
30.0
176
     1
 62
     8
420
  8421504
176
     1
 90
        1
176
     1
 90
        4
176
     1
 62
     7
176
     1
 62
   257
176
     1
 90
        1
176
     1
 90
        1
176
     1
 40
1.0
176
     1
 90
        8
176
     1
 62
     8
420
  8421504
176
     1
 40
1.0
176
     1
 90
        1
176
     1
 90
        6
176
     1
 90
        2
176
     1
 62
     7
176
     1
 90
        5
176
     1
 90
        0
176
     1
 90
        0
176
     1
290
     0
176
     1
 90
        1
176
     1
 40
0.0
176
     1
 90
        0
176
     1
290
     0
176
     1
290
     1
176
     1
290
     1
176
     1
290
     0
176
     1
290
     0
176
     1
290
     0
176
     1
290
     0
176
     1
290
     0
176
     1
290
     0
176
     1
 90
       50
176
     1
 40
0.0
176
     1
 40
1.0
176
     1
 90
        0
176
     1
 62
    18
420
        0
176
     1
 90
       50
176
     1
 90
        3
176
     1
 62
     5
420
      255
176
     1
290
     0
176
     1
 90
       50
176
     1
 90
       50
176
     1
 90
       50
176
     1
290
     0
176
     1
 90
       50
176
     1
 62
   256
176
     0
 40
1.0
176
     0
 90
        2
176
     1
  1
strokes_ogs.tif
176
     1
290
     0
176
     1
 40
1.0
176
     1
 40
1.0
176
     1
  0
VISUALSTYLE
  5
32
102
{ACAD_REACTORS
330
29
102
}
330
29
100
AcDbVisualStyle
  2
Conceptual
 70
     9
177
     3
291
     0
 70
    58
 90
        3
176
     1
 90
        2
176
     1
 90
        0
176
     1
 90
        0
176
     1
 40
0.6
176
     1
 40
30.0
176
     1
 62
     7
420
 16777215
176
     1
 90
        2
176
     1
 90
        2
176
     1
 62
     7
176
     1
 62
   257
176
     1
 90
        1
176
     1
 90
        1
176
     1
 40
179.0
176
     1
 90
        8
176
     1
 62
     7
176
     1
 40
1.0
176
     1
 90
        1
176
     1
 90
        6
176
     1
 90
        2
176
     1
 62
     7
176
     1
 90
        3
176
     1
 90
        0
176
     1
 90
        0
176
     1
290
     0
176
     1
 90
        1
176
     1
 40
0.0
176
     1
 90
        0
176
     1
290
     0
176
     1
290
     1
176
     1
290
     1
176
     1
290
     0
176
     1
290
     0
176
     1
290
     0
176
     1
290
     0
176
     1
290
     0
176
     1
290
     0
176
     1
 90
       50
176
     1
 40
0.0
176
     1
 40
1.0
176
     1
 90
        0
176
     1
 62
    18
420
        0
176
     1
 90
       50
176
     1
 90
        3
176
     1
 62
     5
420
      255
176
     1
290
     0
176
     1
 90
       50
176
     1
 90
       50
176
     1
 90
       50
176
     1
290
     0
176
     1
 90
       50
176
     1
 62
   256
176
     0
 40
1.0
176
     0
 90
        2
176
     1
  1
strokes_ogs.tif
176
     1
290
     0
176
     1
 40
1.0
176
     1
 40
1.0
176
     1
  0
VISUALSTYLE
  5
34
102
{ACAD_REACTORS
330
29
102
}
330
29
100
AcDbVisualStyle
  2
Dim
 70
    11
177
     3
291
     1
 70
    58
 90
        2
176
     1
 90
        2
176
     1
 90
        0
176
     1
 90
        0
176
     1
 40
0.6
176
     1
 40
30.0
176
     1
 62
     7
420
 16777215
176
     1
 90
        1
176
     1
 90
        4
176
     1
 62
     7
176
     1
 62
   257
176
     1
 90
        1
176
     1
 90
        1
176
     1
 40
1.0
176
     1
 90
        8
176
     1
 62
     7
176
     1
 40
1.0
176
     1
 90
        1
176
     1
 90
        6
176
     1
 90
        2
176
     1
 62
     7
176
     1
 90
        5
176
     1
 90
        0
176
     1
 90
        0
176
     1
290
     0
176
     1
 90
        1
176
     1
 40
-50.0
176
     1
 90
        0
176
     1
290
     0
176
     1
290
     1
176
     1
290
     1
176
     1
290
     0
176
     1
290
     0
176
     1
290
     0
176
     1
290
     0
176
     1
290
     0
176
     1
290
     0
176
     1
 90
       50
176
     1
 40
0.0
176
     1
 40
1.0
176
     1
 90
        0
176
     1
 62
    18
420
        0
176
     1
 90
       50
176
     1
 90
        3
176
     1
 62
     5
420
      255
176
     1
290
     0
176
     1
 90
       50
176
     1
 90
       50
176
     1
 90
       50
176
     1
290
     0
176
     1
 90
       50
176
     1
 62
   256
176
     0
 40
1.0
176
     0
 90
        2
176
     1
  1
strokes_ogs.tif
176
     1
290
     0
176
     1
 40
1.0
176
     1
 40
1.0
176
     1
  0
VISUALSTYLE
  5
41
102
{ACAD_REACTORS
330
29
102
}
330
29
100
AcDbVisualStyle
  2
EdgeColorOff
 70
    22
177
     3
291
     1
 70
    58
 90
        2
176
     0
 90
        2
176
     0
 90
        0
176
     0
 90
        0
176
     0
 40
0.6
176
     0
 40
30.0
176
     0
 62
     7
420
 16777215
176
     0
 90
        1
176
     0
 90
        4
176
     0
 62
     7
176
     0
 62
   257
176
     0
 90
        1
176
     0
 90
        1
176
     0
 40
1.0
176
     0
 90
        8
176
     2
 62
     7
176
     0
 40
1.0
176
     0
 90
        1
176
     0
 90
        6
176
     0
 90
        2
176
     0
 62
     7
176
     0
 90
        5
176
     0
 90
        0
176
     0
 90
        0
176
     0
290
     0
176
     0
 90
        1
176
     0
 40
0.0
176
     0
 90
        0
176
     0
290
     0
176
     0
290
     1
176
     0
290
     1
176
     0
290
     0
176
     0
290
     0
176
     0
290
     0
176
     0
290
     0
176
     0
290
     0
176
     0
290
     0
176
     0
 90
       50
176
     0
 40
0.0
176
     0
 40
1.0
176
     0
 90
        0
176
     0
 62
    18
420
        0
176
     0
 90
       50
176
     0
 90
        3
176
     0
 62
     5
420
      255
176
     0
290
     0
176
     0
 90
       50
176
     0
 90
       50
176
     0
 90
       50
176
     0
290
     0
176
     0
 90
       50
176
     0
 62
   256
176
     0
 40
1.0
176
     0
 90
        2
176
     0
  1
strokes_ogs.tif
176
     0
290
     0
176
     0
 40
1.0
176
     0
 40
1.0
176
     0
  0
VISUALSTYLE
  5
38
102
{ACAD_REACTORS
330
29
102
}
330
29
100
AcDbVisualStyle
  2
Facepattern
 70
    15
177
     3
291
     1
 70
    58
 90
        2
176
     1
 90
        2
176
     1
 90
        0
176
     1
 90
        0
176
     1
 40
0.6
176
     1
 40
30.0
176
     1
 62
     7
420
 16777215
176
     1
 90
        1
176
     1
 90
        4
176
     1
 62
     7
176
     1
 62
   257
176
     1
 90
        1
176
     1
 90
        1
176
     1
 40
1.0
176
     1
 90
        8
176
     1
 62
     7
176
     1
 40
1.0
176
     1
 90
        1
176
     1
 90
        6
176
     1
 90
        2
176
     1
 62
     7
176
     1
 90
        5
176
     1
 90
        0
176
     1
 90
        0
176
     1
290
     0
176
     1
 90
        1
176
     1
 40
0.0
176
     1
 90
        0
176
     1
290
     0
176
     1
290
     1
176
     1
290
     1
176
     1
290
     0
176
     1
290
     0
176
     1
290
     0
176
     1
290
     0
176
     1
290
     0
176
     1
290
     0
176
     1
 90
       50
176
     1
 40
0.0
176
     1
 40
1.0
176
     1
 90
        0
176
     1
 62
    18
420
        0
176
     1
 90
       50
176
     1
 90
        3
176
     1
 62
     5
420
      255
176
     1
290
     0
176
     1
 90
       50
176
     1
 90
       50
176
     1
 90
       50
176
     1
290
     0
176
     1
 90
       50
176
     1
 62
   256
176
     0
 40
1.0
176
     0
 90
        2
176
     1
  1
strokes_ogs.tif
176
     1
290
     0
176
     1
 40
1.0
176
     1
 40
1.0
176
     1
  0
VISUALSTYLE
  5
2A
102
{ACAD_REACTORS
330
29
102
}
330
29
100
AcDbVisualStyle
  2
Flat
 70
     0
177
     3
291
     1
 70
    58
 90
        2
176
     1
 90
        1
176
     1
 90
        1
176
     1
 90
        2
176
     1
 40
0.6
176
     1
 40
30.0
176
     1
 62
     7
420
 16777215
176
     1
 90
        0
176
     1
 90
        0
176
     1
 62
     7
176
     1
 62
   257
176
     1
 90
        1
176
     1
 90
        1
176
     1
 40
1.0
176
     1
 90
        8
176
     1
 62
     7
176
     1
 40
1.0
176
     1
 90
        1
176
     1
 90
        6
176
     1
 90
        2
176
     1
 62
     7
176
     1
 90
        5
176
     1
 90
        0
176
     1
 90
        0
176
     1
290
     0
176
     1
 90
       13
176
     1
 40
0.0
176
     1
 90
        0
176
     1
290
     0
176
     1
290
     1
176
     1
290
     1
176
     1
290
     0
176
     1
290
     0
176
     1
290
     0
176
     1
290
     0
176
     1
290
     0
176
     1
290
     0
176
     1
 90
       50
176
     1
 40
0.0
176
     1
 40
1.0
176
     1
 90
        0
176
     1
 62
    18
420
        0
176
     1
 90
       50
176
     1
 90
        3
176
     1
 62
     5
420
      255
176
     1
290
     0
176
     1
 90
       50
176
     1
 90
       50
176
     1
 90
       50
176
     1
290
     0
176
     1
 90
       50
176
     1
 62
   256
176
     0
 40
1.0
176
     0
 90
        2
176
     1
  1
strokes_ogs.tif
176
     1
290
     0
176
     1
 40
1.0
176
     1
 40
1.0
176
     1
  0
VISUALSTYLE
  5
2B
102
{ACAD_REACTORS
330
29
102
}
330
29
100
AcDbVisualStyle
  2
FlatWithEdges
 70
     1
177
     3
291
     1
 70
    58
 90
        2
176
     1
 90
        1
176
     1
 90
        1
176
     1
 90
        2
176
     1
 40
0.6
176
     1
 40
30.0
176
     1
 62
     7
420
 16777215
176
     1
 90
        1
176
     1
 90
        0
176
     1
 62
     7
176
     1
 62
   257
176
     1
 90
        1
176
     1
 90
        1
176
     1
 40
1.0
176
     1
 90
        0
176
     1
 62
   257
176
     1
 40
1.0
176
     1
 90
        1
176
     1
 90
        6
176
     1
 90
        2
176
     1
 62
     7
176
     1
 90
        5
176
     1
 90
        0
176
     1
 90
        0
176
     1
290
     0
176
     1
 90
       13
176
     1
 40
0.0
176
     1
 90
        0
176
     1
290
     0
176
     1
290
     1
176
     1
290
     1
176
     1
290
     0
176
     1
290
     0
176
     1
290
     0
176
     1
290
     0
176
     1
290
     0
176
     1
290
     0
176
     1
 90
       50
176
     1
 40
0.0
176
     1
 40
1.0
176
     1
 90
        0
176
     1
 62
    18
420
        0
176
     1
 90
       50
176
     1
 90
        3
176
     1
 62
     5
420
      255
176
     1
290
     0
176
     1
 90
       50
176
     1
 90
       50
176
     1
 90
       50
176
     1
290
     0
176
     1
 90
       50
176
     1
 62
   256
176
     0
 40
1.0
176
     0
 90
        2
176
     1
  1
strokes_ogs.tif
176
     1
290
     0
176
     1
 40
1.0
176
     1
 40
1.0
176
     1
  0
VISUALSTYLE
  5
2C
102
{ACAD_REACTORS
330
29
102
}
330
29
100
AcDbVisualStyle
  2
Gouraud
 70
     2
177
     3
291
     1
 70
    58
 90
        2
176
     1
 90
        2
176
     1
 90
        1
176
     1
 90
        2
176
     1
 40
0.6
176
     1
 40
30.0
176
     1
 62
     7
420
 16777215
176
     1
 90
        0
176
     1
 90
        0
176
     1
 62
     7
176
     1
 62
   257
176
     1
 90
        1
176
     1
 90
        1
176
     1
 40
1.0
176
     1
 90
        0
176
     1
 62
     7
176
     1
 40
1.0
176
     1
 90
        1
176
     1
 90
        6
176
     1
 90
        2
176
     1
 62
     7
176
     1
 90
        5
176
     1
 90
        0
176
     1
 90
        0
176
     1
290
     0
176
     1
 90
       13
176
     1
 40
0.0
176
     1
 90
        0
176
     1
290
     0
176
     1
290
     1
176
     1
290
     1
176
     1
290
     0
176
     1
290
     0
176
     1
290
     0
176
     1
290
     0
176
     1
290
     0
176
     1
290
     0
176
     1
 90
       50
176
     1
 40
0.0
176
     1
 40
1.0
176
     1
 90
        0
176
     1
 62
    18
420
        0
176
     1
 90
       50
176
     1
 90
        3
176
     1
 62
     5
420
      255
176
     1
290
     0
176
     1
 90
       50
176
     1
 90
       50
176
     1
 90
       50
176
     1
290
     0
176
     1
 90
       50
176
     1
 62
   256
176
     0
 40
1.0
176
     0
 90
        2
176
     1
  1
strokes_ogs.tif
176
     1
290
     0
176
     1
 40
1.0
176
     1
 40
1.0
176
     1
  0
VISUALSTYLE
  5
2D
102
{ACAD_REACTORS
330
29
102
}
330
29
100
AcDbVisualStyle
  2
GouraudWithEdges
 70
     3
177
     3
291
     1
 70
    58
 90
        2
176
     1
 90
        2
176
     1
 90
        1
176
     1
 90
        2
176
     1
 40
0.6
176
     1
 40
30.0
176
     1
 62
     7
420
 16777215
176
     1
 90
        1
176
     1
 90
        0
176
     1
 62
     7
176
     1
 62
   257
176
     1
 90
        1
176
     1
 90
        1
176
     1
 40
1.0
176
     1
 90
        0
176
     1
 62
   257
176
     1
 40
1.0
176
     1
 90
        1
176
     1
 90
        6
176
     1
 90
        2
176
     1
 62
     7
176
     1
 90
        5
176
     1
 90
        0
176
     1
 90
        0
176
     1
290
     0
176
     1
 90
       13
176
     1
 40
0.0
176
     1
 90
        0
176
     1
290
     0
176
     1
290
     1
176
     1
290
     1
176
     1
290
     0
176
     1
290
     0
176
     1
290
     0
176
     1
290
     0
176
     1
290
     0
176
     1
290
     0
176
     1
 90
       50
176
     1
 40
0.0
176
     1
 40
1.0
176
     1
 90
        0
176
     1
 62
    18
420
        0
176
     1
 90
       50
176
     1
 90
        3
176
     1
 62
     5
420
      255
176
     1
290
     0
176
     1
 90
       50
176
     1
 90
       50
176
     1
 90
       50
176
     1
290
     0
176
     1
 90
       50
176
     1
 62
   256
176
     0
 40
1.0
176
     0
 90
        2
176
     1
  1
strokes_ogs.tif
176
     1
290
     0
176
     1
 40
1.0
176
     1
 40
1.0
176
     1
  0
VISUALSTYLE
  5
31
102
{ACAD_REACTORS
330
29
102
}
330
29
100
AcDbVisualStyle
  2
Hidden
 70
     6
177
     3
291
     0
 70
    58
 90
        1
176
     1
 90
        2
176
     1
 90
        2
176
     1
 90
        0
176
     1
 40
0.6
176
     1
 40
30.0
176
     1
 62
     7
420
 16777215
176
     1
 90
        2
176
     1
 90
        2
176
     1
 62
     7
176
     1
 62
   257
176
     1
 90
        2
176
     1
 90
        1
176
     1
 40
40.0
176
     1
 90
        0
176
     1
 62
   257
176
     1
 40
1.0
176
     1
 90
        1
176
     1
 90
        6
176
     1
 90
        2
176
     1
 62
     7
176
     1
 90
        3
176
     1
 90
        0
176
     1
 90
        0
176
     1
290
     0
176
     1
 90
        1
176
     1
 40
0.0
176
     1
 90
        0
176
     1
290
     0
176
     1
290
     1
176
     1
290
     1
176
     1
290
     0
176
     1
290
     0
176
     1
290
     0
176
     1
290
     0
176
     1
290
     0
176
     1
290
     0
176
     1
 90
       50
176
     1
 40
0.0
176
     1
 40
1.0
176
     1
 90
        0
176
     1
 62
    18
420
        0
176
     1
 90
       50
176
     1
 90
        3
176
     1
 62
     5
420
      255
176
     1
290
     0
176
     1
 90
       50
176
     1
 90
       50
176
     1
 90
       50
176
     1
290
     0
176
     1
 90
       50
176
     1
 62
   256
176
     0
 40
1.0
176
     0
 90
        2
176
     1
  1
strokes_ogs.tif
176
     1
290
     0
176
     1
 40
1.0
176
     1
 40
1.0
176
     1
  0
VISUALSTYLE
  5
3F
102
{ACAD_REACTORS
330
29
102
}
330
29
100
AcDbVisualStyle
  2
JitterOff
 70
    20
177
     3
291
     1
 70
    58
 90
        2
176
     0
 90
        2
176
     0
 90
        0
176
     0
 90
        0
176
     0
 40
0.6
176
     0
 40
30.0
176
     0
 62
     7
420
 16777215
176
     0
 90
        1
176
     0
 90
        4
176
     0
 62
     7
176
     0
 62
   257
176
     0
 90
        1
176
     0
 90
        1
176
     0
 40
1.0
176
     0
 90
       10
176
     2
 62
     7
176
     0
 40
1.0
176
     0
 90
        1
176
     0
 90
        6
176
     0
 90
        2
176
     0
 62
     7
176
     0
 90
        5
176
     0
 90
        0
176
     0
 90
        0
176
     0
290
     0
176
     0
 90
        1
176
     0
 40
0.0
176
     0
 90
        0
176
     0
290
     0
176
     0
290
     1
176
     0
290
     1
176
     0
290
     0
176
     0
290
     0
176
     0
290
     0
176
     0
290
     0
176
     0
290
     0
176
     0
290
     0
176
     0
 90
       50
176
     0
 40
0.0
176
     0
 40
1.0
176
     0
 90
        0
176
     0
 62
    18
420
        0
176
     0
 90
       50
176
     0
 90
        3
176
     0
 62
     5
420
      255
176
     0
290
     0
176
     0
 90
       50
176
     0
 90
       50
176
     0
 90
       50
176
     0
290
     0
176
     0
 90
       50
176
     0
 62
   256
176
     0
 40
1.0
176
     0
 90
        2
176
     0
  1
strokes_ogs.tif
176
     0
290
     0
176
     0
 40
1.0
176
     0
 40
1.0
176
     0
  0
VISUALSTYLE
  5
37
102
{ACAD_REACTORS
330
29
102
}
330
29
100
AcDbVisualStyle
  2
Linepattern
 70
    14
177
     3
291
     1
 70
    58
 90
        2
176
     1
 90
        2
176
     1
 90
        0
176
     1
 90
        0
176
     1
 40
0.6
176
     1
 40
30.0
176
     1
 62
     7
420
 16777215
176
     1
 90
        1
176
     1
 90
        4
176
     1
 62
     7
176
     1
 62
   257
176
     1
 90
        7
176
     1
 90
        7
176
     1
 40
1.0
176
     1
 90
        8
176
     1
 62
     7
176
     1
 40
1.0
176
     1
 90
        1
176
     1
 90
        6
176
     1
 90
        2
176
     1
 62
     7
176
     1
 90
        5
176
     1
 90
        0
176
     1
 90
        0
176
     1
290
     0
176
     1
 90
        1
176
     1
 40
0.0
176
     1
 90
        0
176
     1
290
     0
176
     1
290
     1
176
     1
290
     1
176
     1
290
     0
176
     1
290
     0
176
     1
290
     0
176
     1
290
     0
176
     1
290
     0
176
     1
290
     0
176
     1
 90
       50
176
     1
 40
0.0
176
     1
 40
1.0
176
     1
 90
        0
176
     1
 62
    18
420
        0
176
     1
 90
       50
176
     1
 90
        3
176
     1
 62
     5
420
      255
176
     1
290
     0
176
     1
 90
       50
176
     1
 90
       50
176
     1
 90
       50
176
     1
290
     0
176
     1
 90
       50
176
     1
 62
   256
176
     0
 40
1.0
176
     0
 90
        2
176
     1
  1
strokes_ogs.tif
176
     1
290
     0
176
     1
 40
1.0
176
     1
 40
1.0
176
     1
  0
VISUALSTYLE
  5
40
102
{ACAD_REACTORS
330
29
102
}
330
29
100
AcDbVisualStyle
  2
OverhangOff
 70
    21
177
     3
291
     1
 70
    58
 90
        2
176
     0
 90
        2
176
     0
 90
        0
176
     0
 90
        0
176
     0
 40
0.6
176
     0
 40
30.0
176
     0
 62
     7
420
 16777215
176
     0
 90
        1
176
     0
 90
        4
176
     0
 62
     7
176
     0
 62
   257
176
     0
 90
        1
176
     0
 90
        1
176
     0
 40
1.0
176
     0
 90
        9
176
     2
 62
     7
176
     0
 40
1.0
176
     0
 90
        1
176
     0
 90
        6
176
     0
 90
        2
176
     0
 62
     7
176
     0
 90
        5
176
     0
 90
        0
176
     0
 90
        0
176
     0
290
     0
176
     0
 90
        1
176
     0
 40
0.0
176
     0
 90
        0
176
     0
290
     0
176
     0
290
     1
176
     0
290
     1
176
     0
290
     0
176
     0
290
     0
176
     0
290
     0
176
     0
290
     0
176
     0
290
     0
176
     0
290
     0
176
     0
 90
       50
176
     0
 40
0.0
176
     0
 40
1.0
176
     0
 90
        0
176
     0
 62
    18
420
        0
176
     0
 90
       50
176
     0
 90
        3
176
     0
 62
     5
420
      255
176
     0
290
     0
176
     0
 90
       50
176
     0
 90
       50
176
     0
 90
       50
176
     0
290
     0
176
     0
 90
       50
176
     0
 62
   256
176
     0
 40
1.0
176
     0
 90
        2
176
     0
  1
strokes_ogs.tif
176
     0
290
     0
176
     0
 40
1.0
176
     0
 40
1.0
176
     0
  0
VISUALSTYLE
  5
33
102
{ACAD_REACTORS
330
29
102
}
330
29
100
AcDbVisualStyle
  2
Realistic
 70
     8
177
     3
291
     0
 70
    58
 90
        2
176
     1
 90
        3
176
     1
 90
        0
176
     1
 90
        2
176
     1
 40
0.6
176
     1
 40
30.0
176
     1
 62
     7
420
 16777215
176
     1
 90
        0
176
     1
 90
        0
176
     1
 62
     7
176
     1
 62
   257
176
     1
 90
        1
176
     1
 90
        1
176
     1
 40
1.0
176
     1
 90
        8
176
     1
 62
   257
176
     1
 40
1.0
176
     1
 90
        1
176
     1
 90
        6
176
     1
 90
        2
176
     1
 62
     7
176
     1
 90
        3
176
     1
 90
        0
176
     1
 90
        0
176
     1
290
     0
176
     1
 90
       13
176
     1
 40
0.0
176
     1
 90
        0
176
     1
290
     0
176
     1
290
     1
176
     1
290
     1
176
     1
290
     0
176
     1
290
     0
176
     1
290
     0
176
     1
290
     0
176
     1
290
     0
176
     1
290
     0
176
     1
 90
       50
176
     1
 40
0.0
176
     1
 40
1.0
176
     1
 90
        0
176
     1
 62
    18
420
        0
176
     1
 90
       50
176
     1
 90
        3
176
     1
 62
     5
420
      255
176
     1
290
     0
176
     1
 90
       50
176
     1
 90
       50
176
     1
 90
       50
176
     1
290
     0
176
     1
 90
       50
176
     1
 62
   256
176
     0
 40
1.0
176
     0
 90
        2
176
     1
  1
strokes_ogs.tif
176
     1
290
     0
176
     1
 40
1.0
176
     1
 40
1.0
176
     1
  0
VISUALSTYLE
  5
3E
102
{ACAD_REACTORS
330
29
102
}
330
29
100
AcDbVisualStyle
  2
Shaded
 70
    27
177
     3
291
     0
 70
    58
 90
        2
176
     1
 90
        2
176
     1
 90
        1
176
     1
 90
        2
176
     1
 40
0.6
176
     1
 40
30.0
176
     1
 62
     7
420
 16777215
176
     1
 90
        0
176
     1
 90
        4
176
     1
 62
     7
176
     1
 62
   257
176
     1
 90
        1
176
     1
 90
        1
176
     1
 40
1.0
176
     1
 90
        8
176
     1
 62
   257
176
     1
 40
1.0
176
     1
 90
        1
176
     1
 90
        6
176
     1
 90
        2
176
     1
 62
     8
420
  7895160
176
     1
 90
        3
176
     1
 90
        0
176
     1
 90
        0
176
     1
290
     0
176
     1
 90
        5
176
     1
 40
0.0
176
     1
 90
        0
176
     1
290
     0
176
     1
290
     1
176
     1
290
     1
176
     1
290
     0
176
     1
290
     0
176
     1
290
     0
176
     1
290
     0
176
     1
290
     0
176
     1
290
     0
176
     1
 90
       50
176
     1
 40
0.0
176
     1
 40
1.0
176
     1
 90
        0
176
     1
 62
    18
420
        0
176
     1
 90
       50
176
     1
 90
        3
176
     1
 62
     5
420
      255
176
     1
290
     0
176
     1
 90
       50
176
     1
 90
       50
176
     1
 90
       50
176
     1
290
     0
176
     1
 90
       50
176
     1
 62
   256
176
     0
 40
1.0
176
     0
 90
        2
176
     1
  1
strokes_ogs.tif
176
     1
290
     0
176
     1
 40
1.0
176
     1
 40
1.0
176
     1
  0
VISUALSTYLE
  5
3D
102
{ACAD_REACTORS
330
29
102
}
330
29
100
AcDbVisualStyle
  2
Shaded with edges
 70
    26
177
     3
291
     0
 70
    58
 90
        2
176
     1
 90
        2
176
     1
 90
        1
176
     1
 90
        2
176
     1
 40
0.6
176
     1
 40
30.0
176
     1
 62
     7
420
 16777215
176
     1
 90
        1
176
     1
 90
       10
176
     1
 62
     7
176
     1
 62
   257
176
     1
 90
        2
176
     1
 90
        1
176
     1
 40
1.0
176
     1
 90
        8
176
     1
 62
   257
176
     1
 40
1.0
176
     1
 90
        1
176
     1
 90
        6
176
     1
 90
        2
176
     1
 62
     7
176
     1
 90
        3
176
     1
 90
        0
176
     1
 90
        0
176
     1
290
     0
176
     1
 90
        5
176
     1
 40
0.0
176
     1
 90
        0
176
     1
290
     0
176
     1
290
     1
176
     1
290
     1
176
     1
290
     0
176
     1
290
     0
176
     1
290
     0
176
     1
290
     0
176
     1
290
     0
176
     1
290
     0
176
     1
 90
       50
176
     1
 40
0.0
176
     1
 40
1.0
176
     1
 90
        0
176
     1
 62
    18
420
        0
176
     1
 90
       50
176
     1
 90
        3
176
     1
 62
     5
420
      255
176
     1
290
     0
176
     1
 90
       50
176
     1
 90
       50
176
     1
 90
       50
176
     1
290
     0
176
     1
 90
       50
176
     1
 62
   256
176
     0
 40
1.0
176
     0
 90
        2
176
     1
  1
strokes_ogs.tif
176
     1
290
     0
176
     1
 40
1.0
176
     1
 40
1.0
176
     1
  0
VISUALSTYLE
  5
3A
102
{ACAD_REACTORS
330
29
102
}
330
29
100
AcDbVisualStyle
  2
Shades of Gray
 70
    23
177
     3
291
     0
 70
    58
 90
        2
176
     1
 90
        2
176
     1
 90
        3
176
     1
 90
        0
176
     1
 40
0.6
176
     1
 40
30.0
176
     1
 62
     7
420
 16777215
176
     1
 90
        2
176
     1
 90
        2
176
     1
 62
     7
176
     1
 62
     7
176
     1
 90
        1
176
     1
 90
        1
176
     1
 40
40.0
176
     1
 90
        8
176
     1
 62
     7
176
     1
 40
1.0
176
     1
 90
        1
176
     1
 90
        6
176
     1
 90
        2
176
     1
 62
     7
176
     1
 90
        3
176
     1
 90
        0
176
     1
 90
        0
176
     1
290
     0
176
     1
 90
        1
176
     1
 40
0.0
176
     1
 90
        0
176
     1
290
     0
176
     1
290
     1
176
     1
290
     1
176
     1
290
     0
176
     1
290
     0
176
     1
290
     0
176
     1
290
     0
176
     1
290
     0
176
     1
290
     0
176
     1
 90
       50
176
     1
 40
0.0
176
     1
 40
1.0
176
     1
 90
        0
176
     1
 62
    18
420
        0
176
     1
 90
       50
176
     1
 90
        3
176
     1
 62
     5
420
      255
176
     1
290
     0
176
     1
 90
       50
176
     1
 90
       50
176
     1
 90
       50
176
     1
290
     0
176
     1
 90
       50
176
     1
 62
   256
176
     0
 40
1.0
176
     0
 90
        2
176
     1
  1
strokes_ogs.tif
176
     1
290
     0
176
     1
 40
1.0
176
     1
 40
1.0
176
     1
  0
VISUALSTYLE
  5
3B
102
{ACAD_REACTORS
330
29
102
}
330
29
100
AcDbVisualStyle
  2
Sketchy
 70
    24
177
     3
291
     0
 70
    58
 90
        1
176
     1
 90
        2
176
     1
 90
        2
176
     1
 90
        0
176
     1
 40
0.6
176
     1
 40
30.0
176
     1
 62
     7
420
 16777215
176
     1
 90
        2
176
     1
 90
        2
176
     1
 62
     7
176
     1
 62
     7
176
     1
 90
        1
176
     1
 90
        1
176
     1
 40
40.0
176
     1
 90
       11
176
     1
 62
     7
176
     1
 40
1.0
176
     1
 90
        1
176
     1
 90
        6
176
     1
 90
        2
176
     1
 62
     7
176
     1
 90
        6
176
     1
 90
        0
176
     1
 90
        0
176
     1
290
     0
176
     1
 90
        1
176
     1
 40
0.0
176
     1
 90
        0
176
     1
290
     0
176
     1
290
     1
176
     1
290
     1
176
     1
290
     0
176
     1
290
     0
176
     1
290
     0
176
     1
290
     0
176
     1
290
     0
176
     1
290
     0
176
     1
 90
       50
176
     1
 40
0.0
176
     1
 40
1.0
176
     1
 90
        0
176
     1
 62
    18
420
        0
176
     1
 90
       50
176
     1
 90
        3
176
     1
 62
     5
420
      255
176
     1
290
     0
176
     1
 90
       50
176
     1
 90
       50
176
     1
 90
       50
176
     1
290
     0
176
     1
 90
       50
176
     1
 62
   256
176
     0
 40
1.0
176
     0
 90
        2
176
     1
  1
strokes_ogs.tif
176
     1
290
     0
176
     1
 40
1.0
176
     1
 40
1.0
176
     1
  0
VISUALSTYLE
  5
36
102
{ACAD_REACTORS
330
29
102
}
330
29
100
AcDbVisualStyle
  2
Thicken
 70
    13
177
     3
291
     1
 70
    58
 90
        2
176
     1
 90
        2
176
     1
 90
        0
176
     1
 90
        0
176
     1
 40
0.6
176
     1
 40
30.0
176
     1
 62
     7
420
 16777215
176
     1
 90
        1
176
     1
 90
        4
176
     1
 62
     7
176
     1
 62
   257
176
     1
 90
        1
176
     1
 90
        1
176
     1
 40
1.0
176
     1
 90
       12
176
     1
 62
     7
176
     1
 40
1.0
176
     1
 90
        1
176
     1
 90
        6
176
     1
 90
        2
176
     1
 62
     7
176
     1
 90
        5
176
     1
 90
        0
176
     1
 90
        0
176
     1
290
     0
176
     1
 90
        1
176
     1
 40
0.0
176
     1
 90
        0
176
     1
290
     0
176
     1
290
     1
176
     1
290
     1
176
     1
290
     0
176
     1
290
     0
176
     1
290
     0
176
     1
290
     0
176
     1
290
     0
176
     1
290
     0
176
     1
 90
       50
176
     1
 40
0.0
176
     1
 40
1.0
176
     1
 90
        0
176
     1
 62
    18
420
        0
176
     1
 90
       50
176
     1
 90
        3
176
     1
 62
     5
420
      255
176
     1
290
     0
176
     1
 90
       50
176
     1
 90
       50
176
     1
 90
       50
176
     1
290
     0
176
     1
 90
       50
176
     1
 62
   256
176
     0
 40
1.0
176
     0
 90
        2
176
     1
  1
strokes_ogs.tif
176
     1
290
     0
176
     1
 40
1.0
176
     1
 40
1.0
176
     1
  0
VISUALSTYLE
  5
30
102
{ACAD_REACTORS
330
29
102
}
330
29
100
AcDbVisualStyle
  2
Wireframe
 70
     5
177
     3
291
     0
 70
    58
 90
        0
176
     1
 90
        2
176
     1
 90
        0
176
     1
 90
        0
176
     1
 40
0.6
176
     1
 40
30.0
176
     1
 62
     7
420
 16777215
176
     1
 90
        1
176
     1
 90
        4
176
     1
 62
     7
176
     1
 62
   257
176
     1
 90
        1
176
     1
 90
        1
176
     1
 40
1.0
176
     1
 90
        0
176
     1
 62
   257
176
     1
 40
1.0
176
     1
 90
        1
176
     1
 90
        6
176
     1
 90
        2
176
     1
 62
     7
176
     1
 90
        3
176
     1
 90
        0
176
     1
 90
        0
176
     1
290
     0
176
     1
 90
        1
176
     1
 40
0.0
176
     1
 90
        0
176
     1
290
     0
176
     1
290
     1
176
     1
290
     1
176
     1
290
     0
176
     1
290
     0
176
     1
290
     0
176
     1
290
     0
176
     1
290
     0
176
     1
290
     0
176
     1
 90
       50
176
     1
 40
0.0
176
     1
 40
1.0
176
     1
 90
        0
176
     1
 62
    18
420
        0
176
     1
 90
       50
176
     1
 90
        3
176
     1
 62
     5
420
      255
176
     1
290
     0
176
     1
 90
       50
176
     1
 90
       50
176
     1
 90
       50
176
     1
290
     0
176
     1
 90
       50
176
     1
 62
   256
176
     0
 40
1.0
176
     0
 90
        2
176
     1
  1
strokes_ogs.tif
176
     1
290
     0
176
     1
 40
1.0
176
     1
 40
1.0
176
     1
  0
VISUALSTYLE
  5
3C
102
{ACAD_REACTORS
330
29
102
}
330
29
100
AcDbVisualStyle
  2
X-Ray
 70
    25
177
     3
291
     0
 70
    58
 90
        2
176
     1
 90
        2
176
     1
 90
        1
176
     1
 90
        1
176
     1
 40
0.5
176
     1
 40
30.0
176
     1
 62
     7
420
 16777215
176
     1
 90
        1
176
     1
 90
        0
176
     1
 62
     7
176
     1
 62
   257
176
     1
 90
        1
176
     1
 90
        1
176
     1
 40
1.0
176
     1
 90
        8
176
     1
 62
     7
176
     1
 40
1.0
176
     1
 90
        1
176
     1
 90
        6
176
     1
 90
        2
176
     1
 62
     7
176
     1
 90
        3
176
     1
 90
        0
176
     1
 90
        0
176
     1
290
     0
176
     1
 90
       13
176
     1
 40
0.0
176
     1
 90
        0
176
     1
290
     0
176
     1
290
     1
176
     1
290
     1
176
     1
290
     0
176
     1
290
     0
176
     1
290
     0
176
     1
290
     0
176
     1
290
     0
176
     1
290
     0
176
     1
 90
       50
176
     1
 40
0.0
176
     1
 40
1.0
176
     1
 90
        0
176
     1
 62
    18
420
        0
176
     1
 90
       50
176
     1
 90
        3
176
     1
 62
     5
420
      255
176
     1
290
     0
176
     1
 90
       50
176
     1
 90
       50
176
     1
 90
       50
176
     1
290
     0
176
     1
 90
       50
176
     1
 62
   256
176
     0
 40
1.0
176
     0
 90
        2
176
     1
  1
strokes_ogs.tif
176
     1
290
     0
176
     1
 40
1.0
176
     1
 40
1.0
176
     1
  0
DICTIONARYVAR
  5
AE9
102
{ACAD_REACTORS
330
AE4
102
}
330
AE4
100
DictionaryVariables
280
     0
  1
1:1
  0
DICTIONARYVAR
  5
AE6
102
{ACAD_REACTORS
330
AE4
102
}
330
AE4
100
DictionaryVariables
280
     0
  1
STANDARD
  0
DICTIONARYVAR
  5
AE5
102
{ACAD_REACTORS
330
AE4
102
}
330
AE4
100
DictionaryVariables
280
     0
  1
STANDARD
  0
DICTIONARYVAR
  5
AE7
102
{ACAD_REACTORS
330
AE4
102
}
330
AE4
100
DictionaryVariables
280
     0
  1
Imperial24
  0
DICTIONARYVAR
  5
AE8
102
{ACAD_REACTORS
330
AE4
102
}
330
AE4
100
DictionaryVariables
280
     0
  1
Imperial24
  0
DICTIONARY
  5
B42
330
6A
100
AcDbDictionary
280
     1
281
     1
  3
ACAD_XREC_ROUNDTRIP
360
B43
  0
DICTIONARY
  5
AE2
330
72
100
AcDbDictionary
280
     1
281
     1
  0
DICTIONARY
  5
1A
330
19
100
AcDbDictionary
280
     1
281
     1
  3
BUMPTILE
360
1C
  3
DIFFUSETILE
360
1B
  3
OPACITYTILE
360
1F
  3
REFLECTIONTILE
360
1E
  3
REFRACTIONTILE
360
20
  3
SPECULARTILE
360
1D
  0
DICTIONARY
  5
12
330
11
100
AcDbDictionary
280
     1
281
     1
  3
BUMPTILE
360
14
  3
DIFFUSETILE
360
13
  3
OPACITYTILE
360
17
  3
REFLECTIONTILE
360
16
  3
REFRACTIONTILE
360
18
  3
SPECULARTILE
360
15
  0
DICTIONARY
  5
22
330
21
100
AcDbDictionary
280
     1
281
     1
  3
BUMPTILE
360
24
  3
DIFFUSETILE
360
23
  3
OPACITYTILE
360
27
  3
REFLECTIONTILE
360
26
  3
REFRACTIONTILE
360
28
  3
SPECULARTILE
360
25
  0
DICTIONARY
  5
B40
330
68
100
AcDbDictionary
280
     1
281
     1
  3
ACAD_XREC_ROUNDTRIP
360
B41
  0
DICTIONARY
  5
B3E
330
64
100
AcDbDictionary
280
     1
281
     1
  3
ACAD_ROUNDTRIP_2008_TABLESTYLE_CELLSTYLEMAP
360
B3F
  0
XRECORD
  5
B43
102
{ACAD_REACTORS
330
B42
102
}
330
B42
100
AcDbXrecord
280
     1
102
DISPLAYNAME
  1
Imperial24
102
FLAGS
 90
        0
  0
XRECORD
  5
1C
102
{ACAD_REACTORS
330
1A
102
}
330
1A
100
AcDbXrecord
280
     1
270
     1
271
     1
  0
XRECORD
  5
1B
102
{ACAD_REACTORS
330
1A
102
}
330
1A
100
AcDbXrecord
280
     1
270
     1
271
     1
  0
XRECORD
  5
1F
102
{ACAD_REACTORS
330
1A
102
}
330
1A
100
AcDbXrecord
280
     1
270
     1
271
     1
  0
XRECORD
  5
1E
102
{ACAD_REACTORS
330
1A
102
}
330
1A
100
AcDbXrecord
280
     1
270
     1
271
     1
  0
XRECORD
  5
20
102
{ACAD_REACTORS
330
1A
102
}
330
1A
100
AcDbXrecord
280
     1
270
     1
271
     1
  0
XRECORD
  5
1D
102
{ACAD_REACTORS
330
1A
102
}
330
1A
100
AcDbXrecord
280
     1
270
     1
271
     1
  0
XRECORD
  5
14
102
{ACAD_REACTORS
330
12
102
}
330
12
100
AcDbXrecord
280
     1
270
     1
271
     1
  0
XRECORD
  5
13
102
{ACAD_REACTORS
330
12
102
}
330
12
100
AcDbXrecord
280
     1
270
     1
271
     1
  0
XRECORD
  5
17
102
{ACAD_REACTORS
330
12
102
}
330
12
100
AcDbXrecord
280
     1
270
     1
271
     1
  0
XRECORD
  5
16
102
{ACAD_REACTORS
330
12
102
}
330
12
100
AcDbXrecord
280
     1
270
     1
271
     1
  0
XRECORD
  5
18
102
{ACAD_REACTORS
330
12
102
}
330
12
100
AcDbXrecord
280
     1
270
     1
271
     1
  0
XRECORD
  5
15
102
{ACAD_REACTORS
330
12
102
}
330
12
100
AcDbXrecord
280
     1
270
     1
271
     1
  0
XRECORD
  5
24
102
{ACAD_REACTORS
330
22
102
}
330
22
100
AcDbXrecord
280
     1
270
     1
271
     1
  0
XRECORD
  5
23
102
{ACAD_REACTORS
330
22
102
}
330
22
100
AcDbXrecord
280
     1
270
     1
271
     1
  0
XRECORD
  5
27
102
{ACAD_REACTORS
330
22
102
}
330
22
100
AcDbXrecord
280
     1
270
     1
271
     1
  0
XRECORD
  5
26
102
{ACAD_REACTORS
330
22
102
}
330
22
100
AcDbXrecord
280
     1
270
     1
271
     1
  0
XRECORD
  5
28
102
{ACAD_REACTORS
330
22
102
}
330
22
100
AcDbXrecord
280
     1
270
     1
271
     1
  0
XRECORD
  5
25
102
{ACAD_REACTORS
330
22
102
}
330
22
100
AcDbXrecord
280
     1
270
     1
271
     1
  0
XRECORD
  5
B41
102
{ACAD_REACTORS
330
B40
102
}
330
B40
100
AcDbXrecord
280
     1
102
DISPLAYNAME
  1
Imperial24
102
FLAGS
 90
        0
  0
CELLSTYLEMAP
  5
B3F
102
{ACAD_REACTORS
330
B3E
102
}
330
B3E
100
AcDbCellStyleMap
 90
        3
300
CELLSTYLE
  1
TABLEFORMAT_BEGIN
 90
        5
170
     1
 91
        0
 92
    32768
 62
   257
 93
        1
300
CONTENTFORMAT
  1
CONTENTFORMAT_BEGIN
 90
        0
 91
        0
 92
      512
 93
        0
300

 40
0.0
140
1.0
 94
        5
 62
     0
340
55
144
0.25
309
CONTENTFORMAT_END
171
     0
 94
        0
309
TABLEFORMAT_END
  1
CELLSTYLE_BEGIN
 90
        1
 91
        1
300
_TITLE
309
CELLSTYLE_END
300
CELLSTYLE
  1
TABLEFORMAT_BEGIN
 90
        5
170
     1
 91
        0
 92
        0
 62
   257
 93
        1
300
CONTENTFORMAT
  1
CONTENTFORMAT_BEGIN
 90
        0
 91
        0
 92
      512
 93
        0
300

 40
0.0
140
1.0
 94
        5
 62
     0
340
55
144
0.18
309
CONTENTFORMAT_END
171
     0
 94
        0
309
TABLEFORMAT_END
  1
CELLSTYLE_BEGIN
 90
        2
 91
        1
300
_HEADER
309
CELLSTYLE_END
300
CELLSTYLE
  1
TABLEFORMAT_BEGIN
 90
        5
170
     1
 91
        0
 92
        0
 62
   257
 93
        1
300
CONTENTFORMAT
  1
CONTENTFORMAT_BEGIN
 90
        0
 91
        0
 92
      512
 93
        0
300

 40
0.0
140
1.0
 94
        2
 62
     0
340
55
144
0.18
309
CONTENTFORMAT_END
171
     0
 94
        0
309
TABLEFORMAT_END
  1
CELLSTYLE_BEGIN
 90
        3
 91
        2
300
_DATA
309
CELLSTYLE_END
  0
ENDSEC
  0
SECTION
  2
ACDSDATA
 70
     2
 71
     6
  0
ACDSSCHEMA
 90
        0
  1
AcDb_Thumbnail_Schema
  2
AcDbDs::ID
280
    10
 91
        8
  2
Thumbnail_Data
280
    15
 91
        0
101
ACDSRECORD
 95
        0
 90
        1
  2
AcDbDs::TreatedAsObjectData
280
     1
291
     1
101
ACDSRECORD
 95
        0
 90
        2
  2
AcDbDs::Legacy
280
     1
291
     1
101
ACDSRECORD
  1
AcDbDs::ID
 90
        3
  2
AcDs:Indexable
280
     1
291
     1
101
ACDSRECORD
  1
AcDbDs::ID
 90
        4
  2
AcDbDs::HandleAttribute
280
     7
282
     1
  0
ACDSSCHEMA
 90
        1
  1
AcDbDs::TreatedAsObjectDataSchema
  2
AcDbDs::TreatedAsObjectData
280
     1
 91
        0
  0
ACDSSCHEMA
 90
        2
  1
AcDbDs::LegacySchema
  2
AcDbDs::Legacy
280
     1
 91
        0
  0
ACDSSCHEMA
 90
        3
  1
AcDbDs::IndexedPropertySchema
  2
AcDs:Indexable
280
     1
 91
        0
  0
ACDSSCHEMA
 90
        4
  1
AcDbDs::HandleAttributeSchema
  2
AcDbDs::HandleAttribute
280
     7
 91
        1
284
     1
  0
ACDSRECORD
 90
        0
  2
AcDbDs::ID
280
    10
320
72
  2
Thumbnail_Data
280
    15
 94
     1848
310
89504E470D0A1A0A0000000D49484452000001000000009B0803000000BA7AB56000000300504C54455B5B5B000000C8C8C80000000000000000000000000000000000000000000000000000330000660000990000CC0000FF0033000033330033660033990033CC0033FF0066000066330066660066990066CC0066FF0099
310
000099330099660099990099CC0099FF00CC0000CC3300CC6600CC9900CCCC00CCFF00FF0000FF3300FF6600FF9900FFCC00FFFF3300003300333300663300993300CC3300FF3333003333333333663333993333CC3333FF3366003366333366663366993366CC3366FF3399003399333399663399993399CC3399FF33CC00
310
33CC3333CC6633CC9933CCCC33CCFF33FF0033FF3333FF6633FF9933FFCC33FFFF6600006600336600666600996600CC6600FF6633006633336633666633996633CC6633FF6666006666336666666666996666CC6666FF6699006699336699666699996699CC6699FF66CC0066CC3366CC6666CC9966CCCC66CCFF66FF0066
310
FF3366FF6666FF9966FFCC66FFFF9900009900339900669900999900CC9900FF9933009933339933669933999933CC9933FF9966009966339966669966999966CC9966FF9999009999339999669999999999CC9999FF99CC0099CC3399CC6699CC9999CCCC99CCFF99FF0099FF3399FF6699FF9999FFCC99FFFFCC0000CC00
310
33CC0066CC0099CC00CCCC00FFCC3300CC3333CC3366CC3399CC33CCCC33FFCC6600CC6633CC6666CC6699CC66CCCC66FFCC9900CC9933CC9966CC9999CC99CCCC99FFCCCC00CCCC33CCCC66CCCC99CCCCCCCCCCFFCCFF00CCFF33CCFF66CCFF99CCFFCCCCFFFFFF0000FF0033FF0066FF0099FF00CCFF00FFFF3300FF3333
310
FF3366FF3399FF33CCFF33FFFF6600FF6633FF6666FF6699FF66CCFF66FFFF9900FF9933FF9966FF9999FF99CCFF99FFFFCC00FFCC33FFCC66FFCC99FFCCCCFFCCFFFFFF00FFFF33FFFF66FFFF99FFFFCCFFFFFF0000000D0D0D1A1A1A2828283535354343435050505D5D5D6B6B6B787878868686939393A1A1A1AEAEAEBB
310
BBBBC9C9C9D6D6D6E4E4E4F1F1F1FFFFFF00000000000000000000000000000000000000000000000000000000000054549EDE000003F34944415478DAEDDD0B72EA300C05502D87FD2FE0AEADA540F057B6E3742657523A9DF78602830EFE48760822715C793CBE875380D4C23980085E4D01DF5691FC77E1489E07776F5A
310
E9ABC3E7DFE438F5A4489EA7300E801B031CC1EEC66F0740B6E2670368348000088000D8889F0CE01B6D005CD4030220005ECF7173804FA03580B80040F2EB12E0D107F0D1059E2F0F97CE82651E4402707D2DC802500D820E5B4000FC6B29C002D05810DB8B9F1F40BC03602F7E0300F00590ADE5FA01C8F605B0DD0520CC
310
007FAFFFB2218012E037801580FA3E9600A6C22FEFE60220BF036C018CE680EA0FD65AC0480065CCCE0030B80162BD050C66016700D03DAC03E86FBF1C6BA23CB5C01A00261A440004805D008C6F0B00770002EF0075221400D10502E0EE00D592C89C00A67A003F00968680E6720031C0E4606716A053F429F137F745D801
310
66B2FEFCE15600942A67B450002A80D63A4E31056009E07D0FA21600BD0B686BFF8A005317C0280FC22AC067878520FE7F0210D0036813BCA516709C2B0BAD14C89B833580F72E2F9452201F11A7A6011A806FEC5A2D94A545535B262C004940E88F016B00592244340B6A00199204C0387EE14B04F573C426019E0FE402F8
310
1D051700A06642AF4725E71B520140F60000CE25C1B46D6793606B1A402F176E64873C2D208B6F066078A60C21006404906680F98287F44F28A301C0781A947291AC50300000A518EA7707B51E660180AC038CD3413680AA1C4600F802F03C06A88320BAD59E3580621A3C3E52DBDD191AEC1FF325426824C348C26DAD8F75
310
0DC09F0A17371589E0C8800DE0B332DCE802ED65B191011D40AF1C4C5BBE72D200CC02A41F29D56600D003D46360AFCF4F55C48400E518D8CD04A60428018A41B09B0AA1CBC20D209D3E80B96200F600F464185600B20B4B4F028C057800BE10DB00A006789745AD7AB83DEDEBABE31600207D02A0BF3F02732D4046970A68
310
F4056300AB97938005808DF8D30D035A00D902385611CE5F98F1460050DF626545ECF9C3DA02060D40DB15CC66035680A9F8453F59C20A407FC9AF79D921C00540F527E42962735191A02C92F1C7253A02C88B84CF1400707D77CDF10531730055B25CACA5937581CE2AC1D447A4D25E9F2582AC00FD5A1013DD3BED47FC00
310
F97B8BF93CC80EC051EACFE7B5F6004496D27A7A8033450CE01B20EB224E01EAEB6A3303E044FC0100B75DA075917E6A80C729304B83E0A936E37A16280A088F00DE33C12600ED77F95E107F0070036CF58100A01F03055B020600240076040C03CC7EFFFC734B2439FBCC1080783902A03D04044000044000044000044024
310
4201E034FE000880007005502BB80268B5025FD3A06B00710FD01E085D01146320F92AEFC9E32F629FA1676FBCC47197E307FFAE278C8D8133A30000000049454E44AE426082
  0
ENDSEC
  0
EOF
