  0
SECTION
  2
HEADER
  9
$ACADVER
  1
AC1027
  9
$ACADMAINTVER
 70
    55
  9
$DWGCODEPAGE
  3
ANSI_1252
  9
$LASTSAVEDBY
  1
crinne
  9
$REQUIREDVERSIONS
160
                 0
  9
$INSBASE
 10
0.0
 20
0.0
 30
0.0
  9
$EXTMIN
 10
4.041861559699592
 20
-23.65836844275063
 30
0.0
  9
$EXTMAX
 10
6.507124999537618
 20
-22.20381777795714
 30
0.0
  9
$LIMMIN
 10
-2600.0
 20
-2600.0
  9
$LIMMAX
 10
2000.0
 20
200.0
  9
$ORTHOMODE
 70
     0
  9
$REGENMODE
 70
     1
  9
$FILLMODE
 70
     1
  9
$QTEXTMODE
 70
     0
  9
$MIRRTEXT
 70
     1
  9
$LTSCALE
 40
25.0
  9
$ATTMODE
 70
     1
  9
$TEXTSIZE
 40
3.5
  9
$TRACEWID
 40
1.0
  9
$TEXTSTYLE
  7
STANDARD
  9
$CLAYER
  8
STEINESCHRAFF
  9
$CELTYPE
  6
ByLayer
  9
$CECOLOR
 62
   256
  9
$CELTSCALE
 40
1.0
  9
$DISPSILH
 70
     0
  9
$DIMSCALE
 40
1.0
  9
$DIMASZ
 40
3.5
  9
$DIMEXO
 40
0.1
  9
$DIMDLI
 40
7.0
  9
$DIMRND
 40
0.0
  9
$DIMDLE
 40
0.0
  9
$DIMEXE
 40
1.8
  9
$DIMTP
 40
0.0
  9
$DIMTM
 40
0.0
  9
$DIMTXT
 40
3.5
  9
$DIMCEN
 40
1.5
  9
$DIMTSZ
 40
0.0
  9
$DIMTOL
 70
     0
  9
$DIMLIM
 70
     0
  9
$DIMTIH
 70
     0
  9
$DIMTOH
 70
     0
  9
$DIMSE1
 70
     0
  9
$DIMSE2
 70
     0
  9
$DIMTAD
 70
     0
  9
$DIMZIN
 70
     0
  9
$DIMBLK
  1

  9
$DIMASO
 70
     1
  9
$DIMSHO
 70
     0
  9
$DIMPOST
  1

  9
$DIMAPOST
  1

  9
$DIMALT
 70
     0
  9
$DIMALTD
 70
     2
  9
$DIMALTF
 40
25.4
  9
$DIMLFAC
 40
1.0
  9
$DIMTOFL
 70
     0
  9
$DIMTVP
 40
0.0
  9
$DIMTIX
 70
     0
  9
$DIMSOXD
 70
     0
  9
$DIMSAH
 70
     0
  9
$DIMBLK1
  1

  9
$DIMBLK2
  1

  9
$DIMSTYLE
  2
Standard
  9
$DIMCLRD
 70
     0
  9
$DIMCLRE
 70
     0
  9
$DIMCLRT
 70
     0
  9
$DIMTFAC
 40
1.0
  9
$DIMGAP
 40
0.09
  9
$DIMJUST
 70
     0
  9
$DIMSD1
 70
     0
  9
$DIMSD2
 70
     0
  9
$DIMTOLJ
 70
     1
  9
$DIMTZIN
 70
     0
  9
$DIMALTZ
 70
     0
  9
$DIMALTTZ
 70
     0
  9
$DIMUPT
 70
     0
  9
$DIMDEC
 70
     2
  9
$DIMTDEC
 70
     2
  9
$DIMALTU
 70
     2
  9
$DIMALTTD
 70
     2
  9
$DIMTXSTY
  7
STANDARD
  9
$DIMAUNIT
 70
     0
  9
$DIMADEC
 70
     0
  9
$DIMALTRND
 40
0.0
  9
$DIMAZIN
 70
     0
  9
$DIMDSEP
 70
    46
  9
$DIMATFIT
 70
     3
  9
$DIMFRAC
 70
     0
  9
$DIMLDRBLK
  1

  9
$DIMLUNIT
 70
     2
  9
$DIMLWD
 70
    -2
  9
$DIMLWE
 70
    -2
  9
$DIMTMOVE
 70
     2
  9
$DIMFXL
 40
1.0
  9
$DIMFXLON
 70
     0
  9
$DIMJOGANG
 40
0.7853981633974483
  9
$DIMTFILL
 70
     0
  9
$DIMTFILLCLR
 70
     0
  9
$DIMARCSYM
 70
     0
  9
$DIMLTYPE
  6

  9
$DIMLTEX1
  6

  9
$DIMLTEX2
  6

  9
$DIMTXTDIRECTION
 70
     0
  9
$LUNITS
 70
     2
  9
$LUPREC
 70
     2
  9
$SKETCHINC
 40
1.0
  9
$FILLETRAD
 40
0.0
  9
$AUNITS
 70
     0
  9
$AUPREC
 70
     0
  9
$MENU
  1
ACAD
  9
$ELEVATION
 40
0.0
  9
$PELEVATION
 40
0.0
  9
$THICKNESS
 40
0.0
  9
$LIMCHECK
 70
     0
  9
$CHAMFERA
 40
0.0
  9
$CHAMFERB
 40
0.0
  9
$CHAMFERC
 40
0.0
  9
$CHAMFERD
 40
0.0
  9
$SKPOLY
 70
     0
  9
$TDCREATE
 40
2450593.622069328
  9
$TDUCREATE
 40
2450593.538735996
  9
$TDUPDATE
 40
2459796.511483264
  9
$TDUUPDATE
 40
2459796.428149931
  9
$TDINDWG
 40
0.0107108333
  9
$TDUSRTIMER
 40
0.0107108333
  9
$USRTIMER
 70
     1
  9
$ANGBASE
 50
0.0
  9
$ANGDIR
 70
     0
  9
$PDMODE
 70
     0
  9
$PDSIZE
 40
0.0
  9
$PLINEWID
 40
0.0
  9
$SPLFRAME
 70
     0
  9
$SPLINETYPE
 70
     6
  9
$SPLINESEGS
 70
     8
  9
$HANDSEED
  5
45E
  9
$SURFTAB1
 70
     6
  9
$SURFTAB2
 70
     6
  9
$SURFTYPE
 70
     6
  9
$SURFU
 70
     6
  9
$SURFV
 70
     6
  9
$UCSBASE
  2

  9
$UCSNAME
  2

  9
$UCSORG
 10
0.0
 20
0.0
 30
0.0
  9
$UCSXDIR
 10
1.0
 20
0.0
 30
0.0
  9
$UCSYDIR
 10
0.0
 20
1.0
 30
0.0
  9
$UCSORTHOREF
  2

  9
$UCSORTHOVIEW
 70
     0
  9
$UCSORGTOP
 10
0.0
 20
0.0
 30
0.0
  9
$UCSORGBOTTOM
 10
0.0
 20
0.0
 30
0.0
  9
$UCSORGLEFT
 10
0.0
 20
0.0
 30
0.0
  9
$UCSORGRIGHT
 10
0.0
 20
0.0
 30
0.0
  9
$UCSORGFRONT
 10
0.0
 20
0.0
 30
0.0
  9
$UCSORGBACK
 10
0.0
 20
0.0
 30
0.0
  9
$PUCSBASE
  2

  9
$PUCSNAME
  2

  9
$PUCSORG
 10
0.0
 20
0.0
 30
0.0
  9
$PUCSXDIR
 10
1.0
 20
0.0
 30
0.0
  9
$PUCSYDIR
 10
0.0
 20
1.0
 30
0.0
  9
$PUCSORTHOREF
  2

  9
$PUCSORTHOVIEW
 70
     0
  9
$PUCSORGTOP
 10
0.0
 20
0.0
 30
0.0
  9
$PUCSORGBOTTOM
 10
0.0
 20
0.0
 30
0.0
  9
$PUCSORGLEFT
 10
0.0
 20
0.0
 30
0.0
  9
$PUCSORGRIGHT
 10
0.0
 20
0.0
 30
0.0
  9
$PUCSORGFRONT
 10
0.0
 20
0.0
 30
0.0
  9
$PUCSORGBACK
 10
0.0
 20
0.0
 30
0.0
  9
$USERI1
 70
     0
  9
$USERI2
 70
     0
  9
$USERI3
 70
     0
  9
$USERI4
 70
     0
  9
$USERI5
 70
     0
  9
$USERR1
 40
0.0
  9
$USERR2
 40
0.0
  9
$USERR3
 40
0.0
  9
$USERR4
 40
0.0
  9
$USERR5
 40
0.0
  9
$WORLDVIEW
 70
     1
  9
$SHADEDGE
 70
     3
  9
$SHADEDIF
 70
    70
  9
$TILEMODE
 70
     1
  9
$MAXACTVP
 70
    16
  9
$PINSBASE
 10
0.0
 20
0.0
 30
0.0
  9
$PLIMCHECK
 70
     0
  9
$PEXTMIN
 10
1.000000000000000E+20
 20
1.000000000000000E+20
 30
1.000000000000000E+20
  9
$PEXTMAX
 10
-1.000000000000000E+20
 20
-1.000000000000000E+20
 30
-1.000000000000000E+20
  9
$PLIMMIN
 10
0.0
 20
0.0
  9
$PLIMMAX
 10
12.0
 20
9.0
  9
$UNITMODE
 70
     0
  9
$VISRETAIN
 70
     0
  9
$PLINEGEN
 70
     0
  9
$PSLTSCALE
 70
     0
  9
$TREEDEPTH
 70
  3020
  9
$CMLSTYLE
  2
Standard
  9
$CMLJUST
 70
     0
  9
$CMLSCALE
 40
1.0
  9
$PROXYGRAPHICS
 70
     1
  9
$MEASUREMENT
 70
     0
  9
$CELWEIGHT
370
    -1
  9
$ENDCAPS
280
     0
  9
$JOINSTYLE
280
     0
  9
$LWDISPLAY
290
     0
  9
$INSUNITS
 70
     6
  9
$HYPERLINKBASE
  1

  9
$STYLESHEET
  1

  9
$XEDIT
290
     1
  9
$CEPSNTYPE
380
     0
  9
$PSTYLEMODE
290
     1
  9
$FINGERPRINTGUID
  2
{5332658D-0DF5-4CA9-B11E-A1C66D999BD0}
  9
$VERSIONGUID
  2
{B7C0F035-CDC0-406A-832E-8017EFA7227A}
  9
$EXTNAMES
290
     1
  9
$PSVPSCALE
 40
0.0
  9
$OLESTARTUP
290
     0
  9
$SORTENTS
280
   127
  9
$INDEXCTL
280
     0
  9
$HIDETEXT
280
     1
  9
$XCLIPFRAME
280
     2
  9
$HALOGAP
280
     0
  9
$OBSCOLOR
 70
   257
  9
$OBSLTYPE
280
     0
  9
$INTERSECTIONDISPLAY
280
     0
  9
$INTERSECTIONCOLOR
 70
   257
  9
$DIMASSOC
280
     2
  9
$PROJECTNAME
  1

  9
$CAMERADISPLAY
290
     0
  9
$LENSLENGTH
 40
50.0
  9
$CAMERAHEIGHT
 40
0.0
  9
$STEPSPERSEC
 40
2.0
  9
$STEPSIZE
 40
6.0
  9
$3DDWFPREC
 40
2.0
  9
$PSOLWIDTH
 40
0.25
  9
$PSOLHEIGHT
 40
4.0
  9
$LOFTANG1
 40
1.570796326794896
  9
$LOFTANG2
 40
1.570796326794896
  9
$LOFTMAG1
 40
0.0
  9
$LOFTMAG2
 40
0.0
  9
$LOFTPARAM
 70
     7
  9
$LOFTNORMALS
280
     1
  9
$LATITUDE
 40
37.795
  9
$LONGITUDE
 40
-122.394
  9
$NORTHDIRECTION
 40
0.0
  9
$TIMEZONE
 70
 -8000
  9
$LIGHTGLYPHDISPLAY
280
     1
  9
$TILEMODELIGHTSYNCH
280
     1
  9
$CMATERIAL
347
11
  9
$SOLIDHIST
280
     0
  9
$SHOWHIST
280
     1
  9
$DWFFRAME
280
     2
  9
$DGNFRAME
280
     0
  9
$REALWORLDSCALE
290
     1
  9
$INTERFERECOLOR
 62
     1
  9
$INTERFEREOBJVS
345
33
  9
$INTERFEREVPVS
346
30
  9
$CSHADOW
280
     0
  9
$SHADOWPLANELOCATION
 40
0.0
  0
ENDSEC
  0
SECTION
  2
CLASSES
  0
CLASS
  1
ACDBDICTIONARYWDFLT
  2
AcDbDictionaryWithDefault
  3
ObjectDBX Classes
 90
        0
 91
        1
280
     0
281
     0
  0
CLASS
  1
MATERIAL
  2
AcDbMaterial
  3
ObjectDBX Classes
 90
     1153
 91
        3
280
     0
281
     0
  0
CLASS
  1
VISUALSTYLE
  2
AcDbVisualStyle
  3
ObjectDBX Classes
 90
     4095
 91
       24
280
     0
281
     0
  0
CLASS
  1
SCALE
  2
AcDbScale
  3
ObjectDBX Classes
 90
     1153
 91
       17
280
     0
281
     0
  0
CLASS
  1
TABLESTYLE
  2
AcDbTableStyle
  3
ObjectDBX Classes
 90
     4095
 91
        1
280
     0
281
     0
  0
CLASS
  1
MLEADERSTYLE
  2
AcDbMLeaderStyle
  3
ACDB_MLEADERSTYLE_CLASS
 90
     4095
 91
        1
280
     0
281
     0
  0
CLASS
  1
ACDBSECTIONVIEWSTYLE
  2
AcDbSectionViewStyle
  3
ObjectDBX Classes
 90
     1025
 91
        1
280
     0
281
     0
  0
CLASS
  1
ACDBDETAILVIEWSTYLE
  2
AcDbDetailViewStyle
  3
ObjectDBX Classes
 90
     1025
 91
        1
280
     0
281
     0
  0
CLASS
  1
DICTIONARYVAR
  2
AcDbDictionaryVar
  3
ObjectDBX Classes
 90
        0
 91
        5
280
     0
281
     0
  0
CLASS
  1
CELLSTYLEMAP
  2
AcDbCellStyleMap
  3
ObjectDBX Classes
 90
     1152
 91
        1
280
     0
281
     0
  0
ENDSEC
  0
SECTION
  2
TABLES
  0
TABLE
  2
VPORT
  5
8
330
0
100
AcDbSymbolTable
 70
     1
  0
VPORT
  5
8F
330
8
100
AcDbSymbolTableRecord
100
AcDbViewportTableRecord
  2
*ACTIVE
 70
     0
 10
0.0
 20
0.0
 11
1.0
 21
1.0
 12
5.274493279618605
 22
-22.93109311035388
 13
0.0
 23
0.0
 14
5.0
 24
5.0
 15
100.0
 25
100.0
 16
0.0
 26
0.0
 36
1.0
 17
0.0
 27
0.0
 37
0.0
 40
1.502062708466433
 41
1.649386084583901
 42
50.0
 43
0.0
 44
0.0
 50
0.0
 51
0.0
 71
     0
 72
   100
 73
     1
 74
     0
 75
     0
 76
     1
 77
     0
 78
     0
281
     0
 65
     1
110
0.0
120
0.0
130
0.0
111
1.0
121
0.0
131
0.0
112
0.0
122
1.0
132
0.0
 79
     0
146
0.0
348
2F
 60
     3
 61
     5
292
     1
282
     0
141
0.0
142
0.0
 63
   250
421
  3355443
1001
ACAD_NAV_VCDISPLAY
1070
     3
  0
ENDTAB
  0
TABLE
  2
LTYPE
  5
5
330
0
100
AcDbSymbolTable
 70
    25
  0
LTYPE
  5
5A
330
5
100
AcDbSymbolTableRecord
100
AcDbLinetypeTableRecord
  2
ByBlock
 70
     0
  3

 72
    65
 73
     0
 40
0.0
  0
LTYPE
  5
5B
330
5
100
AcDbSymbolTableRecord
100
AcDbLinetypeTableRecord
  2
ByLayer
 70
     0
  3

 72
    65
 73
     0
 40
0.0
  0
LTYPE
  5
5C
330
5
100
AcDbSymbolTableRecord
100
AcDbLinetypeTableRecord
  2
CONTINUOUS
 70
     0
  3
Ausgezogene Linie
 72
    65
 73
     0
 40
0.0
  0
LTYPE
  5
76
330
5
100
AcDbSymbolTableRecord
100
AcDbLinetypeTableRecord
  2
RAND
 70
     0
  3
__ __ . __ __ . __ __ . __ __ . __ __ . __ __ .
 72
    65
 73
     6
 40
1.75
 49
0.5
 74
     0
 49
-0.25
 74
     0
 49
0.5
 74
     0
 49
-0.25
 74
     0
 49
0.0
 74
     0
 49
-0.25
 74
     0
  0
LTYPE
  5
77
330
5
100
AcDbSymbolTableRecord
100
AcDbLinetypeTableRecord
  2
RAND2
 70
     0
  3
__.__.__.__.__.__.__.__.__.__.__.__.__.__.__.__
 72
    65
 73
     6
 40
0.875
 49
0.25
 74
     0
 49
-0.125
 74
     0
 49
0.25
 74
     0
 49
-0.125
 74
     0
 49
0.0
 74
     0
 49
-0.125
 74
     0
  0
LTYPE
  5
78
330
5
100
AcDbSymbolTableRecord
100
AcDbLinetypeTableRecord
  2
RANDX2
 70
     0
  3
____  ____  .  ____  ____  .  ____  ____  .  __
 72
    65
 73
     6
 40
3.5
 49
1.0
 74
     0
 49
-0.5
 74
     0
 49
1.0
 74
     0
 49
-0.5
 74
     0
 49
0.0
 74
     0
 49
-0.5
 74
     0
  0
LTYPE
  5
79
330
5
100
AcDbSymbolTableRecord
100
AcDbLinetypeTableRecord
  2
MITTE
 70
     0
  3
____ _ ____ _ ____ _ ____ _ ____ _ ____ _ ____ 
 72
    65
 73
     4
 40
2.0
 49
1.25
 74
     0
 49
-0.25
 74
     0
 49
0.25
 74
     0
 49
-0.25
 74
     0
  0
LTYPE
  5
7A
330
5
100
AcDbSymbolTableRecord
100
AcDbLinetypeTableRecord
  2
MITTE2
 70
     0
  3
___ _ ___ _ ___ _ ___ _ ___ _ ___ _ ___ _ ___ _
 72
    65
 73
     4
 40
1.125
 49
0.75
 74
     0
 49
-0.125
 74
     0
 49
0.125
 74
     0
 49
-0.125
 74
     0
  0
LTYPE
  5
7B
330
5
100
AcDbSymbolTableRecord
100
AcDbLinetypeTableRecord
  2
MITTEX2
 70
     0
  3
________  __  ________  __  ________  __  _____
 72
    65
 73
     4
 40
4.0
 49
2.5
 74
     0
 49
-0.5
 74
     0
 49
0.5
 74
     0
 49
-0.5
 74
     0
  0
LTYPE
  5
7C
330
5
100
AcDbSymbolTableRecord
100
AcDbLinetypeTableRecord
  2
STRICHPUNKT
 70
     0
  3
__ . __ . __ . __ . __ . __ . __ . __ . __ . __
 72
    65
 73
     4
 40
1.0
 49
0.5
 74
     0
 49
-0.25
 74
     0
 49
0.0
 74
     0
 49
-0.25
 74
     0
  0
LTYPE
  5
7D
330
5
100
AcDbSymbolTableRecord
100
AcDbLinetypeTableRecord
  2
STRICHPUNKT2
 70
     0
  3
_._._._._._._._._._._._._._._._._._._._._._._._
 72
    65
 73
     4
 40
0.5
 49
0.25
 74
     0
 49
-0.125
 74
     0
 49
0.0
 74
     0
 49
-0.125
 74
     0
  0
LTYPE
  5
7E
330
5
100
AcDbSymbolTableRecord
100
AcDbLinetypeTableRecord
  2
STRICHPUNKTX2
 70
     0
  3
____  .  ____  .  ____  .  ____  .  ____  .  __
 72
    65
 73
     4
 40
2.0
 49
1.0
 74
     0
 49
-0.5
 74
     0
 49
0.0
 74
     0
 49
-0.5
 74
     0
  0
LTYPE
  5
7F
330
5
100
AcDbSymbolTableRecord
100
AcDbLinetypeTableRecord
  2
GESTRICHELT
 70
     0
  3
__ __ __ __ __ __ __ __ __ __ __ __ __ __ __ __
 72
    65
 73
     2
 40
0.75
 49
0.5
 74
     0
 49
-0.25
 74
     0
  0
LTYPE
  5
80
330
5
100
AcDbSymbolTableRecord
100
AcDbLinetypeTableRecord
  2
GESTRICHELT2
 70
     0
  3
_ _ _ _ _ _ _ _ _ _ _ _ _ _ _ _ _ _ _ _ _ _ _ _
 72
    65
 73
     2
 40
0.375
 49
0.25
 74
     0
 49
-0.125
 74
     0
  0
LTYPE
  5
81
330
5
100
AcDbSymbolTableRecord
100
AcDbLinetypeTableRecord
  2
GESTRICHELTX2
 70
     0
  3
____  ____  ____  ____  ____  ____  ____  ____ 
 72
    65
 73
     2
 40
1.5
 49
1.0
 74
     0
 49
-0.5
 74
     0
  0
LTYPE
  5
82
330
5
100
AcDbSymbolTableRecord
100
AcDbLinetypeTableRecord
  2
GETRENNT
 70
     0
  3
____ . . ____ . . ____ . . ____ . . ____ . . __
 72
    65
 73
     6
 40
1.25
 49
0.5
 74
     0
 49
-0.25
 74
     0
 49
0.0
 74
     0
 49
-0.25
 74
     0
 49
0.0
 74
     0
 49
-0.25
 74
     0
  0
LTYPE
  5
83
330
5
100
AcDbSymbolTableRecord
100
AcDbLinetypeTableRecord
  2
GETRENNT2
 70
     0
  3
__..__..__..__..__..__..__..__..__..__..__..__.
 72
    65
 73
     6
 40
0.625
 49
0.25
 74
     0
 49
-0.125
 74
     0
 49
0.0
 74
     0
 49
-0.125
 74
     0
 49
0.0
 74
     0
 49
-0.125
 74
     0
  0
LTYPE
  5
84
330
5
100
AcDbSymbolTableRecord
100
AcDbLinetypeTableRecord
  2
GETRENNTX2
 70
     0
  3
________  .  .  ________  .  .  ________  .  . 
 72
    65
 73
     6
 40
2.5
 49
1.0
 74
     0
 49
-0.5
 74
     0
 49
0.0
 74
     0
 49
-0.5
 74
     0
 49
0.0
 74
     0
 49
-0.5
 74
     0
  0
LTYPE
  5
85
330
5
100
AcDbSymbolTableRecord
100
AcDbLinetypeTableRecord
  2
PUNKT
 70
     0
  3
. . . . . . . . . . . . . . . . . . . . . . . .
 72
    65
 73
     2
 40
0.25
 49
0.0
 74
     0
 49
-0.25
 74
     0
  0
LTYPE
  5
86
330
5
100
AcDbSymbolTableRecord
100
AcDbLinetypeTableRecord
  2
PUNKT2
 70
     0
  3
...............................................
 72
    65
 73
     2
 40
0.125
 49
0.0
 74
     0
 49
-0.125
 74
     0
  0
LTYPE
  5
87
330
5
100
AcDbSymbolTableRecord
100
AcDbLinetypeTableRecord
  2
PUNKTX2
 70
     0
  3
.  .  .  .  .  .  .  .  .  .  .  .  .  .  .  . 
 72
    65
 73
     2
 40
0.5
 49
0.0
 74
     0
 49
-0.5
 74
     0
  0
LTYPE
  5
88
330
5
100
AcDbSymbolTableRecord
100
AcDbLinetypeTableRecord
  2
VERDECKT
 70
     0
  3
__ __ __ __ __ __ __ __ __ __ __ __ __ __ __ __
 72
    65
 73
     2
 40
0.375
 49
0.25
 74
     0
 49
-0.125
 74
     0
  0
LTYPE
  5
89
330
5
100
AcDbSymbolTableRecord
100
AcDbLinetypeTableRecord
  2
VERDECKT2
 70
     0
  3
_ _ _ _ _ _ _ _ _ _ _ _ _ _ _ _ _ _ _ _ _ _ _ _
 72
    65
 73
     2
 40
0.1875
 49
0.125
 74
     0
 49
-0.0625
 74
     0
  0
LTYPE
  5
8A
330
5
100
AcDbSymbolTableRecord
100
AcDbLinetypeTableRecord
  2
VERDECKTX2
 70
     0
  3
____ ____ ____ ____ ____ ____ ____ ____ ____ __
 72
    65
 73
     2
 40
0.75
 49
0.5
 74
     0
 49
-0.25
 74
     0
  0
LTYPE
  5
8B
330
5
100
AcDbSymbolTableRecord
100
AcDbLinetypeTableRecord
  2
PHANTOM
 70
     0
  3
______  __  __  ______  __  __  ______  __  __ 
 72
    65
 73
     6
 40
2.5
 49
1.25
 74
     0
 49
-0.25
 74
     0
 49
0.25
 74
     0
 49
-0.25
 74
     0
 49
0.25
 74
     0
 49
-0.25
 74
     0
  0
LTYPE
  5
8C
330
5
100
AcDbSymbolTableRecord
100
AcDbLinetypeTableRecord
  2
PHANTOM2
 70
     0
  3
___ _ _ ___ _ _ ___ _ _ ___ _ _ ___ _ _ ___ _ _
 72
    65
 73
     6
 40
1.25
 49
0.625
 74
     0
 49
-0.125
 74
     0
 49
0.125
 74
     0
 49
-0.125
 74
     0
 49
0.125
 74
     0
 49
-0.125
 74
     0
  0
LTYPE
  5
8D
330
5
100
AcDbSymbolTableRecord
100
AcDbLinetypeTableRecord
  2
PHANTOMX2
 70
     0
  3
____________    ____    ____    ____________   
 72
    65
 73
     6
 40
5.0
 49
2.5
 74
     0
 49
-0.5
 74
     0
 49
0.5
 74
     0
 49
-0.5
 74
     0
 49
0.5
 74
     0
 49
-0.5
 74
     0
  0
ENDTAB
  0
TABLE
  2
LAYER
  5
2
102
{ACAD_XDICTIONARY
360
3B6
102
}
330
0
100
AcDbSymbolTable
 70
    10
  0
LAYER
  5
54
330
2
100
AcDbSymbolTableRecord
100
AcDbLayerTableRecord
  2
0
 70
     0
 62
     7
  6
CONTINUOUS
370
    -3
390
F
347
21
348
0
  0
LAYER
  5
90
330
2
100
AcDbSymbolTableRecord
100
AcDbLayerTableRecord
  2
GRABUNGSGRENZE
 70
     0
 62
     3
  6
STRICHPUNKTX2
370
    -3
390
F
347
21
348
0
  0
LAYER
  5
91
330
2
100
AcDbSymbolTableRecord
100
AcDbLayerTableRecord
  2
BEFUND
 70
     0
 62
     1
  6
CONTINUOUS
370
    -3
390
F
347
21
348
0
  0
LAYER
  5
92
330
2
100
AcDbSymbolTableRecord
100
AcDbLayerTableRecord
  2
STEINE
 70
     0
 62
     4
  6
CONTINUOUS
370
    -3
390
F
347
21
348
0
  0
LAYER
  5
93
330
2
100
AcDbSymbolTableRecord
100
AcDbLayerTableRecord
  2
KNOCHEN
 70
     0
 62
     2
  6
CONTINUOUS
370
    -3
390
F
347
21
348
0
  0
LAYER
  5
94
330
2
100
AcDbSymbolTableRecord
100
AcDbLayerTableRecord
  2
BEFUND_UNSICHER
 70
     0
 62
     1
  6
GESTRICHELT
370
    -3
390
F
347
21
348
0
  0
LAYER
  5
95
330
2
100
AcDbSymbolTableRecord
100
AcDbLayerTableRecord
  2
FEUER
 70
     0
 62
     1
  6
CONTINUOUS
370
    -3
390
F
347
21
348
0
  0
LAYER
  5
96
330
2
100
AcDbSymbolTableRecord
100
AcDbLayerTableRecord
  2
KNOCHENSCHRAFF
 70
     0
 62
     2
  6
CONTINUOUS
370
    -3
390
F
347
21
348
0
  0
LAYER
  5
97
330
2
100
AcDbSymbolTableRecord
100
AcDbLayerTableRecord
  2
TPROFIL
 70
     0
 62
     3
  6
CONTINUOUS
370
    -3
390
F
347
21
348
0
  0
LAYER
  5
98
330
2
100
AcDbSymbolTableRecord
100
AcDbLayerTableRecord
  2
STEINESCHRAFF
 70
     0
 62
     4
  6
CONTINUOUS
370
    -3
390
F
347
21
348
0
  0
ENDTAB
  0
TABLE
  2
STYLE
  5
3
330
0
100
AcDbSymbolTable
 70
     2
  0
STYLE
  5
55
330
3
100
AcDbSymbolTableRecord
100
AcDbTextStyleTableRecord
  2
STANDARD
 70
     0
 40
0.0
 41
1.0
 50
0.0
 71
     0
 42
3.5
  3
txt.shx
  4

  0
STYLE
  5
59
330
3
100
AcDbSymbolTableRecord
100
AcDbTextStyleTableRecord
  2
Annotative
 70
     0
 40
0.0
 41
1.0
 50
0.0
 71
     0
 42
3.5
  3
txt
  4

1001
AcadAnnotative
1000
AnnotativeData
1002
{
1070
     1
1070
     1
1002
}
  0
ENDTAB
  0
TABLE
  2
VIEW
  5
6
330
0
100
AcDbSymbolTable
 70
     1
  0
ENDTAB
  0
TABLE
  2
UCS
  5
7
330
0
100
AcDbSymbolTable
 70
     0
  0
ENDTAB
  0
TABLE
  2
APPID
  5
9
330
0
100
AcDbSymbolTable
 70
     3
  0
APPID
  5
56
330
9
100
AcDbSymbolTableRecord
100
AcDbRegAppTableRecord
  2
ACAD
 70
     0
  0
APPID
  5
5D
330
9
100
AcDbSymbolTableRecord
100
AcDbRegAppTableRecord
  2
AcadAnnotative
 70
     0
  0
APPID
  5
3BC
330
9
100
AcDbSymbolTableRecord
100
AcDbRegAppTableRecord
  2
ACAD_NAV_VCDISPLAY
 70
     0
  0
ENDTAB
  0
TABLE
  2
DIMSTYLE
  5
A
330
0
100
AcDbSymbolTable
 70
     2
100
AcDbDimStyleTable
 71
     0
  0
DIMSTYLE
105
57
330
A
100
AcDbSymbolTableRecord
100
AcDbDimStyleTableRecord
  2
Standard
 70
     0
340
55
  0
DIMSTYLE
105
58
330
A
100
AcDbSymbolTableRecord
100
AcDbDimStyleTableRecord
  2
Annotative
 70
     0
340
55
1001
AcadAnnotative
1000
AnnotativeData
1002
{
1070
     1
1070
     1
1002
}
  0
ENDTAB
  0
TABLE
  2
BLOCK_RECORD
  5
1
330
0
100
AcDbSymbolTable
 70
     3
  0
BLOCK_RECORD
  5
6F
330
1
100
AcDbSymbolTableRecord
100
AcDbBlockTableRecord
  2
*Model_Space
340
72
 70
     0
280
     1
281
     0
  0
BLOCK_RECORD
  5
6B
330
1
100
AcDbSymbolTableRecord
100
AcDbBlockTableRecord
  2
*Paper_Space
340
6E
 70
     0
280
     1
281
     0
  0
BLOCK_RECORD
  5
73
330
1
100
AcDbSymbolTableRecord
100
AcDbBlockTableRecord
  2
TPFEIL
340
0
 70
     0
280
     1
281
     0
  0
BLOCK_RECORD
  5
74
330
1
100
AcDbSymbolTableRecord
100
AcDbBlockTableRecord
  2
*X1
340
0
102
{BLKREFS
331
3AE
102
}
 70
     0
280
     1
281
     0
  0
BLOCK_RECORD
  5
75
330
1
100
AcDbSymbolTableRecord
100
AcDbBlockTableRecord
  2
*X2
340
0
102
{BLKREFS
331
3AF
102
}
 70
     0
280
     1
281
     0
  0
ENDTAB
  0
ENDSEC
  0
SECTION
  2
BLOCKS
  0
BLOCK
  5
9B
330
6F
100
AcDbEntity
  8
0
100
AcDbBlockBegin
  2
*Model_Space
 70
     0
 10
0.0
 20
0.0
 30
0.0
  3
*Model_Space
  1

  0
ENDBLK
  5
9C
330
6F
100
AcDbEntity
  8
0
100
AcDbBlockEnd
  0
BLOCK
  5
99
330
6B
100
AcDbEntity
 67
     1
  8
0
100
AcDbBlockBegin
  2
*Paper_Space
 70
     0
 10
0.0
 20
0.0
 30
0.0
  3
*Paper_Space
  1

  0
ENDBLK
  5
9A
330
6B
100
AcDbEntity
 67
     1
  8
0
100
AcDbBlockEnd
  0
BLOCK
  5
9D
330
73
100
AcDbEntity
  8
0
100
AcDbBlockBegin
  2
TPFEIL
 70
     0
 10
0.0
 20
0.0
 30
0.0
  3
TPFEIL
  1

  0
LWPOLYLINE
  5
9E
330
73
100
AcDbEntity
  8
GRABUNGSGRENZE
100
AcDbPolyline
 90
        2
 70
     0
 10
0.0
 20
-10.0
 40
5.0
 41
0.0
 10
0.0
 20
0.0
 40
0.0
 41
0.0
  0
ENDBLK
  5
A2
330
73
100
AcDbEntity
  8
0
100
AcDbBlockEnd
  0
BLOCK
  5
A3
330
74
100
AcDbEntity
  8
0
100
AcDbBlockBegin
  2
*X1
 70
     1
 10
0.0
 20
0.0
 30
0.0
  3
*X1
  1

  0
LINE
  5
A4
330
74
100
AcDbEntity
  8
0
 62
     0
100
AcDbLine
 10
633.8583773906889
 20
-2232.045406758388
 30
0.0
 11
636.0158515301959
 21
-2229.887932618881
 31
0.0
  0
LINE
  5
A5
330
74
100
AcDbEntity
  8
0
 62
     0
100
AcDbLine
 10
633.7744556588163
 20
-2231.775775099667
 30
0.0
 11
635.9326533990979
 21
-2229.617577359386
 31
0.0
  0
LINE
  5
A6
330
74
100
AcDbEntity
  8
0
 62
     0
100
AcDbLine
 10
633.6905339269438
 20
-2231.506143440947
 30
0.0
 11
635.8494552679999
 21
-2229.34722209989
 31
0.0
  0
LINE
  5
A7
330
74
100
AcDbEntity
  8
0
 62
     0
100
AcDbLine
 10
633.6066121950713
 20
-2231.236511782226
 30
0.0
 11
635.7662571369019
 21
-2229.076866840395
 31
0.0
  0
LINE
  5
A8
330
74
100
AcDbEntity
  8
0
 62
     0
100
AcDbLine
 10
633.5226904631987
 20
-2230.966880123505
 30
0.0
 11
635.6830590058039
 21
-2228.806511580899
 31
0.0
  0
LINE
  5
A9
330
74
100
AcDbEntity
  8
0
 62
     0
100
AcDbLine
 10
633.4387687313261
 20
-2230.697248464784
 30
0.0
 11
635.5998608747058
 21
-2228.536156321404
 31
0.0
  0
LINE
  5
AA
330
74
100
AcDbEntity
  8
0
 62
     0
100
AcDbLine
 10
633.3548469994536
 20
-2230.427616806064
 30
0.0
 11
635.5166627436078
 21
-2228.265801061909
 31
0.0
  0
LINE
  5
AB
330
74
100
AcDbEntity
  8
0
 62
     0
100
AcDbLine
 10
633.270925267581
 20
-2230.157985147343
 30
0.0
 11
635.4334646125098
 21
-2227.995445802414
 31
0.0
  0
LINE
  5
AC
330
74
100
AcDbEntity
  8
0
 62
     0
100
AcDbLine
 10
633.1870035357084
 20
-2229.888353488622
 30
0.0
 11
635.3502664814118
 21
-2227.725090542919
 31
0.0
  0
LINE
  5
AD
330
74
100
AcDbEntity
  8
0
 62
     0
100
AcDbLine
 10
633.1030818038358
 20
-2229.618721829901
 30
0.0
 11
635.2670683503138
 21
-2227.454735283423
 31
0.0
  0
LINE
  5
AE
330
74
100
AcDbEntity
  8
0
 62
     0
100
AcDbLine
 10
633.0191600719632
 20
-2229.349090171181
 30
0.0
 11
635.1838702192158
 21
-2227.184380023928
 31
0.0
  0
LINE
  5
AF
330
74
100
AcDbEntity
  8
0
 62
     0
100
AcDbLine
 10
632.9352383400908
 20
-2229.07945851246
 30
0.0
 11
635.1006720881177
 21
-2226.914024764433
 31
0.0
  0
LINE
  5
B0
330
74
100
AcDbEntity
  8
0
 62
     0
100
AcDbLine
 10
632.8513166082181
 20
-2228.809826853739
 30
0.0
 11
635.0174739570197
 21
-2226.643669504937
 31
0.0
  0
LINE
  5
B1
330
74
100
AcDbEntity
  8
0
 62
     0
100
AcDbLine
 10
632.7673948763456
 20
-2228.540195195019
 30
0.0
 11
634.9342758259218
 21
-2226.373314245442
 31
0.0
  0
LINE
  5
B2
330
74
100
AcDbEntity
  8
0
 62
     0
100
AcDbLine
 10
632.683473144473
 20
-2228.270563536298
 30
0.0
 11
634.8510776948238
 21
-2226.102958985947
 31
0.0
  0
LINE
  5
B3
330
74
100
AcDbEntity
  8
0
 62
     0
100
AcDbLine
 10
632.5995514126004
 20
-2228.000931877577
 30
0.0
 11
634.7678795637258
 21
-2225.832603726452
 31
0.0
  0
LINE
  5
B4
330
74
100
AcDbEntity
  8
0
 62
     0
100
AcDbLine
 10
632.5156296807278
 20
-2227.731300218857
 30
0.0
 11
634.6846814326278
 21
-2225.562248466957
 31
0.0
  0
LINE
  5
B5
330
74
100
AcDbEntity
  8
0
 62
     0
100
AcDbLine
 10
632.4317079488553
 20
-2227.461668560136
 30
0.0
 11
634.498317098938
 21
-2225.395059410053
 31
0.0
  0
LINE
  5
B6
330
74
100
AcDbEntity
  8
0
 62
     0
100
AcDbLine
 10
632.3477862169827
 20
-2227.192036901415
 30
0.0
 11
634.1217079049405
 21
-2225.418115213457
 31
0.0
  0
LINE
  5
B7
330
74
100
AcDbEntity
  8
0
 62
     0
100
AcDbLine
 10
632.2638644851101
 20
-2226.922405242695
 30
0.0
 11
633.7450987109431
 21
-2225.441171016862
 31
0.0
  0
LINE
  5
B8
330
74
100
AcDbEntity
  8
0
 62
     0
100
AcDbLine
 10
632.1799427532376
 20
-2226.652773583974
 30
0.0
 11
633.3684895169458
 21
-2225.464226820266
 31
0.0
  0
LINE
  5
B9
330
74
100
AcDbEntity
  8
0
 62
     0
100
AcDbLine
 10
632.0960210213651
 20
-2226.383141925253
 30
0.0
 11
632.9918803229483
 21
-2225.48728262367
 31
0.0
  0
LINE
  5
BA
330
74
100
AcDbEntity
  8
0
 62
     0
100
AcDbLine
 10
632.0120992894925
 20
-2226.113510266532
 30
0.0
 11
632.615271128951
 21
-2225.510338427074
 31
0.0
  0
LINE
  5
BB
330
74
100
AcDbEntity
  8
0
 62
     0
100
AcDbLine
 10
631.9281775576199
 20
-2225.843878607812
 30
0.0
 11
632.2386619349536
 21
-2225.533394230478
 31
0.0
  0
LINE
  5
BC
330
74
100
AcDbEntity
  8
0
 62
     0
100
AcDbLine
 10
633.9422991225615
 20
-2232.315038417109
 30
0.0
 11
636.099049661294
 21
-2230.158287878376
 31
0.0
  0
LINE
  5
BD
330
74
100
AcDbEntity
  8
0
 62
     0
100
AcDbLine
 10
634.026220854434
 20
-2232.58467007583
 30
0.0
 11
636.182247792392
 21
-2230.428643137871
 31
0.0
  0
LINE
  5
BE
330
74
100
AcDbEntity
  8
0
 62
     0
100
AcDbLine
 10
634.1101425863066
 20
-2232.85430173455
 30
0.0
 11
636.2654459234899
 21
-2230.698998397366
 31
0.0
  0
LINE
  5
BF
330
74
100
AcDbEntity
  8
0
 62
     0
100
AcDbLine
 10
634.1940643181792
 20
-2233.123933393271
 30
0.0
 11
636.348644054588
 21
-2230.969353656861
 31
0.0
  0
LINE
  5
C0
330
74
100
AcDbEntity
  8
0
 62
     0
100
AcDbLine
 10
634.2779860500518
 20
-2233.393565051992
 30
0.0
 11
636.431842185686
 21
-2231.239708916357
 31
0.0
  0
LINE
  5
C1
330
74
100
AcDbEntity
  8
0
 62
     0
100
AcDbLine
 10
634.3619077819243
 20
-2233.663196710713
 30
0.0
 11
636.5150403167839
 21
-2231.510064175852
 31
0.0
  0
LINE
  5
C2
330
74
100
AcDbEntity
  8
0
 62
     0
100
AcDbLine
 10
634.4458295137969
 20
-2233.932828369432
 30
0.0
 11
636.5982384478819
 21
-2231.780419435347
 31
0.0
  0
LINE
  5
C3
330
74
100
AcDbEntity
  8
0
 62
     0
100
AcDbLine
 10
634.5297512456696
 20
-2234.202460028154
 30
0.0
 11
636.6814365789799
 21
-2232.050774694843
 31
0.0
  0
LINE
  5
C4
330
74
100
AcDbEntity
  8
0
 62
     0
100
AcDbLine
 10
634.613672977542
 20
-2234.472091686874
 30
0.0
 11
636.7646347100779
 21
-2232.321129954338
 31
0.0
  0
LINE
  5
C5
330
74
100
AcDbEntity
  8
0
 62
     0
100
AcDbLine
 10
634.6975947094145
 20
-2234.741723345595
 30
0.0
 11
636.847832841176
 21
-2232.591485213834
 31
0.0
  0
LINE
  5
C6
330
74
100
AcDbEntity
  8
0
 62
     0
100
AcDbLine
 10
634.7815164412871
 20
-2235.011355004316
 30
0.0
 11
636.931030972274
 21
-2232.861840473328
 31
0.0
  0
LINE
  5
C7
330
74
100
AcDbEntity
  8
0
 62
     0
100
AcDbLine
 10
634.8654381731598
 20
-2235.280986663036
 30
0.0
 11
637.014229103372
 21
-2233.132195732824
 31
0.0
  0
LINE
  5
C8
330
74
100
AcDbEntity
  8
0
 62
     0
100
AcDbLine
 10
634.9493599050323
 20
-2235.550618321757
 30
0.0
 11
637.09742723447
 21
-2233.402550992319
 31
0.0
  0
LINE
  5
C9
330
74
100
AcDbEntity
  8
0
 62
     0
100
AcDbLine
 10
635.0332816369049
 20
-2235.820249980478
 30
0.0
 11
637.180625365568
 21
-2233.672906251814
 31
0.0
  0
LINE
  5
CA
330
74
100
AcDbEntity
  8
0
 62
     0
100
AcDbLine
 10
635.1172033687775
 20
-2236.089881639199
 30
0.0
 11
637.263823496666
 21
-2233.94326151131
 31
0.0
  0
LINE
  5
CB
330
74
100
AcDbEntity
  8
0
 62
     0
100
AcDbLine
 10
635.20112510065
 20
-2236.359513297919
 30
0.0
 11
637.3470216277641
 21
-2234.213616770805
 31
0.0
  0
LINE
  5
CC
330
74
100
AcDbEntity
  8
0
 62
     0
100
AcDbLine
 10
635.2850468325226
 20
-2236.62914495664
 30
0.0
 11
637.4302197588621
 21
-2234.4839720303
 31
0.0
  0
LINE
  5
CD
330
74
100
AcDbEntity
  8
0
 62
     0
100
AcDbLine
 10
635.3689685643951
 20
-2236.89877661536
 30
0.0
 11
637.51341788996
 21
-2234.754327289795
 31
0.0
  0
LINE
  5
CE
330
74
100
AcDbEntity
  8
0
 62
     0
100
AcDbLine
 10
635.6363763725251
 20
-2236.984922197824
 30
0.0
 11
637.5966160210581
 21
-2235.02468254929
 31
0.0
  0
LINE
  5
CF
330
74
100
AcDbEntity
  8
0
 62
     0
100
AcDbLine
 10
636.1781687847947
 20
-2236.796683176148
 30
0.0
 11
637.6798141521561
 21
-2235.295037808786
 31
0.0
  0
LINE
  5
D0
330
74
100
AcDbEntity
  8
0
 62
     0
100
AcDbLine
 10
636.7199611970642
 20
-2236.608444154472
 30
0.0
 11
637.7630122832542
 21
-2235.565393068281
 31
0.0
  0
LINE
  5
D1
330
74
100
AcDbEntity
  8
0
 62
     0
100
AcDbLine
 10
637.2617536093336
 20
-2236.420205132795
 30
0.0
 11
637.8462104143522
 21
-2235.835748327776
 31
0.0
  0
LINE
  5
D2
330
74
100
AcDbEntity
  8
0
 62
     0
100
AcDbLine
 10
637.8035460216032
 20
-2236.23196611112
 30
0.0
 11
637.9294085454501
 21
-2236.106103587272
 31
0.0
  0
ENDBLK
  5
D3
330
74
100
AcDbEntity
  8
0
100
AcDbBlockEnd
  0
BLOCK
  5
D4
330
75
100
AcDbEntity
  8
0
100
AcDbBlockBegin
  2
*X2
 70
     1
 10
0.0
 20
0.0
 30
0.0
  3
*X2
  1

  0
LINE
  5
D5
330
75
100
AcDbEntity
  8
0
 62
     0
100
AcDbLine
 10
579.375
 20
-2273.75
 30
0.0
 11
579.375
 21
-2273.75
 31
0.0
  0
LINE
  5
D6
330
75
100
AcDbEntity
  8
0
 62
     0
100
AcDbLine
 10
580.625
 20
-2273.75
 30
0.0
 11
580.625
 21
-2273.75
 31
0.0
  0
LINE
  5
D7
330
75
100
AcDbEntity
  8
0
 62
     0
100
AcDbLine
 10
619.9999999999999
 20
-2255.0
 30
0.0
 11
619.9999999999999
 21
-2255.0
 31
0.0
  0
LINE
  5
D8
330
75
100
AcDbEntity
  8
0
 62
     0
100
AcDbLine
 10
616.8749999999999
 20
-2253.75
 30
0.0
 11
616.8749999999999
 21
-2253.75
 31
0.0
  0
LINE
  5
D9
330
75
100
AcDbEntity
  8
0
 62
     0
100
AcDbLine
 10
618.1249999999998
 20
-2253.75
 30
0.0
 11
618.1249999999998
 21
-2253.75
 31
0.0
  0
LINE
  5
DA
330
75
100
AcDbEntity
  8
0
 62
     0
100
AcDbLine
 10
619.3749999999998
 20
-2253.75
 30
0.0
 11
619.3749999999998
 21
-2253.75
 31
0.0
  0
LINE
  5
DB
330
75
100
AcDbEntity
  8
0
 62
     0
100
AcDbLine
 10
620.6249999999998
 20
-2253.75
 30
0.0
 11
620.6249999999998
 21
-2253.75
 31
0.0
  0
LINE
  5
DC
330
75
100
AcDbEntity
  8
0
 62
     0
100
AcDbLine
 10
613.7500000000001
 20
-2252.5
 30
0.0
 11
613.7500000000001
 21
-2252.5
 31
0.0
  0
LINE
  5
DD
330
75
100
AcDbEntity
  8
0
 62
     0
100
AcDbLine
 10
615.0000000000001
 20
-2252.5
 30
0.0
 11
615.0000000000001
 21
-2252.5
 31
0.0
  0
LINE
  5
DE
330
75
100
AcDbEntity
  8
0
 62
     0
100
AcDbLine
 10
616.2500000000001
 20
-2252.5
 30
0.0
 11
616.2500000000001
 21
-2252.5
 31
0.0
  0
LINE
  5
DF
330
75
100
AcDbEntity
  8
0
 62
     0
100
AcDbLine
 10
617.5000000000001
 20
-2252.5
 30
0.0
 11
617.5000000000001
 21
-2252.5
 31
0.0
  0
LINE
  5
E0
330
75
100
AcDbEntity
  8
0
 62
     0
100
AcDbLine
 10
618.75
 20
-2252.5
 30
0.0
 11
618.75
 21
-2252.5
 31
0.0
  0
LINE
  5
E1
330
75
100
AcDbEntity
  8
0
 62
     0
100
AcDbLine
 10
620.0000000000001
 20
-2252.5
 30
0.0
 11
620.0000000000001
 21
-2252.5
 31
0.0
  0
LINE
  5
E2
330
75
100
AcDbEntity
  8
0
 62
     0
100
AcDbLine
 10
621.2500000000001
 20
-2252.5
 30
0.0
 11
621.2500000000001
 21
-2252.5
 31
0.0
  0
LINE
  5
E3
330
75
100
AcDbEntity
  8
0
 62
     0
100
AcDbLine
 10
611.8750000000001
 20
-2251.25
 30
0.0
 11
611.8750000000001
 21
-2251.25
 31
0.0
  0
LINE
  5
E4
330
75
100
AcDbEntity
  8
0
 62
     0
100
AcDbLine
 10
613.1250000000001
 20
-2251.25
 30
0.0
 11
613.1250000000001
 21
-2251.25
 31
0.0
  0
LINE
  5
E5
330
75
100
AcDbEntity
  8
0
 62
     0
100
AcDbLine
 10
614.3750000000001
 20
-2251.25
 30
0.0
 11
614.3750000000001
 21
-2251.25
 31
0.0
  0
LINE
  5
E6
330
75
100
AcDbEntity
  8
0
 62
     0
100
AcDbLine
 10
615.625
 20
-2251.25
 30
0.0
 11
615.625
 21
-2251.25
 31
0.0
  0
LINE
  5
E7
330
75
100
AcDbEntity
  8
0
 62
     0
100
AcDbLine
 10
616.8750000000001
 20
-2251.25
 30
0.0
 11
616.8750000000001
 21
-2251.25
 31
0.0
  0
LINE
  5
E8
330
75
100
AcDbEntity
  8
0
 62
     0
100
AcDbLine
 10
618.1250000000001
 20
-2251.25
 30
0.0
 11
618.1250000000001
 21
-2251.25
 31
0.0
  0
LINE
  5
E9
330
75
100
AcDbEntity
  8
0
 62
     0
100
AcDbLine
 10
619.3750000000001
 20
-2251.25
 30
0.0
 11
619.3750000000001
 21
-2251.25
 31
0.0
  0
LINE
  5
EA
330
75
100
AcDbEntity
  8
0
 62
     0
100
AcDbLine
 10
620.6250000000001
 20
-2251.25
 30
0.0
 11
620.6250000000001
 21
-2251.25
 31
0.0
  0
LINE
  5
EB
330
75
100
AcDbEntity
  8
0
 62
     0
100
AcDbLine
 10
621.875
 20
-2251.25
 30
0.0
 11
621.875
 21
-2251.25
 31
0.0
  0
LINE
  5
EC
330
75
100
AcDbEntity
  8
0
 62
     0
100
AcDbLine
 10
611.2500000000001
 20
-2250.0
 30
0.0
 11
611.2500000000001
 21
-2250.0
 31
0.0
  0
LINE
  5
ED
330
75
100
AcDbEntity
  8
0
 62
     0
100
AcDbLine
 10
612.5
 20
-2250.0
 30
0.0
 11
612.5
 21
-2250.0
 31
0.0
  0
LINE
  5
EE
330
75
100
AcDbEntity
  8
0
 62
     0
100
AcDbLine
 10
613.7500000000001
 20
-2250.0
 30
0.0
 11
613.7500000000001
 21
-2250.0
 31
0.0
  0
LINE
  5
EF
330
75
100
AcDbEntity
  8
0
 62
     0
100
AcDbLine
 10
615.0000000000001
 20
-2250.0
 30
0.0
 11
615.0000000000001
 21
-2250.0
 31
0.0
  0
LINE
  5
F0
330
75
100
AcDbEntity
  8
0
 62
     0
100
AcDbLine
 10
616.2500000000001
 20
-2250.0
 30
0.0
 11
616.2500000000001
 21
-2250.0
 31
0.0
  0
LINE
  5
F1
330
75
100
AcDbEntity
  8
0
 62
     0
100
AcDbLine
 10
617.5000000000001
 20
-2250.0
 30
0.0
 11
617.5000000000001
 21
-2250.0
 31
0.0
  0
LINE
  5
F2
330
75
100
AcDbEntity
  8
0
 62
     0
100
AcDbLine
 10
618.75
 20
-2250.0
 30
0.0
 11
618.75
 21
-2250.0
 31
0.0
  0
LINE
  5
F3
330
75
100
AcDbEntity
  8
0
 62
     0
100
AcDbLine
 10
620.0000000000001
 20
-2250.0
 30
0.0
 11
620.0000000000001
 21
-2250.0
 31
0.0
  0
LINE
  5
F4
330
75
100
AcDbEntity
  8
0
 62
     0
100
AcDbLine
 10
621.2500000000001
 20
-2250.0
 30
0.0
 11
621.2500000000001
 21
-2250.0
 31
0.0
  0
LINE
  5
F5
330
75
100
AcDbEntity
  8
0
 62
     0
100
AcDbLine
 10
622.5000000000001
 20
-2250.0
 30
0.0
 11
622.5000000000001
 21
-2250.0
 31
0.0
  0
LINE
  5
F6
330
75
100
AcDbEntity
  8
0
 62
     0
100
AcDbLine
 10
625.0
 20
-2250.0
 30
0.0
 11
625.0
 21
-2250.0
 31
0.0
  0
LINE
  5
F7
330
75
100
AcDbEntity
  8
0
 62
     0
100
AcDbLine
 10
626.25
 20
-2250.0
 30
0.0
 11
626.25
 21
-2250.0
 31
0.0
  0
LINE
  5
F8
330
75
100
AcDbEntity
  8
0
 62
     0
100
AcDbLine
 10
627.5
 20
-2250.0
 30
0.0
 11
627.5
 21
-2250.0
 31
0.0
  0
LINE
  5
F9
330
75
100
AcDbEntity
  8
0
 62
     0
100
AcDbLine
 10
611.8749999999998
 20
-2248.75
 30
0.0
 11
611.8749999999998
 21
-2248.75
 31
0.0
  0
LINE
  5
FA
330
75
100
AcDbEntity
  8
0
 62
     0
100
AcDbLine
 10
613.1249999999998
 20
-2248.75
 30
0.0
 11
613.1249999999998
 21
-2248.75
 31
0.0
  0
LINE
  5
FB
330
75
100
AcDbEntity
  8
0
 62
     0
100
AcDbLine
 10
614.3749999999998
 20
-2248.75
 30
0.0
 11
614.3749999999998
 21
-2248.75
 31
0.0
  0
LINE
  5
FC
330
75
100
AcDbEntity
  8
0
 62
     0
100
AcDbLine
 10
615.6249999999999
 20
-2248.75
 30
0.0
 11
615.6249999999999
 21
-2248.75
 31
0.0
  0
LINE
  5
FD
330
75
100
AcDbEntity
  8
0
 62
     0
100
AcDbLine
 10
616.8749999999999
 20
-2248.75
 30
0.0
 11
616.8749999999999
 21
-2248.75
 31
0.0
  0
LINE
  5
FE
330
75
100
AcDbEntity
  8
0
 62
     0
100
AcDbLine
 10
618.1249999999998
 20
-2248.75
 30
0.0
 11
618.1249999999998
 21
-2248.75
 31
0.0
  0
LINE
  5
FF
330
75
100
AcDbEntity
  8
0
 62
     0
100
AcDbLine
 10
619.3749999999998
 20
-2248.75
 30
0.0
 11
619.3749999999998
 21
-2248.75
 31
0.0
  0
LINE
  5
100
330
75
100
AcDbEntity
  8
0
 62
     0
100
AcDbLine
 10
620.6249999999998
 20
-2248.75
 30
0.0
 11
620.6249999999998
 21
-2248.75
 31
0.0
  0
LINE
  5
101
330
75
100
AcDbEntity
  8
0
 62
     0
100
AcDbLine
 10
621.8749999999999
 20
-2248.75
 30
0.0
 11
621.8749999999999
 21
-2248.75
 31
0.0
  0
LINE
  5
102
330
75
100
AcDbEntity
  8
0
 62
     0
100
AcDbLine
 10
623.125
 20
-2248.75
 30
0.0
 11
623.125
 21
-2248.75
 31
0.0
  0
LINE
  5
103
330
75
100
AcDbEntity
  8
0
 62
     0
100
AcDbLine
 10
624.375
 20
-2248.75
 30
0.0
 11
624.375
 21
-2248.75
 31
0.0
  0
LINE
  5
104
330
75
100
AcDbEntity
  8
0
 62
     0
100
AcDbLine
 10
625.625
 20
-2248.75
 30
0.0
 11
625.625
 21
-2248.75
 31
0.0
  0
LINE
  5
105
330
75
100
AcDbEntity
  8
0
 62
     0
100
AcDbLine
 10
626.8749999999999
 20
-2248.75
 30
0.0
 11
626.8749999999999
 21
-2248.75
 31
0.0
  0
LINE
  5
106
330
75
100
AcDbEntity
  8
0
 62
     0
100
AcDbLine
 10
628.125
 20
-2248.75
 30
0.0
 11
628.125
 21
-2248.75
 31
0.0
  0
LINE
  5
107
330
75
100
AcDbEntity
  8
0
 62
     0
100
AcDbLine
 10
612.5
 20
-2247.5
 30
0.0
 11
612.5
 21
-2247.5
 31
0.0
  0
LINE
  5
108
330
75
100
AcDbEntity
  8
0
 62
     0
100
AcDbLine
 10
613.75
 20
-2247.5
 30
0.0
 11
613.75
 21
-2247.5
 31
0.0
  0
LINE
  5
109
330
75
100
AcDbEntity
  8
0
 62
     0
100
AcDbLine
 10
615.0
 20
-2247.5
 30
0.0
 11
615.0
 21
-2247.5
 31
0.0
  0
LINE
  5
10A
330
75
100
AcDbEntity
  8
0
 62
     0
100
AcDbLine
 10
616.25
 20
-2247.5
 30
0.0
 11
616.25
 21
-2247.5
 31
0.0
  0
LINE
  5
10B
330
75
100
AcDbEntity
  8
0
 62
     0
100
AcDbLine
 10
617.4999999999999
 20
-2247.5
 30
0.0
 11
617.4999999999999
 21
-2247.5
 31
0.0
  0
LINE
  5
10C
330
75
100
AcDbEntity
  8
0
 62
     0
100
AcDbLine
 10
618.75
 20
-2247.5
 30
0.0
 11
618.75
 21
-2247.5
 31
0.0
  0
LINE
  5
10D
330
75
100
AcDbEntity
  8
0
 62
     0
100
AcDbLine
 10
620.0
 20
-2247.5
 30
0.0
 11
620.0
 21
-2247.5
 31
0.0
  0
LINE
  5
10E
330
75
100
AcDbEntity
  8
0
 62
     0
100
AcDbLine
 10
621.25
 20
-2247.5
 30
0.0
 11
621.25
 21
-2247.5
 31
0.0
  0
LINE
  5
10F
330
75
100
AcDbEntity
  8
0
 62
     0
100
AcDbLine
 10
622.5
 20
-2247.5
 30
0.0
 11
622.5
 21
-2247.5
 31
0.0
  0
LINE
  5
110
330
75
100
AcDbEntity
  8
0
 62
     0
100
AcDbLine
 10
623.7500000000001
 20
-2247.5
 30
0.0
 11
623.7500000000001
 21
-2247.5
 31
0.0
  0
LINE
  5
111
330
75
100
AcDbEntity
  8
0
 62
     0
100
AcDbLine
 10
625.0
 20
-2247.5
 30
0.0
 11
625.0
 21
-2247.5
 31
0.0
  0
LINE
  5
112
330
75
100
AcDbEntity
  8
0
 62
     0
100
AcDbLine
 10
626.2500000000001
 20
-2247.5
 30
0.0
 11
626.2500000000001
 21
-2247.5
 31
0.0
  0
LINE
  5
113
330
75
100
AcDbEntity
  8
0
 62
     0
100
AcDbLine
 10
627.5000000000001
 20
-2247.5
 30
0.0
 11
627.5000000000001
 21
-2247.5
 31
0.0
  0
LINE
  5
114
330
75
100
AcDbEntity
  8
0
 62
     0
100
AcDbLine
 10
613.125
 20
-2246.25
 30
0.0
 11
613.125
 21
-2246.25
 31
0.0
  0
LINE
  5
115
330
75
100
AcDbEntity
  8
0
 62
     0
100
AcDbLine
 10
614.3749999999999
 20
-2246.25
 30
0.0
 11
614.3749999999999
 21
-2246.25
 31
0.0
  0
LINE
  5
116
330
75
100
AcDbEntity
  8
0
 62
     0
100
AcDbLine
 10
615.625
 20
-2246.25
 30
0.0
 11
615.625
 21
-2246.25
 31
0.0
  0
LINE
  5
117
330
75
100
AcDbEntity
  8
0
 62
     0
100
AcDbLine
 10
616.875
 20
-2246.25
 30
0.0
 11
616.875
 21
-2246.25
 31
0.0
  0
LINE
  5
118
330
75
100
AcDbEntity
  8
0
 62
     0
100
AcDbLine
 10
618.125
 20
-2246.25
 30
0.0
 11
618.125
 21
-2246.25
 31
0.0
  0
LINE
  5
119
330
75
100
AcDbEntity
  8
0
 62
     0
100
AcDbLine
 10
619.375
 20
-2246.25
 30
0.0
 11
619.375
 21
-2246.25
 31
0.0
  0
LINE
  5
11A
330
75
100
AcDbEntity
  8
0
 62
     0
100
AcDbLine
 10
620.6249999999999
 20
-2246.25
 30
0.0
 11
620.6249999999999
 21
-2246.25
 31
0.0
  0
LINE
  5
11B
330
75
100
AcDbEntity
  8
0
 62
     0
100
AcDbLine
 10
621.875
 20
-2246.25
 30
0.0
 11
621.875
 21
-2246.25
 31
0.0
  0
LINE
  5
11C
330
75
100
AcDbEntity
  8
0
 62
     0
100
AcDbLine
 10
623.125
 20
-2246.25
 30
0.0
 11
623.125
 21
-2246.25
 31
0.0
  0
LINE
  5
11D
330
75
100
AcDbEntity
  8
0
 62
     0
100
AcDbLine
 10
624.375
 20
-2246.25
 30
0.0
 11
624.375
 21
-2246.25
 31
0.0
  0
LINE
  5
11E
330
75
100
AcDbEntity
  8
0
 62
     0
100
AcDbLine
 10
625.625
 20
-2246.25
 30
0.0
 11
625.625
 21
-2246.25
 31
0.0
  0
LINE
  5
11F
330
75
100
AcDbEntity
  8
0
 62
     0
100
AcDbLine
 10
626.8749999999999
 20
-2246.25
 30
0.0
 11
626.8749999999999
 21
-2246.25
 31
0.0
  0
LINE
  5
120
330
75
100
AcDbEntity
  8
0
 62
     0
100
AcDbLine
 10
628.125
 20
-2246.25
 30
0.0
 11
628.125
 21
-2246.25
 31
0.0
  0
LINE
  5
121
330
75
100
AcDbEntity
  8
0
 62
     0
100
AcDbLine
 10
615.0000000000001
 20
-2245.0
 30
0.0
 11
615.0000000000001
 21
-2245.0
 31
0.0
  0
LINE
  5
122
330
75
100
AcDbEntity
  8
0
 62
     0
100
AcDbLine
 10
616.2500000000001
 20
-2245.0
 30
0.0
 11
616.2500000000001
 21
-2245.0
 31
0.0
  0
LINE
  5
123
330
75
100
AcDbEntity
  8
0
 62
     0
100
AcDbLine
 10
617.5000000000001
 20
-2245.0
 30
0.0
 11
617.5000000000001
 21
-2245.0
 31
0.0
  0
LINE
  5
124
330
75
100
AcDbEntity
  8
0
 62
     0
100
AcDbLine
 10
618.75
 20
-2245.0
 30
0.0
 11
618.75
 21
-2245.0
 31
0.0
  0
LINE
  5
125
330
75
100
AcDbEntity
  8
0
 62
     0
100
AcDbLine
 10
620.0000000000001
 20
-2245.0
 30
0.0
 11
620.0000000000001
 21
-2245.0
 31
0.0
  0
LINE
  5
126
330
75
100
AcDbEntity
  8
0
 62
     0
100
AcDbLine
 10
621.2500000000001
 20
-2245.0
 30
0.0
 11
621.2500000000001
 21
-2245.0
 31
0.0
  0
LINE
  5
127
330
75
100
AcDbEntity
  8
0
 62
     0
100
AcDbLine
 10
622.5000000000001
 20
-2245.0
 30
0.0
 11
622.5000000000001
 21
-2245.0
 31
0.0
  0
LINE
  5
128
330
75
100
AcDbEntity
  8
0
 62
     0
100
AcDbLine
 10
623.7500000000001
 20
-2245.0
 30
0.0
 11
623.7500000000001
 21
-2245.0
 31
0.0
  0
LINE
  5
129
330
75
100
AcDbEntity
  8
0
 62
     0
100
AcDbLine
 10
625.0
 20
-2245.0
 30
0.0
 11
625.0
 21
-2245.0
 31
0.0
  0
LINE
  5
12A
330
75
100
AcDbEntity
  8
0
 62
     0
100
AcDbLine
 10
626.2500000000001
 20
-2245.0
 30
0.0
 11
626.2500000000001
 21
-2245.0
 31
0.0
  0
LINE
  5
12B
330
75
100
AcDbEntity
  8
0
 62
     0
100
AcDbLine
 10
627.5000000000001
 20
-2245.0
 30
0.0
 11
627.5000000000001
 21
-2245.0
 31
0.0
  0
LINE
  5
12C
330
75
100
AcDbEntity
  8
0
 62
     0
100
AcDbLine
 10
559.375
 20
-2243.75
 30
0.0
 11
559.375
 21
-2243.75
 31
0.0
  0
LINE
  5
12D
330
75
100
AcDbEntity
  8
0
 62
     0
100
AcDbLine
 10
615.6249999999999
 20
-2243.75
 30
0.0
 11
615.6249999999999
 21
-2243.75
 31
0.0
  0
LINE
  5
12E
330
75
100
AcDbEntity
  8
0
 62
     0
100
AcDbLine
 10
616.8749999999999
 20
-2243.75
 30
0.0
 11
616.8749999999999
 21
-2243.75
 31
0.0
  0
LINE
  5
12F
330
75
100
AcDbEntity
  8
0
 62
     0
100
AcDbLine
 10
618.1249999999998
 20
-2243.75
 30
0.0
 11
618.1249999999998
 21
-2243.75
 31
0.0
  0
LINE
  5
130
330
75
100
AcDbEntity
  8
0
 62
     0
100
AcDbLine
 10
619.3749999999998
 20
-2243.75
 30
0.0
 11
619.3749999999998
 21
-2243.75
 31
0.0
  0
LINE
  5
131
330
75
100
AcDbEntity
  8
0
 62
     0
100
AcDbLine
 10
620.6249999999998
 20
-2243.75
 30
0.0
 11
620.6249999999998
 21
-2243.75
 31
0.0
  0
LINE
  5
132
330
75
100
AcDbEntity
  8
0
 62
     0
100
AcDbLine
 10
621.8749999999999
 20
-2243.75
 30
0.0
 11
621.8749999999999
 21
-2243.75
 31
0.0
  0
LINE
  5
133
330
75
100
AcDbEntity
  8
0
 62
     0
100
AcDbLine
 10
623.1249999999999
 20
-2243.75
 30
0.0
 11
623.1249999999999
 21
-2243.75
 31
0.0
  0
LINE
  5
134
330
75
100
AcDbEntity
  8
0
 62
     0
100
AcDbLine
 10
624.3749999999998
 20
-2243.75
 30
0.0
 11
624.3749999999998
 21
-2243.75
 31
0.0
  0
LINE
  5
135
330
75
100
AcDbEntity
  8
0
 62
     0
100
AcDbLine
 10
625.6249999999998
 20
-2243.75
 30
0.0
 11
625.6249999999998
 21
-2243.75
 31
0.0
  0
LINE
  5
136
330
75
100
AcDbEntity
  8
0
 62
     0
100
AcDbLine
 10
626.8749999999998
 20
-2243.75
 30
0.0
 11
626.8749999999998
 21
-2243.75
 31
0.0
  0
LINE
  5
137
330
75
100
AcDbEntity
  8
0
 62
     0
100
AcDbLine
 10
628.1249999999999
 20
-2243.75
 30
0.0
 11
628.1249999999999
 21
-2243.75
 31
0.0
  0
LINE
  5
138
330
75
100
AcDbEntity
  8
0
 62
     0
100
AcDbLine
 10
560.0000000000001
 20
-2242.5
 30
0.0
 11
560.0000000000001
 21
-2242.5
 31
0.0
  0
LINE
  5
139
330
75
100
AcDbEntity
  8
0
 62
     0
100
AcDbLine
 10
561.2500000000001
 20
-2242.5
 30
0.0
 11
561.2500000000001
 21
-2242.5
 31
0.0
  0
LINE
  5
13A
330
75
100
AcDbEntity
  8
0
 62
     0
100
AcDbLine
 10
562.5
 20
-2242.5
 30
0.0
 11
562.5
 21
-2242.5
 31
0.0
  0
LINE
  5
13B
330
75
100
AcDbEntity
  8
0
 62
     0
100
AcDbLine
 10
563.7500000000001
 20
-2242.5
 30
0.0
 11
563.7500000000001
 21
-2242.5
 31
0.0
  0
LINE
  5
13C
330
75
100
AcDbEntity
  8
0
 62
     0
100
AcDbLine
 10
565.0000000000001
 20
-2242.5
 30
0.0
 11
565.0000000000001
 21
-2242.5
 31
0.0
  0
LINE
  5
13D
330
75
100
AcDbEntity
  8
0
 62
     0
100
AcDbLine
 10
615.0000000000001
 20
-2242.5
 30
0.0
 11
615.0000000000001
 21
-2242.5
 31
0.0
  0
LINE
  5
13E
330
75
100
AcDbEntity
  8
0
 62
     0
100
AcDbLine
 10
616.2500000000001
 20
-2242.5
 30
0.0
 11
616.2500000000001
 21
-2242.5
 31
0.0
  0
LINE
  5
13F
330
75
100
AcDbEntity
  8
0
 62
     0
100
AcDbLine
 10
617.5000000000001
 20
-2242.5
 30
0.0
 11
617.5000000000001
 21
-2242.5
 31
0.0
  0
LINE
  5
140
330
75
100
AcDbEntity
  8
0
 62
     0
100
AcDbLine
 10
618.75
 20
-2242.5
 30
0.0
 11
618.75
 21
-2242.5
 31
0.0
  0
LINE
  5
141
330
75
100
AcDbEntity
  8
0
 62
     0
100
AcDbLine
 10
620.0000000000001
 20
-2242.5
 30
0.0
 11
620.0000000000001
 21
-2242.5
 31
0.0
  0
LINE
  5
142
330
75
100
AcDbEntity
  8
0
 62
     0
100
AcDbLine
 10
621.2500000000001
 20
-2242.5
 30
0.0
 11
621.2500000000001
 21
-2242.5
 31
0.0
  0
LINE
  5
143
330
75
100
AcDbEntity
  8
0
 62
     0
100
AcDbLine
 10
622.5000000000001
 20
-2242.5
 30
0.0
 11
622.5000000000001
 21
-2242.5
 31
0.0
  0
LINE
  5
144
330
75
100
AcDbEntity
  8
0
 62
     0
100
AcDbLine
 10
623.7500000000001
 20
-2242.5
 30
0.0
 11
623.7500000000001
 21
-2242.5
 31
0.0
  0
LINE
  5
145
330
75
100
AcDbEntity
  8
0
 62
     0
100
AcDbLine
 10
625.0
 20
-2242.5
 30
0.0
 11
625.0
 21
-2242.5
 31
0.0
  0
LINE
  5
146
330
75
100
AcDbEntity
  8
0
 62
     0
100
AcDbLine
 10
626.2500000000001
 20
-2242.5
 30
0.0
 11
626.2500000000001
 21
-2242.5
 31
0.0
  0
LINE
  5
147
330
75
100
AcDbEntity
  8
0
 62
     0
100
AcDbLine
 10
627.5000000000001
 20
-2242.5
 30
0.0
 11
627.5000000000001
 21
-2242.5
 31
0.0
  0
LINE
  5
148
330
75
100
AcDbEntity
  8
0
 62
     0
100
AcDbLine
 10
628.7500000000001
 20
-2242.5
 30
0.0
 11
628.7500000000001
 21
-2242.5
 31
0.0
  0
LINE
  5
149
330
75
100
AcDbEntity
  8
0
 62
     0
100
AcDbLine
 10
560.625
 20
-2241.25
 30
0.0
 11
560.625
 21
-2241.25
 31
0.0
  0
LINE
  5
14A
330
75
100
AcDbEntity
  8
0
 62
     0
100
AcDbLine
 10
561.875
 20
-2241.25
 30
0.0
 11
561.875
 21
-2241.25
 31
0.0
  0
LINE
  5
14B
330
75
100
AcDbEntity
  8
0
 62
     0
100
AcDbLine
 10
563.125
 20
-2241.25
 30
0.0
 11
563.125
 21
-2241.25
 31
0.0
  0
LINE
  5
14C
330
75
100
AcDbEntity
  8
0
 62
     0
100
AcDbLine
 10
564.3749999999999
 20
-2241.25
 30
0.0
 11
564.3749999999999
 21
-2241.25
 31
0.0
  0
LINE
  5
14D
330
75
100
AcDbEntity
  8
0
 62
     0
100
AcDbLine
 10
565.625
 20
-2241.25
 30
0.0
 11
565.625
 21
-2241.25
 31
0.0
  0
LINE
  5
14E
330
75
100
AcDbEntity
  8
0
 62
     0
100
AcDbLine
 10
566.875
 20
-2241.25
 30
0.0
 11
566.875
 21
-2241.25
 31
0.0
  0
LINE
  5
14F
330
75
100
AcDbEntity
  8
0
 62
     0
100
AcDbLine
 10
615.6249999999999
 20
-2241.25
 30
0.0
 11
615.6249999999999
 21
-2241.25
 31
0.0
  0
LINE
  5
150
330
75
100
AcDbEntity
  8
0
 62
     0
100
AcDbLine
 10
616.8749999999999
 20
-2241.25
 30
0.0
 11
616.8749999999999
 21
-2241.25
 31
0.0
  0
LINE
  5
151
330
75
100
AcDbEntity
  8
0
 62
     0
100
AcDbLine
 10
618.1249999999998
 20
-2241.25
 30
0.0
 11
618.1249999999998
 21
-2241.25
 31
0.0
  0
LINE
  5
152
330
75
100
AcDbEntity
  8
0
 62
     0
100
AcDbLine
 10
619.3749999999998
 20
-2241.25
 30
0.0
 11
619.3749999999998
 21
-2241.25
 31
0.0
  0
LINE
  5
153
330
75
100
AcDbEntity
  8
0
 62
     0
100
AcDbLine
 10
620.6249999999998
 20
-2241.25
 30
0.0
 11
620.6249999999998
 21
-2241.25
 31
0.0
  0
LINE
  5
154
330
75
100
AcDbEntity
  8
0
 62
     0
100
AcDbLine
 10
621.8749999999999
 20
-2241.25
 30
0.0
 11
621.8749999999999
 21
-2241.25
 31
0.0
  0
LINE
  5
155
330
75
100
AcDbEntity
  8
0
 62
     0
100
AcDbLine
 10
623.1249999999999
 20
-2241.25
 30
0.0
 11
623.1249999999999
 21
-2241.25
 31
0.0
  0
LINE
  5
156
330
75
100
AcDbEntity
  8
0
 62
     0
100
AcDbLine
 10
624.3749999999998
 20
-2241.25
 30
0.0
 11
624.3749999999998
 21
-2241.25
 31
0.0
  0
LINE
  5
157
330
75
100
AcDbEntity
  8
0
 62
     0
100
AcDbLine
 10
625.6249999999998
 20
-2241.25
 30
0.0
 11
625.6249999999998
 21
-2241.25
 31
0.0
  0
LINE
  5
158
330
75
100
AcDbEntity
  8
0
 62
     0
100
AcDbLine
 10
626.8749999999998
 20
-2241.25
 30
0.0
 11
626.8749999999998
 21
-2241.25
 31
0.0
  0
LINE
  5
159
330
75
100
AcDbEntity
  8
0
 62
     0
100
AcDbLine
 10
628.1249999999999
 20
-2241.25
 30
0.0
 11
628.1249999999999
 21
-2241.25
 31
0.0
  0
LINE
  5
15A
330
75
100
AcDbEntity
  8
0
 62
     0
100
AcDbLine
 10
629.3749999999999
 20
-2241.25
 30
0.0
 11
629.3749999999999
 21
-2241.25
 31
0.0
  0
LINE
  5
15B
330
75
100
AcDbEntity
  8
0
 62
     0
100
AcDbLine
 10
559.9999999999998
 20
-2240.0
 30
0.0
 11
559.9999999999998
 21
-2240.0
 31
0.0
  0
LINE
  5
15C
330
75
100
AcDbEntity
  8
0
 62
     0
100
AcDbLine
 10
561.2499999999998
 20
-2240.0
 30
0.0
 11
561.2499999999998
 21
-2240.0
 31
0.0
  0
LINE
  5
15D
330
75
100
AcDbEntity
  8
0
 62
     0
100
AcDbLine
 10
562.4999999999999
 20
-2240.0
 30
0.0
 11
562.4999999999999
 21
-2240.0
 31
0.0
  0
LINE
  5
15E
330
75
100
AcDbEntity
  8
0
 62
     0
100
AcDbLine
 10
563.7499999999999
 20
-2240.0
 30
0.0
 11
563.7499999999999
 21
-2240.0
 31
0.0
  0
LINE
  5
15F
330
75
100
AcDbEntity
  8
0
 62
     0
100
AcDbLine
 10
564.9999999999998
 20
-2240.0
 30
0.0
 11
564.9999999999998
 21
-2240.0
 31
0.0
  0
LINE
  5
160
330
75
100
AcDbEntity
  8
0
 62
     0
100
AcDbLine
 10
566.2499999999998
 20
-2240.0
 30
0.0
 11
566.2499999999998
 21
-2240.0
 31
0.0
  0
LINE
  5
161
330
75
100
AcDbEntity
  8
0
 62
     0
100
AcDbLine
 10
567.4999999999998
 20
-2240.0
 30
0.0
 11
567.4999999999998
 21
-2240.0
 31
0.0
  0
LINE
  5
162
330
75
100
AcDbEntity
  8
0
 62
     0
100
AcDbLine
 10
568.7499999999999
 20
-2240.0
 30
0.0
 11
568.7499999999999
 21
-2240.0
 31
0.0
  0
LINE
  5
163
330
75
100
AcDbEntity
  8
0
 62
     0
100
AcDbLine
 10
615.0000000000001
 20
-2240.0
 30
0.0
 11
615.0000000000001
 21
-2240.0
 31
0.0
  0
LINE
  5
164
330
75
100
AcDbEntity
  8
0
 62
     0
100
AcDbLine
 10
616.2500000000001
 20
-2240.0
 30
0.0
 11
616.2500000000001
 21
-2240.0
 31
0.0
  0
LINE
  5
165
330
75
100
AcDbEntity
  8
0
 62
     0
100
AcDbLine
 10
617.5000000000001
 20
-2240.0
 30
0.0
 11
617.5000000000001
 21
-2240.0
 31
0.0
  0
LINE
  5
166
330
75
100
AcDbEntity
  8
0
 62
     0
100
AcDbLine
 10
618.75
 20
-2240.0
 30
0.0
 11
618.75
 21
-2240.0
 31
0.0
  0
LINE
  5
167
330
75
100
AcDbEntity
  8
0
 62
     0
100
AcDbLine
 10
620.0000000000001
 20
-2240.0
 30
0.0
 11
620.0000000000001
 21
-2240.0
 31
0.0
  0
LINE
  5
168
330
75
100
AcDbEntity
  8
0
 62
     0
100
AcDbLine
 10
621.2500000000001
 20
-2240.0
 30
0.0
 11
621.2500000000001
 21
-2240.0
 31
0.0
  0
LINE
  5
169
330
75
100
AcDbEntity
  8
0
 62
     0
100
AcDbLine
 10
622.5000000000001
 20
-2240.0
 30
0.0
 11
622.5000000000001
 21
-2240.0
 31
0.0
  0
LINE
  5
16A
330
75
100
AcDbEntity
  8
0
 62
     0
100
AcDbLine
 10
623.7500000000001
 20
-2240.0
 30
0.0
 11
623.7500000000001
 21
-2240.0
 31
0.0
  0
LINE
  5
16B
330
75
100
AcDbEntity
  8
0
 62
     0
100
AcDbLine
 10
625.0
 20
-2240.0
 30
0.0
 11
625.0
 21
-2240.0
 31
0.0
  0
LINE
  5
16C
330
75
100
AcDbEntity
  8
0
 62
     0
100
AcDbLine
 10
626.2500000000001
 20
-2240.0
 30
0.0
 11
626.2500000000001
 21
-2240.0
 31
0.0
  0
LINE
  5
16D
330
75
100
AcDbEntity
  8
0
 62
     0
100
AcDbLine
 10
627.5000000000001
 20
-2240.0
 30
0.0
 11
627.5000000000001
 21
-2240.0
 31
0.0
  0
LINE
  5
16E
330
75
100
AcDbEntity
  8
0
 62
     0
100
AcDbLine
 10
628.7500000000001
 20
-2240.0
 30
0.0
 11
628.7500000000001
 21
-2240.0
 31
0.0
  0
LINE
  5
16F
330
75
100
AcDbEntity
  8
0
 62
     0
100
AcDbLine
 10
630.0000000000001
 20
-2240.0
 30
0.0
 11
630.0000000000001
 21
-2240.0
 31
0.0
  0
LINE
  5
170
330
75
100
AcDbEntity
  8
0
 62
     0
100
AcDbLine
 10
560.6249999999999
 20
-2238.75
 30
0.0
 11
560.6249999999999
 21
-2238.75
 31
0.0
  0
LINE
  5
171
330
75
100
AcDbEntity
  8
0
 62
     0
100
AcDbLine
 10
561.8749999999998
 20
-2238.75
 30
0.0
 11
561.8749999999998
 21
-2238.75
 31
0.0
  0
LINE
  5
172
330
75
100
AcDbEntity
  8
0
 62
     0
100
AcDbLine
 10
563.1249999999998
 20
-2238.75
 30
0.0
 11
563.1249999999998
 21
-2238.75
 31
0.0
  0
LINE
  5
173
330
75
100
AcDbEntity
  8
0
 62
     0
100
AcDbLine
 10
564.3749999999998
 20
-2238.75
 30
0.0
 11
564.3749999999998
 21
-2238.75
 31
0.0
  0
LINE
  5
174
330
75
100
AcDbEntity
  8
0
 62
     0
100
AcDbLine
 10
565.6249999999999
 20
-2238.75
 30
0.0
 11
565.6249999999999
 21
-2238.75
 31
0.0
  0
LINE
  5
175
330
75
100
AcDbEntity
  8
0
 62
     0
100
AcDbLine
 10
566.8749999999999
 20
-2238.75
 30
0.0
 11
566.8749999999999
 21
-2238.75
 31
0.0
  0
LINE
  5
176
330
75
100
AcDbEntity
  8
0
 62
     0
100
AcDbLine
 10
568.1249999999998
 20
-2238.75
 30
0.0
 11
568.1249999999998
 21
-2238.75
 31
0.0
  0
LINE
  5
177
330
75
100
AcDbEntity
  8
0
 62
     0
100
AcDbLine
 10
569.3749999999998
 20
-2238.75
 30
0.0
 11
569.3749999999998
 21
-2238.75
 31
0.0
  0
LINE
  5
178
330
75
100
AcDbEntity
  8
0
 62
     0
100
AcDbLine
 10
629.375
 20
-2238.75
 30
0.0
 11
629.375
 21
-2238.75
 31
0.0
  0
LINE
  5
179
330
75
100
AcDbEntity
  8
0
 62
     0
100
AcDbLine
 10
630.625
 20
-2238.75
 30
0.0
 11
630.625
 21
-2238.75
 31
0.0
  0
LINE
  5
17A
330
75
100
AcDbEntity
  8
0
 62
     0
100
AcDbLine
 10
620.6249999999999
 20
-2238.75
 30
0.0
 11
620.6249999999999
 21
-2238.75
 31
0.0
  0
LINE
  5
17B
330
75
100
AcDbEntity
  8
0
 62
     0
100
AcDbLine
 10
621.875
 20
-2238.75
 30
0.0
 11
621.875
 21
-2238.75
 31
0.0
  0
LINE
  5
17C
330
75
100
AcDbEntity
  8
0
 62
     0
100
AcDbLine
 10
623.125
 20
-2238.75
 30
0.0
 11
623.125
 21
-2238.75
 31
0.0
  0
LINE
  5
17D
330
75
100
AcDbEntity
  8
0
 62
     0
100
AcDbLine
 10
624.375
 20
-2238.75
 30
0.0
 11
624.375
 21
-2238.75
 31
0.0
  0
LINE
  5
17E
330
75
100
AcDbEntity
  8
0
 62
     0
100
AcDbLine
 10
625.625
 20
-2238.75
 30
0.0
 11
625.625
 21
-2238.75
 31
0.0
  0
LINE
  5
17F
330
75
100
AcDbEntity
  8
0
 62
     0
100
AcDbLine
 10
626.8749999999999
 20
-2238.75
 30
0.0
 11
626.8749999999999
 21
-2238.75
 31
0.0
  0
LINE
  5
180
330
75
100
AcDbEntity
  8
0
 62
     0
100
AcDbLine
 10
628.125
 20
-2238.75
 30
0.0
 11
628.125
 21
-2238.75
 31
0.0
  0
LINE
  5
181
330
75
100
AcDbEntity
  8
0
 62
     0
100
AcDbLine
 10
560.0
 20
-2237.5
 30
0.0
 11
560.0
 21
-2237.5
 31
0.0
  0
LINE
  5
182
330
75
100
AcDbEntity
  8
0
 62
     0
100
AcDbLine
 10
561.2499999999999
 20
-2237.5
 30
0.0
 11
561.2499999999999
 21
-2237.5
 31
0.0
  0
LINE
  5
183
330
75
100
AcDbEntity
  8
0
 62
     0
100
AcDbLine
 10
562.5
 20
-2237.5
 30
0.0
 11
562.5
 21
-2237.5
 31
0.0
  0
LINE
  5
184
330
75
100
AcDbEntity
  8
0
 62
     0
100
AcDbLine
 10
563.75
 20
-2237.5
 30
0.0
 11
563.75
 21
-2237.5
 31
0.0
  0
LINE
  5
185
330
75
100
AcDbEntity
  8
0
 62
     0
100
AcDbLine
 10
565.0
 20
-2237.5
 30
0.0
 11
565.0
 21
-2237.5
 31
0.0
  0
LINE
  5
186
330
75
100
AcDbEntity
  8
0
 62
     0
100
AcDbLine
 10
566.25
 20
-2237.5
 30
0.0
 11
566.25
 21
-2237.5
 31
0.0
  0
LINE
  5
187
330
75
100
AcDbEntity
  8
0
 62
     0
100
AcDbLine
 10
567.4999999999999
 20
-2237.5
 30
0.0
 11
567.4999999999999
 21
-2237.5
 31
0.0
  0
LINE
  5
188
330
75
100
AcDbEntity
  8
0
 62
     0
100
AcDbLine
 10
568.75
 20
-2237.5
 30
0.0
 11
568.75
 21
-2237.5
 31
0.0
  0
LINE
  5
189
330
75
100
AcDbEntity
  8
0
 62
     0
100
AcDbLine
 10
570.0
 20
-2237.5
 30
0.0
 11
570.0
 21
-2237.5
 31
0.0
  0
LINE
  5
18A
330
75
100
AcDbEntity
  8
0
 62
     0
100
AcDbLine
 10
622.4999999999998
 20
-2237.5
 30
0.0
 11
622.4999999999998
 21
-2237.5
 31
0.0
  0
LINE
  5
18B
330
75
100
AcDbEntity
  8
0
 62
     0
100
AcDbLine
 10
623.7499999999998
 20
-2237.5
 30
0.0
 11
623.7499999999998
 21
-2237.5
 31
0.0
  0
LINE
  5
18C
330
75
100
AcDbEntity
  8
0
 62
     0
100
AcDbLine
 10
624.9999999999999
 20
-2237.5
 30
0.0
 11
624.9999999999999
 21
-2237.5
 31
0.0
  0
LINE
  5
18D
330
75
100
AcDbEntity
  8
0
 62
     0
100
AcDbLine
 10
560.6250000000001
 20
-2236.25
 30
0.0
 11
560.6250000000001
 21
-2236.25
 31
0.0
  0
LINE
  5
18E
330
75
100
AcDbEntity
  8
0
 62
     0
100
AcDbLine
 10
561.8750000000001
 20
-2236.25
 30
0.0
 11
561.8750000000001
 21
-2236.25
 31
0.0
  0
LINE
  5
18F
330
75
100
AcDbEntity
  8
0
 62
     0
100
AcDbLine
 10
563.1250000000001
 20
-2236.25
 30
0.0
 11
563.1250000000001
 21
-2236.25
 31
0.0
  0
LINE
  5
190
330
75
100
AcDbEntity
  8
0
 62
     0
100
AcDbLine
 10
564.3750000000001
 20
-2236.25
 30
0.0
 11
564.3750000000001
 21
-2236.25
 31
0.0
  0
LINE
  5
191
330
75
100
AcDbEntity
  8
0
 62
     0
100
AcDbLine
 10
565.625
 20
-2236.25
 30
0.0
 11
565.625
 21
-2236.25
 31
0.0
  0
LINE
  5
192
330
75
100
AcDbEntity
  8
0
 62
     0
100
AcDbLine
 10
566.8750000000001
 20
-2236.25
 30
0.0
 11
566.8750000000001
 21
-2236.25
 31
0.0
  0
LINE
  5
193
330
75
100
AcDbEntity
  8
0
 62
     0
100
AcDbLine
 10
568.1250000000001
 20
-2236.25
 30
0.0
 11
568.1250000000001
 21
-2236.25
 31
0.0
  0
LINE
  5
194
330
75
100
AcDbEntity
  8
0
 62
     0
100
AcDbLine
 10
569.3750000000001
 20
-2236.25
 30
0.0
 11
569.3750000000001
 21
-2236.25
 31
0.0
  0
LINE
  5
195
330
75
100
AcDbEntity
  8
0
 62
     0
100
AcDbLine
 10
570.6250000000001
 20
-2236.25
 30
0.0
 11
570.6250000000001
 21
-2236.25
 31
0.0
  0
LINE
  5
196
330
75
100
AcDbEntity
  8
0
 62
     0
100
AcDbLine
 10
551.25
 20
-2235.0
 30
0.0
 11
551.25
 21
-2235.0
 31
0.0
  0
LINE
  5
197
330
75
100
AcDbEntity
  8
0
 62
     0
100
AcDbLine
 10
552.5
 20
-2235.0
 30
0.0
 11
552.5
 21
-2235.0
 31
0.0
  0
LINE
  5
198
330
75
100
AcDbEntity
  8
0
 62
     0
100
AcDbLine
 10
553.75
 20
-2235.0
 30
0.0
 11
553.75
 21
-2235.0
 31
0.0
  0
LINE
  5
199
330
75
100
AcDbEntity
  8
0
 62
     0
100
AcDbLine
 10
561.2500000000001
 20
-2235.0
 30
0.0
 11
561.2500000000001
 21
-2235.0
 31
0.0
  0
LINE
  5
19A
330
75
100
AcDbEntity
  8
0
 62
     0
100
AcDbLine
 10
562.5
 20
-2235.0
 30
0.0
 11
562.5
 21
-2235.0
 31
0.0
  0
LINE
  5
19B
330
75
100
AcDbEntity
  8
0
 62
     0
100
AcDbLine
 10
563.7500000000001
 20
-2235.0
 30
0.0
 11
563.7500000000001
 21
-2235.0
 31
0.0
  0
LINE
  5
19C
330
75
100
AcDbEntity
  8
0
 62
     0
100
AcDbLine
 10
565.0000000000001
 20
-2235.0
 30
0.0
 11
565.0000000000001
 21
-2235.0
 31
0.0
  0
LINE
  5
19D
330
75
100
AcDbEntity
  8
0
 62
     0
100
AcDbLine
 10
566.2500000000001
 20
-2235.0
 30
0.0
 11
566.2500000000001
 21
-2235.0
 31
0.0
  0
LINE
  5
19E
330
75
100
AcDbEntity
  8
0
 62
     0
100
AcDbLine
 10
567.5000000000001
 20
-2235.0
 30
0.0
 11
567.5000000000001
 21
-2235.0
 31
0.0
  0
LINE
  5
19F
330
75
100
AcDbEntity
  8
0
 62
     0
100
AcDbLine
 10
568.75
 20
-2235.0
 30
0.0
 11
568.75
 21
-2235.0
 31
0.0
  0
LINE
  5
1A0
330
75
100
AcDbEntity
  8
0
 62
     0
100
AcDbLine
 10
570.0000000000001
 20
-2235.0
 30
0.0
 11
570.0000000000001
 21
-2235.0
 31
0.0
  0
LINE
  5
1A1
330
75
100
AcDbEntity
  8
0
 62
     0
100
AcDbLine
 10
549.3749999999998
 20
-2233.75
 30
0.0
 11
549.3749999999998
 21
-2233.75
 31
0.0
  0
LINE
  5
1A2
330
75
100
AcDbEntity
  8
0
 62
     0
100
AcDbLine
 10
550.6249999999998
 20
-2233.75
 30
0.0
 11
550.6249999999998
 21
-2233.75
 31
0.0
  0
LINE
  5
1A3
330
75
100
AcDbEntity
  8
0
 62
     0
100
AcDbLine
 10
551.8749999999998
 20
-2233.75
 30
0.0
 11
551.8749999999998
 21
-2233.75
 31
0.0
  0
LINE
  5
1A4
330
75
100
AcDbEntity
  8
0
 62
     0
100
AcDbLine
 10
553.1249999999999
 20
-2233.75
 30
0.0
 11
553.1249999999999
 21
-2233.75
 31
0.0
  0
LINE
  5
1A5
330
75
100
AcDbEntity
  8
0
 62
     0
100
AcDbLine
 10
554.3749999999999
 20
-2233.75
 30
0.0
 11
554.3749999999999
 21
-2233.75
 31
0.0
  0
LINE
  5
1A6
330
75
100
AcDbEntity
  8
0
 62
     0
100
AcDbLine
 10
561.875
 20
-2233.75
 30
0.0
 11
561.875
 21
-2233.75
 31
0.0
  0
LINE
  5
1A7
330
75
100
AcDbEntity
  8
0
 62
     0
100
AcDbLine
 10
563.125
 20
-2233.75
 30
0.0
 11
563.125
 21
-2233.75
 31
0.0
  0
LINE
  5
1A8
330
75
100
AcDbEntity
  8
0
 62
     0
100
AcDbLine
 10
564.3749999999999
 20
-2233.75
 30
0.0
 11
564.3749999999999
 21
-2233.75
 31
0.0
  0
LINE
  5
1A9
330
75
100
AcDbEntity
  8
0
 62
     0
100
AcDbLine
 10
565.625
 20
-2233.75
 30
0.0
 11
565.625
 21
-2233.75
 31
0.0
  0
LINE
  5
1AA
330
75
100
AcDbEntity
  8
0
 62
     0
100
AcDbLine
 10
566.875
 20
-2233.75
 30
0.0
 11
566.875
 21
-2233.75
 31
0.0
  0
LINE
  5
1AB
330
75
100
AcDbEntity
  8
0
 62
     0
100
AcDbLine
 10
568.125
 20
-2233.75
 30
0.0
 11
568.125
 21
-2233.75
 31
0.0
  0
LINE
  5
1AC
330
75
100
AcDbEntity
  8
0
 62
     0
100
AcDbLine
 10
569.375
 20
-2233.75
 30
0.0
 11
569.375
 21
-2233.75
 31
0.0
  0
LINE
  5
1AD
330
75
100
AcDbEntity
  8
0
 62
     0
100
AcDbLine
 10
570.6249999999999
 20
-2233.75
 30
0.0
 11
570.6249999999999
 21
-2233.75
 31
0.0
  0
LINE
  5
1AE
330
75
100
AcDbEntity
  8
0
 62
     0
100
AcDbLine
 10
548.7499999999998
 20
-2232.5
 30
0.0
 11
548.7499999999998
 21
-2232.5
 31
0.0
  0
LINE
  5
1AF
330
75
100
AcDbEntity
  8
0
 62
     0
100
AcDbLine
 10
549.9999999999999
 20
-2232.5
 30
0.0
 11
549.9999999999999
 21
-2232.5
 31
0.0
  0
LINE
  5
1B0
330
75
100
AcDbEntity
  8
0
 62
     0
100
AcDbLine
 10
551.2499999999999
 20
-2232.5
 30
0.0
 11
551.2499999999999
 21
-2232.5
 31
0.0
  0
LINE
  5
1B1
330
75
100
AcDbEntity
  8
0
 62
     0
100
AcDbLine
 10
552.4999999999998
 20
-2232.5
 30
0.0
 11
552.4999999999998
 21
-2232.5
 31
0.0
  0
LINE
  5
1B2
330
75
100
AcDbEntity
  8
0
 62
     0
100
AcDbLine
 10
553.7499999999998
 20
-2232.5
 30
0.0
 11
553.7499999999998
 21
-2232.5
 31
0.0
  0
LINE
  5
1B3
330
75
100
AcDbEntity
  8
0
 62
     0
100
AcDbLine
 10
554.9999999999998
 20
-2232.5
 30
0.0
 11
554.9999999999998
 21
-2232.5
 31
0.0
  0
LINE
  5
1B4
330
75
100
AcDbEntity
  8
0
 62
     0
100
AcDbLine
 10
561.2499999999998
 20
-2232.5
 30
0.0
 11
561.2499999999998
 21
-2232.5
 31
0.0
  0
LINE
  5
1B5
330
75
100
AcDbEntity
  8
0
 62
     0
100
AcDbLine
 10
562.4999999999999
 20
-2232.5
 30
0.0
 11
562.4999999999999
 21
-2232.5
 31
0.0
  0
LINE
  5
1B6
330
75
100
AcDbEntity
  8
0
 62
     0
100
AcDbLine
 10
563.7499999999999
 20
-2232.5
 30
0.0
 11
563.7499999999999
 21
-2232.5
 31
0.0
  0
LINE
  5
1B7
330
75
100
AcDbEntity
  8
0
 62
     0
100
AcDbLine
 10
564.9999999999998
 20
-2232.5
 30
0.0
 11
564.9999999999998
 21
-2232.5
 31
0.0
  0
LINE
  5
1B8
330
75
100
AcDbEntity
  8
0
 62
     0
100
AcDbLine
 10
566.2499999999998
 20
-2232.5
 30
0.0
 11
566.2499999999998
 21
-2232.5
 31
0.0
  0
LINE
  5
1B9
330
75
100
AcDbEntity
  8
0
 62
     0
100
AcDbLine
 10
567.4999999999998
 20
-2232.5
 30
0.0
 11
567.4999999999998
 21
-2232.5
 31
0.0
  0
LINE
  5
1BA
330
75
100
AcDbEntity
  8
0
 62
     0
100
AcDbLine
 10
568.7499999999999
 20
-2232.5
 30
0.0
 11
568.7499999999999
 21
-2232.5
 31
0.0
  0
LINE
  5
1BB
330
75
100
AcDbEntity
  8
0
 62
     0
100
AcDbLine
 10
569.9999999999999
 20
-2232.5
 30
0.0
 11
569.9999999999999
 21
-2232.5
 31
0.0
  0
LINE
  5
1BC
330
75
100
AcDbEntity
  8
0
 62
     0
100
AcDbLine
 10
550.6250000000001
 20
-2231.25
 30
0.0
 11
550.6250000000001
 21
-2231.25
 31
0.0
  0
LINE
  5
1BD
330
75
100
AcDbEntity
  8
0
 62
     0
100
AcDbLine
 10
551.8750000000001
 20
-2231.25
 30
0.0
 11
551.8750000000001
 21
-2231.25
 31
0.0
  0
LINE
  5
1BE
330
75
100
AcDbEntity
  8
0
 62
     0
100
AcDbLine
 10
553.125
 20
-2231.25
 30
0.0
 11
553.125
 21
-2231.25
 31
0.0
  0
LINE
  5
1BF
330
75
100
AcDbEntity
  8
0
 62
     0
100
AcDbLine
 10
554.3750000000001
 20
-2231.25
 30
0.0
 11
554.3750000000001
 21
-2231.25
 31
0.0
  0
LINE
  5
1C0
330
75
100
AcDbEntity
  8
0
 62
     0
100
AcDbLine
 10
555.6250000000001
 20
-2231.25
 30
0.0
 11
555.6250000000001
 21
-2231.25
 31
0.0
  0
LINE
  5
1C1
330
75
100
AcDbEntity
  8
0
 62
     0
100
AcDbLine
 10
556.8750000000001
 20
-2231.25
 30
0.0
 11
556.8750000000001
 21
-2231.25
 31
0.0
  0
LINE
  5
1C2
330
75
100
AcDbEntity
  8
0
 62
     0
100
AcDbLine
 10
558.1250000000001
 20
-2231.25
 30
0.0
 11
558.1250000000001
 21
-2231.25
 31
0.0
  0
LINE
  5
1C3
330
75
100
AcDbEntity
  8
0
 62
     0
100
AcDbLine
 10
561.875
 20
-2231.25
 30
0.0
 11
561.875
 21
-2231.25
 31
0.0
  0
LINE
  5
1C4
330
75
100
AcDbEntity
  8
0
 62
     0
100
AcDbLine
 10
563.125
 20
-2231.25
 30
0.0
 11
563.125
 21
-2231.25
 31
0.0
  0
LINE
  5
1C5
330
75
100
AcDbEntity
  8
0
 62
     0
100
AcDbLine
 10
564.3749999999999
 20
-2231.25
 30
0.0
 11
564.3749999999999
 21
-2231.25
 31
0.0
  0
LINE
  5
1C6
330
75
100
AcDbEntity
  8
0
 62
     0
100
AcDbLine
 10
565.625
 20
-2231.25
 30
0.0
 11
565.625
 21
-2231.25
 31
0.0
  0
LINE
  5
1C7
330
75
100
AcDbEntity
  8
0
 62
     0
100
AcDbLine
 10
566.875
 20
-2231.25
 30
0.0
 11
566.875
 21
-2231.25
 31
0.0
  0
LINE
  5
1C8
330
75
100
AcDbEntity
  8
0
 62
     0
100
AcDbLine
 10
568.125
 20
-2231.25
 30
0.0
 11
568.125
 21
-2231.25
 31
0.0
  0
LINE
  5
1C9
330
75
100
AcDbEntity
  8
0
 62
     0
100
AcDbLine
 10
551.25
 20
-2230.0
 30
0.0
 11
551.25
 21
-2230.0
 31
0.0
  0
LINE
  5
1CA
330
75
100
AcDbEntity
  8
0
 62
     0
100
AcDbLine
 10
552.5
 20
-2230.0
 30
0.0
 11
552.5
 21
-2230.0
 31
0.0
  0
LINE
  5
1CB
330
75
100
AcDbEntity
  8
0
 62
     0
100
AcDbLine
 10
553.75
 20
-2230.0
 30
0.0
 11
553.75
 21
-2230.0
 31
0.0
  0
LINE
  5
1CC
330
75
100
AcDbEntity
  8
0
 62
     0
100
AcDbLine
 10
555.0
 20
-2230.0
 30
0.0
 11
555.0
 21
-2230.0
 31
0.0
  0
LINE
  5
1CD
330
75
100
AcDbEntity
  8
0
 62
     0
100
AcDbLine
 10
556.25
 20
-2230.0
 30
0.0
 11
556.25
 21
-2230.0
 31
0.0
  0
LINE
  5
1CE
330
75
100
AcDbEntity
  8
0
 62
     0
100
AcDbLine
 10
557.5
 20
-2230.0
 30
0.0
 11
557.5
 21
-2230.0
 31
0.0
  0
LINE
  5
1CF
330
75
100
AcDbEntity
  8
0
 62
     0
100
AcDbLine
 10
558.75
 20
-2230.0
 30
0.0
 11
558.75
 21
-2230.0
 31
0.0
  0
LINE
  5
1D0
330
75
100
AcDbEntity
  8
0
 62
     0
100
AcDbLine
 10
563.75
 20
-2230.0
 30
0.0
 11
563.75
 21
-2230.0
 31
0.0
  0
LINE
  5
1D1
330
75
100
AcDbEntity
  8
0
 62
     0
100
AcDbLine
 10
565.0
 20
-2230.0
 30
0.0
 11
565.0
 21
-2230.0
 31
0.0
  0
LINE
  5
1D2
330
75
100
AcDbEntity
  8
0
 62
     0
100
AcDbLine
 10
566.25
 20
-2230.0
 30
0.0
 11
566.25
 21
-2230.0
 31
0.0
  0
LINE
  5
1D3
330
75
100
AcDbEntity
  8
0
 62
     0
100
AcDbLine
 10
551.8749999999998
 20
-2228.75
 30
0.0
 11
551.8749999999998
 21
-2228.75
 31
0.0
  0
LINE
  5
1D4
330
75
100
AcDbEntity
  8
0
 62
     0
100
AcDbLine
 10
553.1249999999999
 20
-2228.75
 30
0.0
 11
553.1249999999999
 21
-2228.75
 31
0.0
  0
LINE
  5
1D5
330
75
100
AcDbEntity
  8
0
 62
     0
100
AcDbLine
 10
554.3749999999999
 20
-2228.75
 30
0.0
 11
554.3749999999999
 21
-2228.75
 31
0.0
  0
LINE
  5
1D6
330
75
100
AcDbEntity
  8
0
 62
     0
100
AcDbLine
 10
555.6249999999998
 20
-2228.75
 30
0.0
 11
555.6249999999998
 21
-2228.75
 31
0.0
  0
LINE
  5
1D7
330
75
100
AcDbEntity
  8
0
 62
     0
100
AcDbLine
 10
556.8749999999998
 20
-2228.75
 30
0.0
 11
556.8749999999998
 21
-2228.75
 31
0.0
  0
LINE
  5
1D8
330
75
100
AcDbEntity
  8
0
 62
     0
100
AcDbLine
 10
558.1249999999998
 20
-2228.75
 30
0.0
 11
558.1249999999998
 21
-2228.75
 31
0.0
  0
LINE
  5
1D9
330
75
100
AcDbEntity
  8
0
 62
     0
100
AcDbLine
 10
559.3749999999999
 20
-2228.75
 30
0.0
 11
559.3749999999999
 21
-2228.75
 31
0.0
  0
LINE
  5
1DA
330
75
100
AcDbEntity
  8
0
 62
     0
100
AcDbLine
 10
553.7499999999998
 20
-2227.5
 30
0.0
 11
553.7499999999998
 21
-2227.5
 31
0.0
  0
LINE
  5
1DB
330
75
100
AcDbEntity
  8
0
 62
     0
100
AcDbLine
 10
554.9999999999998
 20
-2227.5
 30
0.0
 11
554.9999999999998
 21
-2227.5
 31
0.0
  0
LINE
  5
1DC
330
75
100
AcDbEntity
  8
0
 62
     0
100
AcDbLine
 10
556.2499999999999
 20
-2227.5
 30
0.0
 11
556.2499999999999
 21
-2227.5
 31
0.0
  0
LINE
  5
1DD
330
75
100
AcDbEntity
  8
0
 62
     0
100
AcDbLine
 10
557.4999999999999
 20
-2227.5
 30
0.0
 11
557.4999999999999
 21
-2227.5
 31
0.0
  0
LINE
  5
1DE
330
75
100
AcDbEntity
  8
0
 62
     0
100
AcDbLine
 10
558.7499999999998
 20
-2227.5
 30
0.0
 11
558.7499999999998
 21
-2227.5
 31
0.0
  0
LINE
  5
1DF
330
75
100
AcDbEntity
  8
0
 62
     0
100
AcDbLine
 10
559.9999999999998
 20
-2227.5
 30
0.0
 11
559.9999999999998
 21
-2227.5
 31
0.0
  0
LINE
  5
1E0
330
75
100
AcDbEntity
  8
0
 62
     0
100
AcDbLine
 10
554.3750000000001
 20
-2226.25
 30
0.0
 11
554.3750000000001
 21
-2226.25
 31
0.0
  0
LINE
  5
1E1
330
75
100
AcDbEntity
  8
0
 62
     0
100
AcDbLine
 10
555.6250000000001
 20
-2226.25
 30
0.0
 11
555.6250000000001
 21
-2226.25
 31
0.0
  0
LINE
  5
1E2
330
75
100
AcDbEntity
  8
0
 62
     0
100
AcDbLine
 10
556.8750000000001
 20
-2226.25
 30
0.0
 11
556.8750000000001
 21
-2226.25
 31
0.0
  0
LINE
  5
1E3
330
75
100
AcDbEntity
  8
0
 62
     0
100
AcDbLine
 10
558.1250000000001
 20
-2226.25
 30
0.0
 11
558.1250000000001
 21
-2226.25
 31
0.0
  0
LINE
  5
1E4
330
75
100
AcDbEntity
  8
0
 62
     0
100
AcDbLine
 10
559.375
 20
-2226.25
 30
0.0
 11
559.375
 21
-2226.25
 31
0.0
  0
LINE
  5
1E5
330
75
100
AcDbEntity
  8
0
 62
     0
100
AcDbLine
 10
598.125
 20
-2226.25
 30
0.0
 11
598.125
 21
-2226.25
 31
0.0
  0
LINE
  5
1E6
330
75
100
AcDbEntity
  8
0
 62
     0
100
AcDbLine
 10
599.375
 20
-2226.25
 30
0.0
 11
599.375
 21
-2226.25
 31
0.0
  0
LINE
  5
1E7
330
75
100
AcDbEntity
  8
0
 62
     0
100
AcDbLine
 10
600.625
 20
-2226.25
 30
0.0
 11
600.625
 21
-2226.25
 31
0.0
  0
LINE
  5
1E8
330
75
100
AcDbEntity
  8
0
 62
     0
100
AcDbLine
 10
555.0000000000001
 20
-2225.0
 30
0.0
 11
555.0000000000001
 21
-2225.0
 31
0.0
  0
LINE
  5
1E9
330
75
100
AcDbEntity
  8
0
 62
     0
100
AcDbLine
 10
556.25
 20
-2225.0
 30
0.0
 11
556.25
 21
-2225.0
 31
0.0
  0
LINE
  5
1EA
330
75
100
AcDbEntity
  8
0
 62
     0
100
AcDbLine
 10
557.5000000000001
 20
-2225.0
 30
0.0
 11
557.5000000000001
 21
-2225.0
 31
0.0
  0
LINE
  5
1EB
330
75
100
AcDbEntity
  8
0
 62
     0
100
AcDbLine
 10
558.7500000000001
 20
-2225.0
 30
0.0
 11
558.7500000000001
 21
-2225.0
 31
0.0
  0
LINE
  5
1EC
330
75
100
AcDbEntity
  8
0
 62
     0
100
AcDbLine
 10
597.5
 20
-2225.0
 30
0.0
 11
597.5
 21
-2225.0
 31
0.0
  0
LINE
  5
1ED
330
75
100
AcDbEntity
  8
0
 62
     0
100
AcDbLine
 10
598.7499999999999
 20
-2225.0
 30
0.0
 11
598.7499999999999
 21
-2225.0
 31
0.0
  0
LINE
  5
1EE
330
75
100
AcDbEntity
  8
0
 62
     0
100
AcDbLine
 10
600.0
 20
-2225.0
 30
0.0
 11
600.0
 21
-2225.0
 31
0.0
  0
LINE
  5
1EF
330
75
100
AcDbEntity
  8
0
 62
     0
100
AcDbLine
 10
601.25
 20
-2225.0
 30
0.0
 11
601.25
 21
-2225.0
 31
0.0
  0
LINE
  5
1F0
330
75
100
AcDbEntity
  8
0
 62
     0
100
AcDbLine
 10
555.625
 20
-2223.75
 30
0.0
 11
555.625
 21
-2223.75
 31
0.0
  0
LINE
  5
1F1
330
75
100
AcDbEntity
  8
0
 62
     0
100
AcDbLine
 10
596.8749999999999
 20
-2223.75
 30
0.0
 11
596.8749999999999
 21
-2223.75
 31
0.0
  0
LINE
  5
1F2
330
75
100
AcDbEntity
  8
0
 62
     0
100
AcDbLine
 10
598.1249999999999
 20
-2223.75
 30
0.0
 11
598.1249999999999
 21
-2223.75
 31
0.0
  0
LINE
  5
1F3
330
75
100
AcDbEntity
  8
0
 62
     0
100
AcDbLine
 10
599.3749999999998
 20
-2223.75
 30
0.0
 11
599.3749999999998
 21
-2223.75
 31
0.0
  0
LINE
  5
1F4
330
75
100
AcDbEntity
  8
0
 62
     0
100
AcDbLine
 10
600.6249999999998
 20
-2223.75
 30
0.0
 11
600.6249999999998
 21
-2223.75
 31
0.0
  0
LINE
  5
1F5
330
75
100
AcDbEntity
  8
0
 62
     0
100
AcDbLine
 10
601.8749999999998
 20
-2223.75
 30
0.0
 11
601.8749999999998
 21
-2223.75
 31
0.0
  0
LINE
  5
1F6
330
75
100
AcDbEntity
  8
0
 62
     0
100
AcDbLine
 10
597.5000000000001
 20
-2222.5
 30
0.0
 11
597.5000000000001
 21
-2222.5
 31
0.0
  0
LINE
  5
1F7
330
75
100
AcDbEntity
  8
0
 62
     0
100
AcDbLine
 10
598.7500000000001
 20
-2222.5
 30
0.0
 11
598.7500000000001
 21
-2222.5
 31
0.0
  0
LINE
  5
1F8
330
75
100
AcDbEntity
  8
0
 62
     0
100
AcDbLine
 10
600.0
 20
-2222.5
 30
0.0
 11
600.0
 21
-2222.5
 31
0.0
  0
LINE
  5
1F9
330
75
100
AcDbEntity
  8
0
 62
     0
100
AcDbLine
 10
601.2500000000001
 20
-2222.5
 30
0.0
 11
601.2500000000001
 21
-2222.5
 31
0.0
  0
LINE
  5
1FA
330
75
100
AcDbEntity
  8
0
 62
     0
100
AcDbLine
 10
597.5000000000001
 20
-2307.5
 30
0.0
 11
597.5000000000001
 21
-2307.5
 31
0.0
  0
LINE
  5
1FB
330
75
100
AcDbEntity
  8
0
 62
     0
100
AcDbLine
 10
598.7500000000001
 20
-2307.5
 30
0.0
 11
598.7500000000001
 21
-2307.5
 31
0.0
  0
LINE
  5
1FC
330
75
100
AcDbEntity
  8
0
 62
     0
100
AcDbLine
 10
600.0
 20
-2307.5
 30
0.0
 11
600.0
 21
-2307.5
 31
0.0
  0
LINE
  5
1FD
330
75
100
AcDbEntity
  8
0
 62
     0
100
AcDbLine
 10
601.2500000000001
 20
-2307.5
 30
0.0
 11
601.2500000000001
 21
-2307.5
 31
0.0
  0
LINE
  5
1FE
330
75
100
AcDbEntity
  8
0
 62
     0
100
AcDbLine
 10
602.5000000000001
 20
-2307.5
 30
0.0
 11
602.5000000000001
 21
-2307.5
 31
0.0
  0
LINE
  5
1FF
330
75
100
AcDbEntity
  8
0
 62
     0
100
AcDbLine
 10
603.7500000000001
 20
-2307.5
 30
0.0
 11
603.7500000000001
 21
-2307.5
 31
0.0
  0
LINE
  5
200
330
75
100
AcDbEntity
  8
0
 62
     0
100
AcDbLine
 10
605.0000000000001
 20
-2307.5
 30
0.0
 11
605.0000000000001
 21
-2307.5
 31
0.0
  0
LINE
  5
201
330
75
100
AcDbEntity
  8
0
 62
     0
100
AcDbLine
 10
606.25
 20
-2307.5
 30
0.0
 11
606.25
 21
-2307.5
 31
0.0
  0
LINE
  5
202
330
75
100
AcDbEntity
  8
0
 62
     0
100
AcDbLine
 10
607.5000000000001
 20
-2307.5
 30
0.0
 11
607.5000000000001
 21
-2307.5
 31
0.0
  0
LINE
  5
203
330
75
100
AcDbEntity
  8
0
 62
     0
100
AcDbLine
 10
608.7500000000001
 20
-2307.5
 30
0.0
 11
608.7500000000001
 21
-2307.5
 31
0.0
  0
LINE
  5
204
330
75
100
AcDbEntity
  8
0
 62
     0
100
AcDbLine
 10
610.0000000000001
 20
-2307.5
 30
0.0
 11
610.0000000000001
 21
-2307.5
 31
0.0
  0
LINE
  5
205
330
75
100
AcDbEntity
  8
0
 62
     0
100
AcDbLine
 10
611.2500000000001
 20
-2307.5
 30
0.0
 11
611.2500000000001
 21
-2307.5
 31
0.0
  0
LINE
  5
206
330
75
100
AcDbEntity
  8
0
 62
     0
100
AcDbLine
 10
593.125
 20
-2308.75
 30
0.0
 11
593.125
 21
-2308.75
 31
0.0
  0
LINE
  5
207
330
75
100
AcDbEntity
  8
0
 62
     0
100
AcDbLine
 10
594.375
 20
-2308.75
 30
0.0
 11
594.375
 21
-2308.75
 31
0.0
  0
LINE
  5
208
330
75
100
AcDbEntity
  8
0
 62
     0
100
AcDbLine
 10
595.6249999999999
 20
-2308.75
 30
0.0
 11
595.6249999999999
 21
-2308.75
 31
0.0
  0
LINE
  5
209
330
75
100
AcDbEntity
  8
0
 62
     0
100
AcDbLine
 10
596.875
 20
-2308.75
 30
0.0
 11
596.875
 21
-2308.75
 31
0.0
  0
LINE
  5
20A
330
75
100
AcDbEntity
  8
0
 62
     0
100
AcDbLine
 10
598.125
 20
-2308.75
 30
0.0
 11
598.125
 21
-2308.75
 31
0.0
  0
LINE
  5
20B
330
75
100
AcDbEntity
  8
0
 62
     0
100
AcDbLine
 10
599.375
 20
-2308.75
 30
0.0
 11
599.375
 21
-2308.75
 31
0.0
  0
LINE
  5
20C
330
75
100
AcDbEntity
  8
0
 62
     0
100
AcDbLine
 10
600.625
 20
-2308.75
 30
0.0
 11
600.625
 21
-2308.75
 31
0.0
  0
LINE
  5
20D
330
75
100
AcDbEntity
  8
0
 62
     0
100
AcDbLine
 10
601.8749999999999
 20
-2308.75
 30
0.0
 11
601.8749999999999
 21
-2308.75
 31
0.0
  0
LINE
  5
20E
330
75
100
AcDbEntity
  8
0
 62
     0
100
AcDbLine
 10
603.125
 20
-2308.75
 30
0.0
 11
603.125
 21
-2308.75
 31
0.0
  0
LINE
  5
20F
330
75
100
AcDbEntity
  8
0
 62
     0
100
AcDbLine
 10
604.375
 20
-2308.75
 30
0.0
 11
604.375
 21
-2308.75
 31
0.0
  0
LINE
  5
210
330
75
100
AcDbEntity
  8
0
 62
     0
100
AcDbLine
 10
605.625
 20
-2308.75
 30
0.0
 11
605.625
 21
-2308.75
 31
0.0
  0
LINE
  5
211
330
75
100
AcDbEntity
  8
0
 62
     0
100
AcDbLine
 10
606.875
 20
-2308.75
 30
0.0
 11
606.875
 21
-2308.75
 31
0.0
  0
LINE
  5
212
330
75
100
AcDbEntity
  8
0
 62
     0
100
AcDbLine
 10
608.1249999999999
 20
-2308.75
 30
0.0
 11
608.1249999999999
 21
-2308.75
 31
0.0
  0
LINE
  5
213
330
75
100
AcDbEntity
  8
0
 62
     0
100
AcDbLine
 10
609.375
 20
-2308.75
 30
0.0
 11
609.375
 21
-2308.75
 31
0.0
  0
LINE
  5
214
330
75
100
AcDbEntity
  8
0
 62
     0
100
AcDbLine
 10
610.625
 20
-2308.75
 30
0.0
 11
610.625
 21
-2308.75
 31
0.0
  0
LINE
  5
215
330
75
100
AcDbEntity
  8
0
 62
     0
100
AcDbLine
 10
611.875
 20
-2308.75
 30
0.0
 11
611.875
 21
-2308.75
 31
0.0
  0
LINE
  5
216
330
75
100
AcDbEntity
  8
0
 62
     0
100
AcDbLine
 10
593.75
 20
-2310.0
 30
0.0
 11
593.75
 21
-2310.0
 31
0.0
  0
LINE
  5
217
330
75
100
AcDbEntity
  8
0
 62
     0
100
AcDbLine
 10
595.0
 20
-2310.0
 30
0.0
 11
595.0
 21
-2310.0
 31
0.0
  0
LINE
  5
218
330
75
100
AcDbEntity
  8
0
 62
     0
100
AcDbLine
 10
596.25
 20
-2310.0
 30
0.0
 11
596.25
 21
-2310.0
 31
0.0
  0
LINE
  5
219
330
75
100
AcDbEntity
  8
0
 62
     0
100
AcDbLine
 10
597.5
 20
-2310.0
 30
0.0
 11
597.5
 21
-2310.0
 31
0.0
  0
LINE
  5
21A
330
75
100
AcDbEntity
  8
0
 62
     0
100
AcDbLine
 10
598.7499999999999
 20
-2310.0
 30
0.0
 11
598.7499999999999
 21
-2310.0
 31
0.0
  0
LINE
  5
21B
330
75
100
AcDbEntity
  8
0
 62
     0
100
AcDbLine
 10
600.0
 20
-2310.0
 30
0.0
 11
600.0
 21
-2310.0
 31
0.0
  0
LINE
  5
21C
330
75
100
AcDbEntity
  8
0
 62
     0
100
AcDbLine
 10
601.25
 20
-2310.0
 30
0.0
 11
601.25
 21
-2310.0
 31
0.0
  0
LINE
  5
21D
330
75
100
AcDbEntity
  8
0
 62
     0
100
AcDbLine
 10
602.5
 20
-2310.0
 30
0.0
 11
602.5
 21
-2310.0
 31
0.0
  0
LINE
  5
21E
330
75
100
AcDbEntity
  8
0
 62
     0
100
AcDbLine
 10
603.75
 20
-2310.0
 30
0.0
 11
603.75
 21
-2310.0
 31
0.0
  0
LINE
  5
21F
330
75
100
AcDbEntity
  8
0
 62
     0
100
AcDbLine
 10
605.0
 20
-2310.0
 30
0.0
 11
605.0
 21
-2310.0
 31
0.0
  0
LINE
  5
220
330
75
100
AcDbEntity
  8
0
 62
     0
100
AcDbLine
 10
606.25
 20
-2310.0
 30
0.0
 11
606.25
 21
-2310.0
 31
0.0
  0
LINE
  5
221
330
75
100
AcDbEntity
  8
0
 62
     0
100
AcDbLine
 10
607.5
 20
-2310.0
 30
0.0
 11
607.5
 21
-2310.0
 31
0.0
  0
LINE
  5
222
330
75
100
AcDbEntity
  8
0
 62
     0
100
AcDbLine
 10
608.75
 20
-2310.0
 30
0.0
 11
608.75
 21
-2310.0
 31
0.0
  0
LINE
  5
223
330
75
100
AcDbEntity
  8
0
 62
     0
100
AcDbLine
 10
610.0
 20
-2310.0
 30
0.0
 11
610.0
 21
-2310.0
 31
0.0
  0
LINE
  5
224
330
75
100
AcDbEntity
  8
0
 62
     0
100
AcDbLine
 10
611.2499999999999
 20
-2310.0
 30
0.0
 11
611.2499999999999
 21
-2310.0
 31
0.0
  0
LINE
  5
225
330
75
100
AcDbEntity
  8
0
 62
     0
100
AcDbLine
 10
612.5
 20
-2310.0
 30
0.0
 11
612.5
 21
-2310.0
 31
0.0
  0
LINE
  5
226
330
75
100
AcDbEntity
  8
0
 62
     0
100
AcDbLine
 10
594.375
 20
-2311.25
 30
0.0
 11
594.375
 21
-2311.25
 31
0.0
  0
LINE
  5
227
330
75
100
AcDbEntity
  8
0
 62
     0
100
AcDbLine
 10
595.6249999999999
 20
-2311.25
 30
0.0
 11
595.6249999999999
 21
-2311.25
 31
0.0
  0
LINE
  5
228
330
75
100
AcDbEntity
  8
0
 62
     0
100
AcDbLine
 10
596.875
 20
-2311.25
 30
0.0
 11
596.875
 21
-2311.25
 31
0.0
  0
LINE
  5
229
330
75
100
AcDbEntity
  8
0
 62
     0
100
AcDbLine
 10
598.125
 20
-2311.25
 30
0.0
 11
598.125
 21
-2311.25
 31
0.0
  0
LINE
  5
22A
330
75
100
AcDbEntity
  8
0
 62
     0
100
AcDbLine
 10
599.375
 20
-2311.25
 30
0.0
 11
599.375
 21
-2311.25
 31
0.0
  0
LINE
  5
22B
330
75
100
AcDbEntity
  8
0
 62
     0
100
AcDbLine
 10
600.625
 20
-2311.25
 30
0.0
 11
600.625
 21
-2311.25
 31
0.0
  0
LINE
  5
22C
330
75
100
AcDbEntity
  8
0
 62
     0
100
AcDbLine
 10
601.8749999999999
 20
-2311.25
 30
0.0
 11
601.8749999999999
 21
-2311.25
 31
0.0
  0
LINE
  5
22D
330
75
100
AcDbEntity
  8
0
 62
     0
100
AcDbLine
 10
603.125
 20
-2311.25
 30
0.0
 11
603.125
 21
-2311.25
 31
0.0
  0
LINE
  5
22E
330
75
100
AcDbEntity
  8
0
 62
     0
100
AcDbLine
 10
604.375
 20
-2311.25
 30
0.0
 11
604.375
 21
-2311.25
 31
0.0
  0
LINE
  5
22F
330
75
100
AcDbEntity
  8
0
 62
     0
100
AcDbLine
 10
605.625
 20
-2311.25
 30
0.0
 11
605.625
 21
-2311.25
 31
0.0
  0
LINE
  5
230
330
75
100
AcDbEntity
  8
0
 62
     0
100
AcDbLine
 10
606.875
 20
-2311.25
 30
0.0
 11
606.875
 21
-2311.25
 31
0.0
  0
LINE
  5
231
330
75
100
AcDbEntity
  8
0
 62
     0
100
AcDbLine
 10
608.1249999999999
 20
-2311.25
 30
0.0
 11
608.1249999999999
 21
-2311.25
 31
0.0
  0
LINE
  5
232
330
75
100
AcDbEntity
  8
0
 62
     0
100
AcDbLine
 10
609.375
 20
-2311.25
 30
0.0
 11
609.375
 21
-2311.25
 31
0.0
  0
LINE
  5
233
330
75
100
AcDbEntity
  8
0
 62
     0
100
AcDbLine
 10
610.625
 20
-2311.25
 30
0.0
 11
610.625
 21
-2311.25
 31
0.0
  0
LINE
  5
234
330
75
100
AcDbEntity
  8
0
 62
     0
100
AcDbLine
 10
611.875
 20
-2311.25
 30
0.0
 11
611.875
 21
-2311.25
 31
0.0
  0
LINE
  5
235
330
75
100
AcDbEntity
  8
0
 62
     0
100
AcDbLine
 10
596.2500000000001
 20
-2312.5
 30
0.0
 11
596.2500000000001
 21
-2312.5
 31
0.0
  0
LINE
  5
236
330
75
100
AcDbEntity
  8
0
 62
     0
100
AcDbLine
 10
597.5000000000001
 20
-2312.5
 30
0.0
 11
597.5000000000001
 21
-2312.5
 31
0.0
  0
LINE
  5
237
330
75
100
AcDbEntity
  8
0
 62
     0
100
AcDbLine
 10
598.7500000000001
 20
-2312.5
 30
0.0
 11
598.7500000000001
 21
-2312.5
 31
0.0
  0
LINE
  5
238
330
75
100
AcDbEntity
  8
0
 62
     0
100
AcDbLine
 10
600.0
 20
-2312.5
 30
0.0
 11
600.0
 21
-2312.5
 31
0.0
  0
LINE
  5
239
330
75
100
AcDbEntity
  8
0
 62
     0
100
AcDbLine
 10
601.2500000000001
 20
-2312.5
 30
0.0
 11
601.2500000000001
 21
-2312.5
 31
0.0
  0
LINE
  5
23A
330
75
100
AcDbEntity
  8
0
 62
     0
100
AcDbLine
 10
602.5000000000001
 20
-2312.5
 30
0.0
 11
602.5000000000001
 21
-2312.5
 31
0.0
  0
LINE
  5
23B
330
75
100
AcDbEntity
  8
0
 62
     0
100
AcDbLine
 10
603.7500000000001
 20
-2312.5
 30
0.0
 11
603.7500000000001
 21
-2312.5
 31
0.0
  0
LINE
  5
23C
330
75
100
AcDbEntity
  8
0
 62
     0
100
AcDbLine
 10
605.0000000000001
 20
-2312.5
 30
0.0
 11
605.0000000000001
 21
-2312.5
 31
0.0
  0
LINE
  5
23D
330
75
100
AcDbEntity
  8
0
 62
     0
100
AcDbLine
 10
606.25
 20
-2312.5
 30
0.0
 11
606.25
 21
-2312.5
 31
0.0
  0
LINE
  5
23E
330
75
100
AcDbEntity
  8
0
 62
     0
100
AcDbLine
 10
607.5000000000001
 20
-2312.5
 30
0.0
 11
607.5000000000001
 21
-2312.5
 31
0.0
  0
LINE
  5
23F
330
75
100
AcDbEntity
  8
0
 62
     0
100
AcDbLine
 10
608.7500000000001
 20
-2312.5
 30
0.0
 11
608.7500000000001
 21
-2312.5
 31
0.0
  0
LINE
  5
240
330
75
100
AcDbEntity
  8
0
 62
     0
100
AcDbLine
 10
610.0000000000001
 20
-2312.5
 30
0.0
 11
610.0000000000001
 21
-2312.5
 31
0.0
  0
LINE
  5
241
330
75
100
AcDbEntity
  8
0
 62
     0
100
AcDbLine
 10
611.2500000000001
 20
-2312.5
 30
0.0
 11
611.2500000000001
 21
-2312.5
 31
0.0
  0
LINE
  5
242
330
75
100
AcDbEntity
  8
0
 62
     0
100
AcDbLine
 10
585.0000000000001
 20
-2320.0
 30
0.0
 11
585.0000000000001
 21
-2320.0
 31
0.0
  0
LINE
  5
243
330
75
100
AcDbEntity
  8
0
 62
     0
100
AcDbLine
 10
580.625
 20
-2321.25
 30
0.0
 11
580.625
 21
-2321.25
 31
0.0
  0
LINE
  5
244
330
75
100
AcDbEntity
  8
0
 62
     0
100
AcDbLine
 10
581.875
 20
-2321.25
 30
0.0
 11
581.875
 21
-2321.25
 31
0.0
  0
LINE
  5
245
330
75
100
AcDbEntity
  8
0
 62
     0
100
AcDbLine
 10
583.1249999999999
 20
-2321.25
 30
0.0
 11
583.1249999999999
 21
-2321.25
 31
0.0
  0
LINE
  5
246
330
75
100
AcDbEntity
  8
0
 62
     0
100
AcDbLine
 10
584.375
 20
-2321.25
 30
0.0
 11
584.375
 21
-2321.25
 31
0.0
  0
LINE
  5
247
330
75
100
AcDbEntity
  8
0
 62
     0
100
AcDbLine
 10
579.9999999999998
 20
-2322.5
 30
0.0
 11
579.9999999999998
 21
-2322.5
 31
0.0
  0
LINE
  5
248
330
75
100
AcDbEntity
  8
0
 62
     0
100
AcDbLine
 10
581.2499999999999
 20
-2322.5
 30
0.0
 11
581.2499999999999
 21
-2322.5
 31
0.0
  0
LINE
  5
249
330
75
100
AcDbEntity
  8
0
 62
     0
100
AcDbLine
 10
582.4999999999999
 20
-2322.5
 30
0.0
 11
582.4999999999999
 21
-2322.5
 31
0.0
  0
LINE
  5
24A
330
75
100
AcDbEntity
  8
0
 62
     0
100
AcDbLine
 10
583.7499999999998
 20
-2322.5
 30
0.0
 11
583.7499999999998
 21
-2322.5
 31
0.0
  0
LINE
  5
24B
330
75
100
AcDbEntity
  8
0
 62
     0
100
AcDbLine
 10
579.375
 20
-2323.75
 30
0.0
 11
579.375
 21
-2323.75
 31
0.0
  0
LINE
  5
24C
330
75
100
AcDbEntity
  8
0
 62
     0
100
AcDbLine
 10
580.625
 20
-2323.75
 30
0.0
 11
580.625
 21
-2323.75
 31
0.0
  0
LINE
  5
24D
330
75
100
AcDbEntity
  8
0
 62
     0
100
AcDbLine
 10
581.875
 20
-2323.75
 30
0.0
 11
581.875
 21
-2323.75
 31
0.0
  0
LINE
  5
24E
330
75
100
AcDbEntity
  8
0
 62
     0
100
AcDbLine
 10
583.1249999999999
 20
-2323.75
 30
0.0
 11
583.1249999999999
 21
-2323.75
 31
0.0
  0
LINE
  5
24F
330
75
100
AcDbEntity
  8
0
 62
     0
100
AcDbLine
 10
580.0000000000001
 20
-2325.0
 30
0.0
 11
580.0000000000001
 21
-2325.0
 31
0.0
  0
LINE
  5
250
330
75
100
AcDbEntity
  8
0
 62
     0
100
AcDbLine
 10
581.25
 20
-2325.0
 30
0.0
 11
581.25
 21
-2325.0
 31
0.0
  0
LINE
  5
251
330
75
100
AcDbEntity
  8
0
 62
     0
100
AcDbLine
 10
582.5000000000001
 20
-2325.0
 30
0.0
 11
582.5000000000001
 21
-2325.0
 31
0.0
  0
LINE
  5
252
330
75
100
AcDbEntity
  8
0
 62
     0
100
AcDbLine
 10
580.625
 20
-2326.25
 30
0.0
 11
580.625
 21
-2326.25
 31
0.0
  0
LINE
  5
253
330
75
100
AcDbEntity
  8
0
 62
     0
100
AcDbLine
 10
581.875
 20
-2326.25
 30
0.0
 11
581.875
 21
-2326.25
 31
0.0
  0
LINE
  5
254
330
75
100
AcDbEntity
  8
0
 62
     0
100
AcDbLine
 10
641.8749999999999
 20
-2338.75
 30
0.0
 11
641.8749999999999
 21
-2338.75
 31
0.0
  0
LINE
  5
255
330
75
100
AcDbEntity
  8
0
 62
     0
100
AcDbLine
 10
643.1249999999998
 20
-2338.75
 30
0.0
 11
643.1249999999998
 21
-2338.75
 31
0.0
  0
LINE
  5
256
330
75
100
AcDbEntity
  8
0
 62
     0
100
AcDbLine
 10
644.3749999999998
 20
-2338.75
 30
0.0
 11
644.3749999999998
 21
-2338.75
 31
0.0
  0
LINE
  5
257
330
75
100
AcDbEntity
  8
0
 62
     0
100
AcDbLine
 10
645.6249999999998
 20
-2338.75
 30
0.0
 11
645.6249999999998
 21
-2338.75
 31
0.0
  0
LINE
  5
258
330
75
100
AcDbEntity
  8
0
 62
     0
100
AcDbLine
 10
640.0000000000001
 20
-2340.0
 30
0.0
 11
640.0000000000001
 21
-2340.0
 31
0.0
  0
LINE
  5
259
330
75
100
AcDbEntity
  8
0
 62
     0
100
AcDbLine
 10
641.2500000000001
 20
-2340.0
 30
0.0
 11
641.2500000000001
 21
-2340.0
 31
0.0
  0
LINE
  5
25A
330
75
100
AcDbEntity
  8
0
 62
     0
100
AcDbLine
 10
642.5000000000001
 20
-2340.0
 30
0.0
 11
642.5000000000001
 21
-2340.0
 31
0.0
  0
LINE
  5
25B
330
75
100
AcDbEntity
  8
0
 62
     0
100
AcDbLine
 10
643.75
 20
-2340.0
 30
0.0
 11
643.75
 21
-2340.0
 31
0.0
  0
LINE
  5
25C
330
75
100
AcDbEntity
  8
0
 62
     0
100
AcDbLine
 10
645.0000000000001
 20
-2340.0
 30
0.0
 11
645.0000000000001
 21
-2340.0
 31
0.0
  0
LINE
  5
25D
330
75
100
AcDbEntity
  8
0
 62
     0
100
AcDbLine
 10
646.2500000000001
 20
-2340.0
 30
0.0
 11
646.2500000000001
 21
-2340.0
 31
0.0
  0
LINE
  5
25E
330
75
100
AcDbEntity
  8
0
 62
     0
100
AcDbLine
 10
639.3749999999998
 20
-2341.25
 30
0.0
 11
639.3749999999998
 21
-2341.25
 31
0.0
  0
LINE
  5
25F
330
75
100
AcDbEntity
  8
0
 62
     0
100
AcDbLine
 10
640.6249999999999
 20
-2341.25
 30
0.0
 11
640.6249999999999
 21
-2341.25
 31
0.0
  0
LINE
  5
260
330
75
100
AcDbEntity
  8
0
 62
     0
100
AcDbLine
 10
641.8749999999999
 20
-2341.25
 30
0.0
 11
641.8749999999999
 21
-2341.25
 31
0.0
  0
LINE
  5
261
330
75
100
AcDbEntity
  8
0
 62
     0
100
AcDbLine
 10
643.1249999999998
 20
-2341.25
 30
0.0
 11
643.1249999999998
 21
-2341.25
 31
0.0
  0
LINE
  5
262
330
75
100
AcDbEntity
  8
0
 62
     0
100
AcDbLine
 10
644.3749999999998
 20
-2341.25
 30
0.0
 11
644.3749999999998
 21
-2341.25
 31
0.0
  0
LINE
  5
263
330
75
100
AcDbEntity
  8
0
 62
     0
100
AcDbLine
 10
645.6249999999998
 20
-2341.25
 30
0.0
 11
645.6249999999998
 21
-2341.25
 31
0.0
  0
LINE
  5
264
330
75
100
AcDbEntity
  8
0
 62
     0
100
AcDbLine
 10
637.5
 20
-2342.5
 30
0.0
 11
637.5
 21
-2342.5
 31
0.0
  0
LINE
  5
265
330
75
100
AcDbEntity
  8
0
 62
     0
100
AcDbLine
 10
638.7500000000001
 20
-2342.5
 30
0.0
 11
638.7500000000001
 21
-2342.5
 31
0.0
  0
LINE
  5
266
330
75
100
AcDbEntity
  8
0
 62
     0
100
AcDbLine
 10
640.0000000000001
 20
-2342.5
 30
0.0
 11
640.0000000000001
 21
-2342.5
 31
0.0
  0
LINE
  5
267
330
75
100
AcDbEntity
  8
0
 62
     0
100
AcDbLine
 10
641.2500000000001
 20
-2342.5
 30
0.0
 11
641.2500000000001
 21
-2342.5
 31
0.0
  0
LINE
  5
268
330
75
100
AcDbEntity
  8
0
 62
     0
100
AcDbLine
 10
642.5000000000001
 20
-2342.5
 30
0.0
 11
642.5000000000001
 21
-2342.5
 31
0.0
  0
LINE
  5
269
330
75
100
AcDbEntity
  8
0
 62
     0
100
AcDbLine
 10
643.75
 20
-2342.5
 30
0.0
 11
643.75
 21
-2342.5
 31
0.0
  0
LINE
  5
26A
330
75
100
AcDbEntity
  8
0
 62
     0
100
AcDbLine
 10
645.0000000000001
 20
-2342.5
 30
0.0
 11
645.0000000000001
 21
-2342.5
 31
0.0
  0
LINE
  5
26B
330
75
100
AcDbEntity
  8
0
 62
     0
100
AcDbLine
 10
646.2500000000001
 20
-2342.5
 30
0.0
 11
646.2500000000001
 21
-2342.5
 31
0.0
  0
LINE
  5
26C
330
75
100
AcDbEntity
  8
0
 62
     0
100
AcDbLine
 10
635.6249999999999
 20
-2343.75
 30
0.0
 11
635.6249999999999
 21
-2343.75
 31
0.0
  0
LINE
  5
26D
330
75
100
AcDbEntity
  8
0
 62
     0
100
AcDbLine
 10
636.8749999999998
 20
-2343.75
 30
0.0
 11
636.8749999999998
 21
-2343.75
 31
0.0
  0
LINE
  5
26E
330
75
100
AcDbEntity
  8
0
 62
     0
100
AcDbLine
 10
638.1249999999998
 20
-2343.75
 30
0.0
 11
638.1249999999998
 21
-2343.75
 31
0.0
  0
LINE
  5
26F
330
75
100
AcDbEntity
  8
0
 62
     0
100
AcDbLine
 10
639.3749999999998
 20
-2343.75
 30
0.0
 11
639.3749999999998
 21
-2343.75
 31
0.0
  0
LINE
  5
270
330
75
100
AcDbEntity
  8
0
 62
     0
100
AcDbLine
 10
640.6249999999999
 20
-2343.75
 30
0.0
 11
640.6249999999999
 21
-2343.75
 31
0.0
  0
LINE
  5
271
330
75
100
AcDbEntity
  8
0
 62
     0
100
AcDbLine
 10
641.8749999999999
 20
-2343.75
 30
0.0
 11
641.8749999999999
 21
-2343.75
 31
0.0
  0
LINE
  5
272
330
75
100
AcDbEntity
  8
0
 62
     0
100
AcDbLine
 10
643.1249999999998
 20
-2343.75
 30
0.0
 11
643.1249999999998
 21
-2343.75
 31
0.0
  0
LINE
  5
273
330
75
100
AcDbEntity
  8
0
 62
     0
100
AcDbLine
 10
644.3749999999998
 20
-2343.75
 30
0.0
 11
644.3749999999998
 21
-2343.75
 31
0.0
  0
LINE
  5
274
330
75
100
AcDbEntity
  8
0
 62
     0
100
AcDbLine
 10
645.6249999999998
 20
-2343.75
 30
0.0
 11
645.6249999999998
 21
-2343.75
 31
0.0
  0
LINE
  5
275
330
75
100
AcDbEntity
  8
0
 62
     0
100
AcDbLine
 10
646.8749999999999
 20
-2343.75
 30
0.0
 11
646.8749999999999
 21
-2343.75
 31
0.0
  0
LINE
  5
276
330
75
100
AcDbEntity
  8
0
 62
     0
100
AcDbLine
 10
636.2499999999999
 20
-2345.0
 30
0.0
 11
636.2499999999999
 21
-2345.0
 31
0.0
  0
LINE
  5
277
330
75
100
AcDbEntity
  8
0
 62
     0
100
AcDbLine
 10
637.5
 20
-2345.0
 30
0.0
 11
637.5
 21
-2345.0
 31
0.0
  0
LINE
  5
278
330
75
100
AcDbEntity
  8
0
 62
     0
100
AcDbLine
 10
638.75
 20
-2345.0
 30
0.0
 11
638.75
 21
-2345.0
 31
0.0
  0
LINE
  5
279
330
75
100
AcDbEntity
  8
0
 62
     0
100
AcDbLine
 10
640.0
 20
-2345.0
 30
0.0
 11
640.0
 21
-2345.0
 31
0.0
  0
LINE
  5
27A
330
75
100
AcDbEntity
  8
0
 62
     0
100
AcDbLine
 10
641.25
 20
-2345.0
 30
0.0
 11
641.25
 21
-2345.0
 31
0.0
  0
LINE
  5
27B
330
75
100
AcDbEntity
  8
0
 62
     0
100
AcDbLine
 10
642.4999999999999
 20
-2345.0
 30
0.0
 11
642.4999999999999
 21
-2345.0
 31
0.0
  0
LINE
  5
27C
330
75
100
AcDbEntity
  8
0
 62
     0
100
AcDbLine
 10
643.75
 20
-2345.0
 30
0.0
 11
643.75
 21
-2345.0
 31
0.0
  0
LINE
  5
27D
330
75
100
AcDbEntity
  8
0
 62
     0
100
AcDbLine
 10
645.0
 20
-2345.0
 30
0.0
 11
645.0
 21
-2345.0
 31
0.0
  0
LINE
  5
27E
330
75
100
AcDbEntity
  8
0
 62
     0
100
AcDbLine
 10
646.25
 20
-2345.0
 30
0.0
 11
646.25
 21
-2345.0
 31
0.0
  0
LINE
  5
27F
330
75
100
AcDbEntity
  8
0
 62
     0
100
AcDbLine
 10
647.5
 20
-2345.0
 30
0.0
 11
647.5
 21
-2345.0
 31
0.0
  0
LINE
  5
280
330
75
100
AcDbEntity
  8
0
 62
     0
100
AcDbLine
 10
635.625
 20
-2346.25
 30
0.0
 11
635.625
 21
-2346.25
 31
0.0
  0
LINE
  5
281
330
75
100
AcDbEntity
  8
0
 62
     0
100
AcDbLine
 10
636.875
 20
-2346.25
 30
0.0
 11
636.875
 21
-2346.25
 31
0.0
  0
LINE
  5
282
330
75
100
AcDbEntity
  8
0
 62
     0
100
AcDbLine
 10
638.125
 20
-2346.25
 30
0.0
 11
638.125
 21
-2346.25
 31
0.0
  0
LINE
  5
283
330
75
100
AcDbEntity
  8
0
 62
     0
100
AcDbLine
 10
639.3749999999999
 20
-2346.25
 30
0.0
 11
639.3749999999999
 21
-2346.25
 31
0.0
  0
LINE
  5
284
330
75
100
AcDbEntity
  8
0
 62
     0
100
AcDbLine
 10
640.625
 20
-2346.25
 30
0.0
 11
640.625
 21
-2346.25
 31
0.0
  0
LINE
  5
285
330
75
100
AcDbEntity
  8
0
 62
     0
100
AcDbLine
 10
641.875
 20
-2346.25
 30
0.0
 11
641.875
 21
-2346.25
 31
0.0
  0
LINE
  5
286
330
75
100
AcDbEntity
  8
0
 62
     0
100
AcDbLine
 10
643.125
 20
-2346.25
 30
0.0
 11
643.125
 21
-2346.25
 31
0.0
  0
LINE
  5
287
330
75
100
AcDbEntity
  8
0
 62
     0
100
AcDbLine
 10
644.375
 20
-2346.25
 30
0.0
 11
644.375
 21
-2346.25
 31
0.0
  0
LINE
  5
288
330
75
100
AcDbEntity
  8
0
 62
     0
100
AcDbLine
 10
645.6249999999999
 20
-2346.25
 30
0.0
 11
645.6249999999999
 21
-2346.25
 31
0.0
  0
LINE
  5
289
330
75
100
AcDbEntity
  8
0
 62
     0
100
AcDbLine
 10
646.875
 20
-2346.25
 30
0.0
 11
646.875
 21
-2346.25
 31
0.0
  0
LINE
  5
28A
330
75
100
AcDbEntity
  8
0
 62
     0
100
AcDbLine
 10
648.125
 20
-2346.25
 30
0.0
 11
648.125
 21
-2346.25
 31
0.0
  0
LINE
  5
28B
330
75
100
AcDbEntity
  8
0
 62
     0
100
AcDbLine
 10
636.2499999999998
 20
-2347.5
 30
0.0
 11
636.2499999999998
 21
-2347.5
 31
0.0
  0
LINE
  5
28C
330
75
100
AcDbEntity
  8
0
 62
     0
100
AcDbLine
 10
637.4999999999999
 20
-2347.5
 30
0.0
 11
637.4999999999999
 21
-2347.5
 31
0.0
  0
LINE
  5
28D
330
75
100
AcDbEntity
  8
0
 62
     0
100
AcDbLine
 10
638.7499999999999
 20
-2347.5
 30
0.0
 11
638.7499999999999
 21
-2347.5
 31
0.0
  0
LINE
  5
28E
330
75
100
AcDbEntity
  8
0
 62
     0
100
AcDbLine
 10
639.9999999999998
 20
-2347.5
 30
0.0
 11
639.9999999999998
 21
-2347.5
 31
0.0
  0
LINE
  5
28F
330
75
100
AcDbEntity
  8
0
 62
     0
100
AcDbLine
 10
641.2499999999998
 20
-2347.5
 30
0.0
 11
641.2499999999998
 21
-2347.5
 31
0.0
  0
LINE
  5
290
330
75
100
AcDbEntity
  8
0
 62
     0
100
AcDbLine
 10
642.4999999999998
 20
-2347.5
 30
0.0
 11
642.4999999999998
 21
-2347.5
 31
0.0
  0
LINE
  5
291
330
75
100
AcDbEntity
  8
0
 62
     0
100
AcDbLine
 10
643.7499999999999
 20
-2347.5
 30
0.0
 11
643.7499999999999
 21
-2347.5
 31
0.0
  0
LINE
  5
292
330
75
100
AcDbEntity
  8
0
 62
     0
100
AcDbLine
 10
644.9999999999999
 20
-2347.5
 30
0.0
 11
644.9999999999999
 21
-2347.5
 31
0.0
  0
LINE
  5
293
330
75
100
AcDbEntity
  8
0
 62
     0
100
AcDbLine
 10
646.2499999999998
 20
-2347.5
 30
0.0
 11
646.2499999999998
 21
-2347.5
 31
0.0
  0
LINE
  5
294
330
75
100
AcDbEntity
  8
0
 62
     0
100
AcDbLine
 10
647.4999999999998
 20
-2347.5
 30
0.0
 11
647.4999999999998
 21
-2347.5
 31
0.0
  0
LINE
  5
295
330
75
100
AcDbEntity
  8
0
 62
     0
100
AcDbLine
 10
648.7499999999998
 20
-2347.5
 30
0.0
 11
648.7499999999998
 21
-2347.5
 31
0.0
  0
LINE
  5
296
330
75
100
AcDbEntity
  8
0
 62
     0
100
AcDbLine
 10
635.625
 20
-2348.75
 30
0.0
 11
635.625
 21
-2348.75
 31
0.0
  0
LINE
  5
297
330
75
100
AcDbEntity
  8
0
 62
     0
100
AcDbLine
 10
636.875
 20
-2348.75
 30
0.0
 11
636.875
 21
-2348.75
 31
0.0
  0
LINE
  5
298
330
75
100
AcDbEntity
  8
0
 62
     0
100
AcDbLine
 10
638.125
 20
-2348.75
 30
0.0
 11
638.125
 21
-2348.75
 31
0.0
  0
LINE
  5
299
330
75
100
AcDbEntity
  8
0
 62
     0
100
AcDbLine
 10
639.3749999999999
 20
-2348.75
 30
0.0
 11
639.3749999999999
 21
-2348.75
 31
0.0
  0
LINE
  5
29A
330
75
100
AcDbEntity
  8
0
 62
     0
100
AcDbLine
 10
640.625
 20
-2348.75
 30
0.0
 11
640.625
 21
-2348.75
 31
0.0
  0
LINE
  5
29B
330
75
100
AcDbEntity
  8
0
 62
     0
100
AcDbLine
 10
641.875
 20
-2348.75
 30
0.0
 11
641.875
 21
-2348.75
 31
0.0
  0
LINE
  5
29C
330
75
100
AcDbEntity
  8
0
 62
     0
100
AcDbLine
 10
643.125
 20
-2348.75
 30
0.0
 11
643.125
 21
-2348.75
 31
0.0
  0
LINE
  5
29D
330
75
100
AcDbEntity
  8
0
 62
     0
100
AcDbLine
 10
644.375
 20
-2348.75
 30
0.0
 11
644.375
 21
-2348.75
 31
0.0
  0
LINE
  5
29E
330
75
100
AcDbEntity
  8
0
 62
     0
100
AcDbLine
 10
645.6249999999999
 20
-2348.75
 30
0.0
 11
645.6249999999999
 21
-2348.75
 31
0.0
  0
LINE
  5
29F
330
75
100
AcDbEntity
  8
0
 62
     0
100
AcDbLine
 10
646.875
 20
-2348.75
 30
0.0
 11
646.875
 21
-2348.75
 31
0.0
  0
LINE
  5
2A0
330
75
100
AcDbEntity
  8
0
 62
     0
100
AcDbLine
 10
648.125
 20
-2348.75
 30
0.0
 11
648.125
 21
-2348.75
 31
0.0
  0
LINE
  5
2A1
330
75
100
AcDbEntity
  8
0
 62
     0
100
AcDbLine
 10
649.375
 20
-2348.75
 30
0.0
 11
649.375
 21
-2348.75
 31
0.0
  0
LINE
  5
2A2
330
75
100
AcDbEntity
  8
0
 62
     0
100
AcDbLine
 10
636.2500000000001
 20
-2350.0
 30
0.0
 11
636.2500000000001
 21
-2350.0
 31
0.0
  0
LINE
  5
2A3
330
75
100
AcDbEntity
  8
0
 62
     0
100
AcDbLine
 10
637.5
 20
-2350.0
 30
0.0
 11
637.5
 21
-2350.0
 31
0.0
  0
LINE
  5
2A4
330
75
100
AcDbEntity
  8
0
 62
     0
100
AcDbLine
 10
638.7500000000001
 20
-2350.0
 30
0.0
 11
638.7500000000001
 21
-2350.0
 31
0.0
  0
LINE
  5
2A5
330
75
100
AcDbEntity
  8
0
 62
     0
100
AcDbLine
 10
640.0000000000001
 20
-2350.0
 30
0.0
 11
640.0000000000001
 21
-2350.0
 31
0.0
  0
LINE
  5
2A6
330
75
100
AcDbEntity
  8
0
 62
     0
100
AcDbLine
 10
641.2500000000001
 20
-2350.0
 30
0.0
 11
641.2500000000001
 21
-2350.0
 31
0.0
  0
LINE
  5
2A7
330
75
100
AcDbEntity
  8
0
 62
     0
100
AcDbLine
 10
642.5000000000001
 20
-2350.0
 30
0.0
 11
642.5000000000001
 21
-2350.0
 31
0.0
  0
LINE
  5
2A8
330
75
100
AcDbEntity
  8
0
 62
     0
100
AcDbLine
 10
643.75
 20
-2350.0
 30
0.0
 11
643.75
 21
-2350.0
 31
0.0
  0
LINE
  5
2A9
330
75
100
AcDbEntity
  8
0
 62
     0
100
AcDbLine
 10
645.0000000000001
 20
-2350.0
 30
0.0
 11
645.0000000000001
 21
-2350.0
 31
0.0
  0
LINE
  5
2AA
330
75
100
AcDbEntity
  8
0
 62
     0
100
AcDbLine
 10
646.2500000000001
 20
-2350.0
 30
0.0
 11
646.2500000000001
 21
-2350.0
 31
0.0
  0
LINE
  5
2AB
330
75
100
AcDbEntity
  8
0
 62
     0
100
AcDbLine
 10
647.5000000000001
 20
-2350.0
 30
0.0
 11
647.5000000000001
 21
-2350.0
 31
0.0
  0
LINE
  5
2AC
330
75
100
AcDbEntity
  8
0
 62
     0
100
AcDbLine
 10
648.7500000000001
 20
-2350.0
 30
0.0
 11
648.7500000000001
 21
-2350.0
 31
0.0
  0
LINE
  5
2AD
330
75
100
AcDbEntity
  8
0
 62
     0
100
AcDbLine
 10
650.0
 20
-2350.0
 30
0.0
 11
650.0
 21
-2350.0
 31
0.0
  0
LINE
  5
2AE
330
75
100
AcDbEntity
  8
0
 62
     0
100
AcDbLine
 10
636.875
 20
-2351.25
 30
0.0
 11
636.875
 21
-2351.25
 31
0.0
  0
LINE
  5
2AF
330
75
100
AcDbEntity
  8
0
 62
     0
100
AcDbLine
 10
638.125
 20
-2351.25
 30
0.0
 11
638.125
 21
-2351.25
 31
0.0
  0
LINE
  5
2B0
330
75
100
AcDbEntity
  8
0
 62
     0
100
AcDbLine
 10
639.3749999999999
 20
-2351.25
 30
0.0
 11
639.3749999999999
 21
-2351.25
 31
0.0
  0
LINE
  5
2B1
330
75
100
AcDbEntity
  8
0
 62
     0
100
AcDbLine
 10
640.625
 20
-2351.25
 30
0.0
 11
640.625
 21
-2351.25
 31
0.0
  0
LINE
  5
2B2
330
75
100
AcDbEntity
  8
0
 62
     0
100
AcDbLine
 10
641.875
 20
-2351.25
 30
0.0
 11
641.875
 21
-2351.25
 31
0.0
  0
LINE
  5
2B3
330
75
100
AcDbEntity
  8
0
 62
     0
100
AcDbLine
 10
643.125
 20
-2351.25
 30
0.0
 11
643.125
 21
-2351.25
 31
0.0
  0
LINE
  5
2B4
330
75
100
AcDbEntity
  8
0
 62
     0
100
AcDbLine
 10
644.375
 20
-2351.25
 30
0.0
 11
644.375
 21
-2351.25
 31
0.0
  0
LINE
  5
2B5
330
75
100
AcDbEntity
  8
0
 62
     0
100
AcDbLine
 10
645.6249999999999
 20
-2351.25
 30
0.0
 11
645.6249999999999
 21
-2351.25
 31
0.0
  0
LINE
  5
2B6
330
75
100
AcDbEntity
  8
0
 62
     0
100
AcDbLine
 10
646.875
 20
-2351.25
 30
0.0
 11
646.875
 21
-2351.25
 31
0.0
  0
LINE
  5
2B7
330
75
100
AcDbEntity
  8
0
 62
     0
100
AcDbLine
 10
648.125
 20
-2351.25
 30
0.0
 11
648.125
 21
-2351.25
 31
0.0
  0
LINE
  5
2B8
330
75
100
AcDbEntity
  8
0
 62
     0
100
AcDbLine
 10
649.375
 20
-2351.25
 30
0.0
 11
649.375
 21
-2351.25
 31
0.0
  0
LINE
  5
2B9
330
75
100
AcDbEntity
  8
0
 62
     0
100
AcDbLine
 10
636.2499999999998
 20
-2352.5
 30
0.0
 11
636.2499999999998
 21
-2352.5
 31
0.0
  0
LINE
  5
2BA
330
75
100
AcDbEntity
  8
0
 62
     0
100
AcDbLine
 10
637.4999999999999
 20
-2352.5
 30
0.0
 11
637.4999999999999
 21
-2352.5
 31
0.0
  0
LINE
  5
2BB
330
75
100
AcDbEntity
  8
0
 62
     0
100
AcDbLine
 10
638.7499999999999
 20
-2352.5
 30
0.0
 11
638.7499999999999
 21
-2352.5
 31
0.0
  0
LINE
  5
2BC
330
75
100
AcDbEntity
  8
0
 62
     0
100
AcDbLine
 10
639.9999999999998
 20
-2352.5
 30
0.0
 11
639.9999999999998
 21
-2352.5
 31
0.0
  0
LINE
  5
2BD
330
75
100
AcDbEntity
  8
0
 62
     0
100
AcDbLine
 10
641.2499999999998
 20
-2352.5
 30
0.0
 11
641.2499999999998
 21
-2352.5
 31
0.0
  0
LINE
  5
2BE
330
75
100
AcDbEntity
  8
0
 62
     0
100
AcDbLine
 10
642.4999999999998
 20
-2352.5
 30
0.0
 11
642.4999999999998
 21
-2352.5
 31
0.0
  0
LINE
  5
2BF
330
75
100
AcDbEntity
  8
0
 62
     0
100
AcDbLine
 10
643.7499999999999
 20
-2352.5
 30
0.0
 11
643.7499999999999
 21
-2352.5
 31
0.0
  0
LINE
  5
2C0
330
75
100
AcDbEntity
  8
0
 62
     0
100
AcDbLine
 10
644.9999999999999
 20
-2352.5
 30
0.0
 11
644.9999999999999
 21
-2352.5
 31
0.0
  0
LINE
  5
2C1
330
75
100
AcDbEntity
  8
0
 62
     0
100
AcDbLine
 10
646.2499999999998
 20
-2352.5
 30
0.0
 11
646.2499999999998
 21
-2352.5
 31
0.0
  0
LINE
  5
2C2
330
75
100
AcDbEntity
  8
0
 62
     0
100
AcDbLine
 10
647.4999999999998
 20
-2352.5
 30
0.0
 11
647.4999999999998
 21
-2352.5
 31
0.0
  0
LINE
  5
2C3
330
75
100
AcDbEntity
  8
0
 62
     0
100
AcDbLine
 10
648.7499999999998
 20
-2352.5
 30
0.0
 11
648.7499999999998
 21
-2352.5
 31
0.0
  0
LINE
  5
2C4
330
75
100
AcDbEntity
  8
0
 62
     0
100
AcDbLine
 10
649.9999999999999
 20
-2352.5
 30
0.0
 11
649.9999999999999
 21
-2352.5
 31
0.0
  0
LINE
  5
2C5
330
75
100
AcDbEntity
  8
0
 62
     0
100
AcDbLine
 10
638.125
 20
-2353.75
 30
0.0
 11
638.125
 21
-2353.75
 31
0.0
  0
LINE
  5
2C6
330
75
100
AcDbEntity
  8
0
 62
     0
100
AcDbLine
 10
639.3749999999999
 20
-2353.75
 30
0.0
 11
639.3749999999999
 21
-2353.75
 31
0.0
  0
LINE
  5
2C7
330
75
100
AcDbEntity
  8
0
 62
     0
100
AcDbLine
 10
640.625
 20
-2353.75
 30
0.0
 11
640.625
 21
-2353.75
 31
0.0
  0
LINE
  5
2C8
330
75
100
AcDbEntity
  8
0
 62
     0
100
AcDbLine
 10
641.875
 20
-2353.75
 30
0.0
 11
641.875
 21
-2353.75
 31
0.0
  0
LINE
  5
2C9
330
75
100
AcDbEntity
  8
0
 62
     0
100
AcDbLine
 10
643.125
 20
-2353.75
 30
0.0
 11
643.125
 21
-2353.75
 31
0.0
  0
LINE
  5
2CA
330
75
100
AcDbEntity
  8
0
 62
     0
100
AcDbLine
 10
644.375
 20
-2353.75
 30
0.0
 11
644.375
 21
-2353.75
 31
0.0
  0
LINE
  5
2CB
330
75
100
AcDbEntity
  8
0
 62
     0
100
AcDbLine
 10
645.6249999999999
 20
-2353.75
 30
0.0
 11
645.6249999999999
 21
-2353.75
 31
0.0
  0
LINE
  5
2CC
330
75
100
AcDbEntity
  8
0
 62
     0
100
AcDbLine
 10
646.875
 20
-2353.75
 30
0.0
 11
646.875
 21
-2353.75
 31
0.0
  0
LINE
  5
2CD
330
75
100
AcDbEntity
  8
0
 62
     0
100
AcDbLine
 10
648.125
 20
-2353.75
 30
0.0
 11
648.125
 21
-2353.75
 31
0.0
  0
LINE
  5
2CE
330
75
100
AcDbEntity
  8
0
 62
     0
100
AcDbLine
 10
649.375
 20
-2353.75
 30
0.0
 11
649.375
 21
-2353.75
 31
0.0
  0
LINE
  5
2CF
330
75
100
AcDbEntity
  8
0
 62
     0
100
AcDbLine
 10
640.0
 20
-2355.0
 30
0.0
 11
640.0
 21
-2355.0
 31
0.0
  0
LINE
  5
2D0
330
75
100
AcDbEntity
  8
0
 62
     0
100
AcDbLine
 10
641.25
 20
-2355.0
 30
0.0
 11
641.25
 21
-2355.0
 31
0.0
  0
LINE
  5
2D1
330
75
100
AcDbEntity
  8
0
 62
     0
100
AcDbLine
 10
643.7499999999999
 20
-2355.0
 30
0.0
 11
643.7499999999999
 21
-2355.0
 31
0.0
  0
LINE
  5
2D2
330
75
100
AcDbEntity
  8
0
 62
     0
100
AcDbLine
 10
644.9999999999999
 20
-2355.0
 30
0.0
 11
644.9999999999999
 21
-2355.0
 31
0.0
  0
LINE
  5
2D3
330
75
100
AcDbEntity
  8
0
 62
     0
100
AcDbLine
 10
646.2499999999998
 20
-2355.0
 30
0.0
 11
646.2499999999998
 21
-2355.0
 31
0.0
  0
LINE
  5
2D4
330
75
100
AcDbEntity
  8
0
 62
     0
100
AcDbLine
 10
647.4999999999998
 20
-2355.0
 30
0.0
 11
647.4999999999998
 21
-2355.0
 31
0.0
  0
LINE
  5
2D5
330
75
100
AcDbEntity
  8
0
 62
     0
100
AcDbLine
 10
648.7499999999998
 20
-2355.0
 30
0.0
 11
648.7499999999998
 21
-2355.0
 31
0.0
  0
LINE
  5
2D6
330
75
100
AcDbEntity
  8
0
 62
     0
100
AcDbLine
 10
646.875
 20
-2356.25
 30
0.0
 11
646.875
 21
-2356.25
 31
0.0
  0
ENDBLK
  5
2D7
330
75
100
AcDbEntity
  8
0
100
AcDbBlockEnd
  0
ENDSEC
  0
SECTION
  2
ENTITIES
  0
LWPOLYLINE
  5
2D8
330
6F
100
AcDbEntity
  8
GRABUNGSGRENZE
100
AcDbPolyline
 90
        6
 70
   128
 43
0.0
 10
6.496809095156236
 20
-23.65836844275063
 10
6.179476433144103
 20
-23.58532969984899
 10
5.962720029603661
 20
-23.59438802426433
 10
5.669973032724239
 20
-23.47700998387469
 10
5.604231955878403
 20
-22.90671677976819
 10
4.041861559699592
 20
-22.83485100127951
  0
LWPOLYLINE
  5
2E0
330
6F
100
AcDbEntity
  8
STEINE
100
AcDbPolyline
 90
       10
 70
     0
 43
0.0
 10
6.359364484086069
 20
-23.52980201932876
 10
6.351147133079085
 20
-23.43947409139182
 10
6.426372190276119
 20
-23.3744872583015
 10
6.45279518855657
 20
-23.37735810262434
 10
6.504857601782604
 20
-23.494306052625
 10
6.507124999537618
 20
-23.52983468474795
 10
6.473850255556708
 20
-23.56559973509813
 10
6.427527262186384
 20
-23.54813600792559
 10
6.395569731253269
 20
-23.55291848826759
 10
6.359364484086069
 20
-23.52980201932876
  0
LWPOLYLINE
  5
2EC
330
6F
100
AcDbEntity
  8
STEINE
100
AcDbPolyline
 90
        9
 70
     0
 43
0.0
 10
6.017411274295483
 20
-23.34318716082475
 10
5.962948610192841
 20
-23.24707363799992
 10
5.968740959887213
 20
-23.20184381466815
 10
5.987876527448421
 20
-23.17785146389352
 10
6.019387106758029
 20
-23.18221176882973
 10
6.053236009290824
 20
-23.23276334840964
 10
6.061466869910794
 20
-23.32512225587434
 10
6.05906324163094
 20
-23.34544893816825
 10
6.017411274295483
 20
-23.34318716082475
  0
LWPOLYLINE
  5
2F7
330
6F
100
AcDbEntity
  8
STEINE
100
AcDbPolyline
 90
        5
 70
     0
 43
0.0
 10
5.816416360909697
 20
-23.27902214533658
 10
5.77803152847189
 20
-23.2335784112053
 10
5.804282279186775
 20
-23.21055426654911
 10
5.85446458741785
 20
-23.19752628157917
 10
5.816416360909697
 20
-23.27902214533658
  0
LWPOLYLINE
  5
2FE
330
6F
100
AcDbEntity
  8
STEINE
100
AcDbPolyline
 90
        8
 70
     0
 43
0.0
 10
5.961667439967476
 20
-23.1308034374385
 10
5.920797921571901
 20
-23.09350050843452
 10
5.938975415224414
 20
-23.0781465754594
 10
6.089681077870221
 20
-23.06292663000085
 10
6.121238940825278
 20
-23.07439536328424
 10
6.129595899760347
 20
-23.10937572168628
 10
6.118039353992557
 20
-23.12773221771085
 10
5.961667439967476
 20
-23.1308034374385
  0
LWPOLYLINE
  5
308
330
6F
100
AcDbEntity
  8
STEINE
100
AcDbPolyline
 90
       15
 70
     0
 43
0.0
 10
5.785508145336339
 20
-22.83086917176055
 10
5.807141908468298
 20
-22.80076699538639
 10
5.802921211460184
 20
-22.7769300051611
 10
5.813391341995917
 20
-22.74791762142224
 10
5.820885928708174
 20
-22.72958814462364
 10
5.83803104558057
 20
-22.7117022420453
 10
5.856824361018909
 20
-22.71259276788907
 10
5.875326085383075
 20
-22.74598234358036
 10
5.882372586076841
 20
-22.81296076175446
 10
5.881563117910986
 20
-22.8439399543594
 10
5.860481005903173
 20
-22.88063943679556
 10
5.83970061717927
 20
-22.88636310403002
 10
5.810004863589661
 20
-22.84949361703656
 10
5.78920421044628
 20
-22.85217081497938
 10
5.785508145336339
 20
-22.83086917176055
  0
LWPOLYLINE
  5
319
330
6F
100
AcDbEntity
  8
STEINE
100
AcDbPolyline
 90
        5
 70
     0
 43
0.0
 10
5.813391341995917
 20
-22.74791762142224
 10
5.793596046406682
 20
-22.74906482991273
 10
5.785841399644453
 20
-22.72829795080181
 10
5.785841399644453
 20
-22.72829795080181
 10
5.820885928708174
 20
-22.72958814462364
  0
LWPOLYLINE
  5
320
330
6F
100
AcDbEntity
  8
STEINE
100
AcDbPolyline
 90
        8
 70
     0
 43
0.0
 10
6.069876810247933
 20
-22.75738242018553
 10
6.040089866770672
 20
-22.70680382137964
 10
6.042987730319481
 20
-22.68444278215473
 10
6.068855700072541
 20
-22.68020857553363
 10
6.104993399174812
 20
-22.69317014683362
 10
6.115323921782461
 20
-22.71950533262967
 10
6.102301557224032
 20
-22.74650362385699
 10
6.069876810247933
 20
-22.75738242018553
  0
LWPOLYLINE
  5
32A
330
6F
100
AcDbEntity
  8
STEINE
100
AcDbPolyline
 90
        7
 70
     0
 43
0.0
 10
6.095940695170988
 20
-22.55359434275157
 10
6.108755903736401
 20
-22.57178872342032
 10
6.081042711634126
 20
-22.6039624081612
 10
6.048062936130636
 20
-22.60773615354581
 10
6.033172841795252
 20
-22.5829545990248
 10
6.061054904059846
 20
-22.57616815838101
 10
6.095940695170988
 20
-22.55359434275157
  0
LWPOLYLINE
  5
333
330
6F
100
AcDbEntity
  8
STEINE
100
AcDbPolyline
 90
       10
 70
     0
 43
0.0
 10
6.144475939231106
 20
-22.44562481966502
 10
6.124768456126275
 20
-22.45997339508599
 10
6.103709985941185
 20
-22.50022709169574
 10
6.11398647009689
 20
-22.51843835938072
 10
6.154189505657943
 20
-22.53188065633668
 10
6.204117374250556
 20
-22.55693691491563
 10
6.230074290883005
 20
-22.4897389655305
 10
6.230991835952744
 20
-22.47500760914769
 10
6.192301902827778
 20
-22.46003194533617
 10
6.144475939231106
 20
-22.44562481966502
  0
LWPOLYLINE
  5
33F
330
6F
100
AcDbEntity
  8
STEINE
100
AcDbPolyline
 90
       12
 70
     0
 43
0.0
 10
6.230074290883005
 20
-22.4897389655305
 10
6.264248558522439
 20
-22.51286894408232
 10
6.278949518276025
 20
-22.50921678521458
 10
6.28619417714805
 20
-22.45331418715229
 10
6.310150510881949
 20
-22.39069945131762
 10
6.301431035404532
 20
-22.37755550024232
 10
6.288307348748713
 20
-22.38932144501139
 10
6.239936488834389
 20
-22.36933250304212
 10
6.216634262717009
 20
-22.37761178170253
 10
6.198436504645019
 20
-22.389919245386
 10
6.146138781805015
 20
-22.39026711792038
 10
6.144475939231106
 20
-22.44562481966502
  0
LWPOLYLINE
  5
34D
330
6F
100
AcDbEntity
  8
STEINE
100
AcDbPolyline
 90
        8
 70
     0
 43
0.0
 10
6.215237126386284
 20
-22.3202433648496
 10
6.23030735748871
 20
-22.295770288419
 10
6.276807110222831
 20
-22.26347163975801
 10
6.293061701251461
 20
-22.264379052618
 10
6.328234571638545
 20
-22.28496355195362
 10
6.305134989715948
 20
-22.32370752353053
 10
6.261526345724145
 20
-22.33262964320272
 10
6.215237126386284
 20
-22.3202433648496
  0
LWPOLYLINE
  5
357
330
6F
100
AcDbEntity
  8
STEINE
100
AcDbPolyline
 90
       10
 70
     0
 43
0.0
 10
5.986647230011848
 20
-22.30602310497028
 10
5.929626685693298
 20
-22.35971796414101
 10
5.948003446137347
 20
-22.37432097920045
 10
5.9702361440389
 20
-22.35792453723547
 10
5.992160363850049
 20
-22.37148842070831
 10
6.009410180223084
 20
-22.36934260947016
 10
6.022990950712149
 20
-22.34995711406872
 10
6.040802550419068
 20
-22.3559318435384
 10
6.059291899565231
 20
-22.31112533000741
 10
6.038366282501734
 20
-22.29501596731838
  0
LWPOLYLINE
  5
363
330
6F
100
AcDbEntity
  8
STEINE
100
AcDbPolyline
 90
        7
 70
     0
 43
0.0
 10
6.022772553896118
 20
-22.24078858704799
 10
6.057478208240216
 20
-22.26746940237015
 10
6.059291899565231
 20
-22.31112533000741
 10
6.038366282501734
 20
-22.29501596731838
 10
5.986647230011848
 20
-22.30602310497028
 10
5.972359447849304
 20
-22.2954550297404
 10
5.980822240679994
 20
-22.27001036978812
  0
LWPOLYLINE
  5
36C
330
6F
100
AcDbEntity
  8
STEINE
100
AcDbPolyline
 90
        8
 70
     0
 43
0.0
 10
5.984472156539469
 20
-22.20803847496526
 10
5.960346952643251
 20
-22.24526596670283
 10
5.980822240679994
 20
-22.27001036978812
 10
6.002177922350766
 20
-22.27443822278925
 10
6.022772553896118
 20
-22.24078858704799
 10
6.021060184668495
 20
-22.21236500586899
 10
6.008309146764762
 20
-22.20381777795714
 10
5.984472156539469
 20
-22.20803847496526
  0
LWPOLYLINE
  5
376
330
6F
100
AcDbEntity
  8
STEINE
100
AcDbPolyline
 90
        4
 70
     0
 43
0.0
 10
5.928669746179586
 20
-22.292191272246
 10
5.911284833676696
 20
-22.27402728820647
 10
5.941079666355434
 20
-22.24945626708173
 10
5.946423930031317
 20
-22.28953433872266
  0
LWPOLYLINE
  5
37C
330
6F
100
AcDbEntity
  8
STEINE
100
AcDbPolyline
 90
        2
 70
     0
 43
0.0
 10
5.946423930031317
 20
-22.28953433872266
 10
5.928669746179586
 20
-22.292191272246
  0
LWPOLYLINE
  5
380
330
6F
100
AcDbEntity
  8
STEINE
100
AcDbPolyline
 90
        5
 70
     0
 43
0.0
 10
5.932995142688339
 20
-22.33176835381149
 10
5.92014616009046
 20
-22.30849652432333
 10
5.92014616009046
 20
-22.30849652432333
 10
5.943979772912507
 20
-22.30376808243327
 10
5.932995142688339
 20
-22.33176835381149
  0
LWPOLYLINE
  5
387
330
6F
100
AcDbEntity
  8
STEINE
100
AcDbPolyline
 90
       11
 70
     0
 43
0.0
 10
5.620031783427163
 20
-22.30490737594058
 10
5.652453153000016
 20
-22.29352083473009
 10
5.686563249977766
 20
-22.30700366052501
 10
5.710558978155639
 20
-22.32664697296816
 10
5.707900910237323
 20
-22.38505789881094
 10
5.678095945348846
 20
-22.40810568528986
 10
5.646781255427529
 20
-22.43319458350629
 10
5.628973033123856
 20
-22.42772759891855
 10
5.593505194259352
 20
-22.43913440454852
 10
5.599565493205174
 20
-22.35785131719563
 10
5.620031783427163
 20
-22.30490737594058
  0
LWPOLYLINE
  5
394
330
6F
100
AcDbEntity
  8
STEINE
100
AcDbPolyline
 90
       10
 70
     0
 43
0.0
 10
5.537657769043987
 20
-22.36384855409305
 10
5.49437449015882
 20
-22.34534907273715
 10
5.485580711809984
 20
-22.32103473425913
 10
5.543078604381257
 20
-22.26276679374767
 10
5.550001275549891
 20
-22.23479354159543
 10
5.586108578022946
 20
-22.24318540895794
 10
5.604569773548155
 20
-22.27048204606593
 10
5.586551017848222
 20
-22.30969998849232
 10
5.553679319248616
 20
-22.32972157009907
 10
5.537657769043987
 20
-22.36384855409305
  0
LWPOLYLINE
  5
3A0
330
6F
100
AcDbEntity
  8
STEINE
100
AcDbPolyline
 90
        5
 70
     0
 43
0.0
 10
5.222220964648063
 20
-22.49948958026623
 10
5.238256024465677
 20
-22.46739357580002
 10
5.288654486504522
 20
-22.48686126327436
 10
5.272622804090153
 20
-22.51946501262251
 10
5.222220964648063
 20
-22.49948958026623
  0
LWPOLYLINE
  5
3A7
330
6F
100
AcDbEntity
  8
KNOCHEN
100
AcDbPolyline
 90
        5
 70
     0
 43
0.0
 10
6.354192596884273
 20
-22.37060356683945
 10
6.318391529493361
 20
-22.25557851946267
 10
6.346307365790419
 20
-22.2538695276383
 10
6.379522425126174
 20
-22.36180303368413
 10
6.354192596884273
 20
-22.37060356683945
  0
INSERT
  5
3AE
330
6F
100
AcDbEntity
  8
KNOCHENSCHRAFF
100
AcDbBlockReference
  2
*X1
 10
0.0
 20
0.0
 30
0.0
 41
0.01
 42
0.01
 43
0.01
1001
ACAD
1000
HATCH
1002
{
1070
    16
1000
ANSI31,I
1040
2.0
1040
0.0
1002
}
  0
INSERT
  5
3AF
330
6F
100
AcDbEntity
  8
STEINESCHRAFF
100
AcDbBlockReference
  2
*X2
 10
0.0
 20
0.0
 30
0.0
 41
0.01
 42
0.01
 43
0.01
1001
ACAD
1000
HATCH
1002
{
1070
    16
1000
DOTS,I
1040
20.0
1040
0.0
1002
}
  0
ENDSEC
  0
SECTION
  2
OBJECTS
  0
DICTIONARY
  5
C
330
0
100
AcDbDictionary
281
     1
  3
ACAD_CIP_PREVIOUS_PRODUCT_INFO
350
3B2
  3
ACAD_COLOR
350
62
  3
ACAD_DETAILVIEWSTYLE
350
69
  3
ACAD_GROUP
350
D
  3
ACAD_LAYOUT
350
61
  3
ACAD_MATERIAL
350
10
  3
ACAD_MLEADERSTYLE
350
65
  3
ACAD_MLINESTYLE
350
5E
  3
ACAD_PLOTSETTINGS
350
60
  3
ACAD_PLOTSTYLENAME
350
E
  3
ACAD_SCALELIST
350
42
  3
ACAD_SECTIONVIEWSTYLE
350
67
  3
ACAD_TABLESTYLE
350
63
  3
ACAD_VISUALSTYLE
350
29
  3
ACDB_RECOMPOSE_DATA
350
45D
  3
AcDbVariableDictionary
350
3FD
  0
DICTIONARY
  5
3B6
330
2
100
AcDbDictionary
280
     1
281
     1
  3
ACAD_LAYERSTATES
360
3B7
  0
XRECORD
  5
3B2
102
{ACAD_REACTORS
330
C
102
}
330
C
100
AcDbXrecord
280
     1
300
ACD
300
2014
300
DSADV_F_S
  0
DICTIONARY
  5
62
102
{ACAD_REACTORS
330
C
102
}
330
C
100
AcDbDictionary
281
     1
  0
DICTIONARY
  5
69
102
{ACAD_REACTORS
330
C
102
}
330
C
100
AcDbDictionary
281
     1
  3
Imperial24
350
6A
  0
DICTIONARY
  5
D
102
{ACAD_REACTORS
330
C
102
}
330
C
100
AcDbDictionary
281
     1
  0
DICTIONARY
  5
61
102
{ACAD_REACTORS
330
C
102
}
330
C
100
AcDbDictionary
281
     1
  3
Layout1
350
6E
  3
Model
350
72
  0
DICTIONARY
  5
10
102
{ACAD_REACTORS
330
C
102
}
330
C
100
AcDbDictionary
281
     1
  3
ByBlock
350
19
  3
ByLayer
350
11
  3
Global
350
21
  0
DICTIONARY
  5
65
102
{ACAD_REACTORS
330
C
102
}
330
C
100
AcDbDictionary
281
     1
  3
Standard
350
66
  0
DICTIONARY
  5
5E
102
{ACAD_REACTORS
330
C
102
}
330
C
100
AcDbDictionary
281
     1
  3
Standard
350
5F
  0
DICTIONARY
  5
60
102
{ACAD_REACTORS
330
C
102
}
330
C
100
AcDbDictionary
281
     1
  0
ACDBDICTIONARYWDFLT
  5
E
102
{ACAD_REACTORS
330
C
102
}
330
C
100
AcDbDictionary
281
     1
  3
Normal
350
F
100
AcDbDictionaryWithDefault
340
F
  0
DICTIONARY
  5
42
102
{ACAD_REACTORS
330
C
102
}
330
C
100
AcDbDictionary
281
     1
  3
A0
350
43
  3
A1
350
44
  3
A2
350
45
  3
A3
350
46
  3
A4
350
47
  3
A5
350
48
  3
A6
350
49
  3
A7
350
4A
  3
A8
350
4B
  3
A9
350
4C
  3
B0
350
4D
  3
B1
350
4E
  3
B2
350
4F
  3
B3
350
50
  3
B4
350
51
  3
B5
350
52
  3
B6
350
53
  0
DICTIONARY
  5
67
102
{ACAD_REACTORS
330
C
102
}
330
C
100
AcDbDictionary
281
     1
  3
Imperial24
350
68
  0
DICTIONARY
  5
63
102
{ACAD_REACTORS
330
C
102
}
330
C
100
AcDbDictionary
281
     1
  3
Standard
350
64
  0
DICTIONARY
  5
29
102
{ACAD_REACTORS
330
C
102
}
330
C
100
AcDbDictionary
281
     1
  3
2dWireframe
350
2F
  3
Basic
350
2E
  3
Brighten
350
35
  3
ColorChange
350
39
  3
Conceptual
350
32
  3
Dim
350
34
  3
EdgeColorOff
350
41
  3
Facepattern
350
38
  3
Flat
350
2A
  3
FlatWithEdges
350
2B
  3
Gouraud
350
2C
  3
GouraudWithEdges
350
2D
  3
Hidden
350
31
  3
JitterOff
350
3F
  3
Linepattern
350
37
  3
OverhangOff
350
40
  3
Realistic
350
33
  3
Shaded
350
3E
  3
Shaded with edges
350
3D
  3
Shades of Gray
350
3A
  3
Sketchy
350
3B
  3
Thicken
350
36
  3
Wireframe
350
30
  3
X-Ray
350
3C
  0
XRECORD
  5
45D
102
{ACAD_REACTORS
330
C
102
}
330
C
100
AcDbXrecord
280
     1
 90
        1
330
64
330
68
330
6A
  0
DICTIONARY
  5
3FD
102
{ACAD_REACTORS
330
C
102
}
330
C
100
AcDbDictionary
281
     1
  3
CANNOSCALE
350
402
  3
CMLEADERSTYLE
350
3FF
  3
CTABLESTYLE
350
3FE
  3
CVIEWDETAILSTYLE
350
400
  3
CVIEWSECTIONSTYLE
350
401
  0
DICTIONARY
  5
3B7
102
{ACAD_REACTORS
330
3B6
102
}
330
3B6
100
AcDbDictionary
281
     1
  0
ACDBDETAILVIEWSTYLE
  5
6A
102
{ACAD_XDICTIONARY
360
45B
102
}
102
{ACAD_REACTORS
330
69
102
}
330
69
100
AcDbModelDocViewStyle
 70
     0
  3
Imperial24
290
     0
100
AcDbDetailViewStyle
 70
     0
 71
     0
 90
        3
 71
     1
340
55
 62
   256
 40
0.24
340
0
 62
   256
 40
0.24
300

 40
0.36
280
     3
 71
     2
340
5C
 90
       25
 62
   256
 71
     3
340
55
 62
   256
 40
0.24
 90
        1
 40
0.75
 90
        1
300
%<\AcVar ViewType \f "%tc1">% %<\AcVar ViewDetailId>%\PVARIA %<\AcVar ViewScale \f "%sn">%
 71
     4
340
5C
 90
       25
 62
   256
340
5C
 90
       25
 62
   256
280
     0
  0
LAYOUT
  5
6E
102
{ACAD_REACTORS
330
61
102
}
330
61
100
AcDbPlotSettings
  1

  2
Kyocera FS-1350DN KX
  4

  6

 40
0.0
 41
0.0
 42
0.0
 43
0.0
 44
0.0
 45
0.0
 46
0.0
 47
0.0
 48
0.0
 49
0.0
140
0.0
141
0.0
142
1.0
143
1.0
 70
   688
 72
     0
 73
     0
 74
     5
  7

 75
    16
147
1.0
 76
     0
 77
     2
 78
   300
148
0.0
149
0.0
100
AcDbLayout
  1
Layout1
 70
     0
 71
     1
 10
0.0
 20
0.0
 11
12.0
 21
9.0
 12
0.0
 22
0.0
 32
0.0
 14
1.000000000000000E+20
 24
1.000000000000000E+20
 34
1.000000000000000E+20
 15
-1.000000000000000E+20
 25
-1.000000000000000E+20
 35
-1.000000000000000E+20
146
0.0
 13
0.0
 23
0.0
 33
0.0
 16
1.0
 26
0.0
 36
0.0
 17
0.0
 27
1.0
 37
0.0
 76
     0
330
6B
  0
LAYOUT
  5
72
102
{ACAD_XDICTIONARY
360
3FB
102
}
102
{ACAD_REACTORS
330
61
102
}
330
61
100
AcDbPlotSettings
  1

  2
Kyocera FS-1350DN KX
  4

  6

 40
0.0
 41
0.0
 42
0.0
 43
0.0
 44
0.0
 45
0.0
 46
0.0
 47
0.0
 48
0.0
 49
0.0
140
0.0
141
0.0
142
1.0
143
1.0
 70
  1712
 72
     0
 73
     0
 74
     0
  7

 75
     0
147
1.0
 76
     0
 77
     2
 78
   300
148
0.0
149
0.0
100
AcDbLayout
  1
Model
 70
     1
 71
     0
 10
0.0
 20
0.0
 11
12.0
 21
9.0
 12
0.0
 22
0.0
 32
0.0
 14
0.0
 24
0.0
 34
0.0
 15
0.0
 25
0.0
 35
0.0
146
0.0
 13
0.0
 23
0.0
 33
0.0
 16
1.0
 26
0.0
 36
0.0
 17
0.0
 27
1.0
 37
0.0
 76
     0
330
6F
331
8F
  0
MATERIAL
  5
19
102
{ACAD_XDICTIONARY
360
1A
102
}
102
{ACAD_REACTORS
330
10
102
}
330
10
100
AcDbMaterial
  1
ByBlock
 72
     0
 43
0.0208333333333333
 43
0.0
 43
0.0
 43
0.0
 43
0.0
 43
0.0208333333333333
 43
0.0
 43
0.0
 43
0.0
 43
0.0
 43
1.0
 43
0.0
 43
0.0
 43
0.0
 43
0.0
 43
1.0
 77
     0
 47
0.0208333333333333
 47
0.0
 47
0.0
 47
0.0
 47
0.0
 47
0.0208333333333333
 47
0.0
 47
0.0
 47
0.0
 47
0.0
 47
1.0
 47
0.0
 47
0.0
 47
0.0
 47
0.0
 47
1.0
171
     0
 49
0.0208333333333333
 49
0.0
 49
0.0
 49
0.0
 49
0.0
 49
0.0208333333333333
 49
0.0
 49
0.0
 49
0.0
 49
0.0
 49
1.0
 49
0.0
 49
0.0
 49
0.0
 49
0.0
 49
1.0
175
     0
142
0.0208333333333333
142
0.0
142
0.0
142
0.0
142
0.0
142
0.0208333333333333
142
0.0
142
0.0
142
0.0
142
0.0
142
1.0
142
0.0
142
0.0
142
0.0
142
0.0
142
1.0
179
     0
144
0.0208333333333333
144
0.0
144
0.0
144
0.0
144
0.0
144
0.0208333333333333
144
0.0
144
0.0
144
0.0
144
0.0
144
1.0
144
0.0
144
0.0
144
0.0
144
0.0
144
1.0
147
0.0208333333333333
147
0.0
147
0.0
147
0.0
147
0.0
147
0.0208333333333333
147
0.0
147
0.0
147
0.0
147
0.0
147
1.0
147
0.0
147
0.0
147
0.0
147
0.0
147
1.0
  0
MATERIAL
  5
11
102
{ACAD_XDICTIONARY
360
12
102
}
102
{ACAD_REACTORS
330
10
102
}
330
10
100
AcDbMaterial
  1
ByLayer
 72
     0
 43
0.0208333333333333
 43
0.0
 43
0.0
 43
0.0
 43
0.0
 43
0.0208333333333333
 43
0.0
 43
0.0
 43
0.0
 43
0.0
 43
1.0
 43
0.0
 43
0.0
 43
0.0
 43
0.0
 43
1.0
 77
     0
 47
0.0208333333333333
 47
0.0
 47
0.0
 47
0.0
 47
0.0
 47
0.0208333333333333
 47
0.0
 47
0.0
 47
0.0
 47
0.0
 47
1.0
 47
0.0
 47
0.0
 47
0.0
 47
0.0
 47
1.0
171
     0
 49
0.0208333333333333
 49
0.0
 49
0.0
 49
0.0
 49
0.0
 49
0.0208333333333333
 49
0.0
 49
0.0
 49
0.0
 49
0.0
 49
1.0
 49
0.0
 49
0.0
 49
0.0
 49
0.0
 49
1.0
175
     0
142
0.0208333333333333
142
0.0
142
0.0
142
0.0
142
0.0
142
0.0208333333333333
142
0.0
142
0.0
142
0.0
142
0.0
142
1.0
142
0.0
142
0.0
142
0.0
142
0.0
142
1.0
179
     0
144
0.0208333333333333
144
0.0
144
0.0
144
0.0
144
0.0
144
0.0208333333333333
144
0.0
144
0.0
144
0.0
144
0.0
144
1.0
144
0.0
144
0.0
144
0.0
144
0.0
144
1.0
147
0.0208333333333333
147
0.0
147
0.0
147
0.0
147
0.0
147
0.0208333333333333
147
0.0
147
0.0
147
0.0
147
0.0
147
1.0
147
0.0
147
0.0
147
0.0
147
0.0
147
1.0
  0
MATERIAL
  5
21
102
{ACAD_XDICTIONARY
360
22
102
}
102
{ACAD_REACTORS
330
10
102
}
330
10
100
AcDbMaterial
  1
Global
 72
     0
 43
0.0208333333333333
 43
0.0
 43
0.0
 43
0.0
 43
0.0
 43
0.0208333333333333
 43
0.0
 43
0.0
 43
0.0
 43
0.0
 43
1.0
 43
0.0
 43
0.0
 43
0.0
 43
0.0
 43
1.0
 77
     0
 47
0.0208333333333333
 47
0.0
 47
0.0
 47
0.0
 47
0.0
 47
0.0208333333333333
 47
0.0
 47
0.0
 47
0.0
 47
0.0
 47
1.0
 47
0.0
 47
0.0
 47
0.0
 47
0.0
 47
1.0
171
     0
 49
0.0208333333333333
 49
0.0
 49
0.0
 49
0.0
 49
0.0
 49
0.0208333333333333
 49
0.0
 49
0.0
 49
0.0
 49
0.0
 49
1.0
 49
0.0
 49
0.0
 49
0.0
 49
0.0
 49
1.0
175
     0
142
0.0208333333333333
142
0.0
142
0.0
142
0.0
142
0.0
142
0.0208333333333333
142
0.0
142
0.0
142
0.0
142
0.0
142
1.0
142
0.0
142
0.0
142
0.0
142
0.0
142
1.0
179
     0
144
0.0208333333333333
144
0.0
144
0.0
144
0.0
144
0.0
144
0.0208333333333333
144
0.0
144
0.0
144
0.0
144
0.0
144
1.0
144
0.0
144
0.0
144
0.0
144
0.0
144
1.0
147
0.0208333333333333
147
0.0
147
0.0
147
0.0
147
0.0
147
0.0208333333333333
147
0.0
147
0.0
147
0.0
147
0.0
147
1.0
147
0.0
147
0.0
147
0.0
147
0.0
147
1.0
  0
MLEADERSTYLE
  5
66
102
{ACAD_REACTORS
330
65
102
}
330
65
100
AcDbMLeaderStyle
179
     2
170
     2
171
     1
172
     0
 90
        2
 40
0.0
 41
0.0
173
     1
 91
-1056964608
340
5A
 92
       -2
290
     1
 42
0.09
291
     1
 43
0.36
  3
Standard
 44
0.18
300

342
55
174
     1
178
     6
175
     1
176
     0
 93
-1056964608
 45
0.18
292
     0
297
     0
 46
0.18
 94
-1056964608
 47
1.0
 49
1.0
140
1.0
293
     1
141
0.0
294
     1
177
     0
142
1.0
295
     0
296
     0
143
0.125
271
     0
272
     9
273
     9
298
     1
  0
MLINESTYLE
  5
5F
102
{ACAD_REACTORS
330
5E
102
}
330
5E
100
AcDbMlineStyle
  2
STANDARD
 70
     0
  3

 62
   256
 51
90.0
 52
90.0
 71
     2
 49
0.5
 62
   256
  6
BYLAYER
 49
-0.5
 62
   256
  6
BYLAYER
  0
ACDBPLACEHOLDER
  5
F
102
{ACAD_REACTORS
330
E
102
}
330
E
  0
SCALE
  5
43
102
{ACAD_REACTORS
330
42
102
}
330
42
100
AcDbScale
 70
     0
300
1:1
140
1.0
141
1.0
290
     1
  0
SCALE
  5
44
102
{ACAD_REACTORS
330
42
102
}
330
42
100
AcDbScale
 70
     0
300
1/128" = 1'-0"
140
0.0078125
141
12.0
290
     0
  0
SCALE
  5
45
102
{ACAD_REACTORS
330
42
102
}
330
42
100
AcDbScale
 70
     0
300
1/64" = 1'-0"
140
0.015625
141
12.0
290
     0
  0
SCALE
  5
46
102
{ACAD_REACTORS
330
42
102
}
330
42
100
AcDbScale
 70
     0
300
1/32" = 1'-0"
140
0.03125
141
12.0
290
     0
  0
SCALE
  5
47
102
{ACAD_REACTORS
330
42
102
}
330
42
100
AcDbScale
 70
     0
300
1/16" = 1'-0"
140
0.0625
141
12.0
290
     0
  0
SCALE
  5
48
102
{ACAD_REACTORS
330
42
102
}
330
42
100
AcDbScale
 70
     0
300
3/32" = 1'-0"
140
0.09375
141
12.0
290
     0
  0
SCALE
  5
49
102
{ACAD_REACTORS
330
42
102
}
330
42
100
AcDbScale
 70
     0
300
1/8" = 1'-0"
140
0.125
141
12.0
290
     0
  0
SCALE
  5
4A
102
{ACAD_REACTORS
330
42
102
}
330
42
100
AcDbScale
 70
     0
300
3/16" = 1'-0"
140
0.1875
141
12.0
290
     0
  0
SCALE
  5
4B
102
{ACAD_REACTORS
330
42
102
}
330
42
100
AcDbScale
 70
     0
300
1/4" = 1'-0"
140
0.25
141
12.0
290
     0
  0
SCALE
  5
4C
102
{ACAD_REACTORS
330
42
102
}
330
42
100
AcDbScale
 70
     0
300
3/8" = 1'-0"
140
0.375
141
12.0
290
     0
  0
SCALE
  5
4D
102
{ACAD_REACTORS
330
42
102
}
330
42
100
AcDbScale
 70
     0
300
1/2" = 1'-0"
140
0.5
141
12.0
290
     0
  0
SCALE
  5
4E
102
{ACAD_REACTORS
330
42
102
}
330
42
100
AcDbScale
 70
     0
300
3/4" = 1'-0"
140
0.75
141
12.0
290
     0
  0
SCALE
  5
4F
102
{ACAD_REACTORS
330
42
102
}
330
42
100
AcDbScale
 70
     0
300
1" = 1'-0"
140
1.0
141
12.0
290
     0
  0
SCALE
  5
50
102
{ACAD_REACTORS
330
42
102
}
330
42
100
AcDbScale
 70
     0
300
1-1/2" = 1'-0"
140
1.5
141
12.0
290
     0
  0
SCALE
  5
51
102
{ACAD_REACTORS
330
42
102
}
330
42
100
AcDbScale
 70
     0
300
3" = 1'-0"
140
3.0
141
12.0
290
     0
  0
SCALE
  5
52
102
{ACAD_REACTORS
330
42
102
}
330
42
100
AcDbScale
 70
     0
300
6" = 1'-0"
140
6.0
141
12.0
290
     0
  0
SCALE
  5
53
102
{ACAD_REACTORS
330
42
102
}
330
42
100
AcDbScale
 70
     0
300
1'-0" = 1'-0"
140
12.0
141
12.0
290
     0
  0
ACDBSECTIONVIEWSTYLE
  5
68
102
{ACAD_XDICTIONARY
360
459
102
}
102
{ACAD_REACTORS
330
67
102
}
330
67
100
AcDbModelDocViewStyle
 70
     0
  3
Imperial24
290
     0
100
AcDbSectionViewStyle
 70
     0
 71
     0
 90
       78
 71
     1
340
55
 62
   256
 40
0.24
340
0
340
0
 62
   256
 40
0.24
300
I, O, Q, S, X, Z
 40
0.48
 90
        3
 40
0.18
 90
        1
 71
     2
340
5C
 90
       25
 62
   256
340
5C
 90
       50
 62
   256
 40
0.24
 40
0.0
 40
0.24
 71
     3
340
55
 62
   256
 40
0.24
 90
        1
 40
0.75
 90
        1
300
%<\AcVar ViewType \f "%tc1">% %<\AcVar ViewSectionStartId>%-%<\AcVar ViewSectionEndId>%\PVARIA %<\AcVar ViewScale \f "%sn">%
 71
     4
 62
   256
 62
   257
300
ANSI31
 40
1.0
 90
        0
290
     0
290
     0
 90
        6
 40
0.0
 40
1.570796326794896
 40
0.2617993877991494
 40
1.308996938995747
 40
-0.2617993877991494
 40
1.832595714594046
  0
TABLESTYLE
  5
64
102
{ACAD_XDICTIONARY
360
457
102
}
102
{ACAD_REACTORS
330
63
102
}
330
63
100
AcDbTableStyle
280
     0
  3
Standard
 70
     0
 71
     0
 40
0.06
 41
0.06
280
     0
281
     0
  7
STANDARD
140
0.18
170
     2
 62
     0
 63
     7
283
     0
 90
      512
 91
        0
  1

274
    -2
284
     1
 64
     0
275
    -2
285
     1
 65
     0
276
    -2
286
     1
 66
     0
277
    -2
287
     1
 67
     0
278
    -2
288
     1
 68
     0
279
    -2
289
     1
 69
     0
  7
STANDARD
140
0.25
170
     5
 62
     0
 63
     7
283
     0
 90
      512
 91
        0
  1

274
    -2
284
     1
 64
     0
275
    -2
285
     1
 65
     0
276
    -2
286
     1
 66
     0
277
    -2
287
     1
 67
     0
278
    -2
288
     1
 68
     0
279
    -2
289
     1
 69
     0
  7
STANDARD
140
0.18
170
     5
 62
     0
 63
     7
283
     0
 90
      512
 91
        0
  1

274
    -2
284
     1
 64
     0
275
    -2
285
     1
 65
     0
276
    -2
286
     1
 66
     0
277
    -2
287
     1
 67
     0
278
    -2
288
     1
 68
     0
279
    -2
289
     1
 69
     0
  0
VISUALSTYLE
  5
2F
102
{ACAD_REACTORS
330
29
102
}
330
29
100
AcDbVisualStyle
  2
2dWireframe
 70
     4
177
     3
291
     0
 70
    58
 90
        0
176
     1
 90
        2
176
     1
 90
        0
176
     1
 90
        0
176
     1
 40
0.6
176
     1
 40
30.0
176
     1
 62
     7
420
 16777215
176
     1
 90
        1
176
     1
 90
        4
176
     1
 62
     7
176
     1
 62
   257
176
     1
 90
        1
176
     1
 90
        1
176
     1
 40
1.0
176
     1
 90
        0
176
     1
 62
   257
176
     1
 40
1.0
176
     1
 90
        1
176
     1
 90
        6
176
     1
 90
        2
176
     1
 62
     7
176
     1
 90
        5
176
     1
 90
        0
176
     1
 90
        0
176
     1
290
     0
176
     1
 90
        1
176
     1
 40
0.0
176
     1
 90
        0
176
     1
290
     1
176
     1
290
     1
176
     1
290
     0
176
     1
290
     0
176
     1
290
     0
176
     1
290
     0
176
     1
290
     0
176
     1
290
     0
176
     1
290
     0
176
     1
 90
       50
176
     1
 40
0.0
176
     1
 40
1.0
176
     1
 90
        0
176
     1
 62
    18
420
        0
176
     1
 90
       50
176
     1
 90
        3
176
     1
 62
     5
420
      255
176
     1
290
     0
176
     1
 90
       50
176
     1
 90
       50
176
     1
 90
       50
176
     1
290
     0
176
     1
 90
       50
176
     1
 62
   256
176
     0
 40
1.0
176
     0
 90
        2
176
     1
  1
strokes_ogs.tif
176
     1
290
     0
176
     1
 40
1.0
176
     1
 40
1.0
176
     1
  0
VISUALSTYLE
  5
2E
102
{ACAD_REACTORS
330
29
102
}
330
29
100
AcDbVisualStyle
  2
Basic
 70
     7
177
     3
291
     1
 70
    58
 90
        1
176
     1
 90
        0
176
     1
 90
        1
176
     1
 90
        0
176
     1
 40
0.6
176
     1
 40
30.0
176
     1
 62
     7
420
 16777215
176
     1
 90
        0
176
     1
 90
        4
176
     1
 62
     7
176
     1
 62
   257
176
     1
 90
        1
176
     1
 90
        1
176
     1
 40
1.0
176
     1
 90
        8
176
     1
 62
     7
176
     1
 40
1.0
176
     1
 90
        1
176
     1
 90
        6
176
     1
 90
        2
176
     1
 62
     7
176
     1
 90
        5
176
     1
 90
        0
176
     1
 90
        0
176
     1
290
     0
176
     1
 90
        1
176
     1
 40
0.0
176
     1
 90
        0
176
     1
290
     0
176
     1
290
     1
176
     1
290
     1
176
     1
290
     0
176
     1
290
     0
176
     1
290
     0
176
     1
290
     0
176
     1
290
     0
176
     1
290
     0
176
     1
 90
       50
176
     1
 40
0.0
176
     1
 40
1.0
176
     1
 90
        0
176
     1
 62
    18
420
        0
176
     1
 90
       50
176
     1
 90
        3
176
     1
 62
     5
420
      255
176
     1
290
     0
176
     1
 90
       50
176
     1
 90
       50
176
     1
 90
       50
176
     1
290
     0
176
     1
 90
       50
176
     1
 62
   256
176
     0
 40
1.0
176
     0
 90
        2
176
     1
  1
strokes_ogs.tif
176
     1
290
     0
176
     1
 40
1.0
176
     1
 40
1.0
176
     1
  0
VISUALSTYLE
  5
35
102
{ACAD_REACTORS
330
29
102
}
330
29
100
AcDbVisualStyle
  2
Brighten
 70
    12
177
     3
291
     1
 70
    58
 90
        2
176
     1
 90
        2
176
     1
 90
        0
176
     1
 90
        0
176
     1
 40
0.6
176
     1
 40
30.0
176
     1
 62
     7
420
 16777215
176
     1
 90
        1
176
     1
 90
        4
176
     1
 62
     7
176
     1
 62
   257
176
     1
 90
        1
176
     1
 90
        1
176
     1
 40
1.0
176
     1
 90
        8
176
     1
 62
     7
176
     1
 40
1.0
176
     1
 90
        1
176
     1
 90
        6
176
     1
 90
        2
176
     1
 62
     7
176
     1
 90
        5
176
     1
 90
        0
176
     1
 90
        0
176
     1
290
     0
176
     1
 90
        1
176
     1
 40
50.0
176
     1
 90
        0
176
     1
290
     0
176
     1
290
     1
176
     1
290
     1
176
     1
290
     0
176
     1
290
     0
176
     1
290
     0
176
     1
290
     0
176
     1
290
     0
176
     1
290
     0
176
     1
 90
       50
176
     1
 40
0.0
176
     1
 40
1.0
176
     1
 90
        0
176
     1
 62
    18
420
        0
176
     1
 90
       50
176
     1
 90
        3
176
     1
 62
     5
420
      255
176
     1
290
     0
176
     1
 90
       50
176
     1
 90
       50
176
     1
 90
       50
176
     1
290
     0
176
     1
 90
       50
176
     1
 62
   256
176
     0
 40
1.0
176
     0
 90
        2
176
     1
  1
strokes_ogs.tif
176
     1
290
     0
176
     1
 40
1.0
176
     1
 40
1.0
176
     1
  0
VISUALSTYLE
  5
39
102
{ACAD_REACTORS
330
29
102
}
330
29
100
AcDbVisualStyle
  2
ColorChange
 70
    16
177
     3
291
     1
 70
    58
 90
        2
176
     1
 90
        2
176
     1
 90
        3
176
     1
 90
        0
176
     1
 40
0.6
176
     1
 40
30.0
176
     1
 62
     8
420
  8421504
176
     1
 90
        1
176
     1
 90
        4
176
     1
 62
     7
176
     1
 62
   257
176
     1
 90
        1
176
     1
 90
        1
176
     1
 40
1.0
176
     1
 90
        8
176
     1
 62
     8
420
  8421504
176
     1
 40
1.0
176
     1
 90
        1
176
     1
 90
        6
176
     1
 90
        2
176
     1
 62
     7
176
     1
 90
        5
176
     1
 90
        0
176
     1
 90
        0
176
     1
290
     0
176
     1
 90
        1
176
     1
 40
0.0
176
     1
 90
        0
176
     1
290
     0
176
     1
290
     1
176
     1
290
     1
176
     1
290
     0
176
     1
290
     0
176
     1
290
     0
176
     1
290
     0
176
     1
290
     0
176
     1
290
     0
176
     1
 90
       50
176
     1
 40
0.0
176
     1
 40
1.0
176
     1
 90
        0
176
     1
 62
    18
420
        0
176
     1
 90
       50
176
     1
 90
        3
176
     1
 62
     5
420
      255
176
     1
290
     0
176
     1
 90
       50
176
     1
 90
       50
176
     1
 90
       50
176
     1
290
     0
176
     1
 90
       50
176
     1
 62
   256
176
     0
 40
1.0
176
     0
 90
        2
176
     1
  1
strokes_ogs.tif
176
     1
290
     0
176
     1
 40
1.0
176
     1
 40
1.0
176
     1
  0
VISUALSTYLE
  5
32
102
{ACAD_REACTORS
330
29
102
}
330
29
100
AcDbVisualStyle
  2
Conceptual
 70
     9
177
     3
291
     0
 70
    58
 90
        3
176
     1
 90
        2
176
     1
 90
        0
176
     1
 90
        0
176
     1
 40
0.6
176
     1
 40
30.0
176
     1
 62
     7
420
 16777215
176
     1
 90
        2
176
     1
 90
        2
176
     1
 62
     7
176
     1
 62
   257
176
     1
 90
        1
176
     1
 90
        1
176
     1
 40
179.0
176
     1
 90
        8
176
     1
 62
     7
176
     1
 40
1.0
176
     1
 90
        1
176
     1
 90
        6
176
     1
 90
        2
176
     1
 62
     7
176
     1
 90
        3
176
     1
 90
        0
176
     1
 90
        0
176
     1
290
     0
176
     1
 90
        1
176
     1
 40
0.0
176
     1
 90
        0
176
     1
290
     0
176
     1
290
     1
176
     1
290
     1
176
     1
290
     0
176
     1
290
     0
176
     1
290
     0
176
     1
290
     0
176
     1
290
     0
176
     1
290
     0
176
     1
 90
       50
176
     1
 40
0.0
176
     1
 40
1.0
176
     1
 90
        0
176
     1
 62
    18
420
        0
176
     1
 90
       50
176
     1
 90
        3
176
     1
 62
     5
420
      255
176
     1
290
     0
176
     1
 90
       50
176
     1
 90
       50
176
     1
 90
       50
176
     1
290
     0
176
     1
 90
       50
176
     1
 62
   256
176
     0
 40
1.0
176
     0
 90
        2
176
     1
  1
strokes_ogs.tif
176
     1
290
     0
176
     1
 40
1.0
176
     1
 40
1.0
176
     1
  0
VISUALSTYLE
  5
34
102
{ACAD_REACTORS
330
29
102
}
330
29
100
AcDbVisualStyle
  2
Dim
 70
    11
177
     3
291
     1
 70
    58
 90
        2
176
     1
 90
        2
176
     1
 90
        0
176
     1
 90
        0
176
     1
 40
0.6
176
     1
 40
30.0
176
     1
 62
     7
420
 16777215
176
     1
 90
        1
176
     1
 90
        4
176
     1
 62
     7
176
     1
 62
   257
176
     1
 90
        1
176
     1
 90
        1
176
     1
 40
1.0
176
     1
 90
        8
176
     1
 62
     7
176
     1
 40
1.0
176
     1
 90
        1
176
     1
 90
        6
176
     1
 90
        2
176
     1
 62
     7
176
     1
 90
        5
176
     1
 90
        0
176
     1
 90
        0
176
     1
290
     0
176
     1
 90
        1
176
     1
 40
-50.0
176
     1
 90
        0
176
     1
290
     0
176
     1
290
     1
176
     1
290
     1
176
     1
290
     0
176
     1
290
     0
176
     1
290
     0
176
     1
290
     0
176
     1
290
     0
176
     1
290
     0
176
     1
 90
       50
176
     1
 40
0.0
176
     1
 40
1.0
176
     1
 90
        0
176
     1
 62
    18
420
        0
176
     1
 90
       50
176
     1
 90
        3
176
     1
 62
     5
420
      255
176
     1
290
     0
176
     1
 90
       50
176
     1
 90
       50
176
     1
 90
       50
176
     1
290
     0
176
     1
 90
       50
176
     1
 62
   256
176
     0
 40
1.0
176
     0
 90
        2
176
     1
  1
strokes_ogs.tif
176
     1
290
     0
176
     1
 40
1.0
176
     1
 40
1.0
176
     1
  0
VISUALSTYLE
  5
41
102
{ACAD_REACTORS
330
29
102
}
330
29
100
AcDbVisualStyle
  2
EdgeColorOff
 70
    22
177
     3
291
     1
 70
    58
 90
        2
176
     0
 90
        2
176
     0
 90
        0
176
     0
 90
        0
176
     0
 40
0.6
176
     0
 40
30.0
176
     0
 62
     7
420
 16777215
176
     0
 90
        1
176
     0
 90
        4
176
     0
 62
     7
176
     0
 62
   257
176
     0
 90
        1
176
     0
 90
        1
176
     0
 40
1.0
176
     0
 90
        8
176
     2
 62
     7
176
     0
 40
1.0
176
     0
 90
        1
176
     0
 90
        6
176
     0
 90
        2
176
     0
 62
     7
176
     0
 90
        5
176
     0
 90
        0
176
     0
 90
        0
176
     0
290
     0
176
     0
 90
        1
176
     0
 40
0.0
176
     0
 90
        0
176
     0
290
     0
176
     0
290
     1
176
     0
290
     1
176
     0
290
     0
176
     0
290
     0
176
     0
290
     0
176
     0
290
     0
176
     0
290
     0
176
     0
290
     0
176
     0
 90
       50
176
     0
 40
0.0
176
     0
 40
1.0
176
     0
 90
        0
176
     0
 62
    18
420
        0
176
     0
 90
       50
176
     0
 90
        3
176
     0
 62
     5
420
      255
176
     0
290
     0
176
     0
 90
       50
176
     0
 90
       50
176
     0
 90
       50
176
     0
290
     0
176
     0
 90
       50
176
     0
 62
   256
176
     0
 40
1.0
176
     0
 90
        2
176
     0
  1
strokes_ogs.tif
176
     0
290
     0
176
     0
 40
1.0
176
     0
 40
1.0
176
     0
  0
VISUALSTYLE
  5
38
102
{ACAD_REACTORS
330
29
102
}
330
29
100
AcDbVisualStyle
  2
Facepattern
 70
    15
177
     3
291
     1
 70
    58
 90
        2
176
     1
 90
        2
176
     1
 90
        0
176
     1
 90
        0
176
     1
 40
0.6
176
     1
 40
30.0
176
     1
 62
     7
420
 16777215
176
     1
 90
        1
176
     1
 90
        4
176
     1
 62
     7
176
     1
 62
   257
176
     1
 90
        1
176
     1
 90
        1
176
     1
 40
1.0
176
     1
 90
        8
176
     1
 62
     7
176
     1
 40
1.0
176
     1
 90
        1
176
     1
 90
        6
176
     1
 90
        2
176
     1
 62
     7
176
     1
 90
        5
176
     1
 90
        0
176
     1
 90
        0
176
     1
290
     0
176
     1
 90
        1
176
     1
 40
0.0
176
     1
 90
        0
176
     1
290
     0
176
     1
290
     1
176
     1
290
     1
176
     1
290
     0
176
     1
290
     0
176
     1
290
     0
176
     1
290
     0
176
     1
290
     0
176
     1
290
     0
176
     1
 90
       50
176
     1
 40
0.0
176
     1
 40
1.0
176
     1
 90
        0
176
     1
 62
    18
420
        0
176
     1
 90
       50
176
     1
 90
        3
176
     1
 62
     5
420
      255
176
     1
290
     0
176
     1
 90
       50
176
     1
 90
       50
176
     1
 90
       50
176
     1
290
     0
176
     1
 90
       50
176
     1
 62
   256
176
     0
 40
1.0
176
     0
 90
        2
176
     1
  1
strokes_ogs.tif
176
     1
290
     0
176
     1
 40
1.0
176
     1
 40
1.0
176
     1
  0
VISUALSTYLE
  5
2A
102
{ACAD_REACTORS
330
29
102
}
330
29
100
AcDbVisualStyle
  2
Flat
 70
     0
177
     3
291
     1
 70
    58
 90
        2
176
     1
 90
        1
176
     1
 90
        1
176
     1
 90
        2
176
     1
 40
0.6
176
     1
 40
30.0
176
     1
 62
     7
420
 16777215
176
     1
 90
        0
176
     1
 90
        0
176
     1
 62
     7
176
     1
 62
   257
176
     1
 90
        1
176
     1
 90
        1
176
     1
 40
1.0
176
     1
 90
        8
176
     1
 62
     7
176
     1
 40
1.0
176
     1
 90
        1
176
     1
 90
        6
176
     1
 90
        2
176
     1
 62
     7
176
     1
 90
        5
176
     1
 90
        0
176
     1
 90
        0
176
     1
290
     0
176
     1
 90
       13
176
     1
 40
0.0
176
     1
 90
        0
176
     1
290
     0
176
     1
290
     1
176
     1
290
     1
176
     1
290
     0
176
     1
290
     0
176
     1
290
     0
176
     1
290
     0
176
     1
290
     0
176
     1
290
     0
176
     1
 90
       50
176
     1
 40
0.0
176
     1
 40
1.0
176
     1
 90
        0
176
     1
 62
    18
420
        0
176
     1
 90
       50
176
     1
 90
        3
176
     1
 62
     5
420
      255
176
     1
290
     0
176
     1
 90
       50
176
     1
 90
       50
176
     1
 90
       50
176
     1
290
     0
176
     1
 90
       50
176
     1
 62
   256
176
     0
 40
1.0
176
     0
 90
        2
176
     1
  1
strokes_ogs.tif
176
     1
290
     0
176
     1
 40
1.0
176
     1
 40
1.0
176
     1
  0
VISUALSTYLE
  5
2B
102
{ACAD_REACTORS
330
29
102
}
330
29
100
AcDbVisualStyle
  2
FlatWithEdges
 70
     1
177
     3
291
     1
 70
    58
 90
        2
176
     1
 90
        1
176
     1
 90
        1
176
     1
 90
        2
176
     1
 40
0.6
176
     1
 40
30.0
176
     1
 62
     7
420
 16777215
176
     1
 90
        1
176
     1
 90
        0
176
     1
 62
     7
176
     1
 62
   257
176
     1
 90
        1
176
     1
 90
        1
176
     1
 40
1.0
176
     1
 90
        0
176
     1
 62
   257
176
     1
 40
1.0
176
     1
 90
        1
176
     1
 90
        6
176
     1
 90
        2
176
     1
 62
     7
176
     1
 90
        5
176
     1
 90
        0
176
     1
 90
        0
176
     1
290
     0
176
     1
 90
       13
176
     1
 40
0.0
176
     1
 90
        0
176
     1
290
     0
176
     1
290
     1
176
     1
290
     1
176
     1
290
     0
176
     1
290
     0
176
     1
290
     0
176
     1
290
     0
176
     1
290
     0
176
     1
290
     0
176
     1
 90
       50
176
     1
 40
0.0
176
     1
 40
1.0
176
     1
 90
        0
176
     1
 62
    18
420
        0
176
     1
 90
       50
176
     1
 90
        3
176
     1
 62
     5
420
      255
176
     1
290
     0
176
     1
 90
       50
176
     1
 90
       50
176
     1
 90
       50
176
     1
290
     0
176
     1
 90
       50
176
     1
 62
   256
176
     0
 40
1.0
176
     0
 90
        2
176
     1
  1
strokes_ogs.tif
176
     1
290
     0
176
     1
 40
1.0
176
     1
 40
1.0
176
     1
  0
VISUALSTYLE
  5
2C
102
{ACAD_REACTORS
330
29
102
}
330
29
100
AcDbVisualStyle
  2
Gouraud
 70
     2
177
     3
291
     1
 70
    58
 90
        2
176
     1
 90
        2
176
     1
 90
        1
176
     1
 90
        2
176
     1
 40
0.6
176
     1
 40
30.0
176
     1
 62
     7
420
 16777215
176
     1
 90
        0
176
     1
 90
        0
176
     1
 62
     7
176
     1
 62
   257
176
     1
 90
        1
176
     1
 90
        1
176
     1
 40
1.0
176
     1
 90
        0
176
     1
 62
     7
176
     1
 40
1.0
176
     1
 90
        1
176
     1
 90
        6
176
     1
 90
        2
176
     1
 62
     7
176
     1
 90
        5
176
     1
 90
        0
176
     1
 90
        0
176
     1
290
     0
176
     1
 90
       13
176
     1
 40
0.0
176
     1
 90
        0
176
     1
290
     0
176
     1
290
     1
176
     1
290
     1
176
     1
290
     0
176
     1
290
     0
176
     1
290
     0
176
     1
290
     0
176
     1
290
     0
176
     1
290
     0
176
     1
 90
       50
176
     1
 40
0.0
176
     1
 40
1.0
176
     1
 90
        0
176
     1
 62
    18
420
        0
176
     1
 90
       50
176
     1
 90
        3
176
     1
 62
     5
420
      255
176
     1
290
     0
176
     1
 90
       50
176
     1
 90
       50
176
     1
 90
       50
176
     1
290
     0
176
     1
 90
       50
176
     1
 62
   256
176
     0
 40
1.0
176
     0
 90
        2
176
     1
  1
strokes_ogs.tif
176
     1
290
     0
176
     1
 40
1.0
176
     1
 40
1.0
176
     1
  0
VISUALSTYLE
  5
2D
102
{ACAD_REACTORS
330
29
102
}
330
29
100
AcDbVisualStyle
  2
GouraudWithEdges
 70
     3
177
     3
291
     1
 70
    58
 90
        2
176
     1
 90
        2
176
     1
 90
        1
176
     1
 90
        2
176
     1
 40
0.6
176
     1
 40
30.0
176
     1
 62
     7
420
 16777215
176
     1
 90
        1
176
     1
 90
        0
176
     1
 62
     7
176
     1
 62
   257
176
     1
 90
        1
176
     1
 90
        1
176
     1
 40
1.0
176
     1
 90
        0
176
     1
 62
   257
176
     1
 40
1.0
176
     1
 90
        1
176
     1
 90
        6
176
     1
 90
        2
176
     1
 62
     7
176
     1
 90
        5
176
     1
 90
        0
176
     1
 90
        0
176
     1
290
     0
176
     1
 90
       13
176
     1
 40
0.0
176
     1
 90
        0
176
     1
290
     0
176
     1
290
     1
176
     1
290
     1
176
     1
290
     0
176
     1
290
     0
176
     1
290
     0
176
     1
290
     0
176
     1
290
     0
176
     1
290
     0
176
     1
 90
       50
176
     1
 40
0.0
176
     1
 40
1.0
176
     1
 90
        0
176
     1
 62
    18
420
        0
176
     1
 90
       50
176
     1
 90
        3
176
     1
 62
     5
420
      255
176
     1
290
     0
176
     1
 90
       50
176
     1
 90
       50
176
     1
 90
       50
176
     1
290
     0
176
     1
 90
       50
176
     1
 62
   256
176
     0
 40
1.0
176
     0
 90
        2
176
     1
  1
strokes_ogs.tif
176
     1
290
     0
176
     1
 40
1.0
176
     1
 40
1.0
176
     1
  0
VISUALSTYLE
  5
31
102
{ACAD_REACTORS
330
29
102
}
330
29
100
AcDbVisualStyle
  2
Hidden
 70
     6
177
     3
291
     0
 70
    58
 90
        1
176
     1
 90
        2
176
     1
 90
        2
176
     1
 90
        0
176
     1
 40
0.6
176
     1
 40
30.0
176
     1
 62
     7
420
 16777215
176
     1
 90
        2
176
     1
 90
        2
176
     1
 62
     7
176
     1
 62
   257
176
     1
 90
        2
176
     1
 90
        1
176
     1
 40
40.0
176
     1
 90
        0
176
     1
 62
   257
176
     1
 40
1.0
176
     1
 90
        1
176
     1
 90
        6
176
     1
 90
        2
176
     1
 62
     7
176
     1
 90
        3
176
     1
 90
        0
176
     1
 90
        0
176
     1
290
     0
176
     1
 90
        1
176
     1
 40
0.0
176
     1
 90
        0
176
     1
290
     0
176
     1
290
     1
176
     1
290
     1
176
     1
290
     0
176
     1
290
     0
176
     1
290
     0
176
     1
290
     0
176
     1
290
     0
176
     1
290
     0
176
     1
 90
       50
176
     1
 40
0.0
176
     1
 40
1.0
176
     1
 90
        0
176
     1
 62
    18
420
        0
176
     1
 90
       50
176
     1
 90
        3
176
     1
 62
     5
420
      255
176
     1
290
     0
176
     1
 90
       50
176
     1
 90
       50
176
     1
 90
       50
176
     1
290
     0
176
     1
 90
       50
176
     1
 62
   256
176
     0
 40
1.0
176
     0
 90
        2
176
     1
  1
strokes_ogs.tif
176
     1
290
     0
176
     1
 40
1.0
176
     1
 40
1.0
176
     1
  0
VISUALSTYLE
  5
3F
102
{ACAD_REACTORS
330
29
102
}
330
29
100
AcDbVisualStyle
  2
JitterOff
 70
    20
177
     3
291
     1
 70
    58
 90
        2
176
     0
 90
        2
176
     0
 90
        0
176
     0
 90
        0
176
     0
 40
0.6
176
     0
 40
30.0
176
     0
 62
     7
420
 16777215
176
     0
 90
        1
176
     0
 90
        4
176
     0
 62
     7
176
     0
 62
   257
176
     0
 90
        1
176
     0
 90
        1
176
     0
 40
1.0
176
     0
 90
       10
176
     2
 62
     7
176
     0
 40
1.0
176
     0
 90
        1
176
     0
 90
        6
176
     0
 90
        2
176
     0
 62
     7
176
     0
 90
        5
176
     0
 90
        0
176
     0
 90
        0
176
     0
290
     0
176
     0
 90
        1
176
     0
 40
0.0
176
     0
 90
        0
176
     0
290
     0
176
     0
290
     1
176
     0
290
     1
176
     0
290
     0
176
     0
290
     0
176
     0
290
     0
176
     0
290
     0
176
     0
290
     0
176
     0
290
     0
176
     0
 90
       50
176
     0
 40
0.0
176
     0
 40
1.0
176
     0
 90
        0
176
     0
 62
    18
420
        0
176
     0
 90
       50
176
     0
 90
        3
176
     0
 62
     5
420
      255
176
     0
290
     0
176
     0
 90
       50
176
     0
 90
       50
176
     0
 90
       50
176
     0
290
     0
176
     0
 90
       50
176
     0
 62
   256
176
     0
 40
1.0
176
     0
 90
        2
176
     0
  1
strokes_ogs.tif
176
     0
290
     0
176
     0
 40
1.0
176
     0
 40
1.0
176
     0
  0
VISUALSTYLE
  5
37
102
{ACAD_REACTORS
330
29
102
}
330
29
100
AcDbVisualStyle
  2
Linepattern
 70
    14
177
     3
291
     1
 70
    58
 90
        2
176
     1
 90
        2
176
     1
 90
        0
176
     1
 90
        0
176
     1
 40
0.6
176
     1
 40
30.0
176
     1
 62
     7
420
 16777215
176
     1
 90
        1
176
     1
 90
        4
176
     1
 62
     7
176
     1
 62
   257
176
     1
 90
        7
176
     1
 90
        7
176
     1
 40
1.0
176
     1
 90
        8
176
     1
 62
     7
176
     1
 40
1.0
176
     1
 90
        1
176
     1
 90
        6
176
     1
 90
        2
176
     1
 62
     7
176
     1
 90
        5
176
     1
 90
        0
176
     1
 90
        0
176
     1
290
     0
176
     1
 90
        1
176
     1
 40
0.0
176
     1
 90
        0
176
     1
290
     0
176
     1
290
     1
176
     1
290
     1
176
     1
290
     0
176
     1
290
     0
176
     1
290
     0
176
     1
290
     0
176
     1
290
     0
176
     1
290
     0
176
     1
 90
       50
176
     1
 40
0.0
176
     1
 40
1.0
176
     1
 90
        0
176
     1
 62
    18
420
        0
176
     1
 90
       50
176
     1
 90
        3
176
     1
 62
     5
420
      255
176
     1
290
     0
176
     1
 90
       50
176
     1
 90
       50
176
     1
 90
       50
176
     1
290
     0
176
     1
 90
       50
176
     1
 62
   256
176
     0
 40
1.0
176
     0
 90
        2
176
     1
  1
strokes_ogs.tif
176
     1
290
     0
176
     1
 40
1.0
176
     1
 40
1.0
176
     1
  0
VISUALSTYLE
  5
40
102
{ACAD_REACTORS
330
29
102
}
330
29
100
AcDbVisualStyle
  2
OverhangOff
 70
    21
177
     3
291
     1
 70
    58
 90
        2
176
     0
 90
        2
176
     0
 90
        0
176
     0
 90
        0
176
     0
 40
0.6
176
     0
 40
30.0
176
     0
 62
     7
420
 16777215
176
     0
 90
        1
176
     0
 90
        4
176
     0
 62
     7
176
     0
 62
   257
176
     0
 90
        1
176
     0
 90
        1
176
     0
 40
1.0
176
     0
 90
        9
176
     2
 62
     7
176
     0
 40
1.0
176
     0
 90
        1
176
     0
 90
        6
176
     0
 90
        2
176
     0
 62
     7
176
     0
 90
        5
176
     0
 90
        0
176
     0
 90
        0
176
     0
290
     0
176
     0
 90
        1
176
     0
 40
0.0
176
     0
 90
        0
176
     0
290
     0
176
     0
290
     1
176
     0
290
     1
176
     0
290
     0
176
     0
290
     0
176
     0
290
     0
176
     0
290
     0
176
     0
290
     0
176
     0
290
     0
176
     0
 90
       50
176
     0
 40
0.0
176
     0
 40
1.0
176
     0
 90
        0
176
     0
 62
    18
420
        0
176
     0
 90
       50
176
     0
 90
        3
176
     0
 62
     5
420
      255
176
     0
290
     0
176
     0
 90
       50
176
     0
 90
       50
176
     0
 90
       50
176
     0
290
     0
176
     0
 90
       50
176
     0
 62
   256
176
     0
 40
1.0
176
     0
 90
        2
176
     0
  1
strokes_ogs.tif
176
     0
290
     0
176
     0
 40
1.0
176
     0
 40
1.0
176
     0
  0
VISUALSTYLE
  5
33
102
{ACAD_REACTORS
330
29
102
}
330
29
100
AcDbVisualStyle
  2
Realistic
 70
     8
177
     3
291
     0
 70
    58
 90
        2
176
     1
 90
        3
176
     1
 90
        0
176
     1
 90
        2
176
     1
 40
0.6
176
     1
 40
30.0
176
     1
 62
     7
420
 16777215
176
     1
 90
        0
176
     1
 90
        0
176
     1
 62
     7
176
     1
 62
   257
176
     1
 90
        1
176
     1
 90
        1
176
     1
 40
1.0
176
     1
 90
        8
176
     1
 62
   257
176
     1
 40
1.0
176
     1
 90
        1
176
     1
 90
        6
176
     1
 90
        2
176
     1
 62
     7
176
     1
 90
        3
176
     1
 90
        0
176
     1
 90
        0
176
     1
290
     0
176
     1
 90
       13
176
     1
 40
0.0
176
     1
 90
        0
176
     1
290
     0
176
     1
290
     1
176
     1
290
     1
176
     1
290
     0
176
     1
290
     0
176
     1
290
     0
176
     1
290
     0
176
     1
290
     0
176
     1
290
     0
176
     1
 90
       50
176
     1
 40
0.0
176
     1
 40
1.0
176
     1
 90
        0
176
     1
 62
    18
420
        0
176
     1
 90
       50
176
     1
 90
        3
176
     1
 62
     5
420
      255
176
     1
290
     0
176
     1
 90
       50
176
     1
 90
       50
176
     1
 90
       50
176
     1
290
     0
176
     1
 90
       50
176
     1
 62
   256
176
     0
 40
1.0
176
     0
 90
        2
176
     1
  1
strokes_ogs.tif
176
     1
290
     0
176
     1
 40
1.0
176
     1
 40
1.0
176
     1
  0
VISUALSTYLE
  5
3E
102
{ACAD_REACTORS
330
29
102
}
330
29
100
AcDbVisualStyle
  2
Shaded
 70
    27
177
     3
291
     0
 70
    58
 90
        2
176
     1
 90
        2
176
     1
 90
        1
176
     1
 90
        2
176
     1
 40
0.6
176
     1
 40
30.0
176
     1
 62
     7
420
 16777215
176
     1
 90
        0
176
     1
 90
        4
176
     1
 62
     7
176
     1
 62
   257
176
     1
 90
        1
176
     1
 90
        1
176
     1
 40
1.0
176
     1
 90
        8
176
     1
 62
   257
176
     1
 40
1.0
176
     1
 90
        1
176
     1
 90
        6
176
     1
 90
        2
176
     1
 62
     8
420
  7895160
176
     1
 90
        3
176
     1
 90
        0
176
     1
 90
        0
176
     1
290
     0
176
     1
 90
        5
176
     1
 40
0.0
176
     1
 90
        0
176
     1
290
     0
176
     1
290
     1
176
     1
290
     1
176
     1
290
     0
176
     1
290
     0
176
     1
290
     0
176
     1
290
     0
176
     1
290
     0
176
     1
290
     0
176
     1
 90
       50
176
     1
 40
0.0
176
     1
 40
1.0
176
     1
 90
        0
176
     1
 62
    18
420
        0
176
     1
 90
       50
176
     1
 90
        3
176
     1
 62
     5
420
      255
176
     1
290
     0
176
     1
 90
       50
176
     1
 90
       50
176
     1
 90
       50
176
     1
290
     0
176
     1
 90
       50
176
     1
 62
   256
176
     0
 40
1.0
176
     0
 90
        2
176
     1
  1
strokes_ogs.tif
176
     1
290
     0
176
     1
 40
1.0
176
     1
 40
1.0
176
     1
  0
VISUALSTYLE
  5
3D
102
{ACAD_REACTORS
330
29
102
}
330
29
100
AcDbVisualStyle
  2
Shaded with edges
 70
    26
177
     3
291
     0
 70
    58
 90
        2
176
     1
 90
        2
176
     1
 90
        1
176
     1
 90
        2
176
     1
 40
0.6
176
     1
 40
30.0
176
     1
 62
     7
420
 16777215
176
     1
 90
        1
176
     1
 90
       10
176
     1
 62
     7
176
     1
 62
   257
176
     1
 90
        2
176
     1
 90
        1
176
     1
 40
1.0
176
     1
 90
        8
176
     1
 62
   257
176
     1
 40
1.0
176
     1
 90
        1
176
     1
 90
        6
176
     1
 90
        2
176
     1
 62
     7
176
     1
 90
        3
176
     1
 90
        0
176
     1
 90
        0
176
     1
290
     0
176
     1
 90
        5
176
     1
 40
0.0
176
     1
 90
        0
176
     1
290
     0
176
     1
290
     1
176
     1
290
     1
176
     1
290
     0
176
     1
290
     0
176
     1
290
     0
176
     1
290
     0
176
     1
290
     0
176
     1
290
     0
176
     1
 90
       50
176
     1
 40
0.0
176
     1
 40
1.0
176
     1
 90
        0
176
     1
 62
    18
420
        0
176
     1
 90
       50
176
     1
 90
        3
176
     1
 62
     5
420
      255
176
     1
290
     0
176
     1
 90
       50
176
     1
 90
       50
176
     1
 90
       50
176
     1
290
     0
176
     1
 90
       50
176
     1
 62
   256
176
     0
 40
1.0
176
     0
 90
        2
176
     1
  1
strokes_ogs.tif
176
     1
290
     0
176
     1
 40
1.0
176
     1
 40
1.0
176
     1
  0
VISUALSTYLE
  5
3A
102
{ACAD_REACTORS
330
29
102
}
330
29
100
AcDbVisualStyle
  2
Shades of Gray
 70
    23
177
     3
291
     0
 70
    58
 90
        2
176
     1
 90
        2
176
     1
 90
        3
176
     1
 90
        0
176
     1
 40
0.6
176
     1
 40
30.0
176
     1
 62
     7
420
 16777215
176
     1
 90
        2
176
     1
 90
        2
176
     1
 62
     7
176
     1
 62
     7
176
     1
 90
        1
176
     1
 90
        1
176
     1
 40
40.0
176
     1
 90
        8
176
     1
 62
     7
176
     1
 40
1.0
176
     1
 90
        1
176
     1
 90
        6
176
     1
 90
        2
176
     1
 62
     7
176
     1
 90
        3
176
     1
 90
        0
176
     1
 90
        0
176
     1
290
     0
176
     1
 90
        1
176
     1
 40
0.0
176
     1
 90
        0
176
     1
290
     0
176
     1
290
     1
176
     1
290
     1
176
     1
290
     0
176
     1
290
     0
176
     1
290
     0
176
     1
290
     0
176
     1
290
     0
176
     1
290
     0
176
     1
 90
       50
176
     1
 40
0.0
176
     1
 40
1.0
176
     1
 90
        0
176
     1
 62
    18
420
        0
176
     1
 90
       50
176
     1
 90
        3
176
     1
 62
     5
420
      255
176
     1
290
     0
176
     1
 90
       50
176
     1
 90
       50
176
     1
 90
       50
176
     1
290
     0
176
     1
 90
       50
176
     1
 62
   256
176
     0
 40
1.0
176
     0
 90
        2
176
     1
  1
strokes_ogs.tif
176
     1
290
     0
176
     1
 40
1.0
176
     1
 40
1.0
176
     1
  0
VISUALSTYLE
  5
3B
102
{ACAD_REACTORS
330
29
102
}
330
29
100
AcDbVisualStyle
  2
Sketchy
 70
    24
177
     3
291
     0
 70
    58
 90
        1
176
     1
 90
        2
176
     1
 90
        2
176
     1
 90
        0
176
     1
 40
0.6
176
     1
 40
30.0
176
     1
 62
     7
420
 16777215
176
     1
 90
        2
176
     1
 90
        2
176
     1
 62
     7
176
     1
 62
     7
176
     1
 90
        1
176
     1
 90
        1
176
     1
 40
40.0
176
     1
 90
       11
176
     1
 62
     7
176
     1
 40
1.0
176
     1
 90
        1
176
     1
 90
        6
176
     1
 90
        2
176
     1
 62
     7
176
     1
 90
        6
176
     1
 90
        0
176
     1
 90
        0
176
     1
290
     0
176
     1
 90
        1
176
     1
 40
0.0
176
     1
 90
        0
176
     1
290
     0
176
     1
290
     1
176
     1
290
     1
176
     1
290
     0
176
     1
290
     0
176
     1
290
     0
176
     1
290
     0
176
     1
290
     0
176
     1
290
     0
176
     1
 90
       50
176
     1
 40
0.0
176
     1
 40
1.0
176
     1
 90
        0
176
     1
 62
    18
420
        0
176
     1
 90
       50
176
     1
 90
        3
176
     1
 62
     5
420
      255
176
     1
290
     0
176
     1
 90
       50
176
     1
 90
       50
176
     1
 90
       50
176
     1
290
     0
176
     1
 90
       50
176
     1
 62
   256
176
     0
 40
1.0
176
     0
 90
        2
176
     1
  1
strokes_ogs.tif
176
     1
290
     0
176
     1
 40
1.0
176
     1
 40
1.0
176
     1
  0
VISUALSTYLE
  5
36
102
{ACAD_REACTORS
330
29
102
}
330
29
100
AcDbVisualStyle
  2
Thicken
 70
    13
177
     3
291
     1
 70
    58
 90
        2
176
     1
 90
        2
176
     1
 90
        0
176
     1
 90
        0
176
     1
 40
0.6
176
     1
 40
30.0
176
     1
 62
     7
420
 16777215
176
     1
 90
        1
176
     1
 90
        4
176
     1
 62
     7
176
     1
 62
   257
176
     1
 90
        1
176
     1
 90
        1
176
     1
 40
1.0
176
     1
 90
       12
176
     1
 62
     7
176
     1
 40
1.0
176
     1
 90
        1
176
     1
 90
        6
176
     1
 90
        2
176
     1
 62
     7
176
     1
 90
        5
176
     1
 90
        0
176
     1
 90
        0
176
     1
290
     0
176
     1
 90
        1
176
     1
 40
0.0
176
     1
 90
        0
176
     1
290
     0
176
     1
290
     1
176
     1
290
     1
176
     1
290
     0
176
     1
290
     0
176
     1
290
     0
176
     1
290
     0
176
     1
290
     0
176
     1
290
     0
176
     1
 90
       50
176
     1
 40
0.0
176
     1
 40
1.0
176
     1
 90
        0
176
     1
 62
    18
420
        0
176
     1
 90
       50
176
     1
 90
        3
176
     1
 62
     5
420
      255
176
     1
290
     0
176
     1
 90
       50
176
     1
 90
       50
176
     1
 90
       50
176
     1
290
     0
176
     1
 90
       50
176
     1
 62
   256
176
     0
 40
1.0
176
     0
 90
        2
176
     1
  1
strokes_ogs.tif
176
     1
290
     0
176
     1
 40
1.0
176
     1
 40
1.0
176
     1
  0
VISUALSTYLE
  5
30
102
{ACAD_REACTORS
330
29
102
}
330
29
100
AcDbVisualStyle
  2
Wireframe
 70
     5
177
     3
291
     0
 70
    58
 90
        0
176
     1
 90
        2
176
     1
 90
        0
176
     1
 90
        0
176
     1
 40
0.6
176
     1
 40
30.0
176
     1
 62
     7
420
 16777215
176
     1
 90
        1
176
     1
 90
        4
176
     1
 62
     7
176
     1
 62
   257
176
     1
 90
        1
176
     1
 90
        1
176
     1
 40
1.0
176
     1
 90
        0
176
     1
 62
   257
176
     1
 40
1.0
176
     1
 90
        1
176
     1
 90
        6
176
     1
 90
        2
176
     1
 62
     7
176
     1
 90
        3
176
     1
 90
        0
176
     1
 90
        0
176
     1
290
     0
176
     1
 90
        1
176
     1
 40
0.0
176
     1
 90
        0
176
     1
290
     0
176
     1
290
     1
176
     1
290
     1
176
     1
290
     0
176
     1
290
     0
176
     1
290
     0
176
     1
290
     0
176
     1
290
     0
176
     1
290
     0
176
     1
 90
       50
176
     1
 40
0.0
176
     1
 40
1.0
176
     1
 90
        0
176
     1
 62
    18
420
        0
176
     1
 90
       50
176
     1
 90
        3
176
     1
 62
     5
420
      255
176
     1
290
     0
176
     1
 90
       50
176
     1
 90
       50
176
     1
 90
       50
176
     1
290
     0
176
     1
 90
       50
176
     1
 62
   256
176
     0
 40
1.0
176
     0
 90
        2
176
     1
  1
strokes_ogs.tif
176
     1
290
     0
176
     1
 40
1.0
176
     1
 40
1.0
176
     1
  0
VISUALSTYLE
  5
3C
102
{ACAD_REACTORS
330
29
102
}
330
29
100
AcDbVisualStyle
  2
X-Ray
 70
    25
177
     3
291
     0
 70
    58
 90
        2
176
     1
 90
        2
176
     1
 90
        1
176
     1
 90
        1
176
     1
 40
0.5
176
     1
 40
30.0
176
     1
 62
     7
420
 16777215
176
     1
 90
        1
176
     1
 90
        0
176
     1
 62
     7
176
     1
 62
   257
176
     1
 90
        1
176
     1
 90
        1
176
     1
 40
1.0
176
     1
 90
        8
176
     1
 62
     7
176
     1
 40
1.0
176
     1
 90
        1
176
     1
 90
        6
176
     1
 90
        2
176
     1
 62
     7
176
     1
 90
        3
176
     1
 90
        0
176
     1
 90
        0
176
     1
290
     0
176
     1
 90
       13
176
     1
 40
0.0
176
     1
 90
        0
176
     1
290
     0
176
     1
290
     1
176
     1
290
     1
176
     1
290
     0
176
     1
290
     0
176
     1
290
     0
176
     1
290
     0
176
     1
290
     0
176
     1
290
     0
176
     1
 90
       50
176
     1
 40
0.0
176
     1
 40
1.0
176
     1
 90
        0
176
     1
 62
    18
420
        0
176
     1
 90
       50
176
     1
 90
        3
176
     1
 62
     5
420
      255
176
     1
290
     0
176
     1
 90
       50
176
     1
 90
       50
176
     1
 90
       50
176
     1
290
     0
176
     1
 90
       50
176
     1
 62
   256
176
     0
 40
1.0
176
     0
 90
        2
176
     1
  1
strokes_ogs.tif
176
     1
290
     0
176
     1
 40
1.0
176
     1
 40
1.0
176
     1
  0
DICTIONARYVAR
  5
402
102
{ACAD_REACTORS
330
3FD
102
}
330
3FD
100
DictionaryVariables
280
     0
  1
1:1
  0
DICTIONARYVAR
  5
3FF
102
{ACAD_REACTORS
330
3FD
102
}
330
3FD
100
DictionaryVariables
280
     0
  1
STANDARD
  0
DICTIONARYVAR
  5
3FE
102
{ACAD_REACTORS
330
3FD
102
}
330
3FD
100
DictionaryVariables
280
     0
  1
STANDARD
  0
DICTIONARYVAR
  5
400
102
{ACAD_REACTORS
330
3FD
102
}
330
3FD
100
DictionaryVariables
280
     0
  1
Imperial24
  0
DICTIONARYVAR
  5
401
102
{ACAD_REACTORS
330
3FD
102
}
330
3FD
100
DictionaryVariables
280
     0
  1
Imperial24
  0
DICTIONARY
  5
45B
330
6A
100
AcDbDictionary
280
     1
281
     1
  3
ACAD_XREC_ROUNDTRIP
360
45C
  0
DICTIONARY
  5
3FB
330
72
100
AcDbDictionary
280
     1
281
     1
  0
DICTIONARY
  5
1A
330
19
100
AcDbDictionary
280
     1
281
     1
  3
BUMPTILE
360
1C
  3
DIFFUSETILE
360
1B
  3
OPACITYTILE
360
1F
  3
REFLECTIONTILE
360
1E
  3
REFRACTIONTILE
360
20
  3
SPECULARTILE
360
1D
  0
DICTIONARY
  5
12
330
11
100
AcDbDictionary
280
     1
281
     1
  3
BUMPTILE
360
14
  3
DIFFUSETILE
360
13
  3
OPACITYTILE
360
17
  3
REFLECTIONTILE
360
16
  3
REFRACTIONTILE
360
18
  3
SPECULARTILE
360
15
  0
DICTIONARY
  5
22
330
21
100
AcDbDictionary
280
     1
281
     1
  3
BUMPTILE
360
24
  3
DIFFUSETILE
360
23
  3
OPACITYTILE
360
27
  3
REFLECTIONTILE
360
26
  3
REFRACTIONTILE
360
28
  3
SPECULARTILE
360
25
  0
DICTIONARY
  5
459
330
68
100
AcDbDictionary
280
     1
281
     1
  3
ACAD_XREC_ROUNDTRIP
360
45A
  0
DICTIONARY
  5
457
330
64
100
AcDbDictionary
280
     1
281
     1
  3
ACAD_ROUNDTRIP_2008_TABLESTYLE_CELLSTYLEMAP
360
458
  0
XRECORD
  5
45C
102
{ACAD_REACTORS
330
45B
102
}
330
45B
100
AcDbXrecord
280
     1
102
DISPLAYNAME
  1
Imperial24
102
FLAGS
 90
        0
  0
XRECORD
  5
1C
102
{ACAD_REACTORS
330
1A
102
}
330
1A
100
AcDbXrecord
280
     1
270
     1
271
     1
  0
XRECORD
  5
1B
102
{ACAD_REACTORS
330
1A
102
}
330
1A
100
AcDbXrecord
280
     1
270
     1
271
     1
  0
XRECORD
  5
1F
102
{ACAD_REACTORS
330
1A
102
}
330
1A
100
AcDbXrecord
280
     1
270
     1
271
     1
  0
XRECORD
  5
1E
102
{ACAD_REACTORS
330
1A
102
}
330
1A
100
AcDbXrecord
280
     1
270
     1
271
     1
  0
XRECORD
  5
20
102
{ACAD_REACTORS
330
1A
102
}
330
1A
100
AcDbXrecord
280
     1
270
     1
271
     1
  0
XRECORD
  5
1D
102
{ACAD_REACTORS
330
1A
102
}
330
1A
100
AcDbXrecord
280
     1
270
     1
271
     1
  0
XRECORD
  5
14
102
{ACAD_REACTORS
330
12
102
}
330
12
100
AcDbXrecord
280
     1
270
     1
271
     1
  0
XRECORD
  5
13
102
{ACAD_REACTORS
330
12
102
}
330
12
100
AcDbXrecord
280
     1
270
     1
271
     1
  0
XRECORD
  5
17
102
{ACAD_REACTORS
330
12
102
}
330
12
100
AcDbXrecord
280
     1
270
     1
271
     1
  0
XRECORD
  5
16
102
{ACAD_REACTORS
330
12
102
}
330
12
100
AcDbXrecord
280
     1
270
     1
271
     1
  0
XRECORD
  5
18
102
{ACAD_REACTORS
330
12
102
}
330
12
100
AcDbXrecord
280
     1
270
     1
271
     1
  0
XRECORD
  5
15
102
{ACAD_REACTORS
330
12
102
}
330
12
100
AcDbXrecord
280
     1
270
     1
271
     1
  0
XRECORD
  5
24
102
{ACAD_REACTORS
330
22
102
}
330
22
100
AcDbXrecord
280
     1
270
     1
271
     1
  0
XRECORD
  5
23
102
{ACAD_REACTORS
330
22
102
}
330
22
100
AcDbXrecord
280
     1
270
     1
271
     1
  0
XRECORD
  5
27
102
{ACAD_REACTORS
330
22
102
}
330
22
100
AcDbXrecord
280
     1
270
     1
271
     1
  0
XRECORD
  5
26
102
{ACAD_REACTORS
330
22
102
}
330
22
100
AcDbXrecord
280
     1
270
     1
271
     1
  0
XRECORD
  5
28
102
{ACAD_REACTORS
330
22
102
}
330
22
100
AcDbXrecord
280
     1
270
     1
271
     1
  0
XRECORD
  5
25
102
{ACAD_REACTORS
330
22
102
}
330
22
100
AcDbXrecord
280
     1
270
     1
271
     1
  0
XRECORD
  5
45A
102
{ACAD_REACTORS
330
459
102
}
330
459
100
AcDbXrecord
280
     1
102
DISPLAYNAME
  1
Imperial24
102
FLAGS
 90
        0
  0
CELLSTYLEMAP
  5
458
102
{ACAD_REACTORS
330
457
102
}
330
457
100
AcDbCellStyleMap
 90
        3
300
CELLSTYLE
  1
TABLEFORMAT_BEGIN
 90
        5
170
     1
 91
        0
 92
    32768
 62
   257
 93
        1
300
CONTENTFORMAT
  1
CONTENTFORMAT_BEGIN
 90
        0
 91
        0
 92
      512
 93
        0
300

 40
0.0
140
1.0
 94
        5
 62
     0
340
55
144
0.25
309
CONTENTFORMAT_END
171
     0
 94
        0
309
TABLEFORMAT_END
  1
CELLSTYLE_BEGIN
 90
        1
 91
        1
300
_TITLE
309
CELLSTYLE_END
300
CELLSTYLE
  1
TABLEFORMAT_BEGIN
 90
        5
170
     1
 91
        0
 92
        0
 62
   257
 93
        1
300
CONTENTFORMAT
  1
CONTENTFORMAT_BEGIN
 90
        0
 91
        0
 92
      512
 93
        0
300

 40
0.0
140
1.0
 94
        5
 62
     0
340
55
144
0.18
309
CONTENTFORMAT_END
171
     0
 94
        0
309
TABLEFORMAT_END
  1
CELLSTYLE_BEGIN
 90
        2
 91
        1
300
_HEADER
309
CELLSTYLE_END
300
CELLSTYLE
  1
TABLEFORMAT_BEGIN
 90
        5
170
     1
 91
        0
 92
        0
 62
   257
 93
        1
300
CONTENTFORMAT
  1
CONTENTFORMAT_BEGIN
 90
        0
 91
        0
 92
      512
 93
        0
300

 40
0.0
140
1.0
 94
        2
 62
     0
340
55
144
0.18
309
CONTENTFORMAT_END
171
     0
 94
        0
309
TABLEFORMAT_END
  1
CELLSTYLE_BEGIN
 90
        3
 91
        2
300
_DATA
309
CELLSTYLE_END
  0
ENDSEC
  0
SECTION
  2
ACDSDATA
 70
     2
 71
     6
  0
ACDSSCHEMA
 90
        0
  1
AcDb_Thumbnail_Schema
  2
AcDbDs::ID
280
    10
 91
        8
  2
Thumbnail_Data
280
    15
 91
        0
101
ACDSRECORD
 95
        0
 90
        1
  2
AcDbDs::TreatedAsObjectData
280
     1
291
     1
101
ACDSRECORD
 95
        0
 90
        2
  2
AcDbDs::Legacy
280
     1
291
     1
101
ACDSRECORD
  1
AcDbDs::ID
 90
        3
  2
AcDs:Indexable
280
     1
291
     1
101
ACDSRECORD
  1
AcDbDs::ID
 90
        4
  2
AcDbDs::HandleAttribute
280
     7
282
     1
  0
ACDSSCHEMA
 90
        1
  1
AcDbDs::TreatedAsObjectDataSchema
  2
AcDbDs::TreatedAsObjectData
280
     1
 91
        0
  0
ACDSSCHEMA
 90
        2
  1
AcDbDs::LegacySchema
  2
AcDbDs::Legacy
280
     1
 91
        0
  0
ACDSSCHEMA
 90
        3
  1
AcDbDs::IndexedPropertySchema
  2
AcDs:Indexable
280
     1
 91
        0
  0
ACDSSCHEMA
 90
        4
  1
AcDbDs::HandleAttributeSchema
  2
AcDbDs::HandleAttribute
280
     7
 91
        1
284
     1
  0
ACDSRECORD
 90
        0
  2
AcDbDs::ID
280
    10
320
72
  2
Thumbnail_Data
280
    15
 94
     1668
310
89504E470D0A1A0A0000000D49484452000001000000009B0803000000BA7AB56000000300504C54455B5B5B000000C8C8C80000000000000000000000000000000000000000000000000000330000660000990000CC0000FF0033000033330033660033990033CC0033FF0066000066330066660066990066CC0066FF0099
310
000099330099660099990099CC0099FF00CC0000CC3300CC6600CC9900CCCC00CCFF00FF0000FF3300FF6600FF9900FFCC00FFFF3300003300333300663300993300CC3300FF3333003333333333663333993333CC3333FF3366003366333366663366993366CC3366FF3399003399333399663399993399CC3399FF33CC00
310
33CC3333CC6633CC9933CCCC33CCFF33FF0033FF3333FF6633FF9933FFCC33FFFF6600006600336600666600996600CC6600FF6633006633336633666633996633CC6633FF6666006666336666666666996666CC6666FF6699006699336699666699996699CC6699FF66CC0066CC3366CC6666CC9966CCCC66CCFF66FF0066
310
FF3366FF6666FF9966FFCC66FFFF9900009900339900669900999900CC9900FF9933009933339933669933999933CC9933FF9966009966339966669966999966CC9966FF9999009999339999669999999999CC9999FF99CC0099CC3399CC6699CC9999CCCC99CCFF99FF0099FF3399FF6699FF9999FFCC99FFFFCC0000CC00
310
33CC0066CC0099CC00CCCC00FFCC3300CC3333CC3366CC3399CC33CCCC33FFCC6600CC6633CC6666CC6699CC66CCCC66FFCC9900CC9933CC9966CC9999CC99CCCC99FFCCCC00CCCC33CCCC66CCCC99CCCCCCCCCCFFCCFF00CCFF33CCFF66CCFF99CCFFCCCCFFFFFF0000FF0033FF0066FF0099FF00CCFF00FFFF3300FF3333
310
FF3366FF3399FF33CCFF33FFFF6600FF6633FF6666FF6699FF66CCFF66FFFF9900FF9933FF9966FF9999FF99CCFF99FFFFCC00FFCC33FFCC66FFCC99FFCCCCFFCCFFFFFF00FFFF33FFFF66FFFF99FFFFCCFFFFFF0000000D0D0D1A1A1A2828283535354343435050505D5D5D6B6B6B787878868686939393A1A1A1AEAEAEBB
310
BBBBC9C9C9D6D6D6E4E4E4F1F1F1FFFFFF00000000000000000000000000000000000000000000000000000000000054549EDE0000033F4944415478DAED9D5B76E3201044B51C7E6AFF9BF162E2D8C87A21C49121A1A8EA331FF35032E9ABEAA21B63799A1C8E410210CFFFF54B3A7F7100CF188E005E59951A40F9C54C00
310
8A6EEAEF551850022894C0EF256F05E46DE0F10C365B2B71B677DAF3EDC7B9981E13158058D4970A88F77D963F4E5B04804A0231FBB21258153F321D12138039FDA8EB4B0EF11EA7AE5BFE86A806B033B85CA78BF9DFD31E80D5EF682410D7B598D4460CE98B973C713E21700158FC0F8B1F5C77C1A716F0FA6A1E135827BC
310
D8C1B904721EB8B290078F04968471A980AD636483681D406261BF2A81EB5698AC13D83604997520BA667695A0EC860B4B20B719F0F9CAE802AC837E51577C3A51534F8AE50E97481DD70EC2D313E3E6BDFF68887853E0CE8FBFCE1CC4BB453848F9AE027801DCABDF9D02F83DF0661B416E811536947A5E041BD6E5B2A184
310
8E77CC1B5AD3BA7FEC560168A7021CFE9B7EFD0DCD1C60BB0AF4EA0068EA009F12E8731140B397B477F6DF6F1FD8EA07E31F01EAEDA74CBA01405400D80E1282DA87EE08A07E58E8F6F03C56F54B3BBFF2CADF78C276381C0E8783A417D46E05017100D2C390D0149C2E76480098B7BAA00A60DEF439950054E49F9680C44A
310
78EEF61A8BA048A91B80D77B0330806CFE0650034058822EFFDA0A08899002C0026579D9FF9F3CA00728DD0D3D7F0E85E165E0B65048873E16A335947EA0C89330000330001330000330000330000330001330000330804CA0EFF789B603B07E9B3CF903336E01C0F1ADD2520012E90F764CA84001292C5204C62E81826500
310
FB702360000660006200463E225B0200432308D7B77CEC63F2213D001C1B3FA80038343B5A0012DDDEE06767C361FC9BD2F98F4A2024263D6500890724420DC0A40D20D1F348B9E094FB28111109247B616D0063F7420630151330005D00D3C04F90F421096F0BD6FD767C95521700E10662A87CFF210C80F373874245F983
310
F1438A43C5F2A79C1B43FDFB2F2901E24314B500D09E236AA000451340F68F7D03080D4A80CC05429D1A203E4D58E18DC4FB53957C53619035813A3218E340ED1708E84BE06B198C73A8FE4B0484CB603519607EFAF2003BC8DF18E2203BE87EC8C841068A4FA3C9A4ECE7D018822118822118822134D95C708C103F9FECFE
310
84AB3789590000000049454E44AE426082
  0
ENDSEC
  0
EOF
