  0
SECTION
  2
HEADER
  9
$ACADVER
  1
AC1027
  9
$ACADMAINTVER
 70
    55
  9
$DWGCODEPAGE
  3
ANSI_1252
  9
$LASTSAVEDBY
  1
crinne
  9
$REQUIREDVERSIONS
160
                 0
  9
$INSBASE
 10
0.0
 20
0.0
 30
0.0
  9
$EXTMIN
 10
-7.998259003898905
 20
-19.5079023162288
 30
0.0
  9
$EXTMAX
 10
-5.081361343348178
 20
-16.94916351523871
 30
0.0
  9
$LIMMIN
 10
-2600.0
 20
-2600.0
  9
$LIMMAX
 10
2000.0
 20
200.0
  9
$ORTHOMODE
 70
     0
  9
$REGENMODE
 70
     1
  9
$FILLMODE
 70
     1
  9
$QTEXTMODE
 70
     0
  9
$MIRRTEXT
 70
     1
  9
$LTSCALE
 40
25.0
  9
$ATTMODE
 70
     1
  9
$TEXTSIZE
 40
3.5
  9
$TRACEWID
 40
1.0
  9
$TEXTSTYLE
  7
STANDARD
  9
$CLAYER
  8
BEFUNDSCHRAFF
  9
$CELTYPE
  6
ByLayer
  9
$CECOLOR
 62
   256
  9
$CELTSCALE
 40
1.0
  9
$DISPSILH
 70
     0
  9
$DIMSCALE
 40
1.0
  9
$DIMASZ
 40
3.5
  9
$DIMEXO
 40
0.1
  9
$DIMDLI
 40
7.0
  9
$DIMRND
 40
0.0
  9
$DIMDLE
 40
0.0
  9
$DIMEXE
 40
1.8
  9
$DIMTP
 40
0.0
  9
$DIMTM
 40
0.0
  9
$DIMTXT
 40
3.5
  9
$DIMCEN
 40
1.5
  9
$DIMTSZ
 40
0.0
  9
$DIMTOL
 70
     0
  9
$DIMLIM
 70
     0
  9
$DIMTIH
 70
     0
  9
$DIMTOH
 70
     0
  9
$DIMSE1
 70
     0
  9
$DIMSE2
 70
     0
  9
$DIMTAD
 70
     0
  9
$DIMZIN
 70
     0
  9
$DIMBLK
  1

  9
$DIMASO
 70
     1
  9
$DIMSHO
 70
     0
  9
$DIMPOST
  1

  9
$DIMAPOST
  1

  9
$DIMALT
 70
     0
  9
$DIMALTD
 70
     2
  9
$DIMALTF
 40
25.4
  9
$DIMLFAC
 40
1.0
  9
$DIMTOFL
 70
     0
  9
$DIMTVP
 40
0.0
  9
$DIMTIX
 70
     0
  9
$DIMSOXD
 70
     0
  9
$DIMSAH
 70
     0
  9
$DIMBLK1
  1

  9
$DIMBLK2
  1

  9
$DIMSTYLE
  2
Standard
  9
$DIMCLRD
 70
     0
  9
$DIMCLRE
 70
     0
  9
$DIMCLRT
 70
     0
  9
$DIMTFAC
 40
1.0
  9
$DIMGAP
 40
0.09
  9
$DIMJUST
 70
     0
  9
$DIMSD1
 70
     0
  9
$DIMSD2
 70
     0
  9
$DIMTOLJ
 70
     1
  9
$DIMTZIN
 70
     0
  9
$DIMALTZ
 70
     0
  9
$DIMALTTZ
 70
     0
  9
$DIMUPT
 70
     0
  9
$DIMDEC
 70
     2
  9
$DIMTDEC
 70
     2
  9
$DIMALTU
 70
     2
  9
$DIMALTTD
 70
     2
  9
$DIMTXSTY
  7
STANDARD
  9
$DIMAUNIT
 70
     0
  9
$DIMADEC
 70
     0
  9
$DIMALTRND
 40
0.0
  9
$DIMAZIN
 70
     0
  9
$DIMDSEP
 70
    46
  9
$DIMATFIT
 70
     3
  9
$DIMFRAC
 70
     0
  9
$DIMLDRBLK
  1

  9
$DIMLUNIT
 70
     2
  9
$DIMLWD
 70
    -2
  9
$DIMLWE
 70
    -2
  9
$DIMTMOVE
 70
     2
  9
$DIMFXL
 40
1.0
  9
$DIMFXLON
 70
     0
  9
$DIMJOGANG
 40
0.7853981633974483
  9
$DIMTFILL
 70
     0
  9
$DIMTFILLCLR
 70
     0
  9
$DIMARCSYM
 70
     0
  9
$DIMLTYPE
  6

  9
$DIMLTEX1
  6

  9
$DIMLTEX2
  6

  9
$DIMTXTDIRECTION
 70
     0
  9
$LUNITS
 70
     2
  9
$LUPREC
 70
     2
  9
$SKETCHINC
 40
1.0
  9
$FILLETRAD
 40
0.0
  9
$AUNITS
 70
     0
  9
$AUPREC
 70
     0
  9
$MENU
  1
ACAD
  9
$ELEVATION
 40
0.0
  9
$PELEVATION
 40
0.0
  9
$THICKNESS
 40
0.0
  9
$LIMCHECK
 70
     0
  9
$CHAMFERA
 40
0.0
  9
$CHAMFERB
 40
0.0
  9
$CHAMFERC
 40
0.0
  9
$CHAMFERD
 40
0.0
  9
$SKPOLY
 70
     0
  9
$TDCREATE
 40
2450582.797767245
  9
$TDUCREATE
 40
2450582.714433912
  9
$TDUPDATE
 40
2459796.511592812
  9
$TDUUPDATE
 40
2459796.428259479
  9
$TDINDWG
 40
0.0029843171
  9
$TDUSRTIMER
 40
0.0029843171
  9
$USRTIMER
 70
     1
  9
$ANGBASE
 50
0.0
  9
$ANGDIR
 70
     0
  9
$PDMODE
 70
     0
  9
$PDSIZE
 40
0.0
  9
$PLINEWID
 40
0.0
  9
$SPLFRAME
 70
     0
  9
$SPLINETYPE
 70
     6
  9
$SPLINESEGS
 70
     8
  9
$HANDSEED
  5
722
  9
$SURFTAB1
 70
     6
  9
$SURFTAB2
 70
     6
  9
$SURFTYPE
 70
     6
  9
$SURFU
 70
     6
  9
$SURFV
 70
     6
  9
$UCSBASE
  2

  9
$UCSNAME
  2

  9
$UCSORG
 10
0.0
 20
0.0
 30
0.0
  9
$UCSXDIR
 10
1.0
 20
0.0
 30
0.0
  9
$UCSYDIR
 10
0.0
 20
1.0
 30
0.0
  9
$UCSORTHOREF
  2

  9
$UCSORTHOVIEW
 70
     0
  9
$UCSORGTOP
 10
0.0
 20
0.0
 30
0.0
  9
$UCSORGBOTTOM
 10
0.0
 20
0.0
 30
0.0
  9
$UCSORGLEFT
 10
0.0
 20
0.0
 30
0.0
  9
$UCSORGRIGHT
 10
0.0
 20
0.0
 30
0.0
  9
$UCSORGFRONT
 10
0.0
 20
0.0
 30
0.0
  9
$UCSORGBACK
 10
0.0
 20
0.0
 30
0.0
  9
$PUCSBASE
  2

  9
$PUCSNAME
  2

  9
$PUCSORG
 10
0.0
 20
0.0
 30
0.0
  9
$PUCSXDIR
 10
1.0
 20
0.0
 30
0.0
  9
$PUCSYDIR
 10
0.0
 20
1.0
 30
0.0
  9
$PUCSORTHOREF
  2

  9
$PUCSORTHOVIEW
 70
     0
  9
$PUCSORGTOP
 10
0.0
 20
0.0
 30
0.0
  9
$PUCSORGBOTTOM
 10
0.0
 20
0.0
 30
0.0
  9
$PUCSORGLEFT
 10
0.0
 20
0.0
 30
0.0
  9
$PUCSORGRIGHT
 10
0.0
 20
0.0
 30
0.0
  9
$PUCSORGFRONT
 10
0.0
 20
0.0
 30
0.0
  9
$PUCSORGBACK
 10
0.0
 20
0.0
 30
0.0
  9
$USERI1
 70
     0
  9
$USERI2
 70
     0
  9
$USERI3
 70
     0
  9
$USERI4
 70
     0
  9
$USERI5
 70
     0
  9
$USERR1
 40
0.0
  9
$USERR2
 40
0.0
  9
$USERR3
 40
0.0
  9
$USERR4
 40
0.0
  9
$USERR5
 40
0.0
  9
$WORLDVIEW
 70
     1
  9
$SHADEDGE
 70
     3
  9
$SHADEDIF
 70
    70
  9
$TILEMODE
 70
     1
  9
$MAXACTVP
 70
    16
  9
$PINSBASE
 10
0.0
 20
0.0
 30
0.0
  9
$PLIMCHECK
 70
     0
  9
$PEXTMIN
 10
1.000000000000000E+20
 20
1.000000000000000E+20
 30
1.000000000000000E+20
  9
$PEXTMAX
 10
-1.000000000000000E+20
 20
-1.000000000000000E+20
 30
-1.000000000000000E+20
  9
$PLIMMIN
 10
0.0
 20
0.0
  9
$PLIMMAX
 10
12.0
 20
9.0
  9
$UNITMODE
 70
     0
  9
$VISRETAIN
 70
     0
  9
$PLINEGEN
 70
     0
  9
$PSLTSCALE
 70
     0
  9
$TREEDEPTH
 70
  3020
  9
$CMLSTYLE
  2
Standard
  9
$CMLJUST
 70
     0
  9
$CMLSCALE
 40
1.0
  9
$PROXYGRAPHICS
 70
     1
  9
$MEASUREMENT
 70
     0
  9
$CELWEIGHT
370
    -1
  9
$ENDCAPS
280
     0
  9
$JOINSTYLE
280
     0
  9
$LWDISPLAY
290
     0
  9
$INSUNITS
 70
     6
  9
$HYPERLINKBASE
  1

  9
$STYLESHEET
  1

  9
$XEDIT
290
     1
  9
$CEPSNTYPE
380
     0
  9
$PSTYLEMODE
290
     1
  9
$FINGERPRINTGUID
  2
{7A67391C-7458-4C5F-B352-5E7E78C6FE32}
  9
$VERSIONGUID
  2
{140C4161-74C1-4EEA-A3A4-182C0A4460CF}
  9
$EXTNAMES
290
     1
  9
$PSVPSCALE
 40
0.0
  9
$OLESTARTUP
290
     0
  9
$SORTENTS
280
   127
  9
$INDEXCTL
280
     0
  9
$HIDETEXT
280
     1
  9
$XCLIPFRAME
280
     2
  9
$HALOGAP
280
     0
  9
$OBSCOLOR
 70
   257
  9
$OBSLTYPE
280
     0
  9
$INTERSECTIONDISPLAY
280
     0
  9
$INTERSECTIONCOLOR
 70
   257
  9
$DIMASSOC
280
     2
  9
$PROJECTNAME
  1

  9
$CAMERADISPLAY
290
     0
  9
$LENSLENGTH
 40
50.0
  9
$CAMERAHEIGHT
 40
0.0
  9
$STEPSPERSEC
 40
2.0
  9
$STEPSIZE
 40
6.0
  9
$3DDWFPREC
 40
2.0
  9
$PSOLWIDTH
 40
0.25
  9
$PSOLHEIGHT
 40
4.0
  9
$LOFTANG1
 40
1.570796326794896
  9
$LOFTANG2
 40
1.570796326794896
  9
$LOFTMAG1
 40
0.0
  9
$LOFTMAG2
 40
0.0
  9
$LOFTPARAM
 70
     7
  9
$LOFTNORMALS
280
     1
  9
$LATITUDE
 40
37.795
  9
$LONGITUDE
 40
-122.394
  9
$NORTHDIRECTION
 40
0.0
  9
$TIMEZONE
 70
 -8000
  9
$LIGHTGLYPHDISPLAY
280
     1
  9
$TILEMODELIGHTSYNCH
280
     1
  9
$CMATERIAL
347
11
  9
$SOLIDHIST
280
     0
  9
$SHOWHIST
280
     1
  9
$DWFFRAME
280
     2
  9
$DGNFRAME
280
     0
  9
$REALWORLDSCALE
290
     1
  9
$INTERFERECOLOR
 62
     1
  9
$INTERFEREOBJVS
345
33
  9
$INTERFEREVPVS
346
30
  9
$CSHADOW
280
     0
  9
$SHADOWPLANELOCATION
 40
0.0
  0
ENDSEC
  0
SECTION
  2
CLASSES
  0
CLASS
  1
ACDBDICTIONARYWDFLT
  2
AcDbDictionaryWithDefault
  3
ObjectDBX Classes
 90
        0
 91
        1
280
     0
281
     0
  0
CLASS
  1
MATERIAL
  2
AcDbMaterial
  3
ObjectDBX Classes
 90
     1153
 91
        3
280
     0
281
     0
  0
CLASS
  1
VISUALSTYLE
  2
AcDbVisualStyle
  3
ObjectDBX Classes
 90
     4095
 91
       24
280
     0
281
     0
  0
CLASS
  1
SCALE
  2
AcDbScale
  3
ObjectDBX Classes
 90
     1153
 91
       17
280
     0
281
     0
  0
CLASS
  1
TABLESTYLE
  2
AcDbTableStyle
  3
ObjectDBX Classes
 90
     4095
 91
        1
280
     0
281
     0
  0
CLASS
  1
MLEADERSTYLE
  2
AcDbMLeaderStyle
  3
ACDB_MLEADERSTYLE_CLASS
 90
     4095
 91
        1
280
     0
281
     0
  0
CLASS
  1
ACDBSECTIONVIEWSTYLE
  2
AcDbSectionViewStyle
  3
ObjectDBX Classes
 90
     1025
 91
        1
280
     0
281
     0
  0
CLASS
  1
ACDBDETAILVIEWSTYLE
  2
AcDbDetailViewStyle
  3
ObjectDBX Classes
 90
     1025
 91
        1
280
     0
281
     0
  0
CLASS
  1
DICTIONARYVAR
  2
AcDbDictionaryVar
  3
ObjectDBX Classes
 90
        0
 91
        5
280
     0
281
     0
  0
CLASS
  1
CELLSTYLEMAP
  2
AcDbCellStyleMap
  3
ObjectDBX Classes
 90
     1152
 91
        1
280
     0
281
     0
  0
ENDSEC
  0
SECTION
  2
TABLES
  0
TABLE
  2
VPORT
  5
8
330
0
100
AcDbSymbolTable
 70
     1
  0
VPORT
  5
93
330
8
100
AcDbSymbolTableRecord
100
AcDbViewportTableRecord
  2
*ACTIVE
 70
     0
 10
0.0
 20
0.0
 11
1.0
 21
1.0
 12
-6.539810173623542
 22
-18.22853291573376
 13
0.0
 23
0.0
 14
5.0
 24
5.0
 15
100.0
 25
100.0
 16
0.0
 26
0.0
 36
1.0
 17
0.0
 27
0.0
 37
0.0
 40
2.579654921979109
 41
1.649386084583901
 42
50.0
 43
0.0
 44
0.0
 50
0.0
 51
0.0
 71
     0
 72
   100
 73
     1
 74
     0
 75
     0
 76
     1
 77
     0
 78
     0
281
     0
 65
     1
110
0.0
120
0.0
130
0.0
111
1.0
121
0.0
131
0.0
112
0.0
122
1.0
132
0.0
 79
     0
146
0.0
348
2F
 60
     3
 61
     5
292
     1
282
     0
141
0.0
142
0.0
 63
   250
421
  3355443
1001
ACAD_NAV_VCDISPLAY
1070
     3
  0
ENDTAB
  0
TABLE
  2
LTYPE
  5
5
330
0
100
AcDbSymbolTable
 70
    25
  0
LTYPE
  5
5A
330
5
100
AcDbSymbolTableRecord
100
AcDbLinetypeTableRecord
  2
ByBlock
 70
     0
  3

 72
    65
 73
     0
 40
0.0
  0
LTYPE
  5
5B
330
5
100
AcDbSymbolTableRecord
100
AcDbLinetypeTableRecord
  2
ByLayer
 70
     0
  3

 72
    65
 73
     0
 40
0.0
  0
LTYPE
  5
5C
330
5
100
AcDbSymbolTableRecord
100
AcDbLinetypeTableRecord
  2
CONTINUOUS
 70
     0
  3
Ausgezogene Linie
 72
    65
 73
     0
 40
0.0
  0
LTYPE
  5
7A
330
5
100
AcDbSymbolTableRecord
100
AcDbLinetypeTableRecord
  2
RAND
 70
     0
  3
__ __ . __ __ . __ __ . __ __ . __ __ . __ __ .
 72
    65
 73
     6
 40
1.75
 49
0.5
 74
     0
 49
-0.25
 74
     0
 49
0.5
 74
     0
 49
-0.25
 74
     0
 49
0.0
 74
     0
 49
-0.25
 74
     0
  0
LTYPE
  5
7B
330
5
100
AcDbSymbolTableRecord
100
AcDbLinetypeTableRecord
  2
RAND2
 70
     0
  3
__.__.__.__.__.__.__.__.__.__.__.__.__.__.__.__
 72
    65
 73
     6
 40
0.875
 49
0.25
 74
     0
 49
-0.125
 74
     0
 49
0.25
 74
     0
 49
-0.125
 74
     0
 49
0.0
 74
     0
 49
-0.125
 74
     0
  0
LTYPE
  5
7C
330
5
100
AcDbSymbolTableRecord
100
AcDbLinetypeTableRecord
  2
RANDX2
 70
     0
  3
____  ____  .  ____  ____  .  ____  ____  .  __
 72
    65
 73
     6
 40
3.5
 49
1.0
 74
     0
 49
-0.5
 74
     0
 49
1.0
 74
     0
 49
-0.5
 74
     0
 49
0.0
 74
     0
 49
-0.5
 74
     0
  0
LTYPE
  5
7D
330
5
100
AcDbSymbolTableRecord
100
AcDbLinetypeTableRecord
  2
MITTE
 70
     0
  3
____ _ ____ _ ____ _ ____ _ ____ _ ____ _ ____ 
 72
    65
 73
     4
 40
2.0
 49
1.25
 74
     0
 49
-0.25
 74
     0
 49
0.25
 74
     0
 49
-0.25
 74
     0
  0
LTYPE
  5
7E
330
5
100
AcDbSymbolTableRecord
100
AcDbLinetypeTableRecord
  2
MITTE2
 70
     0
  3
___ _ ___ _ ___ _ ___ _ ___ _ ___ _ ___ _ ___ _
 72
    65
 73
     4
 40
1.125
 49
0.75
 74
     0
 49
-0.125
 74
     0
 49
0.125
 74
     0
 49
-0.125
 74
     0
  0
LTYPE
  5
7F
330
5
100
AcDbSymbolTableRecord
100
AcDbLinetypeTableRecord
  2
MITTEX2
 70
     0
  3
________  __  ________  __  ________  __  _____
 72
    65
 73
     4
 40
4.0
 49
2.5
 74
     0
 49
-0.5
 74
     0
 49
0.5
 74
     0
 49
-0.5
 74
     0
  0
LTYPE
  5
80
330
5
100
AcDbSymbolTableRecord
100
AcDbLinetypeTableRecord
  2
STRICHPUNKT
 70
     0
  3
__ . __ . __ . __ . __ . __ . __ . __ . __ . __
 72
    65
 73
     4
 40
1.0
 49
0.5
 74
     0
 49
-0.25
 74
     0
 49
0.0
 74
     0
 49
-0.25
 74
     0
  0
LTYPE
  5
81
330
5
100
AcDbSymbolTableRecord
100
AcDbLinetypeTableRecord
  2
STRICHPUNKT2
 70
     0
  3
_._._._._._._._._._._._._._._._._._._._._._._._
 72
    65
 73
     4
 40
0.5
 49
0.25
 74
     0
 49
-0.125
 74
     0
 49
0.0
 74
     0
 49
-0.125
 74
     0
  0
LTYPE
  5
82
330
5
100
AcDbSymbolTableRecord
100
AcDbLinetypeTableRecord
  2
STRICHPUNKTX2
 70
     0
  3
____  .  ____  .  ____  .  ____  .  ____  .  __
 72
    65
 73
     4
 40
2.0
 49
1.0
 74
     0
 49
-0.5
 74
     0
 49
0.0
 74
     0
 49
-0.5
 74
     0
  0
LTYPE
  5
83
330
5
100
AcDbSymbolTableRecord
100
AcDbLinetypeTableRecord
  2
GESTRICHELT
 70
     0
  3
__ __ __ __ __ __ __ __ __ __ __ __ __ __ __ __
 72
    65
 73
     2
 40
0.75
 49
0.5
 74
     0
 49
-0.25
 74
     0
  0
LTYPE
  5
84
330
5
100
AcDbSymbolTableRecord
100
AcDbLinetypeTableRecord
  2
GESTRICHELT2
 70
     0
  3
_ _ _ _ _ _ _ _ _ _ _ _ _ _ _ _ _ _ _ _ _ _ _ _
 72
    65
 73
     2
 40
0.375
 49
0.25
 74
     0
 49
-0.125
 74
     0
  0
LTYPE
  5
85
330
5
100
AcDbSymbolTableRecord
100
AcDbLinetypeTableRecord
  2
GESTRICHELTX2
 70
     0
  3
____  ____  ____  ____  ____  ____  ____  ____ 
 72
    65
 73
     2
 40
1.5
 49
1.0
 74
     0
 49
-0.5
 74
     0
  0
LTYPE
  5
86
330
5
100
AcDbSymbolTableRecord
100
AcDbLinetypeTableRecord
  2
GETRENNT
 70
     0
  3
____ . . ____ . . ____ . . ____ . . ____ . . __
 72
    65
 73
     6
 40
1.25
 49
0.5
 74
     0
 49
-0.25
 74
     0
 49
0.0
 74
     0
 49
-0.25
 74
     0
 49
0.0
 74
     0
 49
-0.25
 74
     0
  0
LTYPE
  5
87
330
5
100
AcDbSymbolTableRecord
100
AcDbLinetypeTableRecord
  2
GETRENNT2
 70
     0
  3
__..__..__..__..__..__..__..__..__..__..__..__.
 72
    65
 73
     6
 40
0.625
 49
0.25
 74
     0
 49
-0.125
 74
     0
 49
0.0
 74
     0
 49
-0.125
 74
     0
 49
0.0
 74
     0
 49
-0.125
 74
     0
  0
LTYPE
  5
88
330
5
100
AcDbSymbolTableRecord
100
AcDbLinetypeTableRecord
  2
GETRENNTX2
 70
     0
  3
________  .  .  ________  .  .  ________  .  . 
 72
    65
 73
     6
 40
2.5
 49
1.0
 74
     0
 49
-0.5
 74
     0
 49
0.0
 74
     0
 49
-0.5
 74
     0
 49
0.0
 74
     0
 49
-0.5
 74
     0
  0
LTYPE
  5
89
330
5
100
AcDbSymbolTableRecord
100
AcDbLinetypeTableRecord
  2
PUNKT
 70
     0
  3
. . . . . . . . . . . . . . . . . . . . . . . .
 72
    65
 73
     2
 40
0.25
 49
0.0
 74
     0
 49
-0.25
 74
     0
  0
LTYPE
  5
8A
330
5
100
AcDbSymbolTableRecord
100
AcDbLinetypeTableRecord
  2
PUNKT2
 70
     0
  3
...............................................
 72
    65
 73
     2
 40
0.125
 49
0.0
 74
     0
 49
-0.125
 74
     0
  0
LTYPE
  5
8B
330
5
100
AcDbSymbolTableRecord
100
AcDbLinetypeTableRecord
  2
PUNKTX2
 70
     0
  3
.  .  .  .  .  .  .  .  .  .  .  .  .  .  .  . 
 72
    65
 73
     2
 40
0.5
 49
0.0
 74
     0
 49
-0.5
 74
     0
  0
LTYPE
  5
8C
330
5
100
AcDbSymbolTableRecord
100
AcDbLinetypeTableRecord
  2
VERDECKT
 70
     0
  3
__ __ __ __ __ __ __ __ __ __ __ __ __ __ __ __
 72
    65
 73
     2
 40
0.375
 49
0.25
 74
     0
 49
-0.125
 74
     0
  0
LTYPE
  5
8D
330
5
100
AcDbSymbolTableRecord
100
AcDbLinetypeTableRecord
  2
VERDECKT2
 70
     0
  3
_ _ _ _ _ _ _ _ _ _ _ _ _ _ _ _ _ _ _ _ _ _ _ _
 72
    65
 73
     2
 40
0.1875
 49
0.125
 74
     0
 49
-0.0625
 74
     0
  0
LTYPE
  5
8E
330
5
100
AcDbSymbolTableRecord
100
AcDbLinetypeTableRecord
  2
VERDECKTX2
 70
     0
  3
____ ____ ____ ____ ____ ____ ____ ____ ____ __
 72
    65
 73
     2
 40
0.75
 49
0.5
 74
     0
 49
-0.25
 74
     0
  0
LTYPE
  5
8F
330
5
100
AcDbSymbolTableRecord
100
AcDbLinetypeTableRecord
  2
PHANTOM
 70
     0
  3
______  __  __  ______  __  __  ______  __  __ 
 72
    65
 73
     6
 40
2.5
 49
1.25
 74
     0
 49
-0.25
 74
     0
 49
0.25
 74
     0
 49
-0.25
 74
     0
 49
0.25
 74
     0
 49
-0.25
 74
     0
  0
LTYPE
  5
90
330
5
100
AcDbSymbolTableRecord
100
AcDbLinetypeTableRecord
  2
PHANTOM2
 70
     0
  3
___ _ _ ___ _ _ ___ _ _ ___ _ _ ___ _ _ ___ _ _
 72
    65
 73
     6
 40
1.25
 49
0.625
 74
     0
 49
-0.125
 74
     0
 49
0.125
 74
     0
 49
-0.125
 74
     0
 49
0.125
 74
     0
 49
-0.125
 74
     0
  0
LTYPE
  5
91
330
5
100
AcDbSymbolTableRecord
100
AcDbLinetypeTableRecord
  2
PHANTOMX2
 70
     0
  3
____________    ____    ____    ____________   
 72
    65
 73
     6
 40
5.0
 49
2.5
 74
     0
 49
-0.5
 74
     0
 49
0.5
 74
     0
 49
-0.5
 74
     0
 49
0.5
 74
     0
 49
-0.5
 74
     0
  0
ENDTAB
  0
TABLE
  2
LAYER
  5
2
102
{ACAD_XDICTIONARY
360
67A
102
}
330
0
100
AcDbSymbolTable
 70
    10
  0
LAYER
  5
54
330
2
100
AcDbSymbolTableRecord
100
AcDbLayerTableRecord
  2
0
 70
     0
 62
     7
  6
CONTINUOUS
370
    -3
390
F
347
21
348
0
  0
LAYER
  5
94
330
2
100
AcDbSymbolTableRecord
100
AcDbLayerTableRecord
  2
GRABUNGSGRENZE
 70
     0
 62
     3
  6
STRICHPUNKTX2
370
    -3
390
F
347
21
348
0
  0
LAYER
  5
95
330
2
100
AcDbSymbolTableRecord
100
AcDbLayerTableRecord
  2
BEFUND
 70
     0
 62
     1
  6
CONTINUOUS
370
    -3
390
F
347
21
348
0
  0
LAYER
  5
96
330
2
100
AcDbSymbolTableRecord
100
AcDbLayerTableRecord
  2
STEINE
 70
     0
 62
     4
  6
CONTINUOUS
370
    -3
390
F
347
21
348
0
  0
LAYER
  5
97
330
2
100
AcDbSymbolTableRecord
100
AcDbLayerTableRecord
  2
KNOCHEN
 70
     0
 62
     2
  6
CONTINUOUS
370
    -3
390
F
347
21
348
0
  0
LAYER
  5
98
330
2
100
AcDbSymbolTableRecord
100
AcDbLayerTableRecord
  2
BEFUND_UNSICHER
 70
     0
 62
     1
  6
GESTRICHELT
370
    -3
390
F
347
21
348
0
  0
LAYER
  5
99
330
2
100
AcDbSymbolTableRecord
100
AcDbLayerTableRecord
  2
FEUER
 70
     0
 62
     1
  6
CONTINUOUS
370
    -3
390
F
347
21
348
0
  0
LAYER
  5
9A
330
2
100
AcDbSymbolTableRecord
100
AcDbLayerTableRecord
  2
KNOCHENSCHRAFF
 70
     0
 62
     2
  6
CONTINUOUS
370
    -3
390
F
347
21
348
0
  0
LAYER
  5
9B
330
2
100
AcDbSymbolTableRecord
100
AcDbLayerTableRecord
  2
BEFUNDSCHRAFF
 70
     0
 62
     1
  6
CONTINUOUS
370
    -3
390
F
347
21
348
0
  0
LAYER
  5
9C
330
2
100
AcDbSymbolTableRecord
100
AcDbLayerTableRecord
  2
STEINESCHRAFF
 70
     0
 62
     4
  6
CONTINUOUS
370
    -3
390
F
347
21
348
0
  0
ENDTAB
  0
TABLE
  2
STYLE
  5
3
330
0
100
AcDbSymbolTable
 70
     2
  0
STYLE
  5
55
330
3
100
AcDbSymbolTableRecord
100
AcDbTextStyleTableRecord
  2
STANDARD
 70
     0
 40
0.0
 41
1.0
 50
0.0
 71
     0
 42
3.5
  3
txt.shx
  4

  0
STYLE
  5
59
330
3
100
AcDbSymbolTableRecord
100
AcDbTextStyleTableRecord
  2
Annotative
 70
     0
 40
0.0
 41
1.0
 50
0.0
 71
     0
 42
3.5
  3
txt
  4

1001
AcadAnnotative
1000
AnnotativeData
1002
{
1070
     1
1070
     1
1002
}
  0
ENDTAB
  0
TABLE
  2
VIEW
  5
6
330
0
100
AcDbSymbolTable
 70
     1
  0
ENDTAB
  0
TABLE
  2
UCS
  5
7
330
0
100
AcDbSymbolTable
 70
     0
  0
ENDTAB
  0
TABLE
  2
APPID
  5
9
330
0
100
AcDbSymbolTable
 70
     3
  0
APPID
  5
56
330
9
100
AcDbSymbolTableRecord
100
AcDbRegAppTableRecord
  2
ACAD
 70
     0
  0
APPID
  5
5D
330
9
100
AcDbSymbolTableRecord
100
AcDbRegAppTableRecord
  2
AcadAnnotative
 70
     0
  0
APPID
  5
680
330
9
100
AcDbSymbolTableRecord
100
AcDbRegAppTableRecord
  2
ACAD_NAV_VCDISPLAY
 70
     0
  0
ENDTAB
  0
TABLE
  2
DIMSTYLE
  5
A
330
0
100
AcDbSymbolTable
 70
     2
100
AcDbDimStyleTable
 71
     0
  0
DIMSTYLE
105
57
330
A
100
AcDbSymbolTableRecord
100
AcDbDimStyleTableRecord
  2
Standard
 70
     0
340
55
  0
DIMSTYLE
105
58
330
A
100
AcDbSymbolTableRecord
100
AcDbDimStyleTableRecord
  2
Annotative
 70
     0
340
55
1001
AcadAnnotative
1000
AnnotativeData
1002
{
1070
     1
1070
     1
1002
}
  0
ENDTAB
  0
TABLE
  2
BLOCK_RECORD
  5
1
330
0
100
AcDbSymbolTable
 70
     4
  0
BLOCK_RECORD
  5
6F
330
1
100
AcDbSymbolTableRecord
100
AcDbBlockTableRecord
  2
*Model_Space
340
72
 70
     0
280
     1
281
     0
  0
BLOCK_RECORD
  5
6B
330
1
100
AcDbSymbolTableRecord
100
AcDbBlockTableRecord
  2
*Paper_Space
340
6E
 70
     0
280
     1
281
     0
  0
BLOCK_RECORD
  5
73
330
1
100
AcDbSymbolTableRecord
100
AcDbBlockTableRecord
  2
TPFEIL
340
0
 70
     0
280
     1
281
     0
  0
BLOCK_RECORD
  5
77
330
1
100
AcDbSymbolTableRecord
100
AcDbBlockTableRecord
  2
*X1
340
0
102
{BLKREFS
331
671
102
}
 70
     0
280
     1
281
     0
  0
BLOCK_RECORD
  5
78
330
1
100
AcDbSymbolTableRecord
100
AcDbBlockTableRecord
  2
*X2
340
0
102
{BLKREFS
331
672
102
}
 70
     0
280
     1
281
     0
  0
BLOCK_RECORD
  5
79
330
1
100
AcDbSymbolTableRecord
100
AcDbBlockTableRecord
  2
*X3
340
0
102
{BLKREFS
331
673
102
}
 70
     0
280
     1
281
     0
  0
ENDTAB
  0
ENDSEC
  0
SECTION
  2
BLOCKS
  0
BLOCK
  5
9F
330
6F
100
AcDbEntity
  8
0
100
AcDbBlockBegin
  2
*Model_Space
 70
     0
 10
0.0
 20
0.0
 30
0.0
  3
*Model_Space
  1

  0
ENDBLK
  5
A0
330
6F
100
AcDbEntity
  8
0
100
AcDbBlockEnd
  0
BLOCK
  5
9D
330
6B
100
AcDbEntity
 67
     1
  8
0
100
AcDbBlockBegin
  2
*Paper_Space
 70
     0
 10
0.0
 20
0.0
 30
0.0
  3
*Paper_Space
  1

  0
ENDBLK
  5
9E
330
6B
100
AcDbEntity
 67
     1
  8
0
100
AcDbBlockEnd
  0
BLOCK
  5
A1
330
73
100
AcDbEntity
  8
0
100
AcDbBlockBegin
  2
TPFEIL
 70
     0
 10
0.0
 20
0.0
 30
0.0
  3
TPFEIL
  1

  0
LWPOLYLINE
  5
A2
330
73
100
AcDbEntity
  8
GRABUNGSGRENZE
100
AcDbPolyline
 90
        2
 70
     0
 10
0.0
 20
-10.0
 40
5.0
 41
0.0
 10
0.0
 20
0.0
 40
0.0
 41
0.0
  0
ENDBLK
  5
A6
330
73
100
AcDbEntity
  8
0
100
AcDbBlockEnd
  0
BLOCK
  5
26A
330
77
100
AcDbEntity
  8
0
100
AcDbBlockBegin
  2
*X1
 70
     1
 10
0.0
 20
0.0
 30
0.0
  3
*X1
  1

  0
LINE
  5
26B
330
77
100
AcDbEntity
  8
0
 62
     0
100
AcDbLine
 10
-518.2597310100377
 20
-1825.0
 30
0.0
 11
-512.1363946408051
 21
-1825.0
 31
0.0
  0
LINE
  5
26C
330
77
100
AcDbEntity
  8
0
 62
     0
100
AcDbLine
 10
-517.6206070691383
 20
-1820.0
 30
0.0
 11
-511.8751004649535
 21
-1820.0
 31
0.0
  0
LINE
  5
26D
330
77
100
AcDbEntity
  8
0
 62
     0
100
AcDbLine
 10
-517.0365442037814
 20
-1815.0
 30
0.0
 11
-511.6212681852864
 21
-1815.0
 31
0.0
  0
LINE
  5
26E
330
77
100
AcDbEntity
  8
0
 62
     0
100
AcDbLine
 10
-516.5450081814606
 20
-1810.0
 30
0.0
 11
-511.3674359056194
 21
-1810.0
 31
0.0
  0
LINE
  5
26F
330
77
100
AcDbEntity
  8
0
 62
     0
100
AcDbLine
 10
-516.0534721591396
 20
-1804.999999999999
 30
0.0
 11
-510.7718431879649
 21
-1804.999999999999
 31
0.0
  0
LINE
  5
270
330
77
100
AcDbEntity
  8
0
 62
     0
100
AcDbLine
 10
-515.5619361368187
 20
-1800.0
 30
0.0
 11
-509.8955944434288
 21
-1800.0
 31
0.0
  0
LINE
  5
271
330
77
100
AcDbEntity
  8
0
 62
     0
100
AcDbLine
 10
-515.0973472115424
 20
-1795.0
 30
0.0
 11
-509.0193456988926
 21
-1795.0
 31
0.0
  0
LINE
  5
272
330
77
100
AcDbEntity
  8
0
 62
     0
100
AcDbLine
 10
-514.8688440114341
 20
-1790.0
 30
0.0
 11
-508.1430969543565
 21
-1790.0
 31
0.0
  0
LINE
  5
273
330
77
100
AcDbEntity
  8
0
 62
     0
100
AcDbLine
 10
-514.6403408113259
 20
-1785.0
 30
0.0
 11
-508.1931248530497
 21
-1785.0
 31
0.0
  0
LINE
  5
274
330
77
100
AcDbEntity
  8
0
 62
     0
100
AcDbLine
 10
-514.4118376112175
 20
-1780.0
 30
0.0
 11
-508.2505718415787
 21
-1780.0
 31
0.0
  0
LINE
  5
275
330
77
100
AcDbEntity
  8
0
 62
     0
100
AcDbLine
 10
-514.1833344111092
 20
-1774.999999999999
 30
0.0
 11
-508.3080188301078
 21
-1774.999999999999
 31
0.0
  0
LINE
  5
276
330
77
100
AcDbEntity
  8
0
 62
     0
100
AcDbLine
 10
-514.2415150849024
 20
-1770.0
 30
0.0
 11
-508.593845607315
 21
-1770.0
 31
0.0
  0
LINE
  5
277
330
77
100
AcDbEntity
  8
0
 62
     0
100
AcDbLine
 10
-514.4929864801618
 20
-1765.0
 30
0.0
 11
-509.0468080244098
 21
-1765.0
 31
0.0
  0
LINE
  5
278
330
77
100
AcDbEntity
  8
0
 62
     0
100
AcDbLine
 10
-514.744457875421
 20
-1759.999999999999
 30
0.0
 11
-509.4997704415046
 21
-1759.999999999999
 31
0.0
  0
LINE
  5
279
330
77
100
AcDbEntity
  8
0
 62
     0
100
AcDbLine
 10
-514.9233346086719
 20
-1755.0
 30
0.0
 11
-509.9527328585994
 21
-1755.0
 31
0.0
  0
LINE
  5
27A
330
77
100
AcDbEntity
  8
0
 62
     0
100
AcDbLine
 10
-514.7772429027582
 20
-1750.0
 30
0.0
 11
-510.4056952756941
 21
-1750.0
 31
0.0
  0
LINE
  5
27B
330
77
100
AcDbEntity
  8
0
 62
     0
100
AcDbLine
 10
-514.6311511968445
 20
-1745.0
 30
0.0
 11
-510.858657692789
 21
-1745.0
 31
0.0
  0
LINE
  5
27C
330
77
100
AcDbEntity
  8
0
 62
     0
100
AcDbLine
 10
-514.4850594909306
 20
-1740.0
 30
0.0
 11
-511.3116201098837
 21
-1740.0
 31
0.0
  0
LINE
  5
27D
330
77
100
AcDbEntity
  8
0
 62
     0
100
AcDbLine
 10
-514.3389677850169
 20
-1735.0
 30
0.0
 11
-511.3493507199079
 21
-1735.0
 31
0.0
  0
LINE
  5
27E
330
77
100
AcDbEntity
  8
0
 62
     0
100
AcDbLine
 10
-514.1928760791032
 20
-1729.999999999999
 30
0.0
 11
-511.3195102440241
 21
-1729.999999999999
 31
0.0
  0
LINE
  5
27F
330
77
100
AcDbEntity
  8
0
 62
     0
100
AcDbLine
 10
-514.0467843731894
 20
-1724.999999999999
 30
0.0
 11
-511.2896697681403
 21
-1724.999999999999
 31
0.0
  0
LINE
  5
280
330
77
100
AcDbEntity
  8
0
 62
     0
100
AcDbLine
 10
-513.9006926672757
 20
-1720.0
 30
0.0
 11
-511.2598292922564
 21
-1720.0
 31
0.0
  0
LINE
  5
281
330
77
100
AcDbEntity
  8
0
 62
     0
100
AcDbLine
 10
-513.1208911201132
 20
-1715.0
 30
0.0
 11
-511.2299888163726
 21
-1715.0
 31
0.0
  0
LINE
  5
282
330
77
100
AcDbEntity
  8
0
 62
     0
100
AcDbLine
 10
-512.1206259232358
 20
-1710.0
 30
0.0
 11
-511.2001483404888
 21
-1710.0
 31
0.0
  0
LINE
  5
283
330
77
100
AcDbEntity
  8
0
 62
     0
100
AcDbLine
 10
-518.8988549509372
 20
-1830.0
 30
0.0
 11
-512.4258184917169
 21
-1830.0
 31
0.0
  0
LINE
  5
284
330
77
100
AcDbEntity
  8
0
 62
     0
100
AcDbLine
 10
-770.4003223836584
 20
-1835.0
 30
0.0
 11
-763.5903139913295
 21
-1835.0
 31
0.0
  0
LINE
  5
285
330
77
100
AcDbEntity
  8
0
 62
     0
100
AcDbLine
 10
-519.5379788918367
 20
-1835.0
 30
0.0
 11
-512.715242342629
 21
-1835.0
 31
0.0
  0
LINE
  5
286
330
77
100
AcDbEntity
  8
0
 62
     0
100
AcDbLine
 10
-770.3679165723618
 20
-1840.0
 30
0.0
 11
-758.3272109700084
 21
-1840.0
 31
0.0
  0
LINE
  5
287
330
77
100
AcDbEntity
  8
0
 62
     0
100
AcDbLine
 10
-520.1771028327361
 20
-1840.0
 30
0.0
 11
-513.0705366420555
 21
-1840.0
 31
0.0
  0
LINE
  5
288
330
77
100
AcDbEntity
  8
0
 62
     0
100
AcDbLine
 10
-770.335510761065
 20
-1845.0
 30
0.0
 11
-754.7185639869938
 21
-1845.0
 31
0.0
  0
LINE
  5
289
330
77
100
AcDbEntity
  8
0
 62
     0
100
AcDbLine
 10
-520.8162267736356
 20
-1845.0
 30
0.0
 11
-513.7018938935329
 21
-1845.0
 31
0.0
  0
LINE
  5
28A
330
77
100
AcDbEntity
  8
0
 62
     0
100
AcDbLine
 10
-770.3031049497684
 20
-1849.999999999999
 30
0.0
 11
-751.9463922351008
 21
-1849.999999999999
 31
0.0
  0
LINE
  5
28B
330
77
100
AcDbEntity
  8
0
 62
     0
100
AcDbLine
 10
-521.3624070547743
 20
-1849.999999999999
 30
0.0
 11
-514.3332511450105
 21
-1849.999999999999
 31
0.0
  0
LINE
  5
28C
330
77
100
AcDbEntity
  8
0
 62
     0
100
AcDbLine
 10
-770.2706991384718
 20
-1855.0
 30
0.0
 11
-749.758391775474
 21
-1855.0
 31
0.0
  0
LINE
  5
28D
330
77
100
AcDbEntity
  8
0
 62
     0
100
AcDbLine
 10
-521.8697348579342
 20
-1855.0
 30
0.0
 11
-514.964608396488
 21
-1855.0
 31
0.0
  0
LINE
  5
28E
330
77
100
AcDbEntity
  8
0
 62
     0
100
AcDbLine
 10
-770.2382933271752
 20
-1860.0
 30
0.0
 11
-748.3227067831426
 21
-1860.0
 31
0.0
  0
LINE
  5
28F
330
77
100
AcDbEntity
  8
0
 62
     0
100
AcDbLine
 10
-522.3770626610943
 20
-1860.0
 30
0.0
 11
-515.5959656479653
 21
-1860.0
 31
0.0
  0
LINE
  5
290
330
77
100
AcDbEntity
  8
0
 62
     0
100
AcDbLine
 10
-770.2058875158785
 20
-1865.0
 30
0.0
 11
-747.864728937878
 21
-1865.0
 31
0.0
  0
LINE
  5
291
330
77
100
AcDbEntity
  8
0
 62
     0
100
AcDbLine
 10
-522.5289044629021
 20
-1865.0
 30
0.0
 11
-514.9946973066731
 21
-1865.0
 31
0.0
  0
LINE
  5
292
330
77
100
AcDbEntity
  8
0
 62
     0
100
AcDbLine
 10
-770.1734817045819
 20
-1870.0
 30
0.0
 11
-747.4067510926134
 21
-1870.0
 31
0.0
  0
LINE
  5
293
330
77
100
AcDbEntity
  8
0
 62
     0
100
AcDbLine
 10
-522.5119648290159
 20
-1870.0
 30
0.0
 11
-513.1308268209234
 21
-1870.0
 31
0.0
  0
LINE
  5
294
330
77
100
AcDbEntity
  8
0
 62
     0
100
AcDbLine
 10
-770.1410758932853
 20
-1875.0
 30
0.0
 11
-748.379458744024
 21
-1875.0
 31
0.0
  0
LINE
  5
295
330
77
100
AcDbEntity
  8
0
 62
     0
100
AcDbLine
 10
-522.4950251951297
 20
-1875.0
 30
0.0
 11
-511.2669563351738
 21
-1875.0
 31
0.0
  0
LINE
  5
296
330
77
100
AcDbEntity
  8
0
 62
     0
100
AcDbLine
 10
-770.1086700819886
 20
-1880.0
 30
0.0
 11
-748.8815966538663
 21
-1880.0
 31
0.0
  0
LINE
  5
297
330
77
100
AcDbEntity
  8
0
 62
     0
100
AcDbLine
 10
-522.4780855612436
 20
-1880.0
 30
0.0
 11
-510.395132147927
 21
-1880.0
 31
0.0
  0
LINE
  5
298
330
77
100
AcDbEntity
  8
0
 62
     0
100
AcDbLine
 10
-770.076264270692
 20
-1884.999999999999
 30
0.0
 11
-747.9833026783896
 21
-1884.999999999999
 31
0.0
  0
LINE
  5
299
330
77
100
AcDbEntity
  8
0
 62
     0
100
AcDbLine
 10
-522.4611459273575
 20
-1884.999999999999
 30
0.0
 11
-510.4494699312059
 21
-1884.999999999999
 31
0.0
  0
LINE
  5
29A
330
77
100
AcDbEntity
  8
0
 62
     0
100
AcDbLine
 10
-717.7367064766168
 20
-1884.999999999999
 30
0.0
 11
-681.9355504462414
 21
-1884.999999999999
 31
0.0
  0
LINE
  5
29B
330
77
100
AcDbEntity
  8
0
 62
     0
100
AcDbLine
 10
-770.0438584593954
 20
-1890.0
 30
0.0
 11
-747.9262288341588
 21
-1890.0
 31
0.0
  0
LINE
  5
29C
330
77
100
AcDbEntity
  8
0
 62
     0
100
AcDbLine
 10
-522.4745251244562
 20
-1890.0
 30
0.0
 11
-510.5038077144849
 21
-1890.0
 31
0.0
  0
LINE
  5
29D
330
77
100
AcDbEntity
  8
0
 62
     0
100
AcDbLine
 10
-717.2145687801969
 20
-1890.0
 30
0.0
 11
-708.8782138532958
 21
-1890.0
 31
0.0
  0
LINE
  5
29E
330
77
100
AcDbEntity
  8
0
 62
     0
100
AcDbLine
 10
-692.8382907830421
 20
-1890.0
 30
0.0
 11
-688.1656096266339
 21
-1890.0
 31
0.0
  0
LINE
  5
29F
330
77
100
AcDbEntity
  8
0
 62
     0
100
AcDbLine
 10
-770.0114526480987
 20
-1895.0
 30
0.0
 11
-748.1423909414045
 21
-1895.0
 31
0.0
  0
LINE
  5
2A0
330
77
100
AcDbEntity
  8
0
 62
     0
100
AcDbLine
 10
-522.5400708325168
 20
-1895.0
 30
0.0
 11
-510.6610543333677
 21
-1895.0
 31
0.0
  0
LINE
  5
2A1
330
77
100
AcDbEntity
  8
0
 62
     0
100
AcDbLine
 10
-716.4614785862563
 20
-1895.0
 30
0.0
 11
-710.7223980996345
 21
-1895.0
 31
0.0
  0
LINE
  5
2A2
330
77
100
AcDbEntity
  8
0
 62
     0
100
AcDbLine
 10
-769.9790468368021
 20
-1900.0
 30
0.0
 11
-748.5645828026037
 21
-1900.0
 31
0.0
  0
LINE
  5
2A3
330
77
100
AcDbEntity
  8
0
 62
     0
100
AcDbLine
 10
-522.6056165405774
 20
-1900.0
 30
0.0
 11
-510.8923209371679
 21
-1900.0
 31
0.0
  0
LINE
  5
2A4
330
77
100
AcDbEntity
  8
0
 62
     0
100
AcDbLine
 10
-717.1153295556014
 20
-1900.0
 30
0.0
 11
-711.2829329368804
 21
-1900.0
 31
0.0
  0
LINE
  5
2A5
330
77
100
AcDbEntity
  8
0
 62
     0
100
AcDbLine
 10
-769.9466410255055
 20
-1905.0
 30
0.0
 11
-749.0234768957527
 21
-1905.0
 31
0.0
  0
LINE
  5
2A6
330
77
100
AcDbEntity
  8
0
 62
     0
100
AcDbLine
 10
-522.6711622486381
 20
-1905.0
 30
0.0
 11
-511.1235875409683
 21
-1905.0
 31
0.0
  0
LINE
  5
2A7
330
77
100
AcDbEntity
  8
0
 62
     0
100
AcDbLine
 10
-715.3643917081754
 20
-1905.0
 30
0.0
 11
-714.1667450447776
 21
-1905.0
 31
0.0
  0
LINE
  5
2A8
330
77
100
AcDbEntity
  8
0
 62
     0
100
AcDbLine
 10
-769.9142352142088
 20
-1910.0
 30
0.0
 11
-750.4381113746883
 21
-1910.0
 31
0.0
  0
LINE
  5
2A9
330
77
100
AcDbEntity
  8
0
 62
     0
100
AcDbLine
 10
-522.7367079566987
 20
-1910.0
 30
0.0
 11
-511.4524690438119
 21
-1910.0
 31
0.0
  0
LINE
  5
2AA
330
77
100
AcDbEntity
  8
0
 62
     0
100
AcDbLine
 10
-769.8818294029122
 20
-1915.0
 30
0.0
 11
-752.4469017834177
 21
-1915.0
 31
0.0
  0
LINE
  5
2AB
330
77
100
AcDbEntity
  8
0
 62
     0
100
AcDbLine
 10
-522.4657537016229
 20
-1915.0
 30
0.0
 11
-511.7908679487194
 21
-1915.0
 31
0.0
  0
LINE
  5
2AC
330
77
100
AcDbEntity
  8
0
 62
     0
100
AcDbLine
 10
-769.8494235916156
 20
-1919.999999999999
 30
0.0
 11
-753.8817575286365
 21
-1919.999999999999
 31
0.0
  0
LINE
  5
2AD
330
77
100
AcDbEntity
  8
0
 62
     0
100
AcDbLine
 10
-521.9037024104503
 20
-1919.999999999999
 30
0.0
 11
-512.086458040183
 21
-1919.999999999999
 31
0.0
  0
LINE
  5
2AE
330
77
100
AcDbEntity
  8
0
 62
     0
100
AcDbLine
 10
-769.8170177803189
 20
-1925.0
 30
0.0
 11
-755.2962288512921
 21
-1925.0
 31
0.0
  0
LINE
  5
2AF
330
77
100
AcDbEntity
  8
0
 62
     0
100
AcDbLine
 10
-521.3416511192776
 20
-1925.0
 30
0.0
 11
-512.3366517124853
 21
-1925.0
 31
0.0
  0
LINE
  5
2B0
330
77
100
AcDbEntity
  8
0
 62
     0
100
AcDbLine
 10
-694.0414415499136
 20
-1925.0
 30
0.0
 11
-693.0072549879534
 21
-1925.0
 31
0.0
  0
LINE
  5
2B1
330
77
100
AcDbEntity
  8
0
 62
     0
100
AcDbLine
 10
-769.7846119690223
 20
-1929.999999999999
 30
0.0
 11
-760.6582007643343
 21
-1929.999999999999
 31
0.0
  0
LINE
  5
2B2
330
77
100
AcDbEntity
  8
0
 62
     0
100
AcDbLine
 10
-520.7795998281051
 20
-1929.999999999999
 30
0.0
 11
-512.5809529846552
 21
-1929.999999999999
 31
0.0
  0
LINE
  5
2B3
330
77
100
AcDbEntity
  8
0
 62
     0
100
AcDbLine
 10
-693.1847748544124
 20
-1929.999999999999
 30
0.0
 11
-685.618500928804
 21
-1929.999999999999
 31
0.0
  0
LINE
  5
2B4
330
77
100
AcDbEntity
  8
0
 62
     0
100
AcDbLine
 10
-769.7522061577257
 20
-1934.999999999999
 30
0.0
 11
-762.5494869673437
 21
-1934.999999999999
 31
0.0
  0
LINE
  5
2B5
330
77
100
AcDbEntity
  8
0
 62
     0
100
AcDbLine
 10
-520.2148917706981
 20
-1934.999999999999
 30
0.0
 11
-512.5162432844218
 21
-1934.999999999999
 31
0.0
  0
LINE
  5
2B6
330
77
100
AcDbEntity
  8
0
 62
     0
100
AcDbLine
 10
-691.8411535263266
 20
-1934.999999999999
 30
0.0
 11
-685.3105188716504
 21
-1934.999999999999
 31
0.0
  0
LINE
  5
2B7
330
77
100
AcDbEntity
  8
0
 62
     0
100
AcDbLine
 10
-769.719800346429
 20
-1939.999999999999
 30
0.0
 11
-763.5626540919148
 21
-1939.999999999999
 31
0.0
  0
LINE
  5
2B8
330
77
100
AcDbEntity
  8
0
 62
     0
100
AcDbLine
 10
-519.523239065586
 20
-1939.999999999999
 30
0.0
 11
-512.4515335841886
 21
-1939.999999999999
 31
0.0
  0
LINE
  5
2B9
330
77
100
AcDbEntity
  8
0
 62
     0
100
AcDbLine
 10
-769.6873945351324
 20
-1944.999999999999
 30
0.0
 11
-763.8030086848303
 21
-1944.999999999999
 31
0.0
  0
LINE
  5
2BA
330
77
100
AcDbEntity
  8
0
 62
     0
100
AcDbLine
 10
-518.8315863604739
 20
-1944.999999999999
 30
0.0
 11
-515.1416945816842
 21
-1944.999999999999
 31
0.0
  0
LINE
  5
2BB
330
77
100
AcDbEntity
  8
0
 62
     0
100
AcDbLine
 10
-769.1810346190319
 20
-1950.0
 30
0.0
 11
-764.2768822099462
 21
-1950.0
 31
0.0
  0
ENDBLK
  5
2BC
330
77
100
AcDbEntity
  8
0
100
AcDbBlockEnd
  0
BLOCK
  5
2BD
330
78
100
AcDbEntity
  8
0
100
AcDbBlockBegin
  2
*X2
 70
     1
 10
0.0
 20
0.0
 30
0.0
  3
*X2
  1

  0
LINE
  5
2BE
330
78
100
AcDbEntity
  8
0
 62
     0
100
AcDbLine
 10
-769.6526105608398
 20
-1750.0
 30
0.0
 11
-757.7177703729838
 21
-1750.0
 31
0.0
  0
LINE
  5
2BF
330
78
100
AcDbEntity
  8
0
 62
     0
100
AcDbLine
 10
-682.8887950795731
 20
-1750.0
 30
0.0
 11
-674.9592791749407
 21
-1750.0
 31
0.0
  0
LINE
  5
2C0
330
78
100
AcDbEntity
  8
0
 62
     0
100
AcDbLine
 10
-722.5113865253985
 20
-1750.0
 30
0.0
 11
-718.957740369287
 21
-1750.0
 31
0.0
  0
LINE
  5
2C1
330
78
100
AcDbEntity
  8
0
 62
     0
100
AcDbLine
 10
-717.237115093973
 20
-1750.0
 30
0.0
 11
-705.2098633745956
 21
-1750.0
 31
0.0
  0
LINE
  5
2C2
330
78
100
AcDbEntity
  8
0
 62
     0
100
AcDbLine
 10
-769.7717342357686
 20
-1745.0
 30
0.0
 11
-757.5336949786446
 21
-1745.0
 31
0.0
  0
LINE
  5
2C3
330
78
100
AcDbEntity
  8
0
 62
     0
100
AcDbLine
 10
-679.0244163844748
 20
-1745.0
 30
0.0
 11
-671.9069459934239
 21
-1745.0
 31
0.0
  0
LINE
  5
2C4
330
78
100
AcDbEntity
  8
0
 62
     0
100
AcDbLine
 10
-722.3914909551119
 20
-1745.0
 30
0.0
 11
-717.8023849418732
 21
-1745.0
 31
0.0
  0
LINE
  5
2C5
330
78
100
AcDbEntity
  8
0
 62
     0
100
AcDbLine
 10
-771.0160327982945
 20
-1740.0
 30
0.0
 11
-757.3453774267655
 21
-1740.0
 31
0.0
  0
LINE
  5
2C6
330
78
100
AcDbEntity
  8
0
 62
     0
100
AcDbLine
 10
-691.4073687001488
 20
-1740.0
 30
0.0
 11
-674.572741034007
 21
-1740.0
 31
0.0
  0
LINE
  5
2C7
330
78
100
AcDbEntity
  8
0
 62
     0
100
AcDbLine
 10
-693.9695969890359
 20
-1740.0
 30
0.0
 11
-692.0418066194661
 21
-1740.0
 31
0.0
  0
LINE
  5
2C8
330
78
100
AcDbEntity
  8
0
 62
     0
100
AcDbLine
 10
-771.0484386095911
 20
-1735.0
 30
0.0
 11
-757.1518630642071
 21
-1735.0
 31
0.0
  0
LINE
  5
2C9
330
78
100
AcDbEntity
  8
0
 62
     0
100
AcDbLine
 10
-695.8680359884328
 20
-1735.0
 30
0.0
 11
-689.2874372684395
 21
-1735.0
 31
0.0
  0
LINE
  5
2CA
330
78
100
AcDbEntity
  8
0
 62
     0
100
AcDbLine
 10
-771.0808444208878
 20
-1729.999999999999
 30
0.0
 11
-756.9272770461231
 21
-1729.999999999999
 31
0.0
  0
LINE
  5
2CB
330
78
100
AcDbEntity
  8
0
 62
     0
100
AcDbLine
 10
-696.7239946769848
 20
-1729.999999999999
 30
0.0
 11
-689.8654261094346
 21
-1729.999999999999
 31
0.0
  0
LINE
  5
2CC
330
78
100
AcDbEntity
  8
0
 62
     0
100
AcDbLine
 10
-771.1132502321844
 20
-1724.999999999999
 30
0.0
 11
-756.6805729693078
 21
-1724.999999999999
 31
0.0
  0
LINE
  5
2CD
330
78
100
AcDbEntity
  8
0
 62
     0
100
AcDbLine
 10
-696.8084450243002
 20
-1724.999999999999
 30
0.0
 11
-689.3871315721953
 21
-1724.999999999999
 31
0.0
  0
LINE
  5
2CE
330
78
100
AcDbEntity
  8
0
 62
     0
100
AcDbLine
 10
-727.0277858966482
 20
-1724.999999999999
 30
0.0
 11
-723.6083509838119
 21
-1724.999999999999
 31
0.0
  0
LINE
  5
2CF
330
78
100
AcDbEntity
  8
0
 62
     0
100
AcDbLine
 10
-724.5410399202568
 20
-1720.0
 30
0.0
 11
-713.5316774140874
 21
-1720.0
 31
0.0
  0
LINE
  5
2D0
330
78
100
AcDbEntity
  8
0
 62
     0
100
AcDbLine
 10
-696.6953772473318
 20
-1720.0
 30
0.0
 11
-689.5527310691811
 21
-1720.0
 31
0.0
  0
LINE
  5
2D1
330
78
100
AcDbEntity
  8
0
 62
     0
100
AcDbLine
 10
-696.7054157755403
 20
-1715.0
 30
0.0
 11
-690.6971346623293
 21
-1715.0
 31
0.0
  0
LINE
  5
2D2
330
78
100
AcDbEntity
  8
0
 62
     0
100
AcDbLine
 10
-770.9188153644046
 20
-1755.0
 30
0.0
 11
-758.0303017165724
 21
-1755.0
 31
0.0
  0
LINE
  5
2D3
330
78
100
AcDbEntity
  8
0
 62
     0
100
AcDbLine
 10
-690.2941382564821
 20
-1755.0
 30
0.0
 11
-676.328967057506
 21
-1755.0
 31
0.0
  0
LINE
  5
2D4
330
78
100
AcDbEntity
  8
0
 62
     0
100
AcDbLine
 10
-722.5175506390221
 20
-1755.0
 30
0.0
 11
-718.2999758028214
 21
-1755.0
 31
0.0
  0
LINE
  5
2D5
330
78
100
AcDbEntity
  8
0
 62
     0
100
AcDbLine
 10
-718.1595691217308
 20
-1755.0
 30
0.0
 11
-706.6111673243713
 21
-1755.0
 31
0.0
  0
LINE
  5
2D6
330
78
100
AcDbEntity
  8
0
 62
     0
100
AcDbLine
 10
-770.8864095531079
 20
-1759.999999999999
 30
0.0
 11
-758.3746411339736
 21
-1759.999999999999
 31
0.0
  0
LINE
  5
2D7
330
78
100
AcDbEntity
  8
0
 62
     0
100
AcDbLine
 10
-770.8540037418113
 20
-1765.0
 30
0.0
 11
-759.6103660832616
 21
-1765.0
 31
0.0
  0
LINE
  5
2D8
330
78
100
AcDbEntity
  8
0
 62
     0
100
AcDbLine
 10
-770.8215979305146
 20
-1770.0
 30
0.0
 11
-760.8403951102633
 21
-1770.0
 31
0.0
  0
LINE
  5
2D9
330
78
100
AcDbEntity
  8
0
 62
     0
100
AcDbLine
 10
-770.789192119218
 20
-1774.999999999999
 30
0.0
 11
-762.0643750332448
 21
-1774.999999999999
 31
0.0
  0
LINE
  5
2DA
330
78
100
AcDbEntity
  8
0
 62
     0
100
AcDbLine
 10
-770.7567863079214
 20
-1780.0
 30
0.0
 11
-763.4314575437975
 21
-1780.0
 31
0.0
  0
LINE
  5
2DB
330
78
100
AcDbEntity
  8
0
 62
     0
100
AcDbLine
 10
-770.7243804966247
 20
-1785.0
 30
0.0
 11
-764.8624674971394
 21
-1785.0
 31
0.0
  0
LINE
  5
2DC
330
78
100
AcDbEntity
  8
0
 62
     0
100
AcDbLine
 10
-770.6919746853281
 20
-1790.0
 30
0.0
 11
-766.4993335751161
 21
-1790.0
 31
0.0
  0
LINE
  5
2DD
330
78
100
AcDbEntity
  8
0
 62
     0
100
AcDbLine
 10
-770.6595688740313
 20
-1795.0
 30
0.0
 11
-769.5798318882672
 21
-1795.0
 31
0.0
  0
ENDBLK
  5
2DE
330
78
100
AcDbEntity
  8
0
100
AcDbBlockEnd
  0
BLOCK
  5
2DF
330
79
100
AcDbEntity
  8
0
100
AcDbBlockBegin
  2
*X3
 70
     1
 10
0.0
 20
0.0
 30
0.0
  3
*X3
  1

  0
LINE
  5
2E0
330
79
100
AcDbEntity
  8
0
 62
     0
100
AcDbLine
 10
-717.0263874118185
 20
-1765.0
 30
0.0
 11
-711.1030167305602
 21
-1765.0
 31
0.0
  0
ENDBLK
  5
2E1
330
79
100
AcDbEntity
  8
0
100
AcDbBlockEnd
  0
ENDSEC
  0
SECTION
  2
ENTITIES
  0
LWPOLYLINE
  5
2E2
330
6F
100
AcDbEntity
  8
GRABUNGSGRENZE
100
AcDbPolyline
 90
       38
 70
   128
 43
0.0
 10
-7.998259003898905
 20
-17.22708682584696
 10
-7.897342438022206
 20
-17.21133336654302
 10
-7.791841376949736
 20
-17.20067841166383
 10
-7.711326411089971
 20
-17.2200811736585
 10
-7.711326411089971
 20
-17.2200811736585
 10
-7.634880093059316
 20
-17.22062528239202
 10
-7.594613189673816
 20
-17.20943127365794
 10
-7.476878153514376
 20
-17.19317575301995
 10
-7.336720634805243
 20
-17.18100749135509
 10
-7.261793597507717
 20
-17.16014587740358
 10
-7.190451068547645
 20
-17.17699628532854
 10
-7.082385705510533
 20
-17.13066742364639
 10
-6.969756526326569
 20
-17.13530499506772
 10
-6.899942698555245
 20
-17.15164507003906
 10
-6.778639467530273
 20
-17.13386222681559
 10
-6.688939197807045
 20
-17.12727729836877
 10
-6.56864813130253
 20
-17.09369504239932
 10
-6.482519043418563
 20
-17.0952628040138
 10
-6.363262888388313
 20
-17.09633585684496
 10
-6.10844427913637
 20
-17.10358575157786
 10
-5.83526930772453
 20
-17.0904581718509
 10
-5.550371843015388
 20
-17.07580694581382
 10
-5.409695030431442
 20
-17.04223388053277
 10
-5.187991540430853
 20
-17.02347701414573
 10
-5.111544992632986
 20
-17.02351147922726
 10
-5.113750148468326
 20
-17.39300220784811
 10
-5.083322945940703
 20
-17.72887116053934
 10
-5.081361343348178
 20
-17.89960270302342
 10
-5.11252979487567
 20
-18.07745432176663
 10
-5.120757159280287
 20
-18.23951732682274
 10
-5.129489112458265
 20
-18.39036794176796
 10
-5.159154366957343
 20
-18.62530033883521
 10
-5.103670300916273
 20
-18.77414132984096
 10
-5.105265404828768
 20
-18.92091801231124
 10
-5.111441327661671
 20
-19.05444189192499
 10
-5.119650310689471
 20
-19.17573340482224
 10
-5.12582163817817
 20
-19.29906441139627
 10
-5.124344175077298
 20
-19.41322527874272
  0
LWPOLYLINE
  5
30A
330
6F
100
AcDbEntity
  8
GRABUNGSGRENZE
100
AcDbPolyline
 90
        2
 70
     0
 43
0.0
 10
-7.696554976842437
 20
-19.49921470812239
 10
-7.711326411089971
 20
-17.2200811736585
  0
LWPOLYLINE
  5
30E
330
6F
100
AcDbEntity
  8
STEINE
100
AcDbPolyline
 90
        7
 70
     0
 43
0.0
 10
-7.716009246651708
 20
-17.43311015228366
 10
-7.69817654394362
 20
-17.44382071082772
 10
-7.694123979819226
 20
-17.49835441972788
 10
-7.711967022051773
 20
-17.51057782552318
 10
-7.743037362980509
 20
-17.47081160486847
 10
-7.738951942145056
 20
-17.45246627153466
 10
-7.716009246651708
 20
-17.43311015228366
  0
LWPOLYLINE
  5
317
330
6F
100
AcDbEntity
  8
STEINE
100
AcDbPolyline
 90
       11
 70
     0
 43
0.0
 10
-7.692947301976267
 20
-17.14924897765205
 10
-7.707223757713753
 20
-17.16351256642576
 10
-7.683287968378397
 20
-17.20225628303556
 10
-7.667487177029157
 20
-17.19818625660319
 10
-7.65016917285168
 20
-17.22010874572372
 10
-7.623658971794432
 20
-17.2007542348432
 10
-7.615498929182404
 20
-17.18801681981892
 10
-7.621098575872362
 20
-17.173744270124
 10
-7.654224034648176
 20
-17.17067147334342
 10
-7.681732384426056
 20
-17.14313830870684
 10
-7.692947301976267
 20
-17.14924897765205
  0
LWPOLYLINE
  5
324
330
6F
100
AcDbEntity
  8
STEINE
100
AcDbPolyline
 90
        8
 70
     0
 43
0.0
 10
-7.621098575872362
 20
-17.173744270124
 10
-7.610389166164354
 20
-17.15845978567584
 10
-7.596634072206573
 20
-17.17018779338619
 10
-7.585419384423573
 20
-17.16458676809297
 10
-7.578295402121863
 20
-17.18905288012923
 10
-7.589003892761029
 20
-17.20229878996945
 10
-7.601748430568826
 20
-17.20993770056898
 10
-7.623658971794432
 20
-17.2007542348432
  0
LWPOLYLINE
  5
32E
330
6F
100
AcDbEntity
  8
STEINE
100
AcDbPolyline
 90
        6
 70
     0
 43
0.0
 10
-7.578295402121863
 20
-17.18905288012923
 10
-7.566571989755718
 20
-17.18549065921117
 10
-7.554858227612403
 20
-17.2033334716765
 10
-7.565056155530743
 20
-17.21454103667599
 10
-7.58391641716237
 20
-17.222177190069
 10
-7.589003892761029
 20
-17.20229878996945
  0
LWPOLYLINE
  5
336
330
6F
100
AcDbEntity
  8
STEINE
100
AcDbPolyline
 90
        6
 70
     0
 43
0.0
 10
-7.554858227612403
 20
-17.2033334716765
 10
-7.537532181582569
 20
-17.20741843297753
 10
-7.540092807271848
 20
-17.23493804134872
 10
-7.553351584075835
 20
-17.25276959522075
 10
-7.563536645030403
 20
-17.23543711570903
 10
-7.565056155530743
 20
-17.21454103667599
  0
LWPOLYLINE
  5
33E
330
6F
100
AcDbEntity
  8
STEINE
100
AcDbPolyline
 90
        5
 70
     0
 43
0.0
 10
-7.537532181582569
 20
-17.20741843297753
 10
-7.523765829031487
 20
-17.19417390174058
 10
-7.511537598124772
 20
-17.20131442728143
 10
-7.525823704085087
 20
-17.23698304943854
 10
-7.540092807271848
 20
-17.23493804134872
  0
LWPOLYLINE
  5
345
330
6F
100
AcDbEntity
  8
STEINE
100
AcDbPolyline
 90
        5
 70
     0
 43
0.0
 10
-7.302058892522746
 20
-17.16777238057376
 10
-7.315300436785967
 20
-17.14738066054686
 10
-7.294908257224651
 20
-17.13311982897967
 10
-7.27810012646637
 20
-17.15555173198498
 10
-7.302058892522746
 20
-17.16777238057376
  0
LWPOLYLINE
  5
34C
330
6F
100
AcDbEntity
  8
STEINE
100
AcDbPolyline
 90
       19
 70
     0
 43
0.0
 10
-7.204210068547999
 20
-17.17393221970195
 10
-7.227632308188796
 20
-17.1265247907756
 10
-7.259726531765708
 20
-17.09695098362618
 10
-7.321377559718483
 20
-17.06175776980673
 10
-7.373355927575197
 20
-17.05001252955562
 10
-7.372838701605274
 20
-17.0331945188073
 10
-7.375889210966463
 20
-17.01688454334049
 10
-7.33713975017641
 20
-16.98020766270549
 10
-7.294837259156699
 20
-16.97563994051607
 10
-7.264767364620698
 20
-16.97361492217353
 10
-7.239274153195318
 20
-16.94916351523871
 10
-7.204111268647612
 20
-16.95478544934806
 10
-7.15621671325588
 20
-16.98130851736908
 10
-7.123108946555252
 20
-17.02362387535257
 10
-7.126187717283295
 20
-17.07000006908001
 10
-7.119590151639914
 20
-17.13166993794402
 10
-7.144570962206785
 20
-17.15000585082221
 10
-7.183821105727625
 20
-17.16680639926255
 10
-7.204210068547999
 20
-17.17393221970195
  0
LWPOLYLINE
  5
361
330
6F
100
AcDbEntity
  8
STEINE
100
AcDbPolyline
 90
        5
 70
     0
 43
0.0
 10
-7.31278760267641
 20
-17.22586693178872
 10
-7.289851340664949
 20
-17.22078083479332
 10
-7.284256748853614
 20
-17.24626554483193
 10
-7.305666147814011
 20
-17.25593912399683
 10
-7.31278760267641
 20
-17.22586693178872
  0
LWPOLYLINE
  5
368
330
6F
100
AcDbEntity
  8
STEINE
100
AcDbPolyline
 90
        5
 70
     0
 43
0.0
 10
-7.284256748853614
 20
-17.24626554483193
 10
-7.246038070298886
 20
-17.25647565041241
 10
-7.267457349249321
 20
-17.2880639066127
 10
-7.284770528315384
 20
-17.25543890080046
 10
-7.284256748853614
 20
-17.24626554483193
  0
LWPOLYLINE
  5
36F
330
6F
100
AcDbEntity
  8
STEINE
100
AcDbPolyline
 90
        6
 70
     0
 43
0.0
 10
-7.138514288555978
 20
-17.28098702658908
 10
-7.116595016176384
 20
-17.2708040335394
 10
-7.086528338381326
 20
-17.27591402632466
 10
-7.087558194976967
 20
-17.29935717478159
 10
-7.121707766168167
 20
-17.30698643515828
 10
-7.138514288555978
 20
-17.28098702658908
  0
LWPOLYLINE
  5
377
330
6F
100
AcDbEntity
  8
STEINE
100
AcDbPolyline
 90
       11
 70
     0
 43
0.0
 10
-7.054947204964553
 20
-17.31313225848665
 10
-7.087053835970817
 20
-17.31107920854446
 10
-7.122223383767618
 20
-17.32023694034271
 10
-7.135988817249859
 20
-17.33144289697172
 10
-7.123784482133004
 20
-17.39158636231908
 10
-7.114113430407415
 20
-17.41860184145133
 10
-7.090676026130745
 20
-17.43237278934661
 10
-7.073844688884232
 20
-17.40333068350136
 10
-7.063119884773142
 20
-17.35390007437015
 10
-7.053932283237576
 20
-17.3228159474088
 10
-7.054947204964553
 20
-17.31313225848665
  0
LWPOLYLINE
  5
384
330
6F
100
AcDbEntity
  8
STEINE
100
AcDbPolyline
 90
        5
 70
     0
 43
0.0
 10
-7.202279944063271
 20
-17.41448494250807
 10
-7.194623341388555
 20
-17.38798691911296
 10
-7.177795680417406
 20
-17.36709911169949
 10
-7.161492597966907
 20
-17.37933791189787
 10
-7.173228647529612
 20
-17.41093053367515
  0
LWPOLYLINE
  5
38B
330
6F
100
AcDbEntity
  8
STEINE
100
AcDbPolyline
 90
        7
 70
     0
 43
0.0
 10
-7.185467217960787
 20
-17.42672397247367
 10
-7.173228647529612
 20
-17.41093053367515
 10
-7.173228647529612
 20
-17.41093053367515
 10
-7.165084458855089
 20
-17.43335853063789
 10
-7.168153809127512
 20
-17.45883933463392
 10
-7.174271141321813
 20
-17.4624040829913
 10
-7.179359995523734
 20
-17.44558354480366
  0
LWPOLYLINE
  5
394
330
6F
100
AcDbEntity
  8
STEINE
100
AcDbPolyline
 90
        7
 70
     0
 43
0.0
 10
-7.202279944063271
 20
-17.41448494250807
 10
-7.227769019678866
 20
-17.42976276370714
 10
-7.219111970611415
 20
-17.44505597930928
 10
-7.189044143980305
 20
-17.44761775383461
 10
-7.179359995523734
 20
-17.44558354480366
 10
-7.185467217960787
 20
-17.42672397247367
 10
-7.202279944063271
 20
-17.41448494250807
  0
LWPOLYLINE
  5
39D
330
6F
100
AcDbEntity
  8
STEINE
100
AcDbPolyline
 90
        6
 70
     0
 43
0.0
 10
-7.235938023212091
 20
-17.46237628115886
 10
-7.22677730444012
 20
-17.49092046147985
 10
-7.222201770165547
 20
-17.51589506833204
 10
-7.241065708072538
 20
-17.53168552015683
 10
-7.26449484072964
 20
-17.49956740079005
 10
-7.235938023212091
 20
-17.46237628115886
  0
LWPOLYLINE
  5
3A5
330
6F
100
AcDbEntity
  8
STEINE
100
AcDbPolyline
 90
        5
 70
     0
 43
0.0
 10
-7.273114207974619
 20
-17.40069262626224
 10
-7.262421341505747
 20
-17.42210248475706
 10
-7.277201007413333
 20
-17.42209582150796
 10
-7.278215929140311
 20
-17.41241213258581
 10
-7.273114207974619
 20
-17.40069262626224
  0
LWPOLYLINE
  5
3AC
330
6F
100
AcDbEntity
  8
STEINE
100
AcDbPolyline
 90
        8
 70
     0
 43
0.0
 10
-7.180393758161949
 20
-17.47769063534435
 10
-7.171737168628917
 20
-17.49400313825046
 10
-7.175831780152779
 20
-17.5327342176637
 10
-7.181955775596175
 20
-17.55107863192867
 10
-7.197747376257008
 20
-17.5347629122816
 10
-7.189580670395884
 20
-17.50724583134974
 10
-7.189571479707476
 20
-17.4868600852703
 10
-7.180393758161949
 20
-17.47769063534435
  0
LWPOLYLINE
  5
3B6
330
6F
100
AcDbEntity
  8
STEINE
100
AcDbPolyline
 90
        5
 70
     0
 43
0.0
 10
-7.082024951010757
 20
-17.46091673990038
 10
-7.061120140823723
 20
-17.44003077062459
 10
-7.065213833278744
 20
-17.47672327542988
 10
-7.075914511832763
 20
-17.47264130110258
 10
-7.082024951010757
 20
-17.46091673990038
  0
LWPOLYLINE
  5
3BD
330
6F
100
AcDbEntity
  8
STEINE
100
AcDbPolyline
 90
        6
 70
     0
 43
0.0
 10
-7.037184581255577
 20
-17.47928413088637
 10
-7.044315226806384
 20
-17.4695976847577
 10
-7.059099488058176
 20
-17.47978389454832
 10
-7.054011093390674
 20
-17.49762372003992
 10
-7.047896748170106
 20
-17.50068433915836
 10
-7.037184581255577
 20
-17.47928413088637
  0
LWPOLYLINE
  5
3C5
330
6F
100
AcDbEntity
  8
STEINE
100
AcDbPolyline
 90
        6
 70
     0
 43
0.0
 10
-7.01628873198974
 20
-17.47827426403802
 10
-7.005092655350767
 20
-17.51395437455565
 10
-7.01631147894355
 20
-17.52872898558461
 10
-7.039239699102656
 20
-17.51597755476051
 10
-7.03566713866013
 20
-17.50476700278729
 10
-7.01628873198974
 20
-17.47827426403802
  0
LWPOLYLINE
  5
3CD
330
6F
100
AcDbEntity
  8
STEINE
100
AcDbPolyline
 90
        8
 70
     0
 43
0.0
 10
-6.976029640689387
 20
-17.48440813947145
 10
-6.965841362993875
 20
-17.49460560785537
 10
-6.973492910789968
 20
-17.50989147090679
 10
-6.970445158635302
 20
-17.53231717019743
 10
-6.982174774716122
 20
-17.54963976971911
 10
-7.005108279521062
 20
-17.54861014289068
 10
-6.997445243364458
 20
-17.50784209723997
 10
-6.976029640689387
 20
-17.48440813947145
  0
LWPOLYLINE
  5
3D7
330
6F
100
AcDbEntity
  8
STEINE
100
AcDbPolyline
 90
        6
 70
     0
 43
0.0
 10
-6.998437188370416
 20
-17.44719404311924
 10
-7.005568982757274
 20
-17.4400558152505
 10
-7.013203298012602
 20
-17.41711840440299
 10
-7.001478047508775
 20
-17.40947903426904
 10
-6.993844191787868
 20
-17.43343573242052
 10
-6.998437188370416
 20
-17.44719404311924
  0
LWPOLYLINE
  5
3DF
330
6F
100
AcDbEntity
  8
STEINE
100
AcDbPolyline
 90
        4
 70
     0
 43
0.0
 10
-6.998437188370416
 20
-17.44719404311924
 10
-7.014750380578164
 20
-17.45737956360823
 10
-7.000994597318753
 20
-17.46757864036262
 10
-6.998437188370416
 20
-17.44719404311924
  0
LWPOLYLINE
  5
3E5
330
6F
100
AcDbEntity
  8
STEINE
100
AcDbPolyline
 90
        6
 70
     0
 43
0.0
 10
-6.96678505688569
 20
-17.32693238681763
 10
-6.957114234927311
 20
-17.35445750960186
 10
-6.960686565602626
 20
-17.36515841792309
 10
-6.972910201165137
 20
-17.34782501934253
 10
-6.974941882756775
 20
-17.33253479071411
 10
-6.96678505688569
 20
-17.32693238681763
  0
LWPOLYLINE
  5
3ED
330
6F
100
AcDbEntity
  8
STEINE
100
AcDbPolyline
 90
        6
 70
     0
 43
0.0
 10
-6.918399239218788
 20
-17.39422717676472
 10
-6.897007072799157
 20
-17.42277687149876
 10
-6.90822520709031
 20
-17.43602255157176
 10
-6.93269269772983
 20
-17.44620439578539
 10
-6.929625874896718
 20
-17.4263296719612
 10
-6.918399239218788
 20
-17.39422717676472
  0
LWPOLYLINE
  5
3F5
330
6F
100
AcDbEntity
  8
STEINE
100
AcDbPolyline
 90
        8
 70
     0
 43
0.0
 10
-6.894983892594297
 20
-17.45692391525064
 10
-6.86288346530271
 20
-17.47273734379644
 10
-6.857282210242281
 20
-17.48344238792746
 10
-6.873598619190972
 20
-17.50076291954425
 10
-6.890923975919177
 20
-17.49514902728726
 10
-6.90162810098135
 20
-17.49871170773975
 10
-6.907228896507358
 20
-17.48698737630476
 10
-6.894983892594297
 20
-17.45692391525064
  0
LWPOLYLINE
  5
3FF
330
6F
100
AcDbEntity
  8
STEINE
100
AcDbPolyline
 90
       10
 70
     0
 43
0.0
 10
-6.862322353795639
 20
-17.35857739551884
 10
-6.817466589637375
 20
-17.34279866182178
 10
-6.802688532100258
 20
-17.34637283063478
 10
-6.782817254784228
 20
-17.35708430824768
 10
-6.77415308293326
 20
-17.35657857063826
 10
-6.763453553215291
 20
-17.36320876322549
 10
-6.796589811049984
 20
-17.38408921808825
 10
-6.833283924225749
 20
-17.38356303119713
 10
-6.854684592032159
 20
-17.37387015158657
 10
-6.862322353795639
 20
-17.35857739551884
  0
LWPOLYLINE
  5
40B
330
6F
100
AcDbEntity
  8
STEINE
100
AcDbPolyline
 90
       11
 70
     0
 43
0.0
 10
-6.196936143161873
 20
-17.82112426384646
 10
-6.137821385574097
 20
-17.8298148589266
 10
-6.110816016199106
 20
-17.84256812788839
 10
-6.082282634937
 20
-17.85736066075975
 10
-6.079251196254257
 20
-17.91597105934138
 10
-6.084865318278458
 20
-17.93380605972156
 10
-6.091497349003369
 20
-17.94858273865542
 10
-6.108826152239726
 20
-17.95061350117822
 10
-6.161294863302769
 20
-17.89605796439309
 10
-6.196948320824015
 20
-17.84813537740171
 10
-6.196936143161873
 20
-17.82112426384646
  0
LWPOLYLINE
  5
418
330
6F
100
AcDbEntity
  8
STEINE
100
AcDbPolyline
 90
        6
 70
     0
 43
0.0
 10
-6.007901774277879
 20
-17.91753215770676
 10
-5.974271726728704
 20
-17.93181734459824
 10
-5.955924095722796
 20
-17.93080632891383
 10
-5.955929150601421
 20
-17.94201848925752
 10
-6.007402470150354
 20
-17.94046635181333
 10
-6.007901774277879
 20
-17.91753215770676
  0
LWPOLYLINE
  5
420
330
6F
100
AcDbEntity
  8
STEINE
100
AcDbPolyline
 90
        5
 70
     0
 43
0.0
 10
-6.1511210609415
 20
-17.93836298285211
 10
-6.137369873026292
 20
-17.95875493264621
 10
-6.137898127822304
 20
-18.00003583868985
 10
-6.152167460776276
 20
-17.99850047425201
 10
-6.1511210609415
 20
-17.93836298285211
  0
LWPOLYLINE
  5
427
330
6F
100
AcDbEntity
  8
STEINE
100
AcDbPolyline
 90
        4
 70
     0
 43
0.0
 10
-6.124113623661618
 20
-17.94652945894602
 10
-6.080296906787403
 20
-17.97457961978532
 10
-6.045656073321033
 20
-18.00772208133469
 10
-6.004381370992071
 20
-18.02201071473431
  0
LWPOLYLINE
  5
42D
330
6F
100
AcDbEntity
  8
STEINE
100
AcDbPolyline
 90
        4
 70
     0
 43
0.0
 10
-6.124113623661618
 20
-17.94652945894602
 10
-6.114963244414105
 20
-17.99800760360637
 10
-6.086953292836595
 20
-18.04337852582966
 10
-5.985040646144154
 20
-18.07909953491071
  0
LWPOLYLINE
  5
433
330
6F
100
AcDbEntity
  8
STEINE
100
AcDbPolyline
 90
        6
 70
     0
 43
0.0
 10
-6.019191825705826
 20
-18.09029630085131
 10
-6.034485500842393
 20
-18.09997263722274
 10
-6.028382873749544
 20
-18.12902508259245
 10
-5.995253508931157
 20
-18.12343393728927
 10
-5.968239867936599
 20
-18.11784003477956
 10
-5.964153528032304
 20
-18.09745612683781
  0
LWPOLYLINE
  5
43B
330
6F
100
AcDbEntity
  8
STEINE
100
AcDbPolyline
 90
        2
 70
     0
 43
0.0
 10
-6.019191825705826
 20
-18.09029630085131
 10
-5.985040646144154
 20
-18.07909953491071
  0
LWPOLYLINE
  5
43F
330
6F
100
AcDbEntity
  8
STEINE
100
AcDbPolyline
 90
        7
 70
     0
 43
0.0
 10
-5.953959735923748
 20
-18.09542214757408
 10
-5.964153528032304
 20
-18.09745612683781
 10
-5.985040646144154
 20
-18.07909953491071
 10
-5.995731674475345
 20
-18.0536125272
 10
-5.999799862770033
 20
-18.03373458663488
 10
-6.004381370992071
 20
-18.02201071473431
 10
-5.998770695476023
 20
-18.01182036913391
  0
LWPOLYLINE
  5
448
330
6F
100
AcDbEntity
  8
STEINE
100
AcDbPolyline
 90
        7
 70
     0
 43
0.0
 10
-6.002329469885936
 20
-17.99245230198798
 10
-5.998770695476023
 20
-18.01182036913391
 10
-5.975850746936486
 20
-18.0429189714295
 10
-5.943738141982757
 20
-18.03172128642006
 10
-5.91467995243279
 20
-18.01287756802756
 10
-5.941176367457427
 20
-18.00165345978895
 10
-6.002329469885936
 20
-17.99245230198798
  0
LWPOLYLINE
  5
451
330
6F
100
AcDbEntity
  8
STEINE
100
AcDbPolyline
 90
        6
 70
     0
 43
0.0
 10
-5.943738141982757
 20
-18.03172128642006
 10
-5.894298801697564
 20
-18.02307963175569
 10
-5.883096980878336
 20
-18.04601865097367
 10
-5.917246092535116
 20
-18.0526286240464
 10
-5.924887300806749
 20
-18.04498052275846
 10
-5.943738141982757
 20
-18.03172128642006
  0
LWPOLYLINE
  5
459
330
6F
100
AcDbEntity
  8
STEINE
100
AcDbPolyline
 90
        4
 70
     0
 43
0.0
 10
-5.924887300806749
 20
-18.04498052275846
 10
-5.956997148553955
 20
-18.05006248394408
 10
-5.979934559401469
 20
-18.05769679919941
 10
-5.985040646144154
 20
-18.07909953491071
  0
LWPOLYLINE
  5
45F
330
6F
100
AcDbEntity
  8
STEINE
100
AcDbPolyline
 90
       12
 70
     0
 43
0.0
 10
-5.881594473151552
 20
-18.10462836025367
 10
-5.871900214937733
 20
-18.08016983053534
 10
-5.871893781455847
 20
-18.06589980827974
 10
-5.893295598098307
 20
-18.05875514692911
 10
-5.924895572426317
 20
-18.06332769422995
 10
-5.949870638812932
 20
-18.0689225158085
 10
-5.953959735923748
 20
-18.09542214757408
 10
-5.942248960754166
 20
-18.11989032751523
 10
-5.933085025241251
 20
-18.14129949670841
 10
-5.915252322533162
 20
-18.15201005525247
 10
-5.896395737176899
 20
-18.15252820029123
 10
-5.877530880201068
 20
-18.13469917385851
  0
LWPOLYLINE
  5
46D
330
6F
100
AcDbEntity
  8
STEINE
100
AcDbPolyline
 90
        5
 70
     0
 43
0.0
 10
-5.915252322533162
 20
-18.15201005525247
 10
-5.920333134882725
 20
-18.11735198924534
 10
-5.907580095688151
 20
-18.09085626352233
 10
-5.881594473151552
 20
-18.10462836025367
 10
-5.877015032834407
 20
-18.1209390250221
  0
LWPOLYLINE
  5
474
330
6F
100
AcDbEntity
  8
STEINE
100
AcDbPolyline
 90
        6
 70
     0
 43
0.0
 10
-5.839823683436007
 20
-18.14898619888766
 10
-5.877530880201068
 20
-18.13469917385851
 10
-5.885172318239912
 20
-18.12756071622256
 10
-5.877015032834407
 20
-18.1209390250221
 10
-5.858666942294077
 20
-18.11890872203373
 10
-5.839823683436007
 20
-18.14898619888766
  0
LWPOLYLINE
  5
47C
330
6F
100
AcDbEntity
  8
STEINE
100
AcDbPolyline
 90
        2
 70
     0
 43
0.0
 10
-5.858666942294077
 20
-18.11890872203373
 10
-5.871900214937733
 20
-18.08016983053534
  0
LWPOLYLINE
  5
480
330
6F
100
AcDbEntity
  8
STEINE
100
AcDbPolyline
 90
        8
 70
     0
 43
0.0
 10
-5.871893781455847
 20
-18.06589980827974
 10
-5.883096980878336
 20
-18.04601865097367
 10
-5.876461733412482
 20
-18.02410696091202
 10
-5.856086097090301
 20
-18.0465404722878
 10
-5.837235026147082
 20
-18.05929006497422
 10
-5.830113801051893
 20
-18.08987190083431
 10
-5.834198073051296
 20
-18.10566901590819
 10
-5.858666942294077
 20
-18.11890872203373
  0
LWPOLYLINE
  5
48A
330
6F
100
AcDbEntity
  8
STEINE
100
AcDbPolyline
 90
        7
 70
     0
 43
0.0
 10
-5.820464806978484
 20
-18.16581317055718
 10
-5.860227810892253
 20
-18.18974850035812
 10
-5.904576229070634
 20
-18.21062390034225
 10
-5.876052038496935
 20
-18.24580217929304
 10
-5.8582115237037
 20
-18.23918485366958
 10
-5.801628211369508
 20
-18.21067031331871
 10
-5.778674257282861
 20
-18.16634165512041
  0
LWPOLYLINE
  5
493
330
6F
100
AcDbEntity
  8
STEINE
100
AcDbPolyline
 90
        6
 70
     0
 43
0.0
 10
-5.834198073051296
 20
-18.10566901590819
 10
-5.796996154361226
 20
-18.1102725817824
 10
-5.751647749324531
 20
-18.1322077080995
 10
-5.778674257282861
 20
-18.16634165512041
 10
-5.84541827524734
 20
-18.12350148884907
 10
-5.858666942294077
 20
-18.11890872203373
  0
LWPOLYLINE
  5
49B
330
6F
100
AcDbEntity
  8
STEINE
100
AcDbPolyline
 90
        4
 70
     0
 43
0.0
 10
-5.778674257282861
 20
-18.16634165512041
 10
-5.798046000704155
 20
-18.17805472796209
 10
-5.820464806978484
 20
-18.16581317055718
 10
-5.84541827524734
 20
-18.12350148884907
  0
LWPOLYLINE
  5
4A1
330
6F
100
AcDbEntity
  8
STEINE
100
AcDbPolyline
 90
        7
 70
     0
 43
0.0
 10
-5.778674257282861
 20
-18.16634165512041
 10
-5.748094259560454
 20
-18.1632975792411
 10
-5.729241350479553
 20
-18.17197002271164
 10
-5.725679359328697
 20
-18.18420307872977
 10
-5.761871640937624
 20
-18.20100500577338
 10
-5.772054404220091
 20
-18.1785760897418
 10
-5.778674257282861
 20
-18.16634165512041
  0
LWPOLYLINE
  5
4AA
330
6F
100
AcDbEntity
  8
STEINE
100
AcDbPolyline
 90
        5
 70
     0
 43
0.0
 10
-5.757290592250007
 20
-18.21374816497791
 10
-5.737413800520932
 20
-18.21222819494315
 10
-5.735891532814069
 20
-18.22700855015237
 10
-5.754749037239174
 20
-18.22852897972155
 10
-5.757290592250007
 20
-18.21374816497791
  0
LWPOLYLINE
  5
4B1
330
6F
100
AcDbEntity
  8
STEINE
100
AcDbPolyline
 90
        8
 70
     0
 43
0.0
 10
-5.876052038496935
 20
-18.24580217929304
 10
-5.8903257370279
 20
-18.25395004424293
 10
-5.898489226148081
 20
-18.27433211404699
 10
-5.886776612840816
 20
-18.29472314477226
 10
-5.819512841467102
 20
-18.31513922012344
 10
-5.815927873595226
 20
-18.27640791094299
 10
-5.841403163178208
 20
-18.2611071130229
 10
-5.876052038496935
 20
-18.24580217929304
  0
LWPOLYLINE
  5
4BB
330
6F
100
AcDbEntity
  8
STEINE
100
AcDbPolyline
 90
        8
 70
     0
 43
0.0
 10
-5.8903257370279
 20
-18.25395004424293
 10
-5.973858815072214
 20
-18.14637755185145
 10
-5.990686935577784
 20
-18.16828464656891
 10
-5.992734700874134
 20
-18.18866947357949
 10
-5.959123953770617
 20
-18.24576472723778
 10
-5.925506083883581
 20
-18.2870610276845
 10
-5.920399078072055
 20
-18.26361971736525
 10
-5.8903257370279
 20
-18.25395004424293
  0
LWPOLYLINE
  5
4C5
330
6F
100
AcDbEntity
  8
STEINE
100
AcDbPolyline
 90
        7
 70
     0
 43
0.0
 10
-5.703855670108549
 20
-18.38603184490618
 10
-5.689068421883026
 20
-18.36922026763974
 10
-5.67581240228556
 20
-18.35750443759153
 10
-5.66511103442991
 20
-18.36005748096287
 10
-5.687549830451526
 20
-18.39215492128073
 10
-5.70692088457119
 20
-18.40233906316646
 10
-5.703855670108549
 20
-18.38603184490618
  0
LWPOLYLINE
  5
4CE
330
6F
100
AcDbEntity
  8
STEINE
100
AcDbPolyline
 90
        5
 70
     0
 43
0.0
 10
-5.648838051483947
 20
-18.4390595995714
 10
-5.60449376911535
 20
-18.42735778532301
 10
-5.592777479532721
 20
-18.4395945176165
 10
-5.63407010370408
 20
-18.46505808907177
 10
-5.648838051483947
 20
-18.4390595995714
  0
LWPOLYLINE
  5
4D5
330
6F
100
AcDbEntity
  8
STEINE
100
AcDbPolyline
 90
        6
 70
     0
 43
0.0
 10
-5.487759179348645
 20
-18.36931102568777
 10
-5.477561481197515
 20
-18.35861310434027
 10
-5.460235435167681
 20
-18.3626980656413
 10
-5.436304700710949
 20
-18.41265394259479
 10
-5.461792857257703
 20
-18.42589318918591
 10
-5.487759179348645
 20
-18.36931102568777
  0
LWPOLYLINE
  5
4DD
330
6F
100
AcDbEntity
  8
STEINE
100
AcDbPolyline
 90
       16
 70
     0
 43
0.0
 10
-5.624280032563606
 20
-18.22807815647538
 10
-5.651770460499091
 20
-18.1607927869839
 10
-5.64462419077799
 20
-18.13582346477754
 10
-5.615562554719871
 20
-18.10933509160527
 10
-5.578857642485226
 20
-18.08590802685305
 10
-5.540113925875427
 20
-18.0619722375177
 10
-5.501386292970344
 20
-18.07371150382135
 10
-5.457049822686894
 20
-18.07933757374048
 10
-5.453494265017924
 20
-18.10584065201421
 10
-5.473407130199001
 20
-18.18737467541074
 10
-5.487189566454796
 20
-18.23629426228669
 10
-5.525412380819309
 20
-18.23525774244195
 10
-5.559555518528623
 20
-18.22861698056305
 10
-5.575349187094348
 20
-18.21688805378387
 10
-5.589622196323682
 20
-18.2235069877778
 10
-5.624280032563606
 20
-18.22807815647538
  0
LWPOLYLINE
  5
4EF
330
6F
100
AcDbEntity
  8
STEINE
100
AcDbPolyline
 90
        7
 70
     0
 43
0.0
 10
-5.624280032563606
 20
-18.22807815647538
 10
-5.589622196323682
 20
-18.2235069877778
 10
-5.588615316449061
 20
-18.25102820451945
 10
-5.62021437170823
 20
-18.25356217721235
 10
-5.634990591107664
 20
-18.24591085918347
 10
-5.638039492098381
 20
-18.22603337815276
 10
-5.624280032563606
 20
-18.22807815647538
  0
LWPOLYLINE
  5
4F8
330
6F
100
AcDbEntity
  8
STEINE
100
AcDbPolyline
 90
        8
 70
     0
 43
0.0
 10
-5.70934433923598
 20
-18.12560141130213
 10
-5.68743954219063
 20
-18.14752596832756
 10
-5.686431283712749
 20
-18.17198932315729
 10
-5.696624616286884
 20
-18.17300401511706
 10
-5.71650186755038
 20
-18.17554327245579
 10
-5.723122409914781
 20
-18.16483776879036
 10
-5.717501165107064
 20
-18.13120381519861
 10
-5.70934433923598
 20
-18.12560141130213
  0
LWPOLYLINE
  5
502
330
6F
100
AcDbEntity
  8
STEINE
100
AcDbPolyline
 90
        4
 70
     0
 43
0.0
 10
-5.686431283712749
 20
-18.17198932315729
 10
-5.664524878296926
 20
-18.19034637461882
 10
-5.682365622857372
 20
-18.19747334389427
 10
-5.696624616286884
 20
-18.17300401511706
  0
LWPOLYLINE
  5
508
330
6F
100
AcDbEntity
  8
STEINE
100
AcDbPolyline
 90
        6
 70
     0
 43
0.0
 10
-5.630330042965318
 20
-18.08231731480092
 10
-5.612492744913025
 20
-18.08283500030526
 10
-5.613517316862831
 20
-18.09455634476652
 10
-5.667560682556662
 20
-18.14141920542493
 10
-5.677237708229717
 20
-18.12765446124432
 10
-5.651742199132236
 20
-18.09810661778965
  0
LWPOLYLINE
  5
510
330
6F
100
AcDbEntity
  8
STEINE
100
AcDbPolyline
 90
       15
 70
     0
 43
0.0
 10
-5.717961638576066
 20
-18.02213984390645
 10
-5.680760179420417
 20
-18.02776269708463
 10
-5.645083745178152
 20
-18.02472091887743
 10
-5.604815922723811
 20
-18.01148833553541
 10
-5.581387249601128
 20
-18.04462574220616
 10
-5.630330042965318
 20
-18.08231731480092
 10
-5.633905360614364
 20
-18.09964359059797
 10
-5.651742199132236
 20
-18.09810661778965
 10
-5.686396588864007
 20
-18.09503313170744
 10
-5.716472916881895
 20
-18.11132817230559
 10
-5.736348559774919
 20
-18.11029992408042
 10
-5.734292752626211
 20
-18.07207756925033
 10
-5.738868746435204
 20
-18.04812224970211
 10
-5.718478634778779
 20
-18.03844821100278
 10
-5.717961638576066
 20
-18.02213984390645
  0
LWPOLYLINE
  5
521
330
6F
100
AcDbEntity
  8
STEINE
100
AcDbPolyline
 90
       10
 70
     0
 43
0.0
 10
-5.734292752626211
 20
-18.07207756925033
 10
-5.77046527425506
 20
-18.04505014222316
 10
-5.802067316487962
 20
-18.05420948239187
 10
-5.807169726955285
 20
-18.0674579196714
 10
-5.787296611501573
 20
-18.07409224806841
 10
-5.794947469996034
 20
-18.08784918016387
 10
-5.772015114027147
 20
-18.09142702525223
 10
-5.762848191540498
 20
-18.1062108269696
 10
-5.750110087214586
 20
-18.11284193862567
 10
-5.736348559774919
 20
-18.11029992408042
  0
LWPOLYLINE
  5
52D
330
6F
100
AcDbEntity
  8
STEINE
100
AcDbPolyline
 90
        5
 70
     0
 43
0.0
 10
-5.806641931693693
 20
-18.02719630093173
 10
-5.777076625931052
 20
-18.01395889247829
 10
-5.775042187132893
 20
-18.02313339728287
 10
-5.803588435358772
 20
-18.03688090892272
 10
-5.806641931693693
 20
-18.02719630093173
  0
LWPOLYLINE
  5
534
330
6F
100
AcDbEntity
  8
STEINE
100
AcDbPolyline
 90
       12
 70
     0
 43
0.0
 10
-5.877448164005395
 20
-17.95122745914363
 10
-5.802012861659144
 20
-17.93342393687124
 10
-5.782668230768654
 20
-17.98184881496387
 10
-5.801016551076193
 20
-17.98438876160424
 10
-5.819357289065794
 20
-17.97011046772906
 10
-5.826493908564067
 20
-17.97367475655203
 10
-5.829059359364761
 20
-18.01189688161491
 10
-5.844864516290996
 20
-18.02565013743501
 10
-5.863210998460853
 20
-18.02411293485948
 10
-5.876456448766648
 20
-18.01238515691634
 10
-5.881029455601908
 20
-17.98180446989231
 10
-5.877448164005395
 20
-17.95122745914363
  0
LWPOLYLINE
  5
542
330
6F
100
AcDbEntity
  8
STEINE
100
AcDbPolyline
 90
        3
 70
     0
 43
0.0
 10
-5.801016551076193
 20
-17.98438876160424
 10
-5.789303708001718
 20
-18.00427014867752
 10
-5.829059359364761
 20
-18.01189688161491
  0
LWPOLYLINE
  5
547
330
6F
100
AcDbEntity
  8
STEINE
100
AcDbPolyline
 90
        7
 70
     0
 43
0.0
 10
-5.802012861659144
 20
-17.93342393687124
 10
-5.825448198030922
 20
-17.91506619610808
 10
-5.806063357878647
 20
-17.87430343510321
 10
-5.754603824362326
 20
-17.90643419166654
 10
-5.754618529463779
 20
-17.93905138539363
 10
-5.773992570557176
 20
-17.95586089475517
 10
-5.802012861659144
 20
-17.93342393687124
  0
LWPOLYLINE
  5
550
330
6F
100
AcDbEntity
  8
STEINE
100
AcDbPolyline
 90
        6
 70
     0
 43
0.0
 10
-5.741352170341855
 20
-17.90440159100606
 10
-5.72147606791441
 20
-17.90441055192726
 10
-5.722522237981976
 20
-17.96403839967518
 10
-5.744434157810841
 20
-17.95791279586131
 10
-5.754618529463779
 20
-17.93905138539363
 10
-5.741352170341855
 20
-17.90440159100606
  0
LWPOLYLINE
  5
558
330
6F
100
AcDbEntity
  8
STEINE
100
AcDbPolyline
 90
        4
 70
     0
 43
0.0
 10
-5.756182844570107
 20
-18.01753581849781
 10
-5.725588831047878
 20
-17.98340347984738
 10
-5.718974492398152
 20
-18.00786936211643
 10
-5.756182844570107
 20
-18.01753581849781
  0
LWPOLYLINE
  5
55E
330
6F
100
AcDbEntity
  8
STEINE
100
AcDbPolyline
 90
        8
 70
     0
 43
0.0
 10
-5.645541691207843
 20
-17.91005086741343
 10
-5.566535666556748
 20
-17.8851139423837
 10
-5.545144189438746
 20
-17.91519256807369
 10
-5.516106678937699
 20
-17.94221677835992
 10
-5.559945683231304
 20
-17.96360205176324
 10
-5.612949312339455
 20
-17.96510708692934
 10
-5.634855947522486
 20
-17.9472596791198
 10
-5.645541691207843
 20
-17.91005086741343
  0
LWPOLYLINE
  5
568
330
6F
100
AcDbEntity
  8
STEINE
100
AcDbPolyline
 90
        5
 70
     0
 43
0.0
 10
-5.433101396154976
 20
-18.09005088949106
 10
-5.410683738716699
 20
-18.1048406651559
 10
-5.423427587222866
 20
-18.11095064479947
 10
-5.436167070152038
 20
-18.10737739505531
 10
-5.433101396154976
 20
-18.09005088949106
  0
LWPOLYLINE
  5
56F
330
6F
100
AcDbEntity
  8
STEINE
100
AcDbPolyline
 90
        6
 70
     0
 43
0.0
 10
-5.368448339722366
 20
-18.24908888934631
 10
-5.346530905480456
 20
-18.24298304551253
 10
-5.332779028263618
 20
-18.26184606435067
 10
-5.34246639346113
 20
-18.27101528450942
 10
-5.365400817334911
 20
-18.27202423228894
 10
-5.368448339722366
 20
-18.24908888934631
  0
LWPOLYLINE
  5
577
330
6F
100
AcDbEntity
  8
BEFUND
100
AcDbPolyline
 90
       10
 70
     0
 43
0.0
 10
-6.161294863302769
 20
-17.89605796439309
 10
-6.183222407301928
 20
-17.92458812891425
 10
-6.185790385541935
 20
-17.96841633414897
 10
-6.179704071921012
 20
-18.03365347880968
 10
-6.13690825072124
 20
-18.06527068567845
 10
-6.078819443686531
 20
-18.08874048713176
 10
-6.04775737437736
 20
-18.14685387925796
 10
-6.027892990077637
 20
-18.17285466643043
 10
-5.997823784843266
 20
-18.17235857904385
 10
-5.990686935577784
 20
-18.16828464656891
  0
LWPOLYLINE
  5
583
330
6F
100
AcDbEntity
  8
BEFUND
100
AcDbPolyline
 90
       18
 70
     0
 43
0.0
 10
-5.925506083883581
 20
-18.2870610276845
 10
-5.942853498263965
 20
-18.33037292601814
 10
-5.891390748006702
 20
-18.35536867145367
 10
-5.813933414291641
 20
-18.3742604111931
 10
-5.771110940095486
 20
-18.34675895443152
 10
-5.730344502815248
 20
-18.35798949615202
 10
-5.710457831096134
 20
-18.33455484908188
 10
-5.71552945275729
 20
-18.27951103699531
 10
-5.688511216418528
 20
-18.2637242614459
 10
-5.656394705422226
 20
-18.24386263435269
 10
-5.652326517127537
 20
-18.26374057491782
 10
-5.640618269397267
 20
-18.29381483503081
 10
-5.586610517621018
 20
-18.3259467404302
 10
-5.534619282800532
 20
-18.30915193617011
 10
-5.502505529010753
 20
-18.29540603290073
 10
-5.472427133087974
 20
-18.27452419943472
 10
-5.470889241210819
 20
-18.25464878630891
 10
-5.487189566454796
 20
-18.23629426228669
  0
LWPOLYLINE
  5
597
330
6F
100
AcDbEntity
  8
BEFUND
100
AcDbPolyline
 90
        7
 70
     0
 43
0.0
 10
-5.592777479532721
 20
-18.4395945176165
 10
-5.569328586895542
 20
-18.4278832829125
 10
-5.549460526320453
 20
-18.4457297716532
 10
-5.553039979779284
 20
-18.47222963318599
 10
-5.583119294770905
 20
-18.49515004125995
 10
-5.619302385691423
 20
-18.49156622222412
 10
-5.63407010370408
 20
-18.46505808907177
  0
LWPOLYLINE
  5
5A0
330
6F
100
AcDbEntity
  8
BEFUND
100
AcDbPolyline
 90
       10
 70
     0
 43
0.0
 10
-5.412274706819411
 20
-18.24244376189042
 10
-5.386264728958529
 20
-18.20219363151126
 10
-5.358741903846406
 20
-18.19761924607275
 10
-5.32817454332056
 20
-18.22260557105266
 10
-5.320038166731182
 20
-18.26236145218291
 10
-5.290999966928504
 20
-18.28785673151318
 10
-5.312417637508469
 20
-18.31587748214957
 10
-5.354208416971301
 20
-18.31585864123834
 10
-5.398023985009465
 20
-18.28526026213911
 10
-5.412274706819411
 20
-18.24244376189042
  0
LWPOLYLINE
  5
5AC
330
6F
100
AcDbEntity
  8
BEFUND
100
AcDbPolyline
 90
        5
 70
     0
 43
0.0
 10
-5.453494265017924
 20
-18.10584065201421
 10
-5.441242597855768
 20
-18.0609975250525
 10
-5.43867255171087
 20
-18.01258252694991
 10
-5.479938522885844
 20
-17.97892743477482
 10
-5.516106678937699
 20
-17.94221677835992
  0
LWPOLYLINE
  5
5B3
330
6F
100
AcDbEntity
  8
BEFUND
100
AcDbPolyline
 90
        3
 70
     0
 43
0.0
 10
-5.645541691207843
 20
-17.91005086741343
 10
-5.690898597631315
 20
-17.9069725562198
 10
-5.72147606791441
 20
-17.90441055192726
  0
LWPOLYLINE
  5
5B8
330
6F
100
AcDbEntity
  8
BEFUND
100
AcDbPolyline
 90
       14
 70
     0
 43
0.0
 10
-5.877448164005395
 20
-17.95122745914363
 10
-5.920240079162595
 20
-17.9109463101911
 10
-5.964060242544962
 20
-17.89054080413159
 10
-5.947214200196998
 20
-17.82888150455925
 10
-5.935981131037181
 20
-17.78250898710717
 10
-5.989491876358007
 20
-17.77840771233421
 10
-6.052695960823809
 20
-17.79672639267163
 10
-6.071573454996202
 20
-17.84258581996358
 10
-6.049674861665528
 20
-17.87827075559262
 10
-6.023186258726038
 20
-17.90682274799875
 10
-6.007402470150354
 20
-17.94046635181333
 10
-5.98855783268902
 20
-17.96748596675535
 10
-5.987034875680528
 20
-17.98073739100861
 10
-6.002329469885936
 20
-17.99245230198798
  0
LWPOLYLINE
  5
5C8
330
6F
100
AcDbEntity
  8
BEFUND
100
AcDbPolyline
 90
       10
 70
     0
 43
0.0
 10
-7.289851340664949
 20
-17.22078083479332
 10
-7.250599588773635
 20
-17.20041278078908
 10
-7.212374936271442
 20
-17.19737215141793
 10
-7.176697812727545
 20
-17.19280144225477
 10
-7.135928618240785
 20
-17.19791626015145
 10
-7.130839993806074
 20
-17.21524644199107
 10
-7.172637896052424
 20
-17.23102655429139
 10
-7.224116959781611
 20
-17.24221550814684
 10
-7.246038070298886
 20
-17.25647565041241
 10
-7.246038070298886
 20
-17.25647565041241
  0
LWPOLYLINE
  5
5D4
330
6F
100
AcDbEntity
  8
BEFUND
100
AcDbPolyline
 90
        4
 70
     0
 43
0.0
 10
-7.174271141321813
 20
-17.4624040829913
 10
-7.150318808747323
 20
-17.46445345665812
 10
-7.117696789908819
 20
-17.45376564506787
 10
-7.075914511832763
 20
-17.47264130110258
  0
LWPOLYLINE
  5
5DA
330
6F
100
AcDbEntity
  8
BEFUND
100
AcDbPolyline
 90
        9
 70
     0
 43
0.0
 10
-7.075914511832763
 20
-17.47264130110258
 10
-7.054011093390674
 20
-17.49762372003992
 10
-7.039239699102656
 20
-17.51597755476051
 10
-7.057089634351508
 20
-17.54349027011538
 10
-7.084619352479937
 20
-17.56335396511348
 10
-7.128455140032599
 20
-17.577604227389
 10
-7.164132723110916
 20
-17.58319422385613
 10
-7.207446689349451
 20
-17.57043360234362
 10
-7.241065708072538
 20
-17.53168552015683
  0
LWPOLYLINE
  5
5E5
330
6F
100
AcDbEntity
  8
BEFUND
100
AcDbPolyline
 90
        2
 70
     0
 43
0.0
 10
-7.235938023212091
 20
-17.46237628115886
 10
-7.219111970611415
 20
-17.44505597930928
  0
LWPOLYLINE
  5
5E9
330
6F
100
AcDbEntity
  8
BEFUND
100
AcDbPolyline
 90
        2
 70
     0
 43
0.0
 10
-6.957114234927311
 20
-17.35445750960186
 10
-6.929625874896718
 20
-17.4263296719612
  0
LWPOLYLINE
  5
5ED
330
6F
100
AcDbEntity
  8
BEFUND
100
AcDbPolyline
 90
       17
 70
     0
 43
0.0
 10
-6.897007072799157
 20
-17.42277687149876
 10
-6.863378863387663
 20
-17.44113920760612
 10
-6.817002210125799
 20
-17.44319869103019
 10
-6.787953900565871
 20
-17.44626964967309
 10
-6.811414741097982
 20
-17.48448235428035
 10
-6.848123789142411
 20
-17.5170830047683
 10
-6.902668526868659
 20
-17.54559846418802
 10
-6.904722036345266
 20
-17.57872438249825
 10
-6.855287061637065
 20
-17.57976595722161
 10
-6.776794586680531
 20
-17.56349274450843
 10
-6.748751548624753
 20
-17.53547498084578
 10
-6.754344532065614
 20
-17.50642276524328
 10
-6.728336851876836
 20
-17.47126907138398
 10
-6.704358785374803
 20
-17.4162383560284
 10
-6.724739246808399
 20
-17.40450736134432
 10
-6.76754517776542
 20
-17.39531447516292
 10
-6.796589811049984
 20
-17.38408921808825
  0
LWPOLYLINE
  5
600
330
6F
100
AcDbEntity
  8
BEFUND
100
AcDbPolyline
 90
        7
 70
     0
 43
0.0
 10
-7.170278546439281
 20
-17.64995478505974
 10
-7.149885218041914
 20
-17.63314573523262
 10
-7.112682839817424
 20
-17.63673001380286
 10
-7.110143812245903
 20
-17.65711690871835
 10
-7.135123244209512
 20
-17.67239495968462
 10
-7.163662369651874
 20
-17.67034351811291
 10
-7.170278546439281
 20
-17.64995478505974
  0
LWPOLYLINE
  5
609
330
6F
100
AcDbEntity
  8
BEFUND
100
AcDbPolyline
 90
       17
 70
     0
 43
0.0
 10
-7.147468866180884
 20
-19.05607219018016
 10
-7.115346151469907
 20
-19.02245018448334
 10
-7.103577015428933
 20
-18.91746887682011
 10
-7.069922612555476
 20
-18.87773183660109
 10
-6.982773548065908
 20
-18.87777112679403
 10
-6.907869717256613
 20
-18.90838352169308
 10
-6.842625909346814
 20
-18.88751754216457
 10
-6.811016055028765
 20
-18.86103031782834
 10
-6.839539096766415
 20
-18.82330382061762
 10
-6.902228252934397
 20
-18.82990092672658
 10
-7.006192341198552
 20
-18.8227190430879
 10
-7.084165522280273
 20
-18.81758745218488
 10
-7.18150148586209
 20
-18.8042928316961
 10
-7.173894742671988
 20
-18.88838748078191
 10
-7.163224163622504
 20
-18.95923277351934
 10
-7.176505687380301
 20
-19.02751904893797
 10
-7.147468866180884
 20
-19.05607219018016
  0
LWPOLYLINE
  5
61C
330
6F
100
AcDbEntity
  8
BEFUND
100
AcDbPolyline
 90
       12
 70
     0
 43
0.0
 10
-6.94013052206092
 20
-19.24830136223335
 10
-6.891718051397636
 20
-19.25647748855009
 10
-6.855541853493423
 20
-19.27535061714548
 10
-6.85657906263979
 20
-19.31510236246596
 10
-6.853027640780604
 20
-19.35077902647543
 10
-6.889228194009098
 20
-19.38592812499052
 10
-6.918277192870656
 20
-19.38438609730359
 10
-6.919281545305965
 20
-19.35125880039009
 10
-6.904492229175549
 20
-19.32986043025579
 10
-6.928434911527211
 20
-19.30640602320556
 10
-6.944729722358143
 20
-19.27582005153569
 10
-6.94013052206092
 20
-19.24830136223335
  0
LWPOLYLINE
  5
62A
330
6F
100
AcDbEntity
  8
BEFUND
100
AcDbPolyline
 90
       16
 70
     0
 43
0.0
 10
-7.70423420105414
 20
-18.31436175977174
 10
-7.655766501889777
 20
-18.33112960938061
 10
-7.56559817637961
 20
-18.41679041171042
 10
-7.506527534096193
 20
-18.52333258797184
 10
-7.484133312913355
 20
-18.59010601613922
 10
-7.472976066932906
 20
-18.71191590384244
 10
-7.492373314514533
 20
-18.78019942205455
 10
-7.477630641127788
 20
-18.86225871327335
 10
-7.481750756811982
 20
-18.95756023805701
 10
-7.491993948870731
 20
-19.06916760249769
 10
-7.52515800853786
 20
-19.15171493925073
 10
-7.556295901026395
 20
-19.26178395227983
 10
-7.615944657590439
 20
-19.30711535454297
 10
-7.635350406558842
 20
-19.39425568787855
 10
-7.639466156666043
 20
-19.47987398327448
 10
-7.644065586730476
 20
-19.5079023162288
  0
LWPOLYLINE
  5
63C
330
6F
100
AcDbEntity
  8
BEFUND
100
AcDbPolyline
 90
       11
 70
     0
 43
0.0
 10
-7.565056155530743
 20
-17.21454103667599
 10
-7.570713933324882
 20
-17.32920833093347
 10
-7.574323486288249
 20
-17.4224715108764
 10
-7.577419259789848
 20
-17.50656133485079
 10
-7.583576801245933
 20
-17.59931372230568
 10
-7.602468081450937
 20
-17.67575176871676
 10
-7.624423197515321
 20
-17.76543917147622
 10
-7.654029172074167
 20
-17.86888350633114
 10
-7.673420445708329
 20
-17.92391628959162
 10
-7.704015148532189
 20
-17.95957755919801
 10
-7.706538009801692
 20
-17.95889947455629
  0
LWPOLYLINE
  5
649
330
6F
100
AcDbEntity
  8
BEFUND
100
AcDbPolyline
 90
        4
 70
     0
 43
0.0
 10
-6.96748020139615
 20
-17.13583777376228
 10
-6.966208321208325
 20
-17.178116670205
 10
-6.968274238114283
 20
-17.23876334572247
 10
-6.96678505688569
 20
-17.32693238681763
  0
LWPOLYLINE
  5
64F
330
6F
100
AcDbEntity
  8
BEFUND
100
AcDbPolyline
 90
        6
 70
     0
 43
0.0
 10
-6.854684592032159
 20
-17.37387015158657
 10
-6.884241166640811
 20
-17.36774110126455
 10
-6.903589703573875
 20
-17.32798016525567
 10
-6.893881659327442
 20
-17.2729430164182
 10
-6.8938559253999
 20
-17.21586292739579
 10
-6.900639371607887
 20
-17.15148201222839
  0
LWPOLYLINE
  5
657
330
6F
100
AcDbEntity
  8
BEFUND
100
AcDbPolyline
 90
       12
 70
     0
 43
0.0
 10
-5.182479165321256
 20
-19.49219385133855
 10
-5.202290703162636
 20
-19.34897502420935
 10
-5.227671098887803
 20
-19.12319139801914
 10
-5.224504327318253
 20
-18.88162168558115
 10
-5.22540390590571
 20
-18.61609688336214
 10
-5.210046355484706
 20
-18.46473961173867
 10
-5.172199230488632
 20
-18.16865365270849
 10
-5.15120756829614
 20
-17.95512238298207
 10
-5.140913138149516
 20
-17.72986448414856
 10
-5.149500108217856
 20
-17.55912995469075
 10
-5.138629861462708
 20
-17.18709491385256
 10
-5.111718437347679
 20
-17.05257346794481
  0
LWPOLYLINE
  5
665
330
6F
100
AcDbEntity
  8
BEFUNDSCHRAFF
100
AcDbPolyline
 90
        2
 70
     0
 43
0.0
 10
-7.696554976842437
 20
-19.49921470812239
 10
-7.644065586730476
 20
-19.5079023162288
  0
LWPOLYLINE
  5
669
330
6F
100
AcDbEntity
  8
BEFUNDSCHRAFF
100
AcDbPolyline
 90
        2
 70
     0
 43
0.0
 10
-5.182479165321256
 20
-19.49219385133855
 10
-5.124344175077298
 20
-19.41322527874272
  0
LWPOLYLINE
  5
66D
330
6F
100
AcDbEntity
  8
BEFUNDSCHRAFF
100
AcDbPolyline
 90
        2
 70
     0
 43
0.0
 10
-6.108826152239726
 20
-17.95061350117822
 10
-6.124113623661618
 20
-17.94652945894602
  0
INSERT
  5
671
330
6F
100
AcDbEntity
  8
BEFUNDSCHRAFF
100
AcDbBlockReference
  2
*X1
 10
0.0
 20
0.0
 30
0.0
 41
0.01
 42
0.01
 43
0.01
1001
ACAD
1000
HATCH
1002
{
1070
    16
1000
ANSI31,I
1040
40.0
1040
5.497787143782137
1002
}
  0
INSERT
  5
672
330
6F
100
AcDbEntity
  8
BEFUNDSCHRAFF
100
AcDbBlockReference
  2
*X2
 10
0.0
 20
0.0
 30
0.0
 41
0.01
 42
0.01
 43
0.01
1001
ACAD
1000
HATCH
1002
{
1070
    16
1000
ANSI31,I
1040
40.0
1040
5.497787143782137
1002
}
  0
INSERT
  5
673
330
6F
100
AcDbEntity
  8
BEFUNDSCHRAFF
100
AcDbBlockReference
  2
*X3
 10
0.0
 20
0.0
 30
0.0
 41
0.01
 42
0.01
 43
0.01
1001
ACAD
1000
HATCH
1002
{
1070
    16
1000
ANSI31,I
1040
40.0
1040
5.497787143782137
1002
}
  0
ENDSEC
  0
SECTION
  2
OBJECTS
  0
DICTIONARY
  5
C
330
0
100
AcDbDictionary
281
     1
  3
ACAD_CIP_PREVIOUS_PRODUCT_INFO
350
676
  3
ACAD_COLOR
350
62
  3
ACAD_DETAILVIEWSTYLE
350
69
  3
ACAD_GROUP
350
D
  3
ACAD_LAYOUT
350
61
  3
ACAD_MATERIAL
350
10
  3
ACAD_MLEADERSTYLE
350
65
  3
ACAD_MLINESTYLE
350
5E
  3
ACAD_PLOTSETTINGS
350
60
  3
ACAD_PLOTSTYLENAME
350
E
  3
ACAD_SCALELIST
350
42
  3
ACAD_SECTIONVIEWSTYLE
350
67
  3
ACAD_TABLESTYLE
350
63
  3
ACAD_VISUALSTYLE
350
29
  3
ACDB_RECOMPOSE_DATA
350
721
  3
AcDbVariableDictionary
350
6C1
  0
DICTIONARY
  5
67A
330
2
100
AcDbDictionary
280
     1
281
     1
  3
ACAD_LAYERSTATES
360
67B
  0
XRECORD
  5
676
102
{ACAD_REACTORS
330
C
102
}
330
C
100
AcDbXrecord
280
     1
300
ACD
300
2014
300
DSADV_F_S
  0
DICTIONARY
  5
62
102
{ACAD_REACTORS
330
C
102
}
330
C
100
AcDbDictionary
281
     1
  0
DICTIONARY
  5
69
102
{ACAD_REACTORS
330
C
102
}
330
C
100
AcDbDictionary
281
     1
  3
Imperial24
350
6A
  0
DICTIONARY
  5
D
102
{ACAD_REACTORS
330
C
102
}
330
C
100
AcDbDictionary
281
     1
  0
DICTIONARY
  5
61
102
{ACAD_REACTORS
330
C
102
}
330
C
100
AcDbDictionary
281
     1
  3
Layout1
350
6E
  3
Model
350
72
  0
DICTIONARY
  5
10
102
{ACAD_REACTORS
330
C
102
}
330
C
100
AcDbDictionary
281
     1
  3
ByBlock
350
19
  3
ByLayer
350
11
  3
Global
350
21
  0
DICTIONARY
  5
65
102
{ACAD_REACTORS
330
C
102
}
330
C
100
AcDbDictionary
281
     1
  3
Standard
350
66
  0
DICTIONARY
  5
5E
102
{ACAD_REACTORS
330
C
102
}
330
C
100
AcDbDictionary
281
     1
  3
Standard
350
5F
  0
DICTIONARY
  5
60
102
{ACAD_REACTORS
330
C
102
}
330
C
100
AcDbDictionary
281
     1
  0
ACDBDICTIONARYWDFLT
  5
E
102
{ACAD_REACTORS
330
C
102
}
330
C
100
AcDbDictionary
281
     1
  3
Normal
350
F
100
AcDbDictionaryWithDefault
340
F
  0
DICTIONARY
  5
42
102
{ACAD_REACTORS
330
C
102
}
330
C
100
AcDbDictionary
281
     1
  3
A0
350
43
  3
A1
350
44
  3
A2
350
45
  3
A3
350
46
  3
A4
350
47
  3
A5
350
48
  3
A6
350
49
  3
A7
350
4A
  3
A8
350
4B
  3
A9
350
4C
  3
B0
350
4D
  3
B1
350
4E
  3
B2
350
4F
  3
B3
350
50
  3
B4
350
51
  3
B5
350
52
  3
B6
350
53
  0
DICTIONARY
  5
67
102
{ACAD_REACTORS
330
C
102
}
330
C
100
AcDbDictionary
281
     1
  3
Imperial24
350
68
  0
DICTIONARY
  5
63
102
{ACAD_REACTORS
330
C
102
}
330
C
100
AcDbDictionary
281
     1
  3
Standard
350
64
  0
DICTIONARY
  5
29
102
{ACAD_REACTORS
330
C
102
}
330
C
100
AcDbDictionary
281
     1
  3
2dWireframe
350
2F
  3
Basic
350
2E
  3
Brighten
350
35
  3
ColorChange
350
39
  3
Conceptual
350
32
  3
Dim
350
34
  3
EdgeColorOff
350
41
  3
Facepattern
350
38
  3
Flat
350
2A
  3
FlatWithEdges
350
2B
  3
Gouraud
350
2C
  3
GouraudWithEdges
350
2D
  3
Hidden
350
31
  3
JitterOff
350
3F
  3
Linepattern
350
37
  3
OverhangOff
350
40
  3
Realistic
350
33
  3
Shaded
350
3E
  3
Shaded with edges
350
3D
  3
Shades of Gray
350
3A
  3
Sketchy
350
3B
  3
Thicken
350
36
  3
Wireframe
350
30
  3
X-Ray
350
3C
  0
XRECORD
  5
721
102
{ACAD_REACTORS
330
C
102
}
330
C
100
AcDbXrecord
280
     1
 90
        1
330
64
330
68
330
6A
  0
DICTIONARY
  5
6C1
102
{ACAD_REACTORS
330
C
102
}
330
C
100
AcDbDictionary
281
     1
  3
CANNOSCALE
350
6C6
  3
CMLEADERSTYLE
350
6C3
  3
CTABLESTYLE
350
6C2
  3
CVIEWDETAILSTYLE
350
6C4
  3
CVIEWSECTIONSTYLE
350
6C5
  0
DICTIONARY
  5
67B
102
{ACAD_REACTORS
330
67A
102
}
330
67A
100
AcDbDictionary
281
     1
  0
ACDBDETAILVIEWSTYLE
  5
6A
102
{ACAD_XDICTIONARY
360
71F
102
}
102
{ACAD_REACTORS
330
69
102
}
330
69
100
AcDbModelDocViewStyle
 70
     0
  3
Imperial24
290
     0
100
AcDbDetailViewStyle
 70
     0
 71
     0
 90
        3
 71
     1
340
55
 62
   256
 40
0.24
340
0
 62
   256
 40
0.24
300

 40
0.36
280
     3
 71
     2
340
5C
 90
       25
 62
   256
 71
     3
340
55
 62
   256
 40
0.24
 90
        1
 40
0.75
 90
        1
300
%<\AcVar ViewType \f "%tc1">% %<\AcVar ViewDetailId>%\PVARIA %<\AcVar ViewScale \f "%sn">%
 71
     4
340
5C
 90
       25
 62
   256
340
5C
 90
       25
 62
   256
280
     0
  0
LAYOUT
  5
6E
102
{ACAD_REACTORS
330
61
102
}
330
61
100
AcDbPlotSettings
  1

  2
Kyocera FS-1350DN KX
  4

  6

 40
0.0
 41
0.0
 42
0.0
 43
0.0
 44
0.0
 45
0.0
 46
0.0
 47
0.0
 48
0.0
 49
0.0
140
0.0
141
0.0
142
1.0
143
1.0
 70
   688
 72
     0
 73
     0
 74
     5
  7

 75
    16
147
1.0
 76
     0
 77
     2
 78
   300
148
0.0
149
0.0
100
AcDbLayout
  1
Layout1
 70
     0
 71
     1
 10
0.0
 20
0.0
 11
12.0
 21
9.0
 12
0.0
 22
0.0
 32
0.0
 14
1.000000000000000E+20
 24
1.000000000000000E+20
 34
1.000000000000000E+20
 15
-1.000000000000000E+20
 25
-1.000000000000000E+20
 35
-1.000000000000000E+20
146
0.0
 13
0.0
 23
0.0
 33
0.0
 16
1.0
 26
0.0
 36
0.0
 17
0.0
 27
1.0
 37
0.0
 76
     0
330
6B
  0
LAYOUT
  5
72
102
{ACAD_XDICTIONARY
360
6BF
102
}
102
{ACAD_REACTORS
330
61
102
}
330
61
100
AcDbPlotSettings
  1

  2
Kyocera FS-1350DN KX
  4

  6

 40
0.0
 41
0.0
 42
0.0
 43
0.0
 44
0.0
 45
0.0
 46
0.0
 47
0.0
 48
0.0
 49
0.0
140
0.0
141
0.0
142
1.0
143
1.0
 70
  1712
 72
     0
 73
     0
 74
     0
  7

 75
     0
147
1.0
 76
     0
 77
     2
 78
   300
148
0.0
149
0.0
100
AcDbLayout
  1
Model
 70
     1
 71
     0
 10
0.0
 20
0.0
 11
12.0
 21
9.0
 12
0.0
 22
0.0
 32
0.0
 14
0.0
 24
0.0
 34
0.0
 15
0.0
 25
0.0
 35
0.0
146
0.0
 13
0.0
 23
0.0
 33
0.0
 16
1.0
 26
0.0
 36
0.0
 17
0.0
 27
1.0
 37
0.0
 76
     0
330
6F
331
93
  0
MATERIAL
  5
19
102
{ACAD_XDICTIONARY
360
1A
102
}
102
{ACAD_REACTORS
330
10
102
}
330
10
100
AcDbMaterial
  1
ByBlock
 72
     0
 43
0.0208333333333333
 43
0.0
 43
0.0
 43
0.0
 43
0.0
 43
0.0208333333333333
 43
0.0
 43
0.0
 43
0.0
 43
0.0
 43
1.0
 43
0.0
 43
0.0
 43
0.0
 43
0.0
 43
1.0
 77
     0
 47
0.0208333333333333
 47
0.0
 47
0.0
 47
0.0
 47
0.0
 47
0.0208333333333333
 47
0.0
 47
0.0
 47
0.0
 47
0.0
 47
1.0
 47
0.0
 47
0.0
 47
0.0
 47
0.0
 47
1.0
171
     0
 49
0.0208333333333333
 49
0.0
 49
0.0
 49
0.0
 49
0.0
 49
0.0208333333333333
 49
0.0
 49
0.0
 49
0.0
 49
0.0
 49
1.0
 49
0.0
 49
0.0
 49
0.0
 49
0.0
 49
1.0
175
     0
142
0.0208333333333333
142
0.0
142
0.0
142
0.0
142
0.0
142
0.0208333333333333
142
0.0
142
0.0
142
0.0
142
0.0
142
1.0
142
0.0
142
0.0
142
0.0
142
0.0
142
1.0
179
     0
144
0.0208333333333333
144
0.0
144
0.0
144
0.0
144
0.0
144
0.0208333333333333
144
0.0
144
0.0
144
0.0
144
0.0
144
1.0
144
0.0
144
0.0
144
0.0
144
0.0
144
1.0
147
0.0208333333333333
147
0.0
147
0.0
147
0.0
147
0.0
147
0.0208333333333333
147
0.0
147
0.0
147
0.0
147
0.0
147
1.0
147
0.0
147
0.0
147
0.0
147
0.0
147
1.0
  0
MATERIAL
  5
11
102
{ACAD_XDICTIONARY
360
12
102
}
102
{ACAD_REACTORS
330
10
102
}
330
10
100
AcDbMaterial
  1
ByLayer
 72
     0
 43
0.0208333333333333
 43
0.0
 43
0.0
 43
0.0
 43
0.0
 43
0.0208333333333333
 43
0.0
 43
0.0
 43
0.0
 43
0.0
 43
1.0
 43
0.0
 43
0.0
 43
0.0
 43
0.0
 43
1.0
 77
     0
 47
0.0208333333333333
 47
0.0
 47
0.0
 47
0.0
 47
0.0
 47
0.0208333333333333
 47
0.0
 47
0.0
 47
0.0
 47
0.0
 47
1.0
 47
0.0
 47
0.0
 47
0.0
 47
0.0
 47
1.0
171
     0
 49
0.0208333333333333
 49
0.0
 49
0.0
 49
0.0
 49
0.0
 49
0.0208333333333333
 49
0.0
 49
0.0
 49
0.0
 49
0.0
 49
1.0
 49
0.0
 49
0.0
 49
0.0
 49
0.0
 49
1.0
175
     0
142
0.0208333333333333
142
0.0
142
0.0
142
0.0
142
0.0
142
0.0208333333333333
142
0.0
142
0.0
142
0.0
142
0.0
142
1.0
142
0.0
142
0.0
142
0.0
142
0.0
142
1.0
179
     0
144
0.0208333333333333
144
0.0
144
0.0
144
0.0
144
0.0
144
0.0208333333333333
144
0.0
144
0.0
144
0.0
144
0.0
144
1.0
144
0.0
144
0.0
144
0.0
144
0.0
144
1.0
147
0.0208333333333333
147
0.0
147
0.0
147
0.0
147
0.0
147
0.0208333333333333
147
0.0
147
0.0
147
0.0
147
0.0
147
1.0
147
0.0
147
0.0
147
0.0
147
0.0
147
1.0
  0
MATERIAL
  5
21
102
{ACAD_XDICTIONARY
360
22
102
}
102
{ACAD_REACTORS
330
10
102
}
330
10
100
AcDbMaterial
  1
Global
 72
     0
 43
0.0208333333333333
 43
0.0
 43
0.0
 43
0.0
 43
0.0
 43
0.0208333333333333
 43
0.0
 43
0.0
 43
0.0
 43
0.0
 43
1.0
 43
0.0
 43
0.0
 43
0.0
 43
0.0
 43
1.0
 77
     0
 47
0.0208333333333333
 47
0.0
 47
0.0
 47
0.0
 47
0.0
 47
0.0208333333333333
 47
0.0
 47
0.0
 47
0.0
 47
0.0
 47
1.0
 47
0.0
 47
0.0
 47
0.0
 47
0.0
 47
1.0
171
     0
 49
0.0208333333333333
 49
0.0
 49
0.0
 49
0.0
 49
0.0
 49
0.0208333333333333
 49
0.0
 49
0.0
 49
0.0
 49
0.0
 49
1.0
 49
0.0
 49
0.0
 49
0.0
 49
0.0
 49
1.0
175
     0
142
0.0208333333333333
142
0.0
142
0.0
142
0.0
142
0.0
142
0.0208333333333333
142
0.0
142
0.0
142
0.0
142
0.0
142
1.0
142
0.0
142
0.0
142
0.0
142
0.0
142
1.0
179
     0
144
0.0208333333333333
144
0.0
144
0.0
144
0.0
144
0.0
144
0.0208333333333333
144
0.0
144
0.0
144
0.0
144
0.0
144
1.0
144
0.0
144
0.0
144
0.0
144
0.0
144
1.0
147
0.0208333333333333
147
0.0
147
0.0
147
0.0
147
0.0
147
0.0208333333333333
147
0.0
147
0.0
147
0.0
147
0.0
147
1.0
147
0.0
147
0.0
147
0.0
147
0.0
147
1.0
  0
MLEADERSTYLE
  5
66
102
{ACAD_REACTORS
330
65
102
}
330
65
100
AcDbMLeaderStyle
179
     2
170
     2
171
     1
172
     0
 90
        2
 40
0.0
 41
0.0
173
     1
 91
-1056964608
340
5A
 92
       -2
290
     1
 42
0.09
291
     1
 43
0.36
  3
Standard
 44
0.18
300

342
55
174
     1
178
     6
175
     1
176
     0
 93
-1056964608
 45
0.18
292
     0
297
     0
 46
0.18
 94
-1056964608
 47
1.0
 49
1.0
140
1.0
293
     1
141
0.0
294
     1
177
     0
142
1.0
295
     0
296
     0
143
0.125
271
     0
272
     9
273
     9
298
     1
  0
MLINESTYLE
  5
5F
102
{ACAD_REACTORS
330
5E
102
}
330
5E
100
AcDbMlineStyle
  2
STANDARD
 70
     0
  3

 62
   256
 51
90.0
 52
90.0
 71
     2
 49
0.5
 62
   256
  6
BYLAYER
 49
-0.5
 62
   256
  6
BYLAYER
  0
ACDBPLACEHOLDER
  5
F
102
{ACAD_REACTORS
330
E
102
}
330
E
  0
SCALE
  5
43
102
{ACAD_REACTORS
330
42
102
}
330
42
100
AcDbScale
 70
     0
300
1:1
140
1.0
141
1.0
290
     1
  0
SCALE
  5
44
102
{ACAD_REACTORS
330
42
102
}
330
42
100
AcDbScale
 70
     0
300
1/128" = 1'-0"
140
0.0078125
141
12.0
290
     0
  0
SCALE
  5
45
102
{ACAD_REACTORS
330
42
102
}
330
42
100
AcDbScale
 70
     0
300
1/64" = 1'-0"
140
0.015625
141
12.0
290
     0
  0
SCALE
  5
46
102
{ACAD_REACTORS
330
42
102
}
330
42
100
AcDbScale
 70
     0
300
1/32" = 1'-0"
140
0.03125
141
12.0
290
     0
  0
SCALE
  5
47
102
{ACAD_REACTORS
330
42
102
}
330
42
100
AcDbScale
 70
     0
300
1/16" = 1'-0"
140
0.0625
141
12.0
290
     0
  0
SCALE
  5
48
102
{ACAD_REACTORS
330
42
102
}
330
42
100
AcDbScale
 70
     0
300
3/32" = 1'-0"
140
0.09375
141
12.0
290
     0
  0
SCALE
  5
49
102
{ACAD_REACTORS
330
42
102
}
330
42
100
AcDbScale
 70
     0
300
1/8" = 1'-0"
140
0.125
141
12.0
290
     0
  0
SCALE
  5
4A
102
{ACAD_REACTORS
330
42
102
}
330
42
100
AcDbScale
 70
     0
300
3/16" = 1'-0"
140
0.1875
141
12.0
290
     0
  0
SCALE
  5
4B
102
{ACAD_REACTORS
330
42
102
}
330
42
100
AcDbScale
 70
     0
300
1/4" = 1'-0"
140
0.25
141
12.0
290
     0
  0
SCALE
  5
4C
102
{ACAD_REACTORS
330
42
102
}
330
42
100
AcDbScale
 70
     0
300
3/8" = 1'-0"
140
0.375
141
12.0
290
     0
  0
SCALE
  5
4D
102
{ACAD_REACTORS
330
42
102
}
330
42
100
AcDbScale
 70
     0
300
1/2" = 1'-0"
140
0.5
141
12.0
290
     0
  0
SCALE
  5
4E
102
{ACAD_REACTORS
330
42
102
}
330
42
100
AcDbScale
 70
     0
300
3/4" = 1'-0"
140
0.75
141
12.0
290
     0
  0
SCALE
  5
4F
102
{ACAD_REACTORS
330
42
102
}
330
42
100
AcDbScale
 70
     0
300
1" = 1'-0"
140
1.0
141
12.0
290
     0
  0
SCALE
  5
50
102
{ACAD_REACTORS
330
42
102
}
330
42
100
AcDbScale
 70
     0
300
1-1/2" = 1'-0"
140
1.5
141
12.0
290
     0
  0
SCALE
  5
51
102
{ACAD_REACTORS
330
42
102
}
330
42
100
AcDbScale
 70
     0
300
3" = 1'-0"
140
3.0
141
12.0
290
     0
  0
SCALE
  5
52
102
{ACAD_REACTORS
330
42
102
}
330
42
100
AcDbScale
 70
     0
300
6" = 1'-0"
140
6.0
141
12.0
290
     0
  0
SCALE
  5
53
102
{ACAD_REACTORS
330
42
102
}
330
42
100
AcDbScale
 70
     0
300
1'-0" = 1'-0"
140
12.0
141
12.0
290
     0
  0
ACDBSECTIONVIEWSTYLE
  5
68
102
{ACAD_XDICTIONARY
360
71D
102
}
102
{ACAD_REACTORS
330
67
102
}
330
67
100
AcDbModelDocViewStyle
 70
     0
  3
Imperial24
290
     0
100
AcDbSectionViewStyle
 70
     0
 71
     0
 90
       78
 71
     1
340
55
 62
   256
 40
0.24
340
0
340
0
 62
   256
 40
0.24
300
I, O, Q, S, X, Z
 40
0.48
 90
        3
 40
0.18
 90
        1
 71
     2
340
5C
 90
       25
 62
   256
340
5C
 90
       50
 62
   256
 40
0.24
 40
0.0
 40
0.24
 71
     3
340
55
 62
   256
 40
0.24
 90
        1
 40
0.75
 90
        1
300
%<\AcVar ViewType \f "%tc1">% %<\AcVar ViewSectionStartId>%-%<\AcVar ViewSectionEndId>%\PVARIA %<\AcVar ViewScale \f "%sn">%
 71
     4
 62
   256
 62
   257
300
ANSI31
 40
1.0
 90
        0
290
     0
290
     0
 90
        6
 40
0.0
 40
1.570796326794896
 40
0.2617993877991494
 40
1.308996938995747
 40
-0.2617993877991494
 40
1.832595714594046
  0
TABLESTYLE
  5
64
102
{ACAD_XDICTIONARY
360
71B
102
}
102
{ACAD_REACTORS
330
63
102
}
330
63
100
AcDbTableStyle
280
     0
  3
Standard
 70
     0
 71
     0
 40
0.06
 41
0.06
280
     0
281
     0
  7
STANDARD
140
0.18
170
     2
 62
     0
 63
     7
283
     0
 90
      512
 91
        0
  1

274
    -2
284
     1
 64
     0
275
    -2
285
     1
 65
     0
276
    -2
286
     1
 66
     0
277
    -2
287
     1
 67
     0
278
    -2
288
     1
 68
     0
279
    -2
289
     1
 69
     0
  7
STANDARD
140
0.25
170
     5
 62
     0
 63
     7
283
     0
 90
      512
 91
        0
  1

274
    -2
284
     1
 64
     0
275
    -2
285
     1
 65
     0
276
    -2
286
     1
 66
     0
277
    -2
287
     1
 67
     0
278
    -2
288
     1
 68
     0
279
    -2
289
     1
 69
     0
  7
STANDARD
140
0.18
170
     5
 62
     0
 63
     7
283
     0
 90
      512
 91
        0
  1

274
    -2
284
     1
 64
     0
275
    -2
285
     1
 65
     0
276
    -2
286
     1
 66
     0
277
    -2
287
     1
 67
     0
278
    -2
288
     1
 68
     0
279
    -2
289
     1
 69
     0
  0
VISUALSTYLE
  5
2F
102
{ACAD_REACTORS
330
29
102
}
330
29
100
AcDbVisualStyle
  2
2dWireframe
 70
     4
177
     3
291
     0
 70
    58
 90
        0
176
     1
 90
        2
176
     1
 90
        0
176
     1
 90
        0
176
     1
 40
0.6
176
     1
 40
30.0
176
     1
 62
     7
420
 16777215
176
     1
 90
        1
176
     1
 90
        4
176
     1
 62
     7
176
     1
 62
   257
176
     1
 90
        1
176
     1
 90
        1
176
     1
 40
1.0
176
     1
 90
        0
176
     1
 62
   257
176
     1
 40
1.0
176
     1
 90
        1
176
     1
 90
        6
176
     1
 90
        2
176
     1
 62
     7
176
     1
 90
        5
176
     1
 90
        0
176
     1
 90
        0
176
     1
290
     0
176
     1
 90
        1
176
     1
 40
0.0
176
     1
 90
        0
176
     1
290
     1
176
     1
290
     1
176
     1
290
     0
176
     1
290
     0
176
     1
290
     0
176
     1
290
     0
176
     1
290
     0
176
     1
290
     0
176
     1
290
     0
176
     1
 90
       50
176
     1
 40
0.0
176
     1
 40
1.0
176
     1
 90
        0
176
     1
 62
    18
420
        0
176
     1
 90
       50
176
     1
 90
        3
176
     1
 62
     5
420
      255
176
     1
290
     0
176
     1
 90
       50
176
     1
 90
       50
176
     1
 90
       50
176
     1
290
     0
176
     1
 90
       50
176
     1
 62
   256
176
     0
 40
1.0
176
     0
 90
        2
176
     1
  1
strokes_ogs.tif
176
     1
290
     0
176
     1
 40
1.0
176
     1
 40
1.0
176
     1
  0
VISUALSTYLE
  5
2E
102
{ACAD_REACTORS
330
29
102
}
330
29
100
AcDbVisualStyle
  2
Basic
 70
     7
177
     3
291
     1
 70
    58
 90
        1
176
     1
 90
        0
176
     1
 90
        1
176
     1
 90
        0
176
     1
 40
0.6
176
     1
 40
30.0
176
     1
 62
     7
420
 16777215
176
     1
 90
        0
176
     1
 90
        4
176
     1
 62
     7
176
     1
 62
   257
176
     1
 90
        1
176
     1
 90
        1
176
     1
 40
1.0
176
     1
 90
        8
176
     1
 62
     7
176
     1
 40
1.0
176
     1
 90
        1
176
     1
 90
        6
176
     1
 90
        2
176
     1
 62
     7
176
     1
 90
        5
176
     1
 90
        0
176
     1
 90
        0
176
     1
290
     0
176
     1
 90
        1
176
     1
 40
0.0
176
     1
 90
        0
176
     1
290
     0
176
     1
290
     1
176
     1
290
     1
176
     1
290
     0
176
     1
290
     0
176
     1
290
     0
176
     1
290
     0
176
     1
290
     0
176
     1
290
     0
176
     1
 90
       50
176
     1
 40
0.0
176
     1
 40
1.0
176
     1
 90
        0
176
     1
 62
    18
420
        0
176
     1
 90
       50
176
     1
 90
        3
176
     1
 62
     5
420
      255
176
     1
290
     0
176
     1
 90
       50
176
     1
 90
       50
176
     1
 90
       50
176
     1
290
     0
176
     1
 90
       50
176
     1
 62
   256
176
     0
 40
1.0
176
     0
 90
        2
176
     1
  1
strokes_ogs.tif
176
     1
290
     0
176
     1
 40
1.0
176
     1
 40
1.0
176
     1
  0
VISUALSTYLE
  5
35
102
{ACAD_REACTORS
330
29
102
}
330
29
100
AcDbVisualStyle
  2
Brighten
 70
    12
177
     3
291
     1
 70
    58
 90
        2
176
     1
 90
        2
176
     1
 90
        0
176
     1
 90
        0
176
     1
 40
0.6
176
     1
 40
30.0
176
     1
 62
     7
420
 16777215
176
     1
 90
        1
176
     1
 90
        4
176
     1
 62
     7
176
     1
 62
   257
176
     1
 90
        1
176
     1
 90
        1
176
     1
 40
1.0
176
     1
 90
        8
176
     1
 62
     7
176
     1
 40
1.0
176
     1
 90
        1
176
     1
 90
        6
176
     1
 90
        2
176
     1
 62
     7
176
     1
 90
        5
176
     1
 90
        0
176
     1
 90
        0
176
     1
290
     0
176
     1
 90
        1
176
     1
 40
50.0
176
     1
 90
        0
176
     1
290
     0
176
     1
290
     1
176
     1
290
     1
176
     1
290
     0
176
     1
290
     0
176
     1
290
     0
176
     1
290
     0
176
     1
290
     0
176
     1
290
     0
176
     1
 90
       50
176
     1
 40
0.0
176
     1
 40
1.0
176
     1
 90
        0
176
     1
 62
    18
420
        0
176
     1
 90
       50
176
     1
 90
        3
176
     1
 62
     5
420
      255
176
     1
290
     0
176
     1
 90
       50
176
     1
 90
       50
176
     1
 90
       50
176
     1
290
     0
176
     1
 90
       50
176
     1
 62
   256
176
     0
 40
1.0
176
     0
 90
        2
176
     1
  1
strokes_ogs.tif
176
     1
290
     0
176
     1
 40
1.0
176
     1
 40
1.0
176
     1
  0
VISUALSTYLE
  5
39
102
{ACAD_REACTORS
330
29
102
}
330
29
100
AcDbVisualStyle
  2
ColorChange
 70
    16
177
     3
291
     1
 70
    58
 90
        2
176
     1
 90
        2
176
     1
 90
        3
176
     1
 90
        0
176
     1
 40
0.6
176
     1
 40
30.0
176
     1
 62
     8
420
  8421504
176
     1
 90
        1
176
     1
 90
        4
176
     1
 62
     7
176
     1
 62
   257
176
     1
 90
        1
176
     1
 90
        1
176
     1
 40
1.0
176
     1
 90
        8
176
     1
 62
     8
420
  8421504
176
     1
 40
1.0
176
     1
 90
        1
176
     1
 90
        6
176
     1
 90
        2
176
     1
 62
     7
176
     1
 90
        5
176
     1
 90
        0
176
     1
 90
        0
176
     1
290
     0
176
     1
 90
        1
176
     1
 40
0.0
176
     1
 90
        0
176
     1
290
     0
176
     1
290
     1
176
     1
290
     1
176
     1
290
     0
176
     1
290
     0
176
     1
290
     0
176
     1
290
     0
176
     1
290
     0
176
     1
290
     0
176
     1
 90
       50
176
     1
 40
0.0
176
     1
 40
1.0
176
     1
 90
        0
176
     1
 62
    18
420
        0
176
     1
 90
       50
176
     1
 90
        3
176
     1
 62
     5
420
      255
176
     1
290
     0
176
     1
 90
       50
176
     1
 90
       50
176
     1
 90
       50
176
     1
290
     0
176
     1
 90
       50
176
     1
 62
   256
176
     0
 40
1.0
176
     0
 90
        2
176
     1
  1
strokes_ogs.tif
176
     1
290
     0
176
     1
 40
1.0
176
     1
 40
1.0
176
     1
  0
VISUALSTYLE
  5
32
102
{ACAD_REACTORS
330
29
102
}
330
29
100
AcDbVisualStyle
  2
Conceptual
 70
     9
177
     3
291
     0
 70
    58
 90
        3
176
     1
 90
        2
176
     1
 90
        0
176
     1
 90
        0
176
     1
 40
0.6
176
     1
 40
30.0
176
     1
 62
     7
420
 16777215
176
     1
 90
        2
176
     1
 90
        2
176
     1
 62
     7
176
     1
 62
   257
176
     1
 90
        1
176
     1
 90
        1
176
     1
 40
179.0
176
     1
 90
        8
176
     1
 62
     7
176
     1
 40
1.0
176
     1
 90
        1
176
     1
 90
        6
176
     1
 90
        2
176
     1
 62
     7
176
     1
 90
        3
176
     1
 90
        0
176
     1
 90
        0
176
     1
290
     0
176
     1
 90
        1
176
     1
 40
0.0
176
     1
 90
        0
176
     1
290
     0
176
     1
290
     1
176
     1
290
     1
176
     1
290
     0
176
     1
290
     0
176
     1
290
     0
176
     1
290
     0
176
     1
290
     0
176
     1
290
     0
176
     1
 90
       50
176
     1
 40
0.0
176
     1
 40
1.0
176
     1
 90
        0
176
     1
 62
    18
420
        0
176
     1
 90
       50
176
     1
 90
        3
176
     1
 62
     5
420
      255
176
     1
290
     0
176
     1
 90
       50
176
     1
 90
       50
176
     1
 90
       50
176
     1
290
     0
176
     1
 90
       50
176
     1
 62
   256
176
     0
 40
1.0
176
     0
 90
        2
176
     1
  1
strokes_ogs.tif
176
     1
290
     0
176
     1
 40
1.0
176
     1
 40
1.0
176
     1
  0
VISUALSTYLE
  5
34
102
{ACAD_REACTORS
330
29
102
}
330
29
100
AcDbVisualStyle
  2
Dim
 70
    11
177
     3
291
     1
 70
    58
 90
        2
176
     1
 90
        2
176
     1
 90
        0
176
     1
 90
        0
176
     1
 40
0.6
176
     1
 40
30.0
176
     1
 62
     7
420
 16777215
176
     1
 90
        1
176
     1
 90
        4
176
     1
 62
     7
176
     1
 62
   257
176
     1
 90
        1
176
     1
 90
        1
176
     1
 40
1.0
176
     1
 90
        8
176
     1
 62
     7
176
     1
 40
1.0
176
     1
 90
        1
176
     1
 90
        6
176
     1
 90
        2
176
     1
 62
     7
176
     1
 90
        5
176
     1
 90
        0
176
     1
 90
        0
176
     1
290
     0
176
     1
 90
        1
176
     1
 40
-50.0
176
     1
 90
        0
176
     1
290
     0
176
     1
290
     1
176
     1
290
     1
176
     1
290
     0
176
     1
290
     0
176
     1
290
     0
176
     1
290
     0
176
     1
290
     0
176
     1
290
     0
176
     1
 90
       50
176
     1
 40
0.0
176
     1
 40
1.0
176
     1
 90
        0
176
     1
 62
    18
420
        0
176
     1
 90
       50
176
     1
 90
        3
176
     1
 62
     5
420
      255
176
     1
290
     0
176
     1
 90
       50
176
     1
 90
       50
176
     1
 90
       50
176
     1
290
     0
176
     1
 90
       50
176
     1
 62
   256
176
     0
 40
1.0
176
     0
 90
        2
176
     1
  1
strokes_ogs.tif
176
     1
290
     0
176
     1
 40
1.0
176
     1
 40
1.0
176
     1
  0
VISUALSTYLE
  5
41
102
{ACAD_REACTORS
330
29
102
}
330
29
100
AcDbVisualStyle
  2
EdgeColorOff
 70
    22
177
     3
291
     1
 70
    58
 90
        2
176
     0
 90
        2
176
     0
 90
        0
176
     0
 90
        0
176
     0
 40
0.6
176
     0
 40
30.0
176
     0
 62
     7
420
 16777215
176
     0
 90
        1
176
     0
 90
        4
176
     0
 62
     7
176
     0
 62
   257
176
     0
 90
        1
176
     0
 90
        1
176
     0
 40
1.0
176
     0
 90
        8
176
     2
 62
     7
176
     0
 40
1.0
176
     0
 90
        1
176
     0
 90
        6
176
     0
 90
        2
176
     0
 62
     7
176
     0
 90
        5
176
     0
 90
        0
176
     0
 90
        0
176
     0
290
     0
176
     0
 90
        1
176
     0
 40
0.0
176
     0
 90
        0
176
     0
290
     0
176
     0
290
     1
176
     0
290
     1
176
     0
290
     0
176
     0
290
     0
176
     0
290
     0
176
     0
290
     0
176
     0
290
     0
176
     0
290
     0
176
     0
 90
       50
176
     0
 40
0.0
176
     0
 40
1.0
176
     0
 90
        0
176
     0
 62
    18
420
        0
176
     0
 90
       50
176
     0
 90
        3
176
     0
 62
     5
420
      255
176
     0
290
     0
176
     0
 90
       50
176
     0
 90
       50
176
     0
 90
       50
176
     0
290
     0
176
     0
 90
       50
176
     0
 62
   256
176
     0
 40
1.0
176
     0
 90
        2
176
     0
  1
strokes_ogs.tif
176
     0
290
     0
176
     0
 40
1.0
176
     0
 40
1.0
176
     0
  0
VISUALSTYLE
  5
38
102
{ACAD_REACTORS
330
29
102
}
330
29
100
AcDbVisualStyle
  2
Facepattern
 70
    15
177
     3
291
     1
 70
    58
 90
        2
176
     1
 90
        2
176
     1
 90
        0
176
     1
 90
        0
176
     1
 40
0.6
176
     1
 40
30.0
176
     1
 62
     7
420
 16777215
176
     1
 90
        1
176
     1
 90
        4
176
     1
 62
     7
176
     1
 62
   257
176
     1
 90
        1
176
     1
 90
        1
176
     1
 40
1.0
176
     1
 90
        8
176
     1
 62
     7
176
     1
 40
1.0
176
     1
 90
        1
176
     1
 90
        6
176
     1
 90
        2
176
     1
 62
     7
176
     1
 90
        5
176
     1
 90
        0
176
     1
 90
        0
176
     1
290
     0
176
     1
 90
        1
176
     1
 40
0.0
176
     1
 90
        0
176
     1
290
     0
176
     1
290
     1
176
     1
290
     1
176
     1
290
     0
176
     1
290
     0
176
     1
290
     0
176
     1
290
     0
176
     1
290
     0
176
     1
290
     0
176
     1
 90
       50
176
     1
 40
0.0
176
     1
 40
1.0
176
     1
 90
        0
176
     1
 62
    18
420
        0
176
     1
 90
       50
176
     1
 90
        3
176
     1
 62
     5
420
      255
176
     1
290
     0
176
     1
 90
       50
176
     1
 90
       50
176
     1
 90
       50
176
     1
290
     0
176
     1
 90
       50
176
     1
 62
   256
176
     0
 40
1.0
176
     0
 90
        2
176
     1
  1
strokes_ogs.tif
176
     1
290
     0
176
     1
 40
1.0
176
     1
 40
1.0
176
     1
  0
VISUALSTYLE
  5
2A
102
{ACAD_REACTORS
330
29
102
}
330
29
100
AcDbVisualStyle
  2
Flat
 70
     0
177
     3
291
     1
 70
    58
 90
        2
176
     1
 90
        1
176
     1
 90
        1
176
     1
 90
        2
176
     1
 40
0.6
176
     1
 40
30.0
176
     1
 62
     7
420
 16777215
176
     1
 90
        0
176
     1
 90
        0
176
     1
 62
     7
176
     1
 62
   257
176
     1
 90
        1
176
     1
 90
        1
176
     1
 40
1.0
176
     1
 90
        8
176
     1
 62
     7
176
     1
 40
1.0
176
     1
 90
        1
176
     1
 90
        6
176
     1
 90
        2
176
     1
 62
     7
176
     1
 90
        5
176
     1
 90
        0
176
     1
 90
        0
176
     1
290
     0
176
     1
 90
       13
176
     1
 40
0.0
176
     1
 90
        0
176
     1
290
     0
176
     1
290
     1
176
     1
290
     1
176
     1
290
     0
176
     1
290
     0
176
     1
290
     0
176
     1
290
     0
176
     1
290
     0
176
     1
290
     0
176
     1
 90
       50
176
     1
 40
0.0
176
     1
 40
1.0
176
     1
 90
        0
176
     1
 62
    18
420
        0
176
     1
 90
       50
176
     1
 90
        3
176
     1
 62
     5
420
      255
176
     1
290
     0
176
     1
 90
       50
176
     1
 90
       50
176
     1
 90
       50
176
     1
290
     0
176
     1
 90
       50
176
     1
 62
   256
176
     0
 40
1.0
176
     0
 90
        2
176
     1
  1
strokes_ogs.tif
176
     1
290
     0
176
     1
 40
1.0
176
     1
 40
1.0
176
     1
  0
VISUALSTYLE
  5
2B
102
{ACAD_REACTORS
330
29
102
}
330
29
100
AcDbVisualStyle
  2
FlatWithEdges
 70
     1
177
     3
291
     1
 70
    58
 90
        2
176
     1
 90
        1
176
     1
 90
        1
176
     1
 90
        2
176
     1
 40
0.6
176
     1
 40
30.0
176
     1
 62
     7
420
 16777215
176
     1
 90
        1
176
     1
 90
        0
176
     1
 62
     7
176
     1
 62
   257
176
     1
 90
        1
176
     1
 90
        1
176
     1
 40
1.0
176
     1
 90
        0
176
     1
 62
   257
176
     1
 40
1.0
176
     1
 90
        1
176
     1
 90
        6
176
     1
 90
        2
176
     1
 62
     7
176
     1
 90
        5
176
     1
 90
        0
176
     1
 90
        0
176
     1
290
     0
176
     1
 90
       13
176
     1
 40
0.0
176
     1
 90
        0
176
     1
290
     0
176
     1
290
     1
176
     1
290
     1
176
     1
290
     0
176
     1
290
     0
176
     1
290
     0
176
     1
290
     0
176
     1
290
     0
176
     1
290
     0
176
     1
 90
       50
176
     1
 40
0.0
176
     1
 40
1.0
176
     1
 90
        0
176
     1
 62
    18
420
        0
176
     1
 90
       50
176
     1
 90
        3
176
     1
 62
     5
420
      255
176
     1
290
     0
176
     1
 90
       50
176
     1
 90
       50
176
     1
 90
       50
176
     1
290
     0
176
     1
 90
       50
176
     1
 62
   256
176
     0
 40
1.0
176
     0
 90
        2
176
     1
  1
strokes_ogs.tif
176
     1
290
     0
176
     1
 40
1.0
176
     1
 40
1.0
176
     1
  0
VISUALSTYLE
  5
2C
102
{ACAD_REACTORS
330
29
102
}
330
29
100
AcDbVisualStyle
  2
Gouraud
 70
     2
177
     3
291
     1
 70
    58
 90
        2
176
     1
 90
        2
176
     1
 90
        1
176
     1
 90
        2
176
     1
 40
0.6
176
     1
 40
30.0
176
     1
 62
     7
420
 16777215
176
     1
 90
        0
176
     1
 90
        0
176
     1
 62
     7
176
     1
 62
   257
176
     1
 90
        1
176
     1
 90
        1
176
     1
 40
1.0
176
     1
 90
        0
176
     1
 62
     7
176
     1
 40
1.0
176
     1
 90
        1
176
     1
 90
        6
176
     1
 90
        2
176
     1
 62
     7
176
     1
 90
        5
176
     1
 90
        0
176
     1
 90
        0
176
     1
290
     0
176
     1
 90
       13
176
     1
 40
0.0
176
     1
 90
        0
176
     1
290
     0
176
     1
290
     1
176
     1
290
     1
176
     1
290
     0
176
     1
290
     0
176
     1
290
     0
176
     1
290
     0
176
     1
290
     0
176
     1
290
     0
176
     1
 90
       50
176
     1
 40
0.0
176
     1
 40
1.0
176
     1
 90
        0
176
     1
 62
    18
420
        0
176
     1
 90
       50
176
     1
 90
        3
176
     1
 62
     5
420
      255
176
     1
290
     0
176
     1
 90
       50
176
     1
 90
       50
176
     1
 90
       50
176
     1
290
     0
176
     1
 90
       50
176
     1
 62
   256
176
     0
 40
1.0
176
     0
 90
        2
176
     1
  1
strokes_ogs.tif
176
     1
290
     0
176
     1
 40
1.0
176
     1
 40
1.0
176
     1
  0
VISUALSTYLE
  5
2D
102
{ACAD_REACTORS
330
29
102
}
330
29
100
AcDbVisualStyle
  2
GouraudWithEdges
 70
     3
177
     3
291
     1
 70
    58
 90
        2
176
     1
 90
        2
176
     1
 90
        1
176
     1
 90
        2
176
     1
 40
0.6
176
     1
 40
30.0
176
     1
 62
     7
420
 16777215
176
     1
 90
        1
176
     1
 90
        0
176
     1
 62
     7
176
     1
 62
   257
176
     1
 90
        1
176
     1
 90
        1
176
     1
 40
1.0
176
     1
 90
        0
176
     1
 62
   257
176
     1
 40
1.0
176
     1
 90
        1
176
     1
 90
        6
176
     1
 90
        2
176
     1
 62
     7
176
     1
 90
        5
176
     1
 90
        0
176
     1
 90
        0
176
     1
290
     0
176
     1
 90
       13
176
     1
 40
0.0
176
     1
 90
        0
176
     1
290
     0
176
     1
290
     1
176
     1
290
     1
176
     1
290
     0
176
     1
290
     0
176
     1
290
     0
176
     1
290
     0
176
     1
290
     0
176
     1
290
     0
176
     1
 90
       50
176
     1
 40
0.0
176
     1
 40
1.0
176
     1
 90
        0
176
     1
 62
    18
420
        0
176
     1
 90
       50
176
     1
 90
        3
176
     1
 62
     5
420
      255
176
     1
290
     0
176
     1
 90
       50
176
     1
 90
       50
176
     1
 90
       50
176
     1
290
     0
176
     1
 90
       50
176
     1
 62
   256
176
     0
 40
1.0
176
     0
 90
        2
176
     1
  1
strokes_ogs.tif
176
     1
290
     0
176
     1
 40
1.0
176
     1
 40
1.0
176
     1
  0
VISUALSTYLE
  5
31
102
{ACAD_REACTORS
330
29
102
}
330
29
100
AcDbVisualStyle
  2
Hidden
 70
     6
177
     3
291
     0
 70
    58
 90
        1
176
     1
 90
        2
176
     1
 90
        2
176
     1
 90
        0
176
     1
 40
0.6
176
     1
 40
30.0
176
     1
 62
     7
420
 16777215
176
     1
 90
        2
176
     1
 90
        2
176
     1
 62
     7
176
     1
 62
   257
176
     1
 90
        2
176
     1
 90
        1
176
     1
 40
40.0
176
     1
 90
        0
176
     1
 62
   257
176
     1
 40
1.0
176
     1
 90
        1
176
     1
 90
        6
176
     1
 90
        2
176
     1
 62
     7
176
     1
 90
        3
176
     1
 90
        0
176
     1
 90
        0
176
     1
290
     0
176
     1
 90
        1
176
     1
 40
0.0
176
     1
 90
        0
176
     1
290
     0
176
     1
290
     1
176
     1
290
     1
176
     1
290
     0
176
     1
290
     0
176
     1
290
     0
176
     1
290
     0
176
     1
290
     0
176
     1
290
     0
176
     1
 90
       50
176
     1
 40
0.0
176
     1
 40
1.0
176
     1
 90
        0
176
     1
 62
    18
420
        0
176
     1
 90
       50
176
     1
 90
        3
176
     1
 62
     5
420
      255
176
     1
290
     0
176
     1
 90
       50
176
     1
 90
       50
176
     1
 90
       50
176
     1
290
     0
176
     1
 90
       50
176
     1
 62
   256
176
     0
 40
1.0
176
     0
 90
        2
176
     1
  1
strokes_ogs.tif
176
     1
290
     0
176
     1
 40
1.0
176
     1
 40
1.0
176
     1
  0
VISUALSTYLE
  5
3F
102
{ACAD_REACTORS
330
29
102
}
330
29
100
AcDbVisualStyle
  2
JitterOff
 70
    20
177
     3
291
     1
 70
    58
 90
        2
176
     0
 90
        2
176
     0
 90
        0
176
     0
 90
        0
176
     0
 40
0.6
176
     0
 40
30.0
176
     0
 62
     7
420
 16777215
176
     0
 90
        1
176
     0
 90
        4
176
     0
 62
     7
176
     0
 62
   257
176
     0
 90
        1
176
     0
 90
        1
176
     0
 40
1.0
176
     0
 90
       10
176
     2
 62
     7
176
     0
 40
1.0
176
     0
 90
        1
176
     0
 90
        6
176
     0
 90
        2
176
     0
 62
     7
176
     0
 90
        5
176
     0
 90
        0
176
     0
 90
        0
176
     0
290
     0
176
     0
 90
        1
176
     0
 40
0.0
176
     0
 90
        0
176
     0
290
     0
176
     0
290
     1
176
     0
290
     1
176
     0
290
     0
176
     0
290
     0
176
     0
290
     0
176
     0
290
     0
176
     0
290
     0
176
     0
290
     0
176
     0
 90
       50
176
     0
 40
0.0
176
     0
 40
1.0
176
     0
 90
        0
176
     0
 62
    18
420
        0
176
     0
 90
       50
176
     0
 90
        3
176
     0
 62
     5
420
      255
176
     0
290
     0
176
     0
 90
       50
176
     0
 90
       50
176
     0
 90
       50
176
     0
290
     0
176
     0
 90
       50
176
     0
 62
   256
176
     0
 40
1.0
176
     0
 90
        2
176
     0
  1
strokes_ogs.tif
176
     0
290
     0
176
     0
 40
1.0
176
     0
 40
1.0
176
     0
  0
VISUALSTYLE
  5
37
102
{ACAD_REACTORS
330
29
102
}
330
29
100
AcDbVisualStyle
  2
Linepattern
 70
    14
177
     3
291
     1
 70
    58
 90
        2
176
     1
 90
        2
176
     1
 90
        0
176
     1
 90
        0
176
     1
 40
0.6
176
     1
 40
30.0
176
     1
 62
     7
420
 16777215
176
     1
 90
        1
176
     1
 90
        4
176
     1
 62
     7
176
     1
 62
   257
176
     1
 90
        7
176
     1
 90
        7
176
     1
 40
1.0
176
     1
 90
        8
176
     1
 62
     7
176
     1
 40
1.0
176
     1
 90
        1
176
     1
 90
        6
176
     1
 90
        2
176
     1
 62
     7
176
     1
 90
        5
176
     1
 90
        0
176
     1
 90
        0
176
     1
290
     0
176
     1
 90
        1
176
     1
 40
0.0
176
     1
 90
        0
176
     1
290
     0
176
     1
290
     1
176
     1
290
     1
176
     1
290
     0
176
     1
290
     0
176
     1
290
     0
176
     1
290
     0
176
     1
290
     0
176
     1
290
     0
176
     1
 90
       50
176
     1
 40
0.0
176
     1
 40
1.0
176
     1
 90
        0
176
     1
 62
    18
420
        0
176
     1
 90
       50
176
     1
 90
        3
176
     1
 62
     5
420
      255
176
     1
290
     0
176
     1
 90
       50
176
     1
 90
       50
176
     1
 90
       50
176
     1
290
     0
176
     1
 90
       50
176
     1
 62
   256
176
     0
 40
1.0
176
     0
 90
        2
176
     1
  1
strokes_ogs.tif
176
     1
290
     0
176
     1
 40
1.0
176
     1
 40
1.0
176
     1
  0
VISUALSTYLE
  5
40
102
{ACAD_REACTORS
330
29
102
}
330
29
100
AcDbVisualStyle
  2
OverhangOff
 70
    21
177
     3
291
     1
 70
    58
 90
        2
176
     0
 90
        2
176
     0
 90
        0
176
     0
 90
        0
176
     0
 40
0.6
176
     0
 40
30.0
176
     0
 62
     7
420
 16777215
176
     0
 90
        1
176
     0
 90
        4
176
     0
 62
     7
176
     0
 62
   257
176
     0
 90
        1
176
     0
 90
        1
176
     0
 40
1.0
176
     0
 90
        9
176
     2
 62
     7
176
     0
 40
1.0
176
     0
 90
        1
176
     0
 90
        6
176
     0
 90
        2
176
     0
 62
     7
176
     0
 90
        5
176
     0
 90
        0
176
     0
 90
        0
176
     0
290
     0
176
     0
 90
        1
176
     0
 40
0.0
176
     0
 90
        0
176
     0
290
     0
176
     0
290
     1
176
     0
290
     1
176
     0
290
     0
176
     0
290
     0
176
     0
290
     0
176
     0
290
     0
176
     0
290
     0
176
     0
290
     0
176
     0
 90
       50
176
     0
 40
0.0
176
     0
 40
1.0
176
     0
 90
        0
176
     0
 62
    18
420
        0
176
     0
 90
       50
176
     0
 90
        3
176
     0
 62
     5
420
      255
176
     0
290
     0
176
     0
 90
       50
176
     0
 90
       50
176
     0
 90
       50
176
     0
290
     0
176
     0
 90
       50
176
     0
 62
   256
176
     0
 40
1.0
176
     0
 90
        2
176
     0
  1
strokes_ogs.tif
176
     0
290
     0
176
     0
 40
1.0
176
     0
 40
1.0
176
     0
  0
VISUALSTYLE
  5
33
102
{ACAD_REACTORS
330
29
102
}
330
29
100
AcDbVisualStyle
  2
Realistic
 70
     8
177
     3
291
     0
 70
    58
 90
        2
176
     1
 90
        3
176
     1
 90
        0
176
     1
 90
        2
176
     1
 40
0.6
176
     1
 40
30.0
176
     1
 62
     7
420
 16777215
176
     1
 90
        0
176
     1
 90
        0
176
     1
 62
     7
176
     1
 62
   257
176
     1
 90
        1
176
     1
 90
        1
176
     1
 40
1.0
176
     1
 90
        8
176
     1
 62
   257
176
     1
 40
1.0
176
     1
 90
        1
176
     1
 90
        6
176
     1
 90
        2
176
     1
 62
     7
176
     1
 90
        3
176
     1
 90
        0
176
     1
 90
        0
176
     1
290
     0
176
     1
 90
       13
176
     1
 40
0.0
176
     1
 90
        0
176
     1
290
     0
176
     1
290
     1
176
     1
290
     1
176
     1
290
     0
176
     1
290
     0
176
     1
290
     0
176
     1
290
     0
176
     1
290
     0
176
     1
290
     0
176
     1
 90
       50
176
     1
 40
0.0
176
     1
 40
1.0
176
     1
 90
        0
176
     1
 62
    18
420
        0
176
     1
 90
       50
176
     1
 90
        3
176
     1
 62
     5
420
      255
176
     1
290
     0
176
     1
 90
       50
176
     1
 90
       50
176
     1
 90
       50
176
     1
290
     0
176
     1
 90
       50
176
     1
 62
   256
176
     0
 40
1.0
176
     0
 90
        2
176
     1
  1
strokes_ogs.tif
176
     1
290
     0
176
     1
 40
1.0
176
     1
 40
1.0
176
     1
  0
VISUALSTYLE
  5
3E
102
{ACAD_REACTORS
330
29
102
}
330
29
100
AcDbVisualStyle
  2
Shaded
 70
    27
177
     3
291
     0
 70
    58
 90
        2
176
     1
 90
        2
176
     1
 90
        1
176
     1
 90
        2
176
     1
 40
0.6
176
     1
 40
30.0
176
     1
 62
     7
420
 16777215
176
     1
 90
        0
176
     1
 90
        4
176
     1
 62
     7
176
     1
 62
   257
176
     1
 90
        1
176
     1
 90
        1
176
     1
 40
1.0
176
     1
 90
        8
176
     1
 62
   257
176
     1
 40
1.0
176
     1
 90
        1
176
     1
 90
        6
176
     1
 90
        2
176
     1
 62
     8
420
  7895160
176
     1
 90
        3
176
     1
 90
        0
176
     1
 90
        0
176
     1
290
     0
176
     1
 90
        5
176
     1
 40
0.0
176
     1
 90
        0
176
     1
290
     0
176
     1
290
     1
176
     1
290
     1
176
     1
290
     0
176
     1
290
     0
176
     1
290
     0
176
     1
290
     0
176
     1
290
     0
176
     1
290
     0
176
     1
 90
       50
176
     1
 40
0.0
176
     1
 40
1.0
176
     1
 90
        0
176
     1
 62
    18
420
        0
176
     1
 90
       50
176
     1
 90
        3
176
     1
 62
     5
420
      255
176
     1
290
     0
176
     1
 90
       50
176
     1
 90
       50
176
     1
 90
       50
176
     1
290
     0
176
     1
 90
       50
176
     1
 62
   256
176
     0
 40
1.0
176
     0
 90
        2
176
     1
  1
strokes_ogs.tif
176
     1
290
     0
176
     1
 40
1.0
176
     1
 40
1.0
176
     1
  0
VISUALSTYLE
  5
3D
102
{ACAD_REACTORS
330
29
102
}
330
29
100
AcDbVisualStyle
  2
Shaded with edges
 70
    26
177
     3
291
     0
 70
    58
 90
        2
176
     1
 90
        2
176
     1
 90
        1
176
     1
 90
        2
176
     1
 40
0.6
176
     1
 40
30.0
176
     1
 62
     7
420
 16777215
176
     1
 90
        1
176
     1
 90
       10
176
     1
 62
     7
176
     1
 62
   257
176
     1
 90
        2
176
     1
 90
        1
176
     1
 40
1.0
176
     1
 90
        8
176
     1
 62
   257
176
     1
 40
1.0
176
     1
 90
        1
176
     1
 90
        6
176
     1
 90
        2
176
     1
 62
     7
176
     1
 90
        3
176
     1
 90
        0
176
     1
 90
        0
176
     1
290
     0
176
     1
 90
        5
176
     1
 40
0.0
176
     1
 90
        0
176
     1
290
     0
176
     1
290
     1
176
     1
290
     1
176
     1
290
     0
176
     1
290
     0
176
     1
290
     0
176
     1
290
     0
176
     1
290
     0
176
     1
290
     0
176
     1
 90
       50
176
     1
 40
0.0
176
     1
 40
1.0
176
     1
 90
        0
176
     1
 62
    18
420
        0
176
     1
 90
       50
176
     1
 90
        3
176
     1
 62
     5
420
      255
176
     1
290
     0
176
     1
 90
       50
176
     1
 90
       50
176
     1
 90
       50
176
     1
290
     0
176
     1
 90
       50
176
     1
 62
   256
176
     0
 40
1.0
176
     0
 90
        2
176
     1
  1
strokes_ogs.tif
176
     1
290
     0
176
     1
 40
1.0
176
     1
 40
1.0
176
     1
  0
VISUALSTYLE
  5
3A
102
{ACAD_REACTORS
330
29
102
}
330
29
100
AcDbVisualStyle
  2
Shades of Gray
 70
    23
177
     3
291
     0
 70
    58
 90
        2
176
     1
 90
        2
176
     1
 90
        3
176
     1
 90
        0
176
     1
 40
0.6
176
     1
 40
30.0
176
     1
 62
     7
420
 16777215
176
     1
 90
        2
176
     1
 90
        2
176
     1
 62
     7
176
     1
 62
     7
176
     1
 90
        1
176
     1
 90
        1
176
     1
 40
40.0
176
     1
 90
        8
176
     1
 62
     7
176
     1
 40
1.0
176
     1
 90
        1
176
     1
 90
        6
176
     1
 90
        2
176
     1
 62
     7
176
     1
 90
        3
176
     1
 90
        0
176
     1
 90
        0
176
     1
290
     0
176
     1
 90
        1
176
     1
 40
0.0
176
     1
 90
        0
176
     1
290
     0
176
     1
290
     1
176
     1
290
     1
176
     1
290
     0
176
     1
290
     0
176
     1
290
     0
176
     1
290
     0
176
     1
290
     0
176
     1
290
     0
176
     1
 90
       50
176
     1
 40
0.0
176
     1
 40
1.0
176
     1
 90
        0
176
     1
 62
    18
420
        0
176
     1
 90
       50
176
     1
 90
        3
176
     1
 62
     5
420
      255
176
     1
290
     0
176
     1
 90
       50
176
     1
 90
       50
176
     1
 90
       50
176
     1
290
     0
176
     1
 90
       50
176
     1
 62
   256
176
     0
 40
1.0
176
     0
 90
        2
176
     1
  1
strokes_ogs.tif
176
     1
290
     0
176
     1
 40
1.0
176
     1
 40
1.0
176
     1
  0
VISUALSTYLE
  5
3B
102
{ACAD_REACTORS
330
29
102
}
330
29
100
AcDbVisualStyle
  2
Sketchy
 70
    24
177
     3
291
     0
 70
    58
 90
        1
176
     1
 90
        2
176
     1
 90
        2
176
     1
 90
        0
176
     1
 40
0.6
176
     1
 40
30.0
176
     1
 62
     7
420
 16777215
176
     1
 90
        2
176
     1
 90
        2
176
     1
 62
     7
176
     1
 62
     7
176
     1
 90
        1
176
     1
 90
        1
176
     1
 40
40.0
176
     1
 90
       11
176
     1
 62
     7
176
     1
 40
1.0
176
     1
 90
        1
176
     1
 90
        6
176
     1
 90
        2
176
     1
 62
     7
176
     1
 90
        6
176
     1
 90
        0
176
     1
 90
        0
176
     1
290
     0
176
     1
 90
        1
176
     1
 40
0.0
176
     1
 90
        0
176
     1
290
     0
176
     1
290
     1
176
     1
290
     1
176
     1
290
     0
176
     1
290
     0
176
     1
290
     0
176
     1
290
     0
176
     1
290
     0
176
     1
290
     0
176
     1
 90
       50
176
     1
 40
0.0
176
     1
 40
1.0
176
     1
 90
        0
176
     1
 62
    18
420
        0
176
     1
 90
       50
176
     1
 90
        3
176
     1
 62
     5
420
      255
176
     1
290
     0
176
     1
 90
       50
176
     1
 90
       50
176
     1
 90
       50
176
     1
290
     0
176
     1
 90
       50
176
     1
 62
   256
176
     0
 40
1.0
176
     0
 90
        2
176
     1
  1
strokes_ogs.tif
176
     1
290
     0
176
     1
 40
1.0
176
     1
 40
1.0
176
     1
  0
VISUALSTYLE
  5
36
102
{ACAD_REACTORS
330
29
102
}
330
29
100
AcDbVisualStyle
  2
Thicken
 70
    13
177
     3
291
     1
 70
    58
 90
        2
176
     1
 90
        2
176
     1
 90
        0
176
     1
 90
        0
176
     1
 40
0.6
176
     1
 40
30.0
176
     1
 62
     7
420
 16777215
176
     1
 90
        1
176
     1
 90
        4
176
     1
 62
     7
176
     1
 62
   257
176
     1
 90
        1
176
     1
 90
        1
176
     1
 40
1.0
176
     1
 90
       12
176
     1
 62
     7
176
     1
 40
1.0
176
     1
 90
        1
176
     1
 90
        6
176
     1
 90
        2
176
     1
 62
     7
176
     1
 90
        5
176
     1
 90
        0
176
     1
 90
        0
176
     1
290
     0
176
     1
 90
        1
176
     1
 40
0.0
176
     1
 90
        0
176
     1
290
     0
176
     1
290
     1
176
     1
290
     1
176
     1
290
     0
176
     1
290
     0
176
     1
290
     0
176
     1
290
     0
176
     1
290
     0
176
     1
290
     0
176
     1
 90
       50
176
     1
 40
0.0
176
     1
 40
1.0
176
     1
 90
        0
176
     1
 62
    18
420
        0
176
     1
 90
       50
176
     1
 90
        3
176
     1
 62
     5
420
      255
176
     1
290
     0
176
     1
 90
       50
176
     1
 90
       50
176
     1
 90
       50
176
     1
290
     0
176
     1
 90
       50
176
     1
 62
   256
176
     0
 40
1.0
176
     0
 90
        2
176
     1
  1
strokes_ogs.tif
176
     1
290
     0
176
     1
 40
1.0
176
     1
 40
1.0
176
     1
  0
VISUALSTYLE
  5
30
102
{ACAD_REACTORS
330
29
102
}
330
29
100
AcDbVisualStyle
  2
Wireframe
 70
     5
177
     3
291
     0
 70
    58
 90
        0
176
     1
 90
        2
176
     1
 90
        0
176
     1
 90
        0
176
     1
 40
0.6
176
     1
 40
30.0
176
     1
 62
     7
420
 16777215
176
     1
 90
        1
176
     1
 90
        4
176
     1
 62
     7
176
     1
 62
   257
176
     1
 90
        1
176
     1
 90
        1
176
     1
 40
1.0
176
     1
 90
        0
176
     1
 62
   257
176
     1
 40
1.0
176
     1
 90
        1
176
     1
 90
        6
176
     1
 90
        2
176
     1
 62
     7
176
     1
 90
        3
176
     1
 90
        0
176
     1
 90
        0
176
     1
290
     0
176
     1
 90
        1
176
     1
 40
0.0
176
     1
 90
        0
176
     1
290
     0
176
     1
290
     1
176
     1
290
     1
176
     1
290
     0
176
     1
290
     0
176
     1
290
     0
176
     1
290
     0
176
     1
290
     0
176
     1
290
     0
176
     1
 90
       50
176
     1
 40
0.0
176
     1
 40
1.0
176
     1
 90
        0
176
     1
 62
    18
420
        0
176
     1
 90
       50
176
     1
 90
        3
176
     1
 62
     5
420
      255
176
     1
290
     0
176
     1
 90
       50
176
     1
 90
       50
176
     1
 90
       50
176
     1
290
     0
176
     1
 90
       50
176
     1
 62
   256
176
     0
 40
1.0
176
     0
 90
        2
176
     1
  1
strokes_ogs.tif
176
     1
290
     0
176
     1
 40
1.0
176
     1
 40
1.0
176
     1
  0
VISUALSTYLE
  5
3C
102
{ACAD_REACTORS
330
29
102
}
330
29
100
AcDbVisualStyle
  2
X-Ray
 70
    25
177
     3
291
     0
 70
    58
 90
        2
176
     1
 90
        2
176
     1
 90
        1
176
     1
 90
        1
176
     1
 40
0.5
176
     1
 40
30.0
176
     1
 62
     7
420
 16777215
176
     1
 90
        1
176
     1
 90
        0
176
     1
 62
     7
176
     1
 62
   257
176
     1
 90
        1
176
     1
 90
        1
176
     1
 40
1.0
176
     1
 90
        8
176
     1
 62
     7
176
     1
 40
1.0
176
     1
 90
        1
176
     1
 90
        6
176
     1
 90
        2
176
     1
 62
     7
176
     1
 90
        3
176
     1
 90
        0
176
     1
 90
        0
176
     1
290
     0
176
     1
 90
       13
176
     1
 40
0.0
176
     1
 90
        0
176
     1
290
     0
176
     1
290
     1
176
     1
290
     1
176
     1
290
     0
176
     1
290
     0
176
     1
290
     0
176
     1
290
     0
176
     1
290
     0
176
     1
290
     0
176
     1
 90
       50
176
     1
 40
0.0
176
     1
 40
1.0
176
     1
 90
        0
176
     1
 62
    18
420
        0
176
     1
 90
       50
176
     1
 90
        3
176
     1
 62
     5
420
      255
176
     1
290
     0
176
     1
 90
       50
176
     1
 90
       50
176
     1
 90
       50
176
     1
290
     0
176
     1
 90
       50
176
     1
 62
   256
176
     0
 40
1.0
176
     0
 90
        2
176
     1
  1
strokes_ogs.tif
176
     1
290
     0
176
     1
 40
1.0
176
     1
 40
1.0
176
     1
  0
DICTIONARYVAR
  5
6C6
102
{ACAD_REACTORS
330
6C1
102
}
330
6C1
100
DictionaryVariables
280
     0
  1
1:1
  0
DICTIONARYVAR
  5
6C3
102
{ACAD_REACTORS
330
6C1
102
}
330
6C1
100
DictionaryVariables
280
     0
  1
STANDARD
  0
DICTIONARYVAR
  5
6C2
102
{ACAD_REACTORS
330
6C1
102
}
330
6C1
100
DictionaryVariables
280
     0
  1
STANDARD
  0
DICTIONARYVAR
  5
6C4
102
{ACAD_REACTORS
330
6C1
102
}
330
6C1
100
DictionaryVariables
280
     0
  1
Imperial24
  0
DICTIONARYVAR
  5
6C5
102
{ACAD_REACTORS
330
6C1
102
}
330
6C1
100
DictionaryVariables
280
     0
  1
Imperial24
  0
DICTIONARY
  5
71F
330
6A
100
AcDbDictionary
280
     1
281
     1
  3
ACAD_XREC_ROUNDTRIP
360
720
  0
DICTIONARY
  5
6BF
330
72
100
AcDbDictionary
280
     1
281
     1
  0
DICTIONARY
  5
1A
330
19
100
AcDbDictionary
280
     1
281
     1
  3
BUMPTILE
360
1C
  3
DIFFUSETILE
360
1B
  3
OPACITYTILE
360
1F
  3
REFLECTIONTILE
360
1E
  3
REFRACTIONTILE
360
20
  3
SPECULARTILE
360
1D
  0
DICTIONARY
  5
12
330
11
100
AcDbDictionary
280
     1
281
     1
  3
BUMPTILE
360
14
  3
DIFFUSETILE
360
13
  3
OPACITYTILE
360
17
  3
REFLECTIONTILE
360
16
  3
REFRACTIONTILE
360
18
  3
SPECULARTILE
360
15
  0
DICTIONARY
  5
22
330
21
100
AcDbDictionary
280
     1
281
     1
  3
BUMPTILE
360
24
  3
DIFFUSETILE
360
23
  3
OPACITYTILE
360
27
  3
REFLECTIONTILE
360
26
  3
REFRACTIONTILE
360
28
  3
SPECULARTILE
360
25
  0
DICTIONARY
  5
71D
330
68
100
AcDbDictionary
280
     1
281
     1
  3
ACAD_XREC_ROUNDTRIP
360
71E
  0
DICTIONARY
  5
71B
330
64
100
AcDbDictionary
280
     1
281
     1
  3
ACAD_ROUNDTRIP_2008_TABLESTYLE_CELLSTYLEMAP
360
71C
  0
XRECORD
  5
720
102
{ACAD_REACTORS
330
71F
102
}
330
71F
100
AcDbXrecord
280
     1
102
DISPLAYNAME
  1
Imperial24
102
FLAGS
 90
        0
  0
XRECORD
  5
1C
102
{ACAD_REACTORS
330
1A
102
}
330
1A
100
AcDbXrecord
280
     1
270
     1
271
     1
  0
XRECORD
  5
1B
102
{ACAD_REACTORS
330
1A
102
}
330
1A
100
AcDbXrecord
280
     1
270
     1
271
     1
  0
XRECORD
  5
1F
102
{ACAD_REACTORS
330
1A
102
}
330
1A
100
AcDbXrecord
280
     1
270
     1
271
     1
  0
XRECORD
  5
1E
102
{ACAD_REACTORS
330
1A
102
}
330
1A
100
AcDbXrecord
280
     1
270
     1
271
     1
  0
XRECORD
  5
20
102
{ACAD_REACTORS
330
1A
102
}
330
1A
100
AcDbXrecord
280
     1
270
     1
271
     1
  0
XRECORD
  5
1D
102
{ACAD_REACTORS
330
1A
102
}
330
1A
100
AcDbXrecord
280
     1
270
     1
271
     1
  0
XRECORD
  5
14
102
{ACAD_REACTORS
330
12
102
}
330
12
100
AcDbXrecord
280
     1
270
     1
271
     1
  0
XRECORD
  5
13
102
{ACAD_REACTORS
330
12
102
}
330
12
100
AcDbXrecord
280
     1
270
     1
271
     1
  0
XRECORD
  5
17
102
{ACAD_REACTORS
330
12
102
}
330
12
100
AcDbXrecord
280
     1
270
     1
271
     1
  0
XRECORD
  5
16
102
{ACAD_REACTORS
330
12
102
}
330
12
100
AcDbXrecord
280
     1
270
     1
271
     1
  0
XRECORD
  5
18
102
{ACAD_REACTORS
330
12
102
}
330
12
100
AcDbXrecord
280
     1
270
     1
271
     1
  0
XRECORD
  5
15
102
{ACAD_REACTORS
330
12
102
}
330
12
100
AcDbXrecord
280
     1
270
     1
271
     1
  0
XRECORD
  5
24
102
{ACAD_REACTORS
330
22
102
}
330
22
100
AcDbXrecord
280
     1
270
     1
271
     1
  0
XRECORD
  5
23
102
{ACAD_REACTORS
330
22
102
}
330
22
100
AcDbXrecord
280
     1
270
     1
271
     1
  0
XRECORD
  5
27
102
{ACAD_REACTORS
330
22
102
}
330
22
100
AcDbXrecord
280
     1
270
     1
271
     1
  0
XRECORD
  5
26
102
{ACAD_REACTORS
330
22
102
}
330
22
100
AcDbXrecord
280
     1
270
     1
271
     1
  0
XRECORD
  5
28
102
{ACAD_REACTORS
330
22
102
}
330
22
100
AcDbXrecord
280
     1
270
     1
271
     1
  0
XRECORD
  5
25
102
{ACAD_REACTORS
330
22
102
}
330
22
100
AcDbXrecord
280
     1
270
     1
271
     1
  0
XRECORD
  5
71E
102
{ACAD_REACTORS
330
71D
102
}
330
71D
100
AcDbXrecord
280
     1
102
DISPLAYNAME
  1
Imperial24
102
FLAGS
 90
        0
  0
CELLSTYLEMAP
  5
71C
102
{ACAD_REACTORS
330
71B
102
}
330
71B
100
AcDbCellStyleMap
 90
        3
300
CELLSTYLE
  1
TABLEFORMAT_BEGIN
 90
        5
170
     1
 91
        0
 92
    32768
 62
   257
 93
        1
300
CONTENTFORMAT
  1
CONTENTFORMAT_BEGIN
 90
        0
 91
        0
 92
      512
 93
        0
300

 40
0.0
140
1.0
 94
        5
 62
     0
340
55
144
0.25
309
CONTENTFORMAT_END
171
     0
 94
        0
309
TABLEFORMAT_END
  1
CELLSTYLE_BEGIN
 90
        1
 91
        1
300
_TITLE
309
CELLSTYLE_END
300
CELLSTYLE
  1
TABLEFORMAT_BEGIN
 90
        5
170
     1
 91
        0
 92
        0
 62
   257
 93
        1
300
CONTENTFORMAT
  1
CONTENTFORMAT_BEGIN
 90
        0
 91
        0
 92
      512
 93
        0
300

 40
0.0
140
1.0
 94
        5
 62
     0
340
55
144
0.18
309
CONTENTFORMAT_END
171
     0
 94
        0
309
TABLEFORMAT_END
  1
CELLSTYLE_BEGIN
 90
        2
 91
        1
300
_HEADER
309
CELLSTYLE_END
300
CELLSTYLE
  1
TABLEFORMAT_BEGIN
 90
        5
170
     1
 91
        0
 92
        0
 62
   257
 93
        1
300
CONTENTFORMAT
  1
CONTENTFORMAT_BEGIN
 90
        0
 91
        0
 92
      512
 93
        0
300

 40
0.0
140
1.0
 94
        2
 62
     0
340
55
144
0.18
309
CONTENTFORMAT_END
171
     0
 94
        0
309
TABLEFORMAT_END
  1
CELLSTYLE_BEGIN
 90
        3
 91
        2
300
_DATA
309
CELLSTYLE_END
  0
ENDSEC
  0
SECTION
  2
ACDSDATA
 70
     2
 71
     6
  0
ACDSSCHEMA
 90
        0
  1
AcDb_Thumbnail_Schema
  2
AcDbDs::ID
280
    10
 91
        8
  2
Thumbnail_Data
280
    15
 91
        0
101
ACDSRECORD
 95
        0
 90
        1
  2
AcDbDs::TreatedAsObjectData
280
     1
291
     1
101
ACDSRECORD
 95
        0
 90
        2
  2
AcDbDs::Legacy
280
     1
291
     1
101
ACDSRECORD
  1
AcDbDs::ID
 90
        3
  2
AcDs:Indexable
280
     1
291
     1
101
ACDSRECORD
  1
AcDbDs::ID
 90
        4
  2
AcDbDs::HandleAttribute
280
     7
282
     1
  0
ACDSSCHEMA
 90
        1
  1
AcDbDs::TreatedAsObjectDataSchema
  2
AcDbDs::TreatedAsObjectData
280
     1
 91
        0
  0
ACDSSCHEMA
 90
        2
  1
AcDbDs::LegacySchema
  2
AcDbDs::Legacy
280
     1
 91
        0
  0
ACDSSCHEMA
 90
        3
  1
AcDbDs::IndexedPropertySchema
  2
AcDs:Indexable
280
     1
 91
        0
  0
ACDSSCHEMA
 90
        4
  1
AcDbDs::HandleAttributeSchema
  2
AcDbDs::HandleAttribute
280
     7
 91
        1
284
     1
  0
ACDSRECORD
 90
        0
  2
AcDbDs::ID
280
    10
320
72
  2
Thumbnail_Data
280
    15
 94
     2235
310
89504E470D0A1A0A0000000D49484452000001000000009B0803000000BA7AB56000000300504C54455B5B5B000000C8C8C80000000000000000000000000000000000000000000000000000330000660000990000CC0000FF0033000033330033660033990033CC0033FF0066000066330066660066990066CC0066FF0099
310
000099330099660099990099CC0099FF00CC0000CC3300CC6600CC9900CCCC00CCFF00FF0000FF3300FF6600FF9900FFCC00FFFF3300003300333300663300993300CC3300FF3333003333333333663333993333CC3333FF3366003366333366663366993366CC3366FF3399003399333399663399993399CC3399FF33CC00
310
33CC3333CC6633CC9933CCCC33CCFF33FF0033FF3333FF6633FF9933FFCC33FFFF6600006600336600666600996600CC6600FF6633006633336633666633996633CC6633FF6666006666336666666666996666CC6666FF6699006699336699666699996699CC6699FF66CC0066CC3366CC6666CC9966CCCC66CCFF66FF0066
310
FF3366FF6666FF9966FFCC66FFFF9900009900339900669900999900CC9900FF9933009933339933669933999933CC9933FF9966009966339966669966999966CC9966FF9999009999339999669999999999CC9999FF99CC0099CC3399CC6699CC9999CCCC99CCFF99FF0099FF3399FF6699FF9999FFCC99FFFFCC0000CC00
310
33CC0066CC0099CC00CCCC00FFCC3300CC3333CC3366CC3399CC33CCCC33FFCC6600CC6633CC6666CC6699CC66CCCC66FFCC9900CC9933CC9966CC9999CC99CCCC99FFCCCC00CCCC33CCCC66CCCC99CCCCCCCCCCFFCCFF00CCFF33CCFF66CCFF99CCFFCCCCFFFFFF0000FF0033FF0066FF0099FF00CCFF00FFFF3300FF3333
310
FF3366FF3399FF33CCFF33FFFF6600FF6633FF6666FF6699FF66CCFF66FFFF9900FF9933FF9966FF9999FF99CCFF99FFFFCC00FFCC33FFCC66FFCC99FFCCCCFFCCFFFFFF00FFFF33FFFF66FFFF99FFFFCCFFFFFF0000000D0D0D1A1A1A2828283535354343435050505D5D5D6B6B6B787878868686939393A1A1A1AEAEAEBB
310
BBBBC9C9C9D6D6D6E4E4E4F1F1F1FFFFFF00000000000000000000000000000000000000000000000000000000000054549EDE000005764944415478DAED5D4B92AB300CD471D8E8FE3B9DED25F14F060C615EB9A592C36626D45405B5BBF5B16486E8774DB8F875AD6C3BA75FD6B47FF0FB8AF6AF8800DF7C9E7A6DEAF282
310
0023EDD6F79CB87F46187F765F8CE3C06400EE992E4E5C013F91EDD0AADB3FF007C057080C4D796EEFC17E73008AE57C6EC16C472D1B769DCF5C804E065FD64A361813A44000F0DB4A3EC2C0EF75E73E1796F7058BCF2009B04AFCB57A3F37B6BE1410A46712541EC08901FCB2764F6D49573000F6AE991303E450FB8A1C00
310
E83E4D5780CCB1FE0806BFEEB1F495EF0B91A3C91125B0B5EFE37D3A7C70431101A83C977D05C4470E0690C0150346D5408B11C12530CC906A96105B02D7D5312F28814E0ABCA0043A297041427284584A02C51FE470C184D82E074B402E13E5CE0B7E1E8CA34940BEAA15A514C8006F682E014EB5700380BB3F9F0E81B904
310
B2F1754B20BB40FD581280013AC93B7988E2EF590582BAFA124002BC5DD1B9D5096D6B48A5440124F0DE0519338055FCE3C605C6A44428068C01A83EA088A1B94521040018042E24C0BDCB6FC140104501A8EEB8CA0374C22379EDA9EED6CECF03200C90AF9C604AFEF8DBDC390A03DE3759AD79FB43C4B38118709D0A9FAC
310
356C4FC083044C2F0F12B005C08304F60E202000B70A309307560272B51062C5000405EE013094000200B74100156F37A731002C81850170AB00A8043CDA0F95806078E6130000D3FEB6811048027FDB40014A6092FDA5AB2EE41A8079442BED94BF028093C0ACAF29FBE8AB4AA007409A327A9DC49540369A4B57BDC2A2CE
310
62F0B8D18E93C0BC6F91DC524C3315C99C3C5ED126F3D85C02330990575876E335AAE13E4400278189F19FF32AE7B91ACA5D56DD73FE4CE98E24400800662640FD8C655B723D83C9E3A6047253741A00A59F5600C83DD6B35C312800C90954BBCF4FA8885510980C4059F4325D523C0077D316A708807C20048066759204D7
310
3BBAFB1C10006A4D650540720CFB338962140466832CCDD773FDA127F1CBD8AD18F9C0E95F9297916BEAA3274FB9C9212C00291FCC9E303980EC08B83BADB73FB0124502391A526F75F17FAA14945D5988F28120004AFE9FD79C59A548745A104402A00C5B95105052A1CB97344820097C268CBB1348BA221C0110890194A6
310
0C55E02B29D1D0FE6000D4C8978F1FB18E8C0D806E182D940488F4B183267FEEF644BA518C680CA0B2F4DD0BBA6A8258B74D252C00B40FFC87FD12E99A08E12450CCAF1088D06EFEF4338EADBB28B118D04E5CD181EFA573D0B6C78202B0DB2213E90A2652E770D2DB4A2000C0A64384F42690549377C1CF40022008E4F4D3
310
E0CB614100322071B0B5778083DC11454DE490503E6D27B542AC11C2AC1884CFC9D585DDD5426C0680D1A8285F76C9052D01B27F7BE1E1955558091821F06E939FD5C34800C4EED04CAA8264F8506006185060780015E8034D01201964424800602F44B80C8A76799006DACFCCB48D041C216025012F00889104DC50009906
310
B80560230B09882309D08F013F00D696804914704201BB28B02200E2500362530E3B63007C47C81D002004FC4601D0D3B8AD05C8A03BEAA61A4402702301AB8D229B0909395F0CB88F3093C0D9C10D8B08ED4D0227575009DC33A03C60A03CE03B00F48ACC5F184F89507F1FC44B4F89D0BE7B857A95A01B0960FFA780C75A
310
C0A24470550B58BC4DCE9B046203F08D049629879DF8403B099C12C06A72C4CD8E90C5E0882309586E886C3F00E012F0028091045C4DC81848C0D78C948504FC006023814519E011006873D0A304C844029EDEAD2B1612581580470A4011D3E4C88C7CBB3498FF30833E35260FA8190B80670E17C44DF17B7012B443843E38
310
298F1E2D16000FC9866C8EE118E08E0068093C6300D1CA12A0704F35F3E5E2FF4781D501105A5D02B43603A067867CFA807864FB5DF3AE7FE3075101BA205BB00000000049454E44AE426082
  0
ENDSEC
  0
EOF
