  0
SECTION
  2
HEADER
  9
$ACADVER
  1
AC1027
  9
$ACADMAINTVER
 70
    55
  9
$DWGCODEPAGE
  3
ANSI_1252
  9
$LASTSAVEDBY
  1
crinne
  9
$REQUIREDVERSIONS
160
                 0
  9
$INSBASE
 10
0.0
 20
0.0
 30
0.0
  9
$EXTMIN
 10
2.001661412882858
 20
-21.00624295657144
 30
0.0
  9
$EXTMAX
 10
3.495396693859409
 20
-19.95005600894548
 30
0.0
  9
$LIMMIN
 10
-2600.0
 20
-2600.0
  9
$LIMMAX
 10
2000.0
 20
200.0
  9
$ORTHOMODE
 70
     0
  9
$REGENMODE
 70
     1
  9
$FILLMODE
 70
     1
  9
$QTEXTMODE
 70
     0
  9
$MIRRTEXT
 70
     1
  9
$LTSCALE
 40
25.0
  9
$ATTMODE
 70
     1
  9
$TEXTSIZE
 40
3.5
  9
$TRACEWID
 40
1.0
  9
$TEXTSTYLE
  7
STANDARD
  9
$CLAYER
  8
STEINESCHRAFF
  9
$CELTYPE
  6
ByLayer
  9
$CECOLOR
 62
   256
  9
$CELTSCALE
 40
1.0
  9
$DISPSILH
 70
     0
  9
$DIMSCALE
 40
1.0
  9
$DIMASZ
 40
3.5
  9
$DIMEXO
 40
0.1
  9
$DIMDLI
 40
7.0
  9
$DIMRND
 40
0.0
  9
$DIMDLE
 40
0.0
  9
$DIMEXE
 40
1.8
  9
$DIMTP
 40
0.0
  9
$DIMTM
 40
0.0
  9
$DIMTXT
 40
3.5
  9
$DIMCEN
 40
1.5
  9
$DIMTSZ
 40
0.0
  9
$DIMTOL
 70
     0
  9
$DIMLIM
 70
     0
  9
$DIMTIH
 70
     0
  9
$DIMTOH
 70
     0
  9
$DIMSE1
 70
     0
  9
$DIMSE2
 70
     0
  9
$DIMTAD
 70
     0
  9
$DIMZIN
 70
     0
  9
$DIMBLK
  1

  9
$DIMASO
 70
     1
  9
$DIMSHO
 70
     0
  9
$DIMPOST
  1

  9
$DIMAPOST
  1

  9
$DIMALT
 70
     0
  9
$DIMALTD
 70
     2
  9
$DIMALTF
 40
25.4
  9
$DIMLFAC
 40
1.0
  9
$DIMTOFL
 70
     0
  9
$DIMTVP
 40
0.0
  9
$DIMTIX
 70
     0
  9
$DIMSOXD
 70
     0
  9
$DIMSAH
 70
     0
  9
$DIMBLK1
  1

  9
$DIMBLK2
  1

  9
$DIMSTYLE
  2
Standard
  9
$DIMCLRD
 70
     0
  9
$DIMCLRE
 70
     0
  9
$DIMCLRT
 70
     0
  9
$DIMTFAC
 40
1.0
  9
$DIMGAP
 40
0.09
  9
$DIMJUST
 70
     0
  9
$DIMSD1
 70
     0
  9
$DIMSD2
 70
     0
  9
$DIMTOLJ
 70
     1
  9
$DIMTZIN
 70
     0
  9
$DIMALTZ
 70
     0
  9
$DIMALTTZ
 70
     0
  9
$DIMUPT
 70
     0
  9
$DIMDEC
 70
     2
  9
$DIMTDEC
 70
     2
  9
$DIMALTU
 70
     2
  9
$DIMALTTD
 70
     2
  9
$DIMTXSTY
  7
STANDARD
  9
$DIMAUNIT
 70
     0
  9
$DIMADEC
 70
     0
  9
$DIMALTRND
 40
0.0
  9
$DIMAZIN
 70
     0
  9
$DIMDSEP
 70
    46
  9
$DIMATFIT
 70
     3
  9
$DIMFRAC
 70
     0
  9
$DIMLDRBLK
  1

  9
$DIMLUNIT
 70
     2
  9
$DIMLWD
 70
    -2
  9
$DIMLWE
 70
    -2
  9
$DIMTMOVE
 70
     2
  9
$DIMFXL
 40
1.0
  9
$DIMFXLON
 70
     0
  9
$DIMJOGANG
 40
0.7853981633974483
  9
$DIMTFILL
 70
     0
  9
$DIMTFILLCLR
 70
     0
  9
$DIMARCSYM
 70
     0
  9
$DIMLTYPE
  6

  9
$DIMLTEX1
  6

  9
$DIMLTEX2
  6

  9
$DIMTXTDIRECTION
 70
     0
  9
$LUNITS
 70
     2
  9
$LUPREC
 70
     2
  9
$SKETCHINC
 40
1.0
  9
$FILLETRAD
 40
0.0
  9
$AUNITS
 70
     0
  9
$AUPREC
 70
     0
  9
$MENU
  1
ACAD
  9
$ELEVATION
 40
0.0
  9
$PELEVATION
 40
0.0
  9
$THICKNESS
 40
0.0
  9
$LIMCHECK
 70
     0
  9
$CHAMFERA
 40
0.0
  9
$CHAMFERB
 40
0.0
  9
$CHAMFERC
 40
0.0
  9
$CHAMFERD
 40
0.0
  9
$SKPOLY
 70
     0
  9
$TDCREATE
 40
2450605.519075694
  9
$TDUCREATE
 40
2450605.435742361
  9
$TDUPDATE
 40
2459796.511690718
  9
$TDUUPDATE
 40
2459796.428357384
  9
$TDINDWG
 40
0.0041945023
  9
$TDUSRTIMER
 40
0.0041945023
  9
$USRTIMER
 70
     1
  9
$ANGBASE
 50
0.0
  9
$ANGDIR
 70
     0
  9
$PDMODE
 70
     0
  9
$PDSIZE
 40
0.0
  9
$PLINEWID
 40
0.0
  9
$SPLFRAME
 70
     0
  9
$SPLINETYPE
 70
     6
  9
$SPLINESEGS
 70
     8
  9
$HANDSEED
  5
35F
  9
$SURFTAB1
 70
     6
  9
$SURFTAB2
 70
     6
  9
$SURFTYPE
 70
     6
  9
$SURFU
 70
     6
  9
$SURFV
 70
     6
  9
$UCSBASE
  2

  9
$UCSNAME
  2

  9
$UCSORG
 10
0.0
 20
0.0
 30
0.0
  9
$UCSXDIR
 10
1.0
 20
0.0
 30
0.0
  9
$UCSYDIR
 10
0.0
 20
1.0
 30
0.0
  9
$UCSORTHOREF
  2

  9
$UCSORTHOVIEW
 70
     0
  9
$UCSORGTOP
 10
0.0
 20
0.0
 30
0.0
  9
$UCSORGBOTTOM
 10
0.0
 20
0.0
 30
0.0
  9
$UCSORGLEFT
 10
0.0
 20
0.0
 30
0.0
  9
$UCSORGRIGHT
 10
0.0
 20
0.0
 30
0.0
  9
$UCSORGFRONT
 10
0.0
 20
0.0
 30
0.0
  9
$UCSORGBACK
 10
0.0
 20
0.0
 30
0.0
  9
$PUCSBASE
  2

  9
$PUCSNAME
  2

  9
$PUCSORG
 10
0.0
 20
0.0
 30
0.0
  9
$PUCSXDIR
 10
1.0
 20
0.0
 30
0.0
  9
$PUCSYDIR
 10
0.0
 20
1.0
 30
0.0
  9
$PUCSORTHOREF
  2

  9
$PUCSORTHOVIEW
 70
     0
  9
$PUCSORGTOP
 10
0.0
 20
0.0
 30
0.0
  9
$PUCSORGBOTTOM
 10
0.0
 20
0.0
 30
0.0
  9
$PUCSORGLEFT
 10
0.0
 20
0.0
 30
0.0
  9
$PUCSORGRIGHT
 10
0.0
 20
0.0
 30
0.0
  9
$PUCSORGFRONT
 10
0.0
 20
0.0
 30
0.0
  9
$PUCSORGBACK
 10
0.0
 20
0.0
 30
0.0
  9
$USERI1
 70
     0
  9
$USERI2
 70
     0
  9
$USERI3
 70
     0
  9
$USERI4
 70
     0
  9
$USERI5
 70
     0
  9
$USERR1
 40
0.0
  9
$USERR2
 40
0.0
  9
$USERR3
 40
0.0
  9
$USERR4
 40
0.0
  9
$USERR5
 40
0.0
  9
$WORLDVIEW
 70
     1
  9
$SHADEDGE
 70
     3
  9
$SHADEDIF
 70
    70
  9
$TILEMODE
 70
     1
  9
$MAXACTVP
 70
    16
  9
$PINSBASE
 10
0.0
 20
0.0
 30
0.0
  9
$PLIMCHECK
 70
     0
  9
$PEXTMIN
 10
1.000000000000000E+20
 20
1.000000000000000E+20
 30
1.000000000000000E+20
  9
$PEXTMAX
 10
-1.000000000000000E+20
 20
-1.000000000000000E+20
 30
-1.000000000000000E+20
  9
$PLIMMIN
 10
0.0
 20
0.0
  9
$PLIMMAX
 10
12.0
 20
9.0
  9
$UNITMODE
 70
     0
  9
$VISRETAIN
 70
     0
  9
$PLINEGEN
 70
     0
  9
$PSLTSCALE
 70
     0
  9
$TREEDEPTH
 70
  3020
  9
$CMLSTYLE
  2
Standard
  9
$CMLJUST
 70
     0
  9
$CMLSCALE
 40
1.0
  9
$PROXYGRAPHICS
 70
     1
  9
$MEASUREMENT
 70
     0
  9
$CELWEIGHT
370
    -1
  9
$ENDCAPS
280
     0
  9
$JOINSTYLE
280
     0
  9
$LWDISPLAY
290
     0
  9
$INSUNITS
 70
     6
  9
$HYPERLINKBASE
  1

  9
$STYLESHEET
  1

  9
$XEDIT
290
     1
  9
$CEPSNTYPE
380
     0
  9
$PSTYLEMODE
290
     1
  9
$FINGERPRINTGUID
  2
{FAC37A69-AF57-44A4-81AC-EA3D1375E5D6}
  9
$VERSIONGUID
  2
{2F9D7B4B-8757-49C7-BC70-7B89D94BD322}
  9
$EXTNAMES
290
     1
  9
$PSVPSCALE
 40
0.0
  9
$OLESTARTUP
290
     0
  9
$SORTENTS
280
   127
  9
$INDEXCTL
280
     0
  9
$HIDETEXT
280
     1
  9
$XCLIPFRAME
280
     2
  9
$HALOGAP
280
     0
  9
$OBSCOLOR
 70
   257
  9
$OBSLTYPE
280
     0
  9
$INTERSECTIONDISPLAY
280
     0
  9
$INTERSECTIONCOLOR
 70
   257
  9
$DIMASSOC
280
     2
  9
$PROJECTNAME
  1

  9
$CAMERADISPLAY
290
     0
  9
$LENSLENGTH
 40
50.0
  9
$CAMERAHEIGHT
 40
0.0
  9
$STEPSPERSEC
 40
2.0
  9
$STEPSIZE
 40
6.0
  9
$3DDWFPREC
 40
2.0
  9
$PSOLWIDTH
 40
0.25
  9
$PSOLHEIGHT
 40
4.0
  9
$LOFTANG1
 40
1.570796326794896
  9
$LOFTANG2
 40
1.570796326794896
  9
$LOFTMAG1
 40
0.0
  9
$LOFTMAG2
 40
0.0
  9
$LOFTPARAM
 70
     7
  9
$LOFTNORMALS
280
     1
  9
$LATITUDE
 40
37.795
  9
$LONGITUDE
 40
-122.394
  9
$NORTHDIRECTION
 40
0.0
  9
$TIMEZONE
 70
 -8000
  9
$LIGHTGLYPHDISPLAY
280
     1
  9
$TILEMODELIGHTSYNCH
280
     1
  9
$CMATERIAL
347
11
  9
$SOLIDHIST
280
     0
  9
$SHOWHIST
280
     1
  9
$DWFFRAME
280
     2
  9
$DGNFRAME
280
     0
  9
$REALWORLDSCALE
290
     1
  9
$INTERFERECOLOR
 62
     1
  9
$INTERFEREOBJVS
345
33
  9
$INTERFEREVPVS
346
30
  9
$CSHADOW
280
     0
  9
$SHADOWPLANELOCATION
 40
0.0
  0
ENDSEC
  0
SECTION
  2
CLASSES
  0
CLASS
  1
ACDBDICTIONARYWDFLT
  2
AcDbDictionaryWithDefault
  3
ObjectDBX Classes
 90
        0
 91
        1
280
     0
281
     0
  0
CLASS
  1
MATERIAL
  2
AcDbMaterial
  3
ObjectDBX Classes
 90
     1153
 91
        3
280
     0
281
     0
  0
CLASS
  1
VISUALSTYLE
  2
AcDbVisualStyle
  3
ObjectDBX Classes
 90
     4095
 91
       24
280
     0
281
     0
  0
CLASS
  1
SCALE
  2
AcDbScale
  3
ObjectDBX Classes
 90
     1153
 91
       17
280
     0
281
     0
  0
CLASS
  1
TABLESTYLE
  2
AcDbTableStyle
  3
ObjectDBX Classes
 90
     4095
 91
        1
280
     0
281
     0
  0
CLASS
  1
MLEADERSTYLE
  2
AcDbMLeaderStyle
  3
ACDB_MLEADERSTYLE_CLASS
 90
     4095
 91
        1
280
     0
281
     0
  0
CLASS
  1
ACDBSECTIONVIEWSTYLE
  2
AcDbSectionViewStyle
  3
ObjectDBX Classes
 90
     1025
 91
        1
280
     0
281
     0
  0
CLASS
  1
ACDBDETAILVIEWSTYLE
  2
AcDbDetailViewStyle
  3
ObjectDBX Classes
 90
     1025
 91
        1
280
     0
281
     0
  0
CLASS
  1
DICTIONARYVAR
  2
AcDbDictionaryVar
  3
ObjectDBX Classes
 90
        0
 91
        5
280
     0
281
     0
  0
CLASS
  1
CELLSTYLEMAP
  2
AcDbCellStyleMap
  3
ObjectDBX Classes
 90
     1152
 91
        1
280
     0
281
     0
  0
ENDSEC
  0
SECTION
  2
TABLES
  0
TABLE
  2
VPORT
  5
8
330
0
100
AcDbSymbolTable
 70
     1
  0
VPORT
  5
8F
330
8
100
AcDbSymbolTableRecord
100
AcDbViewportTableRecord
  2
*ACTIVE
 70
     0
 10
0.0
 20
0.0
 11
1.0
 21
1.0
 12
2.748529053371134
 22
-20.47814948275846
 13
0.0
 23
0.0
 14
5.0
 24
5.0
 15
100.0
 25
100.0
 16
0.0
 26
0.0
 36
1.0
 17
0.0
 27
0.0
 37
0.0
 40
1.064820628396745
 41
1.649386084583901
 42
50.0
 43
0.0
 44
0.0
 50
0.0
 51
0.0
 71
     0
 72
   100
 73
     1
 74
     0
 75
     0
 76
     1
 77
     0
 78
     0
281
     0
 65
     1
110
0.0
120
0.0
130
0.0
111
1.0
121
0.0
131
0.0
112
0.0
122
1.0
132
0.0
 79
     0
146
0.0
348
2F
 60
     3
 61
     5
292
     1
282
     0
141
0.0
142
0.0
 63
   250
421
  3355443
1001
ACAD_NAV_VCDISPLAY
1070
     3
  0
ENDTAB
  0
TABLE
  2
LTYPE
  5
5
330
0
100
AcDbSymbolTable
 70
    25
  0
LTYPE
  5
5A
330
5
100
AcDbSymbolTableRecord
100
AcDbLinetypeTableRecord
  2
ByBlock
 70
     0
  3

 72
    65
 73
     0
 40
0.0
  0
LTYPE
  5
5B
330
5
100
AcDbSymbolTableRecord
100
AcDbLinetypeTableRecord
  2
ByLayer
 70
     0
  3

 72
    65
 73
     0
 40
0.0
  0
LTYPE
  5
5C
330
5
100
AcDbSymbolTableRecord
100
AcDbLinetypeTableRecord
  2
CONTINUOUS
 70
     0
  3
Solid line
 72
    65
 73
     0
 40
0.0
  0
LTYPE
  5
76
330
5
100
AcDbSymbolTableRecord
100
AcDbLinetypeTableRecord
  2
RAND
 70
     0
  3
__ __ . __ __ . __ __ . __ __ . __ __ . __ __ .
 72
    65
 73
     6
 40
1.75
 49
0.5
 74
     0
 49
-0.25
 74
     0
 49
0.5
 74
     0
 49
-0.25
 74
     0
 49
0.0
 74
     0
 49
-0.25
 74
     0
  0
LTYPE
  5
77
330
5
100
AcDbSymbolTableRecord
100
AcDbLinetypeTableRecord
  2
RAND2
 70
     0
  3
__.__.__.__.__.__.__.__.__.__.__.__.__.__.__.__
 72
    65
 73
     6
 40
0.875
 49
0.25
 74
     0
 49
-0.125
 74
     0
 49
0.25
 74
     0
 49
-0.125
 74
     0
 49
0.0
 74
     0
 49
-0.125
 74
     0
  0
LTYPE
  5
78
330
5
100
AcDbSymbolTableRecord
100
AcDbLinetypeTableRecord
  2
RANDX2
 70
     0
  3
____  ____  .  ____  ____  .  ____  ____  .  __
 72
    65
 73
     6
 40
3.5
 49
1.0
 74
     0
 49
-0.5
 74
     0
 49
1.0
 74
     0
 49
-0.5
 74
     0
 49
0.0
 74
     0
 49
-0.5
 74
     0
  0
LTYPE
  5
79
330
5
100
AcDbSymbolTableRecord
100
AcDbLinetypeTableRecord
  2
MITTE
 70
     0
  3
____ _ ____ _ ____ _ ____ _ ____ _ ____ _ ____ 
 72
    65
 73
     4
 40
2.0
 49
1.25
 74
     0
 49
-0.25
 74
     0
 49
0.25
 74
     0
 49
-0.25
 74
     0
  0
LTYPE
  5
7A
330
5
100
AcDbSymbolTableRecord
100
AcDbLinetypeTableRecord
  2
MITTE2
 70
     0
  3
___ _ ___ _ ___ _ ___ _ ___ _ ___ _ ___ _ ___ _
 72
    65
 73
     4
 40
1.125
 49
0.75
 74
     0
 49
-0.125
 74
     0
 49
0.125
 74
     0
 49
-0.125
 74
     0
  0
LTYPE
  5
7B
330
5
100
AcDbSymbolTableRecord
100
AcDbLinetypeTableRecord
  2
MITTEX2
 70
     0
  3
________  __  ________  __  ________  __  _____
 72
    65
 73
     4
 40
4.0
 49
2.5
 74
     0
 49
-0.5
 74
     0
 49
0.5
 74
     0
 49
-0.5
 74
     0
  0
LTYPE
  5
7C
330
5
100
AcDbSymbolTableRecord
100
AcDbLinetypeTableRecord
  2
STRICHPUNKT
 70
     0
  3
__ . __ . __ . __ . __ . __ . __ . __ . __ . __
 72
    65
 73
     4
 40
1.0
 49
0.5
 74
     0
 49
-0.25
 74
     0
 49
0.0
 74
     0
 49
-0.25
 74
     0
  0
LTYPE
  5
7D
330
5
100
AcDbSymbolTableRecord
100
AcDbLinetypeTableRecord
  2
STRICHPUNKT2
 70
     0
  3
_._._._._._._._._._._._._._._._._._._._._._._._
 72
    65
 73
     4
 40
0.5
 49
0.25
 74
     0
 49
-0.125
 74
     0
 49
0.0
 74
     0
 49
-0.125
 74
     0
  0
LTYPE
  5
7E
330
5
100
AcDbSymbolTableRecord
100
AcDbLinetypeTableRecord
  2
STRICHPUNKTX2
 70
     0
  3
____  .  ____  .  ____  .  ____  .  ____  .  __
 72
    65
 73
     4
 40
2.0
 49
1.0
 74
     0
 49
-0.5
 74
     0
 49
0.0
 74
     0
 49
-0.5
 74
     0
  0
LTYPE
  5
7F
330
5
100
AcDbSymbolTableRecord
100
AcDbLinetypeTableRecord
  2
GESTRICHELT
 70
     0
  3
__ __ __ __ __ __ __ __ __ __ __ __ __ __ __ __
 72
    65
 73
     2
 40
0.75
 49
0.5
 74
     0
 49
-0.25
 74
     0
  0
LTYPE
  5
80
330
5
100
AcDbSymbolTableRecord
100
AcDbLinetypeTableRecord
  2
GESTRICHELT2
 70
     0
  3
_ _ _ _ _ _ _ _ _ _ _ _ _ _ _ _ _ _ _ _ _ _ _ _
 72
    65
 73
     2
 40
0.375
 49
0.25
 74
     0
 49
-0.125
 74
     0
  0
LTYPE
  5
81
330
5
100
AcDbSymbolTableRecord
100
AcDbLinetypeTableRecord
  2
GESTRICHELTX2
 70
     0
  3
____  ____  ____  ____  ____  ____  ____  ____ 
 72
    65
 73
     2
 40
1.5
 49
1.0
 74
     0
 49
-0.5
 74
     0
  0
LTYPE
  5
82
330
5
100
AcDbSymbolTableRecord
100
AcDbLinetypeTableRecord
  2
GETRENNT
 70
     0
  3
____ . . ____ . . ____ . . ____ . . ____ . . __
 72
    65
 73
     6
 40
1.25
 49
0.5
 74
     0
 49
-0.25
 74
     0
 49
0.0
 74
     0
 49
-0.25
 74
     0
 49
0.0
 74
     0
 49
-0.25
 74
     0
  0
LTYPE
  5
83
330
5
100
AcDbSymbolTableRecord
100
AcDbLinetypeTableRecord
  2
GETRENNT2
 70
     0
  3
__..__..__..__..__..__..__..__..__..__..__..__.
 72
    65
 73
     6
 40
0.625
 49
0.25
 74
     0
 49
-0.125
 74
     0
 49
0.0
 74
     0
 49
-0.125
 74
     0
 49
0.0
 74
     0
 49
-0.125
 74
     0
  0
LTYPE
  5
84
330
5
100
AcDbSymbolTableRecord
100
AcDbLinetypeTableRecord
  2
GETRENNTX2
 70
     0
  3
________  .  .  ________  .  .  ________  .  . 
 72
    65
 73
     6
 40
2.5
 49
1.0
 74
     0
 49
-0.5
 74
     0
 49
0.0
 74
     0
 49
-0.5
 74
     0
 49
0.0
 74
     0
 49
-0.5
 74
     0
  0
LTYPE
  5
85
330
5
100
AcDbSymbolTableRecord
100
AcDbLinetypeTableRecord
  2
PUNKT
 70
     0
  3
. . . . . . . . . . . . . . . . . . . . . . . .
 72
    65
 73
     2
 40
0.25
 49
0.0
 74
     0
 49
-0.25
 74
     0
  0
LTYPE
  5
86
330
5
100
AcDbSymbolTableRecord
100
AcDbLinetypeTableRecord
  2
PUNKT2
 70
     0
  3
...............................................
 72
    65
 73
     2
 40
0.125
 49
0.0
 74
     0
 49
-0.125
 74
     0
  0
LTYPE
  5
87
330
5
100
AcDbSymbolTableRecord
100
AcDbLinetypeTableRecord
  2
PUNKTX2
 70
     0
  3
.  .  .  .  .  .  .  .  .  .  .  .  .  .  .  . 
 72
    65
 73
     2
 40
0.5
 49
0.0
 74
     0
 49
-0.5
 74
     0
  0
LTYPE
  5
88
330
5
100
AcDbSymbolTableRecord
100
AcDbLinetypeTableRecord
  2
VERDECKT
 70
     0
  3
__ __ __ __ __ __ __ __ __ __ __ __ __ __ __ __
 72
    65
 73
     2
 40
0.375
 49
0.25
 74
     0
 49
-0.125
 74
     0
  0
LTYPE
  5
89
330
5
100
AcDbSymbolTableRecord
100
AcDbLinetypeTableRecord
  2
VERDECKT2
 70
     0
  3
_ _ _ _ _ _ _ _ _ _ _ _ _ _ _ _ _ _ _ _ _ _ _ _
 72
    65
 73
     2
 40
0.1875
 49
0.125
 74
     0
 49
-0.0625
 74
     0
  0
LTYPE
  5
8A
330
5
100
AcDbSymbolTableRecord
100
AcDbLinetypeTableRecord
  2
VERDECKTX2
 70
     0
  3
____ ____ ____ ____ ____ ____ ____ ____ ____ __
 72
    65
 73
     2
 40
0.75
 49
0.5
 74
     0
 49
-0.25
 74
     0
  0
LTYPE
  5
8B
330
5
100
AcDbSymbolTableRecord
100
AcDbLinetypeTableRecord
  2
PHANTOM
 70
     0
  3
______  __  __  ______  __  __  ______  __  __ 
 72
    65
 73
     6
 40
2.5
 49
1.25
 74
     0
 49
-0.25
 74
     0
 49
0.25
 74
     0
 49
-0.25
 74
     0
 49
0.25
 74
     0
 49
-0.25
 74
     0
  0
LTYPE
  5
8C
330
5
100
AcDbSymbolTableRecord
100
AcDbLinetypeTableRecord
  2
PHANTOM2
 70
     0
  3
___ _ _ ___ _ _ ___ _ _ ___ _ _ ___ _ _ ___ _ _
 72
    65
 73
     6
 40
1.25
 49
0.625
 74
     0
 49
-0.125
 74
     0
 49
0.125
 74
     0
 49
-0.125
 74
     0
 49
0.125
 74
     0
 49
-0.125
 74
     0
  0
LTYPE
  5
8D
330
5
100
AcDbSymbolTableRecord
100
AcDbLinetypeTableRecord
  2
PHANTOMX2
 70
     0
  3
____________    ____    ____    ____________   
 72
    65
 73
     6
 40
5.0
 49
2.5
 74
     0
 49
-0.5
 74
     0
 49
0.5
 74
     0
 49
-0.5
 74
     0
 49
0.5
 74
     0
 49
-0.5
 74
     0
  0
ENDTAB
  0
TABLE
  2
LAYER
  5
2
102
{ACAD_XDICTIONARY
360
2B7
102
}
330
0
100
AcDbSymbolTable
 70
    10
  0
LAYER
  5
54
330
2
100
AcDbSymbolTableRecord
100
AcDbLayerTableRecord
  2
0
 70
     0
 62
     7
  6
CONTINUOUS
370
    -3
390
F
347
21
348
0
  0
LAYER
  5
90
330
2
100
AcDbSymbolTableRecord
100
AcDbLayerTableRecord
  2
GRABUNGSGRENZE
 70
     0
 62
     3
  6
STRICHPUNKTX2
370
    -3
390
F
347
21
348
0
  0
LAYER
  5
91
330
2
100
AcDbSymbolTableRecord
100
AcDbLayerTableRecord
  2
BEFUND
 70
     0
 62
     1
  6
CONTINUOUS
370
    -3
390
F
347
21
348
0
  0
LAYER
  5
92
330
2
100
AcDbSymbolTableRecord
100
AcDbLayerTableRecord
  2
STEINE
 70
     0
 62
     4
  6
CONTINUOUS
370
    -3
390
F
347
21
348
0
  0
LAYER
  5
93
330
2
100
AcDbSymbolTableRecord
100
AcDbLayerTableRecord
  2
KNOCHEN
 70
     0
 62
     2
  6
CONTINUOUS
370
    -3
390
F
347
21
348
0
  0
LAYER
  5
94
330
2
100
AcDbSymbolTableRecord
100
AcDbLayerTableRecord
  2
BEFUND_UNSICHER
 70
     0
 62
     1
  6
GESTRICHELT
370
    -3
390
F
347
21
348
0
  0
LAYER
  5
95
330
2
100
AcDbSymbolTableRecord
100
AcDbLayerTableRecord
  2
FEUER
 70
     0
 62
     1
  6
CONTINUOUS
370
    -3
390
F
347
21
348
0
  0
LAYER
  5
96
330
2
100
AcDbSymbolTableRecord
100
AcDbLayerTableRecord
  2
KNOCHENSCHRAFF
 70
     0
 62
     2
  6
CONTINUOUS
370
    -3
390
F
347
21
348
0
  0
LAYER
  5
97
330
2
100
AcDbSymbolTableRecord
100
AcDbLayerTableRecord
  2
TPROFIL
 70
     0
 62
     3
  6
CONTINUOUS
370
    -3
390
F
347
21
348
0
  0
LAYER
  5
98
330
2
100
AcDbSymbolTableRecord
100
AcDbLayerTableRecord
  2
STEINESCHRAFF
 70
     0
 62
     4
  6
CONTINUOUS
370
    -3
390
F
347
21
348
0
  0
ENDTAB
  0
TABLE
  2
STYLE
  5
3
330
0
100
AcDbSymbolTable
 70
     2
  0
STYLE
  5
55
330
3
100
AcDbSymbolTableRecord
100
AcDbTextStyleTableRecord
  2
STANDARD
 70
     0
 40
0.0
 41
1.0
 50
0.0
 71
     0
 42
3.5
  3
txt.shx
  4

  0
STYLE
  5
59
330
3
100
AcDbSymbolTableRecord
100
AcDbTextStyleTableRecord
  2
Annotative
 70
     0
 40
0.0
 41
1.0
 50
0.0
 71
     0
 42
3.5
  3
txt
  4

1001
AcadAnnotative
1000
AnnotativeData
1002
{
1070
     1
1070
     1
1002
}
  0
ENDTAB
  0
TABLE
  2
VIEW
  5
6
330
0
100
AcDbSymbolTable
 70
     1
  0
ENDTAB
  0
TABLE
  2
UCS
  5
7
330
0
100
AcDbSymbolTable
 70
     0
  0
ENDTAB
  0
TABLE
  2
APPID
  5
9
330
0
100
AcDbSymbolTable
 70
     3
  0
APPID
  5
56
330
9
100
AcDbSymbolTableRecord
100
AcDbRegAppTableRecord
  2
ACAD
 70
     0
  0
APPID
  5
5D
330
9
100
AcDbSymbolTableRecord
100
AcDbRegAppTableRecord
  2
AcadAnnotative
 70
     0
  0
APPID
  5
2BD
330
9
100
AcDbSymbolTableRecord
100
AcDbRegAppTableRecord
  2
ACAD_NAV_VCDISPLAY
 70
     0
  0
ENDTAB
  0
TABLE
  2
DIMSTYLE
  5
A
330
0
100
AcDbSymbolTable
 70
     2
100
AcDbDimStyleTable
 71
     0
  0
DIMSTYLE
105
57
330
A
100
AcDbSymbolTableRecord
100
AcDbDimStyleTableRecord
  2
Standard
 70
     0
340
55
  0
DIMSTYLE
105
58
330
A
100
AcDbSymbolTableRecord
100
AcDbDimStyleTableRecord
  2
Annotative
 70
     0
340
55
1001
AcadAnnotative
1000
AnnotativeData
1002
{
1070
     1
1070
     1
1002
}
  0
ENDTAB
  0
TABLE
  2
BLOCK_RECORD
  5
1
330
0
100
AcDbSymbolTable
 70
     3
  0
BLOCK_RECORD
  5
6F
330
1
100
AcDbSymbolTableRecord
100
AcDbBlockTableRecord
  2
*Model_Space
340
72
 70
     0
280
     1
281
     0
  0
BLOCK_RECORD
  5
6B
330
1
100
AcDbSymbolTableRecord
100
AcDbBlockTableRecord
  2
*Paper_Space
340
6E
 70
     0
280
     1
281
     0
  0
BLOCK_RECORD
  5
73
330
1
100
AcDbSymbolTableRecord
100
AcDbBlockTableRecord
  2
TPFEIL
340
0
 70
     0
280
     1
281
     0
  0
BLOCK_RECORD
  5
74
330
1
100
AcDbSymbolTableRecord
100
AcDbBlockTableRecord
  2
*X1
340
0
102
{BLKREFS
331
2AF
102
}
 70
     0
280
     1
281
     0
  0
BLOCK_RECORD
  5
75
330
1
100
AcDbSymbolTableRecord
100
AcDbBlockTableRecord
  2
*X2
340
0
102
{BLKREFS
331
2B0
102
}
 70
     0
280
     1
281
     0
  0
ENDTAB
  0
ENDSEC
  0
SECTION
  2
BLOCKS
  0
BLOCK
  5
9B
330
6F
100
AcDbEntity
  8
0
100
AcDbBlockBegin
  2
*Model_Space
 70
     0
 10
0.0
 20
0.0
 30
0.0
  3
*Model_Space
  1

  0
ENDBLK
  5
9C
330
6F
100
AcDbEntity
  8
0
100
AcDbBlockEnd
  0
BLOCK
  5
99
330
6B
100
AcDbEntity
 67
     1
  8
0
100
AcDbBlockBegin
  2
*Paper_Space
 70
     0
 10
0.0
 20
0.0
 30
0.0
  3
*Paper_Space
  1

  0
ENDBLK
  5
9A
330
6B
100
AcDbEntity
 67
     1
  8
0
100
AcDbBlockEnd
  0
BLOCK
  5
9D
330
73
100
AcDbEntity
  8
0
100
AcDbBlockBegin
  2
TPFEIL
 70
     0
 10
0.0
 20
0.0
 30
0.0
  3
TPFEIL
  1

  0
LWPOLYLINE
  5
9E
330
73
100
AcDbEntity
  8
GRABUNGSGRENZE
100
AcDbPolyline
 90
        2
 70
     0
 10
0.0
 20
-10.0
 40
5.0
 41
0.0
 10
0.0
 20
0.0
 40
0.0
 41
0.0
  0
ENDBLK
  5
A2
330
73
100
AcDbEntity
  8
0
100
AcDbBlockEnd
  0
BLOCK
  5
A3
330
74
100
AcDbEntity
  8
0
100
AcDbBlockBegin
  2
*X1
 70
     1
 10
0.0
 20
0.0
 30
0.0
  3
*X1
  1

  0
LINE
  5
A4
330
74
100
AcDbEntity
  8
0
 62
     0
100
AcDbLine
 10
232.0196423287903
 20
-2027.893630343415
 30
0.0
 11
235.7471348523754
 21
-2024.166137819831
 31
0.0
  0
LINE
  5
A5
330
74
100
AcDbEntity
  8
0
 62
     0
100
AcDbLine
 10
231.6821430384485
 20
-2027.877576243164
 30
0.0
 11
235.8414458921992
 21
-2023.718273389413
 31
0.0
  0
LINE
  5
A6
330
74
100
AcDbEntity
  8
0
 62
     0
100
AcDbLine
 10
231.3446437481069
 20
-2027.861522142913
 30
0.0
 11
235.9357569320231
 21
-2023.270408958996
 31
0.0
  0
LINE
  5
A7
330
74
100
AcDbEntity
  8
0
 62
     0
100
AcDbLine
 10
231.0071444577651
 20
-2027.845468042661
 30
0.0
 11
235.8100839713328
 21
-2023.042528529094
 31
0.0
  0
LINE
  5
A8
330
74
100
AcDbEntity
  8
0
 62
     0
100
AcDbLine
 10
230.6696451674234
 20
-2027.829413942409
 30
0.0
 11
235.6779114792592
 21
-2022.821147630573
 31
0.0
  0
LINE
  5
A9
330
74
100
AcDbEntity
  8
0
 62
     0
100
AcDbLine
 10
230.3321458770817
 20
-2027.813359842158
 30
0.0
 11
235.5457389871856
 21
-2022.599766732054
 31
0.0
  0
LINE
  5
AA
330
74
100
AcDbEntity
  8
0
 62
     0
100
AcDbLine
 10
230.0763866845656
 20
-2027.715565644081
 30
0.0
 11
235.413566495112
 21
-2022.378385833534
 31
0.0
  0
LINE
  5
AB
330
74
100
AcDbEntity
  8
0
 62
     0
100
AcDbLine
 10
230.2575127177789
 20
-2027.180886220274
 30
0.0
 11
235.2813940030384
 21
-2022.157004935015
 31
0.0
  0
LINE
  5
AC
330
74
100
AcDbEntity
  8
0
 62
     0
100
AcDbLine
 10
230.4386387509922
 20
-2026.646206796467
 30
0.0
 11
235.1492215109649
 21
-2021.935624036495
 31
0.0
  0
LINE
  5
AD
330
74
100
AcDbEntity
  8
0
 62
     0
100
AcDbLine
 10
225.9930047550147
 20
-2030.738287401852
 30
0.0
 11
227.1012393097707
 21
-2029.630052847096
 31
0.0
  0
LINE
  5
AE
330
74
100
AcDbEntity
  8
0
 62
     0
100
AcDbLine
 10
230.6197647842055
 20
-2026.111527372661
 30
0.0
 11
235.0170490188913
 21
-2021.714243137975
 31
0.0
  0
LINE
  5
AF
330
74
100
AcDbEntity
  8
0
 62
     0
100
AcDbLine
 10
225.5331720539801
 20
-2030.844566712293
 30
0.0
 11
228.1066101430717
 21
-2028.271128623202
 31
0.0
  0
LINE
  5
B0
330
74
100
AcDbEntity
  8
0
 62
     0
100
AcDbLine
 10
230.757231798597
 20
-2025.620506967676
 30
0.0
 11
234.7969597454105
 21
-2021.580779020863
 31
0.0
  0
LINE
  5
B1
330
74
100
AcDbEntity
  8
0
 62
     0
100
AcDbLine
 10
225.0733393529454
 20
-2030.950846022735
 30
0.0
 11
229.1119809763727
 21
-2026.912204399307
 31
0.0
  0
LINE
  5
B2
330
74
100
AcDbEntity
  8
0
 62
     0
100
AcDbLine
 10
230.7658841103201
 20
-2025.25830126536
 30
0.0
 11
234.5247741061719
 21
-2021.499411269508
 31
0.0
  0
LINE
  5
B3
330
74
100
AcDbEntity
  8
0
 62
     0
100
AcDbLine
 10
224.6135066519108
 20
-2031.057125333176
 30
0.0
 11
229.3161607007193
 21
-2026.354471284367
 31
0.0
  0
LINE
  5
B4
330
74
100
AcDbEntity
  8
0
 62
     0
100
AcDbLine
 10
230.7745364220432
 20
-2024.896095563043
 30
0.0
 11
234.2525884669333
 21
-2021.418043518153
 31
0.0
  0
LINE
  5
B5
330
74
100
AcDbEntity
  8
0
 62
     0
100
AcDbLine
 10
224.1536739508761
 20
-2031.163404643617
 30
0.0
 11
229.3572920924167
 21
-2025.959786502076
 31
0.0
  0
LINE
  5
B6
330
74
100
AcDbEntity
  8
0
 62
     0
100
AcDbLine
 10
230.7831887337662
 20
-2024.533889860727
 30
0.0
 11
233.9804028276947
 21
-2021.336675766799
 31
0.0
  0
LINE
  5
B7
330
74
100
AcDbEntity
  8
0
 62
     0
100
AcDbLine
 10
223.6938412498414
 20
-2031.269683954059
 30
0.0
 11
229.398423484114
 21
-2025.565101719786
 31
0.0
  0
LINE
  5
B8
330
74
100
AcDbEntity
  8
0
 62
     0
100
AcDbLine
 10
230.7918410454893
 20
-2024.17168415841
 30
0.0
 11
233.7082171884561
 21
-2021.255308015444
 31
0.0
  0
LINE
  5
B9
330
74
100
AcDbEntity
  8
0
 62
     0
100
AcDbLine
 10
223.2340085488068
 20
-2031.3759632645
 30
0.0
 11
229.4395548758114
 21
-2025.170416937495
 31
0.0
  0
LINE
  5
BA
330
74
100
AcDbEntity
  8
0
 62
     0
100
AcDbLine
 10
230.8004933572123
 20
-2023.809478456094
 30
0.0
 11
233.4360315492175
 21
-2021.173940264089
 31
0.0
  0
LINE
  5
BB
330
74
100
AcDbEntity
  8
0
 62
     0
100
AcDbLine
 10
222.7764869786338
 20
-2031.47993144408
 30
0.0
 11
229.4806862675087
 21
-2024.775732155204
 31
0.0
  0
LINE
  5
BC
330
74
100
AcDbEntity
  8
0
 62
     0
100
AcDbLine
 10
230.7720168103672
 20
-2023.484401612346
 30
0.0
 11
233.1638459099789
 21
-2021.092572512735
 31
0.0
  0
LINE
  5
BD
330
74
100
AcDbEntity
  8
0
 62
     0
100
AcDbLine
 10
222.4624237670526
 20
-2031.440441265068
 30
0.0
 11
229.5218176592061
 21
-2024.381047372914
 31
0.0
  0
LINE
  5
BE
330
74
100
AcDbEntity
  8
0
 62
     0
100
AcDbLine
 10
230.7401025189613
 20
-2023.162762513159
 30
0.0
 11
232.8916602707402
 21
-2021.01120476138
 31
0.0
  0
LINE
  5
BF
330
74
100
AcDbEntity
  8
0
 62
     0
100
AcDbLine
 10
222.1483605554714
 20
-2031.400951086055
 30
0.0
 11
229.5629490509034
 21
-2023.986362590623
 31
0.0
  0
LINE
  5
C0
330
74
100
AcDbEntity
  8
0
 62
     0
100
AcDbLine
 10
230.7081882275554
 20
-2022.841123413972
 30
0.0
 11
232.6194746315016
 21
-2020.929837010025
 31
0.0
  0
LINE
  5
C1
330
74
100
AcDbEntity
  8
0
 62
     0
100
AcDbLine
 10
221.8342973438901
 20
-2031.361460907044
 30
0.0
 11
229.6040804426008
 21
-2023.591677808333
 31
0.0
  0
LINE
  5
C2
330
74
100
AcDbEntity
  8
0
 62
     0
100
AcDbLine
 10
230.6762739361494
 20
-2022.519484314784
 30
0.0
 11
232.347288992263
 21
-2020.848469258671
 31
0.0
  0
LINE
  5
C3
330
74
100
AcDbEntity
  8
0
 62
     0
100
AcDbLine
 10
221.5202341323089
 20
-2031.321970728031
 30
0.0
 11
229.6452118342981
 21
-2023.196993026042
 31
0.0
  0
LINE
  5
C4
330
74
100
AcDbEntity
  8
0
 62
     0
100
AcDbLine
 10
230.6443596447434
 20
-2022.197845215597
 30
0.0
 11
232.0751033530244
 21
-2020.767101507316
 31
0.0
  0
LINE
  5
C5
330
74
100
AcDbEntity
  8
0
 62
     0
100
AcDbLine
 10
221.2061709207277
 20
-2031.28248054902
 30
0.0
 11
229.6566760434898
 21
-2022.831975426258
 31
0.0
  0
LINE
  5
C6
330
74
100
AcDbEntity
  8
0
 62
     0
100
AcDbLine
 10
230.6124453533375
 20
-2021.876206116409
 30
0.0
 11
231.8029177137858
 21
-2020.685733755962
 31
0.0
  0
LINE
  5
C7
330
74
100
AcDbEntity
  8
0
 62
     0
100
AcDbLine
 10
220.8921077091465
 20
-2031.242990370007
 30
0.0
 11
229.5131910074601
 21
-2022.621907071694
 31
0.0
  0
LINE
  5
C8
330
74
100
AcDbEntity
  8
0
 62
     0
100
AcDbLine
 10
230.5805310619316
 20
-2021.554567017222
 30
0.0
 11
231.4728921336477
 21
-2020.662205945506
 31
0.0
  0
LINE
  5
C9
330
74
100
AcDbEntity
  8
0
 62
     0
100
AcDbLine
 10
220.5780444975653
 20
-2031.203500190995
 30
0.0
 11
229.3697059714306
 21
-2022.41183871713
 31
0.0
  0
LINE
  5
CA
330
74
100
AcDbEntity
  8
0
 62
     0
100
AcDbLine
 10
230.5486167705256
 20
-2021.232927918035
 30
0.0
 11
231.1321407484146
 21
-2020.649403940146
 31
0.0
  0
LINE
  5
CB
330
74
100
AcDbEntity
  8
0
 62
     0
100
AcDbLine
 10
220.263981285984
 20
-2031.164010011983
 30
0.0
 11
229.226220935401
 21
-2022.201770362567
 31
0.0
  0
LINE
  5
CC
330
74
100
AcDbEntity
  8
0
 62
     0
100
AcDbLine
 10
230.5167024791197
 20
-2020.911288818848
 30
0.0
 11
230.7913893631814
 21
-2020.636601934786
 31
0.0
  0
LINE
  5
CD
330
74
100
AcDbEntity
  8
0
 62
     0
100
AcDbLine
 10
219.9499180744028
 20
-2031.124519832971
 30
0.0
 11
229.0827358993713
 21
-2021.991702008003
 31
0.0
  0
LINE
  5
CE
330
74
100
AcDbEntity
  8
0
 62
     0
100
AcDbLine
 10
219.6358548628216
 20
-2031.085029653959
 30
0.0
 11
228.9392508633417
 21
-2021.781633653439
 31
0.0
  0
LINE
  5
CF
330
74
100
AcDbEntity
  8
0
 62
     0
100
AcDbLine
 10
219.3217916512404
 20
-2031.045539474947
 30
0.0
 11
228.7957658273121
 21
-2021.571565298875
 31
0.0
  0
LINE
  5
D0
330
74
100
AcDbEntity
  8
0
 62
     0
100
AcDbLine
 10
219.0077284396591
 20
-2031.006049295935
 30
0.0
 11
228.6522807912825
 21
-2021.361496944312
 31
0.0
  0
LINE
  5
D1
330
74
100
AcDbEntity
  8
0
 62
     0
100
AcDbLine
 10
218.7248017622268
 20
-2030.935422582774
 30
0.0
 11
228.5087957552529
 21
-2021.151428589748
 31
0.0
  0
LINE
  5
D2
330
74
100
AcDbEntity
  8
0
 62
     0
100
AcDbLine
 10
218.4934402720719
 20
-2030.813230682336
 30
0.0
 11
228.3653107192233
 21
-2020.941360235184
 31
0.0
  0
LINE
  5
D3
330
74
100
AcDbEntity
  8
0
 62
     0
100
AcDbLine
 10
218.2620787819169
 20
-2030.691038781898
 30
0.0
 11
228.2218256831936
 21
-2020.731291880621
 31
0.0
  0
LINE
  5
D4
330
74
100
AcDbEntity
  8
0
 62
     0
100
AcDbLine
 10
218.0307172917619
 20
-2030.568846881459
 30
0.0
 11
228.0783406471641
 21
-2020.521223526057
 31
0.0
  0
LINE
  5
D5
330
74
100
AcDbEntity
  8
0
 62
     0
100
AcDbLine
 10
217.7993558016069
 20
-2030.446654981021
 30
0.0
 11
227.9348556111345
 21
-2020.311155171494
 31
0.0
  0
LINE
  5
D6
330
74
100
AcDbEntity
  8
0
 62
     0
100
AcDbLine
 10
217.5679943114519
 20
-2030.324463080583
 30
0.0
 11
227.7913705751048
 21
-2020.10108681693
 31
0.0
  0
LINE
  5
D7
330
74
100
AcDbEntity
  8
0
 62
     0
100
AcDbLine
 10
217.3366328212969
 20
-2030.202271180144
 30
0.0
 11
227.6478855390752
 21
-2019.891018462367
 31
0.0
  0
LINE
  5
D8
330
74
100
AcDbEntity
  8
0
 62
     0
100
AcDbLine
 10
217.2539942283385
 20
-2029.93135638251
 30
0.0
 11
227.5044005030456
 21
-2019.680950107803
 31
0.0
  0
LINE
  5
D9
330
74
100
AcDbEntity
  8
0
 62
     0
100
AcDbLine
 10
217.4723787969185
 20
-2029.359418423336
 30
0.0
 11
227.360915467016
 21
-2019.470881753239
 31
0.0
  0
LINE
  5
DA
330
74
100
AcDbEntity
  8
0
 62
     0
100
AcDbLine
 10
217.6907633654985
 20
-2028.787480464163
 30
0.0
 11
227.2174304309864
 21
-2019.260813398675
 31
0.0
  0
LINE
  5
DB
330
74
100
AcDbEntity
  8
0
 62
     0
100
AcDbLine
 10
217.9091479340784
 20
-2028.21554250499
 30
0.0
 11
227.0739453949568
 21
-2019.050745044111
 31
0.0
  0
LINE
  5
DC
330
74
100
AcDbEntity
  8
0
 62
     0
100
AcDbLine
 10
218.1275325026584
 20
-2027.643604545817
 30
0.0
 11
226.9017320285254
 21
-2018.86940501995
 31
0.0
  0
LINE
  5
DD
330
74
100
AcDbEntity
  8
0
 62
     0
100
AcDbLine
 10
218.3459170712384
 20
-2027.071666586643
 30
0.0
 11
226.6628699003246
 21
-2018.754713757557
 31
0.0
  0
LINE
  5
DE
330
74
100
AcDbEntity
  8
0
 62
     0
100
AcDbLine
 10
218.3579126564973
 20
-2026.706117610791
 30
0.0
 11
226.4240077721237
 21
-2018.640022495164
 31
0.0
  0
LINE
  5
DF
330
74
100
AcDbEntity
  8
0
 62
     0
100
AcDbLine
 10
218.1964172140204
 20
-2026.514059662675
 30
0.0
 11
226.1851456439229
 21
-2018.525331232772
 31
0.0
  0
LINE
  5
E0
330
74
100
AcDbEntity
  8
0
 62
     0
100
AcDbLine
 10
218.0349217715436
 20
-2026.322001714558
 30
0.0
 11
225.946283515722
 21
-2018.41063997038
 31
0.0
  0
LINE
  5
E1
330
74
100
AcDbEntity
  8
0
 62
     0
100
AcDbLine
 10
217.8734263290667
 20
-2026.129943766441
 30
0.0
 11
225.7074213875212
 21
-2018.295948707987
 31
0.0
  0
LINE
  5
E2
330
74
100
AcDbEntity
  8
0
 62
     0
100
AcDbLine
 10
217.7119308865899
 20
-2025.937885818325
 30
0.0
 11
225.4685592593203
 21
-2018.181257445595
 31
0.0
  0
LINE
  5
E3
330
74
100
AcDbEntity
  8
0
 62
     0
100
AcDbLine
 10
217.550435444113
 20
-2025.745827870209
 30
0.0
 11
225.2296971311194
 21
-2018.066566183202
 31
0.0
  0
LINE
  5
E4
330
74
100
AcDbEntity
  8
0
 62
     0
100
AcDbLine
 10
217.3889400016362
 20
-2025.553769922092
 30
0.0
 11
224.9908350029186
 21
-2017.95187492081
 31
0.0
  0
LINE
  5
E5
330
74
100
AcDbEntity
  8
0
 62
     0
100
AcDbLine
 10
217.2274445591594
 20
-2025.361711973976
 30
0.0
 11
224.7519728747177
 21
-2017.837183658417
 31
0.0
  0
LINE
  5
E6
330
74
100
AcDbEntity
  8
0
 62
     0
100
AcDbLine
 10
217.0659491166825
 20
-2025.16965402586
 30
0.0
 11
224.5131107465169
 21
-2017.722492396025
 31
0.0
  0
LINE
  5
E7
330
74
100
AcDbEntity
  8
0
 62
     0
100
AcDbLine
 10
216.9044536742056
 20
-2024.977596077743
 30
0.0
 11
224.274248618316
 21
-2017.607801133633
 31
0.0
  0
LINE
  5
E8
330
74
100
AcDbEntity
  8
0
 62
     0
100
AcDbLine
 10
216.7429582317288
 20
-2024.785538129627
 30
0.0
 11
224.0353864901152
 21
-2017.49310987124
 31
0.0
  0
LINE
  5
E9
330
74
100
AcDbEntity
  8
0
 62
     0
100
AcDbLine
 10
216.5814627892519
 20
-2024.59348018151
 30
0.0
 11
223.7965243619143
 21
-2017.378418608848
 31
0.0
  0
LINE
  5
EA
330
74
100
AcDbEntity
  8
0
 62
     0
100
AcDbLine
 10
216.4199673467751
 20
-2024.401422233394
 30
0.0
 11
223.5576622337135
 21
-2017.263727346456
 31
0.0
  0
LINE
  5
EB
330
74
100
AcDbEntity
  8
0
 62
     0
100
AcDbLine
 10
216.2157511958982
 20
-2024.252084993678
 30
0.0
 11
223.3188001055126
 21
-2017.149036084063
 31
0.0
  0
LINE
  5
EC
330
74
100
AcDbEntity
  8
0
 62
     0
100
AcDbLine
 10
215.9817991075483
 20
-2024.132483691434
 30
0.0
 11
223.0799379773118
 21
-2017.03434482167
 31
0.0
  0
LINE
  5
ED
330
74
100
AcDbEntity
  8
0
 62
     0
100
AcDbLine
 10
215.7478470191984
 20
-2024.012882389191
 30
0.0
 11
222.8410758491109
 21
-2016.919653559278
 31
0.0
  0
LINE
  5
EE
330
74
100
AcDbEntity
  8
0
 62
     0
100
AcDbLine
 10
215.5138949308484
 20
-2023.893281086948
 30
0.0
 11
222.60221372091
 21
-2016.804962296886
 31
0.0
  0
LINE
  5
EF
330
74
100
AcDbEntity
  8
0
 62
     0
100
AcDbLine
 10
215.2799428424985
 20
-2023.773679784704
 30
0.0
 11
222.3405563344952
 21
-2016.713066292707
 31
0.0
  0
LINE
  5
F0
330
74
100
AcDbEntity
  8
0
 62
     0
100
AcDbLine
 10
215.0459907541486
 20
-2023.654078482461
 30
0.0
 11
222.0310355167815
 21
-2016.669033719828
 31
0.0
  0
LINE
  5
F1
330
74
100
AcDbEntity
  8
0
 62
     0
100
AcDbLine
 10
214.8120386657986
 20
-2023.534477180218
 30
0.0
 11
221.7215146990678
 21
-2016.625001146948
 31
0.0
  0
LINE
  5
F2
330
74
100
AcDbEntity
  8
0
 62
     0
100
AcDbLine
 10
214.5780865774487
 20
-2023.414875877974
 30
0.0
 11
214.7932110190107
 21
-2023.199751436413
 31
0.0
  0
LINE
  5
F3
330
74
100
AcDbEntity
  8
0
 62
     0
100
AcDbLine
 10
241.8659217431724
 20
-1996.12704071225
 30
0.0
 11
241.8835831817509
 21
-1996.109379273672
 31
0.0
  0
LINE
  5
F4
330
74
100
AcDbEntity
  8
0
 62
     0
100
AcDbLine
 10
216.8464318307059
 20
-2021.146530624717
 30
0.0
 11
221.4119938813541
 21
-2016.580968574069
 31
0.0
  0
LINE
  5
F5
330
74
100
AcDbEntity
  8
0
 62
     0
100
AcDbLine
 10
218.1841982481188
 20
-2019.45521081671
 30
0.0
 11
221.1024730636404
 21
-2016.536936001189
 31
0.0
  0
LINE
  5
F6
330
74
100
AcDbEntity
  8
0
 62
     0
100
AcDbLine
 10
241.4763541479128
 20
-1996.163054916917
 30
0.0
 11
242.1747542322086
 21
-1995.46465483262
 31
0.0
  0
LINE
  5
F7
330
74
100
AcDbEntity
  8
0
 62
     0
100
AcDbLine
 10
217.9806545003881
 20
-2019.305201173848
 30
0.0
 11
220.7929522459267
 21
-2016.492903428309
 31
0.0
  0
LINE
  5
F8
330
74
100
AcDbEntity
  8
0
 62
     0
100
AcDbLine
 10
241.0867865526532
 20
-1996.199069121583
 30
0.0
 11
242.2765382710815
 21
-1995.009317403155
 31
0.0
  0
LINE
  5
F9
330
74
100
AcDbEntity
  8
0
 62
     0
100
AcDbLine
 10
217.7771107526573
 20
-2019.155191530986
 30
0.0
 11
220.483431428213
 21
-2016.44887085543
 31
0.0
  0
LINE
  5
FA
330
74
100
AcDbEntity
  8
0
 62
     0
100
AcDbLine
 10
240.6972189573935
 20
-1996.235083326249
 30
0.0
 11
241.9100796322369
 21
-1995.022222651406
 31
0.0
  0
LINE
  5
FB
330
74
100
AcDbEntity
  8
0
 62
     0
100
AcDbLine
 10
217.5735670049267
 20
-2019.005181888123
 30
0.0
 11
220.1739106104994
 21
-2016.404838282551
 31
0.0
  0
LINE
  5
FC
330
74
100
AcDbEntity
  8
0
 62
     0
100
AcDbLine
 10
240.3076513621339
 20
-1996.271097530916
 30
0.0
 11
241.5436209933922
 21
-1995.035127899658
 31
0.0
  0
LINE
  5
FD
330
74
100
AcDbEntity
  8
0
 62
     0
100
AcDbLine
 10
217.3700232571959
 20
-2018.855172245261
 30
0.0
 11
219.8643897927857
 21
-2016.360805709671
 31
0.0
  0
LINE
  5
FE
330
74
100
AcDbEntity
  8
0
 62
     0
100
AcDbLine
 10
239.9180837668743
 20
-1996.307111735582
 30
0.0
 11
241.1771623545476
 21
-1995.048033147909
 31
0.0
  0
LINE
  5
FF
330
74
100
AcDbEntity
  8
0
 62
     0
100
AcDbLine
 10
217.1664795094653
 20
-2018.705162602398
 30
0.0
 11
219.554868975072
 21
-2016.316773136791
 31
0.0
  0
LINE
  5
100
330
74
100
AcDbEntity
  8
0
 62
     0
100
AcDbLine
 10
239.5285161716146
 20
-1996.343125940249
 30
0.0
 11
240.8107037157031
 21
-1995.06093839616
 31
0.0
  0
LINE
  5
101
330
74
100
AcDbEntity
  8
0
 62
     0
100
AcDbLine
 10
216.9629357617345
 20
-2018.555152959535
 30
0.0
 11
219.2453481573583
 21
-2016.272740563912
 31
0.0
  0
LINE
  5
102
330
74
100
AcDbEntity
  8
0
 62
     0
100
AcDbLine
 10
239.138948576355
 20
-1996.379140144915
 30
0.0
 11
240.4442450768585
 21
-1995.073843644411
 31
0.0
  0
LINE
  5
103
330
74
100
AcDbEntity
  8
0
 62
     0
100
AcDbLine
 10
216.7593920140038
 20
-2018.405143316673
 30
0.0
 11
218.9358273396447
 21
-2016.228707991032
 31
0.0
  0
LINE
  5
104
330
74
100
AcDbEntity
  8
0
 62
     0
100
AcDbLine
 10
238.7493809810953
 20
-1996.415154349581
 30
0.0
 11
240.0777864380139
 21
-1995.086748892663
 31
0.0
  0
LINE
  5
105
330
74
100
AcDbEntity
  8
0
 62
     0
100
AcDbLine
 10
216.5558482662731
 20
-2018.25513367381
 30
0.0
 11
218.626306521931
 21
-2016.184675418152
 31
0.0
  0
LINE
  5
106
330
74
100
AcDbEntity
  8
0
 62
     0
100
AcDbLine
 10
238.3598133858357
 20
-1996.451168554247
 30
0.0
 11
239.7113277991692
 21
-1995.099654140914
 31
0.0
  0
LINE
  5
107
330
74
100
AcDbEntity
  8
0
 62
     0
100
AcDbLine
 10
216.3523045185424
 20
-2018.105124030947
 30
0.0
 11
218.0751934589562
 21
-2016.382235090534
 31
0.0
  0
LINE
  5
108
330
74
100
AcDbEntity
  8
0
 62
     0
100
AcDbLine
 10
237.970245790576
 20
-1996.487182758914
 30
0.0
 11
239.3448691603246
 21
-1995.112559389166
 31
0.0
  0
LINE
  5
109
330
74
100
AcDbEntity
  8
0
 62
     0
100
AcDbLine
 10
232.0721561466152
 20
-2002.385272402875
 30
0.0
 11
232.1747049701567
 21
-2002.282723579333
 31
0.0
  0
LINE
  5
10A
330
74
100
AcDbEntity
  8
0
 62
     0
100
AcDbLine
 10
216.1487607708117
 20
-2017.955114388085
 30
0.0
 11
217.4732233289811
 21
-2016.630651829916
 31
0.0
  0
LINE
  5
10B
330
74
100
AcDbEntity
  8
0
 62
     0
100
AcDbLine
 10
237.5806781953164
 20
-1996.52319696358
 30
0.0
 11
238.9416414271595
 21
-1995.162233731737
 31
0.0
  0
LINE
  5
10C
330
74
100
AcDbEntity
  8
0
 62
     0
100
AcDbLine
 10
231.5793174566664
 20
-2002.52455770223
 30
0.0
 11
232.1791797842232
 21
-2001.924695374674
 31
0.0
  0
LINE
  5
10D
330
74
100
AcDbEntity
  8
0
 62
     0
100
AcDbLine
 10
215.945217023081
 20
-2017.805104745223
 30
0.0
 11
216.871253199006
 21
-2016.879068569297
 31
0.0
  0
LINE
  5
10E
330
74
100
AcDbEntity
  8
0
 62
     0
100
AcDbLine
 10
237.1911106000568
 20
-1996.559211168247
 30
0.0
 11
238.5303394021768
 21
-1995.219982366126
 31
0.0
  0
LINE
  5
10F
330
74
100
AcDbEntity
  8
0
 62
     0
100
AcDbLine
 10
231.0864787667174
 20
-2002.663843001586
 30
0.0
 11
232.1836545982897
 21
-2001.566667170014
 31
0.0
  0
LINE
  5
110
330
74
100
AcDbEntity
  8
0
 62
     0
100
AcDbLine
 10
215.7416732753503
 20
-2017.65509510236
 30
0.0
 11
216.269283069031
 21
-2017.127485308679
 31
0.0
  0
LINE
  5
111
330
74
100
AcDbEntity
  8
0
 62
     0
100
AcDbLine
 10
236.8015430047971
 20
-1996.595225372913
 30
0.0
 11
238.119037377194
 21
-1995.277731000516
 31
0.0
  0
LINE
  5
112
330
74
100
AcDbEntity
  8
0
 62
     0
100
AcDbLine
 10
230.8572136600341
 20
-2002.539554717676
 30
0.0
 11
232.1881294123562
 21
-2001.208638965354
 31
0.0
  0
LINE
  5
113
330
74
100
AcDbEntity
  8
0
 62
     0
100
AcDbLine
 10
215.5381295276195
 20
-2017.505085459498
 30
0.0
 11
215.6673129390559
 21
-2017.375902048061
 31
0.0
  0
LINE
  5
114
330
74
100
AcDbEntity
  8
0
 62
     0
100
AcDbLine
 10
236.2530998219397
 20
-1996.790115165177
 30
0.0
 11
237.7077353522112
 21
-1995.335479634906
 31
0.0
  0
LINE
  5
115
330
74
100
AcDbEntity
  8
0
 62
     0
100
AcDbLine
 10
230.7846147942568
 20
-2002.25860019286
 30
0.0
 11
232.1926042264227
 21
-2000.850610760694
 31
0.0
  0
LINE
  5
116
330
74
100
AcDbEntity
  8
0
 62
     0
100
AcDbLine
 10
230.7120159284794
 20
-2001.977645668044
 30
0.0
 11
232.1970790404892
 21
-2000.492582556034
 31
0.0
  0
LINE
  5
117
330
74
100
AcDbEntity
  8
0
 62
     0
100
AcDbLine
 10
235.6996078623547
 20
-1996.990053734169
 30
0.0
 11
237.2964333272284
 21
-1995.393228269295
 31
0.0
  0
LINE
  5
118
330
74
100
AcDbEntity
  8
0
 62
     0
100
AcDbLine
 10
230.6394170627022
 20
-2001.696691143228
 30
0.0
 11
232.2015538545557
 21
-2000.134554351374
 31
0.0
  0
LINE
  5
119
330
74
100
AcDbEntity
  8
0
 62
     0
100
AcDbLine
 10
235.1461159027696
 20
-1997.189992303161
 30
0.0
 11
236.8851313022457
 21
-1995.450976903685
 31
0.0
  0
LINE
  5
11A
330
74
100
AcDbEntity
  8
0
 62
     0
100
AcDbLine
 10
230.5668181969249
 20
-2001.415736618413
 30
0.0
 11
232.2060286686222
 21
-1999.776526146715
 31
0.0
  0
LINE
  5
11B
330
74
100
AcDbEntity
  8
0
 62
     0
100
AcDbLine
 10
234.5926239431846
 20
-1997.389930872152
 30
0.0
 11
236.4738292772629
 21
-1995.508725538074
 31
0.0
  0
LINE
  5
11C
330
74
100
AcDbEntity
  8
0
 62
     0
100
AcDbLine
 10
230.4942193311475
 20
-2001.134782093596
 30
0.0
 11
232.2105034826887
 21
-1999.418497942055
 31
0.0
  0
LINE
  5
11D
330
74
100
AcDbEntity
  8
0
 62
     0
100
AcDbLine
 10
233.9604650538095
 20
-1997.668536370934
 30
0.0
 11
236.0625272522801
 21
-1995.566474172464
 31
0.0
  0
LINE
  5
11E
330
74
100
AcDbEntity
  8
0
 62
     0
100
AcDbLine
 10
230.4216204653702
 20
-2000.85382756878
 30
0.0
 11
232.2149782967553
 21
-1999.060469737395
 31
0.0
  0
LINE
  5
11F
330
74
100
AcDbEntity
  8
0
 62
     0
100
AcDbLine
 10
232.6340354791199
 20
-1998.641412555031
 30
0.0
 11
235.6512252272974
 21
-1995.624222806853
 31
0.0
  0
LINE
  5
120
330
74
100
AcDbEntity
  8
0
 62
     0
100
AcDbLine
 10
230.3490215995929
 20
-2000.572873043964
 30
0.0
 11
235.2399232023146
 21
-1995.681971441243
 31
0.0
  0
LINE
  5
121
330
74
100
AcDbEntity
  8
0
 62
     0
100
AcDbLine
 10
230.5019034792487
 20
-2000.066437773716
 30
0.0
 11
234.8049501628816
 21
-1995.763391090083
 31
0.0
  0
LINE
  5
122
330
74
100
AcDbEntity
  8
0
 62
     0
100
AcDbLine
 10
230.6959933481591
 20
-1999.518794514212
 30
0.0
 11
234.0124228501803
 21
-1996.202365012191
 31
0.0
  0
LINE
  5
123
330
74
100
AcDbEntity
  8
0
 62
     0
100
AcDbLine
 10
230.8900832170694
 20
-1998.971151254708
 30
0.0
 11
233.2198955374789
 21
-1996.641338934299
 31
0.0
  0
LINE
  5
124
330
74
100
AcDbEntity
  8
0
 62
     0
100
AcDbLine
 10
231.0841730859798
 20
-1998.423507995205
 30
0.0
 11
232.4273682247775
 21
-1997.080312856407
 31
0.0
  0
LINE
  5
125
330
74
100
AcDbEntity
  8
0
 62
     0
100
AcDbLine
 10
231.2782629548902
 20
-1997.875864735701
 30
0.0
 11
231.6348409120761
 21
-1997.519286778515
 31
0.0
  0
LINE
  5
126
330
74
100
AcDbEntity
  8
0
 62
     0
100
AcDbLine
 10
215.2462343771634
 20
-2001.887078033256
 30
0.0
 11
217.4202059722875
 21
-1999.713106438132
 31
0.0
  0
LINE
  5
127
330
74
100
AcDbEntity
  8
0
 62
     0
100
AcDbLine
 10
213.1533818843592
 20
-2003.626377135467
 30
0.0
 11
217.274183060542
 21
-1999.505575959284
 31
0.0
  0
LINE
  5
128
330
74
100
AcDbEntity
  8
0
 62
     0
100
AcDbLine
 10
213.0397606969099
 20
-2003.386444932323
 30
0.0
 11
217.1281601487965
 21
-1999.298045480436
 31
0.0
  0
LINE
  5
129
330
74
100
AcDbEntity
  8
0
 62
     0
100
AcDbLine
 10
212.9261395094606
 20
-2003.146512729179
 30
0.0
 11
216.982137237051
 21
-1999.090515001588
 31
0.0
  0
LINE
  5
12A
330
74
100
AcDbEntity
  8
0
 62
     0
100
AcDbLine
 10
212.8125183220114
 20
-2002.906580526035
 30
0.0
 11
216.8361143253055
 21
-1998.882984522741
 31
0.0
  0
LINE
  5
12B
330
74
100
AcDbEntity
  8
0
 62
     0
100
AcDbLine
 10
212.6988971345621
 20
-2002.666648322891
 30
0.0
 11
215.8574204437615
 21
-1999.508125013692
 31
0.0
  0
LINE
  5
12C
330
74
100
AcDbEntity
  8
0
 62
     0
100
AcDbLine
 10
212.5852759471128
 20
-2002.426716119747
 30
0.0
 11
214.6111593712432
 21
-2000.400832695617
 31
0.0
  0
LINE
  5
12D
330
74
100
AcDbEntity
  8
0
 62
     0
100
AcDbLine
 10
212.4716547596635
 20
-2002.186783916603
 30
0.0
 11
213.3648982987249
 21
-2001.293540377542
 31
0.0
  0
LINE
  5
12E
330
74
100
AcDbEntity
  8
0
 62
     0
100
AcDbLine
 10
232.3571416191319
 20
-2027.909684443667
 30
0.0
 11
235.6528238125516
 21
-2024.614002250248
 31
0.0
  0
LINE
  5
12F
330
74
100
AcDbEntity
  8
0
 62
     0
100
AcDbLine
 10
232.6946409094736
 20
-2027.925738543919
 30
0.0
 11
235.5585127727277
 21
-2025.061866680665
 31
0.0
  0
LINE
  5
130
330
74
100
AcDbEntity
  8
0
 62
     0
100
AcDbLine
 10
233.0321401998153
 20
-2027.94179264417
 30
0.0
 11
235.4642017329039
 21
-2025.509731111082
 31
0.0
  0
LINE
  5
131
330
74
100
AcDbEntity
  8
0
 62
     0
100
AcDbLine
 10
234.1235950804189
 20
-2027.20389115416
 30
0.0
 11
235.3698906930801
 21
-2025.957595541499
 31
0.0
  0
LINE
  5
132
330
74
100
AcDbEntity
  8
0
 62
     0
100
AcDbLine
 10
263.2515481090181
 20
-2040.855898387347
 30
0.0
 11
263.4212000450375
 21
-2040.686246451327
 31
0.0
  0
LINE
  5
133
330
74
100
AcDbEntity
  8
0
 62
     0
100
AcDbLine
 10
263.3883697973446
 20
-2041.072630089614
 30
0.0
 11
263.7836887740684
 21
-2040.67731111289
 31
0.0
  0
LINE
  5
134
330
74
100
AcDbEntity
  8
0
 62
     0
100
AcDbLine
 10
263.5251914856711
 20
-2041.28936179188
 30
0.0
 11
264.1461775030993
 21
-2040.668375774452
 31
0.0
  0
LINE
  5
135
330
74
100
AcDbEntity
  8
0
 62
     0
100
AcDbLine
 10
263.6620131739976
 20
-2041.506093494147
 30
0.0
 11
264.5086662321303
 21
-2040.659440436014
 31
0.0
  0
LINE
  5
136
330
74
100
AcDbEntity
  8
0
 62
     0
100
AcDbLine
 10
263.7988348623242
 20
-2041.722825196414
 30
0.0
 11
264.8711549611612
 21
-2040.650505097577
 31
0.0
  0
LINE
  5
137
330
74
100
AcDbEntity
  8
0
 62
     0
100
AcDbLine
 10
263.9356565506507
 20
-2041.939556898681
 30
0.0
 11
265.2336436901921
 21
-2040.641569759139
 31
0.0
  0
LINE
  5
138
330
74
100
AcDbEntity
  8
0
 62
     0
100
AcDbLine
 10
264.0724782389773
 20
-2042.156288600947
 30
0.0
 11
265.8439293717453
 21
-2040.384837468179
 31
0.0
  0
LINE
  5
139
330
74
100
AcDbEntity
  8
0
 62
     0
100
AcDbLine
 10
264.2092999273038
 20
-2042.373020303214
 30
0.0
 11
266.7743840234422
 21
-2039.807936207076
 31
0.0
  0
LINE
  5
13A
330
74
100
AcDbEntity
  8
0
 62
     0
100
AcDbLine
 10
264.3461216156303
 20
-2042.589752005481
 30
0.0
 11
267.7048386751392
 21
-2039.231034945972
 31
0.0
  0
LINE
  5
13B
330
74
100
AcDbEntity
  8
0
 62
     0
100
AcDbLine
 10
264.4829433039569
 20
-2042.806483707748
 30
0.0
 11
268.5282820654249
 21
-2038.761144946279
 31
0.0
  0
LINE
  5
13C
330
74
100
AcDbEntity
  8
0
 62
     0
100
AcDbLine
 10
264.8832216378096
 20
-2042.759758764488
 30
0.0
 11
268.7919234351824
 21
-2038.851056967115
 31
0.0
  0
LINE
  5
13D
330
74
100
AcDbEntity
  8
0
 62
     0
100
AcDbLine
 10
265.4113533114156
 20
-2042.585180481475
 30
0.0
 11
269.0555648049399
 21
-2038.940968987951
 31
0.0
  0
LINE
  5
13E
330
74
100
AcDbEntity
  8
0
 62
     0
100
AcDbLine
 10
265.9394849850218
 20
-2042.410602198462
 30
0.0
 11
269.3192061746974
 21
-2039.030881008787
 31
0.0
  0
LINE
  5
13F
330
74
100
AcDbEntity
  8
0
 62
     0
100
AcDbLine
 10
266.4676166586279
 20
-2042.23602391545
 30
0.0
 11
269.5828475444549
 21
-2039.120793029623
 31
0.0
  0
LINE
  5
140
330
74
100
AcDbEntity
  8
0
 62
     0
100
AcDbLine
 10
266.995748332234
 20
-2042.061445632437
 30
0.0
 11
269.8464889142123
 21
-2039.210705050459
 31
0.0
  0
LINE
  5
141
330
74
100
AcDbEntity
  8
0
 62
     0
100
AcDbLine
 10
267.5238800058401
 20
-2041.886867349424
 30
0.0
 11
270.1101302839699
 21
-2039.300617071294
 31
0.0
  0
ENDBLK
  5
142
330
74
100
AcDbEntity
  8
0
100
AcDbBlockEnd
  0
BLOCK
  5
143
330
75
100
AcDbEntity
  8
0
100
AcDbBlockBegin
  2
*X2
 70
     1
 10
0.0
 20
0.0
 30
0.0
  3
*X2
  1

  0
LINE
  5
144
330
75
100
AcDbEntity
  8
0
 62
     0
100
AcDbLine
 10
221.2500000000001
 20
-2015.0
 30
0.0
 11
221.2500000000001
 21
-2015.0
 31
0.0
  0
LINE
  5
145
330
75
100
AcDbEntity
  8
0
 62
     0
100
AcDbLine
 10
220.6250000000001
 20
-2013.75
 30
0.0
 11
220.6250000000001
 21
-2013.75
 31
0.0
  0
LINE
  5
146
330
75
100
AcDbEntity
  8
0
 62
     0
100
AcDbLine
 10
221.875
 20
-2013.75
 30
0.0
 11
221.875
 21
-2013.75
 31
0.0
  0
LINE
  5
147
330
75
100
AcDbEntity
  8
0
 62
     0
100
AcDbLine
 10
223.1250000000001
 20
-2013.75
 30
0.0
 11
223.1250000000001
 21
-2013.75
 31
0.0
  0
LINE
  5
148
330
75
100
AcDbEntity
  8
0
 62
     0
100
AcDbLine
 10
220.0000000000001
 20
-2012.5
 30
0.0
 11
220.0000000000001
 21
-2012.5
 31
0.0
  0
LINE
  5
149
330
75
100
AcDbEntity
  8
0
 62
     0
100
AcDbLine
 10
221.2500000000001
 20
-2012.5
 30
0.0
 11
221.2500000000001
 21
-2012.5
 31
0.0
  0
LINE
  5
14A
330
75
100
AcDbEntity
  8
0
 62
     0
100
AcDbLine
 10
222.5000000000001
 20
-2012.5
 30
0.0
 11
222.5000000000001
 21
-2012.5
 31
0.0
  0
LINE
  5
14B
330
75
100
AcDbEntity
  8
0
 62
     0
100
AcDbLine
 10
223.7500000000001
 20
-2012.5
 30
0.0
 11
223.7500000000001
 21
-2012.5
 31
0.0
  0
LINE
  5
14C
330
75
100
AcDbEntity
  8
0
 62
     0
100
AcDbLine
 10
225.0000000000001
 20
-2012.5
 30
0.0
 11
225.0000000000001
 21
-2012.5
 31
0.0
  0
LINE
  5
14D
330
75
100
AcDbEntity
  8
0
 62
     0
100
AcDbLine
 10
226.2500000000001
 20
-2012.5
 30
0.0
 11
226.2500000000001
 21
-2012.5
 31
0.0
  0
LINE
  5
14E
330
75
100
AcDbEntity
  8
0
 62
     0
100
AcDbLine
 10
227.5000000000001
 20
-2012.5
 30
0.0
 11
227.5000000000001
 21
-2012.5
 31
0.0
  0
LINE
  5
14F
330
75
100
AcDbEntity
  8
0
 62
     0
100
AcDbLine
 10
228.7500000000001
 20
-2012.5
 30
0.0
 11
228.7500000000001
 21
-2012.5
 31
0.0
  0
LINE
  5
150
330
75
100
AcDbEntity
  8
0
 62
     0
100
AcDbLine
 10
219.3749999999999
 20
-2011.25
 30
0.0
 11
219.3749999999999
 21
-2011.25
 31
0.0
  0
LINE
  5
151
330
75
100
AcDbEntity
  8
0
 62
     0
100
AcDbLine
 10
220.6249999999999
 20
-2011.25
 30
0.0
 11
220.6249999999999
 21
-2011.25
 31
0.0
  0
LINE
  5
152
330
75
100
AcDbEntity
  8
0
 62
     0
100
AcDbLine
 10
221.8749999999999
 20
-2011.25
 30
0.0
 11
221.8749999999999
 21
-2011.25
 31
0.0
  0
LINE
  5
153
330
75
100
AcDbEntity
  8
0
 62
     0
100
AcDbLine
 10
223.1249999999999
 20
-2011.25
 30
0.0
 11
223.1249999999999
 21
-2011.25
 31
0.0
  0
LINE
  5
154
330
75
100
AcDbEntity
  8
0
 62
     0
100
AcDbLine
 10
224.3749999999999
 20
-2011.25
 30
0.0
 11
224.3749999999999
 21
-2011.25
 31
0.0
  0
LINE
  5
155
330
75
100
AcDbEntity
  8
0
 62
     0
100
AcDbLine
 10
225.6249999999999
 20
-2011.25
 30
0.0
 11
225.6249999999999
 21
-2011.25
 31
0.0
  0
LINE
  5
156
330
75
100
AcDbEntity
  8
0
 62
     0
100
AcDbLine
 10
226.8749999999999
 20
-2011.25
 30
0.0
 11
226.8749999999999
 21
-2011.25
 31
0.0
  0
LINE
  5
157
330
75
100
AcDbEntity
  8
0
 62
     0
100
AcDbLine
 10
228.1249999999999
 20
-2011.25
 30
0.0
 11
228.1249999999999
 21
-2011.25
 31
0.0
  0
LINE
  5
158
330
75
100
AcDbEntity
  8
0
 62
     0
100
AcDbLine
 10
229.3749999999999
 20
-2011.25
 30
0.0
 11
229.3749999999999
 21
-2011.25
 31
0.0
  0
LINE
  5
159
330
75
100
AcDbEntity
  8
0
 62
     0
100
AcDbLine
 10
230.6249999999999
 20
-2011.25
 30
0.0
 11
230.6249999999999
 21
-2011.25
 31
0.0
  0
LINE
  5
15A
330
75
100
AcDbEntity
  8
0
 62
     0
100
AcDbLine
 10
218.7499999999999
 20
-2010.0
 30
0.0
 11
218.7499999999999
 21
-2010.0
 31
0.0
  0
LINE
  5
15B
330
75
100
AcDbEntity
  8
0
 62
     0
100
AcDbLine
 10
219.9999999999999
 20
-2010.0
 30
0.0
 11
219.9999999999999
 21
-2010.0
 31
0.0
  0
LINE
  5
15C
330
75
100
AcDbEntity
  8
0
 62
     0
100
AcDbLine
 10
221.2499999999999
 20
-2010.0
 30
0.0
 11
221.2499999999999
 21
-2010.0
 31
0.0
  0
LINE
  5
15D
330
75
100
AcDbEntity
  8
0
 62
     0
100
AcDbLine
 10
222.4999999999999
 20
-2010.0
 30
0.0
 11
222.4999999999999
 21
-2010.0
 31
0.0
  0
LINE
  5
15E
330
75
100
AcDbEntity
  8
0
 62
     0
100
AcDbLine
 10
223.7499999999999
 20
-2010.0
 30
0.0
 11
223.7499999999999
 21
-2010.0
 31
0.0
  0
LINE
  5
15F
330
75
100
AcDbEntity
  8
0
 62
     0
100
AcDbLine
 10
224.9999999999999
 20
-2010.0
 30
0.0
 11
224.9999999999999
 21
-2010.0
 31
0.0
  0
LINE
  5
160
330
75
100
AcDbEntity
  8
0
 62
     0
100
AcDbLine
 10
226.2499999999999
 20
-2010.0
 30
0.0
 11
226.2499999999999
 21
-2010.0
 31
0.0
  0
LINE
  5
161
330
75
100
AcDbEntity
  8
0
 62
     0
100
AcDbLine
 10
227.4999999999999
 20
-2010.0
 30
0.0
 11
227.4999999999999
 21
-2010.0
 31
0.0
  0
LINE
  5
162
330
75
100
AcDbEntity
  8
0
 62
     0
100
AcDbLine
 10
228.7499999999999
 20
-2010.0
 30
0.0
 11
228.7499999999999
 21
-2010.0
 31
0.0
  0
LINE
  5
163
330
75
100
AcDbEntity
  8
0
 62
     0
100
AcDbLine
 10
229.9999999999999
 20
-2010.0
 30
0.0
 11
229.9999999999999
 21
-2010.0
 31
0.0
  0
LINE
  5
164
330
75
100
AcDbEntity
  8
0
 62
     0
100
AcDbLine
 10
231.2499999999999
 20
-2010.0
 30
0.0
 11
231.2499999999999
 21
-2010.0
 31
0.0
  0
LINE
  5
165
330
75
100
AcDbEntity
  8
0
 62
     0
100
AcDbLine
 10
232.4999999999999
 20
-2010.0
 30
0.0
 11
232.4999999999999
 21
-2010.0
 31
0.0
  0
LINE
  5
166
330
75
100
AcDbEntity
  8
0
 62
     0
100
AcDbLine
 10
219.3750000000001
 20
-2008.75
 30
0.0
 11
219.3750000000001
 21
-2008.75
 31
0.0
  0
LINE
  5
167
330
75
100
AcDbEntity
  8
0
 62
     0
100
AcDbLine
 10
220.6250000000001
 20
-2008.75
 30
0.0
 11
220.6250000000001
 21
-2008.75
 31
0.0
  0
LINE
  5
168
330
75
100
AcDbEntity
  8
0
 62
     0
100
AcDbLine
 10
221.8750000000001
 20
-2008.75
 30
0.0
 11
221.8750000000001
 21
-2008.75
 31
0.0
  0
LINE
  5
169
330
75
100
AcDbEntity
  8
0
 62
     0
100
AcDbLine
 10
223.1250000000001
 20
-2008.75
 30
0.0
 11
223.1250000000001
 21
-2008.75
 31
0.0
  0
LINE
  5
16A
330
75
100
AcDbEntity
  8
0
 62
     0
100
AcDbLine
 10
224.3750000000001
 20
-2008.75
 30
0.0
 11
224.3750000000001
 21
-2008.75
 31
0.0
  0
LINE
  5
16B
330
75
100
AcDbEntity
  8
0
 62
     0
100
AcDbLine
 10
225.6250000000001
 20
-2008.75
 30
0.0
 11
225.6250000000001
 21
-2008.75
 31
0.0
  0
LINE
  5
16C
330
75
100
AcDbEntity
  8
0
 62
     0
100
AcDbLine
 10
226.8750000000001
 20
-2008.75
 30
0.0
 11
226.8750000000001
 21
-2008.75
 31
0.0
  0
LINE
  5
16D
330
75
100
AcDbEntity
  8
0
 62
     0
100
AcDbLine
 10
228.1250000000001
 20
-2008.75
 30
0.0
 11
228.1250000000001
 21
-2008.75
 31
0.0
  0
LINE
  5
16E
330
75
100
AcDbEntity
  8
0
 62
     0
100
AcDbLine
 10
229.3750000000001
 20
-2008.75
 30
0.0
 11
229.3750000000001
 21
-2008.75
 31
0.0
  0
LINE
  5
16F
330
75
100
AcDbEntity
  8
0
 62
     0
100
AcDbLine
 10
230.6250000000001
 20
-2008.75
 30
0.0
 11
230.6250000000001
 21
-2008.75
 31
0.0
  0
LINE
  5
170
330
75
100
AcDbEntity
  8
0
 62
     0
100
AcDbLine
 10
231.8750000000001
 20
-2008.75
 30
0.0
 11
231.8750000000001
 21
-2008.75
 31
0.0
  0
LINE
  5
171
330
75
100
AcDbEntity
  8
0
 62
     0
100
AcDbLine
 10
220.0000000000001
 20
-2007.5
 30
0.0
 11
220.0000000000001
 21
-2007.5
 31
0.0
  0
LINE
  5
172
330
75
100
AcDbEntity
  8
0
 62
     0
100
AcDbLine
 10
221.2500000000001
 20
-2007.5
 30
0.0
 11
221.2500000000001
 21
-2007.5
 31
0.0
  0
LINE
  5
173
330
75
100
AcDbEntity
  8
0
 62
     0
100
AcDbLine
 10
222.5000000000001
 20
-2007.5
 30
0.0
 11
222.5000000000001
 21
-2007.5
 31
0.0
  0
LINE
  5
174
330
75
100
AcDbEntity
  8
0
 62
     0
100
AcDbLine
 10
223.7500000000001
 20
-2007.5
 30
0.0
 11
223.7500000000001
 21
-2007.5
 31
0.0
  0
LINE
  5
175
330
75
100
AcDbEntity
  8
0
 62
     0
100
AcDbLine
 10
225.0000000000001
 20
-2007.5
 30
0.0
 11
225.0000000000001
 21
-2007.5
 31
0.0
  0
LINE
  5
176
330
75
100
AcDbEntity
  8
0
 62
     0
100
AcDbLine
 10
226.2500000000001
 20
-2007.5
 30
0.0
 11
226.2500000000001
 21
-2007.5
 31
0.0
  0
LINE
  5
177
330
75
100
AcDbEntity
  8
0
 62
     0
100
AcDbLine
 10
227.5000000000001
 20
-2007.5
 30
0.0
 11
227.5000000000001
 21
-2007.5
 31
0.0
  0
LINE
  5
178
330
75
100
AcDbEntity
  8
0
 62
     0
100
AcDbLine
 10
228.7500000000001
 20
-2007.5
 30
0.0
 11
228.7500000000001
 21
-2007.5
 31
0.0
  0
LINE
  5
179
330
75
100
AcDbEntity
  8
0
 62
     0
100
AcDbLine
 10
230.0000000000001
 20
-2007.5
 30
0.0
 11
230.0000000000001
 21
-2007.5
 31
0.0
  0
LINE
  5
17A
330
75
100
AcDbEntity
  8
0
 62
     0
100
AcDbLine
 10
221.875
 20
-2006.25
 30
0.0
 11
221.875
 21
-2006.25
 31
0.0
  0
LINE
  5
17B
330
75
100
AcDbEntity
  8
0
 62
     0
100
AcDbLine
 10
223.1250000000001
 20
-2006.25
 30
0.0
 11
223.1250000000001
 21
-2006.25
 31
0.0
  0
LINE
  5
17C
330
75
100
AcDbEntity
  8
0
 62
     0
100
AcDbLine
 10
224.3750000000001
 20
-2006.25
 30
0.0
 11
224.3750000000001
 21
-2006.25
 31
0.0
  0
LINE
  5
17D
330
75
100
AcDbEntity
  8
0
 62
     0
100
AcDbLine
 10
225.625
 20
-2006.25
 30
0.0
 11
225.625
 21
-2006.25
 31
0.0
  0
LINE
  5
17E
330
75
100
AcDbEntity
  8
0
 62
     0
100
AcDbLine
 10
226.8750000000001
 20
-2006.25
 30
0.0
 11
226.8750000000001
 21
-2006.25
 31
0.0
  0
LINE
  5
17F
330
75
100
AcDbEntity
  8
0
 62
     0
100
AcDbLine
 10
228.125
 20
-2006.25
 30
0.0
 11
228.125
 21
-2006.25
 31
0.0
  0
LINE
  5
180
330
75
100
AcDbEntity
  8
0
 62
     0
100
AcDbLine
 10
223.75
 20
-2005.0
 30
0.0
 11
223.75
 21
-2005.0
 31
0.0
  0
LINE
  5
181
330
75
100
AcDbEntity
  8
0
 62
     0
100
AcDbLine
 10
225.0
 20
-2005.0
 30
0.0
 11
225.0
 21
-2005.0
 31
0.0
  0
LINE
  5
182
330
75
100
AcDbEntity
  8
0
 62
     0
100
AcDbLine
 10
226.25
 20
-2005.0
 30
0.0
 11
226.25
 21
-2005.0
 31
0.0
  0
LINE
  5
183
330
75
100
AcDbEntity
  8
0
 62
     0
100
AcDbLine
 10
227.5
 20
-2005.0
 30
0.0
 11
227.5
 21
-2005.0
 31
0.0
  0
LINE
  5
184
330
75
100
AcDbEntity
  8
0
 62
     0
100
AcDbLine
 10
224.375
 20
-2003.75
 30
0.0
 11
224.375
 21
-2003.75
 31
0.0
  0
LINE
  5
185
330
75
100
AcDbEntity
  8
0
 62
     0
100
AcDbLine
 10
225.625
 20
-2003.75
 30
0.0
 11
225.625
 21
-2003.75
 31
0.0
  0
LINE
  5
186
330
75
100
AcDbEntity
  8
0
 62
     0
100
AcDbLine
 10
221.25
 20
-2035.0
 30
0.0
 11
221.25
 21
-2035.0
 31
0.0
  0
LINE
  5
187
330
75
100
AcDbEntity
  8
0
 62
     0
100
AcDbLine
 10
222.5
 20
-2035.0
 30
0.0
 11
222.5
 21
-2035.0
 31
0.0
  0
LINE
  5
188
330
75
100
AcDbEntity
  8
0
 62
     0
100
AcDbLine
 10
221.875
 20
-2036.25
 30
0.0
 11
221.875
 21
-2036.25
 31
0.0
  0
LINE
  5
189
330
75
100
AcDbEntity
  8
0
 62
     0
100
AcDbLine
 10
223.1249999999999
 20
-2036.25
 30
0.0
 11
223.1249999999999
 21
-2036.25
 31
0.0
  0
LINE
  5
18A
330
75
100
AcDbEntity
  8
0
 62
     0
100
AcDbLine
 10
224.3749999999999
 20
-2036.25
 30
0.0
 11
224.3749999999999
 21
-2036.25
 31
0.0
  0
LINE
  5
18B
330
75
100
AcDbEntity
  8
0
 62
     0
100
AcDbLine
 10
225.625
 20
-2036.25
 30
0.0
 11
225.625
 21
-2036.25
 31
0.0
  0
LINE
  5
18C
330
75
100
AcDbEntity
  8
0
 62
     0
100
AcDbLine
 10
226.8749999999999
 20
-2036.25
 30
0.0
 11
226.8749999999999
 21
-2036.25
 31
0.0
  0
LINE
  5
18D
330
75
100
AcDbEntity
  8
0
 62
     0
100
AcDbLine
 10
222.4999999999999
 20
-2037.5
 30
0.0
 11
222.4999999999999
 21
-2037.5
 31
0.0
  0
LINE
  5
18E
330
75
100
AcDbEntity
  8
0
 62
     0
100
AcDbLine
 10
223.7499999999999
 20
-2037.5
 30
0.0
 11
223.7499999999999
 21
-2037.5
 31
0.0
  0
LINE
  5
18F
330
75
100
AcDbEntity
  8
0
 62
     0
100
AcDbLine
 10
224.9999999999999
 20
-2037.5
 30
0.0
 11
224.9999999999999
 21
-2037.5
 31
0.0
  0
LINE
  5
190
330
75
100
AcDbEntity
  8
0
 62
     0
100
AcDbLine
 10
226.2499999999999
 20
-2037.5
 30
0.0
 11
226.2499999999999
 21
-2037.5
 31
0.0
  0
LINE
  5
191
330
75
100
AcDbEntity
  8
0
 62
     0
100
AcDbLine
 10
227.4999999999999
 20
-2037.5
 30
0.0
 11
227.4999999999999
 21
-2037.5
 31
0.0
  0
LINE
  5
192
330
75
100
AcDbEntity
  8
0
 62
     0
100
AcDbLine
 10
228.7499999999999
 20
-2037.5
 30
0.0
 11
228.7499999999999
 21
-2037.5
 31
0.0
  0
LINE
  5
193
330
75
100
AcDbEntity
  8
0
 62
     0
100
AcDbLine
 10
229.9999999999999
 20
-2037.5
 30
0.0
 11
229.9999999999999
 21
-2037.5
 31
0.0
  0
LINE
  5
194
330
75
100
AcDbEntity
  8
0
 62
     0
100
AcDbLine
 10
231.2499999999999
 20
-2037.5
 30
0.0
 11
231.2499999999999
 21
-2037.5
 31
0.0
  0
LINE
  5
195
330
75
100
AcDbEntity
  8
0
 62
     0
100
AcDbLine
 10
232.4999999999999
 20
-2037.5
 30
0.0
 11
232.4999999999999
 21
-2037.5
 31
0.0
  0
LINE
  5
196
330
75
100
AcDbEntity
  8
0
 62
     0
100
AcDbLine
 10
221.8750000000001
 20
-2038.75
 30
0.0
 11
221.8750000000001
 21
-2038.75
 31
0.0
  0
LINE
  5
197
330
75
100
AcDbEntity
  8
0
 62
     0
100
AcDbLine
 10
223.1250000000001
 20
-2038.75
 30
0.0
 11
223.1250000000001
 21
-2038.75
 31
0.0
  0
LINE
  5
198
330
75
100
AcDbEntity
  8
0
 62
     0
100
AcDbLine
 10
224.3750000000001
 20
-2038.75
 30
0.0
 11
224.3750000000001
 21
-2038.75
 31
0.0
  0
LINE
  5
199
330
75
100
AcDbEntity
  8
0
 62
     0
100
AcDbLine
 10
225.6250000000001
 20
-2038.75
 30
0.0
 11
225.6250000000001
 21
-2038.75
 31
0.0
  0
LINE
  5
19A
330
75
100
AcDbEntity
  8
0
 62
     0
100
AcDbLine
 10
226.8750000000001
 20
-2038.75
 30
0.0
 11
226.8750000000001
 21
-2038.75
 31
0.0
  0
LINE
  5
19B
330
75
100
AcDbEntity
  8
0
 62
     0
100
AcDbLine
 10
228.1250000000001
 20
-2038.75
 30
0.0
 11
228.1250000000001
 21
-2038.75
 31
0.0
  0
LINE
  5
19C
330
75
100
AcDbEntity
  8
0
 62
     0
100
AcDbLine
 10
229.3750000000001
 20
-2038.75
 30
0.0
 11
229.3750000000001
 21
-2038.75
 31
0.0
  0
LINE
  5
19D
330
75
100
AcDbEntity
  8
0
 62
     0
100
AcDbLine
 10
230.6250000000001
 20
-2038.75
 30
0.0
 11
230.6250000000001
 21
-2038.75
 31
0.0
  0
LINE
  5
19E
330
75
100
AcDbEntity
  8
0
 62
     0
100
AcDbLine
 10
231.8750000000001
 20
-2038.75
 30
0.0
 11
231.8750000000001
 21
-2038.75
 31
0.0
  0
LINE
  5
19F
330
75
100
AcDbEntity
  8
0
 62
     0
100
AcDbLine
 10
233.1250000000001
 20
-2038.75
 30
0.0
 11
233.1250000000001
 21
-2038.75
 31
0.0
  0
LINE
  5
1A0
330
75
100
AcDbEntity
  8
0
 62
     0
100
AcDbLine
 10
234.3750000000001
 20
-2038.75
 30
0.0
 11
234.3750000000001
 21
-2038.75
 31
0.0
  0
LINE
  5
1A1
330
75
100
AcDbEntity
  8
0
 62
     0
100
AcDbLine
 10
235.6250000000001
 20
-2038.75
 30
0.0
 11
235.6250000000001
 21
-2038.75
 31
0.0
  0
LINE
  5
1A2
330
75
100
AcDbEntity
  8
0
 62
     0
100
AcDbLine
 10
236.8750000000001
 20
-2038.75
 30
0.0
 11
236.8750000000001
 21
-2038.75
 31
0.0
  0
LINE
  5
1A3
330
75
100
AcDbEntity
  8
0
 62
     0
100
AcDbLine
 10
238.1250000000001
 20
-2038.75
 30
0.0
 11
238.1250000000001
 21
-2038.75
 31
0.0
  0
LINE
  5
1A4
330
75
100
AcDbEntity
  8
0
 62
     0
100
AcDbLine
 10
222.5
 20
-2040.0
 30
0.0
 11
222.5
 21
-2040.0
 31
0.0
  0
LINE
  5
1A5
330
75
100
AcDbEntity
  8
0
 62
     0
100
AcDbLine
 10
223.75
 20
-2040.0
 30
0.0
 11
223.75
 21
-2040.0
 31
0.0
  0
LINE
  5
1A6
330
75
100
AcDbEntity
  8
0
 62
     0
100
AcDbLine
 10
225.0
 20
-2040.0
 30
0.0
 11
225.0
 21
-2040.0
 31
0.0
  0
LINE
  5
1A7
330
75
100
AcDbEntity
  8
0
 62
     0
100
AcDbLine
 10
226.25
 20
-2040.0
 30
0.0
 11
226.25
 21
-2040.0
 31
0.0
  0
LINE
  5
1A8
330
75
100
AcDbEntity
  8
0
 62
     0
100
AcDbLine
 10
227.5
 20
-2040.0
 30
0.0
 11
227.5
 21
-2040.0
 31
0.0
  0
LINE
  5
1A9
330
75
100
AcDbEntity
  8
0
 62
     0
100
AcDbLine
 10
228.75
 20
-2040.0
 30
0.0
 11
228.75
 21
-2040.0
 31
0.0
  0
LINE
  5
1AA
330
75
100
AcDbEntity
  8
0
 62
     0
100
AcDbLine
 10
230.0
 20
-2040.0
 30
0.0
 11
230.0
 21
-2040.0
 31
0.0
  0
LINE
  5
1AB
330
75
100
AcDbEntity
  8
0
 62
     0
100
AcDbLine
 10
231.25
 20
-2040.0
 30
0.0
 11
231.25
 21
-2040.0
 31
0.0
  0
LINE
  5
1AC
330
75
100
AcDbEntity
  8
0
 62
     0
100
AcDbLine
 10
232.5
 20
-2040.0
 30
0.0
 11
232.5
 21
-2040.0
 31
0.0
  0
LINE
  5
1AD
330
75
100
AcDbEntity
  8
0
 62
     0
100
AcDbLine
 10
233.75
 20
-2040.0
 30
0.0
 11
233.75
 21
-2040.0
 31
0.0
  0
LINE
  5
1AE
330
75
100
AcDbEntity
  8
0
 62
     0
100
AcDbLine
 10
235.0
 20
-2040.0
 30
0.0
 11
235.0
 21
-2040.0
 31
0.0
  0
LINE
  5
1AF
330
75
100
AcDbEntity
  8
0
 62
     0
100
AcDbLine
 10
236.25
 20
-2040.0
 30
0.0
 11
236.25
 21
-2040.0
 31
0.0
  0
LINE
  5
1B0
330
75
100
AcDbEntity
  8
0
 62
     0
100
AcDbLine
 10
237.5
 20
-2040.0
 30
0.0
 11
237.5
 21
-2040.0
 31
0.0
  0
LINE
  5
1B1
330
75
100
AcDbEntity
  8
0
 62
     0
100
AcDbLine
 10
238.75
 20
-2040.0
 30
0.0
 11
238.75
 21
-2040.0
 31
0.0
  0
LINE
  5
1B2
330
75
100
AcDbEntity
  8
0
 62
     0
100
AcDbLine
 10
240.0
 20
-2040.0
 30
0.0
 11
240.0
 21
-2040.0
 31
0.0
  0
LINE
  5
1B3
330
75
100
AcDbEntity
  8
0
 62
     0
100
AcDbLine
 10
241.25
 20
-2040.0
 30
0.0
 11
241.25
 21
-2040.0
 31
0.0
  0
LINE
  5
1B4
330
75
100
AcDbEntity
  8
0
 62
     0
100
AcDbLine
 10
242.5
 20
-2040.0
 30
0.0
 11
242.5
 21
-2040.0
 31
0.0
  0
LINE
  5
1B5
330
75
100
AcDbEntity
  8
0
 62
     0
100
AcDbLine
 10
243.75
 20
-2040.0
 30
0.0
 11
243.75
 21
-2040.0
 31
0.0
  0
LINE
  5
1B6
330
75
100
AcDbEntity
  8
0
 62
     0
100
AcDbLine
 10
221.875
 20
-2041.25
 30
0.0
 11
221.875
 21
-2041.25
 31
0.0
  0
LINE
  5
1B7
330
75
100
AcDbEntity
  8
0
 62
     0
100
AcDbLine
 10
223.1250000000001
 20
-2041.25
 30
0.0
 11
223.1250000000001
 21
-2041.25
 31
0.0
  0
LINE
  5
1B8
330
75
100
AcDbEntity
  8
0
 62
     0
100
AcDbLine
 10
224.3750000000001
 20
-2041.25
 30
0.0
 11
224.3750000000001
 21
-2041.25
 31
0.0
  0
LINE
  5
1B9
330
75
100
AcDbEntity
  8
0
 62
     0
100
AcDbLine
 10
225.625
 20
-2041.25
 30
0.0
 11
225.625
 21
-2041.25
 31
0.0
  0
LINE
  5
1BA
330
75
100
AcDbEntity
  8
0
 62
     0
100
AcDbLine
 10
226.8750000000001
 20
-2041.25
 30
0.0
 11
226.8750000000001
 21
-2041.25
 31
0.0
  0
LINE
  5
1BB
330
75
100
AcDbEntity
  8
0
 62
     0
100
AcDbLine
 10
228.125
 20
-2041.25
 30
0.0
 11
228.125
 21
-2041.25
 31
0.0
  0
LINE
  5
1BC
330
75
100
AcDbEntity
  8
0
 62
     0
100
AcDbLine
 10
229.3750000000001
 20
-2041.25
 30
0.0
 11
229.3750000000001
 21
-2041.25
 31
0.0
  0
LINE
  5
1BD
330
75
100
AcDbEntity
  8
0
 62
     0
100
AcDbLine
 10
230.6250000000001
 20
-2041.25
 30
0.0
 11
230.6250000000001
 21
-2041.25
 31
0.0
  0
LINE
  5
1BE
330
75
100
AcDbEntity
  8
0
 62
     0
100
AcDbLine
 10
231.875
 20
-2041.25
 30
0.0
 11
231.875
 21
-2041.25
 31
0.0
  0
LINE
  5
1BF
330
75
100
AcDbEntity
  8
0
 62
     0
100
AcDbLine
 10
233.1250000000001
 20
-2041.25
 30
0.0
 11
233.1250000000001
 21
-2041.25
 31
0.0
  0
LINE
  5
1C0
330
75
100
AcDbEntity
  8
0
 62
     0
100
AcDbLine
 10
234.375
 20
-2041.25
 30
0.0
 11
234.375
 21
-2041.25
 31
0.0
  0
LINE
  5
1C1
330
75
100
AcDbEntity
  8
0
 62
     0
100
AcDbLine
 10
235.6250000000001
 20
-2041.25
 30
0.0
 11
235.6250000000001
 21
-2041.25
 31
0.0
  0
LINE
  5
1C2
330
75
100
AcDbEntity
  8
0
 62
     0
100
AcDbLine
 10
236.8750000000001
 20
-2041.25
 30
0.0
 11
236.8750000000001
 21
-2041.25
 31
0.0
  0
LINE
  5
1C3
330
75
100
AcDbEntity
  8
0
 62
     0
100
AcDbLine
 10
238.125
 20
-2041.25
 30
0.0
 11
238.125
 21
-2041.25
 31
0.0
  0
LINE
  5
1C4
330
75
100
AcDbEntity
  8
0
 62
     0
100
AcDbLine
 10
239.3750000000001
 20
-2041.25
 30
0.0
 11
239.3750000000001
 21
-2041.25
 31
0.0
  0
LINE
  5
1C5
330
75
100
AcDbEntity
  8
0
 62
     0
100
AcDbLine
 10
240.625
 20
-2041.25
 30
0.0
 11
240.625
 21
-2041.25
 31
0.0
  0
LINE
  5
1C6
330
75
100
AcDbEntity
  8
0
 62
     0
100
AcDbLine
 10
241.8750000000001
 20
-2041.25
 30
0.0
 11
241.8750000000001
 21
-2041.25
 31
0.0
  0
LINE
  5
1C7
330
75
100
AcDbEntity
  8
0
 62
     0
100
AcDbLine
 10
243.1250000000001
 20
-2041.25
 30
0.0
 11
243.1250000000001
 21
-2041.25
 31
0.0
  0
LINE
  5
1C8
330
75
100
AcDbEntity
  8
0
 62
     0
100
AcDbLine
 10
222.4999999999999
 20
-2042.5
 30
0.0
 11
222.4999999999999
 21
-2042.5
 31
0.0
  0
LINE
  5
1C9
330
75
100
AcDbEntity
  8
0
 62
     0
100
AcDbLine
 10
223.7499999999999
 20
-2042.5
 30
0.0
 11
223.7499999999999
 21
-2042.5
 31
0.0
  0
LINE
  5
1CA
330
75
100
AcDbEntity
  8
0
 62
     0
100
AcDbLine
 10
224.9999999999999
 20
-2042.5
 30
0.0
 11
224.9999999999999
 21
-2042.5
 31
0.0
  0
LINE
  5
1CB
330
75
100
AcDbEntity
  8
0
 62
     0
100
AcDbLine
 10
226.2499999999999
 20
-2042.5
 30
0.0
 11
226.2499999999999
 21
-2042.5
 31
0.0
  0
LINE
  5
1CC
330
75
100
AcDbEntity
  8
0
 62
     0
100
AcDbLine
 10
227.4999999999999
 20
-2042.5
 30
0.0
 11
227.4999999999999
 21
-2042.5
 31
0.0
  0
LINE
  5
1CD
330
75
100
AcDbEntity
  8
0
 62
     0
100
AcDbLine
 10
228.7499999999999
 20
-2042.5
 30
0.0
 11
228.7499999999999
 21
-2042.5
 31
0.0
  0
LINE
  5
1CE
330
75
100
AcDbEntity
  8
0
 62
     0
100
AcDbLine
 10
229.9999999999999
 20
-2042.5
 30
0.0
 11
229.9999999999999
 21
-2042.5
 31
0.0
  0
LINE
  5
1CF
330
75
100
AcDbEntity
  8
0
 62
     0
100
AcDbLine
 10
231.2499999999999
 20
-2042.5
 30
0.0
 11
231.2499999999999
 21
-2042.5
 31
0.0
  0
LINE
  5
1D0
330
75
100
AcDbEntity
  8
0
 62
     0
100
AcDbLine
 10
232.4999999999999
 20
-2042.5
 30
0.0
 11
232.4999999999999
 21
-2042.5
 31
0.0
  0
LINE
  5
1D1
330
75
100
AcDbEntity
  8
0
 62
     0
100
AcDbLine
 10
233.7499999999999
 20
-2042.5
 30
0.0
 11
233.7499999999999
 21
-2042.5
 31
0.0
  0
LINE
  5
1D2
330
75
100
AcDbEntity
  8
0
 62
     0
100
AcDbLine
 10
234.9999999999999
 20
-2042.5
 30
0.0
 11
234.9999999999999
 21
-2042.5
 31
0.0
  0
LINE
  5
1D3
330
75
100
AcDbEntity
  8
0
 62
     0
100
AcDbLine
 10
236.2499999999999
 20
-2042.5
 30
0.0
 11
236.2499999999999
 21
-2042.5
 31
0.0
  0
LINE
  5
1D4
330
75
100
AcDbEntity
  8
0
 62
     0
100
AcDbLine
 10
237.4999999999999
 20
-2042.5
 30
0.0
 11
237.4999999999999
 21
-2042.5
 31
0.0
  0
LINE
  5
1D5
330
75
100
AcDbEntity
  8
0
 62
     0
100
AcDbLine
 10
238.7499999999999
 20
-2042.5
 30
0.0
 11
238.7499999999999
 21
-2042.5
 31
0.0
  0
LINE
  5
1D6
330
75
100
AcDbEntity
  8
0
 62
     0
100
AcDbLine
 10
239.9999999999999
 20
-2042.5
 30
0.0
 11
239.9999999999999
 21
-2042.5
 31
0.0
  0
LINE
  5
1D7
330
75
100
AcDbEntity
  8
0
 62
     0
100
AcDbLine
 10
241.2499999999999
 20
-2042.5
 30
0.0
 11
241.2499999999999
 21
-2042.5
 31
0.0
  0
LINE
  5
1D8
330
75
100
AcDbEntity
  8
0
 62
     0
100
AcDbLine
 10
242.4999999999999
 20
-2042.5
 30
0.0
 11
242.4999999999999
 21
-2042.5
 31
0.0
  0
LINE
  5
1D9
330
75
100
AcDbEntity
  8
0
 62
     0
100
AcDbLine
 10
228.125
 20
-2043.75
 30
0.0
 11
228.125
 21
-2043.75
 31
0.0
  0
LINE
  5
1DA
330
75
100
AcDbEntity
  8
0
 62
     0
100
AcDbLine
 10
229.3750000000001
 20
-2043.75
 30
0.0
 11
229.3750000000001
 21
-2043.75
 31
0.0
  0
LINE
  5
1DB
330
75
100
AcDbEntity
  8
0
 62
     0
100
AcDbLine
 10
230.6250000000001
 20
-2043.75
 30
0.0
 11
230.6250000000001
 21
-2043.75
 31
0.0
  0
LINE
  5
1DC
330
75
100
AcDbEntity
  8
0
 62
     0
100
AcDbLine
 10
231.875
 20
-2043.75
 30
0.0
 11
231.875
 21
-2043.75
 31
0.0
  0
LINE
  5
1DD
330
75
100
AcDbEntity
  8
0
 62
     0
100
AcDbLine
 10
233.1250000000001
 20
-2043.75
 30
0.0
 11
233.1250000000001
 21
-2043.75
 31
0.0
  0
LINE
  5
1DE
330
75
100
AcDbEntity
  8
0
 62
     0
100
AcDbLine
 10
234.375
 20
-2043.75
 30
0.0
 11
234.375
 21
-2043.75
 31
0.0
  0
LINE
  5
1DF
330
75
100
AcDbEntity
  8
0
 62
     0
100
AcDbLine
 10
235.6250000000001
 20
-2043.75
 30
0.0
 11
235.6250000000001
 21
-2043.75
 31
0.0
  0
LINE
  5
1E0
330
75
100
AcDbEntity
  8
0
 62
     0
100
AcDbLine
 10
236.8750000000001
 20
-2043.75
 30
0.0
 11
236.8750000000001
 21
-2043.75
 31
0.0
  0
LINE
  5
1E1
330
75
100
AcDbEntity
  8
0
 62
     0
100
AcDbLine
 10
238.125
 20
-2043.75
 30
0.0
 11
238.125
 21
-2043.75
 31
0.0
  0
LINE
  5
1E2
330
75
100
AcDbEntity
  8
0
 62
     0
100
AcDbLine
 10
239.3750000000001
 20
-2043.75
 30
0.0
 11
239.3750000000001
 21
-2043.75
 31
0.0
  0
LINE
  5
1E3
330
75
100
AcDbEntity
  8
0
 62
     0
100
AcDbLine
 10
240.625
 20
-2043.75
 30
0.0
 11
240.625
 21
-2043.75
 31
0.0
  0
LINE
  5
1E4
330
75
100
AcDbEntity
  8
0
 62
     0
100
AcDbLine
 10
241.8750000000001
 20
-2043.75
 30
0.0
 11
241.8750000000001
 21
-2043.75
 31
0.0
  0
LINE
  5
1E5
330
75
100
AcDbEntity
  8
0
 62
     0
100
AcDbLine
 10
243.1250000000001
 20
-2043.75
 30
0.0
 11
243.1250000000001
 21
-2043.75
 31
0.0
  0
LINE
  5
1E6
330
75
100
AcDbEntity
  8
0
 62
     0
100
AcDbLine
 10
236.2499999999999
 20
-2045.0
 30
0.0
 11
236.2499999999999
 21
-2045.0
 31
0.0
  0
LINE
  5
1E7
330
75
100
AcDbEntity
  8
0
 62
     0
100
AcDbLine
 10
237.4999999999999
 20
-2045.0
 30
0.0
 11
237.4999999999999
 21
-2045.0
 31
0.0
  0
LINE
  5
1E8
330
75
100
AcDbEntity
  8
0
 62
     0
100
AcDbLine
 10
238.7499999999999
 20
-2045.0
 30
0.0
 11
238.7499999999999
 21
-2045.0
 31
0.0
  0
LINE
  5
1E9
330
75
100
AcDbEntity
  8
0
 62
     0
100
AcDbLine
 10
239.9999999999999
 20
-2045.0
 30
0.0
 11
239.9999999999999
 21
-2045.0
 31
0.0
  0
LINE
  5
1EA
330
75
100
AcDbEntity
  8
0
 62
     0
100
AcDbLine
 10
241.2499999999999
 20
-2045.0
 30
0.0
 11
241.2499999999999
 21
-2045.0
 31
0.0
  0
LINE
  5
1EB
330
75
100
AcDbEntity
  8
0
 62
     0
100
AcDbLine
 10
242.4999999999999
 20
-2045.0
 30
0.0
 11
242.4999999999999
 21
-2045.0
 31
0.0
  0
LINE
  5
1EC
330
75
100
AcDbEntity
  8
0
 62
     0
100
AcDbLine
 10
238.1249999999999
 20
-2046.25
 30
0.0
 11
238.1249999999999
 21
-2046.25
 31
0.0
  0
LINE
  5
1ED
330
75
100
AcDbEntity
  8
0
 62
     0
100
AcDbLine
 10
239.3749999999999
 20
-2046.25
 30
0.0
 11
239.3749999999999
 21
-2046.25
 31
0.0
  0
LINE
  5
1EE
330
75
100
AcDbEntity
  8
0
 62
     0
100
AcDbLine
 10
240.6249999999999
 20
-2046.25
 30
0.0
 11
240.6249999999999
 21
-2046.25
 31
0.0
  0
LINE
  5
1EF
330
75
100
AcDbEntity
  8
0
 62
     0
100
AcDbLine
 10
241.8749999999999
 20
-2046.25
 30
0.0
 11
241.8749999999999
 21
-2046.25
 31
0.0
  0
ENDBLK
  5
1F0
330
75
100
AcDbEntity
  8
0
100
AcDbBlockEnd
  0
ENDSEC
  0
SECTION
  2
ENTITIES
  0
LWPOLYLINE
  5
1F1
330
6F
100
AcDbEntity
  8
GRABUNGSGRENZE
100
AcDbPolyline
 90
        4
 70
   128
 43
0.0
 10
3.495396693859409
 20
-20.00036721399995
 10
3.494780973763169
 20
-21.00466594536647
 10
2.006145632815433
 20
-21.00624295657144
 10
2.001661412882858
 20
-19.99686897450864
  0
LWPOLYLINE
  5
1F7
330
6F
100
AcDbEntity
  8
STEINE
100
AcDbPolyline
 90
       18
 70
     0
 43
0.0
 10
2.098645133055556
 20
-20.54762347254664
 10
2.170965524134583
 20
-20.57899126953342
 10
2.209653469289222
 20
-20.58805512172237
 10
2.241161995471463
 20
-20.57373331777638
 10
2.31902936278422
 20
-20.58473715418009
 10
2.36836175526815
 20
-20.57749477740972
 10
2.434456054182696
 20
-20.55901895344307
 10
2.475591508621719
 20
-20.52839338947102
 10
2.505035369459897
 20
-20.50186629452142
 10
2.495243022675125
 20
-20.44999627668935
 10
2.431671535509198
 20
-20.45981701620654
 10
2.40016177486033
 20
-20.47363006061627
 10
2.34871410390064
 20
-20.44780800539659
 10
2.230637450690987
 20
-20.42977905834884
 10
2.214384303796626
 20
-20.4410112710785
 10
2.169245434265413
 20
-20.49911972574132
 10
2.105731967030945
 20
-20.53285216346248
 10
2.098645133055556
 20
-20.54762347254664
  0
LWPOLYLINE
  5
20B
330
6F
100
AcDbEntity
  8
STEINE
100
AcDbPolyline
 90
        6
 70
     0
 43
0.0
 10
2.134855941726768
 20
-20.58416651202648
 10
2.076257244527096
 20
-20.54666027000571
 10
2.066632785203568
 20
-20.56398154910428
 10
2.116112079216086
 20
-20.61728155714822
 10
2.145590505119816
 20
-20.60499972921375
 10
2.134855941726768
 20
-20.58416651202648
  0
LWPOLYLINE
  5
213
330
6F
100
AcDbEntity
  8
STEINE
100
AcDbPolyline
 90
        6
 70
     0
 43
0.0
 10
2.170965524134583
 20
-20.57899126953342
 10
2.21042270128373
 20
-20.69540214940548
 10
2.257689193956971
 20
-20.67544572209526
 10
2.311526354269586
 20
-20.63766666294998
 10
2.329274918107041
 20
-20.61371175841407
 10
2.31902936278422
 20
-20.58473715418009
  0
LWPOLYLINE
  5
21B
330
6F
100
AcDbEntity
  8
STEINE
100
AcDbPolyline
 90
        7
 70
     0
 43
0.0
 10
2.054695373457976
 20
-20.67644703381561
 10
2.063764163513432
 20
-20.63979412680599
 10
2.063712315915106
 20
-20.61842622628329
 10
2.075865759320386
 20
-20.59499366041653
 10
2.090692619402754
 20
-20.62497467352338
 10
2.074535760905282
 20
-20.67589013008091
 10
2.054695373457976
 20
-20.67644703381561
  0
LWPOLYLINE
  5
224
330
6F
100
AcDbEntity
  8
STEINE
100
AcDbPolyline
 90
        6
 70
     0
 43
0.0
 10
2.101640745522235
 20
-20.73382329048272
 10
2.11175791631587
 20
-20.70988690294621
 10
2.131610648429444
 20
-20.71441759457406
 10
2.139302530337977
 20
-20.73932829485114
 10
2.115931687802558
 20
-20.75261282825859
 10
2.101640745522235
 20
-20.73382329048272
  0
LWPOLYLINE
  5
22C
330
6F
100
AcDbEntity
  8
STEINE
100
AcDbPolyline
 90
        6
 70
     0
 43
0.0
 10
2.134582965316231
 20
-20.68134081791775
 10
2.146241228318151
 20
-20.66350584141642
 10
2.17935133557339
 20
-20.68021466578208
 10
2.185014351670039
 20
-20.70767410160694
 10
2.175861617883961
 20
-20.70973136015124
 10
2.134582965316231
 20
-20.68134081791775
  0
LWPOLYLINE
  5
234
330
6F
100
AcDbEntity
  8
STEINE
100
AcDbPolyline
 90
       10
 70
     0
 43
0.0
 10
2.063995168058658
 20
-20.52532199668206
 10
2.111144386402354
 20
-20.45703341342763
 10
2.149161856892629
 20
-20.39945100083385
 10
2.200376213659855
 20
-20.32911750370139
 10
2.20906586317487
 20
-20.34588558246514
 10
2.162948977503204
 20
-20.42027681122136
 10
2.145758551867075
 20
-20.46458086274083
 10
2.123925098140061
 20
-20.4824405285747
 10
2.100060309667909
 20
-20.50183141088384
 10
2.063995168058658
 20
-20.52532199668206
  0
LWPOLYLINE
  5
240
330
6F
100
AcDbEntity
  8
STEINE
100
AcDbPolyline
 90
        6
 70
     0
 43
0.0
 10
2.123925098140061
 20
-20.4824405285747
 10
2.147875064809463
 20
-20.49815405426713
 10
2.179334212326632
 20
-20.46348186887096
 10
2.215366023336959
 20
-20.42625477559386
 10
2.217331931350877
 20
-20.39775930369709
 10
2.162948977503204
 20
-20.42027681122136
  0
LWPOLYLINE
  5
248
330
6F
100
AcDbEntity
  8
STEINE
100
AcDbPolyline
 90
        2
 70
     0
 43
0.0
 10
2.230637450690987
 20
-20.42977905834884
 10
2.215366023336959
 20
-20.42625477559386
  0
LWPOLYLINE
  5
24C
330
6F
100
AcDbEntity
  8
STEINE
100
AcDbPolyline
 90
        2
 70
     0
 43
0.0
 10
2.217331931350877
 20
-20.39775930369709
 10
2.20906586317487
 20
-20.34588558246514
  0
LWPOLYLINE
  5
250
330
6F
100
AcDbEntity
  8
STEINE
100
AcDbPolyline
 90
        4
 70
     0
 43
0.0
 10
2.20906586317487
 20
-20.34588558246514
 10
2.440682305633194
 20
-20.39925241099295
 10
2.434156078792385
 20
-20.43539038613318
 10
2.431671535509198
 20
-20.45981701620654
  0
LWPOLYLINE
  5
256
330
6F
100
AcDbEntity
  8
STEINE
100
AcDbPolyline
 90
       10
 70
     0
 43
0.0
 10
2.02663738060514
 20
-20.22575151142517
 10
2.061825732337335
 20
-20.26026198169324
 10
2.083289921256922
 20
-20.29989337792278
 10
2.10974418267554
 20
-20.29932042612193
 10
2.143676763276255
 20
-20.2356427748261
 10
2.182219041368932
 20
-20.18467300173699
 10
2.107272143344636
 20
-20.11922448815428
 10
2.084396481212577
 20
-20.12691143219631
 10
2.036726158666358
 20
-20.1901136545548
 10
2.02663738060514
 20
-20.22575151142517
  0
LWPOLYLINE
  5
262
330
6F
100
AcDbEntity
  8
STEINE
100
AcDbPolyline
 90
        6
 70
     0
 43
0.0
 10
2.10974418267554
 20
-20.29932042612193
 10
2.130626778527891
 20
-20.30893624417907
 10
2.167762521274603
 20
-20.30731984950655
 10
2.18751773052466
 20
-20.27165853777028
 10
2.16608193433749
 20
-20.2437286108746
 10
2.143676763276255
 20
-20.2356427748261
  0
LWPOLYLINE
  5
26A
330
6F
100
AcDbEntity
  8
STEINE
100
AcDbPolyline
 90
        7
 70
     0
 43
0.0
 10
2.210130451265213
 20
-20.155605812506
 10
2.175895426340934
 20
-20.09463737741944
 10
2.251541351048027
 20
-20.02882346171519
 10
2.33412457998265
 20
-20.09628849644352
 10
2.275717225110131
 20
-20.13763998254224
 10
2.248224458686348
 20
-20.12956649116
 10
2.210130451265213
 20
-20.155605812506
  0
LWPOLYLINE
  5
273
330
6F
100
AcDbEntity
  8
KNOCHEN
100
AcDbPolyline
 90
        7
 70
     0
 43
0.0
 10
2.631486883194732
 20
-20.40692963858798
 10
2.654379827859567
 20
-20.40636532805351
 10
2.684859724769657
 20
-20.38746715721448
 10
2.701153609062702
 20
-20.39302400918123
 10
2.676286115117561
 20
-20.41852247485867
 10
2.645276472738561
 20
-20.428772968048
 10
2.631486883194732
 20
-20.40692963858798
  0
LWPOLYLINE
  5
27C
330
6F
100
AcDbEntity
  8
KNOCHEN
100
AcDbPolyline
 90
       10
 70
     0
 43
0.0
 10
2.300478395639351
 20
-20.27799836015045
 10
2.331007671214512
 20
-20.2794505707616
 10
2.352846062808034
 20
-20.26362594307276
 10
2.359384634315111
 20
-20.23257556329507
 10
2.349678700194214
 20
-20.21631871300083
 10
2.317603394544259
 20
-20.20673005320948
 10
2.304883171671265
 20
-20.20625215533889
 10
2.308012265819654
 20
-20.23778783978692
 10
2.307550416015218
 20
-20.25712193663123
 10
2.300478395639351
 20
-20.27799836015045
  0
LWPOLYLINE
  5
288
330
6F
100
AcDbEntity
  8
KNOCHEN
100
AcDbPolyline
 90
       12
 70
     0
 43
0.0
 10
2.309027475244926
 20
-20.02715768837759
 10
2.303378038281173
 20
-20.00529460745154
 10
2.313484098875167
 20
-19.97677938408874
 10
2.348541597144922
 20
-19.95736134351381
 10
2.392788863199559
 20
-19.95114883048223
 10
2.423820725977841
 20
-19.95005600894548
 10
2.418760288881084
 20
-19.96126106340935
 10
2.367895445455256
 20
-19.96596334589833
 10
2.340954644899666
 20
-19.97569520381838
 10
2.322163872657166
 20
-19.98947738656245
 10
2.321737822384907
 20
-20.02356550995814
 10
2.309027475244926
 20
-20.02715768837759
  0
LWPOLYLINE
  5
296
330
6F
100
AcDbEntity
  8
KNOCHEN
100
AcDbPolyline
 90
       16
 70
     0
 43
0.0
 10
2.154721337078643
 20
-20.17456447220975
 10
2.185724807124509
 20
-20.16177018133915
 10
2.224404111012761
 20
-20.16727271677432
 10
2.26973679180438
 20
-20.18903950930348
 10
2.296797335622769
 20
-20.22865732640013
 10
2.29281984432974
 20
-20.26682416735224
 10
2.263408079623858
 20
-20.30657901024446
 10
2.227814663552059
 20
-20.31480557548841
 10
2.188119075057925
 20
-20.30981426852275
 10
2.171817783965119
 20
-20.30120485933848
 10
2.184456532040745
 20
-20.26810462781626
 10
2.16353690218959
 20
-20.24322602367147
 10
2.145708098021393
 20
-20.23411155835083
 10
2.164488994530879
 20
-20.21625929931673
 10
2.182243730701468
 20
-20.19484819246209
 10
2.154721337078643
 20
-20.17456447220975
  0
LWPOLYLINE
  5
2A8
330
6F
100
AcDbEntity
  8
KNOCHEN
100
AcDbPolyline
 90
        5
 70
     0
 43
0.0
 10
2.123820487048817
 20
-20.01997564118593
 10
2.168006029772114
 20
-19.98832515134161
 10
2.175153352612215
 20
-19.99848305953392
 10
2.132002611494203
 20
-20.03725371395256
 10
2.123820487048817
 20
-20.01997564118593
  0
INSERT
  5
2AF
330
6F
100
AcDbEntity
  8
KNOCHENSCHRAFF
100
AcDbBlockReference
  2
*X1
 10
0.0
 20
0.0
 30
0.0
 41
0.01
 42
0.01
 43
0.01
1001
ACAD
1000
HATCH
1002
{
1070
    16
1000
ANSI31,I
1040
2.0
1040
0.0
1002
}
  0
INSERT
  5
2B0
330
6F
100
AcDbEntity
  8
STEINESCHRAFF
100
AcDbBlockReference
  2
*X2
 10
0.0
 20
0.0
 30
0.0
 41
0.01
 42
0.01
 43
0.01
1001
ACAD
1000
HATCH
1002
{
1070
    16
1000
DOTS,I
1040
20.0
1040
0.0
1002
}
  0
ENDSEC
  0
SECTION
  2
OBJECTS
  0
DICTIONARY
  5
C
330
0
100
AcDbDictionary
281
     1
  3
ACAD_CIP_PREVIOUS_PRODUCT_INFO
350
2B3
  3
ACAD_COLOR
350
62
  3
ACAD_DETAILVIEWSTYLE
350
69
  3
ACAD_GROUP
350
D
  3
ACAD_LAYOUT
350
61
  3
ACAD_MATERIAL
350
10
  3
ACAD_MLEADERSTYLE
350
65
  3
ACAD_MLINESTYLE
350
5E
  3
ACAD_PLOTSETTINGS
350
60
  3
ACAD_PLOTSTYLENAME
350
E
  3
ACAD_SCALELIST
350
42
  3
ACAD_SECTIONVIEWSTYLE
350
67
  3
ACAD_TABLESTYLE
350
63
  3
ACAD_VISUALSTYLE
350
29
  3
ACDB_RECOMPOSE_DATA
350
35E
  3
AcDbVariableDictionary
350
2FE
  0
DICTIONARY
  5
2B7
330
2
100
AcDbDictionary
280
     1
281
     1
  3
ACAD_LAYERSTATES
360
2B8
  0
XRECORD
  5
2B3
102
{ACAD_REACTORS
330
C
102
}
330
C
100
AcDbXrecord
280
     1
300
ACD
300
2014
300
DSADV_F_S
  0
DICTIONARY
  5
62
102
{ACAD_REACTORS
330
C
102
}
330
C
100
AcDbDictionary
281
     1
  0
DICTIONARY
  5
69
102
{ACAD_REACTORS
330
C
102
}
330
C
100
AcDbDictionary
281
     1
  3
Imperial24
350
6A
  0
DICTIONARY
  5
D
102
{ACAD_REACTORS
330
C
102
}
330
C
100
AcDbDictionary
281
     1
  0
DICTIONARY
  5
61
102
{ACAD_REACTORS
330
C
102
}
330
C
100
AcDbDictionary
281
     1
  3
Layout1
350
6E
  3
Model
350
72
  0
DICTIONARY
  5
10
102
{ACAD_REACTORS
330
C
102
}
330
C
100
AcDbDictionary
281
     1
  3
ByBlock
350
19
  3
ByLayer
350
11
  3
Global
350
21
  0
DICTIONARY
  5
65
102
{ACAD_REACTORS
330
C
102
}
330
C
100
AcDbDictionary
281
     1
  3
Standard
350
66
  0
DICTIONARY
  5
5E
102
{ACAD_REACTORS
330
C
102
}
330
C
100
AcDbDictionary
281
     1
  3
Standard
350
5F
  0
DICTIONARY
  5
60
102
{ACAD_REACTORS
330
C
102
}
330
C
100
AcDbDictionary
281
     1
  0
ACDBDICTIONARYWDFLT
  5
E
102
{ACAD_REACTORS
330
C
102
}
330
C
100
AcDbDictionary
281
     1
  3
Normal
350
F
100
AcDbDictionaryWithDefault
340
F
  0
DICTIONARY
  5
42
102
{ACAD_REACTORS
330
C
102
}
330
C
100
AcDbDictionary
281
     1
  3
A0
350
43
  3
A1
350
44
  3
A2
350
45
  3
A3
350
46
  3
A4
350
47
  3
A5
350
48
  3
A6
350
49
  3
A7
350
4A
  3
A8
350
4B
  3
A9
350
4C
  3
B0
350
4D
  3
B1
350
4E
  3
B2
350
4F
  3
B3
350
50
  3
B4
350
51
  3
B5
350
52
  3
B6
350
53
  0
DICTIONARY
  5
67
102
{ACAD_REACTORS
330
C
102
}
330
C
100
AcDbDictionary
281
     1
  3
Imperial24
350
68
  0
DICTIONARY
  5
63
102
{ACAD_REACTORS
330
C
102
}
330
C
100
AcDbDictionary
281
     1
  3
Standard
350
64
  0
DICTIONARY
  5
29
102
{ACAD_REACTORS
330
C
102
}
330
C
100
AcDbDictionary
281
     1
  3
2dWireframe
350
2F
  3
Basic
350
2E
  3
Brighten
350
35
  3
ColorChange
350
39
  3
Conceptual
350
32
  3
Dim
350
34
  3
EdgeColorOff
350
41
  3
Facepattern
350
38
  3
Flat
350
2A
  3
FlatWithEdges
350
2B
  3
Gouraud
350
2C
  3
GouraudWithEdges
350
2D
  3
Hidden
350
31
  3
JitterOff
350
3F
  3
Linepattern
350
37
  3
OverhangOff
350
40
  3
Realistic
350
33
  3
Shaded
350
3E
  3
Shaded with edges
350
3D
  3
Shades of Gray
350
3A
  3
Sketchy
350
3B
  3
Thicken
350
36
  3
Wireframe
350
30
  3
X-Ray
350
3C
  0
XRECORD
  5
35E
102
{ACAD_REACTORS
330
C
102
}
330
C
100
AcDbXrecord
280
     1
 90
        1
330
64
330
68
330
6A
  0
DICTIONARY
  5
2FE
102
{ACAD_REACTORS
330
C
102
}
330
C
100
AcDbDictionary
281
     1
  3
CANNOSCALE
350
303
  3
CMLEADERSTYLE
350
300
  3
CTABLESTYLE
350
2FF
  3
CVIEWDETAILSTYLE
350
301
  3
CVIEWSECTIONSTYLE
350
302
  0
DICTIONARY
  5
2B8
102
{ACAD_REACTORS
330
2B7
102
}
330
2B7
100
AcDbDictionary
281
     1
  0
ACDBDETAILVIEWSTYLE
  5
6A
102
{ACAD_XDICTIONARY
360
35C
102
}
102
{ACAD_REACTORS
330
69
102
}
330
69
100
AcDbModelDocViewStyle
 70
     0
  3
Imperial24
290
     0
100
AcDbDetailViewStyle
 70
     0
 71
     0
 90
        3
 71
     1
340
55
 62
   256
 40
0.24
340
0
 62
   256
 40
0.24
300

 40
0.36
280
     3
 71
     2
340
5C
 90
       25
 62
   256
 71
     3
340
55
 62
   256
 40
0.24
 90
        1
 40
0.75
 90
        1
300
%<\AcVar ViewType \f "%tc1">% %<\AcVar ViewDetailId>%\PVARIA %<\AcVar ViewScale \f "%sn">%
 71
     4
340
5C
 90
       25
 62
   256
340
5C
 90
       25
 62
   256
280
     0
  0
LAYOUT
  5
6E
102
{ACAD_REACTORS
330
61
102
}
330
61
100
AcDbPlotSettings
  1

  2
Kyocera FS-1350DN KX
  4

  6

 40
0.0
 41
0.0
 42
0.0
 43
0.0
 44
0.0
 45
0.0
 46
0.0
 47
0.0
 48
0.0
 49
0.0
140
0.0
141
0.0
142
1.0
143
1.0
 70
   688
 72
     0
 73
     0
 74
     5
  7

 75
    16
147
1.0
 76
     0
 77
     2
 78
   300
148
0.0
149
0.0
100
AcDbLayout
  1
Layout1
 70
     0
 71
     1
 10
0.0
 20
0.0
 11
12.0
 21
9.0
 12
0.0
 22
0.0
 32
0.0
 14
1.000000000000000E+20
 24
1.000000000000000E+20
 34
1.000000000000000E+20
 15
-1.000000000000000E+20
 25
-1.000000000000000E+20
 35
-1.000000000000000E+20
146
0.0
 13
0.0
 23
0.0
 33
0.0
 16
1.0
 26
0.0
 36
0.0
 17
0.0
 27
1.0
 37
0.0
 76
     0
330
6B
  0
LAYOUT
  5
72
102
{ACAD_XDICTIONARY
360
2FC
102
}
102
{ACAD_REACTORS
330
61
102
}
330
61
100
AcDbPlotSettings
  1

  2
Kyocera FS-1350DN KX
  4

  6

 40
0.0
 41
0.0
 42
0.0
 43
0.0
 44
0.0
 45
0.0
 46
0.0
 47
0.0
 48
0.0
 49
0.0
140
0.0
141
0.0
142
1.0
143
1.0
 70
  1712
 72
     0
 73
     0
 74
     0
  7

 75
     0
147
1.0
 76
     0
 77
     2
 78
   300
148
0.0
149
0.0
100
AcDbLayout
  1
Model
 70
     1
 71
     0
 10
0.0
 20
0.0
 11
12.0
 21
9.0
 12
0.0
 22
0.0
 32
0.0
 14
0.0
 24
0.0
 34
0.0
 15
0.0
 25
0.0
 35
0.0
146
0.0
 13
0.0
 23
0.0
 33
0.0
 16
1.0
 26
0.0
 36
0.0
 17
0.0
 27
1.0
 37
0.0
 76
     0
330
6F
331
8F
  0
MATERIAL
  5
19
102
{ACAD_XDICTIONARY
360
1A
102
}
102
{ACAD_REACTORS
330
10
102
}
330
10
100
AcDbMaterial
  1
ByBlock
 72
     0
 43
0.0208333333333333
 43
0.0
 43
0.0
 43
0.0
 43
0.0
 43
0.0208333333333333
 43
0.0
 43
0.0
 43
0.0
 43
0.0
 43
1.0
 43
0.0
 43
0.0
 43
0.0
 43
0.0
 43
1.0
 77
     0
 47
0.0208333333333333
 47
0.0
 47
0.0
 47
0.0
 47
0.0
 47
0.0208333333333333
 47
0.0
 47
0.0
 47
0.0
 47
0.0
 47
1.0
 47
0.0
 47
0.0
 47
0.0
 47
0.0
 47
1.0
171
     0
 49
0.0208333333333333
 49
0.0
 49
0.0
 49
0.0
 49
0.0
 49
0.0208333333333333
 49
0.0
 49
0.0
 49
0.0
 49
0.0
 49
1.0
 49
0.0
 49
0.0
 49
0.0
 49
0.0
 49
1.0
175
     0
142
0.0208333333333333
142
0.0
142
0.0
142
0.0
142
0.0
142
0.0208333333333333
142
0.0
142
0.0
142
0.0
142
0.0
142
1.0
142
0.0
142
0.0
142
0.0
142
0.0
142
1.0
179
     0
144
0.0208333333333333
144
0.0
144
0.0
144
0.0
144
0.0
144
0.0208333333333333
144
0.0
144
0.0
144
0.0
144
0.0
144
1.0
144
0.0
144
0.0
144
0.0
144
0.0
144
1.0
147
0.0208333333333333
147
0.0
147
0.0
147
0.0
147
0.0
147
0.0208333333333333
147
0.0
147
0.0
147
0.0
147
0.0
147
1.0
147
0.0
147
0.0
147
0.0
147
0.0
147
1.0
  0
MATERIAL
  5
11
102
{ACAD_XDICTIONARY
360
12
102
}
102
{ACAD_REACTORS
330
10
102
}
330
10
100
AcDbMaterial
  1
ByLayer
 72
     0
 43
0.0208333333333333
 43
0.0
 43
0.0
 43
0.0
 43
0.0
 43
0.0208333333333333
 43
0.0
 43
0.0
 43
0.0
 43
0.0
 43
1.0
 43
0.0
 43
0.0
 43
0.0
 43
0.0
 43
1.0
 77
     0
 47
0.0208333333333333
 47
0.0
 47
0.0
 47
0.0
 47
0.0
 47
0.0208333333333333
 47
0.0
 47
0.0
 47
0.0
 47
0.0
 47
1.0
 47
0.0
 47
0.0
 47
0.0
 47
0.0
 47
1.0
171
     0
 49
0.0208333333333333
 49
0.0
 49
0.0
 49
0.0
 49
0.0
 49
0.0208333333333333
 49
0.0
 49
0.0
 49
0.0
 49
0.0
 49
1.0
 49
0.0
 49
0.0
 49
0.0
 49
0.0
 49
1.0
175
     0
142
0.0208333333333333
142
0.0
142
0.0
142
0.0
142
0.0
142
0.0208333333333333
142
0.0
142
0.0
142
0.0
142
0.0
142
1.0
142
0.0
142
0.0
142
0.0
142
0.0
142
1.0
179
     0
144
0.0208333333333333
144
0.0
144
0.0
144
0.0
144
0.0
144
0.0208333333333333
144
0.0
144
0.0
144
0.0
144
0.0
144
1.0
144
0.0
144
0.0
144
0.0
144
0.0
144
1.0
147
0.0208333333333333
147
0.0
147
0.0
147
0.0
147
0.0
147
0.0208333333333333
147
0.0
147
0.0
147
0.0
147
0.0
147
1.0
147
0.0
147
0.0
147
0.0
147
0.0
147
1.0
  0
MATERIAL
  5
21
102
{ACAD_XDICTIONARY
360
22
102
}
102
{ACAD_REACTORS
330
10
102
}
330
10
100
AcDbMaterial
  1
Global
 72
     0
 43
0.0208333333333333
 43
0.0
 43
0.0
 43
0.0
 43
0.0
 43
0.0208333333333333
 43
0.0
 43
0.0
 43
0.0
 43
0.0
 43
1.0
 43
0.0
 43
0.0
 43
0.0
 43
0.0
 43
1.0
 77
     0
 47
0.0208333333333333
 47
0.0
 47
0.0
 47
0.0
 47
0.0
 47
0.0208333333333333
 47
0.0
 47
0.0
 47
0.0
 47
0.0
 47
1.0
 47
0.0
 47
0.0
 47
0.0
 47
0.0
 47
1.0
171
     0
 49
0.0208333333333333
 49
0.0
 49
0.0
 49
0.0
 49
0.0
 49
0.0208333333333333
 49
0.0
 49
0.0
 49
0.0
 49
0.0
 49
1.0
 49
0.0
 49
0.0
 49
0.0
 49
0.0
 49
1.0
175
     0
142
0.0208333333333333
142
0.0
142
0.0
142
0.0
142
0.0
142
0.0208333333333333
142
0.0
142
0.0
142
0.0
142
0.0
142
1.0
142
0.0
142
0.0
142
0.0
142
0.0
142
1.0
179
     0
144
0.0208333333333333
144
0.0
144
0.0
144
0.0
144
0.0
144
0.0208333333333333
144
0.0
144
0.0
144
0.0
144
0.0
144
1.0
144
0.0
144
0.0
144
0.0
144
0.0
144
1.0
147
0.0208333333333333
147
0.0
147
0.0
147
0.0
147
0.0
147
0.0208333333333333
147
0.0
147
0.0
147
0.0
147
0.0
147
1.0
147
0.0
147
0.0
147
0.0
147
0.0
147
1.0
  0
MLEADERSTYLE
  5
66
102
{ACAD_REACTORS
330
65
102
}
330
65
100
AcDbMLeaderStyle
179
     2
170
     2
171
     1
172
     0
 90
        2
 40
0.0
 41
0.0
173
     1
 91
-1056964608
340
5A
 92
       -2
290
     1
 42
0.09
291
     1
 43
0.36
  3
Standard
 44
0.18
300

342
55
174
     1
178
     6
175
     1
176
     0
 93
-1056964608
 45
0.18
292
     0
297
     0
 46
0.18
 94
-1056964608
 47
1.0
 49
1.0
140
1.0
293
     1
141
0.0
294
     1
177
     0
142
1.0
295
     0
296
     0
143
0.125
271
     0
272
     9
273
     9
298
     1
  0
MLINESTYLE
  5
5F
102
{ACAD_REACTORS
330
5E
102
}
330
5E
100
AcDbMlineStyle
  2
STANDARD
 70
     0
  3

 62
   256
 51
90.0
 52
90.0
 71
     2
 49
0.5
 62
   256
  6
BYLAYER
 49
-0.5
 62
   256
  6
BYLAYER
  0
ACDBPLACEHOLDER
  5
F
102
{ACAD_REACTORS
330
E
102
}
330
E
  0
SCALE
  5
43
102
{ACAD_REACTORS
330
42
102
}
330
42
100
AcDbScale
 70
     0
300
1:1
140
1.0
141
1.0
290
     1
  0
SCALE
  5
44
102
{ACAD_REACTORS
330
42
102
}
330
42
100
AcDbScale
 70
     0
300
1/128" = 1'-0"
140
0.0078125
141
12.0
290
     0
  0
SCALE
  5
45
102
{ACAD_REACTORS
330
42
102
}
330
42
100
AcDbScale
 70
     0
300
1/64" = 1'-0"
140
0.015625
141
12.0
290
     0
  0
SCALE
  5
46
102
{ACAD_REACTORS
330
42
102
}
330
42
100
AcDbScale
 70
     0
300
1/32" = 1'-0"
140
0.03125
141
12.0
290
     0
  0
SCALE
  5
47
102
{ACAD_REACTORS
330
42
102
}
330
42
100
AcDbScale
 70
     0
300
1/16" = 1'-0"
140
0.0625
141
12.0
290
     0
  0
SCALE
  5
48
102
{ACAD_REACTORS
330
42
102
}
330
42
100
AcDbScale
 70
     0
300
3/32" = 1'-0"
140
0.09375
141
12.0
290
     0
  0
SCALE
  5
49
102
{ACAD_REACTORS
330
42
102
}
330
42
100
AcDbScale
 70
     0
300
1/8" = 1'-0"
140
0.125
141
12.0
290
     0
  0
SCALE
  5
4A
102
{ACAD_REACTORS
330
42
102
}
330
42
100
AcDbScale
 70
     0
300
3/16" = 1'-0"
140
0.1875
141
12.0
290
     0
  0
SCALE
  5
4B
102
{ACAD_REACTORS
330
42
102
}
330
42
100
AcDbScale
 70
     0
300
1/4" = 1'-0"
140
0.25
141
12.0
290
     0
  0
SCALE
  5
4C
102
{ACAD_REACTORS
330
42
102
}
330
42
100
AcDbScale
 70
     0
300
3/8" = 1'-0"
140
0.375
141
12.0
290
     0
  0
SCALE
  5
4D
102
{ACAD_REACTORS
330
42
102
}
330
42
100
AcDbScale
 70
     0
300
1/2" = 1'-0"
140
0.5
141
12.0
290
     0
  0
SCALE
  5
4E
102
{ACAD_REACTORS
330
42
102
}
330
42
100
AcDbScale
 70
     0
300
3/4" = 1'-0"
140
0.75
141
12.0
290
     0
  0
SCALE
  5
4F
102
{ACAD_REACTORS
330
42
102
}
330
42
100
AcDbScale
 70
     0
300
1" = 1'-0"
140
1.0
141
12.0
290
     0
  0
SCALE
  5
50
102
{ACAD_REACTORS
330
42
102
}
330
42
100
AcDbScale
 70
     0
300
1-1/2" = 1'-0"
140
1.5
141
12.0
290
     0
  0
SCALE
  5
51
102
{ACAD_REACTORS
330
42
102
}
330
42
100
AcDbScale
 70
     0
300
3" = 1'-0"
140
3.0
141
12.0
290
     0
  0
SCALE
  5
52
102
{ACAD_REACTORS
330
42
102
}
330
42
100
AcDbScale
 70
     0
300
6" = 1'-0"
140
6.0
141
12.0
290
     0
  0
SCALE
  5
53
102
{ACAD_REACTORS
330
42
102
}
330
42
100
AcDbScale
 70
     0
300
1'-0" = 1'-0"
140
12.0
141
12.0
290
     0
  0
ACDBSECTIONVIEWSTYLE
  5
68
102
{ACAD_XDICTIONARY
360
35A
102
}
102
{ACAD_REACTORS
330
67
102
}
330
67
100
AcDbModelDocViewStyle
 70
     0
  3
Imperial24
290
     0
100
AcDbSectionViewStyle
 70
     0
 71
     0
 90
       78
 71
     1
340
55
 62
   256
 40
0.24
340
0
340
0
 62
   256
 40
0.24
300
I, O, Q, S, X, Z
 40
0.48
 90
        3
 40
0.18
 90
        1
 71
     2
340
5C
 90
       25
 62
   256
340
5C
 90
       50
 62
   256
 40
0.24
 40
0.0
 40
0.24
 71
     3
340
55
 62
   256
 40
0.24
 90
        1
 40
0.75
 90
        1
300
%<\AcVar ViewType \f "%tc1">% %<\AcVar ViewSectionStartId>%-%<\AcVar ViewSectionEndId>%\PVARIA %<\AcVar ViewScale \f "%sn">%
 71
     4
 62
   256
 62
   257
300
ANSI31
 40
1.0
 90
        0
290
     0
290
     0
 90
        6
 40
0.0
 40
1.570796326794896
 40
0.2617993877991494
 40
1.308996938995747
 40
-0.2617993877991494
 40
1.832595714594046
  0
TABLESTYLE
  5
64
102
{ACAD_XDICTIONARY
360
358
102
}
102
{ACAD_REACTORS
330
63
102
}
330
63
100
AcDbTableStyle
280
     0
  3
Standard
 70
     0
 71
     0
 40
0.06
 41
0.06
280
     0
281
     0
  7
STANDARD
140
0.18
170
     2
 62
     0
 63
     7
283
     0
 90
      512
 91
        0
  1

274
    -2
284
     1
 64
     0
275
    -2
285
     1
 65
     0
276
    -2
286
     1
 66
     0
277
    -2
287
     1
 67
     0
278
    -2
288
     1
 68
     0
279
    -2
289
     1
 69
     0
  7
STANDARD
140
0.25
170
     5
 62
     0
 63
     7
283
     0
 90
      512
 91
        0
  1

274
    -2
284
     1
 64
     0
275
    -2
285
     1
 65
     0
276
    -2
286
     1
 66
     0
277
    -2
287
     1
 67
     0
278
    -2
288
     1
 68
     0
279
    -2
289
     1
 69
     0
  7
STANDARD
140
0.18
170
     5
 62
     0
 63
     7
283
     0
 90
      512
 91
        0
  1

274
    -2
284
     1
 64
     0
275
    -2
285
     1
 65
     0
276
    -2
286
     1
 66
     0
277
    -2
287
     1
 67
     0
278
    -2
288
     1
 68
     0
279
    -2
289
     1
 69
     0
  0
VISUALSTYLE
  5
2F
102
{ACAD_REACTORS
330
29
102
}
330
29
100
AcDbVisualStyle
  2
2dWireframe
 70
     4
177
     3
291
     0
 70
    58
 90
        0
176
     1
 90
        2
176
     1
 90
        0
176
     1
 90
        0
176
     1
 40
0.6
176
     1
 40
30.0
176
     1
 62
     7
420
 16777215
176
     1
 90
        1
176
     1
 90
        4
176
     1
 62
     7
176
     1
 62
   257
176
     1
 90
        1
176
     1
 90
        1
176
     1
 40
1.0
176
     1
 90
        0
176
     1
 62
   257
176
     1
 40
1.0
176
     1
 90
        1
176
     1
 90
        6
176
     1
 90
        2
176
     1
 62
     7
176
     1
 90
        5
176
     1
 90
        0
176
     1
 90
        0
176
     1
290
     0
176
     1
 90
        1
176
     1
 40
0.0
176
     1
 90
        0
176
     1
290
     1
176
     1
290
     1
176
     1
290
     0
176
     1
290
     0
176
     1
290
     0
176
     1
290
     0
176
     1
290
     0
176
     1
290
     0
176
     1
290
     0
176
     1
 90
       50
176
     1
 40
0.0
176
     1
 40
1.0
176
     1
 90
        0
176
     1
 62
    18
420
        0
176
     1
 90
       50
176
     1
 90
        3
176
     1
 62
     5
420
      255
176
     1
290
     0
176
     1
 90
       50
176
     1
 90
       50
176
     1
 90
       50
176
     1
290
     0
176
     1
 90
       50
176
     1
 62
   256
176
     0
 40
1.0
176
     0
 90
        2
176
     1
  1
strokes_ogs.tif
176
     1
290
     0
176
     1
 40
1.0
176
     1
 40
1.0
176
     1
  0
VISUALSTYLE
  5
2E
102
{ACAD_REACTORS
330
29
102
}
330
29
100
AcDbVisualStyle
  2
Basic
 70
     7
177
     3
291
     1
 70
    58
 90
        1
176
     1
 90
        0
176
     1
 90
        1
176
     1
 90
        0
176
     1
 40
0.6
176
     1
 40
30.0
176
     1
 62
     7
420
 16777215
176
     1
 90
        0
176
     1
 90
        4
176
     1
 62
     7
176
     1
 62
   257
176
     1
 90
        1
176
     1
 90
        1
176
     1
 40
1.0
176
     1
 90
        8
176
     1
 62
     7
176
     1
 40
1.0
176
     1
 90
        1
176
     1
 90
        6
176
     1
 90
        2
176
     1
 62
     7
176
     1
 90
        5
176
     1
 90
        0
176
     1
 90
        0
176
     1
290
     0
176
     1
 90
        1
176
     1
 40
0.0
176
     1
 90
        0
176
     1
290
     0
176
     1
290
     1
176
     1
290
     1
176
     1
290
     0
176
     1
290
     0
176
     1
290
     0
176
     1
290
     0
176
     1
290
     0
176
     1
290
     0
176
     1
 90
       50
176
     1
 40
0.0
176
     1
 40
1.0
176
     1
 90
        0
176
     1
 62
    18
420
        0
176
     1
 90
       50
176
     1
 90
        3
176
     1
 62
     5
420
      255
176
     1
290
     0
176
     1
 90
       50
176
     1
 90
       50
176
     1
 90
       50
176
     1
290
     0
176
     1
 90
       50
176
     1
 62
   256
176
     0
 40
1.0
176
     0
 90
        2
176
     1
  1
strokes_ogs.tif
176
     1
290
     0
176
     1
 40
1.0
176
     1
 40
1.0
176
     1
  0
VISUALSTYLE
  5
35
102
{ACAD_REACTORS
330
29
102
}
330
29
100
AcDbVisualStyle
  2
Brighten
 70
    12
177
     3
291
     1
 70
    58
 90
        2
176
     1
 90
        2
176
     1
 90
        0
176
     1
 90
        0
176
     1
 40
0.6
176
     1
 40
30.0
176
     1
 62
     7
420
 16777215
176
     1
 90
        1
176
     1
 90
        4
176
     1
 62
     7
176
     1
 62
   257
176
     1
 90
        1
176
     1
 90
        1
176
     1
 40
1.0
176
     1
 90
        8
176
     1
 62
     7
176
     1
 40
1.0
176
     1
 90
        1
176
     1
 90
        6
176
     1
 90
        2
176
     1
 62
     7
176
     1
 90
        5
176
     1
 90
        0
176
     1
 90
        0
176
     1
290
     0
176
     1
 90
        1
176
     1
 40
50.0
176
     1
 90
        0
176
     1
290
     0
176
     1
290
     1
176
     1
290
     1
176
     1
290
     0
176
     1
290
     0
176
     1
290
     0
176
     1
290
     0
176
     1
290
     0
176
     1
290
     0
176
     1
 90
       50
176
     1
 40
0.0
176
     1
 40
1.0
176
     1
 90
        0
176
     1
 62
    18
420
        0
176
     1
 90
       50
176
     1
 90
        3
176
     1
 62
     5
420
      255
176
     1
290
     0
176
     1
 90
       50
176
     1
 90
       50
176
     1
 90
       50
176
     1
290
     0
176
     1
 90
       50
176
     1
 62
   256
176
     0
 40
1.0
176
     0
 90
        2
176
     1
  1
strokes_ogs.tif
176
     1
290
     0
176
     1
 40
1.0
176
     1
 40
1.0
176
     1
  0
VISUALSTYLE
  5
39
102
{ACAD_REACTORS
330
29
102
}
330
29
100
AcDbVisualStyle
  2
ColorChange
 70
    16
177
     3
291
     1
 70
    58
 90
        2
176
     1
 90
        2
176
     1
 90
        3
176
     1
 90
        0
176
     1
 40
0.6
176
     1
 40
30.0
176
     1
 62
     8
420
  8421504
176
     1
 90
        1
176
     1
 90
        4
176
     1
 62
     7
176
     1
 62
   257
176
     1
 90
        1
176
     1
 90
        1
176
     1
 40
1.0
176
     1
 90
        8
176
     1
 62
     8
420
  8421504
176
     1
 40
1.0
176
     1
 90
        1
176
     1
 90
        6
176
     1
 90
        2
176
     1
 62
     7
176
     1
 90
        5
176
     1
 90
        0
176
     1
 90
        0
176
     1
290
     0
176
     1
 90
        1
176
     1
 40
0.0
176
     1
 90
        0
176
     1
290
     0
176
     1
290
     1
176
     1
290
     1
176
     1
290
     0
176
     1
290
     0
176
     1
290
     0
176
     1
290
     0
176
     1
290
     0
176
     1
290
     0
176
     1
 90
       50
176
     1
 40
0.0
176
     1
 40
1.0
176
     1
 90
        0
176
     1
 62
    18
420
        0
176
     1
 90
       50
176
     1
 90
        3
176
     1
 62
     5
420
      255
176
     1
290
     0
176
     1
 90
       50
176
     1
 90
       50
176
     1
 90
       50
176
     1
290
     0
176
     1
 90
       50
176
     1
 62
   256
176
     0
 40
1.0
176
     0
 90
        2
176
     1
  1
strokes_ogs.tif
176
     1
290
     0
176
     1
 40
1.0
176
     1
 40
1.0
176
     1
  0
VISUALSTYLE
  5
32
102
{ACAD_REACTORS
330
29
102
}
330
29
100
AcDbVisualStyle
  2
Conceptual
 70
     9
177
     3
291
     0
 70
    58
 90
        3
176
     1
 90
        2
176
     1
 90
        0
176
     1
 90
        0
176
     1
 40
0.6
176
     1
 40
30.0
176
     1
 62
     7
420
 16777215
176
     1
 90
        2
176
     1
 90
        2
176
     1
 62
     7
176
     1
 62
   257
176
     1
 90
        1
176
     1
 90
        1
176
     1
 40
179.0
176
     1
 90
        8
176
     1
 62
     7
176
     1
 40
1.0
176
     1
 90
        1
176
     1
 90
        6
176
     1
 90
        2
176
     1
 62
     7
176
     1
 90
        3
176
     1
 90
        0
176
     1
 90
        0
176
     1
290
     0
176
     1
 90
        1
176
     1
 40
0.0
176
     1
 90
        0
176
     1
290
     0
176
     1
290
     1
176
     1
290
     1
176
     1
290
     0
176
     1
290
     0
176
     1
290
     0
176
     1
290
     0
176
     1
290
     0
176
     1
290
     0
176
     1
 90
       50
176
     1
 40
0.0
176
     1
 40
1.0
176
     1
 90
        0
176
     1
 62
    18
420
        0
176
     1
 90
       50
176
     1
 90
        3
176
     1
 62
     5
420
      255
176
     1
290
     0
176
     1
 90
       50
176
     1
 90
       50
176
     1
 90
       50
176
     1
290
     0
176
     1
 90
       50
176
     1
 62
   256
176
     0
 40
1.0
176
     0
 90
        2
176
     1
  1
strokes_ogs.tif
176
     1
290
     0
176
     1
 40
1.0
176
     1
 40
1.0
176
     1
  0
VISUALSTYLE
  5
34
102
{ACAD_REACTORS
330
29
102
}
330
29
100
AcDbVisualStyle
  2
Dim
 70
    11
177
     3
291
     1
 70
    58
 90
        2
176
     1
 90
        2
176
     1
 90
        0
176
     1
 90
        0
176
     1
 40
0.6
176
     1
 40
30.0
176
     1
 62
     7
420
 16777215
176
     1
 90
        1
176
     1
 90
        4
176
     1
 62
     7
176
     1
 62
   257
176
     1
 90
        1
176
     1
 90
        1
176
     1
 40
1.0
176
     1
 90
        8
176
     1
 62
     7
176
     1
 40
1.0
176
     1
 90
        1
176
     1
 90
        6
176
     1
 90
        2
176
     1
 62
     7
176
     1
 90
        5
176
     1
 90
        0
176
     1
 90
        0
176
     1
290
     0
176
     1
 90
        1
176
     1
 40
-50.0
176
     1
 90
        0
176
     1
290
     0
176
     1
290
     1
176
     1
290
     1
176
     1
290
     0
176
     1
290
     0
176
     1
290
     0
176
     1
290
     0
176
     1
290
     0
176
     1
290
     0
176
     1
 90
       50
176
     1
 40
0.0
176
     1
 40
1.0
176
     1
 90
        0
176
     1
 62
    18
420
        0
176
     1
 90
       50
176
     1
 90
        3
176
     1
 62
     5
420
      255
176
     1
290
     0
176
     1
 90
       50
176
     1
 90
       50
176
     1
 90
       50
176
     1
290
     0
176
     1
 90
       50
176
     1
 62
   256
176
     0
 40
1.0
176
     0
 90
        2
176
     1
  1
strokes_ogs.tif
176
     1
290
     0
176
     1
 40
1.0
176
     1
 40
1.0
176
     1
  0
VISUALSTYLE
  5
41
102
{ACAD_REACTORS
330
29
102
}
330
29
100
AcDbVisualStyle
  2
EdgeColorOff
 70
    22
177
     3
291
     1
 70
    58
 90
        2
176
     0
 90
        2
176
     0
 90
        0
176
     0
 90
        0
176
     0
 40
0.6
176
     0
 40
30.0
176
     0
 62
     7
420
 16777215
176
     0
 90
        1
176
     0
 90
        4
176
     0
 62
     7
176
     0
 62
   257
176
     0
 90
        1
176
     0
 90
        1
176
     0
 40
1.0
176
     0
 90
        8
176
     2
 62
     7
176
     0
 40
1.0
176
     0
 90
        1
176
     0
 90
        6
176
     0
 90
        2
176
     0
 62
     7
176
     0
 90
        5
176
     0
 90
        0
176
     0
 90
        0
176
     0
290
     0
176
     0
 90
        1
176
     0
 40
0.0
176
     0
 90
        0
176
     0
290
     0
176
     0
290
     1
176
     0
290
     1
176
     0
290
     0
176
     0
290
     0
176
     0
290
     0
176
     0
290
     0
176
     0
290
     0
176
     0
290
     0
176
     0
 90
       50
176
     0
 40
0.0
176
     0
 40
1.0
176
     0
 90
        0
176
     0
 62
    18
420
        0
176
     0
 90
       50
176
     0
 90
        3
176
     0
 62
     5
420
      255
176
     0
290
     0
176
     0
 90
       50
176
     0
 90
       50
176
     0
 90
       50
176
     0
290
     0
176
     0
 90
       50
176
     0
 62
   256
176
     0
 40
1.0
176
     0
 90
        2
176
     0
  1
strokes_ogs.tif
176
     0
290
     0
176
     0
 40
1.0
176
     0
 40
1.0
176
     0
  0
VISUALSTYLE
  5
38
102
{ACAD_REACTORS
330
29
102
}
330
29
100
AcDbVisualStyle
  2
Facepattern
 70
    15
177
     3
291
     1
 70
    58
 90
        2
176
     1
 90
        2
176
     1
 90
        0
176
     1
 90
        0
176
     1
 40
0.6
176
     1
 40
30.0
176
     1
 62
     7
420
 16777215
176
     1
 90
        1
176
     1
 90
        4
176
     1
 62
     7
176
     1
 62
   257
176
     1
 90
        1
176
     1
 90
        1
176
     1
 40
1.0
176
     1
 90
        8
176
     1
 62
     7
176
     1
 40
1.0
176
     1
 90
        1
176
     1
 90
        6
176
     1
 90
        2
176
     1
 62
     7
176
     1
 90
        5
176
     1
 90
        0
176
     1
 90
        0
176
     1
290
     0
176
     1
 90
        1
176
     1
 40
0.0
176
     1
 90
        0
176
     1
290
     0
176
     1
290
     1
176
     1
290
     1
176
     1
290
     0
176
     1
290
     0
176
     1
290
     0
176
     1
290
     0
176
     1
290
     0
176
     1
290
     0
176
     1
 90
       50
176
     1
 40
0.0
176
     1
 40
1.0
176
     1
 90
        0
176
     1
 62
    18
420
        0
176
     1
 90
       50
176
     1
 90
        3
176
     1
 62
     5
420
      255
176
     1
290
     0
176
     1
 90
       50
176
     1
 90
       50
176
     1
 90
       50
176
     1
290
     0
176
     1
 90
       50
176
     1
 62
   256
176
     0
 40
1.0
176
     0
 90
        2
176
     1
  1
strokes_ogs.tif
176
     1
290
     0
176
     1
 40
1.0
176
     1
 40
1.0
176
     1
  0
VISUALSTYLE
  5
2A
102
{ACAD_REACTORS
330
29
102
}
330
29
100
AcDbVisualStyle
  2
Flat
 70
     0
177
     3
291
     1
 70
    58
 90
        2
176
     1
 90
        1
176
     1
 90
        1
176
     1
 90
        2
176
     1
 40
0.6
176
     1
 40
30.0
176
     1
 62
     7
420
 16777215
176
     1
 90
        0
176
     1
 90
        0
176
     1
 62
     7
176
     1
 62
   257
176
     1
 90
        1
176
     1
 90
        1
176
     1
 40
1.0
176
     1
 90
        8
176
     1
 62
     7
176
     1
 40
1.0
176
     1
 90
        1
176
     1
 90
        6
176
     1
 90
        2
176
     1
 62
     7
176
     1
 90
        5
176
     1
 90
        0
176
     1
 90
        0
176
     1
290
     0
176
     1
 90
       13
176
     1
 40
0.0
176
     1
 90
        0
176
     1
290
     0
176
     1
290
     1
176
     1
290
     1
176
     1
290
     0
176
     1
290
     0
176
     1
290
     0
176
     1
290
     0
176
     1
290
     0
176
     1
290
     0
176
     1
 90
       50
176
     1
 40
0.0
176
     1
 40
1.0
176
     1
 90
        0
176
     1
 62
    18
420
        0
176
     1
 90
       50
176
     1
 90
        3
176
     1
 62
     5
420
      255
176
     1
290
     0
176
     1
 90
       50
176
     1
 90
       50
176
     1
 90
       50
176
     1
290
     0
176
     1
 90
       50
176
     1
 62
   256
176
     0
 40
1.0
176
     0
 90
        2
176
     1
  1
strokes_ogs.tif
176
     1
290
     0
176
     1
 40
1.0
176
     1
 40
1.0
176
     1
  0
VISUALSTYLE
  5
2B
102
{ACAD_REACTORS
330
29
102
}
330
29
100
AcDbVisualStyle
  2
FlatWithEdges
 70
     1
177
     3
291
     1
 70
    58
 90
        2
176
     1
 90
        1
176
     1
 90
        1
176
     1
 90
        2
176
     1
 40
0.6
176
     1
 40
30.0
176
     1
 62
     7
420
 16777215
176
     1
 90
        1
176
     1
 90
        0
176
     1
 62
     7
176
     1
 62
   257
176
     1
 90
        1
176
     1
 90
        1
176
     1
 40
1.0
176
     1
 90
        0
176
     1
 62
   257
176
     1
 40
1.0
176
     1
 90
        1
176
     1
 90
        6
176
     1
 90
        2
176
     1
 62
     7
176
     1
 90
        5
176
     1
 90
        0
176
     1
 90
        0
176
     1
290
     0
176
     1
 90
       13
176
     1
 40
0.0
176
     1
 90
        0
176
     1
290
     0
176
     1
290
     1
176
     1
290
     1
176
     1
290
     0
176
     1
290
     0
176
     1
290
     0
176
     1
290
     0
176
     1
290
     0
176
     1
290
     0
176
     1
 90
       50
176
     1
 40
0.0
176
     1
 40
1.0
176
     1
 90
        0
176
     1
 62
    18
420
        0
176
     1
 90
       50
176
     1
 90
        3
176
     1
 62
     5
420
      255
176
     1
290
     0
176
     1
 90
       50
176
     1
 90
       50
176
     1
 90
       50
176
     1
290
     0
176
     1
 90
       50
176
     1
 62
   256
176
     0
 40
1.0
176
     0
 90
        2
176
     1
  1
strokes_ogs.tif
176
     1
290
     0
176
     1
 40
1.0
176
     1
 40
1.0
176
     1
  0
VISUALSTYLE
  5
2C
102
{ACAD_REACTORS
330
29
102
}
330
29
100
AcDbVisualStyle
  2
Gouraud
 70
     2
177
     3
291
     1
 70
    58
 90
        2
176
     1
 90
        2
176
     1
 90
        1
176
     1
 90
        2
176
     1
 40
0.6
176
     1
 40
30.0
176
     1
 62
     7
420
 16777215
176
     1
 90
        0
176
     1
 90
        0
176
     1
 62
     7
176
     1
 62
   257
176
     1
 90
        1
176
     1
 90
        1
176
     1
 40
1.0
176
     1
 90
        0
176
     1
 62
     7
176
     1
 40
1.0
176
     1
 90
        1
176
     1
 90
        6
176
     1
 90
        2
176
     1
 62
     7
176
     1
 90
        5
176
     1
 90
        0
176
     1
 90
        0
176
     1
290
     0
176
     1
 90
       13
176
     1
 40
0.0
176
     1
 90
        0
176
     1
290
     0
176
     1
290
     1
176
     1
290
     1
176
     1
290
     0
176
     1
290
     0
176
     1
290
     0
176
     1
290
     0
176
     1
290
     0
176
     1
290
     0
176
     1
 90
       50
176
     1
 40
0.0
176
     1
 40
1.0
176
     1
 90
        0
176
     1
 62
    18
420
        0
176
     1
 90
       50
176
     1
 90
        3
176
     1
 62
     5
420
      255
176
     1
290
     0
176
     1
 90
       50
176
     1
 90
       50
176
     1
 90
       50
176
     1
290
     0
176
     1
 90
       50
176
     1
 62
   256
176
     0
 40
1.0
176
     0
 90
        2
176
     1
  1
strokes_ogs.tif
176
     1
290
     0
176
     1
 40
1.0
176
     1
 40
1.0
176
     1
  0
VISUALSTYLE
  5
2D
102
{ACAD_REACTORS
330
29
102
}
330
29
100
AcDbVisualStyle
  2
GouraudWithEdges
 70
     3
177
     3
291
     1
 70
    58
 90
        2
176
     1
 90
        2
176
     1
 90
        1
176
     1
 90
        2
176
     1
 40
0.6
176
     1
 40
30.0
176
     1
 62
     7
420
 16777215
176
     1
 90
        1
176
     1
 90
        0
176
     1
 62
     7
176
     1
 62
   257
176
     1
 90
        1
176
     1
 90
        1
176
     1
 40
1.0
176
     1
 90
        0
176
     1
 62
   257
176
     1
 40
1.0
176
     1
 90
        1
176
     1
 90
        6
176
     1
 90
        2
176
     1
 62
     7
176
     1
 90
        5
176
     1
 90
        0
176
     1
 90
        0
176
     1
290
     0
176
     1
 90
       13
176
     1
 40
0.0
176
     1
 90
        0
176
     1
290
     0
176
     1
290
     1
176
     1
290
     1
176
     1
290
     0
176
     1
290
     0
176
     1
290
     0
176
     1
290
     0
176
     1
290
     0
176
     1
290
     0
176
     1
 90
       50
176
     1
 40
0.0
176
     1
 40
1.0
176
     1
 90
        0
176
     1
 62
    18
420
        0
176
     1
 90
       50
176
     1
 90
        3
176
     1
 62
     5
420
      255
176
     1
290
     0
176
     1
 90
       50
176
     1
 90
       50
176
     1
 90
       50
176
     1
290
     0
176
     1
 90
       50
176
     1
 62
   256
176
     0
 40
1.0
176
     0
 90
        2
176
     1
  1
strokes_ogs.tif
176
     1
290
     0
176
     1
 40
1.0
176
     1
 40
1.0
176
     1
  0
VISUALSTYLE
  5
31
102
{ACAD_REACTORS
330
29
102
}
330
29
100
AcDbVisualStyle
  2
Hidden
 70
     6
177
     3
291
     0
 70
    58
 90
        1
176
     1
 90
        2
176
     1
 90
        2
176
     1
 90
        0
176
     1
 40
0.6
176
     1
 40
30.0
176
     1
 62
     7
420
 16777215
176
     1
 90
        2
176
     1
 90
        2
176
     1
 62
     7
176
     1
 62
   257
176
     1
 90
        2
176
     1
 90
        1
176
     1
 40
40.0
176
     1
 90
        0
176
     1
 62
   257
176
     1
 40
1.0
176
     1
 90
        1
176
     1
 90
        6
176
     1
 90
        2
176
     1
 62
     7
176
     1
 90
        3
176
     1
 90
        0
176
     1
 90
        0
176
     1
290
     0
176
     1
 90
        1
176
     1
 40
0.0
176
     1
 90
        0
176
     1
290
     0
176
     1
290
     1
176
     1
290
     1
176
     1
290
     0
176
     1
290
     0
176
     1
290
     0
176
     1
290
     0
176
     1
290
     0
176
     1
290
     0
176
     1
 90
       50
176
     1
 40
0.0
176
     1
 40
1.0
176
     1
 90
        0
176
     1
 62
    18
420
        0
176
     1
 90
       50
176
     1
 90
        3
176
     1
 62
     5
420
      255
176
     1
290
     0
176
     1
 90
       50
176
     1
 90
       50
176
     1
 90
       50
176
     1
290
     0
176
     1
 90
       50
176
     1
 62
   256
176
     0
 40
1.0
176
     0
 90
        2
176
     1
  1
strokes_ogs.tif
176
     1
290
     0
176
     1
 40
1.0
176
     1
 40
1.0
176
     1
  0
VISUALSTYLE
  5
3F
102
{ACAD_REACTORS
330
29
102
}
330
29
100
AcDbVisualStyle
  2
JitterOff
 70
    20
177
     3
291
     1
 70
    58
 90
        2
176
     0
 90
        2
176
     0
 90
        0
176
     0
 90
        0
176
     0
 40
0.6
176
     0
 40
30.0
176
     0
 62
     7
420
 16777215
176
     0
 90
        1
176
     0
 90
        4
176
     0
 62
     7
176
     0
 62
   257
176
     0
 90
        1
176
     0
 90
        1
176
     0
 40
1.0
176
     0
 90
       10
176
     2
 62
     7
176
     0
 40
1.0
176
     0
 90
        1
176
     0
 90
        6
176
     0
 90
        2
176
     0
 62
     7
176
     0
 90
        5
176
     0
 90
        0
176
     0
 90
        0
176
     0
290
     0
176
     0
 90
        1
176
     0
 40
0.0
176
     0
 90
        0
176
     0
290
     0
176
     0
290
     1
176
     0
290
     1
176
     0
290
     0
176
     0
290
     0
176
     0
290
     0
176
     0
290
     0
176
     0
290
     0
176
     0
290
     0
176
     0
 90
       50
176
     0
 40
0.0
176
     0
 40
1.0
176
     0
 90
        0
176
     0
 62
    18
420
        0
176
     0
 90
       50
176
     0
 90
        3
176
     0
 62
     5
420
      255
176
     0
290
     0
176
     0
 90
       50
176
     0
 90
       50
176
     0
 90
       50
176
     0
290
     0
176
     0
 90
       50
176
     0
 62
   256
176
     0
 40
1.0
176
     0
 90
        2
176
     0
  1
strokes_ogs.tif
176
     0
290
     0
176
     0
 40
1.0
176
     0
 40
1.0
176
     0
  0
VISUALSTYLE
  5
37
102
{ACAD_REACTORS
330
29
102
}
330
29
100
AcDbVisualStyle
  2
Linepattern
 70
    14
177
     3
291
     1
 70
    58
 90
        2
176
     1
 90
        2
176
     1
 90
        0
176
     1
 90
        0
176
     1
 40
0.6
176
     1
 40
30.0
176
     1
 62
     7
420
 16777215
176
     1
 90
        1
176
     1
 90
        4
176
     1
 62
     7
176
     1
 62
   257
176
     1
 90
        7
176
     1
 90
        7
176
     1
 40
1.0
176
     1
 90
        8
176
     1
 62
     7
176
     1
 40
1.0
176
     1
 90
        1
176
     1
 90
        6
176
     1
 90
        2
176
     1
 62
     7
176
     1
 90
        5
176
     1
 90
        0
176
     1
 90
        0
176
     1
290
     0
176
     1
 90
        1
176
     1
 40
0.0
176
     1
 90
        0
176
     1
290
     0
176
     1
290
     1
176
     1
290
     1
176
     1
290
     0
176
     1
290
     0
176
     1
290
     0
176
     1
290
     0
176
     1
290
     0
176
     1
290
     0
176
     1
 90
       50
176
     1
 40
0.0
176
     1
 40
1.0
176
     1
 90
        0
176
     1
 62
    18
420
        0
176
     1
 90
       50
176
     1
 90
        3
176
     1
 62
     5
420
      255
176
     1
290
     0
176
     1
 90
       50
176
     1
 90
       50
176
     1
 90
       50
176
     1
290
     0
176
     1
 90
       50
176
     1
 62
   256
176
     0
 40
1.0
176
     0
 90
        2
176
     1
  1
strokes_ogs.tif
176
     1
290
     0
176
     1
 40
1.0
176
     1
 40
1.0
176
     1
  0
VISUALSTYLE
  5
40
102
{ACAD_REACTORS
330
29
102
}
330
29
100
AcDbVisualStyle
  2
OverhangOff
 70
    21
177
     3
291
     1
 70
    58
 90
        2
176
     0
 90
        2
176
     0
 90
        0
176
     0
 90
        0
176
     0
 40
0.6
176
     0
 40
30.0
176
     0
 62
     7
420
 16777215
176
     0
 90
        1
176
     0
 90
        4
176
     0
 62
     7
176
     0
 62
   257
176
     0
 90
        1
176
     0
 90
        1
176
     0
 40
1.0
176
     0
 90
        9
176
     2
 62
     7
176
     0
 40
1.0
176
     0
 90
        1
176
     0
 90
        6
176
     0
 90
        2
176
     0
 62
     7
176
     0
 90
        5
176
     0
 90
        0
176
     0
 90
        0
176
     0
290
     0
176
     0
 90
        1
176
     0
 40
0.0
176
     0
 90
        0
176
     0
290
     0
176
     0
290
     1
176
     0
290
     1
176
     0
290
     0
176
     0
290
     0
176
     0
290
     0
176
     0
290
     0
176
     0
290
     0
176
     0
290
     0
176
     0
 90
       50
176
     0
 40
0.0
176
     0
 40
1.0
176
     0
 90
        0
176
     0
 62
    18
420
        0
176
     0
 90
       50
176
     0
 90
        3
176
     0
 62
     5
420
      255
176
     0
290
     0
176
     0
 90
       50
176
     0
 90
       50
176
     0
 90
       50
176
     0
290
     0
176
     0
 90
       50
176
     0
 62
   256
176
     0
 40
1.0
176
     0
 90
        2
176
     0
  1
strokes_ogs.tif
176
     0
290
     0
176
     0
 40
1.0
176
     0
 40
1.0
176
     0
  0
VISUALSTYLE
  5
33
102
{ACAD_REACTORS
330
29
102
}
330
29
100
AcDbVisualStyle
  2
Realistic
 70
     8
177
     3
291
     0
 70
    58
 90
        2
176
     1
 90
        3
176
     1
 90
        0
176
     1
 90
        2
176
     1
 40
0.6
176
     1
 40
30.0
176
     1
 62
     7
420
 16777215
176
     1
 90
        0
176
     1
 90
        0
176
     1
 62
     7
176
     1
 62
   257
176
     1
 90
        1
176
     1
 90
        1
176
     1
 40
1.0
176
     1
 90
        8
176
     1
 62
   257
176
     1
 40
1.0
176
     1
 90
        1
176
     1
 90
        6
176
     1
 90
        2
176
     1
 62
     7
176
     1
 90
        3
176
     1
 90
        0
176
     1
 90
        0
176
     1
290
     0
176
     1
 90
       13
176
     1
 40
0.0
176
     1
 90
        0
176
     1
290
     0
176
     1
290
     1
176
     1
290
     1
176
     1
290
     0
176
     1
290
     0
176
     1
290
     0
176
     1
290
     0
176
     1
290
     0
176
     1
290
     0
176
     1
 90
       50
176
     1
 40
0.0
176
     1
 40
1.0
176
     1
 90
        0
176
     1
 62
    18
420
        0
176
     1
 90
       50
176
     1
 90
        3
176
     1
 62
     5
420
      255
176
     1
290
     0
176
     1
 90
       50
176
     1
 90
       50
176
     1
 90
       50
176
     1
290
     0
176
     1
 90
       50
176
     1
 62
   256
176
     0
 40
1.0
176
     0
 90
        2
176
     1
  1
strokes_ogs.tif
176
     1
290
     0
176
     1
 40
1.0
176
     1
 40
1.0
176
     1
  0
VISUALSTYLE
  5
3E
102
{ACAD_REACTORS
330
29
102
}
330
29
100
AcDbVisualStyle
  2
Shaded
 70
    27
177
     3
291
     0
 70
    58
 90
        2
176
     1
 90
        2
176
     1
 90
        1
176
     1
 90
        2
176
     1
 40
0.6
176
     1
 40
30.0
176
     1
 62
     7
420
 16777215
176
     1
 90
        0
176
     1
 90
        4
176
     1
 62
     7
176
     1
 62
   257
176
     1
 90
        1
176
     1
 90
        1
176
     1
 40
1.0
176
     1
 90
        8
176
     1
 62
   257
176
     1
 40
1.0
176
     1
 90
        1
176
     1
 90
        6
176
     1
 90
        2
176
     1
 62
     8
420
  7895160
176
     1
 90
        3
176
     1
 90
        0
176
     1
 90
        0
176
     1
290
     0
176
     1
 90
        5
176
     1
 40
0.0
176
     1
 90
        0
176
     1
290
     0
176
     1
290
     1
176
     1
290
     1
176
     1
290
     0
176
     1
290
     0
176
     1
290
     0
176
     1
290
     0
176
     1
290
     0
176
     1
290
     0
176
     1
 90
       50
176
     1
 40
0.0
176
     1
 40
1.0
176
     1
 90
        0
176
     1
 62
    18
420
        0
176
     1
 90
       50
176
     1
 90
        3
176
     1
 62
     5
420
      255
176
     1
290
     0
176
     1
 90
       50
176
     1
 90
       50
176
     1
 90
       50
176
     1
290
     0
176
     1
 90
       50
176
     1
 62
   256
176
     0
 40
1.0
176
     0
 90
        2
176
     1
  1
strokes_ogs.tif
176
     1
290
     0
176
     1
 40
1.0
176
     1
 40
1.0
176
     1
  0
VISUALSTYLE
  5
3D
102
{ACAD_REACTORS
330
29
102
}
330
29
100
AcDbVisualStyle
  2
Shaded with edges
 70
    26
177
     3
291
     0
 70
    58
 90
        2
176
     1
 90
        2
176
     1
 90
        1
176
     1
 90
        2
176
     1
 40
0.6
176
     1
 40
30.0
176
     1
 62
     7
420
 16777215
176
     1
 90
        1
176
     1
 90
       10
176
     1
 62
     7
176
     1
 62
   257
176
     1
 90
        2
176
     1
 90
        1
176
     1
 40
1.0
176
     1
 90
        8
176
     1
 62
   257
176
     1
 40
1.0
176
     1
 90
        1
176
     1
 90
        6
176
     1
 90
        2
176
     1
 62
     7
176
     1
 90
        3
176
     1
 90
        0
176
     1
 90
        0
176
     1
290
     0
176
     1
 90
        5
176
     1
 40
0.0
176
     1
 90
        0
176
     1
290
     0
176
     1
290
     1
176
     1
290
     1
176
     1
290
     0
176
     1
290
     0
176
     1
290
     0
176
     1
290
     0
176
     1
290
     0
176
     1
290
     0
176
     1
 90
       50
176
     1
 40
0.0
176
     1
 40
1.0
176
     1
 90
        0
176
     1
 62
    18
420
        0
176
     1
 90
       50
176
     1
 90
        3
176
     1
 62
     5
420
      255
176
     1
290
     0
176
     1
 90
       50
176
     1
 90
       50
176
     1
 90
       50
176
     1
290
     0
176
     1
 90
       50
176
     1
 62
   256
176
     0
 40
1.0
176
     0
 90
        2
176
     1
  1
strokes_ogs.tif
176
     1
290
     0
176
     1
 40
1.0
176
     1
 40
1.0
176
     1
  0
VISUALSTYLE
  5
3A
102
{ACAD_REACTORS
330
29
102
}
330
29
100
AcDbVisualStyle
  2
Shades of Gray
 70
    23
177
     3
291
     0
 70
    58
 90
        2
176
     1
 90
        2
176
     1
 90
        3
176
     1
 90
        0
176
     1
 40
0.6
176
     1
 40
30.0
176
     1
 62
     7
420
 16777215
176
     1
 90
        2
176
     1
 90
        2
176
     1
 62
     7
176
     1
 62
     7
176
     1
 90
        1
176
     1
 90
        1
176
     1
 40
40.0
176
     1
 90
        8
176
     1
 62
     7
176
     1
 40
1.0
176
     1
 90
        1
176
     1
 90
        6
176
     1
 90
        2
176
     1
 62
     7
176
     1
 90
        3
176
     1
 90
        0
176
     1
 90
        0
176
     1
290
     0
176
     1
 90
        1
176
     1
 40
0.0
176
     1
 90
        0
176
     1
290
     0
176
     1
290
     1
176
     1
290
     1
176
     1
290
     0
176
     1
290
     0
176
     1
290
     0
176
     1
290
     0
176
     1
290
     0
176
     1
290
     0
176
     1
 90
       50
176
     1
 40
0.0
176
     1
 40
1.0
176
     1
 90
        0
176
     1
 62
    18
420
        0
176
     1
 90
       50
176
     1
 90
        3
176
     1
 62
     5
420
      255
176
     1
290
     0
176
     1
 90
       50
176
     1
 90
       50
176
     1
 90
       50
176
     1
290
     0
176
     1
 90
       50
176
     1
 62
   256
176
     0
 40
1.0
176
     0
 90
        2
176
     1
  1
strokes_ogs.tif
176
     1
290
     0
176
     1
 40
1.0
176
     1
 40
1.0
176
     1
  0
VISUALSTYLE
  5
3B
102
{ACAD_REACTORS
330
29
102
}
330
29
100
AcDbVisualStyle
  2
Sketchy
 70
    24
177
     3
291
     0
 70
    58
 90
        1
176
     1
 90
        2
176
     1
 90
        2
176
     1
 90
        0
176
     1
 40
0.6
176
     1
 40
30.0
176
     1
 62
     7
420
 16777215
176
     1
 90
        2
176
     1
 90
        2
176
     1
 62
     7
176
     1
 62
     7
176
     1
 90
        1
176
     1
 90
        1
176
     1
 40
40.0
176
     1
 90
       11
176
     1
 62
     7
176
     1
 40
1.0
176
     1
 90
        1
176
     1
 90
        6
176
     1
 90
        2
176
     1
 62
     7
176
     1
 90
        6
176
     1
 90
        0
176
     1
 90
        0
176
     1
290
     0
176
     1
 90
        1
176
     1
 40
0.0
176
     1
 90
        0
176
     1
290
     0
176
     1
290
     1
176
     1
290
     1
176
     1
290
     0
176
     1
290
     0
176
     1
290
     0
176
     1
290
     0
176
     1
290
     0
176
     1
290
     0
176
     1
 90
       50
176
     1
 40
0.0
176
     1
 40
1.0
176
     1
 90
        0
176
     1
 62
    18
420
        0
176
     1
 90
       50
176
     1
 90
        3
176
     1
 62
     5
420
      255
176
     1
290
     0
176
     1
 90
       50
176
     1
 90
       50
176
     1
 90
       50
176
     1
290
     0
176
     1
 90
       50
176
     1
 62
   256
176
     0
 40
1.0
176
     0
 90
        2
176
     1
  1
strokes_ogs.tif
176
     1
290
     0
176
     1
 40
1.0
176
     1
 40
1.0
176
     1
  0
VISUALSTYLE
  5
36
102
{ACAD_REACTORS
330
29
102
}
330
29
100
AcDbVisualStyle
  2
Thicken
 70
    13
177
     3
291
     1
 70
    58
 90
        2
176
     1
 90
        2
176
     1
 90
        0
176
     1
 90
        0
176
     1
 40
0.6
176
     1
 40
30.0
176
     1
 62
     7
420
 16777215
176
     1
 90
        1
176
     1
 90
        4
176
     1
 62
     7
176
     1
 62
   257
176
     1
 90
        1
176
     1
 90
        1
176
     1
 40
1.0
176
     1
 90
       12
176
     1
 62
     7
176
     1
 40
1.0
176
     1
 90
        1
176
     1
 90
        6
176
     1
 90
        2
176
     1
 62
     7
176
     1
 90
        5
176
     1
 90
        0
176
     1
 90
        0
176
     1
290
     0
176
     1
 90
        1
176
     1
 40
0.0
176
     1
 90
        0
176
     1
290
     0
176
     1
290
     1
176
     1
290
     1
176
     1
290
     0
176
     1
290
     0
176
     1
290
     0
176
     1
290
     0
176
     1
290
     0
176
     1
290
     0
176
     1
 90
       50
176
     1
 40
0.0
176
     1
 40
1.0
176
     1
 90
        0
176
     1
 62
    18
420
        0
176
     1
 90
       50
176
     1
 90
        3
176
     1
 62
     5
420
      255
176
     1
290
     0
176
     1
 90
       50
176
     1
 90
       50
176
     1
 90
       50
176
     1
290
     0
176
     1
 90
       50
176
     1
 62
   256
176
     0
 40
1.0
176
     0
 90
        2
176
     1
  1
strokes_ogs.tif
176
     1
290
     0
176
     1
 40
1.0
176
     1
 40
1.0
176
     1
  0
VISUALSTYLE
  5
30
102
{ACAD_REACTORS
330
29
102
}
330
29
100
AcDbVisualStyle
  2
Wireframe
 70
     5
177
     3
291
     0
 70
    58
 90
        0
176
     1
 90
        2
176
     1
 90
        0
176
     1
 90
        0
176
     1
 40
0.6
176
     1
 40
30.0
176
     1
 62
     7
420
 16777215
176
     1
 90
        1
176
     1
 90
        4
176
     1
 62
     7
176
     1
 62
   257
176
     1
 90
        1
176
     1
 90
        1
176
     1
 40
1.0
176
     1
 90
        0
176
     1
 62
   257
176
     1
 40
1.0
176
     1
 90
        1
176
     1
 90
        6
176
     1
 90
        2
176
     1
 62
     7
176
     1
 90
        3
176
     1
 90
        0
176
     1
 90
        0
176
     1
290
     0
176
     1
 90
        1
176
     1
 40
0.0
176
     1
 90
        0
176
     1
290
     0
176
     1
290
     1
176
     1
290
     1
176
     1
290
     0
176
     1
290
     0
176
     1
290
     0
176
     1
290
     0
176
     1
290
     0
176
     1
290
     0
176
     1
 90
       50
176
     1
 40
0.0
176
     1
 40
1.0
176
     1
 90
        0
176
     1
 62
    18
420
        0
176
     1
 90
       50
176
     1
 90
        3
176
     1
 62
     5
420
      255
176
     1
290
     0
176
     1
 90
       50
176
     1
 90
       50
176
     1
 90
       50
176
     1
290
     0
176
     1
 90
       50
176
     1
 62
   256
176
     0
 40
1.0
176
     0
 90
        2
176
     1
  1
strokes_ogs.tif
176
     1
290
     0
176
     1
 40
1.0
176
     1
 40
1.0
176
     1
  0
VISUALSTYLE
  5
3C
102
{ACAD_REACTORS
330
29
102
}
330
29
100
AcDbVisualStyle
  2
X-Ray
 70
    25
177
     3
291
     0
 70
    58
 90
        2
176
     1
 90
        2
176
     1
 90
        1
176
     1
 90
        1
176
     1
 40
0.5
176
     1
 40
30.0
176
     1
 62
     7
420
 16777215
176
     1
 90
        1
176
     1
 90
        0
176
     1
 62
     7
176
     1
 62
   257
176
     1
 90
        1
176
     1
 90
        1
176
     1
 40
1.0
176
     1
 90
        8
176
     1
 62
     7
176
     1
 40
1.0
176
     1
 90
        1
176
     1
 90
        6
176
     1
 90
        2
176
     1
 62
     7
176
     1
 90
        3
176
     1
 90
        0
176
     1
 90
        0
176
     1
290
     0
176
     1
 90
       13
176
     1
 40
0.0
176
     1
 90
        0
176
     1
290
     0
176
     1
290
     1
176
     1
290
     1
176
     1
290
     0
176
     1
290
     0
176
     1
290
     0
176
     1
290
     0
176
     1
290
     0
176
     1
290
     0
176
     1
 90
       50
176
     1
 40
0.0
176
     1
 40
1.0
176
     1
 90
        0
176
     1
 62
    18
420
        0
176
     1
 90
       50
176
     1
 90
        3
176
     1
 62
     5
420
      255
176
     1
290
     0
176
     1
 90
       50
176
     1
 90
       50
176
     1
 90
       50
176
     1
290
     0
176
     1
 90
       50
176
     1
 62
   256
176
     0
 40
1.0
176
     0
 90
        2
176
     1
  1
strokes_ogs.tif
176
     1
290
     0
176
     1
 40
1.0
176
     1
 40
1.0
176
     1
  0
DICTIONARYVAR
  5
303
102
{ACAD_REACTORS
330
2FE
102
}
330
2FE
100
DictionaryVariables
280
     0
  1
1:1
  0
DICTIONARYVAR
  5
300
102
{ACAD_REACTORS
330
2FE
102
}
330
2FE
100
DictionaryVariables
280
     0
  1
STANDARD
  0
DICTIONARYVAR
  5
2FF
102
{ACAD_REACTORS
330
2FE
102
}
330
2FE
100
DictionaryVariables
280
     0
  1
STANDARD
  0
DICTIONARYVAR
  5
301
102
{ACAD_REACTORS
330
2FE
102
}
330
2FE
100
DictionaryVariables
280
     0
  1
Imperial24
  0
DICTIONARYVAR
  5
302
102
{ACAD_REACTORS
330
2FE
102
}
330
2FE
100
DictionaryVariables
280
     0
  1
Imperial24
  0
DICTIONARY
  5
35C
330
6A
100
AcDbDictionary
280
     1
281
     1
  3
ACAD_XREC_ROUNDTRIP
360
35D
  0
DICTIONARY
  5
2FC
330
72
100
AcDbDictionary
280
     1
281
     1
  0
DICTIONARY
  5
1A
330
19
100
AcDbDictionary
280
     1
281
     1
  3
BUMPTILE
360
1C
  3
DIFFUSETILE
360
1B
  3
OPACITYTILE
360
1F
  3
REFLECTIONTILE
360
1E
  3
REFRACTIONTILE
360
20
  3
SPECULARTILE
360
1D
  0
DICTIONARY
  5
12
330
11
100
AcDbDictionary
280
     1
281
     1
  3
BUMPTILE
360
14
  3
DIFFUSETILE
360
13
  3
OPACITYTILE
360
17
  3
REFLECTIONTILE
360
16
  3
REFRACTIONTILE
360
18
  3
SPECULARTILE
360
15
  0
DICTIONARY
  5
22
330
21
100
AcDbDictionary
280
     1
281
     1
  3
BUMPTILE
360
24
  3
DIFFUSETILE
360
23
  3
OPACITYTILE
360
27
  3
REFLECTIONTILE
360
26
  3
REFRACTIONTILE
360
28
  3
SPECULARTILE
360
25
  0
DICTIONARY
  5
35A
330
68
100
AcDbDictionary
280
     1
281
     1
  3
ACAD_XREC_ROUNDTRIP
360
35B
  0
DICTIONARY
  5
358
330
64
100
AcDbDictionary
280
     1
281
     1
  3
ACAD_ROUNDTRIP_2008_TABLESTYLE_CELLSTYLEMAP
360
359
  0
XRECORD
  5
35D
102
{ACAD_REACTORS
330
35C
102
}
330
35C
100
AcDbXrecord
280
     1
102
DISPLAYNAME
  1
Imperial24
102
FLAGS
 90
        0
  0
XRECORD
  5
1C
102
{ACAD_REACTORS
330
1A
102
}
330
1A
100
AcDbXrecord
280
     1
270
     1
271
     1
  0
XRECORD
  5
1B
102
{ACAD_REACTORS
330
1A
102
}
330
1A
100
AcDbXrecord
280
     1
270
     1
271
     1
  0
XRECORD
  5
1F
102
{ACAD_REACTORS
330
1A
102
}
330
1A
100
AcDbXrecord
280
     1
270
     1
271
     1
  0
XRECORD
  5
1E
102
{ACAD_REACTORS
330
1A
102
}
330
1A
100
AcDbXrecord
280
     1
270
     1
271
     1
  0
XRECORD
  5
20
102
{ACAD_REACTORS
330
1A
102
}
330
1A
100
AcDbXrecord
280
     1
270
     1
271
     1
  0
XRECORD
  5
1D
102
{ACAD_REACTORS
330
1A
102
}
330
1A
100
AcDbXrecord
280
     1
270
     1
271
     1
  0
XRECORD
  5
14
102
{ACAD_REACTORS
330
12
102
}
330
12
100
AcDbXrecord
280
     1
270
     1
271
     1
  0
XRECORD
  5
13
102
{ACAD_REACTORS
330
12
102
}
330
12
100
AcDbXrecord
280
     1
270
     1
271
     1
  0
XRECORD
  5
17
102
{ACAD_REACTORS
330
12
102
}
330
12
100
AcDbXrecord
280
     1
270
     1
271
     1
  0
XRECORD
  5
16
102
{ACAD_REACTORS
330
12
102
}
330
12
100
AcDbXrecord
280
     1
270
     1
271
     1
  0
XRECORD
  5
18
102
{ACAD_REACTORS
330
12
102
}
330
12
100
AcDbXrecord
280
     1
270
     1
271
     1
  0
XRECORD
  5
15
102
{ACAD_REACTORS
330
12
102
}
330
12
100
AcDbXrecord
280
     1
270
     1
271
     1
  0
XRECORD
  5
24
102
{ACAD_REACTORS
330
22
102
}
330
22
100
AcDbXrecord
280
     1
270
     1
271
     1
  0
XRECORD
  5
23
102
{ACAD_REACTORS
330
22
102
}
330
22
100
AcDbXrecord
280
     1
270
     1
271
     1
  0
XRECORD
  5
27
102
{ACAD_REACTORS
330
22
102
}
330
22
100
AcDbXrecord
280
     1
270
     1
271
     1
  0
XRECORD
  5
26
102
{ACAD_REACTORS
330
22
102
}
330
22
100
AcDbXrecord
280
     1
270
     1
271
     1
  0
XRECORD
  5
28
102
{ACAD_REACTORS
330
22
102
}
330
22
100
AcDbXrecord
280
     1
270
     1
271
     1
  0
XRECORD
  5
25
102
{ACAD_REACTORS
330
22
102
}
330
22
100
AcDbXrecord
280
     1
270
     1
271
     1
  0
XRECORD
  5
35B
102
{ACAD_REACTORS
330
35A
102
}
330
35A
100
AcDbXrecord
280
     1
102
DISPLAYNAME
  1
Imperial24
102
FLAGS
 90
        0
  0
CELLSTYLEMAP
  5
359
102
{ACAD_REACTORS
330
358
102
}
330
358
100
AcDbCellStyleMap
 90
        3
300
CELLSTYLE
  1
TABLEFORMAT_BEGIN
 90
        5
170
     1
 91
        0
 92
    32768
 62
   257
 93
        1
300
CONTENTFORMAT
  1
CONTENTFORMAT_BEGIN
 90
        0
 91
        0
 92
      512
 93
        0
300

 40
0.0
140
1.0
 94
        5
 62
     0
340
55
144
0.25
309
CONTENTFORMAT_END
171
     0
 94
        0
309
TABLEFORMAT_END
  1
CELLSTYLE_BEGIN
 90
        1
 91
        1
300
_TITLE
309
CELLSTYLE_END
300
CELLSTYLE
  1
TABLEFORMAT_BEGIN
 90
        5
170
     1
 91
        0
 92
        0
 62
   257
 93
        1
300
CONTENTFORMAT
  1
CONTENTFORMAT_BEGIN
 90
        0
 91
        0
 92
      512
 93
        0
300

 40
0.0
140
1.0
 94
        5
 62
     0
340
55
144
0.18
309
CONTENTFORMAT_END
171
     0
 94
        0
309
TABLEFORMAT_END
  1
CELLSTYLE_BEGIN
 90
        2
 91
        1
300
_HEADER
309
CELLSTYLE_END
300
CELLSTYLE
  1
TABLEFORMAT_BEGIN
 90
        5
170
     1
 91
        0
 92
        0
 62
   257
 93
        1
300
CONTENTFORMAT
  1
CONTENTFORMAT_BEGIN
 90
        0
 91
        0
 92
      512
 93
        0
300

 40
0.0
140
1.0
 94
        2
 62
     0
340
55
144
0.18
309
CONTENTFORMAT_END
171
     0
 94
        0
309
TABLEFORMAT_END
  1
CELLSTYLE_BEGIN
 90
        3
 91
        2
300
_DATA
309
CELLSTYLE_END
  0
ENDSEC
  0
SECTION
  2
ACDSDATA
 70
     2
 71
     6
  0
ACDSSCHEMA
 90
        0
  1
AcDb_Thumbnail_Schema
  2
AcDbDs::ID
280
    10
 91
        8
  2
Thumbnail_Data
280
    15
 91
        0
101
ACDSRECORD
 95
        0
 90
        1
  2
AcDbDs::TreatedAsObjectData
280
     1
291
     1
101
ACDSRECORD
 95
        0
 90
        2
  2
AcDbDs::Legacy
280
     1
291
     1
101
ACDSRECORD
  1
AcDbDs::ID
 90
        3
  2
AcDs:Indexable
280
     1
291
     1
101
ACDSRECORD
  1
AcDbDs::ID
 90
        4
  2
AcDbDs::HandleAttribute
280
     7
282
     1
  0
ACDSSCHEMA
 90
        1
  1
AcDbDs::TreatedAsObjectDataSchema
  2
AcDbDs::TreatedAsObjectData
280
     1
 91
        0
  0
ACDSSCHEMA
 90
        2
  1
AcDbDs::LegacySchema
  2
AcDbDs::Legacy
280
     1
 91
        0
  0
ACDSSCHEMA
 90
        3
  1
AcDbDs::IndexedPropertySchema
  2
AcDs:Indexable
280
     1
 91
        0
  0
ACDSSCHEMA
 90
        4
  1
AcDbDs::HandleAttributeSchema
  2
AcDbDs::HandleAttribute
280
     7
 91
        1
284
     1
  0
ACDSRECORD
 90
        0
  2
AcDbDs::ID
280
    10
320
72
  2
Thumbnail_Data
280
    15
 94
     1794
310
89504E470D0A1A0A0000000D49484452000001000000009B0803000000BA7AB56000000300504C54455B5B5B000000C8C8C80000000000000000000000000000000000000000000000000000330000660000990000CC0000FF0033000033330033660033990033CC0033FF0066000066330066660066990066CC0066FF0099
310
000099330099660099990099CC0099FF00CC0000CC3300CC6600CC9900CCCC00CCFF00FF0000FF3300FF6600FF9900FFCC00FFFF3300003300333300663300993300CC3300FF3333003333333333663333993333CC3333FF3366003366333366663366993366CC3366FF3399003399333399663399993399CC3399FF33CC00
310
33CC3333CC6633CC9933CCCC33CCFF33FF0033FF3333FF6633FF9933FFCC33FFFF6600006600336600666600996600CC6600FF6633006633336633666633996633CC6633FF6666006666336666666666996666CC6666FF6699006699336699666699996699CC6699FF66CC0066CC3366CC6666CC9966CCCC66CCFF66FF0066
310
FF3366FF6666FF9966FFCC66FFFF9900009900339900669900999900CC9900FF9933009933339933669933999933CC9933FF9966009966339966669966999966CC9966FF9999009999339999669999999999CC9999FF99CC0099CC3399CC6699CC9999CCCC99CCFF99FF0099FF3399FF6699FF9999FFCC99FFFFCC0000CC00
310
33CC0066CC0099CC00CCCC00FFCC3300CC3333CC3366CC3399CC33CCCC33FFCC6600CC6633CC6666CC6699CC66CCCC66FFCC9900CC9933CC9966CC9999CC99CCCC99FFCCCC00CCCC33CCCC66CCCC99CCCCCCCCCCFFCCFF00CCFF33CCFF66CCFF99CCFFCCCCFFFFFF0000FF0033FF0066FF0099FF00CCFF00FFFF3300FF3333
310
FF3366FF3399FF33CCFF33FFFF6600FF6633FF6666FF6699FF66CCFF66FFFF9900FF9933FF9966FF9999FF99CCFF99FFFFCC00FFCC33FFCC66FFCC99FFCCCCFFCCFFFFFF00FFFF33FFFF66FFFF99FFFFCCFFFFFF0000000D0D0D1A1A1A2828283535354343435050505D5D5D6B6B6B787878868686939393A1A1A1AEAEAEBB
310
BBBBC9C9C9D6D6D6E4E4E4F1F1F1FFFFFF00000000000000000000000000000000000000000000000000000000000054549EDE000003BD4944415478DAED9C4996AB300C45B51C266FFF9B6131BF2AF931720B963915D4304A723279D7B21A4B86289E5B9E3D3DBED5BB04E05B3D3936FC03801BAD1D00E6846EDDB5766200
310
5B77AF2B07B02DFCAFE7E9BC00E87A7A2700FA91CE0F80E2170C4383C12D50E9879DF026F81FB80D3804805F0300E01500AA0FAE00006F037819814300187CF30000A0C300B4F9811B00A045C41180B4F5F907F80150EAD746E00E0BB8FAA39F2D60DF07640AA177F985007EE5631006ADE7012897192C1D749009A236F463
310
DF7B28861A650F140A170340CB15EAD53F0DA0AE7B9477012601942B8D977CCD9DC03500BC07AC14C11C806AAB270320AD08A600345CDDBE83E95788601500E5FAF511580650E8370DA0A39F76AE7F275D201601E0233CE93F9CE2EE00C0A19F512055E3514B3E601FEBB707A0CE8386FA0D02C80980DAFAC9300042A314EA
310
ACBF3D27589D0214E540A1DF2880EA40A4D24F4E00A0AE08778513D2E243D12E00DACD66821900500F80E90391433B6CE817364658F34BB97E796FF085E0078472FD2BCDD18F19E8BE1BB2DDFC3F9F00E01C00DC03D06C02F74C89C15173B4ADFF331DE010C03B1D48B3D2F0080079CFDCD7A4280E1BC8C6C4D450580400EA
310
DE945002610D40D28E6254F633363D03E13BB9F43D0046322F42F85635B10400290A56B3C2343742FFBD6A6A05C05B3F2EDD96C2B9FAEF5493CB0040031FC03F3C71F917CF03D8C29E6E81F30D409A019C960367003486C142FF7F7F8FB62D3C3723909F091E0B0B2A73E14AB0750068467F660B5D326A019CE84FA1A1340A
310
2B00C0298CD3C0DC03980280DA01B4103CDB1908EF0C5DD63F191095003852C069FD2600A45340817EB500F2FE789E007903C0DC3ED4EB170038A29A20AB795E4628002097FFC48C781A00E4F21F59116CB23F8AA43CB222FA3B000F2D894551C086FB933B41C91DE9C71E08C89CE024020B27426518C4C55DFDF836A1CC07
310
501A932BA4B21FA0A3452AAB05F866285E1C000016BBC3F5AC2C3B10A8E41A7C894A11060B6FA0C7E9DF1306592CF00A80B5BB40AA0988F280BC1F0C9F00C65A0D6F814B002C4781C63884EA776949009C743E6DCE095E0760F4555AFCF2F01080D5D7EA3601D4A980DD59610680DF9D2D9241C3AFD64E00585B20AD39B42E
310
3F890F4529AF05A0F6BAC012005E1093D6670D40F5764D7700545F175A0200EDC297016837FD4500501AF503C09D5BC03B00E74ED0880BBC210F08000120000480001000024000080001200004800010000240000800012000048000100002400008000120000480001000024000080001C00A00AB0FC5533DFF00E6AEA27A
310
2B3C5DDF0000000049454E44AE426082
  0
ENDSEC
  0
EOF
