  0
SECTION
  2
HEADER
  9
$ACADVER
  1
AC1027
  9
$ACADMAINTVER
 70
    55
  9
$DWGCODEPAGE
  3
ANSI_1252
  9
$LASTSAVEDBY
  1
crinne
  9
$REQUIREDVERSIONS
160
                 0
  9
$INSBASE
 10
0.0
 20
0.0
 30
0.0
  9
$EXTMIN
 10
-10.50970602364625
 20
-12.98765632087936
 30
0.0
  9
$EXTMAX
 10
-9.549064052867137
 20
-12.07504668483539
 30
0.0
  9
$LIMMIN
 10
-2600.0
 20
-2600.0
  9
$LIMMAX
 10
2000.0
 20
200.0
  9
$ORTHOMODE
 70
     0
  9
$REGENMODE
 70
     1
  9
$FILLMODE
 70
     1
  9
$QTEXTMODE
 70
     0
  9
$MIRRTEXT
 70
     1
  9
$LTSCALE
 40
25.0
  9
$ATTMODE
 70
     1
  9
$TEXTSIZE
 40
3.5
  9
$TRACEWID
 40
1.0
  9
$TEXTSTYLE
  7
STANDARD
  9
$CLAYER
  8
STEINESCHRAFF
  9
$CELTYPE
  6
ByLayer
  9
$CECOLOR
 62
   256
  9
$CELTSCALE
 40
1.0
  9
$DISPSILH
 70
     0
  9
$DIMSCALE
 40
1.0
  9
$DIMASZ
 40
3.5
  9
$DIMEXO
 40
0.1
  9
$DIMDLI
 40
7.0
  9
$DIMRND
 40
0.0
  9
$DIMDLE
 40
0.0
  9
$DIMEXE
 40
1.8
  9
$DIMTP
 40
0.0
  9
$DIMTM
 40
0.0
  9
$DIMTXT
 40
3.5
  9
$DIMCEN
 40
1.5
  9
$DIMTSZ
 40
0.0
  9
$DIMTOL
 70
     0
  9
$DIMLIM
 70
     0
  9
$DIMTIH
 70
     0
  9
$DIMTOH
 70
     0
  9
$DIMSE1
 70
     0
  9
$DIMSE2
 70
     0
  9
$DIMTAD
 70
     0
  9
$DIMZIN
 70
     0
  9
$DIMBLK
  1

  9
$DIMASO
 70
     1
  9
$DIMSHO
 70
     0
  9
$DIMPOST
  1

  9
$DIMAPOST
  1

  9
$DIMALT
 70
     0
  9
$DIMALTD
 70
     2
  9
$DIMALTF
 40
25.4
  9
$DIMLFAC
 40
1.0
  9
$DIMTOFL
 70
     0
  9
$DIMTVP
 40
0.0
  9
$DIMTIX
 70
     0
  9
$DIMSOXD
 70
     0
  9
$DIMSAH
 70
     0
  9
$DIMBLK1
  1

  9
$DIMBLK2
  1

  9
$DIMSTYLE
  2
Standard
  9
$DIMCLRD
 70
     0
  9
$DIMCLRE
 70
     0
  9
$DIMCLRT
 70
     0
  9
$DIMTFAC
 40
1.0
  9
$DIMGAP
 40
0.09
  9
$DIMJUST
 70
     0
  9
$DIMSD1
 70
     0
  9
$DIMSD2
 70
     0
  9
$DIMTOLJ
 70
     1
  9
$DIMTZIN
 70
     0
  9
$DIMALTZ
 70
     0
  9
$DIMALTTZ
 70
     0
  9
$DIMUPT
 70
     0
  9
$DIMDEC
 70
     2
  9
$DIMTDEC
 70
     2
  9
$DIMALTU
 70
     2
  9
$DIMALTTD
 70
     2
  9
$DIMTXSTY
  7
STANDARD
  9
$DIMAUNIT
 70
     0
  9
$DIMADEC
 70
     0
  9
$DIMALTRND
 40
0.0
  9
$DIMAZIN
 70
     0
  9
$DIMDSEP
 70
    46
  9
$DIMATFIT
 70
     3
  9
$DIMFRAC
 70
     0
  9
$DIMLDRBLK
  1

  9
$DIMLUNIT
 70
     2
  9
$DIMLWD
 70
    -2
  9
$DIMLWE
 70
    -2
  9
$DIMTMOVE
 70
     2
  9
$DIMFXL
 40
1.0
  9
$DIMFXLON
 70
     0
  9
$DIMJOGANG
 40
0.7853981633974483
  9
$DIMTFILL
 70
     0
  9
$DIMTFILLCLR
 70
     0
  9
$DIMARCSYM
 70
     0
  9
$DIMLTYPE
  6

  9
$DIMLTEX1
  6

  9
$DIMLTEX2
  6

  9
$DIMTXTDIRECTION
 70
     0
  9
$LUNITS
 70
     2
  9
$LUPREC
 70
     2
  9
$SKETCHINC
 40
1.0
  9
$FILLETRAD
 40
0.0
  9
$AUNITS
 70
     0
  9
$AUPREC
 70
     0
  9
$MENU
  1
ACAD
  9
$ELEVATION
 40
0.0
  9
$PELEVATION
 40
0.0
  9
$THICKNESS
 40
0.0
  9
$LIMCHECK
 70
     0
  9
$CHAMFERA
 40
0.0
  9
$CHAMFERB
 40
0.0
  9
$CHAMFERC
 40
0.0
  9
$CHAMFERD
 40
0.0
  9
$SKPOLY
 70
     0
  9
$TDCREATE
 40
2450617.499293634
  9
$TDUCREATE
 40
2450617.415960301
  9
$TDUPDATE
 40
2459796.512242338
  9
$TDUUPDATE
 40
2459796.428909005
  9
$TDINDWG
 40
0.0111579398
  9
$TDUSRTIMER
 40
0.0111579398
  9
$USRTIMER
 70
     1
  9
$ANGBASE
 50
0.0
  9
$ANGDIR
 70
     0
  9
$PDMODE
 70
     0
  9
$PDSIZE
 40
0.0
  9
$PLINEWID
 40
0.0
  9
$SPLFRAME
 70
     0
  9
$SPLINETYPE
 70
     6
  9
$SPLINESEGS
 70
     8
  9
$HANDSEED
  5
528
  9
$SURFTAB1
 70
     6
  9
$SURFTAB2
 70
     6
  9
$SURFTYPE
 70
     6
  9
$SURFU
 70
     6
  9
$SURFV
 70
     6
  9
$UCSBASE
  2

  9
$UCSNAME
  2

  9
$UCSORG
 10
0.0
 20
0.0
 30
0.0
  9
$UCSXDIR
 10
1.0
 20
0.0
 30
0.0
  9
$UCSYDIR
 10
0.0
 20
1.0
 30
0.0
  9
$UCSORTHOREF
  2

  9
$UCSORTHOVIEW
 70
     0
  9
$UCSORGTOP
 10
0.0
 20
0.0
 30
0.0
  9
$UCSORGBOTTOM
 10
0.0
 20
0.0
 30
0.0
  9
$UCSORGLEFT
 10
0.0
 20
0.0
 30
0.0
  9
$UCSORGRIGHT
 10
0.0
 20
0.0
 30
0.0
  9
$UCSORGFRONT
 10
0.0
 20
0.0
 30
0.0
  9
$UCSORGBACK
 10
0.0
 20
0.0
 30
0.0
  9
$PUCSBASE
  2

  9
$PUCSNAME
  2

  9
$PUCSORG
 10
0.0
 20
0.0
 30
0.0
  9
$PUCSXDIR
 10
1.0
 20
0.0
 30
0.0
  9
$PUCSYDIR
 10
0.0
 20
1.0
 30
0.0
  9
$PUCSORTHOREF
  2

  9
$PUCSORTHOVIEW
 70
     0
  9
$PUCSORGTOP
 10
0.0
 20
0.0
 30
0.0
  9
$PUCSORGBOTTOM
 10
0.0
 20
0.0
 30
0.0
  9
$PUCSORGLEFT
 10
0.0
 20
0.0
 30
0.0
  9
$PUCSORGRIGHT
 10
0.0
 20
0.0
 30
0.0
  9
$PUCSORGFRONT
 10
0.0
 20
0.0
 30
0.0
  9
$PUCSORGBACK
 10
0.0
 20
0.0
 30
0.0
  9
$USERI1
 70
     0
  9
$USERI2
 70
     0
  9
$USERI3
 70
     0
  9
$USERI4
 70
     0
  9
$USERI5
 70
     0
  9
$USERR1
 40
0.0
  9
$USERR2
 40
0.0
  9
$USERR3
 40
0.0
  9
$USERR4
 40
0.0
  9
$USERR5
 40
0.0
  9
$WORLDVIEW
 70
     1
  9
$SHADEDGE
 70
     3
  9
$SHADEDIF
 70
    70
  9
$TILEMODE
 70
     1
  9
$MAXACTVP
 70
    16
  9
$PINSBASE
 10
0.0
 20
0.0
 30
0.0
  9
$PLIMCHECK
 70
     0
  9
$PEXTMIN
 10
1.000000000000000E+20
 20
1.000000000000000E+20
 30
1.000000000000000E+20
  9
$PEXTMAX
 10
-1.000000000000000E+20
 20
-1.000000000000000E+20
 30
-1.000000000000000E+20
  9
$PLIMMIN
 10
0.0
 20
0.0
  9
$PLIMMAX
 10
12.0
 20
9.0
  9
$UNITMODE
 70
     0
  9
$VISRETAIN
 70
     0
  9
$PLINEGEN
 70
     0
  9
$PSLTSCALE
 70
     0
  9
$TREEDEPTH
 70
  3020
  9
$CMLSTYLE
  2
Standard
  9
$CMLJUST
 70
     0
  9
$CMLSCALE
 40
1.0
  9
$PROXYGRAPHICS
 70
     1
  9
$MEASUREMENT
 70
     0
  9
$CELWEIGHT
370
    -1
  9
$ENDCAPS
280
     0
  9
$JOINSTYLE
280
     0
  9
$LWDISPLAY
290
     0
  9
$INSUNITS
 70
     6
  9
$HYPERLINKBASE
  1

  9
$STYLESHEET
  1

  9
$XEDIT
290
     1
  9
$CEPSNTYPE
380
     0
  9
$PSTYLEMODE
290
     1
  9
$FINGERPRINTGUID
  2
{A48C691C-C7B1-4417-873D-49E7DFEA6394}
  9
$VERSIONGUID
  2
{3FF679B2-33AB-40AB-8FE1-828A63BB72CC}
  9
$EXTNAMES
290
     1
  9
$PSVPSCALE
 40
0.0
  9
$OLESTARTUP
290
     0
  9
$SORTENTS
280
   127
  9
$INDEXCTL
280
     0
  9
$HIDETEXT
280
     1
  9
$XCLIPFRAME
280
     2
  9
$HALOGAP
280
     0
  9
$OBSCOLOR
 70
   257
  9
$OBSLTYPE
280
     0
  9
$INTERSECTIONDISPLAY
280
     0
  9
$INTERSECTIONCOLOR
 70
   257
  9
$DIMASSOC
280
     2
  9
$PROJECTNAME
  1

  9
$CAMERADISPLAY
290
     0
  9
$LENSLENGTH
 40
50.0
  9
$CAMERAHEIGHT
 40
0.0
  9
$STEPSPERSEC
 40
2.0
  9
$STEPSIZE
 40
6.0
  9
$3DDWFPREC
 40
2.0
  9
$PSOLWIDTH
 40
0.25
  9
$PSOLHEIGHT
 40
4.0
  9
$LOFTANG1
 40
1.570796326794896
  9
$LOFTANG2
 40
1.570796326794896
  9
$LOFTMAG1
 40
0.0
  9
$LOFTMAG2
 40
0.0
  9
$LOFTPARAM
 70
     7
  9
$LOFTNORMALS
280
     1
  9
$LATITUDE
 40
37.795
  9
$LONGITUDE
 40
-122.394
  9
$NORTHDIRECTION
 40
0.0
  9
$TIMEZONE
 70
 -8000
  9
$LIGHTGLYPHDISPLAY
280
     1
  9
$TILEMODELIGHTSYNCH
280
     1
  9
$CMATERIAL
347
11
  9
$SOLIDHIST
280
     0
  9
$SHOWHIST
280
     1
  9
$DWFFRAME
280
     2
  9
$DGNFRAME
280
     0
  9
$REALWORLDSCALE
290
     1
  9
$INTERFERECOLOR
 62
     1
  9
$INTERFEREOBJVS
345
33
  9
$INTERFEREVPVS
346
30
  9
$CSHADOW
280
     0
  9
$SHADOWPLANELOCATION
 40
0.0
  0
ENDSEC
  0
SECTION
  2
CLASSES
  0
CLASS
  1
ACDBDICTIONARYWDFLT
  2
AcDbDictionaryWithDefault
  3
ObjectDBX Classes
 90
        0
 91
        1
280
     0
281
     0
  0
CLASS
  1
MATERIAL
  2
AcDbMaterial
  3
ObjectDBX Classes
 90
     1153
 91
        3
280
     0
281
     0
  0
CLASS
  1
VISUALSTYLE
  2
AcDbVisualStyle
  3
ObjectDBX Classes
 90
     4095
 91
       24
280
     0
281
     0
  0
CLASS
  1
SCALE
  2
AcDbScale
  3
ObjectDBX Classes
 90
     1153
 91
       17
280
     0
281
     0
  0
CLASS
  1
TABLESTYLE
  2
AcDbTableStyle
  3
ObjectDBX Classes
 90
     4095
 91
        1
280
     0
281
     0
  0
CLASS
  1
MLEADERSTYLE
  2
AcDbMLeaderStyle
  3
ACDB_MLEADERSTYLE_CLASS
 90
     4095
 91
        1
280
     0
281
     0
  0
CLASS
  1
ACDBSECTIONVIEWSTYLE
  2
AcDbSectionViewStyle
  3
ObjectDBX Classes
 90
     1025
 91
        1
280
     0
281
     0
  0
CLASS
  1
ACDBDETAILVIEWSTYLE
  2
AcDbDetailViewStyle
  3
ObjectDBX Classes
 90
     1025
 91
        1
280
     0
281
     0
  0
CLASS
  1
DICTIONARYVAR
  2
AcDbDictionaryVar
  3
ObjectDBX Classes
 90
        0
 91
        5
280
     0
281
     0
  0
CLASS
  1
CELLSTYLEMAP
  2
AcDbCellStyleMap
  3
ObjectDBX Classes
 90
     1152
 91
        1
280
     0
281
     0
  0
ENDSEC
  0
SECTION
  2
TABLES
  0
TABLE
  2
VPORT
  5
8
330
0
100
AcDbSymbolTable
 70
     1
  0
VPORT
  5
90
330
8
100
AcDbSymbolTableRecord
100
AcDbViewportTableRecord
  2
*ACTIVE
 70
     0
 10
0.0
 20
0.0
 11
1.0
 21
1.0
 12
-10.02938503825669
 22
-12.53135150285738
 13
0.0
 23
0.0
 14
5.0
 24
5.0
 15
100.0
 25
100.0
 16
0.0
 26
0.0
 36
1.0
 17
0.0
 27
0.0
 37
0.0
 40
0.9200696603167983
 41
1.649386084583901
 42
50.0
 43
0.0
 44
0.0
 50
0.0
 51
0.0
 71
     0
 72
   100
 73
     1
 74
     0
 75
     0
 76
     1
 77
     0
 78
     0
281
     0
 65
     1
110
0.0
120
0.0
130
0.0
111
1.0
121
0.0
131
0.0
112
0.0
122
1.0
132
0.0
 79
     0
146
0.0
348
2F
 60
     3
 61
     5
292
     1
282
     0
141
0.0
142
0.0
 63
   250
421
  3355443
1001
ACAD_NAV_VCDISPLAY
1070
     3
  0
ENDTAB
  0
TABLE
  2
LTYPE
  5
5
330
0
100
AcDbSymbolTable
 70
    25
  0
LTYPE
  5
5A
330
5
100
AcDbSymbolTableRecord
100
AcDbLinetypeTableRecord
  2
ByBlock
 70
     0
  3

 72
    65
 73
     0
 40
0.0
  0
LTYPE
  5
5B
330
5
100
AcDbSymbolTableRecord
100
AcDbLinetypeTableRecord
  2
ByLayer
 70
     0
  3

 72
    65
 73
     0
 40
0.0
  0
LTYPE
  5
5C
330
5
100
AcDbSymbolTableRecord
100
AcDbLinetypeTableRecord
  2
CONTINUOUS
 70
     0
  3
Ausgezogene Linie
 72
    65
 73
     0
 40
0.0
  0
LTYPE
  5
77
330
5
100
AcDbSymbolTableRecord
100
AcDbLinetypeTableRecord
  2
RAND
 70
     0
  3
__ __ . __ __ . __ __ . __ __ . __ __ . __ __ .
 72
    65
 73
     6
 40
1.75
 49
0.5
 74
     0
 49
-0.25
 74
     0
 49
0.5
 74
     0
 49
-0.25
 74
     0
 49
0.0
 74
     0
 49
-0.25
 74
     0
  0
LTYPE
  5
78
330
5
100
AcDbSymbolTableRecord
100
AcDbLinetypeTableRecord
  2
RAND2
 70
     0
  3
__.__.__.__.__.__.__.__.__.__.__.__.__.__.__.__
 72
    65
 73
     6
 40
0.875
 49
0.25
 74
     0
 49
-0.125
 74
     0
 49
0.25
 74
     0
 49
-0.125
 74
     0
 49
0.0
 74
     0
 49
-0.125
 74
     0
  0
LTYPE
  5
79
330
5
100
AcDbSymbolTableRecord
100
AcDbLinetypeTableRecord
  2
RANDX2
 70
     0
  3
____  ____  .  ____  ____  .  ____  ____  .  __
 72
    65
 73
     6
 40
3.5
 49
1.0
 74
     0
 49
-0.5
 74
     0
 49
1.0
 74
     0
 49
-0.5
 74
     0
 49
0.0
 74
     0
 49
-0.5
 74
     0
  0
LTYPE
  5
7A
330
5
100
AcDbSymbolTableRecord
100
AcDbLinetypeTableRecord
  2
MITTE
 70
     0
  3
____ _ ____ _ ____ _ ____ _ ____ _ ____ _ ____ 
 72
    65
 73
     4
 40
2.0
 49
1.25
 74
     0
 49
-0.25
 74
     0
 49
0.25
 74
     0
 49
-0.25
 74
     0
  0
LTYPE
  5
7B
330
5
100
AcDbSymbolTableRecord
100
AcDbLinetypeTableRecord
  2
MITTE2
 70
     0
  3
___ _ ___ _ ___ _ ___ _ ___ _ ___ _ ___ _ ___ _
 72
    65
 73
     4
 40
1.125
 49
0.75
 74
     0
 49
-0.125
 74
     0
 49
0.125
 74
     0
 49
-0.125
 74
     0
  0
LTYPE
  5
7C
330
5
100
AcDbSymbolTableRecord
100
AcDbLinetypeTableRecord
  2
MITTEX2
 70
     0
  3
________  __  ________  __  ________  __  _____
 72
    65
 73
     4
 40
4.0
 49
2.5
 74
     0
 49
-0.5
 74
     0
 49
0.5
 74
     0
 49
-0.5
 74
     0
  0
LTYPE
  5
7D
330
5
100
AcDbSymbolTableRecord
100
AcDbLinetypeTableRecord
  2
STRICHPUNKT
 70
     0
  3
__ . __ . __ . __ . __ . __ . __ . __ . __ . __
 72
    65
 73
     4
 40
1.0
 49
0.5
 74
     0
 49
-0.25
 74
     0
 49
0.0
 74
     0
 49
-0.25
 74
     0
  0
LTYPE
  5
7E
330
5
100
AcDbSymbolTableRecord
100
AcDbLinetypeTableRecord
  2
STRICHPUNKT2
 70
     0
  3
_._._._._._._._._._._._._._._._._._._._._._._._
 72
    65
 73
     4
 40
0.5
 49
0.25
 74
     0
 49
-0.125
 74
     0
 49
0.0
 74
     0
 49
-0.125
 74
     0
  0
LTYPE
  5
7F
330
5
100
AcDbSymbolTableRecord
100
AcDbLinetypeTableRecord
  2
STRICHPUNKTX2
 70
     0
  3
____  .  ____  .  ____  .  ____  .  ____  .  __
 72
    65
 73
     4
 40
2.0
 49
1.0
 74
     0
 49
-0.5
 74
     0
 49
0.0
 74
     0
 49
-0.5
 74
     0
  0
LTYPE
  5
80
330
5
100
AcDbSymbolTableRecord
100
AcDbLinetypeTableRecord
  2
GESTRICHELT
 70
     0
  3
__ __ __ __ __ __ __ __ __ __ __ __ __ __ __ __
 72
    65
 73
     2
 40
0.75
 49
0.5
 74
     0
 49
-0.25
 74
     0
  0
LTYPE
  5
81
330
5
100
AcDbSymbolTableRecord
100
AcDbLinetypeTableRecord
  2
GESTRICHELT2
 70
     0
  3
_ _ _ _ _ _ _ _ _ _ _ _ _ _ _ _ _ _ _ _ _ _ _ _
 72
    65
 73
     2
 40
0.375
 49
0.25
 74
     0
 49
-0.125
 74
     0
  0
LTYPE
  5
82
330
5
100
AcDbSymbolTableRecord
100
AcDbLinetypeTableRecord
  2
GESTRICHELTX2
 70
     0
  3
____  ____  ____  ____  ____  ____  ____  ____ 
 72
    65
 73
     2
 40
1.5
 49
1.0
 74
     0
 49
-0.5
 74
     0
  0
LTYPE
  5
83
330
5
100
AcDbSymbolTableRecord
100
AcDbLinetypeTableRecord
  2
GETRENNT
 70
     0
  3
____ . . ____ . . ____ . . ____ . . ____ . . __
 72
    65
 73
     6
 40
1.25
 49
0.5
 74
     0
 49
-0.25
 74
     0
 49
0.0
 74
     0
 49
-0.25
 74
     0
 49
0.0
 74
     0
 49
-0.25
 74
     0
  0
LTYPE
  5
84
330
5
100
AcDbSymbolTableRecord
100
AcDbLinetypeTableRecord
  2
GETRENNT2
 70
     0
  3
__..__..__..__..__..__..__..__..__..__..__..__.
 72
    65
 73
     6
 40
0.625
 49
0.25
 74
     0
 49
-0.125
 74
     0
 49
0.0
 74
     0
 49
-0.125
 74
     0
 49
0.0
 74
     0
 49
-0.125
 74
     0
  0
LTYPE
  5
85
330
5
100
AcDbSymbolTableRecord
100
AcDbLinetypeTableRecord
  2
GETRENNTX2
 70
     0
  3
________  .  .  ________  .  .  ________  .  . 
 72
    65
 73
     6
 40
2.5
 49
1.0
 74
     0
 49
-0.5
 74
     0
 49
0.0
 74
     0
 49
-0.5
 74
     0
 49
0.0
 74
     0
 49
-0.5
 74
     0
  0
LTYPE
  5
86
330
5
100
AcDbSymbolTableRecord
100
AcDbLinetypeTableRecord
  2
PUNKT
 70
     0
  3
. . . . . . . . . . . . . . . . . . . . . . . .
 72
    65
 73
     2
 40
0.25
 49
0.0
 74
     0
 49
-0.25
 74
     0
  0
LTYPE
  5
87
330
5
100
AcDbSymbolTableRecord
100
AcDbLinetypeTableRecord
  2
PUNKT2
 70
     0
  3
...............................................
 72
    65
 73
     2
 40
0.125
 49
0.0
 74
     0
 49
-0.125
 74
     0
  0
LTYPE
  5
88
330
5
100
AcDbSymbolTableRecord
100
AcDbLinetypeTableRecord
  2
PUNKTX2
 70
     0
  3
.  .  .  .  .  .  .  .  .  .  .  .  .  .  .  . 
 72
    65
 73
     2
 40
0.5
 49
0.0
 74
     0
 49
-0.5
 74
     0
  0
LTYPE
  5
89
330
5
100
AcDbSymbolTableRecord
100
AcDbLinetypeTableRecord
  2
VERDECKT
 70
     0
  3
__ __ __ __ __ __ __ __ __ __ __ __ __ __ __ __
 72
    65
 73
     2
 40
0.375
 49
0.25
 74
     0
 49
-0.125
 74
     0
  0
LTYPE
  5
8A
330
5
100
AcDbSymbolTableRecord
100
AcDbLinetypeTableRecord
  2
VERDECKT2
 70
     0
  3
_ _ _ _ _ _ _ _ _ _ _ _ _ _ _ _ _ _ _ _ _ _ _ _
 72
    65
 73
     2
 40
0.1875
 49
0.125
 74
     0
 49
-0.0625
 74
     0
  0
LTYPE
  5
8B
330
5
100
AcDbSymbolTableRecord
100
AcDbLinetypeTableRecord
  2
VERDECKTX2
 70
     0
  3
____ ____ ____ ____ ____ ____ ____ ____ ____ __
 72
    65
 73
     2
 40
0.75
 49
0.5
 74
     0
 49
-0.25
 74
     0
  0
LTYPE
  5
8C
330
5
100
AcDbSymbolTableRecord
100
AcDbLinetypeTableRecord
  2
PHANTOM
 70
     0
  3
______  __  __  ______  __  __  ______  __  __ 
 72
    65
 73
     6
 40
2.5
 49
1.25
 74
     0
 49
-0.25
 74
     0
 49
0.25
 74
     0
 49
-0.25
 74
     0
 49
0.25
 74
     0
 49
-0.25
 74
     0
  0
LTYPE
  5
8D
330
5
100
AcDbSymbolTableRecord
100
AcDbLinetypeTableRecord
  2
PHANTOM2
 70
     0
  3
___ _ _ ___ _ _ ___ _ _ ___ _ _ ___ _ _ ___ _ _
 72
    65
 73
     6
 40
1.25
 49
0.625
 74
     0
 49
-0.125
 74
     0
 49
0.125
 74
     0
 49
-0.125
 74
     0
 49
0.125
 74
     0
 49
-0.125
 74
     0
  0
LTYPE
  5
8E
330
5
100
AcDbSymbolTableRecord
100
AcDbLinetypeTableRecord
  2
PHANTOMX2
 70
     0
  3
____________    ____    ____    ____________   
 72
    65
 73
     6
 40
5.0
 49
2.5
 74
     0
 49
-0.5
 74
     0
 49
0.5
 74
     0
 49
-0.5
 74
     0
 49
0.5
 74
     0
 49
-0.5
 74
     0
  0
ENDTAB
  0
TABLE
  2
LAYER
  5
2
102
{ACAD_XDICTIONARY
360
480
102
}
330
0
100
AcDbSymbolTable
 70
    10
  0
LAYER
  5
54
330
2
100
AcDbSymbolTableRecord
100
AcDbLayerTableRecord
  2
0
 70
     0
 62
     7
  6
CONTINUOUS
370
    -3
390
F
347
21
348
0
  0
LAYER
  5
91
330
2
100
AcDbSymbolTableRecord
100
AcDbLayerTableRecord
  2
GRABUNGSGRENZE
 70
     0
 62
     3
  6
STRICHPUNKTX2
370
    -3
390
F
347
21
348
0
  0
LAYER
  5
92
330
2
100
AcDbSymbolTableRecord
100
AcDbLayerTableRecord
  2
BEFUND
 70
     0
 62
     1
  6
CONTINUOUS
370
    -3
390
F
347
21
348
0
  0
LAYER
  5
93
330
2
100
AcDbSymbolTableRecord
100
AcDbLayerTableRecord
  2
STEINE
 70
     0
 62
     4
  6
CONTINUOUS
370
    -3
390
F
347
21
348
0
  0
LAYER
  5
94
330
2
100
AcDbSymbolTableRecord
100
AcDbLayerTableRecord
  2
KNOCHEN
 70
     0
 62
     2
  6
CONTINUOUS
370
    -3
390
F
347
21
348
0
  0
LAYER
  5
95
330
2
100
AcDbSymbolTableRecord
100
AcDbLayerTableRecord
  2
BEFUND_UNSICHER
 70
     0
 62
     1
  6
GESTRICHELT
370
    -3
390
F
347
21
348
0
  0
LAYER
  5
96
330
2
100
AcDbSymbolTableRecord
100
AcDbLayerTableRecord
  2
FEUER
 70
     0
 62
     1
  6
CONTINUOUS
370
    -3
390
F
347
21
348
0
  0
LAYER
  5
97
330
2
100
AcDbSymbolTableRecord
100
AcDbLayerTableRecord
  2
KNOCHENSCHRAFF
 70
     0
 62
     2
  6
CONTINUOUS
370
    -3
390
F
347
21
348
0
  0
LAYER
  5
98
330
2
100
AcDbSymbolTableRecord
100
AcDbLayerTableRecord
  2
TPROFIL
 70
     0
 62
     3
  6
CONTINUOUS
370
    -3
390
F
347
21
348
0
  0
LAYER
  5
99
330
2
100
AcDbSymbolTableRecord
100
AcDbLayerTableRecord
  2
STEINESCHRAFF
 70
     0
 62
     4
  6
CONTINUOUS
370
    -3
390
F
347
21
348
0
  0
ENDTAB
  0
TABLE
  2
STYLE
  5
3
330
0
100
AcDbSymbolTable
 70
     2
  0
STYLE
  5
55
330
3
100
AcDbSymbolTableRecord
100
AcDbTextStyleTableRecord
  2
STANDARD
 70
     0
 40
0.0
 41
1.0
 50
0.0
 71
     0
 42
3.5
  3
txt.shx
  4

  0
STYLE
  5
59
330
3
100
AcDbSymbolTableRecord
100
AcDbTextStyleTableRecord
  2
Annotative
 70
     0
 40
0.0
 41
1.0
 50
0.0
 71
     0
 42
3.5
  3
txt
  4

1001
AcadAnnotative
1000
AnnotativeData
1002
{
1070
     1
1070
     1
1002
}
  0
ENDTAB
  0
TABLE
  2
VIEW
  5
6
330
0
100
AcDbSymbolTable
 70
     1
  0
ENDTAB
  0
TABLE
  2
UCS
  5
7
330
0
100
AcDbSymbolTable
 70
     0
  0
ENDTAB
  0
TABLE
  2
APPID
  5
9
330
0
100
AcDbSymbolTable
 70
     3
  0
APPID
  5
56
330
9
100
AcDbSymbolTableRecord
100
AcDbRegAppTableRecord
  2
ACAD
 70
     0
  0
APPID
  5
5D
330
9
100
AcDbSymbolTableRecord
100
AcDbRegAppTableRecord
  2
AcadAnnotative
 70
     0
  0
APPID
  5
486
330
9
100
AcDbSymbolTableRecord
100
AcDbRegAppTableRecord
  2
ACAD_NAV_VCDISPLAY
 70
     0
  0
ENDTAB
  0
TABLE
  2
DIMSTYLE
  5
A
330
0
100
AcDbSymbolTable
 70
     2
100
AcDbDimStyleTable
 71
     0
  0
DIMSTYLE
105
57
330
A
100
AcDbSymbolTableRecord
100
AcDbDimStyleTableRecord
  2
Standard
 70
     0
340
55
  0
DIMSTYLE
105
58
330
A
100
AcDbSymbolTableRecord
100
AcDbDimStyleTableRecord
  2
Annotative
 70
     0
340
55
1001
AcadAnnotative
1000
AnnotativeData
1002
{
1070
     1
1070
     1
1002
}
  0
ENDTAB
  0
TABLE
  2
BLOCK_RECORD
  5
1
330
0
100
AcDbSymbolTable
 70
     4
  0
BLOCK_RECORD
  5
6F
330
1
100
AcDbSymbolTableRecord
100
AcDbBlockTableRecord
  2
*Model_Space
340
72
 70
     0
280
     1
281
     0
  0
BLOCK_RECORD
  5
6B
330
1
100
AcDbSymbolTableRecord
100
AcDbBlockTableRecord
  2
*Paper_Space
340
6E
 70
     0
280
     1
281
     0
  0
BLOCK_RECORD
  5
73
330
1
100
AcDbSymbolTableRecord
100
AcDbBlockTableRecord
  2
TPFEIL
340
0
 70
     0
280
     1
281
     0
  0
BLOCK_RECORD
  5
74
330
1
100
AcDbSymbolTableRecord
100
AcDbBlockTableRecord
  2
*X1
340
0
102
{BLKREFS
331
477
102
}
 70
     0
280
     1
281
     0
  0
BLOCK_RECORD
  5
75
330
1
100
AcDbSymbolTableRecord
100
AcDbBlockTableRecord
  2
*X2
340
0
102
{BLKREFS
331
478
102
}
 70
     0
280
     1
281
     0
  0
BLOCK_RECORD
  5
76
330
1
100
AcDbSymbolTableRecord
100
AcDbBlockTableRecord
  2
*X3
340
0
102
{BLKREFS
331
479
102
}
 70
     0
280
     1
281
     0
  0
ENDTAB
  0
ENDSEC
  0
SECTION
  2
BLOCKS
  0
BLOCK
  5
9C
330
6F
100
AcDbEntity
  8
0
100
AcDbBlockBegin
  2
*Model_Space
 70
     0
 10
0.0
 20
0.0
 30
0.0
  3
*Model_Space
  1

  0
ENDBLK
  5
9D
330
6F
100
AcDbEntity
  8
0
100
AcDbBlockEnd
  0
BLOCK
  5
9A
330
6B
100
AcDbEntity
 67
     1
  8
0
100
AcDbBlockBegin
  2
*Paper_Space
 70
     0
 10
0.0
 20
0.0
 30
0.0
  3
*Paper_Space
  1

  0
ENDBLK
  5
9B
330
6B
100
AcDbEntity
 67
     1
  8
0
100
AcDbBlockEnd
  0
BLOCK
  5
9E
330
73
100
AcDbEntity
  8
0
100
AcDbBlockBegin
  2
TPFEIL
 70
     0
 10
0.0
 20
0.0
 30
0.0
  3
TPFEIL
  1

  0
LWPOLYLINE
  5
9F
330
73
100
AcDbEntity
  8
GRABUNGSGRENZE
100
AcDbPolyline
 90
        2
 70
     0
 10
0.0
 20
-10.0
 40
5.0
 41
0.0
 10
0.0
 20
0.0
 40
0.0
 41
0.0
  0
ENDBLK
  5
A3
330
73
100
AcDbEntity
  8
0
100
AcDbBlockEnd
  0
BLOCK
  5
A4
330
74
100
AcDbEntity
  8
0
100
AcDbBlockBegin
  2
*X1
 70
     1
 10
0.0
 20
0.0
 30
0.0
  3
*X1
  1

  0
LINE
  5
A5
330
74
100
AcDbEntity
  8
0
 62
     0
100
AcDbLine
 10
-1005.843526547208
 20
-1267.119482195638
 30
0.0
 11
-1004.865603165345
 21
-1266.141558813774
 31
0.0
  0
LINE
  5
A6
330
74
100
AcDbEntity
  8
0
 62
     0
100
AcDbLine
 10
-1005.975964708029
 20
-1266.898366965865
 30
0.0
 11
-1005.203817573398
 21
-1266.126219831234
 31
0.0
  0
LINE
  5
A7
330
74
100
AcDbEntity
  8
0
 62
     0
100
AcDbLine
 10
-1006.108402868849
 20
-1266.677251736092
 30
0.0
 11
-1005.768711015607
 21
-1266.33755988285
 31
0.0
  0
LINE
  5
A8
330
74
100
AcDbEntity
  8
0
 62
     0
100
AcDbLine
 10
-1006.262056837804
 20
-1266.477352314454
 30
0.0
 11
-1006.245679065681
 21
-1266.460974542331
 31
0.0
  0
LINE
  5
A9
330
74
100
AcDbEntity
  8
0
 62
     0
100
AcDbLine
 10
-1006.493401307501
 20
-1266.355143393557
 30
0.0
 11
-1006.400671742508
 21
-1266.262413828565
 31
0.0
  0
LINE
  5
AA
330
74
100
AcDbEntity
  8
0
 62
     0
100
AcDbLine
 10
-1006.724745777198
 20
-1266.232934472661
 30
0.0
 11
-1006.555664419335
 21
-1266.063853114798
 31
0.0
  0
LINE
  5
AB
330
74
100
AcDbEntity
  8
0
 62
     0
100
AcDbLine
 10
-1006.956090246895
 20
-1266.110725551765
 30
0.0
 11
-1006.710657096162
 21
-1265.865292401032
 31
0.0
  0
LINE
  5
AC
330
74
100
AcDbEntity
  8
0
 62
     0
100
AcDbLine
 10
-1007.187434716592
 20
-1265.988516630869
 30
0.0
 11
-1006.865649772989
 21
-1265.666731687266
 31
0.0
  0
LINE
  5
AD
330
74
100
AcDbEntity
  8
0
 62
     0
100
AcDbLine
 10
-1007.418779186289
 20
-1265.866307709973
 30
0.0
 11
-1007.020642449816
 21
-1265.4681709735
 31
0.0
  0
LINE
  5
AE
330
74
100
AcDbEntity
  8
0
 62
     0
100
AcDbLine
 10
-1007.650123655986
 20
-1265.744098789076
 30
0.0
 11
-1007.175635126643
 21
-1265.269610259733
 31
0.0
  0
LINE
  5
AF
330
74
100
AcDbEntity
  8
0
 62
     0
100
AcDbLine
 10
-1007.881468125683
 20
-1265.62188986818
 30
0.0
 11
-1007.33062780347
 21
-1265.071049545967
 31
0.0
  0
LINE
  5
B0
330
74
100
AcDbEntity
  8
0
 62
     0
100
AcDbLine
 10
-1008.11281259538
 20
-1265.499680947284
 30
0.0
 11
-1007.485620480297
 21
-1264.872488832201
 31
0.0
  0
LINE
  5
B1
330
74
100
AcDbEntity
  8
0
 62
     0
100
AcDbLine
 10
-1008.344157065077
 20
-1265.377472026387
 30
0.0
 11
-1007.640613157124
 21
-1264.673928118434
 31
0.0
  0
LINE
  5
B2
330
74
100
AcDbEntity
  8
0
 62
     0
100
AcDbLine
 10
-1008.575501534775
 20
-1265.255263105491
 30
0.0
 11
-1007.795605833951
 21
-1264.475367404668
 31
0.0
  0
LINE
  5
B3
330
74
100
AcDbEntity
  8
0
 62
     0
100
AcDbLine
 10
-1008.806846004472
 20
-1265.133054184595
 30
0.0
 11
-1007.950598510778
 21
-1264.276806690902
 31
0.0
  0
LINE
  5
B4
330
74
100
AcDbEntity
  8
0
 62
     0
100
AcDbLine
 10
-1009.01656661513
 20
-1264.98922140466
 30
0.0
 11
-1008.105591187606
 21
-1264.078245977136
 31
0.0
  0
LINE
  5
B5
330
74
100
AcDbEntity
  8
0
 62
     0
100
AcDbLine
 10
-1008.712381832632
 20
-1264.331483231569
 30
0.0
 11
-1008.260583864432
 21
-1263.87968526337
 31
0.0
  0
LINE
  5
B6
330
74
100
AcDbEntity
  8
0
 62
     0
100
AcDbLine
 10
-982.9191868304253
 20
-1236.063414495209
 30
0.0
 11
-982.839496432458
 21
-1235.983724097242
 31
0.0
  0
LINE
  5
B7
330
74
100
AcDbEntity
  8
0
 62
     0
100
AcDbLine
 10
-983.3403354038617
 20
-1236.131009678052
 30
0.0
 11
-983.0235027491633
 21
-1235.814177023354
 31
0.0
  0
LINE
  5
B8
330
74
100
AcDbEntity
  8
0
 62
     0
100
AcDbLine
 10
-983.761483977298
 20
-1236.198604860895
 30
0.0
 11
-983.2075090658687
 21
-1235.644629949466
 31
0.0
  0
LINE
  5
B9
330
74
100
AcDbEntity
  8
0
 62
     0
100
AcDbLine
 10
-984.1826325507344
 20
-1236.266200043738
 30
0.0
 11
-983.391515382574
 21
-1235.475082875578
 31
0.0
  0
LINE
  5
BA
330
74
100
AcDbEntity
  8
0
 62
     0
100
AcDbLine
 10
-984.5465636061307
 20
-1236.276577708542
 30
0.0
 11
-983.5755216992794
 21
-1235.30553580169
 31
0.0
  0
LINE
  5
BB
330
74
100
AcDbEntity
  8
0
 62
     0
100
AcDbLine
 10
-984.8663975200535
 20
-1236.242858231871
 30
0.0
 11
-983.7595280159849
 21
-1235.135988727802
 31
0.0
  0
LINE
  5
BC
330
74
100
AcDbEntity
  8
0
 62
     0
100
AcDbLine
 10
-982.1111361047755
 20
-1233.487596816593
 30
0.0
 11
-980.5992248090573
 21
-1231.975685520875
 31
0.0
  0
LINE
  5
BD
330
74
100
AcDbEntity
  8
0
 62
     0
100
AcDbLine
 10
-985.1862314339765
 20
-1236.2091387552
 30
0.0
 11
-983.9435343326902
 21
-1234.966441653914
 31
0.0
  0
LINE
  5
BE
330
74
100
AcDbEntity
  8
0
 62
     0
100
AcDbLine
 10
-982.3871709441979
 20
-1233.410078265422
 30
0.0
 11
-980.8275205735014
 21
-1231.850427894725
 31
0.0
  0
LINE
  5
BF
330
74
100
AcDbEntity
  8
0
 62
     0
100
AcDbLine
 10
-985.5060653478993
 20
-1236.17541927853
 30
0.0
 11
-984.1681931514841
 21
-1234.837547082115
 31
0.0
  0
LINE
  5
C0
330
74
100
AcDbEntity
  8
0
 62
     0
100
AcDbLine
 10
-982.6632057836203
 20
-1233.332559714251
 30
0.0
 11
-981.0862959552389
 21
-1231.75564988587
 31
0.0
  0
LINE
  5
C1
330
74
100
AcDbEntity
  8
0
 62
     0
100
AcDbLine
 10
-985.8258992618221
 20
-1236.14169980186
 30
0.0
 11
-984.4589457217972
 21
-1234.774746261835
 31
0.0
  0
LINE
  5
C2
330
74
100
AcDbEntity
  8
0
 62
     0
100
AcDbLine
 10
-982.9392406230429
 20
-1233.25504116308
 30
0.0
 11
-981.3450713369764
 21
-1231.660871877014
 31
0.0
  0
LINE
  5
C3
330
74
100
AcDbEntity
  8
0
 62
     0
100
AcDbLine
 10
-986.1457331757447
 20
-1236.107980325189
 30
0.0
 11
-984.7496982921104
 21
-1234.711945441555
 31
0.0
  0
LINE
  5
C4
330
74
100
AcDbEntity
  8
0
 62
     0
100
AcDbLine
 10
-983.2152754624653
 20
-1233.17752261191
 30
0.0
 11
-981.6038467187137
 21
-1231.566093868158
 31
0.0
  0
LINE
  5
C5
330
74
100
AcDbEntity
  8
0
 62
     0
100
AcDbLine
 10
-986.4655670896675
 20
-1236.074260848519
 30
0.0
 11
-985.0404508624235
 21
-1234.649144621275
 31
0.0
  0
LINE
  5
C6
330
74
100
AcDbEntity
  8
0
 62
     0
100
AcDbLine
 10
-983.2362615977226
 20
-1232.844955356574
 30
0.0
 11
-981.8626221004512
 21
-1231.471315859302
 31
0.0
  0
LINE
  5
C7
330
74
100
AcDbEntity
  8
0
 62
     0
100
AcDbLine
 10
-986.7854010035904
 20
-1236.040541371848
 30
0.0
 11
-985.3312034327364
 21
-1234.586343800994
 31
0.0
  0
LINE
  5
C8
330
74
100
AcDbEntity
  8
0
 62
     0
100
AcDbLine
 10
-983.2359897032926
 20
-1232.49113007155
 30
0.0
 11
-982.1213974821885
 21
-1231.376537850446
 31
0.0
  0
LINE
  5
C9
330
74
100
AcDbEntity
  8
0
 62
     0
100
AcDbLine
 10
-984.6739137340984
 20
-1233.929054102356
 30
0.0
 11
-983.7546494994983
 21
-1233.009789867756
 31
0.0
  0
LINE
  5
CA
330
74
100
AcDbEntity
  8
0
 62
     0
100
AcDbLine
 10
-987.1052349175132
 20
-1236.006821895178
 30
0.0
 11
-985.6219560030494
 21
-1234.523542980714
 31
0.0
  0
LINE
  5
CB
330
74
100
AcDbEntity
  8
0
 62
     0
100
AcDbLine
 10
-983.2357178088624
 20
-1232.137304786527
 30
0.0
 11
-982.380172863926
 21
-1231.28175984159
 31
0.0
  0
LINE
  5
CC
330
74
100
AcDbEntity
  8
0
 62
     0
100
AcDbLine
 10
-984.8391490663784
 20
-1233.740736044043
 30
0.0
 11
-983.909191129339
 21
-1232.810778107003
 31
0.0
  0
LINE
  5
CD
330
74
100
AcDbEntity
  8
0
 62
     0
100
AcDbLine
 10
-987.425068831436
 20
-1235.973102418507
 30
0.0
 11
-985.9127085733625
 21
-1234.460742160434
 31
0.0
  0
LINE
  5
CE
330
74
100
AcDbEntity
  8
0
 62
     0
100
AcDbLine
 10
-983.2354459144324
 20
-1231.783479501504
 30
0.0
 11
-982.6389482456633
 21
-1231.186981832735
 31
0.0
  0
LINE
  5
CF
330
74
100
AcDbEntity
  8
0
 62
     0
100
AcDbLine
 10
-985.0043843986584
 20
-1233.55241798573
 30
0.0
 11
-984.0637327591796
 21
-1232.611766346251
 31
0.0
  0
LINE
  5
D0
330
74
100
AcDbEntity
  8
0
 62
     0
100
AcDbLine
 10
-987.7449027453589
 20
-1235.939382941837
 30
0.0
 11
-986.2034611436756
 21
-1234.397941340154
 31
0.0
  0
LINE
  5
D1
330
74
100
AcDbEntity
  8
0
 62
     0
100
AcDbLine
 10
-983.2351740200023
 20
-1231.42965421648
 30
0.0
 11
-982.8977236274008
 21
-1231.092203823879
 31
0.0
  0
LINE
  5
D2
330
74
100
AcDbEntity
  8
0
 62
     0
100
AcDbLine
 10
-985.1696197309385
 20
-1233.364099927416
 30
0.0
 11
-984.2182743890203
 21
-1232.412754585498
 31
0.0
  0
LINE
  5
D3
330
74
100
AcDbEntity
  8
0
 62
     0
100
AcDbLine
 10
-988.0647366592816
 20
-1235.905663465166
 30
0.0
 11
-986.4942137139887
 21
-1234.335140519873
 31
0.0
  0
LINE
  5
D4
330
74
100
AcDbEntity
  8
0
 62
     0
100
AcDbLine
 10
-983.2349021255721
 20
-1231.075828931457
 30
0.0
 11
-983.1564990091383
 21
-1230.997425815023
 31
0.0
  0
LINE
  5
D5
330
74
100
AcDbEntity
  8
0
 62
     0
100
AcDbLine
 10
-985.3348550632185
 20
-1233.175781869103
 30
0.0
 11
-984.3728160188609
 21
-1232.213742824746
 31
0.0
  0
LINE
  5
D6
330
74
100
AcDbEntity
  8
0
 62
     0
100
AcDbLine
 10
-988.3845705732044
 20
-1235.871943988496
 30
0.0
 11
-986.7849662843019
 21
-1234.272339699593
 31
0.0
  0
LINE
  5
D7
330
74
100
AcDbEntity
  8
0
 62
     0
100
AcDbLine
 10
-985.5000903954985
 20
-1232.98746381079
 30
0.0
 11
-984.5273576487015
 21
-1232.014731063993
 31
0.0
  0
LINE
  5
D8
330
74
100
AcDbEntity
  8
0
 62
     0
100
AcDbLine
 10
-988.7044044871272
 20
-1235.838224511825
 30
0.0
 11
-987.0757188546148
 21
-1234.209538879313
 31
0.0
  0
LINE
  5
D9
330
74
100
AcDbEntity
  8
0
 62
     0
100
AcDbLine
 10
-985.6653257277788
 20
-1232.799145752477
 30
0.0
 11
-984.6818992785422
 21
-1231.81571930324
 31
0.0
  0
LINE
  5
DA
330
74
100
AcDbEntity
  8
0
 62
     0
100
AcDbLine
 10
-989.1540716512036
 20
-1235.934338285308
 30
0.0
 11
-987.3664714249279
 21
-1234.146738059033
 31
0.0
  0
LINE
  5
DB
330
74
100
AcDbEntity
  8
0
 62
     0
100
AcDbLine
 10
-985.8305610600588
 20
-1232.610827694164
 30
0.0
 11
-984.8853917965556
 21
-1231.66565843066
 31
0.0
  0
LINE
  5
DC
330
74
100
AcDbEntity
  8
0
 62
     0
100
AcDbLine
 10
-989.6380240028708
 20
-1236.064737246383
 30
0.0
 11
-987.6572239952409
 21
-1234.083937238753
 31
0.0
  0
LINE
  5
DD
330
74
100
AcDbEntity
  8
0
 62
     0
100
AcDbLine
 10
-985.9957963923388
 20
-1232.42250963585
 30
0.0
 11
-985.620466953153
 21
-1232.047180196665
 31
0.0
  0
LINE
  5
DE
330
74
100
AcDbEntity
  8
0
 62
     0
100
AcDbLine
 10
-990.121976354538
 20
-1236.195136207456
 30
0.0
 11
-987.947976565554
 21
-1234.021136418472
 31
0.0
  0
LINE
  5
DF
330
74
100
AcDbEntity
  8
0
 62
     0
100
AcDbLine
 10
-990.6059287062053
 20
-1236.32553516853
 30
0.0
 11
-988.2615976340787
 21
-1233.981204096404
 31
0.0
  0
LINE
  5
E0
330
74
100
AcDbEntity
  8
0
 62
     0
100
AcDbLine
 10
-991.0058019762338
 20
-1236.371855047966
 30
0.0
 11
-988.6016408783753
 21
-1233.967693950107
 31
0.0
  0
LINE
  5
E1
330
74
100
AcDbEntity
  8
0
 62
     0
100
AcDbLine
 10
-991.3935188140296
 20
-1236.406018495168
 30
0.0
 11
-988.9416841226719
 21
-1233.95418380381
 31
0.0
  0
LINE
  5
E2
330
74
100
AcDbEntity
  8
0
 62
     0
100
AcDbLine
 10
-991.7812356518256
 20
-1236.440181942371
 30
0.0
 11
-989.2817273669685
 21
-1233.940673657514
 31
0.0
  0
LINE
  5
E3
330
74
100
AcDbEntity
  8
0
 62
     0
100
AcDbLine
 10
-992.1689524896214
 20
-1236.474345389573
 30
0.0
 11
-989.6217706112651
 21
-1233.927163511217
 31
0.0
  0
LINE
  5
E4
330
74
100
AcDbEntity
  8
0
 62
     0
100
AcDbLine
 10
-992.5566693274172
 20
-1236.508508836776
 30
0.0
 11
-989.9618138555617
 21
-1233.91365336492
 31
0.0
  0
LINE
  5
E5
330
74
100
AcDbEntity
  8
0
 62
     0
100
AcDbLine
 10
-992.9443861652131
 20
-1236.542672283979
 30
0.0
 11
-990.3018570998582
 21
-1233.900143218624
 31
0.0
  0
LINE
  5
E6
330
74
100
AcDbEntity
  8
0
 62
     0
100
AcDbLine
 10
-993.0837246749719
 20
-1236.328457403144
 30
0.0
 11
-990.6419003441548
 21
-1233.886633072327
 31
0.0
  0
LINE
  5
E7
330
74
100
AcDbEntity
  8
0
 62
     0
100
AcDbLine
 10
-993.2036495557264
 20
-1236.094828893305
 30
0.0
 11
-990.9819435884514
 21
-1233.87312292603
 31
0.0
  0
LINE
  5
E8
330
74
100
AcDbEntity
  8
0
 62
     0
100
AcDbLine
 10
-987.1086870738404
 20
-1229.999866411419
 30
0.0
 11
-987.0057176688797
 21
-1229.896897006458
 31
0.0
  0
LINE
  5
E9
330
74
100
AcDbEntity
  8
0
 62
     0
100
AcDbLine
 10
-993.3235744364809
 20
-1235.861200383467
 30
0.0
 11
-991.321986832748
 21
-1233.859612779734
 31
0.0
  0
LINE
  5
EA
330
74
100
AcDbEntity
  8
0
 62
     0
100
AcDbLine
 10
-987.7331953952081
 20
-1230.270821342194
 30
0.0
 11
-987.1538426000524
 21
-1229.691468547038
 31
0.0
  0
LINE
  5
EB
330
74
100
AcDbEntity
  8
0
 62
     0
100
AcDbLine
 10
-993.4434993172354
 20
-1235.627571873628
 30
0.0
 11
-991.6620300770446
 21
-1233.846102633437
 31
0.0
  0
LINE
  5
EC
330
74
100
AcDbEntity
  8
0
 62
     0
100
AcDbLine
 10
-988.2206878020149
 20
-1230.404760358407
 30
0.0
 11
-987.3019675312253
 21
-1229.486040087618
 31
0.0
  0
LINE
  5
ED
330
74
100
AcDbEntity
  8
0
 62
     0
100
AcDbLine
 10
-993.5634241979899
 20
-1235.393943363789
 30
0.0
 11
-992.0020733213412
 21
-1233.83259248714
 31
0.0
  0
LINE
  5
EE
330
74
100
AcDbEntity
  8
0
 62
     0
100
AcDbLine
 10
-988.4285203305648
 20
-1230.259039496364
 30
0.0
 11
-987.4500924623983
 21
-1229.280611628197
 31
0.0
  0
LINE
  5
EF
330
74
100
AcDbEntity
  8
0
 62
     0
100
AcDbLine
 10
-993.6833490787444
 20
-1235.16031485395
 30
0.0
 11
-992.6581119284719
 21
-1234.135077703678
 31
0.0
  0
LINE
  5
F0
330
74
100
AcDbEntity
  8
0
 62
     0
100
AcDbLine
 10
-988.6363528591147
 20
-1230.113318634321
 30
0.0
 11
-987.5982173935712
 21
-1229.075183168777
 31
0.0
  0
LINE
  5
F1
330
74
100
AcDbEntity
  8
0
 62
     0
100
AcDbLine
 10
-993.8032739594989
 20
-1234.926686344111
 30
0.0
 11
-993.3638634066024
 21
-1234.487275791215
 31
0.0
  0
LINE
  5
F2
330
74
100
AcDbEntity
  8
0
 62
     0
100
AcDbLine
 10
-988.8441853876646
 20
-1229.967597772277
 30
0.0
 11
-987.787246886806
 21
-1228.910659271419
 31
0.0
  0
LINE
  5
F3
330
74
100
AcDbEntity
  8
0
 62
     0
100
AcDbLine
 10
-989.0520179162146
 20
-1229.821876910234
 30
0.0
 11
-987.9917964793687
 21
-1228.761655473388
 31
0.0
  0
LINE
  5
F4
330
74
100
AcDbEntity
  8
0
 62
     0
100
AcDbLine
 10
-989.108823786166
 20
-1229.525129389592
 30
0.0
 11
-988.1963460719315
 21
-1228.612651675358
 31
0.0
  0
LINE
  5
F5
330
74
100
AcDbEntity
  8
0
 62
     0
100
AcDbLine
 10
-988.940699160274
 20
-1229.003451373107
 30
0.0
 11
-988.252053957869
 21
-1228.314806170702
 31
0.0
  0
LINE
  5
F6
330
74
100
AcDbEntity
  8
0
 62
     0
100
AcDbLine
 10
-988.772574534382
 20
-1228.481773356621
 30
0.0
 11
-988.303409716271
 21
-1228.01260853851
 31
0.0
  0
LINE
  5
F7
330
74
100
AcDbEntity
  8
0
 62
     0
100
AcDbLine
 10
-988.8022362715492
 20
-1228.157881703195
 30
0.0
 11
-988.3547654746728
 21
-1227.710410906319
 31
0.0
  0
LINE
  5
F8
330
74
100
AcDbEntity
  8
0
 62
     0
100
AcDbLine
 10
-988.9370859262861
 20
-1227.939177967339
 30
0.0
 11
-988.4061212330747
 21
-1227.408213274127
 31
0.0
  0
LINE
  5
F9
330
74
100
AcDbEntity
  8
0
 62
     0
100
AcDbLine
 10
-989.0719355810229
 20
-1227.720474231483
 30
0.0
 11
-988.4574769914765
 21
-1227.106015641936
 31
0.0
  0
LINE
  5
FA
330
74
100
AcDbEntity
  8
0
 62
     0
100
AcDbLine
 10
-989.2067852357596
 20
-1227.501770495626
 30
0.0
 11
-988.5088327498785
 21
-1226.803818009745
 31
0.0
  0
LINE
  5
FB
330
74
100
AcDbEntity
  8
0
 62
     0
100
AcDbLine
 10
-989.3416348904965
 20
-1227.28306675977
 30
0.0
 11
-988.5666569061113
 21
-1226.508088775384
 31
0.0
  0
LINE
  5
FC
330
74
100
AcDbEntity
  8
0
 62
     0
100
AcDbLine
 10
-989.4764845452334
 20
-1227.064363023913
 30
0.0
 11
-988.9352860930786
 21
-1226.523164571759
 31
0.0
  0
LINE
  5
FD
330
74
100
AcDbEntity
  8
0
 62
     0
100
AcDbLine
 10
-989.6113341999702
 20
-1226.845659288057
 30
0.0
 11
-989.3039152800461
 21
-1226.538240368133
 31
0.0
  0
LINE
  5
FE
330
74
100
AcDbEntity
  8
0
 62
     0
100
AcDbLine
 10
-989.7461838547071
 20
-1226.6269555522
 30
0.0
 11
-989.6725444670137
 21
-1226.553316164507
 31
0.0
  0
LINE
  5
FF
330
74
100
AcDbEntity
  8
0
 62
     0
100
AcDbLine
 10
-1012.478936297338
 20
-1224.964524043896
 30
0.0
 11
-1012.287838198765
 21
-1224.773425945323
 31
0.0
  0
LINE
  5
100
330
74
100
AcDbEntity
  8
0
 62
     0
100
AcDbLine
 10
-1012.992565759772
 20
-1225.124600115736
 30
0.0
 11
-1012.316273340359
 21
-1224.448307696323
 31
0.0
  0
LINE
  5
101
330
74
100
AcDbEntity
  8
0
 62
     0
100
AcDbLine
 10
-1013.220991937979
 20
-1224.99947290335
 30
0.0
 11
-1012.344708481953
 21
-1224.123189447324
 31
0.0
  0
LINE
  5
102
330
74
100
AcDbEntity
  8
0
 62
     0
100
AcDbLine
 10
-1013.377075511834
 20
-1224.802003086612
 30
0.0
 11
-1012.373143623547
 21
-1223.798071198325
 31
0.0
  0
LINE
  5
103
330
74
100
AcDbEntity
  8
0
 62
     0
100
AcDbLine
 10
-1013.533159085688
 20
-1224.604533269873
 30
0.0
 11
-1012.401578765141
 21
-1223.472952949325
 31
0.0
  0
LINE
  5
104
330
74
100
AcDbEntity
  8
0
 62
     0
100
AcDbLine
 10
-1013.689242659543
 20
-1224.407063453134
 30
0.0
 11
-1012.430013906735
 21
-1223.147834700326
 31
0.0
  0
LINE
  5
105
330
74
100
AcDbEntity
  8
0
 62
     0
100
AcDbLine
 10
-1013.845326233398
 20
-1224.209593636396
 30
0.0
 11
-1012.458449048328
 21
-1222.822716451327
 31
0.0
  0
LINE
  5
106
330
74
100
AcDbEntity
  8
0
 62
     0
100
AcDbLine
 10
-1014.001409807252
 20
-1224.012123819657
 30
0.0
 11
-1012.486884189923
 21
-1222.497598202327
 31
0.0
  0
LINE
  5
107
330
74
100
AcDbEntity
  8
0
 62
     0
100
AcDbLine
 10
-1014.091060520829
 20
-1223.74822114264
 30
0.0
 11
-1012.515319331516
 21
-1222.172479953328
 31
0.0
  0
LINE
  5
108
330
74
100
AcDbEntity
  8
0
 62
     0
100
AcDbLine
 10
-1014.130126081287
 20
-1223.433733312505
 30
0.0
 11
-1012.54375447311
 21
-1221.847361704328
 31
0.0
  0
LINE
  5
109
330
74
100
AcDbEntity
  8
0
 62
     0
100
AcDbLine
 10
-1014.169191641746
 20
-1223.119245482371
 30
0.0
 11
-1012.572189614704
 21
-1221.522243455329
 31
0.0
  0
LINE
  5
10A
330
74
100
AcDbEntity
  8
0
 62
     0
100
AcDbLine
 10
-1014.208257202204
 20
-1222.804757652236
 30
0.0
 11
-1013.671768531306
 21
-1222.268268981338
 31
0.0
  0
LINE
  5
10B
330
74
100
AcDbEntity
  8
0
 62
     0
100
AcDbLine
 10
-1005.711088386388
 20
-1267.340597425411
 30
0.0
 11
-1004.673299612206
 21
-1266.302808651229
 31
0.0
  0
LINE
  5
10C
330
74
100
AcDbEntity
  8
0
 62
     0
100
AcDbLine
 10
-1005.578650225568
 20
-1267.561712655184
 30
0.0
 11
-1004.480996059067
 21
-1266.464058488683
 31
0.0
  0
LINE
  5
10D
330
74
100
AcDbEntity
  8
0
 62
     0
100
AcDbLine
 10
-1005.446212064748
 20
-1267.782827884957
 30
0.0
 11
-1004.288692505928
 21
-1266.625308326138
 31
0.0
  0
LINE
  5
10E
330
74
100
AcDbEntity
  8
0
 62
     0
100
AcDbLine
 10
-1005.313773903928
 20
-1268.00394311473
 30
0.0
 11
-1004.09638895279
 21
-1266.786558163592
 31
0.0
  0
LINE
  5
10F
330
74
100
AcDbEntity
  8
0
 62
     0
100
AcDbLine
 10
-1005.181335743108
 20
-1268.225058344504
 30
0.0
 11
-1003.904085399651
 21
-1266.947808001046
 31
0.0
  0
LINE
  5
110
330
74
100
AcDbEntity
  8
0
 62
     0
100
AcDbLine
 10
-1004.850299073029
 20
-1268.247575065018
 30
0.0
 11
-1003.711781846512
 21
-1267.109057838501
 31
0.0
  0
LINE
  5
111
330
74
100
AcDbEntity
  8
0
 62
     0
100
AcDbLine
 10
-1004.422723104583
 20
-1268.173552487166
 30
0.0
 11
-1003.519478293373
 21
-1267.270307675955
 31
0.0
  0
LINE
  5
112
330
74
100
AcDbEntity
  8
0
 62
     0
100
AcDbLine
 10
-1003.995147136138
 20
-1268.099529909314
 30
0.0
 11
-1003.327174740234
 21
-1267.43155751341
 31
0.0
  0
LINE
  5
113
330
74
100
AcDbEntity
  8
0
 62
     0
100
AcDbLine
 10
-1003.567571167693
 20
-1268.025507331462
 30
0.0
 11
-1003.134871187095
 21
-1267.592807350864
 31
0.0
  0
LINE
  5
114
330
74
100
AcDbEntity
  8
0
 62
     0
100
AcDbLine
 10
-1003.139995199248
 20
-1267.951484753609
 30
0.0
 11
-1002.942567633956
 21
-1267.754057188318
 31
0.0
  0
LINE
  5
115
330
74
100
AcDbEntity
  8
0
 62
     0
100
AcDbLine
 10
-1002.417115028098
 20
-1267.22860458246
 30
0.0
 11
-1002.13628120149
 21
-1266.947770755852
 31
0.0
  0
LINE
  5
116
330
74
100
AcDbEntity
  8
0
 62
     0
100
AcDbLine
 10
-1002.754137633081
 20
-1267.919180578036
 30
0.0
 11
-1001.961582967539
 21
-1267.126625912495
 31
0.0
  0
LINE
  5
117
330
74
100
AcDbEntity
  8
0
 62
     0
100
AcDbLine
 10
-1004.245853551116
 20
-1269.764449886665
 30
0.0
 11
-1003.799428906289
 21
-1269.318025241837
 31
0.0
  0
LINE
  5
118
330
74
100
AcDbEntity
  8
0
 62
     0
100
AcDbLine
 10
-1002.585915031419
 20
-1268.104511366967
 30
0.0
 11
-1001.786884733589
 21
-1267.305481069137
 31
0.0
  0
LINE
  5
119
330
74
100
AcDbEntity
  8
0
 62
     0
100
AcDbLine
 10
-1004.195551186826
 20
-1270.067700912968
 30
0.0
 11
-1003.133576698731
 21
-1269.005726424873
 31
0.0
  0
LINE
  5
11A
330
74
100
AcDbEntity
  8
0
 62
     0
100
AcDbLine
 10
-1002.417692429756
 20
-1268.289842155899
 30
0.0
 11
-1001.612186499638
 21
-1267.48433622578
 31
0.0
  0
LINE
  5
11B
330
74
100
AcDbEntity
  8
0
 62
     0
100
AcDbLine
 10
-1004.145248822537
 20
-1270.370951939272
 30
0.0
 11
-1002.996627280938
 21
-1269.222330397673
 31
0.0
  0
LINE
  5
11C
330
74
100
AcDbEntity
  8
0
 62
     0
100
AcDbLine
 10
-1002.246868476651
 20
-1268.472571593387
 30
0.0
 11
-1001.437488265688
 21
-1267.663191382423
 31
0.0
  0
LINE
  5
11D
330
74
100
AcDbEntity
  8
0
 62
     0
100
AcDbLine
 10
-1004.094946458247
 20
-1270.674202965575
 30
0.0
 11
-1002.859677863144
 21
-1269.438934370472
 31
0.0
  0
LINE
  5
11E
330
74
100
AcDbEntity
  8
0
 62
     0
100
AcDbLine
 10
-1002.056630212498
 20
-1268.635886719827
 30
0.0
 11
-1001.262790031737
 21
-1267.842046539065
 31
0.0
  0
LINE
  5
11F
330
74
100
AcDbEntity
  8
0
 62
     0
100
AcDbLine
 10
-1004.044644093957
 20
-1270.977453991879
 30
0.0
 11
-1002.72272844535
 21
-1269.655538343272
 31
0.0
  0
LINE
  5
120
330
74
100
AcDbEntity
  8
0
 62
     0
100
AcDbLine
 10
-1001.866391948345
 20
-1268.799201846267
 30
0.0
 11
-1001.088091797786
 21
-1268.020901695708
 31
0.0
  0
LINE
  5
121
330
74
100
AcDbEntity
  8
0
 62
     0
100
AcDbLine
 10
-1003.792653640311
 20
-1271.079016928826
 30
0.0
 11
-1002.585779027556
 21
-1269.872142316071
 31
0.0
  0
LINE
  5
122
330
74
100
AcDbEntity
  8
0
 62
     0
100
AcDbLine
 10
-1001.676153684192
 20
-1268.962516972707
 30
0.0
 11
-1000.913393563836
 21
-1268.199756852351
 31
0.0
  0
LINE
  5
123
330
74
100
AcDbEntity
  8
0
 62
     0
100
AcDbLine
 10
-1003.204271853494
 20
-1270.844188532602
 30
0.0
 11
-1002.448829609763
 21
-1270.088746288871
 31
0.0
  0
LINE
  5
124
330
74
100
AcDbEntity
  8
0
 62
     0
100
AcDbLine
 10
-1001.485915420038
 20
-1269.125832099146
 30
0.0
 11
-1000.738695329885
 21
-1268.378612008993
 31
0.0
  0
LINE
  5
125
330
74
100
AcDbEntity
  8
0
 62
     0
100
AcDbLine
 10
-1002.615890066677
 20
-1270.609360136379
 30
0.0
 11
-1002.311880191969
 21
-1270.30535026167
 31
0.0
  0
LINE
  5
126
330
74
100
AcDbEntity
  8
0
 62
     0
100
AcDbLine
 10
-1001.295677155885
 20
-1269.289147225586
 30
0.0
 11
-1000.563997095935
 21
-1268.557467165636
 31
0.0
  0
LINE
  5
127
330
74
100
AcDbEntity
  8
0
 62
     0
100
AcDbLine
 10
-1001.105438891731
 20
-1269.452462352026
 30
0.0
 11
-1000.389298861984
 21
-1268.736322322278
 31
0.0
  0
LINE
  5
128
330
74
100
AcDbEntity
  8
0
 62
     0
100
AcDbLine
 10
-1000.915200627578
 20
-1269.615777478466
 30
0.0
 11
-1000.214600628033
 21
-1268.915177478922
 31
0.0
  0
LINE
  5
129
330
74
100
AcDbEntity
  8
0
 62
     0
100
AcDbLine
 10
-1000.724962363425
 20
-1269.779092604906
 30
0.0
 11
-1000.039902394083
 21
-1269.094032635564
 31
0.0
  0
LINE
  5
12A
330
74
100
AcDbEntity
  8
0
 62
     0
100
AcDbLine
 10
-1000.534724099272
 20
-1269.942407731346
 30
0.0
 11
-1000.18348482856
 21
-1269.591168460635
 31
0.0
  0
LINE
  5
12B
330
74
100
AcDbEntity
  8
0
 62
     0
100
AcDbLine
 10
-963.9406743993649
 20
-1252.793794514069
 30
0.0
 11
-963.3044571513556
 21
-1252.15757726606
 31
0.0
  0
LINE
  5
12C
330
74
100
AcDbEntity
  8
0
 62
     0
100
AcDbLine
 10
-963.8903720350752
 20
-1253.097045540373
 30
0.0
 11
-962.5987056732251
 21
-1251.805379178523
 31
0.0
  0
LINE
  5
12D
330
74
100
AcDbEntity
  8
0
 62
     0
100
AcDbLine
 10
-963.8400696707854
 20
-1253.400296566677
 30
0.0
 11
-962.0822229610924
 21
-1251.642449856984
 31
0.0
  0
LINE
  5
12E
330
74
100
AcDbEntity
  8
0
 62
     0
100
AcDbLine
 10
-963.5418012204375
 20
-1253.455581506922
 30
0.0
 11
-961.6690114365161
 21
-1251.582791723
 31
0.0
  0
LINE
  5
12F
330
74
100
AcDbEntity
  8
0
 62
     0
100
AcDbLine
 10
-963.224731251813
 20
-1253.492064928891
 30
0.0
 11
-961.2557999119397
 21
-1251.523133589018
 31
0.0
  0
LINE
  5
130
330
74
100
AcDbEntity
  8
0
 62
     0
100
AcDbLine
 10
-962.9076612831886
 20
-1253.52854835086
 30
0.0
 11
-960.8425883873636
 21
-1251.463475455034
 31
0.0
  0
LINE
  5
131
330
74
100
AcDbEntity
  8
0
 62
     0
100
AcDbLine
 10
-962.5905913145642
 20
-1253.565031772828
 30
0.0
 11
-960.4293768627872
 21
-1251.403817321051
 31
0.0
  0
LINE
  5
132
330
74
100
AcDbEntity
  8
0
 62
     0
100
AcDbLine
 10
-962.2735213459396
 20
-1253.601515194797
 30
0.0
 11
-960.0161653382109
 21
-1251.344159187068
 31
0.0
  0
LINE
  5
133
330
74
100
AcDbEntity
  8
0
 62
     0
100
AcDbLine
 10
-961.8874220061959
 20
-1253.568969245647
 30
0.0
 11
-959.6029538136345
 21
-1251.284501053085
 31
0.0
  0
LINE
  5
134
330
74
100
AcDbEntity
  8
0
 62
     0
100
AcDbLine
 10
-962.4204221823354
 20
-1254.45552281238
 30
0.0
 11
-961.9485996684362
 21
-1253.98370029848
 31
0.0
  0
LINE
  5
135
330
74
100
AcDbEntity
  8
0
 62
     0
100
AcDbLine
 10
-961.3194645943684
 20
-1253.354565224412
 30
0.0
 11
-959.1897422890582
 21
-1251.224842919102
 31
0.0
  0
LINE
  5
136
330
74
100
AcDbEntity
  8
0
 62
     0
100
AcDbLine
 10
-962.4591256686922
 20
-1254.84777968933
 30
0.0
 11
-961.5881136773682
 21
-1253.976767698006
 31
0.0
  0
LINE
  5
137
330
74
100
AcDbEntity
  8
0
 62
     0
100
AcDbLine
 10
-960.7515071825408
 20
-1253.140161203178
 30
0.0
 11
-958.776530764482
 21
-1251.165184785119
 31
0.0
  0
LINE
  5
138
330
74
100
AcDbEntity
  8
0
 62
     0
100
AcDbLine
 10
-962.3414255135523
 20
-1255.083632924783
 30
0.0
 11
-961.2276276863003
 21
-1253.969835097531
 31
0.0
  0
LINE
  5
139
330
74
100
AcDbEntity
  8
0
 62
     0
100
AcDbLine
 10
-960.1835497707133
 20
-1252.925757181944
 30
0.0
 11
-958.3633192399057
 21
-1251.105526651136
 31
0.0
  0
LINE
  5
13A
330
74
100
AcDbEntity
  8
0
 62
     0
100
AcDbLine
 10
-962.2237253584124
 20
-1255.319486160236
 30
0.0
 11
-960.8671416952322
 21
-1253.962902497056
 31
0.0
  0
LINE
  5
13B
330
74
100
AcDbEntity
  8
0
 62
     0
100
AcDbLine
 10
-959.8129558224449
 20
-1252.908716624269
 30
0.0
 11
-957.9501077153294
 21
-1251.045868517153
 31
0.0
  0
LINE
  5
13C
330
74
100
AcDbEntity
  8
0
 62
     0
100
AcDbLine
 10
-962.1060252032725
 20
-1255.55533939569
 30
0.0
 11
-960.5066557041642
 21
-1253.955969896581
 31
0.0
  0
LINE
  5
13D
330
74
100
AcDbEntity
  8
0
 62
     0
100
AcDbLine
 10
-959.4556624917618
 20
-1252.904976684179
 30
0.0
 11
-957.536896190753
 21
-1250.98621038317
 31
0.0
  0
LINE
  5
13E
330
74
100
AcDbEntity
  8
0
 62
     0
100
AcDbLine
 10
-961.8974402166747
 20
-1255.700307799685
 30
0.0
 11
-960.1461697130963
 21
-1253.949037296107
 31
0.0
  0
LINE
  5
13F
330
74
100
AcDbEntity
  8
0
 62
     0
100
AcDbLine
 10
-959.0983691610786
 20
-1252.901236744089
 30
0.0
 11
-957.1236846661767
 21
-1250.926552249187
 31
0.0
  0
LINE
  5
140
330
74
100
AcDbEntity
  8
0
 62
     0
100
AcDbLine
 10
-961.5918723743787
 20
-1255.748293347982
 30
0.0
 11
-959.7856837220282
 21
-1253.942104695632
 31
0.0
  0
LINE
  5
141
330
74
100
AcDbEntity
  8
0
 62
     0
100
AcDbLine
 10
-958.7410758303954
 20
-1252.897496803999
 30
0.0
 11
-956.7104731416005
 21
-1250.866894115204
 31
0.0
  0
LINE
  5
142
330
74
100
AcDbEntity
  8
0
 62
     0
100
AcDbLine
 10
-961.2863045320828
 20
-1255.79627889628
 30
0.0
 11
-959.3875311284987
 21
-1253.897505492696
 31
0.0
  0
LINE
  5
143
330
74
100
AcDbEntity
  8
0
 62
     0
100
AcDbLine
 10
-958.3837824997123
 20
-1252.893756863909
 30
0.0
 11
-956.297261617024
 21
-1250.807235981221
 31
0.0
  0
LINE
  5
144
330
74
100
AcDbEntity
  8
0
 62
     0
100
AcDbLine
 10
-960.9807366897872
 20
-1255.844264444577
 30
0.0
 11
-958.9019463364621
 21
-1253.765474091252
 31
0.0
  0
LINE
  5
145
330
74
100
AcDbEntity
  8
0
 62
     0
100
AcDbLine
 10
-958.0264891690292
 20
-1252.890016923819
 30
0.0
 11
-955.9808819112749
 21
-1250.844409666065
 31
0.0
  0
LINE
  5
146
330
74
100
AcDbEntity
  8
0
 62
     0
100
AcDbLine
 10
-960.6751688474913
 20
-1255.892249992874
 30
0.0
 11
-958.4163615444255
 21
-1253.633442689809
 31
0.0
  0
LINE
  5
147
330
74
100
AcDbEntity
  8
0
 62
     0
100
AcDbLine
 10
-957.6691958383459
 20
-1252.886276983729
 30
0.0
 11
-955.9233564666918
 21
-1251.140437612075
 31
0.0
  0
LINE
  5
148
330
74
100
AcDbEntity
  8
0
 62
     0
100
AcDbLine
 10
-960.318220409464
 20
-1255.888854945441
 30
0.0
 11
-957.9307767523889
 21
-1253.501411288366
 31
0.0
  0
LINE
  5
149
330
74
100
AcDbEntity
  8
0
 62
     0
100
AcDbLine
 10
-957.3119025076628
 20
-1252.88253704364
 30
0.0
 11
-955.8658310221087
 21
-1251.436465558085
 31
0.0
  0
LINE
  5
14A
330
74
100
AcDbEntity
  8
0
 62
     0
100
AcDbLine
 10
-959.5831452528663
 20
-1255.507333179436
 30
0.0
 11
-957.4451919603523
 21
-1253.369379886922
 31
0.0
  0
LINE
  5
14B
330
74
100
AcDbEntity
  8
0
 62
     0
100
AcDbLine
 10
-956.9546091769797
 20
-1252.87879710355
 30
0.0
 11
-955.8083055775254
 21
-1251.732493504096
 31
0.0
  0
LINE
  5
14C
330
74
100
AcDbEntity
  8
0
 62
     0
100
AcDbLine
 10
-958.9818383236835
 20
-1255.259579640847
 30
0.0
 11
-956.9596071683157
 21
-1253.237348485479
 31
0.0
  0
LINE
  5
14D
330
74
100
AcDbEntity
  8
0
 62
     0
100
AcDbLine
 10
-956.5973158462965
 20
-1252.87505716346
 30
0.0
 11
-955.7507801329423
 21
-1252.028521450106
 31
0.0
  0
LINE
  5
14E
330
74
100
AcDbEntity
  8
0
 62
     0
100
AcDbLine
 10
-958.6019171689351
 20
-1255.233211876692
 30
0.0
 11
-956.4740223762791
 21
-1253.105317084036
 31
0.0
  0
LINE
  5
14F
330
74
100
AcDbEntity
  8
0
 62
     0
100
AcDbLine
 10
-956.2400225156133
 20
-1252.87131722337
 30
0.0
 11
-955.6932546883592
 21
-1252.324549396116
 31
0.0
  0
LINE
  5
150
330
74
100
AcDbEntity
  8
0
 62
     0
100
AcDbLine
 10
-958.2219960141866
 20
-1255.206844112536
 30
0.0
 11
-955.9884375842425
 21
-1252.973285682592
 31
0.0
  0
LINE
  5
151
330
74
100
AcDbEntity
  8
0
 62
     0
100
AcDbLine
 10
-955.8827291849302
 20
-1252.86757728328
 30
0.0
 11
-955.6357292437761
 21
-1252.620577342126
 31
0.0
  0
LINE
  5
152
330
74
100
AcDbEntity
  8
0
 62
     0
100
AcDbLine
 10
-957.8420748594382
 20
-1255.180476348381
 30
0.0
 11
-955.612520550207
 21
-1252.95092203915
 31
0.0
  0
LINE
  5
153
330
74
100
AcDbEntity
  8
0
 62
     0
100
AcDbLine
 10
-957.4621537046898
 20
-1255.154108584226
 30
0.0
 11
-955.7499441399265
 21
-1253.441899019463
 31
0.0
  0
LINE
  5
154
330
74
100
AcDbEntity
  8
0
 62
     0
100
AcDbLine
 10
-957.0822325499413
 20
-1255.127740820071
 30
0.0
 11
-955.8873677296459
 21
-1253.932875999775
 31
0.0
  0
LINE
  5
155
330
74
100
AcDbEntity
  8
0
 62
     0
100
AcDbLine
 10
-956.7023113951929
 20
-1255.101373055916
 30
0.0
 11
-956.0247913193652
 21
-1254.423852980088
 31
0.0
  0
LINE
  5
156
330
74
100
AcDbEntity
  8
0
 62
     0
100
AcDbLine
 10
-956.3223902404443
 20
-1255.07500529176
 30
0.0
 11
-956.1622149090847
 21
-1254.914829960401
 31
0.0
  0
ENDBLK
  5
157
330
74
100
AcDbEntity
  8
0
100
AcDbBlockEnd
  0
BLOCK
  5
158
330
75
100
AcDbEntity
  8
0
100
AcDbBlockBegin
  2
*X2
 70
     1
 10
0.0
 20
0.0
 30
0.0
  3
*X2
  1

  0
LINE
  5
159
330
75
100
AcDbEntity
  8
0
 62
     0
100
AcDbLine
 10
-994.2352016959999
 20
-1254.096943782056
 30
0.0
 11
-994.1439099092358
 21
-1254.005651995292
 31
0.0
  0
LINE
  5
15A
330
75
100
AcDbEntity
  8
0
 62
     0
100
AcDbLine
 10
-994.1439099092358
 20
-1254.005651995292
 30
0.0
 11
-989.5257738241257
 21
-1249.387515910182
 31
0.0
  0
LINE
  5
15B
330
75
100
AcDbEntity
  8
0
 62
     0
100
AcDbLine
 10
-996.8790323639277
 20
-1254.973007497018
 30
0.0
 11
-987.8263718722527
 21
-1245.920347005342
 31
0.0
  0
LINE
  5
15C
330
75
100
AcDbEntity
  8
0
 62
     0
100
AcDbLine
 10
-999.6428440322349
 20
-1255.969052212358
 30
0.0
 11
-987.77310010757
 21
-1244.099308287693
 31
0.0
  0
LINE
  5
15D
330
75
100
AcDbEntity
  8
0
 62
     0
100
AcDbLine
 10
-1002.406655700542
 20
-1256.965096927699
 30
0.0
 11
-989.5654657703666
 21
-1244.123906997524
 31
0.0
  0
LINE
  5
15E
330
75
100
AcDbEntity
  8
0
 62
     0
100
AcDbLine
 10
-1004.965903758321
 20
-1257.756578032512
 30
0.0
 11
-991.3578314331632
 21
-1244.148505707354
 31
0.0
  0
LINE
  5
15F
330
75
100
AcDbEntity
  8
0
 62
     0
100
AcDbLine
 10
-1007.245554368862
 20
-1258.268461690086
 30
0.0
 11
-993.1501970959599
 21
-1244.173104417184
 31
0.0
  0
LINE
  5
160
330
75
100
AcDbEntity
  8
0
 62
     0
100
AcDbLine
 10
-1008.516854298876
 20
-1257.771994667134
 30
0.0
 11
-995.5450301185283
 21
-1244.800170486786
 31
0.0
  0
LINE
  5
161
330
75
100
AcDbEntity
  8
0
 62
     0
100
AcDbLine
 10
-1004.882092298472
 20
-1252.369465713764
 30
0.0
 11
-998.2289270698919
 21
-1245.716300485183
 31
0.0
  0
LINE
  5
162
330
75
100
AcDbEntity
  8
0
 62
     0
100
AcDbLine
 10
-1005.025836499193
 20
-1250.745442961519
 30
0.0
 11
-1004.109864267647
 21
-1249.829470729973
 31
0.0
  0
LINE
  5
163
330
75
100
AcDbEntity
  8
0
 62
     0
100
AcDbLine
 10
-994.9433318664475
 20
-1238.895171375806
 30
0.0
 11
-994.5785630216246
 21
-1238.530402530983
 31
0.0
  0
LINE
  5
164
330
75
100
AcDbEntity
  8
0
 62
     0
100
AcDbLine
 10
-1004.739521754177
 20
-1246.923594310569
 30
0.0
 11
-1003.146173678547
 21
-1245.330246234939
 31
0.0
  0
LINE
  5
165
330
75
100
AcDbEntity
  8
0
 62
     0
100
AcDbLine
 10
-996.044596027974
 20
-1238.228668584366
 30
0.0
 11
-994.7499081696618
 21
-1236.933980726054
 31
0.0
  0
LINE
  5
166
330
75
100
AcDbEntity
  8
0
 62
     0
100
AcDbLine
 10
-1010.53081024423
 20
-1250.947115847656
 30
0.0
 11
-1009.064749563831
 21
-1249.481055167257
 31
0.0
  0
LINE
  5
167
330
75
100
AcDbEntity
  8
0
 62
     0
100
AcDbLine
 10
-997.1458601895003
 20
-1237.562165792926
 30
0.0
 11
-994.9191234494762
 21
-1235.335429052902
 31
0.0
  0
LINE
  5
168
330
75
100
AcDbEntity
  8
0
 62
     0
100
AcDbLine
 10
-1005.23667530786
 20
-1245.652980911287
 30
0.0
 11
-1001.589020760875
 21
-1242.005326364301
 31
0.0
  0
LINE
  5
169
330
75
100
AcDbEntity
  8
0
 62
     0
100
AcDbLine
 10
-1011.797458939006
 20
-1250.445997589466
 30
0.0
 11
-1009.188069555043
 21
-1247.836608205502
 31
0.0
  0
LINE
  5
16A
330
75
100
AcDbEntity
  8
0
 62
     0
100
AcDbLine
 10
-998.2471243510268
 20
-1236.895663001486
 30
0.0
 11
-994.9683471255527
 21
-1233.616885776013
 31
0.0
  0
LINE
  5
16B
330
75
100
AcDbEntity
  8
0
 62
     0
100
AcDbLine
 10
-1005.733828861544
 20
-1244.382367512004
 30
0.0
 11
-1000.031867843202
 21
-1238.680406493662
 31
0.0
  0
LINE
  5
16C
330
75
100
AcDbEntity
  8
0
 62
     0
100
AcDbLine
 10
-1013.220695484168
 20
-1250.101467181662
 30
0.0
 11
-1008.989955570683
 21
-1245.870727268176
 31
0.0
  0
LINE
  5
16D
330
75
100
AcDbEntity
  8
0
 62
     0
100
AcDbLine
 10
-999.3483885125533
 20
-1236.229160210047
 30
0.0
 11
-995.0175708016294
 21
-1231.898342499123
 31
0.0
  0
LINE
  5
16E
330
75
100
AcDbEntity
  8
0
 62
     0
100
AcDbLine
 10
-1006.230982415228
 20
-1243.111754112722
 30
0.0
 11
-1001.057701086531
 21
-1237.938472784024
 31
0.0
  0
LINE
  5
16F
330
75
100
AcDbEntity
  8
0
 62
     0
100
AcDbLine
 10
-1014.035985859132
 20
-1249.148990603659
 30
0.0
 11
-1008.487788903439
 21
-1243.600793647966
 31
0.0
  0
LINE
  5
170
330
75
100
AcDbEntity
  8
0
 62
     0
100
AcDbLine
 10
-1000.306631064743
 20
-1235.41963580927
 30
0.0
 11
-997.0171151721697
 21
-1232.130119916696
 31
0.0
  0
LINE
  5
171
330
75
100
AcDbEntity
  8
0
 62
     0
100
AcDbLine
 10
-1006.431153101567
 20
-1241.544157846095
 30
0.0
 11
-1002.243525709563
 21
-1237.35653045409
 31
0.0
  0
LINE
  5
172
330
75
100
AcDbEntity
  8
0
 62
     0
100
AcDbLine
 10
-1014.132978426769
 20
-1247.47821621833
 30
0.0
 11
-1008.840418137253
 21
-1242.185655928814
 31
0.0
  0
LINE
  5
173
330
75
100
AcDbEntity
  8
0
 62
     0
100
AcDbLine
 10
-1001.253881326239
 20
-1234.5991191178
 30
0.0
 11
-999.0356200442553
 21
-1232.380857835816
 31
0.0
  0
LINE
  5
174
330
75
100
AcDbEntity
  8
0
 62
     0
100
AcDbLine
 10
-1006.479664369803
 20
-1239.824902161363
 30
0.0
 11
-1003.936199809495
 21
-1237.281437601056
 31
0.0
  0
LINE
  5
175
330
75
100
AcDbEntity
  8
0
 62
     0
100
AcDbLine
 10
-1014.200104781009
 20
-1245.777575619604
 30
0.0
 11
-1009.610970829333
 21
-1241.188441667927
 31
0.0
  0
LINE
  5
176
330
75
100
AcDbEntity
  8
0
 62
     0
100
AcDbLine
 10
-1002.201131587735
 20
-1233.778602426329
 30
0.0
 11
-1001.054124916341
 21
-1232.631595754935
 31
0.0
  0
LINE
  5
177
330
75
100
AcDbEntity
  8
0
 62
     0
100
AcDbLine
 10
-1008.031456366205
 20
-1239.6089272048
 30
0.0
 11
-1007.811881187784
 21
-1239.389352026378
 31
0.0
  0
LINE
  5
178
330
75
100
AcDbEntity
  8
0
 62
     0
100
AcDbLine
 10
-1013.394916276395
 20
-1243.204620162024
 30
0.0
 11
-1010.595181535595
 21
-1240.404885421223
 31
0.0
  0
LINE
  5
179
330
75
100
AcDbEntity
  8
0
 62
     0
100
AcDbLine
 10
-1003.14838184923
 20
-1232.958085734858
 30
0.0
 11
-1003.072629788427
 21
-1232.882333674055
 31
0.0
  0
LINE
  5
17A
330
75
100
AcDbEntity
  8
0
 62
     0
100
AcDbLine
 10
-1010.171121543224
 20
-1239.980825428851
 30
0.0
 11
-1008.400381963483
 21
-1238.210085849111
 31
0.0
  0
LINE
  5
17B
330
75
100
AcDbEntity
  8
0
 62
     0
100
AcDbLine
 10
-1013.342701277524
 20
-1241.384638210186
 30
0.0
 11
-1008.988882739182
 21
-1237.030819671844
 31
0.0
  0
LINE
  5
17C
330
75
100
AcDbEntity
  8
0
 62
     0
100
AcDbLine
 10
-1014.31655316498
 20
-1240.590723144676
 30
0.0
 11
-1010.007701863528
 21
-1236.281871843223
 31
0.0
  0
LINE
  5
17D
330
75
100
AcDbEntity
  8
0
 62
     0
100
AcDbLine
 10
-1014.546162714531
 20
-1239.05256574126
 30
0.0
 11
-1011.077377371475
 21
-1235.583780398204
 31
0.0
  0
LINE
  5
17E
330
75
100
AcDbEntity
  8
0
 62
     0
100
AcDbLine
 10
-1009.874616161164
 20
-1234.381019187893
 30
0.0
 11
-1008.486787405201
 21
-1232.99319043193
 31
0.0
  0
LINE
  5
17F
330
75
100
AcDbEntity
  8
0
 62
     0
100
AcDbLine
 10
-1013.658877941961
 20
-1236.397514015723
 30
0.0
 11
-1011.898332913588
 21
-1234.636968987351
 31
0.0
  0
LINE
  5
180
330
75
100
AcDbEntity
  8
0
 62
     0
100
AcDbLine
 10
-1010.627049307569
 20
-1233.365685381331
 30
0.0
 11
-1008.64455092149
 21
-1231.383186995252
 31
0.0
  0
LINE
  5
181
330
75
100
AcDbEntity
  8
0
 62
     0
100
AcDbLine
 10
-1012.771593169391
 20
-1233.742462290187
 30
0.0
 11
-1012.719288455701
 21
-1233.690157576497
 31
0.0
  0
LINE
  5
182
330
75
100
AcDbEntity
  8
0
 62
     0
100
AcDbLine
 10
-1010.69795011489
 20
-1231.668819235686
 30
0.0
 11
-1008.802314437778
 21
-1229.773183558574
 31
0.0
  0
LINE
  5
183
330
75
100
AcDbEntity
  8
0
 62
     0
100
AcDbLine
 10
-1010.768850922212
 20
-1229.971953090041
 30
0.0
 11
-1010.139653193713
 21
-1229.342755361543
 31
0.0
  0
LINE
  5
184
330
75
100
AcDbEntity
  8
0
 62
     0
100
AcDbLine
 10
-1044.693796630543
 20
-1247.986996221675
 30
0.0
 11
-1040.234954909668
 21
-1243.5281545008
 31
0.0
  0
LINE
  5
185
330
75
100
AcDbEntity
  8
0
 62
     0
100
AcDbLine
 10
-1046.056623558503
 20
-1247.582056196669
 30
0.0
 11
-1041.03709859571
 21
-1242.562531233876
 31
0.0
  0
LINE
  5
186
330
75
100
AcDbEntity
  8
0
 62
     0
100
AcDbLine
 10
-1046.485796287329
 20
-1246.243461972528
 30
0.0
 11
-1041.839242281751
 21
-1241.596907966951
 31
0.0
  0
LINE
  5
187
330
75
100
AcDbEntity
  8
0
 62
     0
100
AcDbLine
 10
-1046.629340676893
 20
-1244.619239409126
 30
0.0
 11
-1042.641385967793
 21
-1240.631284700026
 31
0.0
  0
LINE
  5
188
330
75
100
AcDbEntity
  8
0
 62
     0
100
AcDbLine
 10
-1047.183739282751
 20
-1243.405871062018
 30
0.0
 11
-1043.443529653835
 21
-1239.665661433102
 31
0.0
  0
LINE
  5
189
330
75
100
AcDbEntity
  8
0
 62
     0
100
AcDbLine
 10
-1048.06029776275
 20
-1242.514662589051
 30
0.0
 11
-1044.245673339877
 21
-1238.700038166178
 31
0.0
  0
LINE
  5
18A
330
75
100
AcDbEntity
  8
0
 62
     0
100
AcDbLine
 10
-1048.93685624275
 20
-1241.623454116084
 30
0.0
 11
-1045.047817025919
 21
-1237.734414899253
 31
0.0
  0
LINE
  5
18B
330
75
100
AcDbEntity
  8
0
 62
     0
100
AcDbLine
 10
-1049.813414722749
 20
-1240.732245643117
 30
0.0
 11
-1046.310830748138
 21
-1237.229661668506
 31
0.0
  0
LINE
  5
18C
330
75
100
AcDbEntity
  8
0
 62
     0
100
AcDbLine
 10
-1049.492977417005
 20
-1238.644041384407
 30
0.0
 11
-1048.44934531641
 21
-1237.600409283811
 31
0.0
  0
LINE
  5
18D
330
75
100
AcDbEntity
  8
0
 62
     0
100
AcDbLine
 10
-994.247579030063
 20
-1255.877088069085
 30
0.0
 11
-992.1716142303644
 21
-1253.801123269387
 31
0.0
  0
LINE
  5
18E
330
75
100
AcDbEntity
  8
0
 62
     0
100
AcDbLine
 10
-992.1716142303644
 20
-1253.801123269387
 30
0.0
 11
-989.7157452854713
 21
-1251.345254324494
 31
0.0
  0
LINE
  5
18F
330
75
100
AcDbEntity
  8
0
 62
     0
100
AcDbLine
 10
-992.8635718685864
 20
-1256.260847860575
 30
0.0
 11
-989.9380367465017
 21
-1253.33531273849
 31
0.0
  0
LINE
  5
190
330
75
100
AcDbEntity
  8
0
 62
     0
100
AcDbLine
 10
-991.0204259337493
 20
-1256.185468878705
 30
0.0
 11
-990.4560203076277
 21
-1255.621063252583
 31
0.0
  0
LINE
  5
191
330
75
100
AcDbEntity
  8
0
 62
     0
100
AcDbLine
 10
-972.6379194363401
 20
-1246.641797146127
 30
0.0
 11
-971.2440929468382
 21
-1245.247970656625
 31
0.0
  0
LINE
  5
192
330
75
100
AcDbEntity
  8
0
 62
     0
100
AcDbLine
 10
-991.7021230128565
 20
-1267.47376767561
 30
0.0
 11
-990.8134502111089
 21
-1266.585094873862
 31
0.0
  0
LINE
  5
193
330
75
100
AcDbEntity
  8
0
 62
     0
100
AcDbLine
 10
-972.152600561324
 20
-1247.924245224077
 30
0.0
 11
-969.8244950847291
 21
-1245.596139747482
 31
0.0
  0
LINE
  5
194
330
75
100
AcDbEntity
  8
0
 62
     0
100
AcDbLine
 10
-990.9549169816884
 20
-1268.494328597408
 30
0.0
 11
-989.1754225643978
 21
-1266.714834180118
 31
0.0
  0
LINE
  5
195
330
75
100
AcDbEntity
  8
0
 62
     0
100
AcDbLine
 10
-971.7245664090517
 20
-1249.263978024771
 30
0.0
 11
-968.8261118635184
 21
-1246.365523479238
 31
0.0
  0
LINE
  5
196
330
75
100
AcDbEntity
  8
0
 62
     0
100
AcDbLine
 10
-990.3210744246385
 20
-1269.628252993324
 30
0.0
 11
-989.2628737918736
 21
-1268.57005236056
 31
0.0
  0
LINE
  5
197
330
75
100
AcDbEntity
  8
0
 62
     0
100
AcDbLine
 10
-971.744178624111
 20
-1251.051357192797
 30
0.0
 11
-968.3249596430224
 21
-1247.632138211709
 31
0.0
  0
LINE
  5
198
330
75
100
AcDbEntity
  8
0
 62
     0
100
AcDbLine
 10
-989.7694222033198
 20
-1270.844367724972
 30
0.0
 11
-986.971704638613
 21
-1268.046650160266
 31
0.0
  0
LINE
  5
199
330
75
100
AcDbEntity
  8
0
 62
     0
100
AcDbLine
 10
-971.7637908391706
 20
-1252.838736360823
 30
0.0
 11
-967.7776447418629
 21
-1248.852590263515
 31
0.0
  0
LINE
  5
19A
330
75
100
AcDbEntity
  8
0
 62
     0
100
AcDbLine
 10
-988.3567005773135
 20
-1271.199413051933
 30
0.0
 11
-985.8073333047936
 21
-1268.650045779412
 31
0.0
  0
LINE
  5
19B
330
75
100
AcDbEntity
  8
0
 62
     0
100
AcDbLine
 10
-971.6335458446236
 20
-1254.476258319243
 30
0.0
 11
-966.8646474081903
 21
-1249.707359882809
 31
0.0
  0
LINE
  5
19C
330
75
100
AcDbEntity
  8
0
 62
     0
100
AcDbLine
 10
-986.6183084261333
 20
-1271.228787853718
 30
0.0
 11
-985.0493380656226
 21
-1269.659817493208
 31
0.0
  0
LINE
  5
19D
330
75
100
AcDbEntity
  8
0
 62
     0
100
AcDbLine
 10
-959.7080184803973
 20
-1244.318497907983
 30
0.0
 11
-956.6207334523495
 21
-1241.231212879935
 31
0.0
  0
LINE
  5
19E
330
75
100
AcDbEntity
  8
0
 62
     0
100
AcDbLine
 10
-971.1613076871682
 20
-1255.771787114754
 30
0.0
 11
-965.9516500745176
 21
-1250.562129502103
 31
0.0
  0
LINE
  5
19F
330
75
100
AcDbEntity
  8
0
 62
     0
100
AcDbLine
 10
-963.0144708670096
 20
-1247.624950294595
 30
0.0
 11
-961.3463239350808
 21
-1245.956803362666
 31
0.0
  0
LINE
  5
1A0
330
75
100
AcDbEntity
  8
0
 62
     0
100
AcDbLine
 10
-986.1866160188375
 20
-1272.564862399389
 30
0.0
 11
-984.3958503165659
 21
-1270.774096697118
 31
0.0
  0
LINE
  5
1A1
330
75
100
AcDbEntity
  8
0
 62
     0
100
AcDbLine
 10
-958.5529141995413
 20
-1244.931160580093
 30
0.0
 11
-956.4966389458838
 21
-1242.874885326435
 31
0.0
  0
LINE
  5
1A2
330
75
100
AcDbEntity
  8
0
 62
     0
100
AcDbLine
 10
-970.4290315201118
 20
-1256.807277900663
 30
0.0
 11
-965.1312133675098
 21
-1251.509459748061
 31
0.0
  0
LINE
  5
1A3
330
75
100
AcDbEntity
  8
0
 62
     0
100
AcDbLine
 10
-963.5612305917813
 20
-1249.939476972333
 30
0.0
 11
-959.6441017425743
 21
-1246.022348123126
 31
0.0
  0
LINE
  5
1A4
330
75
100
AcDbEntity
  8
0
 62
     0
100
AcDbLine
 10
-985.8392702892396
 20
-1273.985283622758
 30
0.0
 11
-983.7423625675091
 21
-1271.888375901027
 31
0.0
  0
LINE
  5
1A5
330
75
100
AcDbEntity
  8
0
 62
     0
100
AcDbLine
 10
-957.3978099186854
 20
-1245.543823252204
 30
0.0
 11
-956.3725444394181
 21
-1244.518557772936
 31
0.0
  0
LINE
  5
1A6
330
75
100
AcDbEntity
  8
0
 62
     0
100
AcDbLine
 10
-971.7034269061537
 20
-1259.849440239672
 30
0.0
 11
-970.6562388069954
 21
-1258.802252140513
 31
0.0
  0
LINE
  5
1A7
330
75
100
AcDbEntity
  8
0
 62
     0
100
AcDbLine
 10
-961.9879062659505
 20
-1250.133919599468
 30
0.0
 11
-957.9418795500677
 21
-1246.087892883586
 31
0.0
  0
LINE
  5
1A8
330
75
100
AcDbEntity
  8
0
 62
     0
100
AcDbLine
 10
-968.9078206767764
 20
-1257.053834010294
 30
0.0
 11
-964.3919151995074
 21
-1252.537928533025
 31
0.0
  0
LINE
  5
1A9
330
75
100
AcDbEntity
  8
0
 62
     0
100
AcDbLine
 10
-984.9399956328708
 20
-1274.853775919355
 30
0.0
 11
-983.1498098559304
 21
-1273.063590142415
 31
0.0
  0
LINE
  5
1AA
330
75
100
AcDbEntity
  8
0
 62
     0
100
AcDbLine
 10
-960.0170996349408
 20
-1249.930879921425
 30
0.0
 11
-956.2508648948451
 21
-1246.164645181329
 31
0.0
  0
LINE
  5
1AB
330
75
100
AcDbEntity
  8
0
 62
     0
100
AcDbLine
 10
-983.1498098559304
 20
-1273.063590142415
 30
0.0
 11
-982.8102201892711
 21
-1272.724000475756
 31
0.0
  0
LINE
  5
1AC
330
75
100
AcDbEntity
  8
0
 62
     0
100
AcDbLine
 10
-967.3760165855105
 20
-1257.289796871995
 30
0.0
 11
-963.680985845897
 21
-1253.594766132381
 31
0.0
  0
LINE
  5
1AD
330
75
100
AcDbEntity
  8
0
 62
     0
100
AcDbLine
 10
-971.5892045053854
 20
-1261.502984791869
 30
0.0
 11
-969.780413013466
 21
-1259.69419329995
 31
0.0
  0
LINE
  5
1AE
330
75
100
AcDbEntity
  8
0
 62
     0
100
AcDbLine
 10
-984.0407209765022
 20
-1275.722268215953
 30
0.0
 11
-983.0224209670191
 21
-1274.70396820647
 31
0.0
  0
LINE
  5
1AF
330
75
100
AcDbEntity
  8
0
 62
     0
100
AcDbLine
 10
-957.4863418691034
 20
-1249.167889108554
 30
0.0
 11
-956.5602177065901
 21
-1248.241764946041
 31
0.0
  0
LINE
  5
1B0
330
75
100
AcDbEntity
  8
0
 62
     0
100
AcDbLine
 10
-983.0224209670191
 20
-1274.70396820647
 30
0.0
 11
-980.5083873554389
 21
-1272.18993459489
 31
0.0
  0
LINE
  5
1B1
330
75
100
AcDbEntity
  8
0
 62
     0
100
AcDbLine
 10
-965.7886983952328
 20
-1257.470245634684
 30
0.0
 11
-963.6338408417437
 21
-1255.315388081195
 31
0.0
  0
LINE
  5
1B2
330
75
100
AcDbEntity
  8
0
 62
     0
100
AcDbLine
 10
-970.2387052734914
 20
-1261.920252512942
 30
0.0
 11
-969.9129346874313
 21
-1261.594481926882
 31
0.0
  0
LINE
  5
1B3
330
75
100
AcDbEntity
  8
0
 62
     0
100
AcDbLine
 10
-983.1414463201333
 20
-1276.59076051255
 30
0.0
 11
-983.0505732964139
 21
-1276.499887488831
 31
0.0
  0
LINE
  5
1B4
330
75
100
AcDbEntity
  8
0
 62
     0
100
AcDbLine
 10
-963.8567330180235
 20
-1257.30604721044
 30
0.0
 11
-963.5866958375904
 21
-1257.036010030007
 31
0.0
  0
LINE
  5
1B5
330
75
100
AcDbEntity
  8
0
 62
     0
100
AcDbLine
 10
-982.4475367207499
 20
-1275.896850913167
 30
0.0
 11
-978.5625087708867
 21
-1272.011822963304
 31
0.0
  0
LINE
  5
1B6
330
75
100
AcDbEntity
  8
0
 62
     0
100
AcDbLine
 10
-981.4645477606291
 20
-1276.681628906012
 30
0.0
 11
-977.4234561112256
 21
-1272.640537256609
 31
0.0
  0
LINE
  5
1B7
330
75
100
AcDbEntity
  8
0
 62
     0
100
AcDbLine
 10
-964.1069703412759
 20
-1259.324051486659
 30
0.0
 11
-960.6751688474913
 21
-1255.892249992875
 31
0.0
  0
LINE
  5
1B8
330
75
100
AcDbEntity
  8
0
 62
     0
100
AcDbLine
 10
-980.481558800508
 20
-1277.466406898858
 30
0.0
 11
-976.3102458513815
 21
-1273.295093949731
 31
0.0
  0
LINE
  5
1B9
330
75
100
AcDbEntity
  8
0
 62
     0
100
AcDbLine
 10
-963.269095249365
 20
-1260.253943347715
 30
0.0
 11
-959.9117673612521
 21
-1256.896615459602
 31
0.0
  0
LINE
  5
1BA
330
75
100
AcDbEntity
  8
0
 62
     0
100
AcDbLine
 10
-979.4985698403872
 20
-1278.251184891703
 30
0.0
 11
-976.1142744993538
 21
-1274.86688955067
 31
0.0
  0
LINE
  5
1BB
330
75
100
AcDbEntity
  8
0
 62
     0
100
AcDbLine
 10
-962.4312201574541
 20
-1261.18383520877
 30
0.0
 11
-959.4304689348673
 21
-1258.183083986184
 31
0.0
  0
LINE
  5
1BC
330
75
100
AcDbEntity
  8
0
 62
     0
100
AcDbLine
 10
-961.664734366175
 20
-1262.185116370458
 30
0.0
 11
-958.9491705084826
 21
-1259.469552512765
 31
0.0
  0
LINE
  5
1BD
330
75
100
AcDbEntity
  8
0
 62
     0
100
AcDbLine
 10
-960.8317630965489
 20
-1263.119912053798
 30
0.0
 11
-959.1265393838984
 21
-1261.414688341147
 31
0.0
  0
LINE
  5
1BE
330
75
100
AcDbEntity
  8
0
 62
     0
100
AcDbLine
 10
-969.6246777304025
 20
-1287.822729264349
 30
0.0
 11
-968.2466151842463
 21
-1286.444666718193
 31
0.0
  0
LINE
  5
1BF
330
75
100
AcDbEntity
  8
0
 62
     0
100
AcDbLine
 10
-969.3648769278702
 20
-1289.330695414783
 30
0.0
 11
-962.9964338832531
 21
-1282.962252370166
 31
0.0
  0
LINE
  5
1C0
330
75
100
AcDbEntity
  8
0
 62
     0
100
AcDbLine
 10
-968.6667505734039
 20
-1290.400336013283
 30
0.0
 11
-961.7684026863775
 21
-1283.501988126257
 31
0.0
  0
LINE
  5
1C1
330
75
100
AcDbEntity
  8
0
 62
     0
100
AcDbLine
 10
-967.8062104494912
 20
-1291.307562842337
 30
0.0
 11
-960.6403854296225
 21
-1284.141737822468
 31
0.0
  0
LINE
  5
1C2
330
75
100
AcDbEntity
  8
0
 62
     0
100
AcDbLine
 10
-966.5963398714536
 20
-1291.865459217265
 30
0.0
 11
-960.0432147488461
 21
-1285.312334094658
 31
0.0
  0
LINE
  5
1C3
330
75
100
AcDbEntity
  8
0
 62
     0
100
AcDbLine
 10
-964.991461235283
 20
-1292.028347534061
 30
0.0
 11
-959.4293426087023
 21
-1286.46622890748
 31
0.0
  0
LINE
  5
1C4
330
75
100
AcDbEntity
  8
0
 62
     0
100
AcDbLine
 10
-963.3865825991124
 20
-1292.191235850857
 30
0.0
 11
-958.7435443746302
 21
-1287.548197626375
 31
0.0
  0
LINE
  5
1C5
330
75
100
AcDbEntity
  8
0
 62
     0
100
AcDbLine
 10
-961.7817039629418
 20
-1292.354124167653
 30
0.0
 11
-959.448276833015
 21
-1290.020697037726
 31
0.0
  0
LINE
  5
1C6
330
75
100
AcDbEntity
  8
0
 62
     0
100
AcDbLine
 10
-958.8835313230891
 20
-1289.4559515278
 30
0.0
 11
-958.057746140558
 21
-1288.630166345269
 31
0.0
  0
LINE
  5
1C7
330
75
100
AcDbEntity
  8
0
 62
     0
100
AcDbLine
 10
-959.448276833015
 20
-1290.020697037726
 30
0.0
 11
-958.8835313230891
 21
-1289.4559515278
 31
0.0
  0
LINE
  5
1C8
330
75
100
AcDbEntity
  8
0
 62
     0
100
AcDbLine
 10
-960.209159076971
 20
-1292.549346234648
 30
0.0
 11
-957.4232026937345
 21
-1289.763389851411
 31
0.0
  0
LINE
  5
1C9
330
75
100
AcDbEntity
  8
0
 62
     0
100
AcDbLine
 10
-959.5922465697535
 20
-1293.700200680397
 30
0.0
 11
-956.9885202158967
 21
-1291.09647432654
 31
0.0
  0
LINE
  5
1CA
330
75
100
AcDbEntity
  8
0
 62
     0
100
AcDbLine
 10
-958.975334062536
 20
-1294.851055126146
 30
0.0
 11
-957.3909658023383
 21
-1293.266686865948
 31
0.0
  0
LINE
  5
1CB
330
75
100
AcDbEntity
  8
0
 62
     0
100
AcDbLine
 10
-957.3909658023383
 20
-1293.266686865948
 30
0.0
 11
-956.5675651973318
 21
-1292.443286260942
 31
0.0
  0
LINE
  5
1CC
330
75
100
AcDbEntity
  8
0
 62
     0
100
AcDbLine
 10
-959.1128009141176
 20
-1296.756288930694
 30
0.0
 11
-956.1997388701396
 21
-1293.843226886716
 31
0.0
  0
LINE
  5
1CD
330
75
100
AcDbEntity
  8
0
 62
     0
100
AcDbLine
 10
-957.9164946601295
 20
-1297.327749629672
 30
0.0
 11
-955.8319125429473
 21
-1295.24316751249
 31
0.0
  0
LINE
  5
1CE
330
75
100
AcDbEntity
  8
0
 62
     0
100
AcDbLine
 10
-956.7201884061418
 20
-1297.899210328651
 30
0.0
 11
-955.4640862157553
 21
-1296.643108138264
 31
0.0
  0
LINE
  5
1CF
330
75
100
AcDbEntity
  8
0
 62
     0
100
AcDbLine
 10
-955.5238821521539
 20
-1298.470671027629
 30
0.0
 11
-955.0962598885631
 21
-1298.043048764038
 31
0.0
  0
ENDBLK
  5
1D0
330
75
100
AcDbEntity
  8
0
100
AcDbBlockEnd
  0
BLOCK
  5
1D1
330
76
100
AcDbEntity
  8
0
100
AcDbBlockBegin
  2
*X3
 70
     1
 10
0.0
 20
0.0
 30
0.0
  3
*X3
  1

  0
LINE
  5
1D2
330
76
100
AcDbEntity
  8
0
 62
     0
100
AcDbLine
 10
-980.625
 20
-1218.75
 30
0.0
 11
-980.625
 21
-1218.75
 31
0.0
  0
LINE
  5
1D3
330
76
100
AcDbEntity
  8
0
 62
     0
100
AcDbLine
 10
-979.3750000000001
 20
-1218.75
 30
0.0
 11
-979.3750000000001
 21
-1218.75
 31
0.0
  0
LINE
  5
1D4
330
76
100
AcDbEntity
  8
0
 62
     0
100
AcDbLine
 10
-978.125
 20
-1218.75
 30
0.0
 11
-978.125
 21
-1218.75
 31
0.0
  0
LINE
  5
1D5
330
76
100
AcDbEntity
  8
0
 62
     0
100
AcDbLine
 10
-976.875
 20
-1218.75
 30
0.0
 11
-976.875
 21
-1218.75
 31
0.0
  0
LINE
  5
1D6
330
76
100
AcDbEntity
  8
0
 62
     0
100
AcDbLine
 10
-975.6249999999999
 20
-1218.75
 30
0.0
 11
-975.6249999999999
 21
-1218.75
 31
0.0
  0
LINE
  5
1D7
330
76
100
AcDbEntity
  8
0
 62
     0
100
AcDbLine
 10
-974.375
 20
-1218.75
 30
0.0
 11
-974.375
 21
-1218.75
 31
0.0
  0
LINE
  5
1D8
330
76
100
AcDbEntity
  8
0
 62
     0
100
AcDbLine
 10
-973.1250000000001
 20
-1218.75
 30
0.0
 11
-973.1250000000001
 21
-1218.75
 31
0.0
  0
LINE
  5
1D9
330
76
100
AcDbEntity
  8
0
 62
     0
100
AcDbLine
 10
-971.875
 20
-1218.75
 30
0.0
 11
-971.875
 21
-1218.75
 31
0.0
  0
LINE
  5
1DA
330
76
100
AcDbEntity
  8
0
 62
     0
100
AcDbLine
 10
-970.625
 20
-1218.75
 30
0.0
 11
-970.625
 21
-1218.75
 31
0.0
  0
LINE
  5
1DB
330
76
100
AcDbEntity
  8
0
 62
     0
100
AcDbLine
 10
-969.3749999999999
 20
-1218.75
 30
0.0
 11
-969.3749999999999
 21
-1218.75
 31
0.0
  0
LINE
  5
1DC
330
76
100
AcDbEntity
  8
0
 62
     0
100
AcDbLine
 10
-968.125
 20
-1218.75
 30
0.0
 11
-968.125
 21
-1218.75
 31
0.0
  0
LINE
  5
1DD
330
76
100
AcDbEntity
  8
0
 62
     0
100
AcDbLine
 10
-981.25
 20
-1217.5
 30
0.0
 11
-981.25
 21
-1217.5
 31
0.0
  0
LINE
  5
1DE
330
76
100
AcDbEntity
  8
0
 62
     0
100
AcDbLine
 10
-980.0
 20
-1217.5
 30
0.0
 11
-980.0
 21
-1217.5
 31
0.0
  0
LINE
  5
1DF
330
76
100
AcDbEntity
  8
0
 62
     0
100
AcDbLine
 10
-978.7499999999999
 20
-1217.5
 30
0.0
 11
-978.7499999999999
 21
-1217.5
 31
0.0
  0
LINE
  5
1E0
330
76
100
AcDbEntity
  8
0
 62
     0
100
AcDbLine
 10
-977.5
 20
-1217.5
 30
0.0
 11
-977.5
 21
-1217.5
 31
0.0
  0
LINE
  5
1E1
330
76
100
AcDbEntity
  8
0
 62
     0
100
AcDbLine
 10
-976.2500000000001
 20
-1217.5
 30
0.0
 11
-976.2500000000001
 21
-1217.5
 31
0.0
  0
LINE
  5
1E2
330
76
100
AcDbEntity
  8
0
 62
     0
100
AcDbLine
 10
-975.0
 20
-1217.5
 30
0.0
 11
-975.0
 21
-1217.5
 31
0.0
  0
LINE
  5
1E3
330
76
100
AcDbEntity
  8
0
 62
     0
100
AcDbLine
 10
-973.75
 20
-1217.5
 30
0.0
 11
-973.75
 21
-1217.5
 31
0.0
  0
LINE
  5
1E4
330
76
100
AcDbEntity
  8
0
 62
     0
100
AcDbLine
 10
-972.4999999999999
 20
-1217.5
 30
0.0
 11
-972.4999999999999
 21
-1217.5
 31
0.0
  0
LINE
  5
1E5
330
76
100
AcDbEntity
  8
0
 62
     0
100
AcDbLine
 10
-971.25
 20
-1217.5
 30
0.0
 11
-971.25
 21
-1217.5
 31
0.0
  0
LINE
  5
1E6
330
76
100
AcDbEntity
  8
0
 62
     0
100
AcDbLine
 10
-970.0
 20
-1217.5
 30
0.0
 11
-970.0
 21
-1217.5
 31
0.0
  0
LINE
  5
1E7
330
76
100
AcDbEntity
  8
0
 62
     0
100
AcDbLine
 10
-981.8749999999999
 20
-1216.25
 30
0.0
 11
-981.8749999999999
 21
-1216.25
 31
0.0
  0
LINE
  5
1E8
330
76
100
AcDbEntity
  8
0
 62
     0
100
AcDbLine
 10
-980.625
 20
-1216.25
 30
0.0
 11
-980.625
 21
-1216.25
 31
0.0
  0
LINE
  5
1E9
330
76
100
AcDbEntity
  8
0
 62
     0
100
AcDbLine
 10
-979.3750000000001
 20
-1216.25
 30
0.0
 11
-979.3750000000001
 21
-1216.25
 31
0.0
  0
LINE
  5
1EA
330
76
100
AcDbEntity
  8
0
 62
     0
100
AcDbLine
 10
-978.125
 20
-1216.25
 30
0.0
 11
-978.125
 21
-1216.25
 31
0.0
  0
LINE
  5
1EB
330
76
100
AcDbEntity
  8
0
 62
     0
100
AcDbLine
 10
-976.875
 20
-1216.25
 30
0.0
 11
-976.875
 21
-1216.25
 31
0.0
  0
LINE
  5
1EC
330
76
100
AcDbEntity
  8
0
 62
     0
100
AcDbLine
 10
-975.6249999999999
 20
-1216.25
 30
0.0
 11
-975.6249999999999
 21
-1216.25
 31
0.0
  0
LINE
  5
1ED
330
76
100
AcDbEntity
  8
0
 62
     0
100
AcDbLine
 10
-974.375
 20
-1216.25
 30
0.0
 11
-974.375
 21
-1216.25
 31
0.0
  0
LINE
  5
1EE
330
76
100
AcDbEntity
  8
0
 62
     0
100
AcDbLine
 10
-982.5000000000001
 20
-1215.0
 30
0.0
 11
-982.5000000000001
 21
-1215.0
 31
0.0
  0
LINE
  5
1EF
330
76
100
AcDbEntity
  8
0
 62
     0
100
AcDbLine
 10
-981.25
 20
-1215.0
 30
0.0
 11
-981.25
 21
-1215.0
 31
0.0
  0
LINE
  5
1F0
330
76
100
AcDbEntity
  8
0
 62
     0
100
AcDbLine
 10
-980.0
 20
-1215.0
 30
0.0
 11
-980.0
 21
-1215.0
 31
0.0
  0
LINE
  5
1F1
330
76
100
AcDbEntity
  8
0
 62
     0
100
AcDbLine
 10
-978.7499999999999
 20
-1215.0
 30
0.0
 11
-978.7499999999999
 21
-1215.0
 31
0.0
  0
LINE
  5
1F2
330
76
100
AcDbEntity
  8
0
 62
     0
100
AcDbLine
 10
-977.5
 20
-1215.0
 30
0.0
 11
-977.5
 21
-1215.0
 31
0.0
  0
LINE
  5
1F3
330
76
100
AcDbEntity
  8
0
 62
     0
100
AcDbLine
 10
-976.2500000000001
 20
-1215.0
 30
0.0
 11
-976.2500000000001
 21
-1215.0
 31
0.0
  0
LINE
  5
1F4
330
76
100
AcDbEntity
  8
0
 62
     0
100
AcDbLine
 10
-975.0
 20
-1215.0
 30
0.0
 11
-975.0
 21
-1215.0
 31
0.0
  0
LINE
  5
1F5
330
76
100
AcDbEntity
  8
0
 62
     0
100
AcDbLine
 10
-983.125
 20
-1213.75
 30
0.0
 11
-983.125
 21
-1213.75
 31
0.0
  0
LINE
  5
1F6
330
76
100
AcDbEntity
  8
0
 62
     0
100
AcDbLine
 10
-981.8749999999999
 20
-1213.75
 30
0.0
 11
-981.8749999999999
 21
-1213.75
 31
0.0
  0
LINE
  5
1F7
330
76
100
AcDbEntity
  8
0
 62
     0
100
AcDbLine
 10
-980.625
 20
-1213.75
 30
0.0
 11
-980.625
 21
-1213.75
 31
0.0
  0
LINE
  5
1F8
330
76
100
AcDbEntity
  8
0
 62
     0
100
AcDbLine
 10
-979.3750000000001
 20
-1213.75
 30
0.0
 11
-979.3750000000001
 21
-1213.75
 31
0.0
  0
LINE
  5
1F9
330
76
100
AcDbEntity
  8
0
 62
     0
100
AcDbLine
 10
-978.125
 20
-1213.75
 30
0.0
 11
-978.125
 21
-1213.75
 31
0.0
  0
LINE
  5
1FA
330
76
100
AcDbEntity
  8
0
 62
     0
100
AcDbLine
 10
-976.875
 20
-1213.75
 30
0.0
 11
-976.875
 21
-1213.75
 31
0.0
  0
LINE
  5
1FB
330
76
100
AcDbEntity
  8
0
 62
     0
100
AcDbLine
 10
-975.6249999999999
 20
-1213.75
 30
0.0
 11
-975.6249999999999
 21
-1213.75
 31
0.0
  0
LINE
  5
1FC
330
76
100
AcDbEntity
  8
0
 62
     0
100
AcDbLine
 10
-983.75
 20
-1212.5
 30
0.0
 11
-983.75
 21
-1212.5
 31
0.0
  0
LINE
  5
1FD
330
76
100
AcDbEntity
  8
0
 62
     0
100
AcDbLine
 10
-982.5000000000001
 20
-1212.5
 30
0.0
 11
-982.5000000000001
 21
-1212.5
 31
0.0
  0
LINE
  5
1FE
330
76
100
AcDbEntity
  8
0
 62
     0
100
AcDbLine
 10
-981.25
 20
-1212.5
 30
0.0
 11
-981.25
 21
-1212.5
 31
0.0
  0
LINE
  5
1FF
330
76
100
AcDbEntity
  8
0
 62
     0
100
AcDbLine
 10
-980.0
 20
-1212.5
 30
0.0
 11
-980.0
 21
-1212.5
 31
0.0
  0
LINE
  5
200
330
76
100
AcDbEntity
  8
0
 62
     0
100
AcDbLine
 10
-978.7499999999999
 20
-1212.5
 30
0.0
 11
-978.7499999999999
 21
-1212.5
 31
0.0
  0
LINE
  5
201
330
76
100
AcDbEntity
  8
0
 62
     0
100
AcDbLine
 10
-977.5
 20
-1212.5
 30
0.0
 11
-977.5
 21
-1212.5
 31
0.0
  0
LINE
  5
202
330
76
100
AcDbEntity
  8
0
 62
     0
100
AcDbLine
 10
-984.375
 20
-1211.25
 30
0.0
 11
-984.375
 21
-1211.25
 31
0.0
  0
LINE
  5
203
330
76
100
AcDbEntity
  8
0
 62
     0
100
AcDbLine
 10
-983.125
 20
-1211.25
 30
0.0
 11
-983.125
 21
-1211.25
 31
0.0
  0
LINE
  5
204
330
76
100
AcDbEntity
  8
0
 62
     0
100
AcDbLine
 10
-981.8749999999999
 20
-1211.25
 30
0.0
 11
-981.8749999999999
 21
-1211.25
 31
0.0
  0
LINE
  5
205
330
76
100
AcDbEntity
  8
0
 62
     0
100
AcDbLine
 10
-980.625
 20
-1211.25
 30
0.0
 11
-980.625
 21
-1211.25
 31
0.0
  0
LINE
  5
206
330
76
100
AcDbEntity
  8
0
 62
     0
100
AcDbLine
 10
-979.3750000000001
 20
-1211.25
 30
0.0
 11
-979.3750000000001
 21
-1211.25
 31
0.0
  0
LINE
  5
207
330
76
100
AcDbEntity
  8
0
 62
     0
100
AcDbLine
 10
-983.75
 20
-1210.0
 30
0.0
 11
-983.75
 21
-1210.0
 31
0.0
  0
LINE
  5
208
330
76
100
AcDbEntity
  8
0
 62
     0
100
AcDbLine
 10
-982.5000000000001
 20
-1210.0
 30
0.0
 11
-982.5000000000001
 21
-1210.0
 31
0.0
  0
LINE
  5
209
330
76
100
AcDbEntity
  8
0
 62
     0
100
AcDbLine
 10
-981.25
 20
-1210.0
 30
0.0
 11
-981.25
 21
-1210.0
 31
0.0
  0
LINE
  5
20A
330
76
100
AcDbEntity
  8
0
 62
     0
100
AcDbLine
 10
-984.375
 20
-1208.75
 30
0.0
 11
-984.375
 21
-1208.75
 31
0.0
  0
LINE
  5
20B
330
76
100
AcDbEntity
  8
0
 62
     0
100
AcDbLine
 10
-983.125
 20
-1208.75
 30
0.0
 11
-983.125
 21
-1208.75
 31
0.0
  0
LINE
  5
20C
330
76
100
AcDbEntity
  8
0
 62
     0
100
AcDbLine
 10
-980.0
 20
-1220.0
 30
0.0
 11
-980.0
 21
-1220.0
 31
0.0
  0
LINE
  5
20D
330
76
100
AcDbEntity
  8
0
 62
     0
100
AcDbLine
 10
-978.7499999999999
 20
-1220.0
 30
0.0
 11
-978.7499999999999
 21
-1220.0
 31
0.0
  0
LINE
  5
20E
330
76
100
AcDbEntity
  8
0
 62
     0
100
AcDbLine
 10
-977.5
 20
-1220.0
 30
0.0
 11
-977.5
 21
-1220.0
 31
0.0
  0
LINE
  5
20F
330
76
100
AcDbEntity
  8
0
 62
     0
100
AcDbLine
 10
-976.2500000000001
 20
-1220.0
 30
0.0
 11
-976.2500000000001
 21
-1220.0
 31
0.0
  0
LINE
  5
210
330
76
100
AcDbEntity
  8
0
 62
     0
100
AcDbLine
 10
-975.0
 20
-1220.0
 30
0.0
 11
-975.0
 21
-1220.0
 31
0.0
  0
LINE
  5
211
330
76
100
AcDbEntity
  8
0
 62
     0
100
AcDbLine
 10
-973.75
 20
-1220.0
 30
0.0
 11
-973.75
 21
-1220.0
 31
0.0
  0
LINE
  5
212
330
76
100
AcDbEntity
  8
0
 62
     0
100
AcDbLine
 10
-972.4999999999999
 20
-1220.0
 30
0.0
 11
-972.4999999999999
 21
-1220.0
 31
0.0
  0
LINE
  5
213
330
76
100
AcDbEntity
  8
0
 62
     0
100
AcDbLine
 10
-971.25
 20
-1220.0
 30
0.0
 11
-971.25
 21
-1220.0
 31
0.0
  0
LINE
  5
214
330
76
100
AcDbEntity
  8
0
 62
     0
100
AcDbLine
 10
-970.0
 20
-1220.0
 30
0.0
 11
-970.0
 21
-1220.0
 31
0.0
  0
LINE
  5
215
330
76
100
AcDbEntity
  8
0
 62
     0
100
AcDbLine
 10
-968.75
 20
-1220.0
 30
0.0
 11
-968.75
 21
-1220.0
 31
0.0
  0
LINE
  5
216
330
76
100
AcDbEntity
  8
0
 62
     0
100
AcDbLine
 10
-967.5
 20
-1220.0
 30
0.0
 11
-967.5
 21
-1220.0
 31
0.0
  0
LINE
  5
217
330
76
100
AcDbEntity
  8
0
 62
     0
100
AcDbLine
 10
-966.2499999999999
 20
-1220.0
 30
0.0
 11
-966.2499999999999
 21
-1220.0
 31
0.0
  0
LINE
  5
218
330
76
100
AcDbEntity
  8
0
 62
     0
100
AcDbLine
 10
-979.3750000000001
 20
-1221.25
 30
0.0
 11
-979.3750000000001
 21
-1221.25
 31
0.0
  0
LINE
  5
219
330
76
100
AcDbEntity
  8
0
 62
     0
100
AcDbLine
 10
-978.125
 20
-1221.25
 30
0.0
 11
-978.125
 21
-1221.25
 31
0.0
  0
LINE
  5
21A
330
76
100
AcDbEntity
  8
0
 62
     0
100
AcDbLine
 10
-976.875
 20
-1221.25
 30
0.0
 11
-976.875
 21
-1221.25
 31
0.0
  0
LINE
  5
21B
330
76
100
AcDbEntity
  8
0
 62
     0
100
AcDbLine
 10
-975.6249999999999
 20
-1221.25
 30
0.0
 11
-975.6249999999999
 21
-1221.25
 31
0.0
  0
LINE
  5
21C
330
76
100
AcDbEntity
  8
0
 62
     0
100
AcDbLine
 10
-974.375
 20
-1221.25
 30
0.0
 11
-974.375
 21
-1221.25
 31
0.0
  0
LINE
  5
21D
330
76
100
AcDbEntity
  8
0
 62
     0
100
AcDbLine
 10
-973.1250000000001
 20
-1221.25
 30
0.0
 11
-973.1250000000001
 21
-1221.25
 31
0.0
  0
LINE
  5
21E
330
76
100
AcDbEntity
  8
0
 62
     0
100
AcDbLine
 10
-971.875
 20
-1221.25
 30
0.0
 11
-971.875
 21
-1221.25
 31
0.0
  0
LINE
  5
21F
330
76
100
AcDbEntity
  8
0
 62
     0
100
AcDbLine
 10
-970.625
 20
-1221.25
 30
0.0
 11
-970.625
 21
-1221.25
 31
0.0
  0
LINE
  5
220
330
76
100
AcDbEntity
  8
0
 62
     0
100
AcDbLine
 10
-969.3749999999999
 20
-1221.25
 30
0.0
 11
-969.3749999999999
 21
-1221.25
 31
0.0
  0
LINE
  5
221
330
76
100
AcDbEntity
  8
0
 62
     0
100
AcDbLine
 10
-968.125
 20
-1221.25
 30
0.0
 11
-968.125
 21
-1221.25
 31
0.0
  0
LINE
  5
222
330
76
100
AcDbEntity
  8
0
 62
     0
100
AcDbLine
 10
-966.8750000000001
 20
-1221.25
 30
0.0
 11
-966.8750000000001
 21
-1221.25
 31
0.0
  0
LINE
  5
223
330
76
100
AcDbEntity
  8
0
 62
     0
100
AcDbLine
 10
-965.625
 20
-1221.25
 30
0.0
 11
-965.625
 21
-1221.25
 31
0.0
  0
LINE
  5
224
330
76
100
AcDbEntity
  8
0
 62
     0
100
AcDbLine
 10
-978.7499999999999
 20
-1222.5
 30
0.0
 11
-978.7499999999999
 21
-1222.5
 31
0.0
  0
LINE
  5
225
330
76
100
AcDbEntity
  8
0
 62
     0
100
AcDbLine
 10
-977.5
 20
-1222.5
 30
0.0
 11
-977.5
 21
-1222.5
 31
0.0
  0
LINE
  5
226
330
76
100
AcDbEntity
  8
0
 62
     0
100
AcDbLine
 10
-976.2500000000001
 20
-1222.5
 30
0.0
 11
-976.2500000000001
 21
-1222.5
 31
0.0
  0
LINE
  5
227
330
76
100
AcDbEntity
  8
0
 62
     0
100
AcDbLine
 10
-975.0
 20
-1222.5
 30
0.0
 11
-975.0
 21
-1222.5
 31
0.0
  0
LINE
  5
228
330
76
100
AcDbEntity
  8
0
 62
     0
100
AcDbLine
 10
-973.75
 20
-1222.5
 30
0.0
 11
-973.75
 21
-1222.5
 31
0.0
  0
LINE
  5
229
330
76
100
AcDbEntity
  8
0
 62
     0
100
AcDbLine
 10
-972.4999999999999
 20
-1222.5
 30
0.0
 11
-972.4999999999999
 21
-1222.5
 31
0.0
  0
LINE
  5
22A
330
76
100
AcDbEntity
  8
0
 62
     0
100
AcDbLine
 10
-971.25
 20
-1222.5
 30
0.0
 11
-971.25
 21
-1222.5
 31
0.0
  0
LINE
  5
22B
330
76
100
AcDbEntity
  8
0
 62
     0
100
AcDbLine
 10
-970.0
 20
-1222.5
 30
0.0
 11
-970.0
 21
-1222.5
 31
0.0
  0
LINE
  5
22C
330
76
100
AcDbEntity
  8
0
 62
     0
100
AcDbLine
 10
-968.75
 20
-1222.5
 30
0.0
 11
-968.75
 21
-1222.5
 31
0.0
  0
LINE
  5
22D
330
76
100
AcDbEntity
  8
0
 62
     0
100
AcDbLine
 10
-967.5
 20
-1222.5
 30
0.0
 11
-967.5
 21
-1222.5
 31
0.0
  0
LINE
  5
22E
330
76
100
AcDbEntity
  8
0
 62
     0
100
AcDbLine
 10
-966.2499999999999
 20
-1222.5
 30
0.0
 11
-966.2499999999999
 21
-1222.5
 31
0.0
  0
LINE
  5
22F
330
76
100
AcDbEntity
  8
0
 62
     0
100
AcDbLine
 10
-965.0
 20
-1222.5
 30
0.0
 11
-965.0
 21
-1222.5
 31
0.0
  0
LINE
  5
230
330
76
100
AcDbEntity
  8
0
 62
     0
100
AcDbLine
 10
-963.7500000000001
 20
-1222.5
 30
0.0
 11
-963.7500000000001
 21
-1222.5
 31
0.0
  0
LINE
  5
231
330
76
100
AcDbEntity
  8
0
 62
     0
100
AcDbLine
 10
-978.125
 20
-1223.75
 30
0.0
 11
-978.125
 21
-1223.75
 31
0.0
  0
LINE
  5
232
330
76
100
AcDbEntity
  8
0
 62
     0
100
AcDbLine
 10
-976.875
 20
-1223.75
 30
0.0
 11
-976.875
 21
-1223.75
 31
0.0
  0
LINE
  5
233
330
76
100
AcDbEntity
  8
0
 62
     0
100
AcDbLine
 10
-975.6249999999999
 20
-1223.75
 30
0.0
 11
-975.6249999999999
 21
-1223.75
 31
0.0
  0
LINE
  5
234
330
76
100
AcDbEntity
  8
0
 62
     0
100
AcDbLine
 10
-974.375
 20
-1223.75
 30
0.0
 11
-974.375
 21
-1223.75
 31
0.0
  0
LINE
  5
235
330
76
100
AcDbEntity
  8
0
 62
     0
100
AcDbLine
 10
-973.1250000000001
 20
-1223.75
 30
0.0
 11
-973.1250000000001
 21
-1223.75
 31
0.0
  0
LINE
  5
236
330
76
100
AcDbEntity
  8
0
 62
     0
100
AcDbLine
 10
-971.875
 20
-1223.75
 30
0.0
 11
-971.875
 21
-1223.75
 31
0.0
  0
LINE
  5
237
330
76
100
AcDbEntity
  8
0
 62
     0
100
AcDbLine
 10
-970.625
 20
-1223.75
 30
0.0
 11
-970.625
 21
-1223.75
 31
0.0
  0
LINE
  5
238
330
76
100
AcDbEntity
  8
0
 62
     0
100
AcDbLine
 10
-969.3749999999999
 20
-1223.75
 30
0.0
 11
-969.3749999999999
 21
-1223.75
 31
0.0
  0
LINE
  5
239
330
76
100
AcDbEntity
  8
0
 62
     0
100
AcDbLine
 10
-968.125
 20
-1223.75
 30
0.0
 11
-968.125
 21
-1223.75
 31
0.0
  0
LINE
  5
23A
330
76
100
AcDbEntity
  8
0
 62
     0
100
AcDbLine
 10
-966.8750000000001
 20
-1223.75
 30
0.0
 11
-966.8750000000001
 21
-1223.75
 31
0.0
  0
LINE
  5
23B
330
76
100
AcDbEntity
  8
0
 62
     0
100
AcDbLine
 10
-965.625
 20
-1223.75
 30
0.0
 11
-965.625
 21
-1223.75
 31
0.0
  0
LINE
  5
23C
330
76
100
AcDbEntity
  8
0
 62
     0
100
AcDbLine
 10
-964.375
 20
-1223.75
 30
0.0
 11
-964.375
 21
-1223.75
 31
0.0
  0
LINE
  5
23D
330
76
100
AcDbEntity
  8
0
 62
     0
100
AcDbLine
 10
-963.1249999999999
 20
-1223.75
 30
0.0
 11
-963.1249999999999
 21
-1223.75
 31
0.0
  0
LINE
  5
23E
330
76
100
AcDbEntity
  8
0
 62
     0
100
AcDbLine
 10
-977.5
 20
-1225.0
 30
0.0
 11
-977.5
 21
-1225.0
 31
0.0
  0
LINE
  5
23F
330
76
100
AcDbEntity
  8
0
 62
     0
100
AcDbLine
 10
-976.2500000000001
 20
-1225.0
 30
0.0
 11
-976.2500000000001
 21
-1225.0
 31
0.0
  0
LINE
  5
240
330
76
100
AcDbEntity
  8
0
 62
     0
100
AcDbLine
 10
-975.0
 20
-1225.0
 30
0.0
 11
-975.0
 21
-1225.0
 31
0.0
  0
LINE
  5
241
330
76
100
AcDbEntity
  8
0
 62
     0
100
AcDbLine
 10
-973.75
 20
-1225.0
 30
0.0
 11
-973.75
 21
-1225.0
 31
0.0
  0
LINE
  5
242
330
76
100
AcDbEntity
  8
0
 62
     0
100
AcDbLine
 10
-972.4999999999999
 20
-1225.0
 30
0.0
 11
-972.4999999999999
 21
-1225.0
 31
0.0
  0
LINE
  5
243
330
76
100
AcDbEntity
  8
0
 62
     0
100
AcDbLine
 10
-971.25
 20
-1225.0
 30
0.0
 11
-971.25
 21
-1225.0
 31
0.0
  0
LINE
  5
244
330
76
100
AcDbEntity
  8
0
 62
     0
100
AcDbLine
 10
-970.0
 20
-1225.0
 30
0.0
 11
-970.0
 21
-1225.0
 31
0.0
  0
LINE
  5
245
330
76
100
AcDbEntity
  8
0
 62
     0
100
AcDbLine
 10
-968.75
 20
-1225.0
 30
0.0
 11
-968.75
 21
-1225.0
 31
0.0
  0
LINE
  5
246
330
76
100
AcDbEntity
  8
0
 62
     0
100
AcDbLine
 10
-967.5
 20
-1225.0
 30
0.0
 11
-967.5
 21
-1225.0
 31
0.0
  0
LINE
  5
247
330
76
100
AcDbEntity
  8
0
 62
     0
100
AcDbLine
 10
-966.2499999999999
 20
-1225.0
 30
0.0
 11
-966.2499999999999
 21
-1225.0
 31
0.0
  0
LINE
  5
248
330
76
100
AcDbEntity
  8
0
 62
     0
100
AcDbLine
 10
-965.0
 20
-1225.0
 30
0.0
 11
-965.0
 21
-1225.0
 31
0.0
  0
LINE
  5
249
330
76
100
AcDbEntity
  8
0
 62
     0
100
AcDbLine
 10
-963.7500000000001
 20
-1225.0
 30
0.0
 11
-963.7500000000001
 21
-1225.0
 31
0.0
  0
LINE
  5
24A
330
76
100
AcDbEntity
  8
0
 62
     0
100
AcDbLine
 10
-962.5
 20
-1225.0
 30
0.0
 11
-962.5
 21
-1225.0
 31
0.0
  0
LINE
  5
24B
330
76
100
AcDbEntity
  8
0
 62
     0
100
AcDbLine
 10
-961.25
 20
-1225.0
 30
0.0
 11
-961.25
 21
-1225.0
 31
0.0
  0
LINE
  5
24C
330
76
100
AcDbEntity
  8
0
 62
     0
100
AcDbLine
 10
-976.875
 20
-1226.25
 30
0.0
 11
-976.875
 21
-1226.25
 31
0.0
  0
LINE
  5
24D
330
76
100
AcDbEntity
  8
0
 62
     0
100
AcDbLine
 10
-975.6249999999999
 20
-1226.25
 30
0.0
 11
-975.6249999999999
 21
-1226.25
 31
0.0
  0
LINE
  5
24E
330
76
100
AcDbEntity
  8
0
 62
     0
100
AcDbLine
 10
-974.375
 20
-1226.25
 30
0.0
 11
-974.375
 21
-1226.25
 31
0.0
  0
LINE
  5
24F
330
76
100
AcDbEntity
  8
0
 62
     0
100
AcDbLine
 10
-973.1250000000001
 20
-1226.25
 30
0.0
 11
-973.1250000000001
 21
-1226.25
 31
0.0
  0
LINE
  5
250
330
76
100
AcDbEntity
  8
0
 62
     0
100
AcDbLine
 10
-971.875
 20
-1226.25
 30
0.0
 11
-971.875
 21
-1226.25
 31
0.0
  0
LINE
  5
251
330
76
100
AcDbEntity
  8
0
 62
     0
100
AcDbLine
 10
-970.625
 20
-1226.25
 30
0.0
 11
-970.625
 21
-1226.25
 31
0.0
  0
LINE
  5
252
330
76
100
AcDbEntity
  8
0
 62
     0
100
AcDbLine
 10
-969.3749999999999
 20
-1226.25
 30
0.0
 11
-969.3749999999999
 21
-1226.25
 31
0.0
  0
LINE
  5
253
330
76
100
AcDbEntity
  8
0
 62
     0
100
AcDbLine
 10
-968.125
 20
-1226.25
 30
0.0
 11
-968.125
 21
-1226.25
 31
0.0
  0
LINE
  5
254
330
76
100
AcDbEntity
  8
0
 62
     0
100
AcDbLine
 10
-966.8750000000001
 20
-1226.25
 30
0.0
 11
-966.8750000000001
 21
-1226.25
 31
0.0
  0
LINE
  5
255
330
76
100
AcDbEntity
  8
0
 62
     0
100
AcDbLine
 10
-965.625
 20
-1226.25
 30
0.0
 11
-965.625
 21
-1226.25
 31
0.0
  0
LINE
  5
256
330
76
100
AcDbEntity
  8
0
 62
     0
100
AcDbLine
 10
-964.375
 20
-1226.25
 30
0.0
 11
-964.375
 21
-1226.25
 31
0.0
  0
LINE
  5
257
330
76
100
AcDbEntity
  8
0
 62
     0
100
AcDbLine
 10
-963.1249999999999
 20
-1226.25
 30
0.0
 11
-963.1249999999999
 21
-1226.25
 31
0.0
  0
LINE
  5
258
330
76
100
AcDbEntity
  8
0
 62
     0
100
AcDbLine
 10
-961.875
 20
-1226.25
 30
0.0
 11
-961.875
 21
-1226.25
 31
0.0
  0
LINE
  5
259
330
76
100
AcDbEntity
  8
0
 62
     0
100
AcDbLine
 10
-960.6250000000001
 20
-1226.25
 30
0.0
 11
-960.6250000000001
 21
-1226.25
 31
0.0
  0
LINE
  5
25A
330
76
100
AcDbEntity
  8
0
 62
     0
100
AcDbLine
 10
-959.375
 20
-1226.25
 30
0.0
 11
-959.375
 21
-1226.25
 31
0.0
  0
LINE
  5
25B
330
76
100
AcDbEntity
  8
0
 62
     0
100
AcDbLine
 10
-976.2500000000001
 20
-1227.5
 30
0.0
 11
-976.2500000000001
 21
-1227.5
 31
0.0
  0
LINE
  5
25C
330
76
100
AcDbEntity
  8
0
 62
     0
100
AcDbLine
 10
-975.0
 20
-1227.5
 30
0.0
 11
-975.0
 21
-1227.5
 31
0.0
  0
LINE
  5
25D
330
76
100
AcDbEntity
  8
0
 62
     0
100
AcDbLine
 10
-973.75
 20
-1227.5
 30
0.0
 11
-973.75
 21
-1227.5
 31
0.0
  0
LINE
  5
25E
330
76
100
AcDbEntity
  8
0
 62
     0
100
AcDbLine
 10
-972.4999999999999
 20
-1227.5
 30
0.0
 11
-972.4999999999999
 21
-1227.5
 31
0.0
  0
LINE
  5
25F
330
76
100
AcDbEntity
  8
0
 62
     0
100
AcDbLine
 10
-971.25
 20
-1227.5
 30
0.0
 11
-971.25
 21
-1227.5
 31
0.0
  0
LINE
  5
260
330
76
100
AcDbEntity
  8
0
 62
     0
100
AcDbLine
 10
-970.0
 20
-1227.5
 30
0.0
 11
-970.0
 21
-1227.5
 31
0.0
  0
LINE
  5
261
330
76
100
AcDbEntity
  8
0
 62
     0
100
AcDbLine
 10
-968.75
 20
-1227.5
 30
0.0
 11
-968.75
 21
-1227.5
 31
0.0
  0
LINE
  5
262
330
76
100
AcDbEntity
  8
0
 62
     0
100
AcDbLine
 10
-967.5
 20
-1227.5
 30
0.0
 11
-967.5
 21
-1227.5
 31
0.0
  0
LINE
  5
263
330
76
100
AcDbEntity
  8
0
 62
     0
100
AcDbLine
 10
-966.2499999999999
 20
-1227.5
 30
0.0
 11
-966.2499999999999
 21
-1227.5
 31
0.0
  0
LINE
  5
264
330
76
100
AcDbEntity
  8
0
 62
     0
100
AcDbLine
 10
-965.0
 20
-1227.5
 30
0.0
 11
-965.0
 21
-1227.5
 31
0.0
  0
LINE
  5
265
330
76
100
AcDbEntity
  8
0
 62
     0
100
AcDbLine
 10
-963.7500000000001
 20
-1227.5
 30
0.0
 11
-963.7500000000001
 21
-1227.5
 31
0.0
  0
LINE
  5
266
330
76
100
AcDbEntity
  8
0
 62
     0
100
AcDbLine
 10
-962.5
 20
-1227.5
 30
0.0
 11
-962.5
 21
-1227.5
 31
0.0
  0
LINE
  5
267
330
76
100
AcDbEntity
  8
0
 62
     0
100
AcDbLine
 10
-961.25
 20
-1227.5
 30
0.0
 11
-961.25
 21
-1227.5
 31
0.0
  0
LINE
  5
268
330
76
100
AcDbEntity
  8
0
 62
     0
100
AcDbLine
 10
-960.0
 20
-1227.5
 30
0.0
 11
-960.0
 21
-1227.5
 31
0.0
  0
LINE
  5
269
330
76
100
AcDbEntity
  8
0
 62
     0
100
AcDbLine
 10
-958.75
 20
-1227.5
 30
0.0
 11
-958.75
 21
-1227.5
 31
0.0
  0
LINE
  5
26A
330
76
100
AcDbEntity
  8
0
 62
     0
100
AcDbLine
 10
-975.6249999999999
 20
-1228.75
 30
0.0
 11
-975.6249999999999
 21
-1228.75
 31
0.0
  0
LINE
  5
26B
330
76
100
AcDbEntity
  8
0
 62
     0
100
AcDbLine
 10
-974.375
 20
-1228.75
 30
0.0
 11
-974.375
 21
-1228.75
 31
0.0
  0
LINE
  5
26C
330
76
100
AcDbEntity
  8
0
 62
     0
100
AcDbLine
 10
-973.1250000000001
 20
-1228.75
 30
0.0
 11
-973.1250000000001
 21
-1228.75
 31
0.0
  0
LINE
  5
26D
330
76
100
AcDbEntity
  8
0
 62
     0
100
AcDbLine
 10
-971.875
 20
-1228.75
 30
0.0
 11
-971.875
 21
-1228.75
 31
0.0
  0
LINE
  5
26E
330
76
100
AcDbEntity
  8
0
 62
     0
100
AcDbLine
 10
-970.625
 20
-1228.75
 30
0.0
 11
-970.625
 21
-1228.75
 31
0.0
  0
LINE
  5
26F
330
76
100
AcDbEntity
  8
0
 62
     0
100
AcDbLine
 10
-969.3749999999999
 20
-1228.75
 30
0.0
 11
-969.3749999999999
 21
-1228.75
 31
0.0
  0
LINE
  5
270
330
76
100
AcDbEntity
  8
0
 62
     0
100
AcDbLine
 10
-968.125
 20
-1228.75
 30
0.0
 11
-968.125
 21
-1228.75
 31
0.0
  0
LINE
  5
271
330
76
100
AcDbEntity
  8
0
 62
     0
100
AcDbLine
 10
-966.8750000000001
 20
-1228.75
 30
0.0
 11
-966.8750000000001
 21
-1228.75
 31
0.0
  0
LINE
  5
272
330
76
100
AcDbEntity
  8
0
 62
     0
100
AcDbLine
 10
-965.625
 20
-1228.75
 30
0.0
 11
-965.625
 21
-1228.75
 31
0.0
  0
LINE
  5
273
330
76
100
AcDbEntity
  8
0
 62
     0
100
AcDbLine
 10
-961.875
 20
-1228.75
 30
0.0
 11
-961.875
 21
-1228.75
 31
0.0
  0
LINE
  5
274
330
76
100
AcDbEntity
  8
0
 62
     0
100
AcDbLine
 10
-960.6250000000001
 20
-1228.75
 30
0.0
 11
-960.6250000000001
 21
-1228.75
 31
0.0
  0
LINE
  5
275
330
76
100
AcDbEntity
  8
0
 62
     0
100
AcDbLine
 10
-959.375
 20
-1228.75
 30
0.0
 11
-959.375
 21
-1228.75
 31
0.0
  0
LINE
  5
276
330
76
100
AcDbEntity
  8
0
 62
     0
100
AcDbLine
 10
-958.125
 20
-1228.75
 30
0.0
 11
-958.125
 21
-1228.75
 31
0.0
  0
LINE
  5
277
330
76
100
AcDbEntity
  8
0
 62
     0
100
AcDbLine
 10
-975.0
 20
-1230.0
 30
0.0
 11
-975.0
 21
-1230.0
 31
0.0
  0
LINE
  5
278
330
76
100
AcDbEntity
  8
0
 62
     0
100
AcDbLine
 10
-973.75
 20
-1230.0
 30
0.0
 11
-973.75
 21
-1230.0
 31
0.0
  0
LINE
  5
279
330
76
100
AcDbEntity
  8
0
 62
     0
100
AcDbLine
 10
-972.4999999999999
 20
-1230.0
 30
0.0
 11
-972.4999999999999
 21
-1230.0
 31
0.0
  0
LINE
  5
27A
330
76
100
AcDbEntity
  8
0
 62
     0
100
AcDbLine
 10
-971.25
 20
-1230.0
 30
0.0
 11
-971.25
 21
-1230.0
 31
0.0
  0
LINE
  5
27B
330
76
100
AcDbEntity
  8
0
 62
     0
100
AcDbLine
 10
-970.0
 20
-1230.0
 30
0.0
 11
-970.0
 21
-1230.0
 31
0.0
  0
LINE
  5
27C
330
76
100
AcDbEntity
  8
0
 62
     0
100
AcDbLine
 10
-968.75
 20
-1230.0
 30
0.0
 11
-968.75
 21
-1230.0
 31
0.0
  0
LINE
  5
27D
330
76
100
AcDbEntity
  8
0
 62
     0
100
AcDbLine
 10
-958.75
 20
-1230.0
 30
0.0
 11
-958.75
 21
-1230.0
 31
0.0
  0
LINE
  5
27E
330
76
100
AcDbEntity
  8
0
 62
     0
100
AcDbLine
 10
-957.5000000000001
 20
-1230.0
 30
0.0
 11
-957.5000000000001
 21
-1230.0
 31
0.0
  0
ENDBLK
  5
27F
330
76
100
AcDbEntity
  8
0
100
AcDbBlockEnd
  0
ENDSEC
  0
SECTION
  2
ENTITIES
  0
LWPOLYLINE
  5
280
330
6F
100
AcDbEntity
  8
STEINE
100
AcDbPolyline
 90
        5
 70
     0
 43
0.0
 10
-9.549064052867137
 20
-12.98765632087936
 10
-9.593104278130079
 20
-12.96661885005779
 10
-9.587458532804435
 20
-12.95279153073902
 10
-9.566430903491278
 20
-12.92155838842281
 10
-9.549064052867137
 20
-12.98765632087936
  0
LWPOLYLINE
  5
287
330
6F
100
AcDbEntity
  8
STEINE
100
AcDbPolyline
 90
        6
 70
     0
 43
0.0
 10
-9.587458532804435
 20
-12.95279153073902
 10
-9.602293491364466
 20
-12.92511681542434
 10
-9.59203837715901
 20
-12.91282988900221
 10
-9.595610188611981
 20
-12.89438493393657
 10
-9.575119249557555
 20
-12.8949129636679
 10
-9.566430903491278
 20
-12.92155838842281
  0
LWPOLYLINE
  5
28F
330
6F
100
AcDbEntity
  8
STEINE
100
AcDbPolyline
 90
       10
 70
     0
 43
0.0
 10
-9.602293491364466
 20
-12.92511681542434
 10
-9.673495361303553
 20
-12.9178901301874
 10
-9.692946380969118
 20
-12.89738383837985
 10
-9.697536460492441
 20
-12.87074156290764
 10
-9.675501191938018
 20
-12.86153739058046
 10
-9.656531356423739
 20
-12.84157290661602
 10
-9.636540890877089
 20
-12.82673204315094
 10
-9.607350583266965
 20
-12.83956156473684
 10
-9.595585781671118
 20
-12.86262336822869
 10
-9.575119249557555
 20
-12.8949129636679
  0
LWPOLYLINE
  5
29B
330
6F
100
AcDbEntity
  8
STEINE
100
AcDbPolyline
 90
       12
 70
     0
 43
0.0
 10
-9.575036974547233
 20
-12.78784575023327
 10
-9.635487587036788
 20
-12.78933614826717
 10
-9.665206318038576
 20
-12.79750984905356
 10
-9.730282045821404
 20
-12.81795118690559
 10
-9.765110225550442
 20
-12.80870331828107
 10
-9.75019141733874
 20
-12.72726168688965
 10
-9.730676624698666
 20
-12.66477808120241
 10
-9.699922304571719
 20
-12.64226123483636
 10
-9.648703026972553
 20
-12.654083117181
 10
-9.592890914227709
 20
-12.68896129177277
 10
-9.573944698333619
 20
-12.69973380688047
 10
-9.575036974547233
 20
-12.78784575023327
  0
LWPOLYLINE
  5
2A9
330
6F
100
AcDbEntity
  8
STEINE
100
AcDbPolyline
 90
        3
 70
     0
 43
0.0
 10
-9.699922304571719
 20
-12.64226123483636
 10
-9.668144598790043
 20
-12.62128202574459
 10
-9.648703026972553
 20
-12.654083117181
  0
LWPOLYLINE
  5
2AE
330
6F
100
AcDbEntity
  8
STEINE
100
AcDbPolyline
 90
        6
 70
     0
 43
0.0
 10
-9.819939499655216
 20
-12.82812796270409
 10
-9.818878716268521
 20
-12.78099868478081
 10
-9.794290691652154
 20
-12.78306671374844
 10
-9.775353923606141
 20
-12.80613402848499
 10
-9.790243600952944
 20
-12.8496666943541
 10
-9.819939499655216
 20
-12.82812796270409
  0
LWPOLYLINE
  5
2B6
330
6F
100
AcDbEntity
  8
STEINE
100
AcDbPolyline
 90
        8
 70
     0
 43
0.0
 10
-9.794290691652154
 20
-12.78306671374844
 10
-9.829616589266612
 20
-12.75486396870242
 10
-9.831645645860927
 20
-12.72873594484975
 10
-9.818321949332631
 20
-12.72311106352194
 10
-9.785021171709125
 20
-12.7200629515366
 10
-9.761466767916234
 20
-12.73391270949454
 10
-9.76097180565317
 20
-12.75645356914111
 10
-9.794290691652154
 20
-12.78306671374844
  0
LWPOLYLINE
  5
2C0
330
6F
100
AcDbEntity
  8
STEINE
100
AcDbPolyline
 90
       13
 70
     0
 43
0.0
 10
-9.830650210090089
 20
-12.76664569769274
 10
-9.832745795281269
 20
-12.82709355455994
 10
-9.84350925620123
 20
-12.83425725414304
 10
-9.882429403907837
 20
-12.81680970314992
 10
-9.917268212465961
 20
-12.82139348410786
 10
-9.949536550247
 20
-12.81419671705649
 10
-9.946950726716792
 20
-12.7824371196503
 10
-9.939756715287783
 20
-12.75375476509434
 10
-9.918750343632797
 20
-12.75018492194305
 10
-9.896180353121323
 20
-12.71178099415768
 10
-9.864419181073779
 20
-12.71231768441641
 10
-9.859316818232585
 20
-12.73896035354896
 10
-9.830650210090089
 20
-12.76664569769274
  0
LWPOLYLINE
  5
2CF
330
6F
100
AcDbEntity
  8
STEINE
100
AcDbPolyline
 90
        2
 70
     0
 43
0.0
 10
-9.830650210090089
 20
-12.76664569769274
 10
-9.829616589266612
 20
-12.75486396870242
  0
LWPOLYLINE
  5
2D3
330
6F
100
AcDbEntity
  8
STEINE
100
AcDbPolyline
 90
        5
 70
     0
 43
0.0
 10
-9.831645645860927
 20
-12.72873594484975
 10
-9.855691468973855
 20
-12.68773477738442
 10
-9.870541780287011
 20
-12.68003911146662
 10
-9.9064086984239
 20
-12.68923265496471
 10
-9.896180353121323
 20
-12.71178099415768
  0
LWPOLYLINE
  5
2DA
330
6F
100
AcDbEntity
  8
STEINE
100
AcDbPolyline
 90
       11
 70
     0
 43
0.0
 10
-9.9064086984239
 20
-12.68923265496471
 10
-9.945854907560152
 20
-12.68971462643667
 10
-9.993995367667729
 20
-12.67123542292176
 10
-10.06159550796827
 20
-12.64352016059241
 10
-10.06311700516876
 20
-12.62353993021452
 10
-10.04568283862708
 20
-12.60203741531545
 10
-10.00161151419755
 20
-12.58260450402537
 10
-9.984219469311877
 20
-12.61591630413829
 10
-9.957087742821306
 20
-12.64103905071171
 10
-9.923296333198436
 20
-12.6661669148695
 10
-9.9064086984239
 20
-12.68923265496471
  0
LWPOLYLINE
  5
2E7
330
6F
100
AcDbEntity
  8
STEINE
100
AcDbPolyline
 90
        5
 70
     0
 43
0.0
 10
-9.923296333198436
 20
-12.6661669148695
 10
-9.910488856591372
 20
-12.66566447306004
 10
-9.884363982021397
 20
-12.66773368300868
 10
-9.881295006038222
 20
-12.67388344478513
 10
-9.9064086984239
 20
-12.68923265496471
  0
LWPOLYLINE
  5
2EE
330
6F
100
AcDbEntity
  8
STEINE
100
AcDbPolyline
 90
       12
 70
     0
 43
0.0
 10
-9.9843934671806
 20
-12.84234553063641
 10
-10.00795692516123
 20
-12.84027828898946
 10
-10.04023943471438
 20
-12.85152372138138
 10
-10.06995029250944
 20
-12.84945175581039
 10
-10.08221556761306
 20
-12.81102105912213
 10
-10.08472895764136
 20
-12.74852052604043
 10
-10.06318747036899
 20
-12.71523864411307
 10
-10.01351803351453
 20
-12.74396469496638
 10
-10.00123425637509
 20
-12.75831807571478
 10
-10.00432842661981
 20
-12.78495444628196
 10
-9.990004570396635
 20
-12.8110919179827
 10
-9.9843934671806
 20
-12.84234553063641
  0
LWPOLYLINE
  5
2FC
330
6F
100
AcDbEntity
  8
STEINE
100
AcDbPolyline
 90
       16
 70
     0
 43
0.0
 10
-10.10007895514161
 20
-12.72443140029049
 10
-10.14257878750792
 20
-12.69878456058911
 10
-10.19481003461206
 20
-12.67056882475199
 10
-10.21684294120446
 20
-12.67669929717195
 10
-10.25580599788774
 20
-12.71509062782655
 10
-10.29887794994307
 20
-12.76731045878093
 10
-10.27685960878311
 20
-12.78013446912213
 10
-10.23588127361729
 20
-12.78580107844561
 10
-10.19645986508223
 20
-12.8175929559994
 10
-10.16828861286314
 20
-12.82324972381446
 10
-10.13755515673402
 20
-12.82788389329547
 10
-10.12167122459739
 20
-12.82379783022295
 10
-10.11960477027111
 20
-12.80125893887806
 10
-10.11495957830068
 20
-12.75618154984861
 10
-10.10110706472038
 20
-12.72904116283064
 10
-10.10007895514161
 20
-12.72443140029049
  0
LWPOLYLINE
  5
30E
330
6F
100
AcDbEntity
  8
KNOCHEN
100
AcDbPolyline
 90
        5
 70
     0
 43
0.0
 10
-10.04013196544252
 20
-12.71167037560313
 10
-10.04268157222177
 20
-12.69629990776538
 10
-10.03191811130181
 20
-12.68913620818227
 10
-10.0221965380724
 20
-12.70451218726474
 10
-10.04013196544252
 20
-12.71167037560313
  0
LWPOLYLINE
  5
315
330
6F
100
AcDbEntity
  8
KNOCHEN
100
AcDbPolyline
 90
        6
 70
     0
 43
0.0
 10
-10.02781197155213
 20
-12.67889369110759
 10
-10.02216898184884
 20
-12.66865235501391
 10
-9.999134340920214
 20
-12.69223510235102
 10
-10.00477536232182
 20
-12.69991502185536
 10
-10.02269346863714
 20
-12.68453274420751
 10
-10.02781197155213
 20
-12.67889369110759
  0
LWPOLYLINE
  5
31D
330
6F
100
AcDbEntity
  8
KNOCHEN
100
AcDbPolyline
 90
        5
 70
     0
 43
0.0
 10
-10.02781197155213
 20
-12.67889369110759
 10
-10.04982598244839
 20
-12.66043456426983
 10
-10.06212432502027
 20
-12.66503566628258
 10
-10.0513801534568
 20
-12.68297384927506
 10
-10.02781197155213
 20
-12.67889369110759
  0
LWPOLYLINE
  5
324
330
6F
100
AcDbEntity
  8
KNOCHEN
100
AcDbPolyline
 90
        4
 70
     0
 43
0.0
 10
-10.06212432502027
 20
-12.66503566628258
 10
-10.08413085637013
 20
-12.63684315640531
 10
-10.09028849135331
 20
-12.65015779874587
 10
-10.06212432502027
 20
-12.66503566628258
  0
LWPOLYLINE
  5
32A
330
6F
100
AcDbEntity
  8
STEINE
100
AcDbPolyline
 90
       16
 70
     0
 43
0.0
 10
-9.851555017378263
 20
-12.63804644483381
 10
-9.859734229409363
 20
-12.61549968028219
 10
-9.852028328322822
 20
-12.58733000270444
 10
-9.82280770886679
 20
-12.56071370881443
 10
-9.825851096928095
 20
-12.52126553137649
 10
-9.822238738460468
 20
-12.48694530470162
 10
-9.802253784158528
 20
-12.47927640768671
 10
-9.75771977761353
 20
-12.52439158810846
 10
-9.715745219356197
 20
-12.56694338363918
 10
-9.711662305566367
 20
-12.58692558231876
 10
-9.721411828679675
 20
-12.607921718805
 10
-9.743972765003409
 20
-12.63454313027939
 10
-9.755265830296044
 20
-12.66424690218839
 10
-9.773200864005834
 20
-12.67089280720891
 10
-9.821350378301151
 20
-12.66419612000498
 10
-9.851555017378263
 20
-12.63804644483381
  0
LWPOLYLINE
  5
33C
330
6F
100
AcDbEntity
  8
STEINE
100
AcDbPolyline
 90
        5
 70
     0
 43
0.0
 10
-9.721411828679675
 20
-12.607921718805
 10
-9.714246948115565
 20
-12.61714832977135
 10
-9.699392700199044
 20
-12.61972116251046
 10
-9.697320734628052
 20
-12.5900103047154
 10
-9.711662305566367
 20
-12.58692558231876
  0
LWPOLYLINE
  5
343
330
6F
100
AcDbEntity
  8
STEINE
100
AcDbPolyline
 90
       13
 70
     0
 43
0.0
 10
-9.708061363248498
 20
-12.56746157186209
 10
-9.676303734143983
 20
-12.57260881198165
 10
-9.644544924058457
 20
-12.57621920214759
 10
-9.635832564711654
 20
-12.57161534451249
 10
-9.636829181463502
 20
-12.53524244162312
 10
-9.655251697889964
 20
-12.50961410395755
 10
-9.678799803117472
 20
-12.4875678129137
 10
-9.690559487128943
 20
-12.45784632628956
 10
-9.71360790616935
 20
-12.45219349507786
 10
-9.728470814613272
 20
-12.46089089533187
 10
-9.717223413919668
 20
-12.49061198829568
 10
-9.717774275950514
 20
-12.54081535978651
 10
-9.708061363248498
 20
-12.56746157186209
  0
LWPOLYLINE
  5
352
330
6F
100
AcDbEntity
  8
STEINE
100
AcDbPolyline
 90
        9
 70
     0
 43
0.0
 10
-9.635832564711654
 20
-12.57161534451249
 10
-9.643019490254607
 20
-12.5910765993468
 10
-9.624081147567249
 20
-12.61209478081189
 10
-9.609239890441832
 20
-12.63157296304067
 10
-9.592841706685648
 20
-12.62492587703914
 10
-9.588721788824189
 20
-12.59675344383903
 10
-9.600991394191511
 20
-12.56395786364734
 10
-9.608662653168444
 20
-12.54704660925261
 10
-9.635832564711654
 20
-12.57161534451249
  0
LWPOLYLINE
  5
35D
330
6F
100
AcDbEntity
  8
STEINE
100
AcDbPolyline
 90
        7
 70
     0
 43
0.0
 10
-9.562491413284039
 20
-12.46153072459876
 10
-9.616791870336811
 20
-12.45943986333162
 10
-9.640379735258303
 20
-12.48913418739255
 10
-9.639874931486827
 20
-12.4988679640924
 10
-9.610677537990646
 20
-12.50247638595666
 10
-9.566610937485162
 20
-12.489190874481
 10
-9.562491413284039
 20
-12.46153072459876
  0
LWPOLYLINE
  5
366
330
6F
100
AcDbEntity
  8
STEINE
100
AcDbPolyline
 90
        4
 70
     0
 43
0.0
 10
-9.562491413284039
 20
-12.46153072459876
 10
-9.606017780587766
 20
-12.43844451416606
 10
-9.567055511225156
 20
-12.40107775014719
 10
-9.562491413284039
 20
-12.46153072459876
  0
LWPOLYLINE
  5
36C
330
6F
100
AcDbEntity
  8
STEINE
100
AcDbPolyline
 90
        7
 70
     0
 43
0.0
 10
-9.942153975516816
 20
-12.54013065324127
 10
-9.946265626511211
 20
-12.55754513676612
 10
-9.930388780260635
 20
-12.56268017341524
 10
-9.905798393682246
 20
-12.56167450247566
 10
-9.898602020291219
 20
-12.52991844801249
 10
-9.907828237597236
 20
-12.53657104525873
 10
-9.942153975516816
 20
-12.54013065324127
  0
LWPOLYLINE
  5
375
330
6F
100
AcDbEntity
  8
STEINE
100
AcDbPolyline
 90
       15
 70
     0
 43
0.0
 10
-9.942153975516816
 20
-12.54013065324127
 10
-10.04002725179302
 20
-12.57540301304996
 10
-10.0764056659271
 20
-12.58357159625198
 10
-10.08562204172471
 20
-12.57741711055149
 10
-10.05639866664632
 20
-12.5472148334364
 10
-10.04818953642965
 20
-12.53082806582997
 10
-10.05072890804015
 20
-12.50213823172763
 10
-10.01742025720992
 20
-12.4888444533849
 10
-10.00818380473515
 20
-12.46887248987406
 10
-9.975386256241776
 20
-12.4540414679174
 10
-9.934906426282047
 20
-12.44177776745512
 10
-9.864210541095447
 20
-12.44080752594582
 10
-9.887286516359406
 20
-12.47101452698495
 10
-9.895501157820788
 20
-12.49457326104154
 10
-9.898602020291219
 20
-12.52991844801249
  0
LWPOLYLINE
  5
386
330
6F
100
AcDbEntity
  8
STEINE
100
AcDbPolyline
 90
       15
 70
     0
 43
0.0
 10
-10.322354015329
 20
-12.65151632056705
 10
-10.33773786761819
 20
-12.67148356015385
 10
-10.33929794353165
 20
-12.70170709492712
 10
-10.3183006260644
 20
-12.70991976808682
 10
-10.30394370237297
 20
-12.69302544108656
 10
-10.27166473576284
 20
-12.68639055855546
 10
-10.25782481931331
 20
-12.67564323770929
 10
-10.25421364182669
 20
-12.64285986098803
 10
-10.25573198974449
 20
-12.61878136406717
 10
-10.25213340938864
 20
-12.60239105351772
 10
-10.2603208882868
 20
-12.59060223864135
 10
-10.29361497368459
 20
-12.58494153422292
 10
-10.31514110820384
 20
-12.59824436675338
 10
-10.31823173550552
 20
-12.62027018745973
 10
-10.322354015329
 20
-12.65151632056705
  0
LWPOLYLINE
  5
397
330
6F
100
AcDbEntity
  8
STEINE
100
AcDbPolyline
 90
       19
 70
     0
 43
0.0
 10
-9.574162130059466
 20
-12.31603320813622
 10
-9.606928973046597
 20
-12.2909061312991
 10
-9.636635894238294
 20
-12.28371133254942
 10
-9.676093519524302
 20
-12.29904952023958
 10
-9.709401776694203
 20
-12.31183101526444
 10
-9.757035858388958
 20
-12.30103645517789
 10
-9.850627422405411
 20
-12.09758793814231
 10
-9.851634667986344
 20
-12.07504668483539
 10
-9.83626656211061
 20
-12.07557077796336
 10
-9.797865389947592
 20
-12.10172675169992
 10
-9.750251778590333
 20
-12.13916004431565
 10
-9.733879182756021
 20
-12.16581137397561
 10
-9.702123521953188
 20
-12.1735200306845
 10
-9.677029512584333
 20
-12.18378498639837
 10
-9.642219441230773
 20
-12.21659788764487
 10
-9.61457779338435
 20
-12.24479472778584
 10
-9.58897701194234
 20
-12.26223204361021
 10
-9.568518353035505
 20
-12.3047673054068
 10
-9.574162130059466
 20
-12.31603320813622
  0
LWPOLYLINE
  5
3AC
330
6F
100
AcDbEntity
  8
STEINE
100
AcDbPolyline
 90
       10
 70
     0
 43
0.0
 10
-9.903136987367437
 20
-12.4315565080386
 10
-9.929260680956403
 20
-12.42795044813636
 10
-9.945640756337109
 20
-12.41103250151591
 10
-9.945113513926454
 20
-12.39156612909723
 10
-9.92819753560769
 20
-12.37774747030586
 10
-9.895413371565753
 20
-12.38033408115675
 10
-9.883637153820149
 20
-12.38853966843039
 10
-9.896458408538988
 20
-12.40697202636526
 10
-9.899039508145158
 20
-12.43258422395703
 10
-9.903136987367437
 20
-12.4315565080386
  0
LWPOLYLINE
  5
3B8
330
6F
100
AcDbEntity
  8
STEINE
100
AcDbPolyline
 90
        6
 70
     0
 43
0.0
 10
-9.945113513926454
 20
-12.39156612909723
 10
-9.994269880142367
 20
-12.36181590526852
 10
-10.03215365140314
 20
-12.32900064206
 10
-9.950180447337363
 20
-12.31881796135646
 10
-9.949182649604507
 20
-12.35365401429223
 10
-9.945113513926454
 20
-12.39156612909723
  0
LWPOLYLINE
  5
3C0
330
6F
100
AcDbEntity
  8
STEINE
100
AcDbPolyline
 90
        7
 70
     0
 43
0.0
 10
-10.04353922687484
 20
-12.47909099366823
 10
-10.06399040623529
 20
-12.42682234883213
 10
-10.06498781030781
 20
-12.39147401257849
 10
-10.05216655558897
 20
-12.37304165464362
 10
-10.0245028627637
 20
-12.37255062898392
 10
-9.999410428036197
 20
-12.38486471796926
 10
-10.04353922687484
 20
-12.47909099366823
  0
LWPOLYLINE
  5
3C9
330
6F
100
AcDbEntity
  8
STEINE
100
AcDbPolyline
 90
       13
 70
     0
 43
0.0
 10
-10.13986463070802
 20
-12.5000206015576
 10
-10.12398542249543
 20
-12.50208193829951
 10
-10.10452456132145
 20
-12.50978114716033
 10
-10.08966322751887
 20
-12.50313288017779
 10
-10.09220811037409
 20
-12.48161501252561
 10
-10.08962701076792
 20
-12.45600281493384
 10
-10.08397929714059
 20
-12.43961407902573
 10
-10.08959709258235
 20
-12.41706928277579
 10
-10.10956393850881
 20
-12.40117314716873
 10
-10.12699534942813
 20
-12.4190896788427
 10
-10.14238589394305
 20
-12.44776573483328
 10
-10.14138140398447
 20
-12.47389297136527
 10
-10.13986463070802
 20
-12.5000206015576
  0
LWPOLYLINE
  5
3D8
330
6F
100
AcDbEntity
  8
STEINE
100
AcDbPolyline
 90
        7
 70
     0
 43
0.0
 10
-10.12699534942813
 20
-12.4190896788427
 10
-10.14900975398472
 20
-12.40114283532282
 10
-10.12744425343183
 20
-12.33661167100545
 10
-10.11055386303493
 20
-12.35609142787558
 10
-10.09058465514645
 20
-12.36891386357543
 10
-10.07728575921936
 20
-12.39556283127337
 10
-10.10956393850881
 20
-12.40117314716873
  0
LWPOLYLINE
  5
3E1
330
6F
100
AcDbEntity
  8
STEINE
100
AcDbPolyline
 90
        6
 70
     0
 43
0.0
 10
-10.10593229068469
 20
-12.34175103791828
 10
-10.10794441988454
 20
-12.29359483139724
 10
-10.08847726014518
 20
-12.29309750717216
 10
-10.08441088008948
 20
-12.33459560520224
 10
-10.08800631116264
 20
-12.34688764920874
 10
-10.10593229068469
 20
-12.34175103791828
  0
LWPOLYLINE
  5
3E9
330
6F
100
AcDbEntity
  8
STEINE
100
AcDbPolyline
 90
        8
 70
     0
 43
0.0
 10
-10.07614978670839
 20
-12.2505874396371
 10
-10.0899873411959
 20
-12.25826106057605
 10
-10.07822214593972
 20
-12.28081058075003
 10
-10.05826671616302
 20
-12.31156293257529
 10
-10.04545687759394
 20
-12.30798679085862
 10
-10.04135152516493
 20
-12.29876884041967
 10
-10.07103797601913
 20
-12.2649353091408
 10
-10.07614978670839
 20
-12.2505874396371
  0
LWPOLYLINE
  5
3F3
330
6F
100
AcDbEntity
  8
STEINE
100
AcDbPolyline
 90
       10
 70
     0
 43
0.0
 10
-10.07614978670839
 20
-12.2505874396371
 10
-10.06177357366047
 20
-12.20859123006126
 10
-10.03101374228881
 20
-12.17890241724504
 10
-9.984899976813535
 20
-12.16817989700008
 10
-9.947577696412688
 20
-12.26503018128189
 10
-9.962444147799638
 20
-12.27833813139673
 10
-9.985513430837878
 20
-12.29983631603209
 10
-10.00600988113701
 20
-12.30648025275092
 10
-10.04390310024586
 20
-12.28595978917126
 10
-10.07103797601913
 20
-12.2649353091408
  0
LWPOLYLINE
  5
3FF
330
6F
100
AcDbEntity
  8
STEINE
100
AcDbPolyline
 90
        5
 70
     0
 43
0.0
 10
-9.962444147799638
 20
-12.27833813139673
 10
-9.908138966822829
 20
-12.27428159284944
 10
-9.906613926679316
 20
-12.28965127336652
 10
-9.929171320060023
 20
-12.31166213498009
 10
-9.962444147799638
 20
-12.27833813139673
  0
LWPOLYLINE
  5
406
330
6F
100
AcDbEntity
  8
STEINE
100
AcDbPolyline
 90
        5
 70
     0
 43
0.0
 10
-10.1012378911722
 20
-12.2326382341552
 10
-10.1104444254614
 20
-12.21367666550799
 10
-10.07816624617194
 20
-12.20806634961262
 10
-10.08535632099759
 20
-12.23162587098989
 10
-10.1012378911722
 20
-12.2326382341552
  0
LWPOLYLINE
  5
40D
330
6F
100
AcDbEntity
  8
KNOCHEN
100
AcDbPolyline
 90
        6
 70
     0
 43
0.0
 10
-10.12276638765347
 20
-12.24901476659287
 10
-10.1258133186578
 20
-12.21417713901576
 10
-10.14221622633802
 20
-12.22697162483172
 10
-10.14068882423249
 20
-12.23926760544159
 10
-10.13096488904106
 20
-12.25156988461684
 10
-10.12276638765347
 20
-12.24901476659287
  0
LWPOLYLINE
  5
415
330
6F
100
AcDbEntity
  8
STEINE
100
AcDbPolyline
 90
        7
 70
     1
 43
0.0
 10
-10.2175750182102
 20
-12.29607200467458
 10
-10.22112872128769
 20
-12.25406201698696
 10
-10.19193368975353
 20
-12.26074413875844
 10
-10.16631952386008
 20
-12.26076382177526
 10
-10.15249653480502
 20
-12.27204468359747
 10
-10.1550756661095
 20
-12.29509546459989
 10
-10.16378999375799
 20
-12.30226073882434
  0
LWPOLYLINE
  5
41E
330
6F
100
AcDbEntity
  8
STEINE
100
AcDbPolyline
 90
       12
 70
     0
 43
0.0
 10
-10.50095114898311
 20
-12.40445837389674
 10
-10.49273572020106
 20
-12.37987507320441
 10
-10.47531178882812
 20
-12.37169192456995
 10
-10.45430896011617
 20
-12.37273263127948
 10
-10.40108070259984
 20
-12.43680898668811
 10
-10.40467652733334
 20
-12.44961331401248
 10
-10.42210872557334
 20
-12.46855441232219
 10
-10.43851242057423
 20
-12.48237346477389
 10
-10.46616942117378
 20
-12.47415567402981
 10
-10.46462194239109
 20
-12.46032520542836
 10
-10.4671668252463
 20
-12.43880733777618
 10
-10.50095114898311
 20
-12.40445837389674
  0
LWPOLYLINE
  5
42C
330
6F
100
AcDbEntity
  8
STEINE
100
AcDbPolyline
 90
        6
 70
     0
 43
0.0
 10
-10.49948200860738
 20
-12.49257228555123
 10
-10.50970602364625
 20
-12.4643888298617
 10
-10.46616942117378
 20
-12.47415567402981
 10
-10.46362020805486
 20
-12.49003842518544
 10
-10.47950335287082
 20
-12.49309992162222
 10
-10.49948200860738
 20
-12.49257228555123
  0
LWPOLYLINE
  5
434
330
6F
100
AcDbEntity
  8
STEINE
100
AcDbPolyline
 90
        7
 70
     0
 43
0.0
 10
-10.43033478318448
 20
-12.50696936259699
 10
-10.41853770144104
 20
-12.48802393402357
 10
-10.39855432178045
 20
-12.48240417028013
 10
-10.38985770884711
 20
-12.49829164535979
 10
-10.4016587271939
 20
-12.5223599071119
 10
-10.42163580828912
 20
-12.51978313776943
 10
-10.43033478318448
 20
-12.50696936259699
  0
LWPOLYLINE
  5
43D
330
6F
100
AcDbEntity
  8
KNOCHEN
100
AcDbPolyline
 90
        9
 70
     0
 43
0.0
 10
-9.562047626864716
 20
-12.55066841556831
 10
-9.591249350624599
 20
-12.55269511020061
 10
-9.604061551155698
 20
-12.5593449518245
 10
-9.620452649025825
 20
-12.55677093810439
 10
-9.625567608997785
 20
-12.54652133514364
 10
-9.62095194155259
 20
-12.53986519495437
 10
-9.595337381998801
 20
-12.53937259465332
 10
-9.555883299655819
 20
-12.52864495682398
 10
-9.562047626864716
 20
-12.55066841556831
  0
LWPOLYLINE
  5
448
330
6F
100
AcDbEntity
  8
KNOCHEN
100
AcDbPolyline
 90
        8
 70
     0
 43
0.0
 10
-9.555883299655819
 20
-12.52864495682398
 10
-9.6014769086065
 20
-12.5291222043719
 10
-9.620436902612366
 20
-12.53627960538962
 10
-9.638365244096437
 20
-12.53421669400637
 10
-9.639895008163987
 20
-12.52499441330372
 10
-9.623495643426794
 20
-12.51681047734858
 10
-9.559965426124977
 20
-12.50763819150866
 10
-9.555883299655819
 20
-12.52864495682398
  0
LWPOLYLINE
  5
452
330
6F
100
AcDbEntity
  8
KNOCHEN
100
AcDbPolyline
 90
       10
 70
     0
 43
0.0
 10
-9.827776620853917
 20
-12.36040699492427
 10
-9.84365937200954
 20
-12.36295620804318
 10
-9.887712194403249
 20
-12.35831180339342
 10
-9.906670613767769
 20
-12.36342007113966
 10
-9.929724937713222
 20
-12.365451489696
 10
-9.938932259323086
 20
-12.34751448768452
 10
-9.920482973993745
 20
-12.338307559735
 10
-9.881038339498839
 20
-12.33987472153451
 10
-9.840574649612904
 20
-12.34861463710487
 10
-9.827776620853917
 20
-12.36040699492427
  0
LWPOLYLINE
  5
45E
330
6F
100
AcDbEntity
  8
KNOCHEN
100
AcDbPolyline
 90
        5
 70
     0
 43
0.0
 10
-9.846203073883744
 20
-12.33990149043739
 10
-9.861046299310842
 20
-12.32298472479796
 10
-9.848234098779741
 20
-12.31633488317407
 10
-9.837486777933577
 20
-12.3301747996236
 10
-9.846203073883744
 20
-12.33990149043739
  0
LWPOLYLINE
  5
465
330
6F
100
AcDbEntity
  8
KNOCHEN
100
AcDbPolyline
 90
        5
 70
     0
 43
0.0
 10
-9.832365125735895
 20
-12.33171558618057
 10
-9.832348198341428
 20
-12.3096874035122
 10
-9.80571694535863
 20
-12.31944125688921
 10
-9.819560798411524
 20
-12.33531141091407
 10
-9.832365125735895
 20
-12.33171558618057
  0
LWPOLYLINE
  5
46C
330
6F
100
AcDbEntity
  8
KNOCHEN
100
AcDbPolyline
 90
        9
 70
     0
 43
0.0
 10
-9.897886608239728
 20
-12.2655806496524
 10
-9.887142043015918
 20
-12.28300654932701
 10
-9.89176361536616
 20
-12.29734693928431
 10
-9.88152346025349
 20
-12.30452677894121
 10
-9.869737007339137
 20
-12.29941299995026
 10
-9.876389604585378
 20
-12.29018678264425
 10
-9.882021571799247
 20
-12.28608418583759
 10
-9.885591414950535
 20
-12.2650778141826
 10
-9.897886608239728
 20
-12.2655806496524
  0
INSERT
  5
477
330
6F
100
AcDbEntity
  8
KNOCHENSCHRAFF
100
AcDbBlockReference
  2
*X1
 10
0.0
 20
0.0
 30
0.0
 41
0.01
 42
0.01
 43
0.01
1001
ACAD
1000
HATCH
1002
{
1070
    16
1000
ANSI31,I
1040
2.0
1040
0.0
1002
}
  0
INSERT
  5
478
330
6F
100
AcDbEntity
  8
FEUER
100
AcDbBlockReference
  2
*X2
 10
0.0
 20
0.0
 30
0.0
 41
0.01
 42
0.01
 43
0.01
1001
ACAD
1000
HATCH
1002
{
1070
    16
1000
ANSI31,I
1040
10.0
1040
0.0
1002
}
  0
INSERT
  5
479
330
6F
100
AcDbEntity
  8
STEINESCHRAFF
100
AcDbBlockReference
  2
*X3
 10
0.0
 20
0.0
 30
0.0
 41
0.01
 42
0.01
 43
0.01
1001
ACAD
1000
HATCH
1002
{
1070
    16
1000
DOTS,I
1040
20.0
1040
0.0
1002
}
  0
ENDSEC
  0
SECTION
  2
OBJECTS
  0
DICTIONARY
  5
C
330
0
100
AcDbDictionary
281
     1
  3
ACAD_CIP_PREVIOUS_PRODUCT_INFO
350
47C
  3
ACAD_COLOR
350
62
  3
ACAD_DETAILVIEWSTYLE
350
69
  3
ACAD_GROUP
350
D
  3
ACAD_LAYOUT
350
61
  3
ACAD_MATERIAL
350
10
  3
ACAD_MLEADERSTYLE
350
65
  3
ACAD_MLINESTYLE
350
5E
  3
ACAD_PLOTSETTINGS
350
60
  3
ACAD_PLOTSTYLENAME
350
E
  3
ACAD_SCALELIST
350
42
  3
ACAD_SECTIONVIEWSTYLE
350
67
  3
ACAD_TABLESTYLE
350
63
  3
ACAD_VISUALSTYLE
350
29
  3
ACDB_RECOMPOSE_DATA
350
527
  3
AcDbVariableDictionary
350
4C7
  0
DICTIONARY
  5
480
330
2
100
AcDbDictionary
280
     1
281
     1
  3
ACAD_LAYERSTATES
360
481
  0
XRECORD
  5
47C
102
{ACAD_REACTORS
330
C
102
}
330
C
100
AcDbXrecord
280
     1
300
ACD
300
2014
300
DSADV_F_S
  0
DICTIONARY
  5
62
102
{ACAD_REACTORS
330
C
102
}
330
C
100
AcDbDictionary
281
     1
  0
DICTIONARY
  5
69
102
{ACAD_REACTORS
330
C
102
}
330
C
100
AcDbDictionary
281
     1
  3
Imperial24
350
6A
  0
DICTIONARY
  5
D
102
{ACAD_REACTORS
330
C
102
}
330
C
100
AcDbDictionary
281
     1
  0
DICTIONARY
  5
61
102
{ACAD_REACTORS
330
C
102
}
330
C
100
AcDbDictionary
281
     1
  3
Layout1
350
6E
  3
Model
350
72
  0
DICTIONARY
  5
10
102
{ACAD_REACTORS
330
C
102
}
330
C
100
AcDbDictionary
281
     1
  3
ByBlock
350
19
  3
ByLayer
350
11
  3
Global
350
21
  0
DICTIONARY
  5
65
102
{ACAD_REACTORS
330
C
102
}
330
C
100
AcDbDictionary
281
     1
  3
Standard
350
66
  0
DICTIONARY
  5
5E
102
{ACAD_REACTORS
330
C
102
}
330
C
100
AcDbDictionary
281
     1
  3
Standard
350
5F
  0
DICTIONARY
  5
60
102
{ACAD_REACTORS
330
C
102
}
330
C
100
AcDbDictionary
281
     1
  0
ACDBDICTIONARYWDFLT
  5
E
102
{ACAD_REACTORS
330
C
102
}
330
C
100
AcDbDictionary
281
     1
  3
Normal
350
F
100
AcDbDictionaryWithDefault
340
F
  0
DICTIONARY
  5
42
102
{ACAD_REACTORS
330
C
102
}
330
C
100
AcDbDictionary
281
     1
  3
A0
350
43
  3
A1
350
44
  3
A2
350
45
  3
A3
350
46
  3
A4
350
47
  3
A5
350
48
  3
A6
350
49
  3
A7
350
4A
  3
A8
350
4B
  3
A9
350
4C
  3
B0
350
4D
  3
B1
350
4E
  3
B2
350
4F
  3
B3
350
50
  3
B4
350
51
  3
B5
350
52
  3
B6
350
53
  0
DICTIONARY
  5
67
102
{ACAD_REACTORS
330
C
102
}
330
C
100
AcDbDictionary
281
     1
  3
Imperial24
350
68
  0
DICTIONARY
  5
63
102
{ACAD_REACTORS
330
C
102
}
330
C
100
AcDbDictionary
281
     1
  3
Standard
350
64
  0
DICTIONARY
  5
29
102
{ACAD_REACTORS
330
C
102
}
330
C
100
AcDbDictionary
281
     1
  3
2dWireframe
350
2F
  3
Basic
350
2E
  3
Brighten
350
35
  3
ColorChange
350
39
  3
Conceptual
350
32
  3
Dim
350
34
  3
EdgeColorOff
350
41
  3
Facepattern
350
38
  3
Flat
350
2A
  3
FlatWithEdges
350
2B
  3
Gouraud
350
2C
  3
GouraudWithEdges
350
2D
  3
Hidden
350
31
  3
JitterOff
350
3F
  3
Linepattern
350
37
  3
OverhangOff
350
40
  3
Realistic
350
33
  3
Shaded
350
3E
  3
Shaded with edges
350
3D
  3
Shades of Gray
350
3A
  3
Sketchy
350
3B
  3
Thicken
350
36
  3
Wireframe
350
30
  3
X-Ray
350
3C
  0
XRECORD
  5
527
102
{ACAD_REACTORS
330
C
102
}
330
C
100
AcDbXrecord
280
     1
 90
        1
330
64
330
68
330
6A
  0
DICTIONARY
  5
4C7
102
{ACAD_REACTORS
330
C
102
}
330
C
100
AcDbDictionary
281
     1
  3
CANNOSCALE
350
4CC
  3
CMLEADERSTYLE
350
4C9
  3
CTABLESTYLE
350
4C8
  3
CVIEWDETAILSTYLE
350
4CA
  3
CVIEWSECTIONSTYLE
350
4CB
  0
DICTIONARY
  5
481
102
{ACAD_REACTORS
330
480
102
}
330
480
100
AcDbDictionary
281
     1
  0
ACDBDETAILVIEWSTYLE
  5
6A
102
{ACAD_XDICTIONARY
360
525
102
}
102
{ACAD_REACTORS
330
69
102
}
330
69
100
AcDbModelDocViewStyle
 70
     0
  3
Imperial24
290
     0
100
AcDbDetailViewStyle
 70
     0
 71
     0
 90
        3
 71
     1
340
55
 62
   256
 40
0.24
340
0
 62
   256
 40
0.24
300

 40
0.36
280
     3
 71
     2
340
5C
 90
       25
 62
   256
 71
     3
340
55
 62
   256
 40
0.24
 90
        1
 40
0.75
 90
        1
300
%<\AcVar ViewType \f "%tc1">% %<\AcVar ViewDetailId>%\PVARIA %<\AcVar ViewScale \f "%sn">%
 71
     4
340
5C
 90
       25
 62
   256
340
5C
 90
       25
 62
   256
280
     0
  0
LAYOUT
  5
6E
102
{ACAD_REACTORS
330
61
102
}
330
61
100
AcDbPlotSettings
  1

  2
Kyocera FS-1350DN KX
  4

  6

 40
0.0
 41
0.0
 42
0.0
 43
0.0
 44
0.0
 45
0.0
 46
0.0
 47
0.0
 48
0.0
 49
0.0
140
0.0
141
0.0
142
1.0
143
1.0
 70
   688
 72
     0
 73
     0
 74
     5
  7

 75
    16
147
1.0
 76
     0
 77
     2
 78
   300
148
0.0
149
0.0
100
AcDbLayout
  1
Layout1
 70
     0
 71
     1
 10
0.0
 20
0.0
 11
12.0
 21
9.0
 12
0.0
 22
0.0
 32
0.0
 14
1.000000000000000E+20
 24
1.000000000000000E+20
 34
1.000000000000000E+20
 15
-1.000000000000000E+20
 25
-1.000000000000000E+20
 35
-1.000000000000000E+20
146
0.0
 13
0.0
 23
0.0
 33
0.0
 16
1.0
 26
0.0
 36
0.0
 17
0.0
 27
1.0
 37
0.0
 76
     0
330
6B
  0
LAYOUT
  5
72
102
{ACAD_XDICTIONARY
360
4C5
102
}
102
{ACAD_REACTORS
330
61
102
}
330
61
100
AcDbPlotSettings
  1

  2
Kyocera FS-1350DN KX
  4

  6

 40
0.0
 41
0.0
 42
0.0
 43
0.0
 44
0.0
 45
0.0
 46
0.0
 47
0.0
 48
0.0
 49
0.0
140
0.0
141
0.0
142
1.0
143
1.0
 70
  1712
 72
     0
 73
     0
 74
     0
  7

 75
     0
147
1.0
 76
     0
 77
     2
 78
   300
148
0.0
149
0.0
100
AcDbLayout
  1
Model
 70
     1
 71
     0
 10
0.0
 20
0.0
 11
12.0
 21
9.0
 12
0.0
 22
0.0
 32
0.0
 14
0.0
 24
0.0
 34
0.0
 15
0.0
 25
0.0
 35
0.0
146
0.0
 13
0.0
 23
0.0
 33
0.0
 16
1.0
 26
0.0
 36
0.0
 17
0.0
 27
1.0
 37
0.0
 76
     0
330
6F
331
90
  0
MATERIAL
  5
19
102
{ACAD_XDICTIONARY
360
1A
102
}
102
{ACAD_REACTORS
330
10
102
}
330
10
100
AcDbMaterial
  1
ByBlock
 72
     0
 43
0.0208333333333333
 43
0.0
 43
0.0
 43
0.0
 43
0.0
 43
0.0208333333333333
 43
0.0
 43
0.0
 43
0.0
 43
0.0
 43
1.0
 43
0.0
 43
0.0
 43
0.0
 43
0.0
 43
1.0
 77
     0
 47
0.0208333333333333
 47
0.0
 47
0.0
 47
0.0
 47
0.0
 47
0.0208333333333333
 47
0.0
 47
0.0
 47
0.0
 47
0.0
 47
1.0
 47
0.0
 47
0.0
 47
0.0
 47
0.0
 47
1.0
171
     0
 49
0.0208333333333333
 49
0.0
 49
0.0
 49
0.0
 49
0.0
 49
0.0208333333333333
 49
0.0
 49
0.0
 49
0.0
 49
0.0
 49
1.0
 49
0.0
 49
0.0
 49
0.0
 49
0.0
 49
1.0
175
     0
142
0.0208333333333333
142
0.0
142
0.0
142
0.0
142
0.0
142
0.0208333333333333
142
0.0
142
0.0
142
0.0
142
0.0
142
1.0
142
0.0
142
0.0
142
0.0
142
0.0
142
1.0
179
     0
144
0.0208333333333333
144
0.0
144
0.0
144
0.0
144
0.0
144
0.0208333333333333
144
0.0
144
0.0
144
0.0
144
0.0
144
1.0
144
0.0
144
0.0
144
0.0
144
0.0
144
1.0
147
0.0208333333333333
147
0.0
147
0.0
147
0.0
147
0.0
147
0.0208333333333333
147
0.0
147
0.0
147
0.0
147
0.0
147
1.0
147
0.0
147
0.0
147
0.0
147
0.0
147
1.0
  0
MATERIAL
  5
11
102
{ACAD_XDICTIONARY
360
12
102
}
102
{ACAD_REACTORS
330
10
102
}
330
10
100
AcDbMaterial
  1
ByLayer
 72
     0
 43
0.0208333333333333
 43
0.0
 43
0.0
 43
0.0
 43
0.0
 43
0.0208333333333333
 43
0.0
 43
0.0
 43
0.0
 43
0.0
 43
1.0
 43
0.0
 43
0.0
 43
0.0
 43
0.0
 43
1.0
 77
     0
 47
0.0208333333333333
 47
0.0
 47
0.0
 47
0.0
 47
0.0
 47
0.0208333333333333
 47
0.0
 47
0.0
 47
0.0
 47
0.0
 47
1.0
 47
0.0
 47
0.0
 47
0.0
 47
0.0
 47
1.0
171
     0
 49
0.0208333333333333
 49
0.0
 49
0.0
 49
0.0
 49
0.0
 49
0.0208333333333333
 49
0.0
 49
0.0
 49
0.0
 49
0.0
 49
1.0
 49
0.0
 49
0.0
 49
0.0
 49
0.0
 49
1.0
175
     0
142
0.0208333333333333
142
0.0
142
0.0
142
0.0
142
0.0
142
0.0208333333333333
142
0.0
142
0.0
142
0.0
142
0.0
142
1.0
142
0.0
142
0.0
142
0.0
142
0.0
142
1.0
179
     0
144
0.0208333333333333
144
0.0
144
0.0
144
0.0
144
0.0
144
0.0208333333333333
144
0.0
144
0.0
144
0.0
144
0.0
144
1.0
144
0.0
144
0.0
144
0.0
144
0.0
144
1.0
147
0.0208333333333333
147
0.0
147
0.0
147
0.0
147
0.0
147
0.0208333333333333
147
0.0
147
0.0
147
0.0
147
0.0
147
1.0
147
0.0
147
0.0
147
0.0
147
0.0
147
1.0
  0
MATERIAL
  5
21
102
{ACAD_XDICTIONARY
360
22
102
}
102
{ACAD_REACTORS
330
10
102
}
330
10
100
AcDbMaterial
  1
Global
 72
     0
 43
0.0208333333333333
 43
0.0
 43
0.0
 43
0.0
 43
0.0
 43
0.0208333333333333
 43
0.0
 43
0.0
 43
0.0
 43
0.0
 43
1.0
 43
0.0
 43
0.0
 43
0.0
 43
0.0
 43
1.0
 77
     0
 47
0.0208333333333333
 47
0.0
 47
0.0
 47
0.0
 47
0.0
 47
0.0208333333333333
 47
0.0
 47
0.0
 47
0.0
 47
0.0
 47
1.0
 47
0.0
 47
0.0
 47
0.0
 47
0.0
 47
1.0
171
     0
 49
0.0208333333333333
 49
0.0
 49
0.0
 49
0.0
 49
0.0
 49
0.0208333333333333
 49
0.0
 49
0.0
 49
0.0
 49
0.0
 49
1.0
 49
0.0
 49
0.0
 49
0.0
 49
0.0
 49
1.0
175
     0
142
0.0208333333333333
142
0.0
142
0.0
142
0.0
142
0.0
142
0.0208333333333333
142
0.0
142
0.0
142
0.0
142
0.0
142
1.0
142
0.0
142
0.0
142
0.0
142
0.0
142
1.0
179
     0
144
0.0208333333333333
144
0.0
144
0.0
144
0.0
144
0.0
144
0.0208333333333333
144
0.0
144
0.0
144
0.0
144
0.0
144
1.0
144
0.0
144
0.0
144
0.0
144
0.0
144
1.0
147
0.0208333333333333
147
0.0
147
0.0
147
0.0
147
0.0
147
0.0208333333333333
147
0.0
147
0.0
147
0.0
147
0.0
147
1.0
147
0.0
147
0.0
147
0.0
147
0.0
147
1.0
  0
MLEADERSTYLE
  5
66
102
{ACAD_REACTORS
330
65
102
}
330
65
100
AcDbMLeaderStyle
179
     2
170
     2
171
     1
172
     0
 90
        2
 40
0.0
 41
0.0
173
     1
 91
-1056964608
340
5A
 92
       -2
290
     1
 42
0.09
291
     1
 43
0.36
  3
Standard
 44
0.18
300

342
55
174
     1
178
     6
175
     1
176
     0
 93
-1056964608
 45
0.18
292
     0
297
     0
 46
0.18
 94
-1056964608
 47
1.0
 49
1.0
140
1.0
293
     1
141
0.0
294
     1
177
     0
142
1.0
295
     0
296
     0
143
0.125
271
     0
272
     9
273
     9
298
     1
  0
MLINESTYLE
  5
5F
102
{ACAD_REACTORS
330
5E
102
}
330
5E
100
AcDbMlineStyle
  2
STANDARD
 70
     0
  3

 62
   256
 51
90.0
 52
90.0
 71
     2
 49
0.5
 62
   256
  6
BYLAYER
 49
-0.5
 62
   256
  6
BYLAYER
  0
ACDBPLACEHOLDER
  5
F
102
{ACAD_REACTORS
330
E
102
}
330
E
  0
SCALE
  5
43
102
{ACAD_REACTORS
330
42
102
}
330
42
100
AcDbScale
 70
     0
300
1:1
140
1.0
141
1.0
290
     1
  0
SCALE
  5
44
102
{ACAD_REACTORS
330
42
102
}
330
42
100
AcDbScale
 70
     0
300
1/128" = 1'-0"
140
0.0078125
141
12.0
290
     0
  0
SCALE
  5
45
102
{ACAD_REACTORS
330
42
102
}
330
42
100
AcDbScale
 70
     0
300
1/64" = 1'-0"
140
0.015625
141
12.0
290
     0
  0
SCALE
  5
46
102
{ACAD_REACTORS
330
42
102
}
330
42
100
AcDbScale
 70
     0
300
1/32" = 1'-0"
140
0.03125
141
12.0
290
     0
  0
SCALE
  5
47
102
{ACAD_REACTORS
330
42
102
}
330
42
100
AcDbScale
 70
     0
300
1/16" = 1'-0"
140
0.0625
141
12.0
290
     0
  0
SCALE
  5
48
102
{ACAD_REACTORS
330
42
102
}
330
42
100
AcDbScale
 70
     0
300
3/32" = 1'-0"
140
0.09375
141
12.0
290
     0
  0
SCALE
  5
49
102
{ACAD_REACTORS
330
42
102
}
330
42
100
AcDbScale
 70
     0
300
1/8" = 1'-0"
140
0.125
141
12.0
290
     0
  0
SCALE
  5
4A
102
{ACAD_REACTORS
330
42
102
}
330
42
100
AcDbScale
 70
     0
300
3/16" = 1'-0"
140
0.1875
141
12.0
290
     0
  0
SCALE
  5
4B
102
{ACAD_REACTORS
330
42
102
}
330
42
100
AcDbScale
 70
     0
300
1/4" = 1'-0"
140
0.25
141
12.0
290
     0
  0
SCALE
  5
4C
102
{ACAD_REACTORS
330
42
102
}
330
42
100
AcDbScale
 70
     0
300
3/8" = 1'-0"
140
0.375
141
12.0
290
     0
  0
SCALE
  5
4D
102
{ACAD_REACTORS
330
42
102
}
330
42
100
AcDbScale
 70
     0
300
1/2" = 1'-0"
140
0.5
141
12.0
290
     0
  0
SCALE
  5
4E
102
{ACAD_REACTORS
330
42
102
}
330
42
100
AcDbScale
 70
     0
300
3/4" = 1'-0"
140
0.75
141
12.0
290
     0
  0
SCALE
  5
4F
102
{ACAD_REACTORS
330
42
102
}
330
42
100
AcDbScale
 70
     0
300
1" = 1'-0"
140
1.0
141
12.0
290
     0
  0
SCALE
  5
50
102
{ACAD_REACTORS
330
42
102
}
330
42
100
AcDbScale
 70
     0
300
1-1/2" = 1'-0"
140
1.5
141
12.0
290
     0
  0
SCALE
  5
51
102
{ACAD_REACTORS
330
42
102
}
330
42
100
AcDbScale
 70
     0
300
3" = 1'-0"
140
3.0
141
12.0
290
     0
  0
SCALE
  5
52
102
{ACAD_REACTORS
330
42
102
}
330
42
100
AcDbScale
 70
     0
300
6" = 1'-0"
140
6.0
141
12.0
290
     0
  0
SCALE
  5
53
102
{ACAD_REACTORS
330
42
102
}
330
42
100
AcDbScale
 70
     0
300
1'-0" = 1'-0"
140
12.0
141
12.0
290
     0
  0
ACDBSECTIONVIEWSTYLE
  5
68
102
{ACAD_XDICTIONARY
360
523
102
}
102
{ACAD_REACTORS
330
67
102
}
330
67
100
AcDbModelDocViewStyle
 70
     0
  3
Imperial24
290
     0
100
AcDbSectionViewStyle
 70
     0
 71
     0
 90
       78
 71
     1
340
55
 62
   256
 40
0.24
340
0
340
0
 62
   256
 40
0.24
300
I, O, Q, S, X, Z
 40
0.48
 90
        3
 40
0.18
 90
        1
 71
     2
340
5C
 90
       25
 62
   256
340
5C
 90
       50
 62
   256
 40
0.24
 40
0.0
 40
0.24
 71
     3
340
55
 62
   256
 40
0.24
 90
        1
 40
0.75
 90
        1
300
%<\AcVar ViewType \f "%tc1">% %<\AcVar ViewSectionStartId>%-%<\AcVar ViewSectionEndId>%\PVARIA %<\AcVar ViewScale \f "%sn">%
 71
     4
 62
   256
 62
   257
300
ANSI31
 40
1.0
 90
        0
290
     0
290
     0
 90
        6
 40
0.0
 40
1.570796326794896
 40
0.2617993877991494
 40
1.308996938995747
 40
-0.2617993877991494
 40
1.832595714594046
  0
TABLESTYLE
  5
64
102
{ACAD_XDICTIONARY
360
521
102
}
102
{ACAD_REACTORS
330
63
102
}
330
63
100
AcDbTableStyle
280
     0
  3
Standard
 70
     0
 71
     0
 40
0.06
 41
0.06
280
     0
281
     0
  7
STANDARD
140
0.18
170
     2
 62
     0
 63
     7
283
     0
 90
      512
 91
        0
  1

274
    -2
284
     1
 64
     0
275
    -2
285
     1
 65
     0
276
    -2
286
     1
 66
     0
277
    -2
287
     1
 67
     0
278
    -2
288
     1
 68
     0
279
    -2
289
     1
 69
     0
  7
STANDARD
140
0.25
170
     5
 62
     0
 63
     7
283
     0
 90
      512
 91
        0
  1

274
    -2
284
     1
 64
     0
275
    -2
285
     1
 65
     0
276
    -2
286
     1
 66
     0
277
    -2
287
     1
 67
     0
278
    -2
288
     1
 68
     0
279
    -2
289
     1
 69
     0
  7
STANDARD
140
0.18
170
     5
 62
     0
 63
     7
283
     0
 90
      512
 91
        0
  1

274
    -2
284
     1
 64
     0
275
    -2
285
     1
 65
     0
276
    -2
286
     1
 66
     0
277
    -2
287
     1
 67
     0
278
    -2
288
     1
 68
     0
279
    -2
289
     1
 69
     0
  0
VISUALSTYLE
  5
2F
102
{ACAD_REACTORS
330
29
102
}
330
29
100
AcDbVisualStyle
  2
2dWireframe
 70
     4
177
     3
291
     0
 70
    58
 90
        0
176
     1
 90
        2
176
     1
 90
        0
176
     1
 90
        0
176
     1
 40
0.6
176
     1
 40
30.0
176
     1
 62
     7
420
 16777215
176
     1
 90
        1
176
     1
 90
        4
176
     1
 62
     7
176
     1
 62
   257
176
     1
 90
        1
176
     1
 90
        1
176
     1
 40
1.0
176
     1
 90
        0
176
     1
 62
   257
176
     1
 40
1.0
176
     1
 90
        1
176
     1
 90
        6
176
     1
 90
        2
176
     1
 62
     7
176
     1
 90
        5
176
     1
 90
        0
176
     1
 90
        0
176
     1
290
     0
176
     1
 90
        1
176
     1
 40
0.0
176
     1
 90
        0
176
     1
290
     1
176
     1
290
     1
176
     1
290
     0
176
     1
290
     0
176
     1
290
     0
176
     1
290
     0
176
     1
290
     0
176
     1
290
     0
176
     1
290
     0
176
     1
 90
       50
176
     1
 40
0.0
176
     1
 40
1.0
176
     1
 90
        0
176
     1
 62
    18
420
        0
176
     1
 90
       50
176
     1
 90
        3
176
     1
 62
     5
420
      255
176
     1
290
     0
176
     1
 90
       50
176
     1
 90
       50
176
     1
 90
       50
176
     1
290
     0
176
     1
 90
       50
176
     1
 62
   256
176
     0
 40
1.0
176
     0
 90
        2
176
     1
  1
strokes_ogs.tif
176
     1
290
     0
176
     1
 40
1.0
176
     1
 40
1.0
176
     1
  0
VISUALSTYLE
  5
2E
102
{ACAD_REACTORS
330
29
102
}
330
29
100
AcDbVisualStyle
  2
Basic
 70
     7
177
     3
291
     1
 70
    58
 90
        1
176
     1
 90
        0
176
     1
 90
        1
176
     1
 90
        0
176
     1
 40
0.6
176
     1
 40
30.0
176
     1
 62
     7
420
 16777215
176
     1
 90
        0
176
     1
 90
        4
176
     1
 62
     7
176
     1
 62
   257
176
     1
 90
        1
176
     1
 90
        1
176
     1
 40
1.0
176
     1
 90
        8
176
     1
 62
     7
176
     1
 40
1.0
176
     1
 90
        1
176
     1
 90
        6
176
     1
 90
        2
176
     1
 62
     7
176
     1
 90
        5
176
     1
 90
        0
176
     1
 90
        0
176
     1
290
     0
176
     1
 90
        1
176
     1
 40
0.0
176
     1
 90
        0
176
     1
290
     0
176
     1
290
     1
176
     1
290
     1
176
     1
290
     0
176
     1
290
     0
176
     1
290
     0
176
     1
290
     0
176
     1
290
     0
176
     1
290
     0
176
     1
 90
       50
176
     1
 40
0.0
176
     1
 40
1.0
176
     1
 90
        0
176
     1
 62
    18
420
        0
176
     1
 90
       50
176
     1
 90
        3
176
     1
 62
     5
420
      255
176
     1
290
     0
176
     1
 90
       50
176
     1
 90
       50
176
     1
 90
       50
176
     1
290
     0
176
     1
 90
       50
176
     1
 62
   256
176
     0
 40
1.0
176
     0
 90
        2
176
     1
  1
strokes_ogs.tif
176
     1
290
     0
176
     1
 40
1.0
176
     1
 40
1.0
176
     1
  0
VISUALSTYLE
  5
35
102
{ACAD_REACTORS
330
29
102
}
330
29
100
AcDbVisualStyle
  2
Brighten
 70
    12
177
     3
291
     1
 70
    58
 90
        2
176
     1
 90
        2
176
     1
 90
        0
176
     1
 90
        0
176
     1
 40
0.6
176
     1
 40
30.0
176
     1
 62
     7
420
 16777215
176
     1
 90
        1
176
     1
 90
        4
176
     1
 62
     7
176
     1
 62
   257
176
     1
 90
        1
176
     1
 90
        1
176
     1
 40
1.0
176
     1
 90
        8
176
     1
 62
     7
176
     1
 40
1.0
176
     1
 90
        1
176
     1
 90
        6
176
     1
 90
        2
176
     1
 62
     7
176
     1
 90
        5
176
     1
 90
        0
176
     1
 90
        0
176
     1
290
     0
176
     1
 90
        1
176
     1
 40
50.0
176
     1
 90
        0
176
     1
290
     0
176
     1
290
     1
176
     1
290
     1
176
     1
290
     0
176
     1
290
     0
176
     1
290
     0
176
     1
290
     0
176
     1
290
     0
176
     1
290
     0
176
     1
 90
       50
176
     1
 40
0.0
176
     1
 40
1.0
176
     1
 90
        0
176
     1
 62
    18
420
        0
176
     1
 90
       50
176
     1
 90
        3
176
     1
 62
     5
420
      255
176
     1
290
     0
176
     1
 90
       50
176
     1
 90
       50
176
     1
 90
       50
176
     1
290
     0
176
     1
 90
       50
176
     1
 62
   256
176
     0
 40
1.0
176
     0
 90
        2
176
     1
  1
strokes_ogs.tif
176
     1
290
     0
176
     1
 40
1.0
176
     1
 40
1.0
176
     1
  0
VISUALSTYLE
  5
39
102
{ACAD_REACTORS
330
29
102
}
330
29
100
AcDbVisualStyle
  2
ColorChange
 70
    16
177
     3
291
     1
 70
    58
 90
        2
176
     1
 90
        2
176
     1
 90
        3
176
     1
 90
        0
176
     1
 40
0.6
176
     1
 40
30.0
176
     1
 62
     8
420
  8421504
176
     1
 90
        1
176
     1
 90
        4
176
     1
 62
     7
176
     1
 62
   257
176
     1
 90
        1
176
     1
 90
        1
176
     1
 40
1.0
176
     1
 90
        8
176
     1
 62
     8
420
  8421504
176
     1
 40
1.0
176
     1
 90
        1
176
     1
 90
        6
176
     1
 90
        2
176
     1
 62
     7
176
     1
 90
        5
176
     1
 90
        0
176
     1
 90
        0
176
     1
290
     0
176
     1
 90
        1
176
     1
 40
0.0
176
     1
 90
        0
176
     1
290
     0
176
     1
290
     1
176
     1
290
     1
176
     1
290
     0
176
     1
290
     0
176
     1
290
     0
176
     1
290
     0
176
     1
290
     0
176
     1
290
     0
176
     1
 90
       50
176
     1
 40
0.0
176
     1
 40
1.0
176
     1
 90
        0
176
     1
 62
    18
420
        0
176
     1
 90
       50
176
     1
 90
        3
176
     1
 62
     5
420
      255
176
     1
290
     0
176
     1
 90
       50
176
     1
 90
       50
176
     1
 90
       50
176
     1
290
     0
176
     1
 90
       50
176
     1
 62
   256
176
     0
 40
1.0
176
     0
 90
        2
176
     1
  1
strokes_ogs.tif
176
     1
290
     0
176
     1
 40
1.0
176
     1
 40
1.0
176
     1
  0
VISUALSTYLE
  5
32
102
{ACAD_REACTORS
330
29
102
}
330
29
100
AcDbVisualStyle
  2
Conceptual
 70
     9
177
     3
291
     0
 70
    58
 90
        3
176
     1
 90
        2
176
     1
 90
        0
176
     1
 90
        0
176
     1
 40
0.6
176
     1
 40
30.0
176
     1
 62
     7
420
 16777215
176
     1
 90
        2
176
     1
 90
        2
176
     1
 62
     7
176
     1
 62
   257
176
     1
 90
        1
176
     1
 90
        1
176
     1
 40
179.0
176
     1
 90
        8
176
     1
 62
     7
176
     1
 40
1.0
176
     1
 90
        1
176
     1
 90
        6
176
     1
 90
        2
176
     1
 62
     7
176
     1
 90
        3
176
     1
 90
        0
176
     1
 90
        0
176
     1
290
     0
176
     1
 90
        1
176
     1
 40
0.0
176
     1
 90
        0
176
     1
290
     0
176
     1
290
     1
176
     1
290
     1
176
     1
290
     0
176
     1
290
     0
176
     1
290
     0
176
     1
290
     0
176
     1
290
     0
176
     1
290
     0
176
     1
 90
       50
176
     1
 40
0.0
176
     1
 40
1.0
176
     1
 90
        0
176
     1
 62
    18
420
        0
176
     1
 90
       50
176
     1
 90
        3
176
     1
 62
     5
420
      255
176
     1
290
     0
176
     1
 90
       50
176
     1
 90
       50
176
     1
 90
       50
176
     1
290
     0
176
     1
 90
       50
176
     1
 62
   256
176
     0
 40
1.0
176
     0
 90
        2
176
     1
  1
strokes_ogs.tif
176
     1
290
     0
176
     1
 40
1.0
176
     1
 40
1.0
176
     1
  0
VISUALSTYLE
  5
34
102
{ACAD_REACTORS
330
29
102
}
330
29
100
AcDbVisualStyle
  2
Dim
 70
    11
177
     3
291
     1
 70
    58
 90
        2
176
     1
 90
        2
176
     1
 90
        0
176
     1
 90
        0
176
     1
 40
0.6
176
     1
 40
30.0
176
     1
 62
     7
420
 16777215
176
     1
 90
        1
176
     1
 90
        4
176
     1
 62
     7
176
     1
 62
   257
176
     1
 90
        1
176
     1
 90
        1
176
     1
 40
1.0
176
     1
 90
        8
176
     1
 62
     7
176
     1
 40
1.0
176
     1
 90
        1
176
     1
 90
        6
176
     1
 90
        2
176
     1
 62
     7
176
     1
 90
        5
176
     1
 90
        0
176
     1
 90
        0
176
     1
290
     0
176
     1
 90
        1
176
     1
 40
-50.0
176
     1
 90
        0
176
     1
290
     0
176
     1
290
     1
176
     1
290
     1
176
     1
290
     0
176
     1
290
     0
176
     1
290
     0
176
     1
290
     0
176
     1
290
     0
176
     1
290
     0
176
     1
 90
       50
176
     1
 40
0.0
176
     1
 40
1.0
176
     1
 90
        0
176
     1
 62
    18
420
        0
176
     1
 90
       50
176
     1
 90
        3
176
     1
 62
     5
420
      255
176
     1
290
     0
176
     1
 90
       50
176
     1
 90
       50
176
     1
 90
       50
176
     1
290
     0
176
     1
 90
       50
176
     1
 62
   256
176
     0
 40
1.0
176
     0
 90
        2
176
     1
  1
strokes_ogs.tif
176
     1
290
     0
176
     1
 40
1.0
176
     1
 40
1.0
176
     1
  0
VISUALSTYLE
  5
41
102
{ACAD_REACTORS
330
29
102
}
330
29
100
AcDbVisualStyle
  2
EdgeColorOff
 70
    22
177
     3
291
     1
 70
    58
 90
        2
176
     0
 90
        2
176
     0
 90
        0
176
     0
 90
        0
176
     0
 40
0.6
176
     0
 40
30.0
176
     0
 62
     7
420
 16777215
176
     0
 90
        1
176
     0
 90
        4
176
     0
 62
     7
176
     0
 62
   257
176
     0
 90
        1
176
     0
 90
        1
176
     0
 40
1.0
176
     0
 90
        8
176
     2
 62
     7
176
     0
 40
1.0
176
     0
 90
        1
176
     0
 90
        6
176
     0
 90
        2
176
     0
 62
     7
176
     0
 90
        5
176
     0
 90
        0
176
     0
 90
        0
176
     0
290
     0
176
     0
 90
        1
176
     0
 40
0.0
176
     0
 90
        0
176
     0
290
     0
176
     0
290
     1
176
     0
290
     1
176
     0
290
     0
176
     0
290
     0
176
     0
290
     0
176
     0
290
     0
176
     0
290
     0
176
     0
290
     0
176
     0
 90
       50
176
     0
 40
0.0
176
     0
 40
1.0
176
     0
 90
        0
176
     0
 62
    18
420
        0
176
     0
 90
       50
176
     0
 90
        3
176
     0
 62
     5
420
      255
176
     0
290
     0
176
     0
 90
       50
176
     0
 90
       50
176
     0
 90
       50
176
     0
290
     0
176
     0
 90
       50
176
     0
 62
   256
176
     0
 40
1.0
176
     0
 90
        2
176
     0
  1
strokes_ogs.tif
176
     0
290
     0
176
     0
 40
1.0
176
     0
 40
1.0
176
     0
  0
VISUALSTYLE
  5
38
102
{ACAD_REACTORS
330
29
102
}
330
29
100
AcDbVisualStyle
  2
Facepattern
 70
    15
177
     3
291
     1
 70
    58
 90
        2
176
     1
 90
        2
176
     1
 90
        0
176
     1
 90
        0
176
     1
 40
0.6
176
     1
 40
30.0
176
     1
 62
     7
420
 16777215
176
     1
 90
        1
176
     1
 90
        4
176
     1
 62
     7
176
     1
 62
   257
176
     1
 90
        1
176
     1
 90
        1
176
     1
 40
1.0
176
     1
 90
        8
176
     1
 62
     7
176
     1
 40
1.0
176
     1
 90
        1
176
     1
 90
        6
176
     1
 90
        2
176
     1
 62
     7
176
     1
 90
        5
176
     1
 90
        0
176
     1
 90
        0
176
     1
290
     0
176
     1
 90
        1
176
     1
 40
0.0
176
     1
 90
        0
176
     1
290
     0
176
     1
290
     1
176
     1
290
     1
176
     1
290
     0
176
     1
290
     0
176
     1
290
     0
176
     1
290
     0
176
     1
290
     0
176
     1
290
     0
176
     1
 90
       50
176
     1
 40
0.0
176
     1
 40
1.0
176
     1
 90
        0
176
     1
 62
    18
420
        0
176
     1
 90
       50
176
     1
 90
        3
176
     1
 62
     5
420
      255
176
     1
290
     0
176
     1
 90
       50
176
     1
 90
       50
176
     1
 90
       50
176
     1
290
     0
176
     1
 90
       50
176
     1
 62
   256
176
     0
 40
1.0
176
     0
 90
        2
176
     1
  1
strokes_ogs.tif
176
     1
290
     0
176
     1
 40
1.0
176
     1
 40
1.0
176
     1
  0
VISUALSTYLE
  5
2A
102
{ACAD_REACTORS
330
29
102
}
330
29
100
AcDbVisualStyle
  2
Flat
 70
     0
177
     3
291
     1
 70
    58
 90
        2
176
     1
 90
        1
176
     1
 90
        1
176
     1
 90
        2
176
     1
 40
0.6
176
     1
 40
30.0
176
     1
 62
     7
420
 16777215
176
     1
 90
        0
176
     1
 90
        0
176
     1
 62
     7
176
     1
 62
   257
176
     1
 90
        1
176
     1
 90
        1
176
     1
 40
1.0
176
     1
 90
        8
176
     1
 62
     7
176
     1
 40
1.0
176
     1
 90
        1
176
     1
 90
        6
176
     1
 90
        2
176
     1
 62
     7
176
     1
 90
        5
176
     1
 90
        0
176
     1
 90
        0
176
     1
290
     0
176
     1
 90
       13
176
     1
 40
0.0
176
     1
 90
        0
176
     1
290
     0
176
     1
290
     1
176
     1
290
     1
176
     1
290
     0
176
     1
290
     0
176
     1
290
     0
176
     1
290
     0
176
     1
290
     0
176
     1
290
     0
176
     1
 90
       50
176
     1
 40
0.0
176
     1
 40
1.0
176
     1
 90
        0
176
     1
 62
    18
420
        0
176
     1
 90
       50
176
     1
 90
        3
176
     1
 62
     5
420
      255
176
     1
290
     0
176
     1
 90
       50
176
     1
 90
       50
176
     1
 90
       50
176
     1
290
     0
176
     1
 90
       50
176
     1
 62
   256
176
     0
 40
1.0
176
     0
 90
        2
176
     1
  1
strokes_ogs.tif
176
     1
290
     0
176
     1
 40
1.0
176
     1
 40
1.0
176
     1
  0
VISUALSTYLE
  5
2B
102
{ACAD_REACTORS
330
29
102
}
330
29
100
AcDbVisualStyle
  2
FlatWithEdges
 70
     1
177
     3
291
     1
 70
    58
 90
        2
176
     1
 90
        1
176
     1
 90
        1
176
     1
 90
        2
176
     1
 40
0.6
176
     1
 40
30.0
176
     1
 62
     7
420
 16777215
176
     1
 90
        1
176
     1
 90
        0
176
     1
 62
     7
176
     1
 62
   257
176
     1
 90
        1
176
     1
 90
        1
176
     1
 40
1.0
176
     1
 90
        0
176
     1
 62
   257
176
     1
 40
1.0
176
     1
 90
        1
176
     1
 90
        6
176
     1
 90
        2
176
     1
 62
     7
176
     1
 90
        5
176
     1
 90
        0
176
     1
 90
        0
176
     1
290
     0
176
     1
 90
       13
176
     1
 40
0.0
176
     1
 90
        0
176
     1
290
     0
176
     1
290
     1
176
     1
290
     1
176
     1
290
     0
176
     1
290
     0
176
     1
290
     0
176
     1
290
     0
176
     1
290
     0
176
     1
290
     0
176
     1
 90
       50
176
     1
 40
0.0
176
     1
 40
1.0
176
     1
 90
        0
176
     1
 62
    18
420
        0
176
     1
 90
       50
176
     1
 90
        3
176
     1
 62
     5
420
      255
176
     1
290
     0
176
     1
 90
       50
176
     1
 90
       50
176
     1
 90
       50
176
     1
290
     0
176
     1
 90
       50
176
     1
 62
   256
176
     0
 40
1.0
176
     0
 90
        2
176
     1
  1
strokes_ogs.tif
176
     1
290
     0
176
     1
 40
1.0
176
     1
 40
1.0
176
     1
  0
VISUALSTYLE
  5
2C
102
{ACAD_REACTORS
330
29
102
}
330
29
100
AcDbVisualStyle
  2
Gouraud
 70
     2
177
     3
291
     1
 70
    58
 90
        2
176
     1
 90
        2
176
     1
 90
        1
176
     1
 90
        2
176
     1
 40
0.6
176
     1
 40
30.0
176
     1
 62
     7
420
 16777215
176
     1
 90
        0
176
     1
 90
        0
176
     1
 62
     7
176
     1
 62
   257
176
     1
 90
        1
176
     1
 90
        1
176
     1
 40
1.0
176
     1
 90
        0
176
     1
 62
     7
176
     1
 40
1.0
176
     1
 90
        1
176
     1
 90
        6
176
     1
 90
        2
176
     1
 62
     7
176
     1
 90
        5
176
     1
 90
        0
176
     1
 90
        0
176
     1
290
     0
176
     1
 90
       13
176
     1
 40
0.0
176
     1
 90
        0
176
     1
290
     0
176
     1
290
     1
176
     1
290
     1
176
     1
290
     0
176
     1
290
     0
176
     1
290
     0
176
     1
290
     0
176
     1
290
     0
176
     1
290
     0
176
     1
 90
       50
176
     1
 40
0.0
176
     1
 40
1.0
176
     1
 90
        0
176
     1
 62
    18
420
        0
176
     1
 90
       50
176
     1
 90
        3
176
     1
 62
     5
420
      255
176
     1
290
     0
176
     1
 90
       50
176
     1
 90
       50
176
     1
 90
       50
176
     1
290
     0
176
     1
 90
       50
176
     1
 62
   256
176
     0
 40
1.0
176
     0
 90
        2
176
     1
  1
strokes_ogs.tif
176
     1
290
     0
176
     1
 40
1.0
176
     1
 40
1.0
176
     1
  0
VISUALSTYLE
  5
2D
102
{ACAD_REACTORS
330
29
102
}
330
29
100
AcDbVisualStyle
  2
GouraudWithEdges
 70
     3
177
     3
291
     1
 70
    58
 90
        2
176
     1
 90
        2
176
     1
 90
        1
176
     1
 90
        2
176
     1
 40
0.6
176
     1
 40
30.0
176
     1
 62
     7
420
 16777215
176
     1
 90
        1
176
     1
 90
        0
176
     1
 62
     7
176
     1
 62
   257
176
     1
 90
        1
176
     1
 90
        1
176
     1
 40
1.0
176
     1
 90
        0
176
     1
 62
   257
176
     1
 40
1.0
176
     1
 90
        1
176
     1
 90
        6
176
     1
 90
        2
176
     1
 62
     7
176
     1
 90
        5
176
     1
 90
        0
176
     1
 90
        0
176
     1
290
     0
176
     1
 90
       13
176
     1
 40
0.0
176
     1
 90
        0
176
     1
290
     0
176
     1
290
     1
176
     1
290
     1
176
     1
290
     0
176
     1
290
     0
176
     1
290
     0
176
     1
290
     0
176
     1
290
     0
176
     1
290
     0
176
     1
 90
       50
176
     1
 40
0.0
176
     1
 40
1.0
176
     1
 90
        0
176
     1
 62
    18
420
        0
176
     1
 90
       50
176
     1
 90
        3
176
     1
 62
     5
420
      255
176
     1
290
     0
176
     1
 90
       50
176
     1
 90
       50
176
     1
 90
       50
176
     1
290
     0
176
     1
 90
       50
176
     1
 62
   256
176
     0
 40
1.0
176
     0
 90
        2
176
     1
  1
strokes_ogs.tif
176
     1
290
     0
176
     1
 40
1.0
176
     1
 40
1.0
176
     1
  0
VISUALSTYLE
  5
31
102
{ACAD_REACTORS
330
29
102
}
330
29
100
AcDbVisualStyle
  2
Hidden
 70
     6
177
     3
291
     0
 70
    58
 90
        1
176
     1
 90
        2
176
     1
 90
        2
176
     1
 90
        0
176
     1
 40
0.6
176
     1
 40
30.0
176
     1
 62
     7
420
 16777215
176
     1
 90
        2
176
     1
 90
        2
176
     1
 62
     7
176
     1
 62
   257
176
     1
 90
        2
176
     1
 90
        1
176
     1
 40
40.0
176
     1
 90
        0
176
     1
 62
   257
176
     1
 40
1.0
176
     1
 90
        1
176
     1
 90
        6
176
     1
 90
        2
176
     1
 62
     7
176
     1
 90
        3
176
     1
 90
        0
176
     1
 90
        0
176
     1
290
     0
176
     1
 90
        1
176
     1
 40
0.0
176
     1
 90
        0
176
     1
290
     0
176
     1
290
     1
176
     1
290
     1
176
     1
290
     0
176
     1
290
     0
176
     1
290
     0
176
     1
290
     0
176
     1
290
     0
176
     1
290
     0
176
     1
 90
       50
176
     1
 40
0.0
176
     1
 40
1.0
176
     1
 90
        0
176
     1
 62
    18
420
        0
176
     1
 90
       50
176
     1
 90
        3
176
     1
 62
     5
420
      255
176
     1
290
     0
176
     1
 90
       50
176
     1
 90
       50
176
     1
 90
       50
176
     1
290
     0
176
     1
 90
       50
176
     1
 62
   256
176
     0
 40
1.0
176
     0
 90
        2
176
     1
  1
strokes_ogs.tif
176
     1
290
     0
176
     1
 40
1.0
176
     1
 40
1.0
176
     1
  0
VISUALSTYLE
  5
3F
102
{ACAD_REACTORS
330
29
102
}
330
29
100
AcDbVisualStyle
  2
JitterOff
 70
    20
177
     3
291
     1
 70
    58
 90
        2
176
     0
 90
        2
176
     0
 90
        0
176
     0
 90
        0
176
     0
 40
0.6
176
     0
 40
30.0
176
     0
 62
     7
420
 16777215
176
     0
 90
        1
176
     0
 90
        4
176
     0
 62
     7
176
     0
 62
   257
176
     0
 90
        1
176
     0
 90
        1
176
     0
 40
1.0
176
     0
 90
       10
176
     2
 62
     7
176
     0
 40
1.0
176
     0
 90
        1
176
     0
 90
        6
176
     0
 90
        2
176
     0
 62
     7
176
     0
 90
        5
176
     0
 90
        0
176
     0
 90
        0
176
     0
290
     0
176
     0
 90
        1
176
     0
 40
0.0
176
     0
 90
        0
176
     0
290
     0
176
     0
290
     1
176
     0
290
     1
176
     0
290
     0
176
     0
290
     0
176
     0
290
     0
176
     0
290
     0
176
     0
290
     0
176
     0
290
     0
176
     0
 90
       50
176
     0
 40
0.0
176
     0
 40
1.0
176
     0
 90
        0
176
     0
 62
    18
420
        0
176
     0
 90
       50
176
     0
 90
        3
176
     0
 62
     5
420
      255
176
     0
290
     0
176
     0
 90
       50
176
     0
 90
       50
176
     0
 90
       50
176
     0
290
     0
176
     0
 90
       50
176
     0
 62
   256
176
     0
 40
1.0
176
     0
 90
        2
176
     0
  1
strokes_ogs.tif
176
     0
290
     0
176
     0
 40
1.0
176
     0
 40
1.0
176
     0
  0
VISUALSTYLE
  5
37
102
{ACAD_REACTORS
330
29
102
}
330
29
100
AcDbVisualStyle
  2
Linepattern
 70
    14
177
     3
291
     1
 70
    58
 90
        2
176
     1
 90
        2
176
     1
 90
        0
176
     1
 90
        0
176
     1
 40
0.6
176
     1
 40
30.0
176
     1
 62
     7
420
 16777215
176
     1
 90
        1
176
     1
 90
        4
176
     1
 62
     7
176
     1
 62
   257
176
     1
 90
        7
176
     1
 90
        7
176
     1
 40
1.0
176
     1
 90
        8
176
     1
 62
     7
176
     1
 40
1.0
176
     1
 90
        1
176
     1
 90
        6
176
     1
 90
        2
176
     1
 62
     7
176
     1
 90
        5
176
     1
 90
        0
176
     1
 90
        0
176
     1
290
     0
176
     1
 90
        1
176
     1
 40
0.0
176
     1
 90
        0
176
     1
290
     0
176
     1
290
     1
176
     1
290
     1
176
     1
290
     0
176
     1
290
     0
176
     1
290
     0
176
     1
290
     0
176
     1
290
     0
176
     1
290
     0
176
     1
 90
       50
176
     1
 40
0.0
176
     1
 40
1.0
176
     1
 90
        0
176
     1
 62
    18
420
        0
176
     1
 90
       50
176
     1
 90
        3
176
     1
 62
     5
420
      255
176
     1
290
     0
176
     1
 90
       50
176
     1
 90
       50
176
     1
 90
       50
176
     1
290
     0
176
     1
 90
       50
176
     1
 62
   256
176
     0
 40
1.0
176
     0
 90
        2
176
     1
  1
strokes_ogs.tif
176
     1
290
     0
176
     1
 40
1.0
176
     1
 40
1.0
176
     1
  0
VISUALSTYLE
  5
40
102
{ACAD_REACTORS
330
29
102
}
330
29
100
AcDbVisualStyle
  2
OverhangOff
 70
    21
177
     3
291
     1
 70
    58
 90
        2
176
     0
 90
        2
176
     0
 90
        0
176
     0
 90
        0
176
     0
 40
0.6
176
     0
 40
30.0
176
     0
 62
     7
420
 16777215
176
     0
 90
        1
176
     0
 90
        4
176
     0
 62
     7
176
     0
 62
   257
176
     0
 90
        1
176
     0
 90
        1
176
     0
 40
1.0
176
     0
 90
        9
176
     2
 62
     7
176
     0
 40
1.0
176
     0
 90
        1
176
     0
 90
        6
176
     0
 90
        2
176
     0
 62
     7
176
     0
 90
        5
176
     0
 90
        0
176
     0
 90
        0
176
     0
290
     0
176
     0
 90
        1
176
     0
 40
0.0
176
     0
 90
        0
176
     0
290
     0
176
     0
290
     1
176
     0
290
     1
176
     0
290
     0
176
     0
290
     0
176
     0
290
     0
176
     0
290
     0
176
     0
290
     0
176
     0
290
     0
176
     0
 90
       50
176
     0
 40
0.0
176
     0
 40
1.0
176
     0
 90
        0
176
     0
 62
    18
420
        0
176
     0
 90
       50
176
     0
 90
        3
176
     0
 62
     5
420
      255
176
     0
290
     0
176
     0
 90
       50
176
     0
 90
       50
176
     0
 90
       50
176
     0
290
     0
176
     0
 90
       50
176
     0
 62
   256
176
     0
 40
1.0
176
     0
 90
        2
176
     0
  1
strokes_ogs.tif
176
     0
290
     0
176
     0
 40
1.0
176
     0
 40
1.0
176
     0
  0
VISUALSTYLE
  5
33
102
{ACAD_REACTORS
330
29
102
}
330
29
100
AcDbVisualStyle
  2
Realistic
 70
     8
177
     3
291
     0
 70
    58
 90
        2
176
     1
 90
        3
176
     1
 90
        0
176
     1
 90
        2
176
     1
 40
0.6
176
     1
 40
30.0
176
     1
 62
     7
420
 16777215
176
     1
 90
        0
176
     1
 90
        0
176
     1
 62
     7
176
     1
 62
   257
176
     1
 90
        1
176
     1
 90
        1
176
     1
 40
1.0
176
     1
 90
        8
176
     1
 62
   257
176
     1
 40
1.0
176
     1
 90
        1
176
     1
 90
        6
176
     1
 90
        2
176
     1
 62
     7
176
     1
 90
        3
176
     1
 90
        0
176
     1
 90
        0
176
     1
290
     0
176
     1
 90
       13
176
     1
 40
0.0
176
     1
 90
        0
176
     1
290
     0
176
     1
290
     1
176
     1
290
     1
176
     1
290
     0
176
     1
290
     0
176
     1
290
     0
176
     1
290
     0
176
     1
290
     0
176
     1
290
     0
176
     1
 90
       50
176
     1
 40
0.0
176
     1
 40
1.0
176
     1
 90
        0
176
     1
 62
    18
420
        0
176
     1
 90
       50
176
     1
 90
        3
176
     1
 62
     5
420
      255
176
     1
290
     0
176
     1
 90
       50
176
     1
 90
       50
176
     1
 90
       50
176
     1
290
     0
176
     1
 90
       50
176
     1
 62
   256
176
     0
 40
1.0
176
     0
 90
        2
176
     1
  1
strokes_ogs.tif
176
     1
290
     0
176
     1
 40
1.0
176
     1
 40
1.0
176
     1
  0
VISUALSTYLE
  5
3E
102
{ACAD_REACTORS
330
29
102
}
330
29
100
AcDbVisualStyle
  2
Shaded
 70
    27
177
     3
291
     0
 70
    58
 90
        2
176
     1
 90
        2
176
     1
 90
        1
176
     1
 90
        2
176
     1
 40
0.6
176
     1
 40
30.0
176
     1
 62
     7
420
 16777215
176
     1
 90
        0
176
     1
 90
        4
176
     1
 62
     7
176
     1
 62
   257
176
     1
 90
        1
176
     1
 90
        1
176
     1
 40
1.0
176
     1
 90
        8
176
     1
 62
   257
176
     1
 40
1.0
176
     1
 90
        1
176
     1
 90
        6
176
     1
 90
        2
176
     1
 62
     8
420
  7895160
176
     1
 90
        3
176
     1
 90
        0
176
     1
 90
        0
176
     1
290
     0
176
     1
 90
        5
176
     1
 40
0.0
176
     1
 90
        0
176
     1
290
     0
176
     1
290
     1
176
     1
290
     1
176
     1
290
     0
176
     1
290
     0
176
     1
290
     0
176
     1
290
     0
176
     1
290
     0
176
     1
290
     0
176
     1
 90
       50
176
     1
 40
0.0
176
     1
 40
1.0
176
     1
 90
        0
176
     1
 62
    18
420
        0
176
     1
 90
       50
176
     1
 90
        3
176
     1
 62
     5
420
      255
176
     1
290
     0
176
     1
 90
       50
176
     1
 90
       50
176
     1
 90
       50
176
     1
290
     0
176
     1
 90
       50
176
     1
 62
   256
176
     0
 40
1.0
176
     0
 90
        2
176
     1
  1
strokes_ogs.tif
176
     1
290
     0
176
     1
 40
1.0
176
     1
 40
1.0
176
     1
  0
VISUALSTYLE
  5
3D
102
{ACAD_REACTORS
330
29
102
}
330
29
100
AcDbVisualStyle
  2
Shaded with edges
 70
    26
177
     3
291
     0
 70
    58
 90
        2
176
     1
 90
        2
176
     1
 90
        1
176
     1
 90
        2
176
     1
 40
0.6
176
     1
 40
30.0
176
     1
 62
     7
420
 16777215
176
     1
 90
        1
176
     1
 90
       10
176
     1
 62
     7
176
     1
 62
   257
176
     1
 90
        2
176
     1
 90
        1
176
     1
 40
1.0
176
     1
 90
        8
176
     1
 62
   257
176
     1
 40
1.0
176
     1
 90
        1
176
     1
 90
        6
176
     1
 90
        2
176
     1
 62
     7
176
     1
 90
        3
176
     1
 90
        0
176
     1
 90
        0
176
     1
290
     0
176
     1
 90
        5
176
     1
 40
0.0
176
     1
 90
        0
176
     1
290
     0
176
     1
290
     1
176
     1
290
     1
176
     1
290
     0
176
     1
290
     0
176
     1
290
     0
176
     1
290
     0
176
     1
290
     0
176
     1
290
     0
176
     1
 90
       50
176
     1
 40
0.0
176
     1
 40
1.0
176
     1
 90
        0
176
     1
 62
    18
420
        0
176
     1
 90
       50
176
     1
 90
        3
176
     1
 62
     5
420
      255
176
     1
290
     0
176
     1
 90
       50
176
     1
 90
       50
176
     1
 90
       50
176
     1
290
     0
176
     1
 90
       50
176
     1
 62
   256
176
     0
 40
1.0
176
     0
 90
        2
176
     1
  1
strokes_ogs.tif
176
     1
290
     0
176
     1
 40
1.0
176
     1
 40
1.0
176
     1
  0
VISUALSTYLE
  5
3A
102
{ACAD_REACTORS
330
29
102
}
330
29
100
AcDbVisualStyle
  2
Shades of Gray
 70
    23
177
     3
291
     0
 70
    58
 90
        2
176
     1
 90
        2
176
     1
 90
        3
176
     1
 90
        0
176
     1
 40
0.6
176
     1
 40
30.0
176
     1
 62
     7
420
 16777215
176
     1
 90
        2
176
     1
 90
        2
176
     1
 62
     7
176
     1
 62
     7
176
     1
 90
        1
176
     1
 90
        1
176
     1
 40
40.0
176
     1
 90
        8
176
     1
 62
     7
176
     1
 40
1.0
176
     1
 90
        1
176
     1
 90
        6
176
     1
 90
        2
176
     1
 62
     7
176
     1
 90
        3
176
     1
 90
        0
176
     1
 90
        0
176
     1
290
     0
176
     1
 90
        1
176
     1
 40
0.0
176
     1
 90
        0
176
     1
290
     0
176
     1
290
     1
176
     1
290
     1
176
     1
290
     0
176
     1
290
     0
176
     1
290
     0
176
     1
290
     0
176
     1
290
     0
176
     1
290
     0
176
     1
 90
       50
176
     1
 40
0.0
176
     1
 40
1.0
176
     1
 90
        0
176
     1
 62
    18
420
        0
176
     1
 90
       50
176
     1
 90
        3
176
     1
 62
     5
420
      255
176
     1
290
     0
176
     1
 90
       50
176
     1
 90
       50
176
     1
 90
       50
176
     1
290
     0
176
     1
 90
       50
176
     1
 62
   256
176
     0
 40
1.0
176
     0
 90
        2
176
     1
  1
strokes_ogs.tif
176
     1
290
     0
176
     1
 40
1.0
176
     1
 40
1.0
176
     1
  0
VISUALSTYLE
  5
3B
102
{ACAD_REACTORS
330
29
102
}
330
29
100
AcDbVisualStyle
  2
Sketchy
 70
    24
177
     3
291
     0
 70
    58
 90
        1
176
     1
 90
        2
176
     1
 90
        2
176
     1
 90
        0
176
     1
 40
0.6
176
     1
 40
30.0
176
     1
 62
     7
420
 16777215
176
     1
 90
        2
176
     1
 90
        2
176
     1
 62
     7
176
     1
 62
     7
176
     1
 90
        1
176
     1
 90
        1
176
     1
 40
40.0
176
     1
 90
       11
176
     1
 62
     7
176
     1
 40
1.0
176
     1
 90
        1
176
     1
 90
        6
176
     1
 90
        2
176
     1
 62
     7
176
     1
 90
        6
176
     1
 90
        0
176
     1
 90
        0
176
     1
290
     0
176
     1
 90
        1
176
     1
 40
0.0
176
     1
 90
        0
176
     1
290
     0
176
     1
290
     1
176
     1
290
     1
176
     1
290
     0
176
     1
290
     0
176
     1
290
     0
176
     1
290
     0
176
     1
290
     0
176
     1
290
     0
176
     1
 90
       50
176
     1
 40
0.0
176
     1
 40
1.0
176
     1
 90
        0
176
     1
 62
    18
420
        0
176
     1
 90
       50
176
     1
 90
        3
176
     1
 62
     5
420
      255
176
     1
290
     0
176
     1
 90
       50
176
     1
 90
       50
176
     1
 90
       50
176
     1
290
     0
176
     1
 90
       50
176
     1
 62
   256
176
     0
 40
1.0
176
     0
 90
        2
176
     1
  1
strokes_ogs.tif
176
     1
290
     0
176
     1
 40
1.0
176
     1
 40
1.0
176
     1
  0
VISUALSTYLE
  5
36
102
{ACAD_REACTORS
330
29
102
}
330
29
100
AcDbVisualStyle
  2
Thicken
 70
    13
177
     3
291
     1
 70
    58
 90
        2
176
     1
 90
        2
176
     1
 90
        0
176
     1
 90
        0
176
     1
 40
0.6
176
     1
 40
30.0
176
     1
 62
     7
420
 16777215
176
     1
 90
        1
176
     1
 90
        4
176
     1
 62
     7
176
     1
 62
   257
176
     1
 90
        1
176
     1
 90
        1
176
     1
 40
1.0
176
     1
 90
       12
176
     1
 62
     7
176
     1
 40
1.0
176
     1
 90
        1
176
     1
 90
        6
176
     1
 90
        2
176
     1
 62
     7
176
     1
 90
        5
176
     1
 90
        0
176
     1
 90
        0
176
     1
290
     0
176
     1
 90
        1
176
     1
 40
0.0
176
     1
 90
        0
176
     1
290
     0
176
     1
290
     1
176
     1
290
     1
176
     1
290
     0
176
     1
290
     0
176
     1
290
     0
176
     1
290
     0
176
     1
290
     0
176
     1
290
     0
176
     1
 90
       50
176
     1
 40
0.0
176
     1
 40
1.0
176
     1
 90
        0
176
     1
 62
    18
420
        0
176
     1
 90
       50
176
     1
 90
        3
176
     1
 62
     5
420
      255
176
     1
290
     0
176
     1
 90
       50
176
     1
 90
       50
176
     1
 90
       50
176
     1
290
     0
176
     1
 90
       50
176
     1
 62
   256
176
     0
 40
1.0
176
     0
 90
        2
176
     1
  1
strokes_ogs.tif
176
     1
290
     0
176
     1
 40
1.0
176
     1
 40
1.0
176
     1
  0
VISUALSTYLE
  5
30
102
{ACAD_REACTORS
330
29
102
}
330
29
100
AcDbVisualStyle
  2
Wireframe
 70
     5
177
     3
291
     0
 70
    58
 90
        0
176
     1
 90
        2
176
     1
 90
        0
176
     1
 90
        0
176
     1
 40
0.6
176
     1
 40
30.0
176
     1
 62
     7
420
 16777215
176
     1
 90
        1
176
     1
 90
        4
176
     1
 62
     7
176
     1
 62
   257
176
     1
 90
        1
176
     1
 90
        1
176
     1
 40
1.0
176
     1
 90
        0
176
     1
 62
   257
176
     1
 40
1.0
176
     1
 90
        1
176
     1
 90
        6
176
     1
 90
        2
176
     1
 62
     7
176
     1
 90
        3
176
     1
 90
        0
176
     1
 90
        0
176
     1
290
     0
176
     1
 90
        1
176
     1
 40
0.0
176
     1
 90
        0
176
     1
290
     0
176
     1
290
     1
176
     1
290
     1
176
     1
290
     0
176
     1
290
     0
176
     1
290
     0
176
     1
290
     0
176
     1
290
     0
176
     1
290
     0
176
     1
 90
       50
176
     1
 40
0.0
176
     1
 40
1.0
176
     1
 90
        0
176
     1
 62
    18
420
        0
176
     1
 90
       50
176
     1
 90
        3
176
     1
 62
     5
420
      255
176
     1
290
     0
176
     1
 90
       50
176
     1
 90
       50
176
     1
 90
       50
176
     1
290
     0
176
     1
 90
       50
176
     1
 62
   256
176
     0
 40
1.0
176
     0
 90
        2
176
     1
  1
strokes_ogs.tif
176
     1
290
     0
176
     1
 40
1.0
176
     1
 40
1.0
176
     1
  0
VISUALSTYLE
  5
3C
102
{ACAD_REACTORS
330
29
102
}
330
29
100
AcDbVisualStyle
  2
X-Ray
 70
    25
177
     3
291
     0
 70
    58
 90
        2
176
     1
 90
        2
176
     1
 90
        1
176
     1
 90
        1
176
     1
 40
0.5
176
     1
 40
30.0
176
     1
 62
     7
420
 16777215
176
     1
 90
        1
176
     1
 90
        0
176
     1
 62
     7
176
     1
 62
   257
176
     1
 90
        1
176
     1
 90
        1
176
     1
 40
1.0
176
     1
 90
        8
176
     1
 62
     7
176
     1
 40
1.0
176
     1
 90
        1
176
     1
 90
        6
176
     1
 90
        2
176
     1
 62
     7
176
     1
 90
        3
176
     1
 90
        0
176
     1
 90
        0
176
     1
290
     0
176
     1
 90
       13
176
     1
 40
0.0
176
     1
 90
        0
176
     1
290
     0
176
     1
290
     1
176
     1
290
     1
176
     1
290
     0
176
     1
290
     0
176
     1
290
     0
176
     1
290
     0
176
     1
290
     0
176
     1
290
     0
176
     1
 90
       50
176
     1
 40
0.0
176
     1
 40
1.0
176
     1
 90
        0
176
     1
 62
    18
420
        0
176
     1
 90
       50
176
     1
 90
        3
176
     1
 62
     5
420
      255
176
     1
290
     0
176
     1
 90
       50
176
     1
 90
       50
176
     1
 90
       50
176
     1
290
     0
176
     1
 90
       50
176
     1
 62
   256
176
     0
 40
1.0
176
     0
 90
        2
176
     1
  1
strokes_ogs.tif
176
     1
290
     0
176
     1
 40
1.0
176
     1
 40
1.0
176
     1
  0
DICTIONARYVAR
  5
4CC
102
{ACAD_REACTORS
330
4C7
102
}
330
4C7
100
DictionaryVariables
280
     0
  1
1:1
  0
DICTIONARYVAR
  5
4C9
102
{ACAD_REACTORS
330
4C7
102
}
330
4C7
100
DictionaryVariables
280
     0
  1
STANDARD
  0
DICTIONARYVAR
  5
4C8
102
{ACAD_REACTORS
330
4C7
102
}
330
4C7
100
DictionaryVariables
280
     0
  1
STANDARD
  0
DICTIONARYVAR
  5
4CA
102
{ACAD_REACTORS
330
4C7
102
}
330
4C7
100
DictionaryVariables
280
     0
  1
Imperial24
  0
DICTIONARYVAR
  5
4CB
102
{ACAD_REACTORS
330
4C7
102
}
330
4C7
100
DictionaryVariables
280
     0
  1
Imperial24
  0
DICTIONARY
  5
525
330
6A
100
AcDbDictionary
280
     1
281
     1
  3
ACAD_XREC_ROUNDTRIP
360
526
  0
DICTIONARY
  5
4C5
330
72
100
AcDbDictionary
280
     1
281
     1
  0
DICTIONARY
  5
1A
330
19
100
AcDbDictionary
280
     1
281
     1
  3
BUMPTILE
360
1C
  3
DIFFUSETILE
360
1B
  3
OPACITYTILE
360
1F
  3
REFLECTIONTILE
360
1E
  3
REFRACTIONTILE
360
20
  3
SPECULARTILE
360
1D
  0
DICTIONARY
  5
12
330
11
100
AcDbDictionary
280
     1
281
     1
  3
BUMPTILE
360
14
  3
DIFFUSETILE
360
13
  3
OPACITYTILE
360
17
  3
REFLECTIONTILE
360
16
  3
REFRACTIONTILE
360
18
  3
SPECULARTILE
360
15
  0
DICTIONARY
  5
22
330
21
100
AcDbDictionary
280
     1
281
     1
  3
BUMPTILE
360
24
  3
DIFFUSETILE
360
23
  3
OPACITYTILE
360
27
  3
REFLECTIONTILE
360
26
  3
REFRACTIONTILE
360
28
  3
SPECULARTILE
360
25
  0
DICTIONARY
  5
523
330
68
100
AcDbDictionary
280
     1
281
     1
  3
ACAD_XREC_ROUNDTRIP
360
524
  0
DICTIONARY
  5
521
330
64
100
AcDbDictionary
280
     1
281
     1
  3
ACAD_ROUNDTRIP_2008_TABLESTYLE_CELLSTYLEMAP
360
522
  0
XRECORD
  5
526
102
{ACAD_REACTORS
330
525
102
}
330
525
100
AcDbXrecord
280
     1
102
DISPLAYNAME
  1
Imperial24
102
FLAGS
 90
        0
  0
XRECORD
  5
1C
102
{ACAD_REACTORS
330
1A
102
}
330
1A
100
AcDbXrecord
280
     1
270
     1
271
     1
  0
XRECORD
  5
1B
102
{ACAD_REACTORS
330
1A
102
}
330
1A
100
AcDbXrecord
280
     1
270
     1
271
     1
  0
XRECORD
  5
1F
102
{ACAD_REACTORS
330
1A
102
}
330
1A
100
AcDbXrecord
280
     1
270
     1
271
     1
  0
XRECORD
  5
1E
102
{ACAD_REACTORS
330
1A
102
}
330
1A
100
AcDbXrecord
280
     1
270
     1
271
     1
  0
XRECORD
  5
20
102
{ACAD_REACTORS
330
1A
102
}
330
1A
100
AcDbXrecord
280
     1
270
     1
271
     1
  0
XRECORD
  5
1D
102
{ACAD_REACTORS
330
1A
102
}
330
1A
100
AcDbXrecord
280
     1
270
     1
271
     1
  0
XRECORD
  5
14
102
{ACAD_REACTORS
330
12
102
}
330
12
100
AcDbXrecord
280
     1
270
     1
271
     1
  0
XRECORD
  5
13
102
{ACAD_REACTORS
330
12
102
}
330
12
100
AcDbXrecord
280
     1
270
     1
271
     1
  0
XRECORD
  5
17
102
{ACAD_REACTORS
330
12
102
}
330
12
100
AcDbXrecord
280
     1
270
     1
271
     1
  0
XRECORD
  5
16
102
{ACAD_REACTORS
330
12
102
}
330
12
100
AcDbXrecord
280
     1
270
     1
271
     1
  0
XRECORD
  5
18
102
{ACAD_REACTORS
330
12
102
}
330
12
100
AcDbXrecord
280
     1
270
     1
271
     1
  0
XRECORD
  5
15
102
{ACAD_REACTORS
330
12
102
}
330
12
100
AcDbXrecord
280
     1
270
     1
271
     1
  0
XRECORD
  5
24
102
{ACAD_REACTORS
330
22
102
}
330
22
100
AcDbXrecord
280
     1
270
     1
271
     1
  0
XRECORD
  5
23
102
{ACAD_REACTORS
330
22
102
}
330
22
100
AcDbXrecord
280
     1
270
     1
271
     1
  0
XRECORD
  5
27
102
{ACAD_REACTORS
330
22
102
}
330
22
100
AcDbXrecord
280
     1
270
     1
271
     1
  0
XRECORD
  5
26
102
{ACAD_REACTORS
330
22
102
}
330
22
100
AcDbXrecord
280
     1
270
     1
271
     1
  0
XRECORD
  5
28
102
{ACAD_REACTORS
330
22
102
}
330
22
100
AcDbXrecord
280
     1
270
     1
271
     1
  0
XRECORD
  5
25
102
{ACAD_REACTORS
330
22
102
}
330
22
100
AcDbXrecord
280
     1
270
     1
271
     1
  0
XRECORD
  5
524
102
{ACAD_REACTORS
330
523
102
}
330
523
100
AcDbXrecord
280
     1
102
DISPLAYNAME
  1
Imperial24
102
FLAGS
 90
        0
  0
CELLSTYLEMAP
  5
522
102
{ACAD_REACTORS
330
521
102
}
330
521
100
AcDbCellStyleMap
 90
        3
300
CELLSTYLE
  1
TABLEFORMAT_BEGIN
 90
        5
170
     1
 91
        0
 92
    32768
 62
   257
 93
        1
300
CONTENTFORMAT
  1
CONTENTFORMAT_BEGIN
 90
        0
 91
        0
 92
      512
 93
        0
300

 40
0.0
140
1.0
 94
        5
 62
     0
340
55
144
0.25
309
CONTENTFORMAT_END
171
     0
 94
        0
309
TABLEFORMAT_END
  1
CELLSTYLE_BEGIN
 90
        1
 91
        1
300
_TITLE
309
CELLSTYLE_END
300
CELLSTYLE
  1
TABLEFORMAT_BEGIN
 90
        5
170
     1
 91
        0
 92
        0
 62
   257
 93
        1
300
CONTENTFORMAT
  1
CONTENTFORMAT_BEGIN
 90
        0
 91
        0
 92
      512
 93
        0
300

 40
0.0
140
1.0
 94
        5
 62
     0
340
55
144
0.18
309
CONTENTFORMAT_END
171
     0
 94
        0
309
TABLEFORMAT_END
  1
CELLSTYLE_BEGIN
 90
        2
 91
        1
300
_HEADER
309
CELLSTYLE_END
300
CELLSTYLE
  1
TABLEFORMAT_BEGIN
 90
        5
170
     1
 91
        0
 92
        0
 62
   257
 93
        1
300
CONTENTFORMAT
  1
CONTENTFORMAT_BEGIN
 90
        0
 91
        0
 92
      512
 93
        0
300

 40
0.0
140
1.0
 94
        2
 62
     0
340
55
144
0.18
309
CONTENTFORMAT_END
171
     0
 94
        0
309
TABLEFORMAT_END
  1
CELLSTYLE_BEGIN
 90
        3
 91
        2
300
_DATA
309
CELLSTYLE_END
  0
ENDSEC
  0
SECTION
  2
ACDSDATA
 70
     2
 71
     6
  0
ACDSSCHEMA
 90
        0
  1
AcDb_Thumbnail_Schema
  2
AcDbDs::ID
280
    10
 91
        8
  2
Thumbnail_Data
280
    15
 91
        0
101
ACDSRECORD
 95
        0
 90
        1
  2
AcDbDs::TreatedAsObjectData
280
     1
291
     1
101
ACDSRECORD
 95
        0
 90
        2
  2
AcDbDs::Legacy
280
     1
291
     1
101
ACDSRECORD
  1
AcDbDs::ID
 90
        3
  2
AcDs:Indexable
280
     1
291
     1
101
ACDSRECORD
  1
AcDbDs::ID
 90
        4
  2
AcDbDs::HandleAttribute
280
     7
282
     1
  0
ACDSSCHEMA
 90
        1
  1
AcDbDs::TreatedAsObjectDataSchema
  2
AcDbDs::TreatedAsObjectData
280
     1
 91
        0
  0
ACDSSCHEMA
 90
        2
  1
AcDbDs::LegacySchema
  2
AcDbDs::Legacy
280
     1
 91
        0
  0
ACDSSCHEMA
 90
        3
  1
AcDbDs::IndexedPropertySchema
  2
AcDs:Indexable
280
     1
 91
        0
  0
ACDSSCHEMA
 90
        4
  1
AcDbDs::HandleAttributeSchema
  2
AcDbDs::HandleAttribute
280
     7
 91
        1
284
     1
  0
ACDSRECORD
 90
        0
  2
AcDbDs::ID
280
    10
320
72
  2
Thumbnail_Data
280
    15
 94
     2711
310
89504E470D0A1A0A0000000D49484452000001000000009B0803000000BA7AB56000000300504C54455B5B5B000000C8C8C80000000000000000000000000000000000000000000000000000330000660000990000CC0000FF0033000033330033660033990033CC0033FF0066000066330066660066990066CC0066FF0099
310
000099330099660099990099CC0099FF00CC0000CC3300CC6600CC9900CCCC00CCFF00FF0000FF3300FF6600FF9900FFCC00FFFF3300003300333300663300993300CC3300FF3333003333333333663333993333CC3333FF3366003366333366663366993366CC3366FF3399003399333399663399993399CC3399FF33CC00
310
33CC3333CC6633CC9933CCCC33CCFF33FF0033FF3333FF6633FF9933FFCC33FFFF6600006600336600666600996600CC6600FF6633006633336633666633996633CC6633FF6666006666336666666666996666CC6666FF6699006699336699666699996699CC6699FF66CC0066CC3366CC6666CC9966CCCC66CCFF66FF0066
310
FF3366FF6666FF9966FFCC66FFFF9900009900339900669900999900CC9900FF9933009933339933669933999933CC9933FF9966009966339966669966999966CC9966FF9999009999339999669999999999CC9999FF99CC0099CC3399CC6699CC9999CCCC99CCFF99FF0099FF3399FF6699FF9999FFCC99FFFFCC0000CC00
310
33CC0066CC0099CC00CCCC00FFCC3300CC3333CC3366CC3399CC33CCCC33FFCC6600CC6633CC6666CC6699CC66CCCC66FFCC9900CC9933CC9966CC9999CC99CCCC99FFCCCC00CCCC33CCCC66CCCC99CCCCCCCCCCFFCCFF00CCFF33CCFF66CCFF99CCFFCCCCFFFFFF0000FF0033FF0066FF0099FF00CCFF00FFFF3300FF3333
310
FF3366FF3399FF33CCFF33FFFF6600FF6633FF6666FF6699FF66CCFF66FFFF9900FF9933FF9966FF9999FF99CCFF99FFFFCC00FFCC33FFCC66FFCC99FFCCCCFFCCFFFFFF00FFFF33FFFF66FFFF99FFFFCCFFFFFF0000000D0D0D1A1A1A2828283535354343435050505D5D5D6B6B6B787878868686939393A1A1A1AEAEAEBB
310
BBBBC9C9C9D6D6D6E4E4E4F1F1F1FFFFFF00000000000000000000000000000000000000000000000000000000000054549EDE000007524944415478DAED5D5B96DB200C654377FF7F5A8917D3496C4080C42B53079971A7E74CD2384597AB3760E7FEAE852FFC5C7B03F006616F0A38386C4E81AD4980F0676F0AB87D1108
310
14D8560D20FCB6A9150076A7C0A610607B12407DF147810D19F047816702500F7330F059B3393F7A29704685CF01013DC13E6A376E11E8E614788C3940A779C7D0DB4F0C719E89C080839734C072922C1AFE091D304882234A3F02804A0163081CC7718D5828F3CD18016B1C383C02E2CC7551202380B18AE9058012FB6D40
310
81130075D8CFA7000300CEFD1A056C215009E5D1C81A7402AC1B0FC8A18A96FF4D53605D0870DABC1C871600CC56745060E5DC08F214C1D5DD8004404BD35707A0F81D622874B24506A062032C50A000231F71D014BC28E01E470148B39D39FAF06FFD1400D6AE90940080583A144B62CC2C200D99F439F68CB9BE654D0090
310
0F8FCEBF608A10A8E035400300D9D4672E62E568200E0E8E08DC152682F857A2117061E158195FC04C4408F2338D9E7C408C08A0858A16AED7F4933CB724087FC8DA603925C01B8354F2B7F00421771A00C0CAF5232B453AE07CF9FE1100789AFCA70B20EE1CA3FC8E84E4F161F34F6FA7C7B9EEE5F7B81C079BF88771DFAB
310
3F25563CCAEFC0C53F1EA8FD2FF587E8173D118E8723704581A5FB3AE5CF18F03C0F70CA5FB87BE71D01BC09605E60D1D096306902E89AEDE805BD16901C1FAD69C9E7060B66EDA2F273086061098C12B574660114DC9E377E1C0284AA9081F9A769E82EF402EFBD3E8108EBC7F5517E1ABED3DFFA8EFC0BF9B9D80B33208E
310
7B74941774DE804ADFF32100B857FE612D786B0FFC5DEF2C20C3F1B30D22F7580E70F9316C051074276481BF05006E72A33C771B0E0710E79C24638A7900E008375B81094378CD39B1AF11D68A4DCA7F9BE9849B35843EF383D33884C985B008C0DEA605346108C18883D9784A9F13BACD7B8292C91C961F0146144946FC19
310
8FCF6E03604EFEE8411059CB51451E2C8E42403732E0D4020CDFC60C0777016751BC4FFE1FA44886E046065C2C98B081516CB02C2073AF15DBF2F6A4A9A8516F6EA804F82EE684FCA1048CC8F94BF3FBE5E79EB4884CFE3F03C21A8619F979E58751166E44FE5046282DF22D8100981662D67652F665A5FCA804F97961ED56
310
F959ACEA7BF3133124B4C05214A5585386E44B1053935B9C402236C6966B8BE235E52FA2E3AB7C4685FCF764832C541D8DDC8B621229F68FAAF991E71131C30AFA46196D1880B40B9C094FB2092853E4249E7A9923005F2928CFA56EDC7AB92CB1D455200140A9C8DCDF45C067752888F253D63A29CB64949BBDEF75D23E2B
310
604394DFC93592840BDCEC196E25AAF26BFBE9C0239FCBFF5BEEA5429B7F8501FEF753F22BAA360D402EFF69CF41FA8E4A94DEC32E00A5FC629DAD5C629B07CDD64D00858808529D1185E741B9AAC4190480C9CFF3E222158452578BDCB1B9948215965968244475C2B602302F40AF9707396B57EC8C8EEF02382BA6A1B184
310
DB12C1DF97BF1946E9BBCBC827166781DED826EA97C1EF49605AE706BC23D1D596D7F4B57608F559AEE6591C3ADC560EEC15DFA33070030601609E3206456B2080F6E805BC060148080FB71405C600681CA2A3E342A8D7D98C00D03A44077A0E255415570360447EE5D3D0E79FA4ACD21800ED4364745408458908C60170E8
310
3B5121DD61C648B11C004D043A4E51A9BD93B8CF75A200D70740384D661A9245F78AF60370489C47F71B002C03F04AE09DB6FDB366195847CE6F9B5E56FEFAD87CF90218B203793F76B565E5BD1AE0D8CE904C0614BD06965C017DDE632D0268B31477C6A5FBC0CFD690BE7CB0A5268B0100FD3119BC92CB3EC1B691F48687
310
0B060179535B1A62D81A967DE21DD6A8DB92D05F39FA9AFC480F44A80DFC60472584E320A856E418AD1DDC0E005768B426C957F433E4A495F44D39BF4F02B41C4131C4CB0C1E62C543DD64E9DCA224C84FC9437396D476067CFF73F0D8C9EF6B01C6AC95D6CDF135EF8202AB03D0331AB4778504875F343CEC0080B6B168F9
310
7A9C4B40C056CFC35901A0437ED7EC7B50D608871D00DA4CAD3D442B9E39956E546D957D608D000A04E96A30BE1CC40C004D02A0AF0A021ADAA5076B0A20A510D90973E9361A23E7E9754C935A12471110A07F1B112CC85F0740B8375A01E0F90C501A017E85B5952325814900B4F497AE76A89D3335F53512D08B471A0008
310
EBA66C1D2A8ADA7981430048CE33F96F002CFAEC1D7401503D36003135C2A0B62D89C06F0260E211234AE7A3EBDD04802C7D34F4B4290C00802A007ECEAD3D6A0B429D48EB8885CA305B3E94F6436C3E5A279E9A8D1A2F126E874650A3130E532868C386663FD0000070E42C5EE89A46461BB54F440E641A819E1846FB0058
310
D5C4A0591889645093DFDC62F15FF2E56095029B86E0E3108B8C53E023F1F30DD79BC94FF986EBCD28C0378D6D4A81527EDA4C07920DF7FB5120DD704D04ED78A9875B81B87B90B6B383484EE69A3BD8C8BA15481E4EE0F67304602B69C6CFF67B100ED7C2C2DD1CA1A410D81780B09864630A605723E029803DCB02A915D8
310
9B029B5B416C98139710ECAC026E7B47E89CDB9E02E3D73FE76C579B4FAE58330000000049454E44AE426082
  0
ENDSEC
  0
EOF
