  0
SECTION
  2
HEADER
  9
$ACADVER
  1
AC1027
  9
$ACADMAINTVER
 70
    55
  9
$DWGCODEPAGE
  3
ANSI_1252
  9
$LASTSAVEDBY
  1
crinne
  9
$REQUIREDVERSIONS
160
                 0
  9
$INSBASE
 10
0.0
 20
0.0
 30
0.0
  9
$EXTMIN
 10
-15.00501078072346
 20
-15.11946750626585
 30
0.0
  9
$EXTMAX
 10
-12.49268211632639
 20
-10.29242081956728
 30
0.0
  9
$LIMMIN
 10
-2600.0
 20
-2600.0
  9
$LIMMAX
 10
2000.0
 20
200.0
  9
$ORTHOMODE
 70
     0
  9
$REGENMODE
 70
     1
  9
$FILLMODE
 70
     1
  9
$QTEXTMODE
 70
     0
  9
$MIRRTEXT
 70
     1
  9
$LTSCALE
 40
25.0
  9
$ATTMODE
 70
     1
  9
$TEXTSIZE
 40
3.5
  9
$TRACEWID
 40
1.0
  9
$TEXTSTYLE
  7
STANDARD
  9
$CLAYER
  8
GRABUNGSGRENZE
  9
$CELTYPE
  6
ByLayer
  9
$CECOLOR
 62
   256
  9
$CELTSCALE
 40
1.0
  9
$DISPSILH
 70
     0
  9
$DIMSCALE
 40
1.0
  9
$DIMASZ
 40
3.5
  9
$DIMEXO
 40
0.1
  9
$DIMDLI
 40
7.0
  9
$DIMRND
 40
0.0
  9
$DIMDLE
 40
0.0
  9
$DIMEXE
 40
1.8
  9
$DIMTP
 40
0.0
  9
$DIMTM
 40
0.0
  9
$DIMTXT
 40
3.5
  9
$DIMCEN
 40
1.5
  9
$DIMTSZ
 40
0.0
  9
$DIMTOL
 70
     0
  9
$DIMLIM
 70
     0
  9
$DIMTIH
 70
     0
  9
$DIMTOH
 70
     0
  9
$DIMSE1
 70
     0
  9
$DIMSE2
 70
     0
  9
$DIMTAD
 70
     0
  9
$DIMZIN
 70
     0
  9
$DIMBLK
  1

  9
$DIMASO
 70
     1
  9
$DIMSHO
 70
     0
  9
$DIMPOST
  1

  9
$DIMAPOST
  1

  9
$DIMALT
 70
     0
  9
$DIMALTD
 70
     2
  9
$DIMALTF
 40
25.4
  9
$DIMLFAC
 40
1.0
  9
$DIMTOFL
 70
     0
  9
$DIMTVP
 40
0.0
  9
$DIMTIX
 70
     0
  9
$DIMSOXD
 70
     0
  9
$DIMSAH
 70
     0
  9
$DIMBLK1
  1

  9
$DIMBLK2
  1

  9
$DIMSTYLE
  2
Standard
  9
$DIMCLRD
 70
     0
  9
$DIMCLRE
 70
     0
  9
$DIMCLRT
 70
     0
  9
$DIMTFAC
 40
1.0
  9
$DIMGAP
 40
0.09
  9
$DIMJUST
 70
     0
  9
$DIMSD1
 70
     0
  9
$DIMSD2
 70
     0
  9
$DIMTOLJ
 70
     1
  9
$DIMTZIN
 70
     0
  9
$DIMALTZ
 70
     0
  9
$DIMALTTZ
 70
     0
  9
$DIMUPT
 70
     0
  9
$DIMDEC
 70
     2
  9
$DIMTDEC
 70
     2
  9
$DIMALTU
 70
     2
  9
$DIMALTTD
 70
     2
  9
$DIMTXSTY
  7
STANDARD
  9
$DIMAUNIT
 70
     0
  9
$DIMADEC
 70
     0
  9
$DIMALTRND
 40
0.0
  9
$DIMAZIN
 70
     0
  9
$DIMDSEP
 70
    46
  9
$DIMATFIT
 70
     3
  9
$DIMFRAC
 70
     0
  9
$DIMLDRBLK
  1

  9
$DIMLUNIT
 70
     2
  9
$DIMLWD
 70
    -2
  9
$DIMLWE
 70
    -2
  9
$DIMTMOVE
 70
     2
  9
$DIMFXL
 40
1.0
  9
$DIMFXLON
 70
     0
  9
$DIMJOGANG
 40
0.7853981633974483
  9
$DIMTFILL
 70
     0
  9
$DIMTFILLCLR
 70
     0
  9
$DIMARCSYM
 70
     0
  9
$DIMLTYPE
  6

  9
$DIMLTEX1
  6

  9
$DIMLTEX2
  6

  9
$DIMTXTDIRECTION
 70
     0
  9
$LUNITS
 70
     2
  9
$LUPREC
 70
     2
  9
$SKETCHINC
 40
1.0
  9
$FILLETRAD
 40
0.0
  9
$AUNITS
 70
     0
  9
$AUPREC
 70
     0
  9
$MENU
  1
ACAD
  9
$ELEVATION
 40
0.0
  9
$PELEVATION
 40
0.0
  9
$THICKNESS
 40
0.0
  9
$LIMCHECK
 70
     0
  9
$CHAMFERA
 40
0.0
  9
$CHAMFERB
 40
0.0
  9
$CHAMFERC
 40
0.0
  9
$CHAMFERD
 40
0.0
  9
$SKPOLY
 70
     0
  9
$TDCREATE
 40
2450616.584990162
  9
$TDUCREATE
 40
2450616.501656829
  9
$TDUPDATE
 40
2459796.512296331
  9
$TDUUPDATE
 40
2459796.428962998
  9
$TDINDWG
 40
0.0177097106
  9
$TDUSRTIMER
 40
0.0177097106
  9
$USRTIMER
 70
     1
  9
$ANGBASE
 50
0.0
  9
$ANGDIR
 70
     0
  9
$PDMODE
 70
     0
  9
$PDSIZE
 40
0.0
  9
$PLINEWID
 40
0.0
  9
$SPLFRAME
 70
     0
  9
$SPLINETYPE
 70
     6
  9
$SPLINESEGS
 70
     8
  9
$HANDSEED
  5
4E5
  9
$SURFTAB1
 70
     6
  9
$SURFTAB2
 70
     6
  9
$SURFTYPE
 70
     6
  9
$SURFU
 70
     6
  9
$SURFV
 70
     6
  9
$UCSBASE
  2

  9
$UCSNAME
  2

  9
$UCSORG
 10
0.0
 20
0.0
 30
0.0
  9
$UCSXDIR
 10
1.0
 20
0.0
 30
0.0
  9
$UCSYDIR
 10
0.0
 20
1.0
 30
0.0
  9
$UCSORTHOREF
  2

  9
$UCSORTHOVIEW
 70
     0
  9
$UCSORGTOP
 10
0.0
 20
0.0
 30
0.0
  9
$UCSORGBOTTOM
 10
0.0
 20
0.0
 30
0.0
  9
$UCSORGLEFT
 10
0.0
 20
0.0
 30
0.0
  9
$UCSORGRIGHT
 10
0.0
 20
0.0
 30
0.0
  9
$UCSORGFRONT
 10
0.0
 20
0.0
 30
0.0
  9
$UCSORGBACK
 10
0.0
 20
0.0
 30
0.0
  9
$PUCSBASE
  2

  9
$PUCSNAME
  2

  9
$PUCSORG
 10
0.0
 20
0.0
 30
0.0
  9
$PUCSXDIR
 10
1.0
 20
0.0
 30
0.0
  9
$PUCSYDIR
 10
0.0
 20
1.0
 30
0.0
  9
$PUCSORTHOREF
  2

  9
$PUCSORTHOVIEW
 70
     0
  9
$PUCSORGTOP
 10
0.0
 20
0.0
 30
0.0
  9
$PUCSORGBOTTOM
 10
0.0
 20
0.0
 30
0.0
  9
$PUCSORGLEFT
 10
0.0
 20
0.0
 30
0.0
  9
$PUCSORGRIGHT
 10
0.0
 20
0.0
 30
0.0
  9
$PUCSORGFRONT
 10
0.0
 20
0.0
 30
0.0
  9
$PUCSORGBACK
 10
0.0
 20
0.0
 30
0.0
  9
$USERI1
 70
     0
  9
$USERI2
 70
     0
  9
$USERI3
 70
     0
  9
$USERI4
 70
     0
  9
$USERI5
 70
     0
  9
$USERR1
 40
0.0
  9
$USERR2
 40
0.0
  9
$USERR3
 40
0.0
  9
$USERR4
 40
0.0
  9
$USERR5
 40
0.0
  9
$WORLDVIEW
 70
     1
  9
$SHADEDGE
 70
     3
  9
$SHADEDIF
 70
    70
  9
$TILEMODE
 70
     1
  9
$MAXACTVP
 70
    16
  9
$PINSBASE
 10
0.0
 20
0.0
 30
0.0
  9
$PLIMCHECK
 70
     0
  9
$PEXTMIN
 10
1.000000000000000E+20
 20
1.000000000000000E+20
 30
1.000000000000000E+20
  9
$PEXTMAX
 10
-1.000000000000000E+20
 20
-1.000000000000000E+20
 30
-1.000000000000000E+20
  9
$PLIMMIN
 10
0.0
 20
0.0
  9
$PLIMMAX
 10
12.0
 20
9.0
  9
$UNITMODE
 70
     0
  9
$VISRETAIN
 70
     0
  9
$PLINEGEN
 70
     0
  9
$PSLTSCALE
 70
     0
  9
$TREEDEPTH
 70
  3020
  9
$CMLSTYLE
  2
Standard
  9
$CMLJUST
 70
     0
  9
$CMLSCALE
 40
1.0
  9
$PROXYGRAPHICS
 70
     1
  9
$MEASUREMENT
 70
     0
  9
$CELWEIGHT
370
    -1
  9
$ENDCAPS
280
     0
  9
$JOINSTYLE
280
     0
  9
$LWDISPLAY
290
     0
  9
$INSUNITS
 70
     6
  9
$HYPERLINKBASE
  1

  9
$STYLESHEET
  1

  9
$XEDIT
290
     1
  9
$CEPSNTYPE
380
     0
  9
$PSTYLEMODE
290
     1
  9
$FINGERPRINTGUID
  2
{47AEB015-D766-4207-B6CF-BBB53EC70635}
  9
$VERSIONGUID
  2
{C100FCDF-CEBE-402E-AF8F-F6E666B09185}
  9
$EXTNAMES
290
     1
  9
$PSVPSCALE
 40
0.0
  9
$OLESTARTUP
290
     0
  9
$SORTENTS
280
   127
  9
$INDEXCTL
280
     0
  9
$HIDETEXT
280
     1
  9
$XCLIPFRAME
280
     2
  9
$HALOGAP
280
     0
  9
$OBSCOLOR
 70
   257
  9
$OBSLTYPE
280
     0
  9
$INTERSECTIONDISPLAY
280
     0
  9
$INTERSECTIONCOLOR
 70
   257
  9
$DIMASSOC
280
     2
  9
$PROJECTNAME
  1

  9
$CAMERADISPLAY
290
     0
  9
$LENSLENGTH
 40
50.0
  9
$CAMERAHEIGHT
 40
0.0
  9
$STEPSPERSEC
 40
2.0
  9
$STEPSIZE
 40
6.0
  9
$3DDWFPREC
 40
2.0
  9
$PSOLWIDTH
 40
0.25
  9
$PSOLHEIGHT
 40
4.0
  9
$LOFTANG1
 40
1.570796326794896
  9
$LOFTANG2
 40
1.570796326794896
  9
$LOFTMAG1
 40
0.0
  9
$LOFTMAG2
 40
0.0
  9
$LOFTPARAM
 70
     7
  9
$LOFTNORMALS
280
     1
  9
$LATITUDE
 40
37.795
  9
$LONGITUDE
 40
-122.394
  9
$NORTHDIRECTION
 40
0.0
  9
$TIMEZONE
 70
 -8000
  9
$LIGHTGLYPHDISPLAY
280
     1
  9
$TILEMODELIGHTSYNCH
280
     1
  9
$CMATERIAL
347
11
  9
$SOLIDHIST
280
     0
  9
$SHOWHIST
280
     1
  9
$DWFFRAME
280
     2
  9
$DGNFRAME
280
     0
  9
$REALWORLDSCALE
290
     1
  9
$INTERFERECOLOR
 62
     1
  9
$INTERFEREOBJVS
345
33
  9
$INTERFEREVPVS
346
30
  9
$CSHADOW
280
     0
  9
$SHADOWPLANELOCATION
 40
0.0
  0
ENDSEC
  0
SECTION
  2
CLASSES
  0
CLASS
  1
ACDBDICTIONARYWDFLT
  2
AcDbDictionaryWithDefault
  3
ObjectDBX Classes
 90
        0
 91
        1
280
     0
281
     0
  0
CLASS
  1
MATERIAL
  2
AcDbMaterial
  3
ObjectDBX Classes
 90
     1153
 91
        3
280
     0
281
     0
  0
CLASS
  1
VISUALSTYLE
  2
AcDbVisualStyle
  3
ObjectDBX Classes
 90
     4095
 91
       24
280
     0
281
     0
  0
CLASS
  1
SCALE
  2
AcDbScale
  3
ObjectDBX Classes
 90
     1153
 91
       17
280
     0
281
     0
  0
CLASS
  1
TABLESTYLE
  2
AcDbTableStyle
  3
ObjectDBX Classes
 90
     4095
 91
        1
280
     0
281
     0
  0
CLASS
  1
MLEADERSTYLE
  2
AcDbMLeaderStyle
  3
ACDB_MLEADERSTYLE_CLASS
 90
     4095
 91
        1
280
     0
281
     0
  0
CLASS
  1
ACDBSECTIONVIEWSTYLE
  2
AcDbSectionViewStyle
  3
ObjectDBX Classes
 90
     1025
 91
        1
280
     0
281
     0
  0
CLASS
  1
ACDBDETAILVIEWSTYLE
  2
AcDbDetailViewStyle
  3
ObjectDBX Classes
 90
     1025
 91
        1
280
     0
281
     0
  0
CLASS
  1
DICTIONARYVAR
  2
AcDbDictionaryVar
  3
ObjectDBX Classes
 90
        0
 91
        5
280
     0
281
     0
  0
CLASS
  1
CELLSTYLEMAP
  2
AcDbCellStyleMap
  3
ObjectDBX Classes
 90
     1152
 91
        1
280
     0
281
     0
  0
ENDSEC
  0
SECTION
  2
TABLES
  0
TABLE
  2
VPORT
  5
8
330
0
100
AcDbSymbolTable
 70
     1
  0
VPORT
  5
8F
330
8
100
AcDbSymbolTableRecord
100
AcDbViewportTableRecord
  2
*ACTIVE
 70
     0
 10
0.0
 20
0.0
 11
1.0
 21
1.0
 12
-13.74884644852492
 22
-12.70594416291656
 13
0.0
 23
0.0
 14
5.0
 24
5.0
 15
100.0
 25
100.0
 16
0.0
 26
0.0
 36
1.0
 17
0.0
 27
0.0
 37
0.0
 40
4.866504834001281
 41
1.649386084583901
 42
50.0
 43
0.0
 44
0.0
 50
0.0
 51
0.0
 71
     0
 72
   100
 73
     1
 74
     0
 75
     0
 76
     1
 77
     0
 78
     0
281
     0
 65
     1
110
0.0
120
0.0
130
0.0
111
1.0
121
0.0
131
0.0
112
0.0
122
1.0
132
0.0
 79
     0
146
0.0
348
2F
 60
     3
 61
     5
292
     1
282
     0
141
0.0
142
0.0
 63
   250
421
  3355443
1001
ACAD_NAV_VCDISPLAY
1070
     3
  0
ENDTAB
  0
TABLE
  2
LTYPE
  5
5
330
0
100
AcDbSymbolTable
 70
    25
  0
LTYPE
  5
5A
330
5
100
AcDbSymbolTableRecord
100
AcDbLinetypeTableRecord
  2
ByBlock
 70
     0
  3

 72
    65
 73
     0
 40
0.0
  0
LTYPE
  5
5B
330
5
100
AcDbSymbolTableRecord
100
AcDbLinetypeTableRecord
  2
ByLayer
 70
     0
  3

 72
    65
 73
     0
 40
0.0
  0
LTYPE
  5
5C
330
5
100
AcDbSymbolTableRecord
100
AcDbLinetypeTableRecord
  2
CONTINUOUS
 70
     0
  3
Ausgezogene Linie
 72
    65
 73
     0
 40
0.0
  0
LTYPE
  5
76
330
5
100
AcDbSymbolTableRecord
100
AcDbLinetypeTableRecord
  2
RAND
 70
     0
  3
__ __ . __ __ . __ __ . __ __ . __ __ . __ __ .
 72
    65
 73
     6
 40
1.75
 49
0.5
 74
     0
 49
-0.25
 74
     0
 49
0.5
 74
     0
 49
-0.25
 74
     0
 49
0.0
 74
     0
 49
-0.25
 74
     0
  0
LTYPE
  5
77
330
5
100
AcDbSymbolTableRecord
100
AcDbLinetypeTableRecord
  2
RAND2
 70
     0
  3
__.__.__.__.__.__.__.__.__.__.__.__.__.__.__.__
 72
    65
 73
     6
 40
0.875
 49
0.25
 74
     0
 49
-0.125
 74
     0
 49
0.25
 74
     0
 49
-0.125
 74
     0
 49
0.0
 74
     0
 49
-0.125
 74
     0
  0
LTYPE
  5
78
330
5
100
AcDbSymbolTableRecord
100
AcDbLinetypeTableRecord
  2
RANDX2
 70
     0
  3
____  ____  .  ____  ____  .  ____  ____  .  __
 72
    65
 73
     6
 40
3.5
 49
1.0
 74
     0
 49
-0.5
 74
     0
 49
1.0
 74
     0
 49
-0.5
 74
     0
 49
0.0
 74
     0
 49
-0.5
 74
     0
  0
LTYPE
  5
79
330
5
100
AcDbSymbolTableRecord
100
AcDbLinetypeTableRecord
  2
MITTE
 70
     0
  3
____ _ ____ _ ____ _ ____ _ ____ _ ____ _ ____ 
 72
    65
 73
     4
 40
2.0
 49
1.25
 74
     0
 49
-0.25
 74
     0
 49
0.25
 74
     0
 49
-0.25
 74
     0
  0
LTYPE
  5
7A
330
5
100
AcDbSymbolTableRecord
100
AcDbLinetypeTableRecord
  2
MITTE2
 70
     0
  3
___ _ ___ _ ___ _ ___ _ ___ _ ___ _ ___ _ ___ _
 72
    65
 73
     4
 40
1.125
 49
0.75
 74
     0
 49
-0.125
 74
     0
 49
0.125
 74
     0
 49
-0.125
 74
     0
  0
LTYPE
  5
7B
330
5
100
AcDbSymbolTableRecord
100
AcDbLinetypeTableRecord
  2
MITTEX2
 70
     0
  3
________  __  ________  __  ________  __  _____
 72
    65
 73
     4
 40
4.0
 49
2.5
 74
     0
 49
-0.5
 74
     0
 49
0.5
 74
     0
 49
-0.5
 74
     0
  0
LTYPE
  5
7C
330
5
100
AcDbSymbolTableRecord
100
AcDbLinetypeTableRecord
  2
STRICHPUNKT
 70
     0
  3
__ . __ . __ . __ . __ . __ . __ . __ . __ . __
 72
    65
 73
     4
 40
1.0
 49
0.5
 74
     0
 49
-0.25
 74
     0
 49
0.0
 74
     0
 49
-0.25
 74
     0
  0
LTYPE
  5
7D
330
5
100
AcDbSymbolTableRecord
100
AcDbLinetypeTableRecord
  2
STRICHPUNKT2
 70
     0
  3
_._._._._._._._._._._._._._._._._._._._._._._._
 72
    65
 73
     4
 40
0.5
 49
0.25
 74
     0
 49
-0.125
 74
     0
 49
0.0
 74
     0
 49
-0.125
 74
     0
  0
LTYPE
  5
7E
330
5
100
AcDbSymbolTableRecord
100
AcDbLinetypeTableRecord
  2
STRICHPUNKTX2
 70
     0
  3
____  .  ____  .  ____  .  ____  .  ____  .  __
 72
    65
 73
     4
 40
2.0
 49
1.0
 74
     0
 49
-0.5
 74
     0
 49
0.0
 74
     0
 49
-0.5
 74
     0
  0
LTYPE
  5
7F
330
5
100
AcDbSymbolTableRecord
100
AcDbLinetypeTableRecord
  2
GESTRICHELT
 70
     0
  3
__ __ __ __ __ __ __ __ __ __ __ __ __ __ __ __
 72
    65
 73
     2
 40
0.75
 49
0.5
 74
     0
 49
-0.25
 74
     0
  0
LTYPE
  5
80
330
5
100
AcDbSymbolTableRecord
100
AcDbLinetypeTableRecord
  2
GESTRICHELT2
 70
     0
  3
_ _ _ _ _ _ _ _ _ _ _ _ _ _ _ _ _ _ _ _ _ _ _ _
 72
    65
 73
     2
 40
0.375
 49
0.25
 74
     0
 49
-0.125
 74
     0
  0
LTYPE
  5
81
330
5
100
AcDbSymbolTableRecord
100
AcDbLinetypeTableRecord
  2
GESTRICHELTX2
 70
     0
  3
____  ____  ____  ____  ____  ____  ____  ____ 
 72
    65
 73
     2
 40
1.5
 49
1.0
 74
     0
 49
-0.5
 74
     0
  0
LTYPE
  5
82
330
5
100
AcDbSymbolTableRecord
100
AcDbLinetypeTableRecord
  2
GETRENNT
 70
     0
  3
____ . . ____ . . ____ . . ____ . . ____ . . __
 72
    65
 73
     6
 40
1.25
 49
0.5
 74
     0
 49
-0.25
 74
     0
 49
0.0
 74
     0
 49
-0.25
 74
     0
 49
0.0
 74
     0
 49
-0.25
 74
     0
  0
LTYPE
  5
83
330
5
100
AcDbSymbolTableRecord
100
AcDbLinetypeTableRecord
  2
GETRENNT2
 70
     0
  3
__..__..__..__..__..__..__..__..__..__..__..__.
 72
    65
 73
     6
 40
0.625
 49
0.25
 74
     0
 49
-0.125
 74
     0
 49
0.0
 74
     0
 49
-0.125
 74
     0
 49
0.0
 74
     0
 49
-0.125
 74
     0
  0
LTYPE
  5
84
330
5
100
AcDbSymbolTableRecord
100
AcDbLinetypeTableRecord
  2
GETRENNTX2
 70
     0
  3
________  .  .  ________  .  .  ________  .  . 
 72
    65
 73
     6
 40
2.5
 49
1.0
 74
     0
 49
-0.5
 74
     0
 49
0.0
 74
     0
 49
-0.5
 74
     0
 49
0.0
 74
     0
 49
-0.5
 74
     0
  0
LTYPE
  5
85
330
5
100
AcDbSymbolTableRecord
100
AcDbLinetypeTableRecord
  2
PUNKT
 70
     0
  3
. . . . . . . . . . . . . . . . . . . . . . . .
 72
    65
 73
     2
 40
0.25
 49
0.0
 74
     0
 49
-0.25
 74
     0
  0
LTYPE
  5
86
330
5
100
AcDbSymbolTableRecord
100
AcDbLinetypeTableRecord
  2
PUNKT2
 70
     0
  3
...............................................
 72
    65
 73
     2
 40
0.125
 49
0.0
 74
     0
 49
-0.125
 74
     0
  0
LTYPE
  5
87
330
5
100
AcDbSymbolTableRecord
100
AcDbLinetypeTableRecord
  2
PUNKTX2
 70
     0
  3
.  .  .  .  .  .  .  .  .  .  .  .  .  .  .  . 
 72
    65
 73
     2
 40
0.5
 49
0.0
 74
     0
 49
-0.5
 74
     0
  0
LTYPE
  5
88
330
5
100
AcDbSymbolTableRecord
100
AcDbLinetypeTableRecord
  2
VERDECKT
 70
     0
  3
__ __ __ __ __ __ __ __ __ __ __ __ __ __ __ __
 72
    65
 73
     2
 40
0.375
 49
0.25
 74
     0
 49
-0.125
 74
     0
  0
LTYPE
  5
89
330
5
100
AcDbSymbolTableRecord
100
AcDbLinetypeTableRecord
  2
VERDECKT2
 70
     0
  3
_ _ _ _ _ _ _ _ _ _ _ _ _ _ _ _ _ _ _ _ _ _ _ _
 72
    65
 73
     2
 40
0.1875
 49
0.125
 74
     0
 49
-0.0625
 74
     0
  0
LTYPE
  5
8A
330
5
100
AcDbSymbolTableRecord
100
AcDbLinetypeTableRecord
  2
VERDECKTX2
 70
     0
  3
____ ____ ____ ____ ____ ____ ____ ____ ____ __
 72
    65
 73
     2
 40
0.75
 49
0.5
 74
     0
 49
-0.25
 74
     0
  0
LTYPE
  5
8B
330
5
100
AcDbSymbolTableRecord
100
AcDbLinetypeTableRecord
  2
PHANTOM
 70
     0
  3
______  __  __  ______  __  __  ______  __  __ 
 72
    65
 73
     6
 40
2.5
 49
1.25
 74
     0
 49
-0.25
 74
     0
 49
0.25
 74
     0
 49
-0.25
 74
     0
 49
0.25
 74
     0
 49
-0.25
 74
     0
  0
LTYPE
  5
8C
330
5
100
AcDbSymbolTableRecord
100
AcDbLinetypeTableRecord
  2
PHANTOM2
 70
     0
  3
___ _ _ ___ _ _ ___ _ _ ___ _ _ ___ _ _ ___ _ _
 72
    65
 73
     6
 40
1.25
 49
0.625
 74
     0
 49
-0.125
 74
     0
 49
0.125
 74
     0
 49
-0.125
 74
     0
 49
0.125
 74
     0
 49
-0.125
 74
     0
  0
LTYPE
  5
8D
330
5
100
AcDbSymbolTableRecord
100
AcDbLinetypeTableRecord
  2
PHANTOMX2
 70
     0
  3
____________    ____    ____    ____________   
 72
    65
 73
     6
 40
5.0
 49
2.5
 74
     0
 49
-0.5
 74
     0
 49
0.5
 74
     0
 49
-0.5
 74
     0
 49
0.5
 74
     0
 49
-0.5
 74
     0
  0
ENDTAB
  0
TABLE
  2
LAYER
  5
2
102
{ACAD_XDICTIONARY
360
43D
102
}
330
0
100
AcDbSymbolTable
 70
    10
  0
LAYER
  5
54
330
2
100
AcDbSymbolTableRecord
100
AcDbLayerTableRecord
  2
0
 70
     0
 62
     7
  6
CONTINUOUS
370
    -3
390
F
347
21
348
0
  0
LAYER
  5
90
330
2
100
AcDbSymbolTableRecord
100
AcDbLayerTableRecord
  2
GRABUNGSGRENZE
 70
     0
 62
     3
  6
STRICHPUNKTX2
370
    -3
390
F
347
21
348
0
  0
LAYER
  5
91
330
2
100
AcDbSymbolTableRecord
100
AcDbLayerTableRecord
  2
BEFUND
 70
     0
 62
     1
  6
CONTINUOUS
370
    -3
390
F
347
21
348
0
  0
LAYER
  5
92
330
2
100
AcDbSymbolTableRecord
100
AcDbLayerTableRecord
  2
STEINE
 70
     0
 62
     4
  6
CONTINUOUS
370
    -3
390
F
347
21
348
0
  0
LAYER
  5
93
330
2
100
AcDbSymbolTableRecord
100
AcDbLayerTableRecord
  2
KNOCHEN
 70
     0
 62
     2
  6
CONTINUOUS
370
    -3
390
F
347
21
348
0
  0
LAYER
  5
94
330
2
100
AcDbSymbolTableRecord
100
AcDbLayerTableRecord
  2
BEFUND_UNSICHER
 70
     0
 62
     1
  6
GESTRICHELT
370
    -3
390
F
347
21
348
0
  0
LAYER
  5
95
330
2
100
AcDbSymbolTableRecord
100
AcDbLayerTableRecord
  2
FEUER
 70
     0
 62
     1
  6
CONTINUOUS
370
    -3
390
F
347
21
348
0
  0
LAYER
  5
96
330
2
100
AcDbSymbolTableRecord
100
AcDbLayerTableRecord
  2
KNOCHENSCHRAFF
 70
     0
 62
     2
  6
CONTINUOUS
370
    -3
390
F
347
21
348
0
  0
LAYER
  5
97
330
2
100
AcDbSymbolTableRecord
100
AcDbLayerTableRecord
  2
TPROFIL
 70
     0
 62
     3
  6
CONTINUOUS
370
    -3
390
F
347
21
348
0
  0
LAYER
  5
98
330
2
100
AcDbSymbolTableRecord
100
AcDbLayerTableRecord
  2
STEINESCHRAFF
 70
     0
 62
     4
  6
CONTINUOUS
370
    -3
390
F
347
21
348
0
  0
ENDTAB
  0
TABLE
  2
STYLE
  5
3
330
0
100
AcDbSymbolTable
 70
     2
  0
STYLE
  5
55
330
3
100
AcDbSymbolTableRecord
100
AcDbTextStyleTableRecord
  2
STANDARD
 70
     0
 40
0.0
 41
1.0
 50
0.0
 71
     0
 42
3.5
  3
txt.shx
  4

  0
STYLE
  5
59
330
3
100
AcDbSymbolTableRecord
100
AcDbTextStyleTableRecord
  2
Annotative
 70
     0
 40
0.0
 41
1.0
 50
0.0
 71
     0
 42
3.5
  3
txt
  4

1001
AcadAnnotative
1000
AnnotativeData
1002
{
1070
     1
1070
     1
1002
}
  0
ENDTAB
  0
TABLE
  2
VIEW
  5
6
330
0
100
AcDbSymbolTable
 70
     1
  0
ENDTAB
  0
TABLE
  2
UCS
  5
7
330
0
100
AcDbSymbolTable
 70
     0
  0
ENDTAB
  0
TABLE
  2
APPID
  5
9
330
0
100
AcDbSymbolTable
 70
     3
  0
APPID
  5
56
330
9
100
AcDbSymbolTableRecord
100
AcDbRegAppTableRecord
  2
ACAD
 70
     0
  0
APPID
  5
5D
330
9
100
AcDbSymbolTableRecord
100
AcDbRegAppTableRecord
  2
AcadAnnotative
 70
     0
  0
APPID
  5
443
330
9
100
AcDbSymbolTableRecord
100
AcDbRegAppTableRecord
  2
ACAD_NAV_VCDISPLAY
 70
     0
  0
ENDTAB
  0
TABLE
  2
DIMSTYLE
  5
A
330
0
100
AcDbSymbolTable
 70
     2
100
AcDbDimStyleTable
 71
     0
  0
DIMSTYLE
105
57
330
A
100
AcDbSymbolTableRecord
100
AcDbDimStyleTableRecord
  2
Standard
 70
     0
340
55
  0
DIMSTYLE
105
58
330
A
100
AcDbSymbolTableRecord
100
AcDbDimStyleTableRecord
  2
Annotative
 70
     0
340
55
1001
AcadAnnotative
1000
AnnotativeData
1002
{
1070
     1
1070
     1
1002
}
  0
ENDTAB
  0
TABLE
  2
BLOCK_RECORD
  5
1
330
0
100
AcDbSymbolTable
 70
     3
  0
BLOCK_RECORD
  5
6F
330
1
100
AcDbSymbolTableRecord
100
AcDbBlockTableRecord
  2
*Model_Space
340
72
 70
     0
280
     1
281
     0
  0
BLOCK_RECORD
  5
6B
330
1
100
AcDbSymbolTableRecord
100
AcDbBlockTableRecord
  2
*Paper_Space
340
6E
 70
     0
280
     1
281
     0
  0
BLOCK_RECORD
  5
73
330
1
100
AcDbSymbolTableRecord
100
AcDbBlockTableRecord
  2
TPFEIL
340
0
 70
     0
280
     1
281
     0
  0
BLOCK_RECORD
  5
74
330
1
100
AcDbSymbolTableRecord
100
AcDbBlockTableRecord
  2
*X1
340
0
102
{BLKREFS
331
435
102
}
 70
     0
280
     1
281
     0
  0
BLOCK_RECORD
  5
75
330
1
100
AcDbSymbolTableRecord
100
AcDbBlockTableRecord
  2
*X2
340
0
102
{BLKREFS
331
436
102
}
 70
     0
280
     1
281
     0
  0
ENDTAB
  0
ENDSEC
  0
SECTION
  2
BLOCKS
  0
BLOCK
  5
9B
330
6F
100
AcDbEntity
  8
0
100
AcDbBlockBegin
  2
*Model_Space
 70
     0
 10
0.0
 20
0.0
 30
0.0
  3
*Model_Space
  1

  0
ENDBLK
  5
9C
330
6F
100
AcDbEntity
  8
0
100
AcDbBlockEnd
  0
BLOCK
  5
99
330
6B
100
AcDbEntity
 67
     1
  8
0
100
AcDbBlockBegin
  2
*Paper_Space
 70
     0
 10
0.0
 20
0.0
 30
0.0
  3
*Paper_Space
  1

  0
ENDBLK
  5
9A
330
6B
100
AcDbEntity
 67
     1
  8
0
100
AcDbBlockEnd
  0
BLOCK
  5
9D
330
73
100
AcDbEntity
  8
0
100
AcDbBlockBegin
  2
TPFEIL
 70
     0
 10
0.0
 20
0.0
 30
0.0
  3
TPFEIL
  1

  0
LWPOLYLINE
  5
9E
330
73
100
AcDbEntity
  8
GRABUNGSGRENZE
100
AcDbPolyline
 90
        2
 70
     0
 10
0.0
 20
-10.0
 40
5.0
 41
0.0
 10
0.0
 20
0.0
 40
0.0
 41
0.0
  0
ENDBLK
  5
A2
330
73
100
AcDbEntity
  8
0
100
AcDbBlockEnd
  0
BLOCK
  5
A3
330
74
100
AcDbEntity
  8
0
100
AcDbBlockBegin
  2
*X1
 70
     1
 10
0.0
 20
0.0
 30
0.0
  3
*X1
  1

  0
LINE
  5
A4
330
74
100
AcDbEntity
  8
0
 62
     0
100
AcDbLine
 10
-1299.375
 20
-1223.75
 30
0.0
 11
-1299.375
 21
-1223.75
 31
0.0
  0
LINE
  5
A5
330
74
100
AcDbEntity
  8
0
 62
     0
100
AcDbLine
 10
-1298.125
 20
-1223.75
 30
0.0
 11
-1298.125
 21
-1223.75
 31
0.0
  0
LINE
  5
A6
330
74
100
AcDbEntity
  8
0
 62
     0
100
AcDbLine
 10
-1296.875
 20
-1223.75
 30
0.0
 11
-1296.875
 21
-1223.75
 31
0.0
  0
LINE
  5
A7
330
74
100
AcDbEntity
  8
0
 62
     0
100
AcDbLine
 10
-1295.625
 20
-1223.75
 30
0.0
 11
-1295.625
 21
-1223.75
 31
0.0
  0
LINE
  5
A8
330
74
100
AcDbEntity
  8
0
 62
     0
100
AcDbLine
 10
-1297.5
 20
-1222.5
 30
0.0
 11
-1297.5
 21
-1222.5
 31
0.0
  0
LINE
  5
A9
330
74
100
AcDbEntity
  8
0
 62
     0
100
AcDbLine
 10
-1296.25
 20
-1222.5
 30
0.0
 11
-1296.25
 21
-1222.5
 31
0.0
  0
LINE
  5
AA
330
74
100
AcDbEntity
  8
0
 62
     0
100
AcDbLine
 10
-1286.25
 20
-1212.5
 30
0.0
 11
-1286.25
 21
-1212.5
 31
0.0
  0
LINE
  5
AB
330
74
100
AcDbEntity
  8
0
 62
     0
100
AcDbLine
 10
-1288.125
 20
-1211.25
 30
0.0
 11
-1288.125
 21
-1211.25
 31
0.0
  0
LINE
  5
AC
330
74
100
AcDbEntity
  8
0
 62
     0
100
AcDbLine
 10
-1286.875
 20
-1211.25
 30
0.0
 11
-1286.875
 21
-1211.25
 31
0.0
  0
LINE
  5
AD
330
74
100
AcDbEntity
  8
0
 62
     0
100
AcDbLine
 10
-1285.625
 20
-1211.25
 30
0.0
 11
-1285.625
 21
-1211.25
 31
0.0
  0
LINE
  5
AE
330
74
100
AcDbEntity
  8
0
 62
     0
100
AcDbLine
 10
-1284.375
 20
-1211.25
 30
0.0
 11
-1284.375
 21
-1211.25
 31
0.0
  0
LINE
  5
AF
330
74
100
AcDbEntity
  8
0
 62
     0
100
AcDbLine
 10
-1283.125
 20
-1211.25
 30
0.0
 11
-1283.125
 21
-1211.25
 31
0.0
  0
LINE
  5
B0
330
74
100
AcDbEntity
  8
0
 62
     0
100
AcDbLine
 10
-1281.875
 20
-1211.25
 30
0.0
 11
-1281.875
 21
-1211.25
 31
0.0
  0
LINE
  5
B1
330
74
100
AcDbEntity
  8
0
 62
     0
100
AcDbLine
 10
-1288.75
 20
-1210.0
 30
0.0
 11
-1288.75
 21
-1210.0
 31
0.0
  0
LINE
  5
B2
330
74
100
AcDbEntity
  8
0
 62
     0
100
AcDbLine
 10
-1287.5
 20
-1210.0
 30
0.0
 11
-1287.5
 21
-1210.0
 31
0.0
  0
LINE
  5
B3
330
74
100
AcDbEntity
  8
0
 62
     0
100
AcDbLine
 10
-1286.25
 20
-1210.0
 30
0.0
 11
-1286.25
 21
-1210.0
 31
0.0
  0
LINE
  5
B4
330
74
100
AcDbEntity
  8
0
 62
     0
100
AcDbLine
 10
-1285.0
 20
-1210.0
 30
0.0
 11
-1285.0
 21
-1210.0
 31
0.0
  0
LINE
  5
B5
330
74
100
AcDbEntity
  8
0
 62
     0
100
AcDbLine
 10
-1283.75
 20
-1210.0
 30
0.0
 11
-1283.75
 21
-1210.0
 31
0.0
  0
LINE
  5
B6
330
74
100
AcDbEntity
  8
0
 62
     0
100
AcDbLine
 10
-1282.5
 20
-1210.0
 30
0.0
 11
-1282.5
 21
-1210.0
 31
0.0
  0
LINE
  5
B7
330
74
100
AcDbEntity
  8
0
 62
     0
100
AcDbLine
 10
-1281.25
 20
-1210.0
 30
0.0
 11
-1281.25
 21
-1210.0
 31
0.0
  0
LINE
  5
B8
330
74
100
AcDbEntity
  8
0
 62
     0
100
AcDbLine
 10
-1280.0
 20
-1210.0
 30
0.0
 11
-1280.0
 21
-1210.0
 31
0.0
  0
LINE
  5
B9
330
74
100
AcDbEntity
  8
0
 62
     0
100
AcDbLine
 10
-1288.125
 20
-1208.75
 30
0.0
 11
-1288.125
 21
-1208.75
 31
0.0
  0
LINE
  5
BA
330
74
100
AcDbEntity
  8
0
 62
     0
100
AcDbLine
 10
-1286.875
 20
-1208.75
 30
0.0
 11
-1286.875
 21
-1208.75
 31
0.0
  0
LINE
  5
BB
330
74
100
AcDbEntity
  8
0
 62
     0
100
AcDbLine
 10
-1285.625
 20
-1208.75
 30
0.0
 11
-1285.625
 21
-1208.75
 31
0.0
  0
LINE
  5
BC
330
74
100
AcDbEntity
  8
0
 62
     0
100
AcDbLine
 10
-1284.375
 20
-1208.75
 30
0.0
 11
-1284.375
 21
-1208.75
 31
0.0
  0
LINE
  5
BD
330
74
100
AcDbEntity
  8
0
 62
     0
100
AcDbLine
 10
-1283.125
 20
-1208.75
 30
0.0
 11
-1283.125
 21
-1208.75
 31
0.0
  0
LINE
  5
BE
330
74
100
AcDbEntity
  8
0
 62
     0
100
AcDbLine
 10
-1281.875
 20
-1208.75
 30
0.0
 11
-1281.875
 21
-1208.75
 31
0.0
  0
LINE
  5
BF
330
74
100
AcDbEntity
  8
0
 62
     0
100
AcDbLine
 10
-1280.625
 20
-1208.75
 30
0.0
 11
-1280.625
 21
-1208.75
 31
0.0
  0
LINE
  5
C0
330
74
100
AcDbEntity
  8
0
 62
     0
100
AcDbLine
 10
-1279.375
 20
-1208.75
 30
0.0
 11
-1279.375
 21
-1208.75
 31
0.0
  0
LINE
  5
C1
330
74
100
AcDbEntity
  8
0
 62
     0
100
AcDbLine
 10
-1278.125
 20
-1208.75
 30
0.0
 11
-1278.125
 21
-1208.75
 31
0.0
  0
LINE
  5
C2
330
74
100
AcDbEntity
  8
0
 62
     0
100
AcDbLine
 10
-1287.5
 20
-1207.5
 30
0.0
 11
-1287.5
 21
-1207.5
 31
0.0
  0
LINE
  5
C3
330
74
100
AcDbEntity
  8
0
 62
     0
100
AcDbLine
 10
-1286.25
 20
-1207.5
 30
0.0
 11
-1286.25
 21
-1207.5
 31
0.0
  0
LINE
  5
C4
330
74
100
AcDbEntity
  8
0
 62
     0
100
AcDbLine
 10
-1285.0
 20
-1207.5
 30
0.0
 11
-1285.0
 21
-1207.5
 31
0.0
  0
LINE
  5
C5
330
74
100
AcDbEntity
  8
0
 62
     0
100
AcDbLine
 10
-1283.75
 20
-1207.5
 30
0.0
 11
-1283.75
 21
-1207.5
 31
0.0
  0
LINE
  5
C6
330
74
100
AcDbEntity
  8
0
 62
     0
100
AcDbLine
 10
-1282.5
 20
-1207.5
 30
0.0
 11
-1282.5
 21
-1207.5
 31
0.0
  0
LINE
  5
C7
330
74
100
AcDbEntity
  8
0
 62
     0
100
AcDbLine
 10
-1281.25
 20
-1207.5
 30
0.0
 11
-1281.25
 21
-1207.5
 31
0.0
  0
LINE
  5
C8
330
74
100
AcDbEntity
  8
0
 62
     0
100
AcDbLine
 10
-1280.0
 20
-1207.5
 30
0.0
 11
-1280.0
 21
-1207.5
 31
0.0
  0
LINE
  5
C9
330
74
100
AcDbEntity
  8
0
 62
     0
100
AcDbLine
 10
-1278.75
 20
-1207.5
 30
0.0
 11
-1278.75
 21
-1207.5
 31
0.0
  0
LINE
  5
CA
330
74
100
AcDbEntity
  8
0
 62
     0
100
AcDbLine
 10
-1288.125
 20
-1206.25
 30
0.0
 11
-1288.125
 21
-1206.25
 31
0.0
  0
LINE
  5
CB
330
74
100
AcDbEntity
  8
0
 62
     0
100
AcDbLine
 10
-1286.875
 20
-1206.25
 30
0.0
 11
-1286.875
 21
-1206.25
 31
0.0
  0
LINE
  5
CC
330
74
100
AcDbEntity
  8
0
 62
     0
100
AcDbLine
 10
-1285.625
 20
-1206.25
 30
0.0
 11
-1285.625
 21
-1206.25
 31
0.0
  0
LINE
  5
CD
330
74
100
AcDbEntity
  8
0
 62
     0
100
AcDbLine
 10
-1284.375
 20
-1206.25
 30
0.0
 11
-1284.375
 21
-1206.25
 31
0.0
  0
LINE
  5
CE
330
74
100
AcDbEntity
  8
0
 62
     0
100
AcDbLine
 10
-1283.125
 20
-1206.25
 30
0.0
 11
-1283.125
 21
-1206.25
 31
0.0
  0
LINE
  5
CF
330
74
100
AcDbEntity
  8
0
 62
     0
100
AcDbLine
 10
-1281.875
 20
-1206.25
 30
0.0
 11
-1281.875
 21
-1206.25
 31
0.0
  0
LINE
  5
D0
330
74
100
AcDbEntity
  8
0
 62
     0
100
AcDbLine
 10
-1280.625
 20
-1206.25
 30
0.0
 11
-1280.625
 21
-1206.25
 31
0.0
  0
LINE
  5
D1
330
74
100
AcDbEntity
  8
0
 62
     0
100
AcDbLine
 10
-1279.375
 20
-1206.25
 30
0.0
 11
-1279.375
 21
-1206.25
 31
0.0
  0
LINE
  5
D2
330
74
100
AcDbEntity
  8
0
 62
     0
100
AcDbLine
 10
-1287.5
 20
-1205.0
 30
0.0
 11
-1287.5
 21
-1205.0
 31
0.0
  0
LINE
  5
D3
330
74
100
AcDbEntity
  8
0
 62
     0
100
AcDbLine
 10
-1286.25
 20
-1205.0
 30
0.0
 11
-1286.25
 21
-1205.0
 31
0.0
  0
LINE
  5
D4
330
74
100
AcDbEntity
  8
0
 62
     0
100
AcDbLine
 10
-1285.0
 20
-1205.0
 30
0.0
 11
-1285.0
 21
-1205.0
 31
0.0
  0
LINE
  5
D5
330
74
100
AcDbEntity
  8
0
 62
     0
100
AcDbLine
 10
-1283.75
 20
-1205.0
 30
0.0
 11
-1283.75
 21
-1205.0
 31
0.0
  0
LINE
  5
D6
330
74
100
AcDbEntity
  8
0
 62
     0
100
AcDbLine
 10
-1282.5
 20
-1205.0
 30
0.0
 11
-1282.5
 21
-1205.0
 31
0.0
  0
LINE
  5
D7
330
74
100
AcDbEntity
  8
0
 62
     0
100
AcDbLine
 10
-1281.25
 20
-1205.0
 30
0.0
 11
-1281.25
 21
-1205.0
 31
0.0
  0
LINE
  5
D8
330
74
100
AcDbEntity
  8
0
 62
     0
100
AcDbLine
 10
-1280.0
 20
-1205.0
 30
0.0
 11
-1280.0
 21
-1205.0
 31
0.0
  0
LINE
  5
D9
330
74
100
AcDbEntity
  8
0
 62
     0
100
AcDbLine
 10
-1286.875
 20
-1203.75
 30
0.0
 11
-1286.875
 21
-1203.75
 31
0.0
  0
LINE
  5
DA
330
74
100
AcDbEntity
  8
0
 62
     0
100
AcDbLine
 10
-1285.625
 20
-1203.75
 30
0.0
 11
-1285.625
 21
-1203.75
 31
0.0
  0
LINE
  5
DB
330
74
100
AcDbEntity
  8
0
 62
     0
100
AcDbLine
 10
-1284.375
 20
-1203.75
 30
0.0
 11
-1284.375
 21
-1203.75
 31
0.0
  0
LINE
  5
DC
330
74
100
AcDbEntity
  8
0
 62
     0
100
AcDbLine
 10
-1283.125
 20
-1203.75
 30
0.0
 11
-1283.125
 21
-1203.75
 31
0.0
  0
LINE
  5
DD
330
74
100
AcDbEntity
  8
0
 62
     0
100
AcDbLine
 10
-1281.875
 20
-1203.75
 30
0.0
 11
-1281.875
 21
-1203.75
 31
0.0
  0
LINE
  5
DE
330
74
100
AcDbEntity
  8
0
 62
     0
100
AcDbLine
 10
-1286.25
 20
-1202.5
 30
0.0
 11
-1286.25
 21
-1202.5
 31
0.0
  0
LINE
  5
DF
330
74
100
AcDbEntity
  8
0
 62
     0
100
AcDbLine
 10
-1285.0
 20
-1202.5
 30
0.0
 11
-1285.0
 21
-1202.5
 31
0.0
  0
LINE
  5
E0
330
74
100
AcDbEntity
  8
0
 62
     0
100
AcDbLine
 10
-1283.75
 20
-1202.5
 30
0.0
 11
-1283.75
 21
-1202.5
 31
0.0
  0
LINE
  5
E1
330
74
100
AcDbEntity
  8
0
 62
     0
100
AcDbLine
 10
-1285.625
 20
-1201.25
 30
0.0
 11
-1285.625
 21
-1201.25
 31
0.0
  0
LINE
  5
E2
330
74
100
AcDbEntity
  8
0
 62
     0
100
AcDbLine
 10
-1284.375
 20
-1201.25
 30
0.0
 11
-1284.375
 21
-1201.25
 31
0.0
  0
LINE
  5
E3
330
74
100
AcDbEntity
  8
0
 62
     0
100
AcDbLine
 10
-1285.0
 20
-1200.0
 30
0.0
 11
-1285.0
 21
-1200.0
 31
0.0
  0
LINE
  5
E4
330
74
100
AcDbEntity
  8
0
 62
     0
100
AcDbLine
 10
-1283.75
 20
-1197.5
 30
0.0
 11
-1283.75
 21
-1197.5
 31
0.0
  0
LINE
  5
E5
330
74
100
AcDbEntity
  8
0
 62
     0
100
AcDbLine
 10
-1282.5
 20
-1197.5
 30
0.0
 11
-1282.5
 21
-1197.5
 31
0.0
  0
LINE
  5
E6
330
74
100
AcDbEntity
  8
0
 62
     0
100
AcDbLine
 10
-1283.125
 20
-1196.25
 30
0.0
 11
-1283.125
 21
-1196.25
 31
0.0
  0
LINE
  5
E7
330
74
100
AcDbEntity
  8
0
 62
     0
100
AcDbLine
 10
-1281.875
 20
-1196.25
 30
0.0
 11
-1281.875
 21
-1196.25
 31
0.0
  0
LINE
  5
E8
330
74
100
AcDbEntity
  8
0
 62
     0
100
AcDbLine
 10
-1280.625
 20
-1196.25
 30
0.0
 11
-1280.625
 21
-1196.25
 31
0.0
  0
LINE
  5
E9
330
74
100
AcDbEntity
  8
0
 62
     0
100
AcDbLine
 10
-1282.5
 20
-1195.0
 30
0.0
 11
-1282.5
 21
-1195.0
 31
0.0
  0
LINE
  5
EA
330
74
100
AcDbEntity
  8
0
 62
     0
100
AcDbLine
 10
-1281.25
 20
-1195.0
 30
0.0
 11
-1281.25
 21
-1195.0
 31
0.0
  0
LINE
  5
EB
330
74
100
AcDbEntity
  8
0
 62
     0
100
AcDbLine
 10
-1281.875
 20
-1193.75
 30
0.0
 11
-1281.875
 21
-1193.75
 31
0.0
  0
LINE
  5
EC
330
74
100
AcDbEntity
  8
0
 62
     0
100
AcDbLine
 10
-1251.25
 20
-1190.0
 30
0.0
 11
-1251.25
 21
-1190.0
 31
0.0
  0
LINE
  5
ED
330
74
100
AcDbEntity
  8
0
 62
     0
100
AcDbLine
 10
-1250.0
 20
-1190.0
 30
0.0
 11
-1250.0
 21
-1190.0
 31
0.0
  0
LINE
  5
EE
330
74
100
AcDbEntity
  8
0
 62
     0
100
AcDbLine
 10
-1253.125
 20
-1188.75
 30
0.0
 11
-1253.125
 21
-1188.75
 31
0.0
  0
LINE
  5
EF
330
74
100
AcDbEntity
  8
0
 62
     0
100
AcDbLine
 10
-1251.875
 20
-1188.75
 30
0.0
 11
-1251.875
 21
-1188.75
 31
0.0
  0
LINE
  5
F0
330
74
100
AcDbEntity
  8
0
 62
     0
100
AcDbLine
 10
-1250.625
 20
-1188.75
 30
0.0
 11
-1250.625
 21
-1188.75
 31
0.0
  0
LINE
  5
F1
330
74
100
AcDbEntity
  8
0
 62
     0
100
AcDbLine
 10
-1253.75
 20
-1187.5
 30
0.0
 11
-1253.75
 21
-1187.5
 31
0.0
  0
LINE
  5
F2
330
74
100
AcDbEntity
  8
0
 62
     0
100
AcDbLine
 10
-1252.5
 20
-1187.5
 30
0.0
 11
-1252.5
 21
-1187.5
 31
0.0
  0
LINE
  5
F3
330
74
100
AcDbEntity
  8
0
 62
     0
100
AcDbLine
 10
-1251.25
 20
-1187.5
 30
0.0
 11
-1251.25
 21
-1187.5
 31
0.0
  0
LINE
  5
F4
330
74
100
AcDbEntity
  8
0
 62
     0
100
AcDbLine
 10
-1250.0
 20
-1187.5
 30
0.0
 11
-1250.0
 21
-1187.5
 31
0.0
  0
LINE
  5
F5
330
74
100
AcDbEntity
  8
0
 62
     0
100
AcDbLine
 10
-1253.125
 20
-1186.25
 30
0.0
 11
-1253.125
 21
-1186.25
 31
0.0
  0
LINE
  5
F6
330
74
100
AcDbEntity
  8
0
 62
     0
100
AcDbLine
 10
-1251.875
 20
-1186.25
 30
0.0
 11
-1251.875
 21
-1186.25
 31
0.0
  0
LINE
  5
F7
330
74
100
AcDbEntity
  8
0
 62
     0
100
AcDbLine
 10
-1250.625
 20
-1186.25
 30
0.0
 11
-1250.625
 21
-1186.25
 31
0.0
  0
LINE
  5
F8
330
74
100
AcDbEntity
  8
0
 62
     0
100
AcDbLine
 10
-1251.25
 20
-1185.0
 30
0.0
 11
-1251.25
 21
-1185.0
 31
0.0
  0
LINE
  5
F9
330
74
100
AcDbEntity
  8
0
 62
     0
100
AcDbLine
 10
-1250.0
 20
-1185.0
 30
0.0
 11
-1250.0
 21
-1185.0
 31
0.0
  0
LINE
  5
FA
330
74
100
AcDbEntity
  8
0
 62
     0
100
AcDbLine
 10
-1265.625
 20
-1183.75
 30
0.0
 11
-1265.625
 21
-1183.75
 31
0.0
  0
LINE
  5
FB
330
74
100
AcDbEntity
  8
0
 62
     0
100
AcDbLine
 10
-1264.375
 20
-1183.75
 30
0.0
 11
-1264.375
 21
-1183.75
 31
0.0
  0
LINE
  5
FC
330
74
100
AcDbEntity
  8
0
 62
     0
100
AcDbLine
 10
-1251.875
 20
-1183.75
 30
0.0
 11
-1251.875
 21
-1183.75
 31
0.0
  0
LINE
  5
FD
330
74
100
AcDbEntity
  8
0
 62
     0
100
AcDbLine
 10
-1250.625
 20
-1183.75
 30
0.0
 11
-1250.625
 21
-1183.75
 31
0.0
  0
LINE
  5
FE
330
74
100
AcDbEntity
  8
0
 62
     0
100
AcDbLine
 10
-1263.125
 20
-1183.75
 30
0.0
 11
-1263.125
 21
-1183.75
 31
0.0
  0
LINE
  5
FF
330
74
100
AcDbEntity
  8
0
 62
     0
100
AcDbLine
 10
-1261.875
 20
-1183.75
 30
0.0
 11
-1261.875
 21
-1183.75
 31
0.0
  0
LINE
  5
100
330
74
100
AcDbEntity
  8
0
 62
     0
100
AcDbLine
 10
-1265.0
 20
-1182.5
 30
0.0
 11
-1265.0
 21
-1182.5
 31
0.0
  0
LINE
  5
101
330
74
100
AcDbEntity
  8
0
 62
     0
100
AcDbLine
 10
-1263.75
 20
-1182.5
 30
0.0
 11
-1263.75
 21
-1182.5
 31
0.0
  0
LINE
  5
102
330
74
100
AcDbEntity
  8
0
 62
     0
100
AcDbLine
 10
-1252.5
 20
-1182.5
 30
0.0
 11
-1252.5
 21
-1182.5
 31
0.0
  0
LINE
  5
103
330
74
100
AcDbEntity
  8
0
 62
     0
100
AcDbLine
 10
-1251.25
 20
-1182.5
 30
0.0
 11
-1251.25
 21
-1182.5
 31
0.0
  0
LINE
  5
104
330
74
100
AcDbEntity
  8
0
 62
     0
100
AcDbLine
 10
-1250.0
 20
-1182.5
 30
0.0
 11
-1250.0
 21
-1182.5
 31
0.0
  0
LINE
  5
105
330
74
100
AcDbEntity
  8
0
 62
     0
100
AcDbLine
 10
-1262.5
 20
-1182.5
 30
0.0
 11
-1262.5
 21
-1182.5
 31
0.0
  0
LINE
  5
106
330
74
100
AcDbEntity
  8
0
 62
     0
100
AcDbLine
 10
-1261.25
 20
-1182.5
 30
0.0
 11
-1261.25
 21
-1182.5
 31
0.0
  0
LINE
  5
107
330
74
100
AcDbEntity
  8
0
 62
     0
100
AcDbLine
 10
-1260.0
 20
-1182.5
 30
0.0
 11
-1260.0
 21
-1182.5
 31
0.0
  0
LINE
  5
108
330
74
100
AcDbEntity
  8
0
 62
     0
100
AcDbLine
 10
-1258.75
 20
-1182.5
 30
0.0
 11
-1258.75
 21
-1182.5
 31
0.0
  0
LINE
  5
109
330
74
100
AcDbEntity
  8
0
 62
     0
100
AcDbLine
 10
-1257.5
 20
-1182.5
 30
0.0
 11
-1257.5
 21
-1182.5
 31
0.0
  0
LINE
  5
10A
330
74
100
AcDbEntity
  8
0
 62
     0
100
AcDbLine
 10
-1269.375
 20
-1181.25
 30
0.0
 11
-1269.375
 21
-1181.25
 31
0.0
  0
LINE
  5
10B
330
74
100
AcDbEntity
  8
0
 62
     0
100
AcDbLine
 10
-1251.875
 20
-1181.25
 30
0.0
 11
-1251.875
 21
-1181.25
 31
0.0
  0
LINE
  5
10C
330
74
100
AcDbEntity
  8
0
 62
     0
100
AcDbLine
 10
-1250.625
 20
-1181.25
 30
0.0
 11
-1250.625
 21
-1181.25
 31
0.0
  0
LINE
  5
10D
330
74
100
AcDbEntity
  8
0
 62
     0
100
AcDbLine
 10
-1268.125
 20
-1181.25
 30
0.0
 11
-1268.125
 21
-1181.25
 31
0.0
  0
LINE
  5
10E
330
74
100
AcDbEntity
  8
0
 62
     0
100
AcDbLine
 10
-1266.875
 20
-1181.25
 30
0.0
 11
-1266.875
 21
-1181.25
 31
0.0
  0
LINE
  5
10F
330
74
100
AcDbEntity
  8
0
 62
     0
100
AcDbLine
 10
-1265.625
 20
-1181.25
 30
0.0
 11
-1265.625
 21
-1181.25
 31
0.0
  0
LINE
  5
110
330
74
100
AcDbEntity
  8
0
 62
     0
100
AcDbLine
 10
-1264.375
 20
-1181.25
 30
0.0
 11
-1264.375
 21
-1181.25
 31
0.0
  0
LINE
  5
111
330
74
100
AcDbEntity
  8
0
 62
     0
100
AcDbLine
 10
-1263.125
 20
-1181.25
 30
0.0
 11
-1263.125
 21
-1181.25
 31
0.0
  0
LINE
  5
112
330
74
100
AcDbEntity
  8
0
 62
     0
100
AcDbLine
 10
-1260.625
 20
-1181.25
 30
0.0
 11
-1260.625
 21
-1181.25
 31
0.0
  0
LINE
  5
113
330
74
100
AcDbEntity
  8
0
 62
     0
100
AcDbLine
 10
-1259.375
 20
-1181.25
 30
0.0
 11
-1259.375
 21
-1181.25
 31
0.0
  0
LINE
  5
114
330
74
100
AcDbEntity
  8
0
 62
     0
100
AcDbLine
 10
-1258.125
 20
-1181.25
 30
0.0
 11
-1258.125
 21
-1181.25
 31
0.0
  0
LINE
  5
115
330
74
100
AcDbEntity
  8
0
 62
     0
100
AcDbLine
 10
-1256.875
 20
-1181.25
 30
0.0
 11
-1256.875
 21
-1181.25
 31
0.0
  0
LINE
  5
116
330
74
100
AcDbEntity
  8
0
 62
     0
100
AcDbLine
 10
-1261.875
 20
-1181.25
 30
0.0
 11
-1261.875
 21
-1181.25
 31
0.0
  0
LINE
  5
117
330
74
100
AcDbEntity
  8
0
 62
     0
100
AcDbLine
 10
-1275.0
 20
-1180.0
 30
0.0
 11
-1275.0
 21
-1180.0
 31
0.0
  0
LINE
  5
118
330
74
100
AcDbEntity
  8
0
 62
     0
100
AcDbLine
 10
-1251.25
 20
-1180.0
 30
0.0
 11
-1251.25
 21
-1180.0
 31
0.0
  0
LINE
  5
119
330
74
100
AcDbEntity
  8
0
 62
     0
100
AcDbLine
 10
-1250.0
 20
-1180.0
 30
0.0
 11
-1250.0
 21
-1180.0
 31
0.0
  0
LINE
  5
11A
330
74
100
AcDbEntity
  8
0
 62
     0
100
AcDbLine
 10
-1273.75
 20
-1180.0
 30
0.0
 11
-1273.75
 21
-1180.0
 31
0.0
  0
LINE
  5
11B
330
74
100
AcDbEntity
  8
0
 62
     0
100
AcDbLine
 10
-1272.5
 20
-1180.0
 30
0.0
 11
-1272.5
 21
-1180.0
 31
0.0
  0
LINE
  5
11C
330
74
100
AcDbEntity
  8
0
 62
     0
100
AcDbLine
 10
-1271.25
 20
-1180.0
 30
0.0
 11
-1271.25
 21
-1180.0
 31
0.0
  0
LINE
  5
11D
330
74
100
AcDbEntity
  8
0
 62
     0
100
AcDbLine
 10
-1270.0
 20
-1180.0
 30
0.0
 11
-1270.0
 21
-1180.0
 31
0.0
  0
LINE
  5
11E
330
74
100
AcDbEntity
  8
0
 62
     0
100
AcDbLine
 10
-1268.75
 20
-1180.0
 30
0.0
 11
-1268.75
 21
-1180.0
 31
0.0
  0
LINE
  5
11F
330
74
100
AcDbEntity
  8
0
 62
     0
100
AcDbLine
 10
-1253.75
 20
-1180.0
 30
0.0
 11
-1253.75
 21
-1180.0
 31
0.0
  0
LINE
  5
120
330
74
100
AcDbEntity
  8
0
 62
     0
100
AcDbLine
 10
-1267.5
 20
-1180.0
 30
0.0
 11
-1267.5
 21
-1180.0
 31
0.0
  0
LINE
  5
121
330
74
100
AcDbEntity
  8
0
 62
     0
100
AcDbLine
 10
-1266.25
 20
-1180.0
 30
0.0
 11
-1266.25
 21
-1180.0
 31
0.0
  0
LINE
  5
122
330
74
100
AcDbEntity
  8
0
 62
     0
100
AcDbLine
 10
-1265.0
 20
-1180.0
 30
0.0
 11
-1265.0
 21
-1180.0
 31
0.0
  0
LINE
  5
123
330
74
100
AcDbEntity
  8
0
 62
     0
100
AcDbLine
 10
-1263.75
 20
-1180.0
 30
0.0
 11
-1263.75
 21
-1180.0
 31
0.0
  0
LINE
  5
124
330
74
100
AcDbEntity
  8
0
 62
     0
100
AcDbLine
 10
-1262.5
 20
-1180.0
 30
0.0
 11
-1262.5
 21
-1180.0
 31
0.0
  0
LINE
  5
125
330
74
100
AcDbEntity
  8
0
 62
     0
100
AcDbLine
 10
-1261.25
 20
-1180.0
 30
0.0
 11
-1261.25
 21
-1180.0
 31
0.0
  0
LINE
  5
126
330
74
100
AcDbEntity
  8
0
 62
     0
100
AcDbLine
 10
-1260.0
 20
-1180.0
 30
0.0
 11
-1260.0
 21
-1180.0
 31
0.0
  0
LINE
  5
127
330
74
100
AcDbEntity
  8
0
 62
     0
100
AcDbLine
 10
-1258.75
 20
-1180.0
 30
0.0
 11
-1258.75
 21
-1180.0
 31
0.0
  0
LINE
  5
128
330
74
100
AcDbEntity
  8
0
 62
     0
100
AcDbLine
 10
-1257.5
 20
-1180.0
 30
0.0
 11
-1257.5
 21
-1180.0
 31
0.0
  0
LINE
  5
129
330
74
100
AcDbEntity
  8
0
 62
     0
100
AcDbLine
 10
-1256.25
 20
-1180.0
 30
0.0
 11
-1256.25
 21
-1180.0
 31
0.0
  0
LINE
  5
12A
330
74
100
AcDbEntity
  8
0
 62
     0
100
AcDbLine
 10
-1278.125
 20
-1178.75
 30
0.0
 11
-1278.125
 21
-1178.75
 31
0.0
  0
LINE
  5
12B
330
74
100
AcDbEntity
  8
0
 62
     0
100
AcDbLine
 10
-1276.875
 20
-1178.75
 30
0.0
 11
-1276.875
 21
-1178.75
 31
0.0
  0
LINE
  5
12C
330
74
100
AcDbEntity
  8
0
 62
     0
100
AcDbLine
 10
-1275.625
 20
-1178.75
 30
0.0
 11
-1275.625
 21
-1178.75
 31
0.0
  0
LINE
  5
12D
330
74
100
AcDbEntity
  8
0
 62
     0
100
AcDbLine
 10
-1253.125
 20
-1178.75
 30
0.0
 11
-1253.125
 21
-1178.75
 31
0.0
  0
LINE
  5
12E
330
74
100
AcDbEntity
  8
0
 62
     0
100
AcDbLine
 10
-1251.875
 20
-1178.75
 30
0.0
 11
-1251.875
 21
-1178.75
 31
0.0
  0
LINE
  5
12F
330
74
100
AcDbEntity
  8
0
 62
     0
100
AcDbLine
 10
-1250.625
 20
-1178.75
 30
0.0
 11
-1250.625
 21
-1178.75
 31
0.0
  0
LINE
  5
130
330
74
100
AcDbEntity
  8
0
 62
     0
100
AcDbLine
 10
-1274.375
 20
-1178.75
 30
0.0
 11
-1274.375
 21
-1178.75
 31
0.0
  0
LINE
  5
131
330
74
100
AcDbEntity
  8
0
 62
     0
100
AcDbLine
 10
-1273.125
 20
-1178.75
 30
0.0
 11
-1273.125
 21
-1178.75
 31
0.0
  0
LINE
  5
132
330
74
100
AcDbEntity
  8
0
 62
     0
100
AcDbLine
 10
-1271.875
 20
-1178.75
 30
0.0
 11
-1271.875
 21
-1178.75
 31
0.0
  0
LINE
  5
133
330
74
100
AcDbEntity
  8
0
 62
     0
100
AcDbLine
 10
-1270.625
 20
-1178.75
 30
0.0
 11
-1270.625
 21
-1178.75
 31
0.0
  0
LINE
  5
134
330
74
100
AcDbEntity
  8
0
 62
     0
100
AcDbLine
 10
-1269.375
 20
-1178.75
 30
0.0
 11
-1269.375
 21
-1178.75
 31
0.0
  0
LINE
  5
135
330
74
100
AcDbEntity
  8
0
 62
     0
100
AcDbLine
 10
-1268.125
 20
-1178.75
 30
0.0
 11
-1268.125
 21
-1178.75
 31
0.0
  0
LINE
  5
136
330
74
100
AcDbEntity
  8
0
 62
     0
100
AcDbLine
 10
-1256.875
 20
-1178.75
 30
0.0
 11
-1256.875
 21
-1178.75
 31
0.0
  0
LINE
  5
137
330
74
100
AcDbEntity
  8
0
 62
     0
100
AcDbLine
 10
-1255.625
 20
-1178.75
 30
0.0
 11
-1255.625
 21
-1178.75
 31
0.0
  0
LINE
  5
138
330
74
100
AcDbEntity
  8
0
 62
     0
100
AcDbLine
 10
-1254.375
 20
-1178.75
 30
0.0
 11
-1254.375
 21
-1178.75
 31
0.0
  0
LINE
  5
139
330
74
100
AcDbEntity
  8
0
 62
     0
100
AcDbLine
 10
-1266.875
 20
-1178.75
 30
0.0
 11
-1266.875
 21
-1178.75
 31
0.0
  0
LINE
  5
13A
330
74
100
AcDbEntity
  8
0
 62
     0
100
AcDbLine
 10
-1265.625
 20
-1178.75
 30
0.0
 11
-1265.625
 21
-1178.75
 31
0.0
  0
LINE
  5
13B
330
74
100
AcDbEntity
  8
0
 62
     0
100
AcDbLine
 10
-1264.375
 20
-1178.75
 30
0.0
 11
-1264.375
 21
-1178.75
 31
0.0
  0
LINE
  5
13C
330
74
100
AcDbEntity
  8
0
 62
     0
100
AcDbLine
 10
-1263.125
 20
-1178.75
 30
0.0
 11
-1263.125
 21
-1178.75
 31
0.0
  0
LINE
  5
13D
330
74
100
AcDbEntity
  8
0
 62
     0
100
AcDbLine
 10
-1261.875
 20
-1178.75
 30
0.0
 11
-1261.875
 21
-1178.75
 31
0.0
  0
LINE
  5
13E
330
74
100
AcDbEntity
  8
0
 62
     0
100
AcDbLine
 10
-1260.625
 20
-1178.75
 30
0.0
 11
-1260.625
 21
-1178.75
 31
0.0
  0
LINE
  5
13F
330
74
100
AcDbEntity
  8
0
 62
     0
100
AcDbLine
 10
-1259.375
 20
-1178.75
 30
0.0
 11
-1259.375
 21
-1178.75
 31
0.0
  0
LINE
  5
140
330
74
100
AcDbEntity
  8
0
 62
     0
100
AcDbLine
 10
-1258.125
 20
-1178.75
 30
0.0
 11
-1258.125
 21
-1178.75
 31
0.0
  0
LINE
  5
141
330
74
100
AcDbEntity
  8
0
 62
     0
100
AcDbLine
 10
-1280.0
 20
-1177.5
 30
0.0
 11
-1280.0
 21
-1177.5
 31
0.0
  0
LINE
  5
142
330
74
100
AcDbEntity
  8
0
 62
     0
100
AcDbLine
 10
-1278.75
 20
-1177.5
 30
0.0
 11
-1278.75
 21
-1177.5
 31
0.0
  0
LINE
  5
143
330
74
100
AcDbEntity
  8
0
 62
     0
100
AcDbLine
 10
-1277.5
 20
-1177.5
 30
0.0
 11
-1277.5
 21
-1177.5
 31
0.0
  0
LINE
  5
144
330
74
100
AcDbEntity
  8
0
 62
     0
100
AcDbLine
 10
-1276.25
 20
-1177.5
 30
0.0
 11
-1276.25
 21
-1177.5
 31
0.0
  0
LINE
  5
145
330
74
100
AcDbEntity
  8
0
 62
     0
100
AcDbLine
 10
-1275.0
 20
-1177.5
 30
0.0
 11
-1275.0
 21
-1177.5
 31
0.0
  0
LINE
  5
146
330
74
100
AcDbEntity
  8
0
 62
     0
100
AcDbLine
 10
-1252.5
 20
-1177.5
 30
0.0
 11
-1252.5
 21
-1177.5
 31
0.0
  0
LINE
  5
147
330
74
100
AcDbEntity
  8
0
 62
     0
100
AcDbLine
 10
-1251.25
 20
-1177.5
 30
0.0
 11
-1251.25
 21
-1177.5
 31
0.0
  0
LINE
  5
148
330
74
100
AcDbEntity
  8
0
 62
     0
100
AcDbLine
 10
-1250.0
 20
-1177.5
 30
0.0
 11
-1250.0
 21
-1177.5
 31
0.0
  0
LINE
  5
149
330
74
100
AcDbEntity
  8
0
 62
     0
100
AcDbLine
 10
-1273.75
 20
-1177.5
 30
0.0
 11
-1273.75
 21
-1177.5
 31
0.0
  0
LINE
  5
14A
330
74
100
AcDbEntity
  8
0
 62
     0
100
AcDbLine
 10
-1272.5
 20
-1177.5
 30
0.0
 11
-1272.5
 21
-1177.5
 31
0.0
  0
LINE
  5
14B
330
74
100
AcDbEntity
  8
0
 62
     0
100
AcDbLine
 10
-1271.25
 20
-1177.5
 30
0.0
 11
-1271.25
 21
-1177.5
 31
0.0
  0
LINE
  5
14C
330
74
100
AcDbEntity
  8
0
 62
     0
100
AcDbLine
 10
-1270.0
 20
-1177.5
 30
0.0
 11
-1270.0
 21
-1177.5
 31
0.0
  0
LINE
  5
14D
330
74
100
AcDbEntity
  8
0
 62
     0
100
AcDbLine
 10
-1268.75
 20
-1177.5
 30
0.0
 11
-1268.75
 21
-1177.5
 31
0.0
  0
LINE
  5
14E
330
74
100
AcDbEntity
  8
0
 62
     0
100
AcDbLine
 10
-1267.5
 20
-1177.5
 30
0.0
 11
-1267.5
 21
-1177.5
 31
0.0
  0
LINE
  5
14F
330
74
100
AcDbEntity
  8
0
 62
     0
100
AcDbLine
 10
-1256.25
 20
-1177.5
 30
0.0
 11
-1256.25
 21
-1177.5
 31
0.0
  0
LINE
  5
150
330
74
100
AcDbEntity
  8
0
 62
     0
100
AcDbLine
 10
-1255.0
 20
-1177.5
 30
0.0
 11
-1255.0
 21
-1177.5
 31
0.0
  0
LINE
  5
151
330
74
100
AcDbEntity
  8
0
 62
     0
100
AcDbLine
 10
-1253.75
 20
-1177.5
 30
0.0
 11
-1253.75
 21
-1177.5
 31
0.0
  0
LINE
  5
152
330
74
100
AcDbEntity
  8
0
 62
     0
100
AcDbLine
 10
-1266.25
 20
-1177.5
 30
0.0
 11
-1266.25
 21
-1177.5
 31
0.0
  0
LINE
  5
153
330
74
100
AcDbEntity
  8
0
 62
     0
100
AcDbLine
 10
-1265.0
 20
-1177.5
 30
0.0
 11
-1265.0
 21
-1177.5
 31
0.0
  0
LINE
  5
154
330
74
100
AcDbEntity
  8
0
 62
     0
100
AcDbLine
 10
-1263.75
 20
-1177.5
 30
0.0
 11
-1263.75
 21
-1177.5
 31
0.0
  0
LINE
  5
155
330
74
100
AcDbEntity
  8
0
 62
     0
100
AcDbLine
 10
-1262.5
 20
-1177.5
 30
0.0
 11
-1262.5
 21
-1177.5
 31
0.0
  0
LINE
  5
156
330
74
100
AcDbEntity
  8
0
 62
     0
100
AcDbLine
 10
-1261.25
 20
-1177.5
 30
0.0
 11
-1261.25
 21
-1177.5
 31
0.0
  0
LINE
  5
157
330
74
100
AcDbEntity
  8
0
 62
     0
100
AcDbLine
 10
-1260.0
 20
-1177.5
 30
0.0
 11
-1260.0
 21
-1177.5
 31
0.0
  0
LINE
  5
158
330
74
100
AcDbEntity
  8
0
 62
     0
100
AcDbLine
 10
-1258.75
 20
-1177.5
 30
0.0
 11
-1258.75
 21
-1177.5
 31
0.0
  0
LINE
  5
159
330
74
100
AcDbEntity
  8
0
 62
     0
100
AcDbLine
 10
-1257.5
 20
-1177.5
 30
0.0
 11
-1257.5
 21
-1177.5
 31
0.0
  0
LINE
  5
15A
330
74
100
AcDbEntity
  8
0
 62
     0
100
AcDbLine
 10
-1280.625
 20
-1176.25
 30
0.0
 11
-1280.625
 21
-1176.25
 31
0.0
  0
LINE
  5
15B
330
74
100
AcDbEntity
  8
0
 62
     0
100
AcDbLine
 10
-1279.375
 20
-1176.25
 30
0.0
 11
-1279.375
 21
-1176.25
 31
0.0
  0
LINE
  5
15C
330
74
100
AcDbEntity
  8
0
 62
     0
100
AcDbLine
 10
-1278.125
 20
-1176.25
 30
0.0
 11
-1278.125
 21
-1176.25
 31
0.0
  0
LINE
  5
15D
330
74
100
AcDbEntity
  8
0
 62
     0
100
AcDbLine
 10
-1276.875
 20
-1176.25
 30
0.0
 11
-1276.875
 21
-1176.25
 31
0.0
  0
LINE
  5
15E
330
74
100
AcDbEntity
  8
0
 62
     0
100
AcDbLine
 10
-1275.625
 20
-1176.25
 30
0.0
 11
-1275.625
 21
-1176.25
 31
0.0
  0
LINE
  5
15F
330
74
100
AcDbEntity
  8
0
 62
     0
100
AcDbLine
 10
-1274.375
 20
-1176.25
 30
0.0
 11
-1274.375
 21
-1176.25
 31
0.0
  0
LINE
  5
160
330
74
100
AcDbEntity
  8
0
 62
     0
100
AcDbLine
 10
-1251.875
 20
-1176.25
 30
0.0
 11
-1251.875
 21
-1176.25
 31
0.0
  0
LINE
  5
161
330
74
100
AcDbEntity
  8
0
 62
     0
100
AcDbLine
 10
-1250.625
 20
-1176.25
 30
0.0
 11
-1250.625
 21
-1176.25
 31
0.0
  0
LINE
  5
162
330
74
100
AcDbEntity
  8
0
 62
     0
100
AcDbLine
 10
-1273.125
 20
-1176.25
 30
0.0
 11
-1273.125
 21
-1176.25
 31
0.0
  0
LINE
  5
163
330
74
100
AcDbEntity
  8
0
 62
     0
100
AcDbLine
 10
-1271.875
 20
-1176.25
 30
0.0
 11
-1271.875
 21
-1176.25
 31
0.0
  0
LINE
  5
164
330
74
100
AcDbEntity
  8
0
 62
     0
100
AcDbLine
 10
-1270.625
 20
-1176.25
 30
0.0
 11
-1270.625
 21
-1176.25
 31
0.0
  0
LINE
  5
165
330
74
100
AcDbEntity
  8
0
 62
     0
100
AcDbLine
 10
-1269.375
 20
-1176.25
 30
0.0
 11
-1269.375
 21
-1176.25
 31
0.0
  0
LINE
  5
166
330
74
100
AcDbEntity
  8
0
 62
     0
100
AcDbLine
 10
-1254.375
 20
-1176.25
 30
0.0
 11
-1254.375
 21
-1176.25
 31
0.0
  0
LINE
  5
167
330
74
100
AcDbEntity
  8
0
 62
     0
100
AcDbLine
 10
-1253.125
 20
-1176.25
 30
0.0
 11
-1253.125
 21
-1176.25
 31
0.0
  0
LINE
  5
168
330
74
100
AcDbEntity
  8
0
 62
     0
100
AcDbLine
 10
-1268.125
 20
-1176.25
 30
0.0
 11
-1268.125
 21
-1176.25
 31
0.0
  0
LINE
  5
169
330
74
100
AcDbEntity
  8
0
 62
     0
100
AcDbLine
 10
-1266.875
 20
-1176.25
 30
0.0
 11
-1266.875
 21
-1176.25
 31
0.0
  0
LINE
  5
16A
330
74
100
AcDbEntity
  8
0
 62
     0
100
AcDbLine
 10
-1265.625
 20
-1176.25
 30
0.0
 11
-1265.625
 21
-1176.25
 31
0.0
  0
LINE
  5
16B
330
74
100
AcDbEntity
  8
0
 62
     0
100
AcDbLine
 10
-1264.375
 20
-1176.25
 30
0.0
 11
-1264.375
 21
-1176.25
 31
0.0
  0
LINE
  5
16C
330
74
100
AcDbEntity
  8
0
 62
     0
100
AcDbLine
 10
-1263.125
 20
-1176.25
 30
0.0
 11
-1263.125
 21
-1176.25
 31
0.0
  0
LINE
  5
16D
330
74
100
AcDbEntity
  8
0
 62
     0
100
AcDbLine
 10
-1261.875
 20
-1176.25
 30
0.0
 11
-1261.875
 21
-1176.25
 31
0.0
  0
LINE
  5
16E
330
74
100
AcDbEntity
  8
0
 62
     0
100
AcDbLine
 10
-1260.625
 20
-1176.25
 30
0.0
 11
-1260.625
 21
-1176.25
 31
0.0
  0
LINE
  5
16F
330
74
100
AcDbEntity
  8
0
 62
     0
100
AcDbLine
 10
-1259.375
 20
-1176.25
 30
0.0
 11
-1259.375
 21
-1176.25
 31
0.0
  0
LINE
  5
170
330
74
100
AcDbEntity
  8
0
 62
     0
100
AcDbLine
 10
-1258.125
 20
-1176.25
 30
0.0
 11
-1258.125
 21
-1176.25
 31
0.0
  0
LINE
  5
171
330
74
100
AcDbEntity
  8
0
 62
     0
100
AcDbLine
 10
-1256.875
 20
-1176.25
 30
0.0
 11
-1256.875
 21
-1176.25
 31
0.0
  0
LINE
  5
172
330
74
100
AcDbEntity
  8
0
 62
     0
100
AcDbLine
 10
-1255.625
 20
-1176.25
 30
0.0
 11
-1255.625
 21
-1176.25
 31
0.0
  0
LINE
  5
173
330
74
100
AcDbEntity
  8
0
 62
     0
100
AcDbLine
 10
-1280.0
 20
-1175.0
 30
0.0
 11
-1280.0
 21
-1175.0
 31
0.0
  0
LINE
  5
174
330
74
100
AcDbEntity
  8
0
 62
     0
100
AcDbLine
 10
-1278.75
 20
-1175.0
 30
0.0
 11
-1278.75
 21
-1175.0
 31
0.0
  0
LINE
  5
175
330
74
100
AcDbEntity
  8
0
 62
     0
100
AcDbLine
 10
-1277.5
 20
-1175.0
 30
0.0
 11
-1277.5
 21
-1175.0
 31
0.0
  0
LINE
  5
176
330
74
100
AcDbEntity
  8
0
 62
     0
100
AcDbLine
 10
-1276.25
 20
-1175.0
 30
0.0
 11
-1276.25
 21
-1175.0
 31
0.0
  0
LINE
  5
177
330
74
100
AcDbEntity
  8
0
 62
     0
100
AcDbLine
 10
-1275.0
 20
-1175.0
 30
0.0
 11
-1275.0
 21
-1175.0
 31
0.0
  0
LINE
  5
178
330
74
100
AcDbEntity
  8
0
 62
     0
100
AcDbLine
 10
-1273.75
 20
-1175.0
 30
0.0
 11
-1273.75
 21
-1175.0
 31
0.0
  0
LINE
  5
179
330
74
100
AcDbEntity
  8
0
 62
     0
100
AcDbLine
 10
-1251.25
 20
-1175.0
 30
0.0
 11
-1251.25
 21
-1175.0
 31
0.0
  0
LINE
  5
17A
330
74
100
AcDbEntity
  8
0
 62
     0
100
AcDbLine
 10
-1272.5
 20
-1175.0
 30
0.0
 11
-1272.5
 21
-1175.0
 31
0.0
  0
LINE
  5
17B
330
74
100
AcDbEntity
  8
0
 62
     0
100
AcDbLine
 10
-1271.25
 20
-1175.0
 30
0.0
 11
-1271.25
 21
-1175.0
 31
0.0
  0
LINE
  5
17C
330
74
100
AcDbEntity
  8
0
 62
     0
100
AcDbLine
 10
-1270.0
 20
-1175.0
 30
0.0
 11
-1270.0
 21
-1175.0
 31
0.0
  0
LINE
  5
17D
330
74
100
AcDbEntity
  8
0
 62
     0
100
AcDbLine
 10
-1268.75
 20
-1175.0
 30
0.0
 11
-1268.75
 21
-1175.0
 31
0.0
  0
LINE
  5
17E
330
74
100
AcDbEntity
  8
0
 62
     0
100
AcDbLine
 10
-1253.75
 20
-1175.0
 30
0.0
 11
-1253.75
 21
-1175.0
 31
0.0
  0
LINE
  5
17F
330
74
100
AcDbEntity
  8
0
 62
     0
100
AcDbLine
 10
-1252.5
 20
-1175.0
 30
0.0
 11
-1252.5
 21
-1175.0
 31
0.0
  0
LINE
  5
180
330
74
100
AcDbEntity
  8
0
 62
     0
100
AcDbLine
 10
-1267.5
 20
-1175.0
 30
0.0
 11
-1267.5
 21
-1175.0
 31
0.0
  0
LINE
  5
181
330
74
100
AcDbEntity
  8
0
 62
     0
100
AcDbLine
 10
-1266.25
 20
-1175.0
 30
0.0
 11
-1266.25
 21
-1175.0
 31
0.0
  0
LINE
  5
182
330
74
100
AcDbEntity
  8
0
 62
     0
100
AcDbLine
 10
-1265.0
 20
-1175.0
 30
0.0
 11
-1265.0
 21
-1175.0
 31
0.0
  0
LINE
  5
183
330
74
100
AcDbEntity
  8
0
 62
     0
100
AcDbLine
 10
-1263.75
 20
-1175.0
 30
0.0
 11
-1263.75
 21
-1175.0
 31
0.0
  0
LINE
  5
184
330
74
100
AcDbEntity
  8
0
 62
     0
100
AcDbLine
 10
-1262.5
 20
-1175.0
 30
0.0
 11
-1262.5
 21
-1175.0
 31
0.0
  0
LINE
  5
185
330
74
100
AcDbEntity
  8
0
 62
     0
100
AcDbLine
 10
-1261.25
 20
-1175.0
 30
0.0
 11
-1261.25
 21
-1175.0
 31
0.0
  0
LINE
  5
186
330
74
100
AcDbEntity
  8
0
 62
     0
100
AcDbLine
 10
-1260.0
 20
-1175.0
 30
0.0
 11
-1260.0
 21
-1175.0
 31
0.0
  0
LINE
  5
187
330
74
100
AcDbEntity
  8
0
 62
     0
100
AcDbLine
 10
-1258.75
 20
-1175.0
 30
0.0
 11
-1258.75
 21
-1175.0
 31
0.0
  0
LINE
  5
188
330
74
100
AcDbEntity
  8
0
 62
     0
100
AcDbLine
 10
-1257.5
 20
-1175.0
 30
0.0
 11
-1257.5
 21
-1175.0
 31
0.0
  0
LINE
  5
189
330
74
100
AcDbEntity
  8
0
 62
     0
100
AcDbLine
 10
-1256.25
 20
-1175.0
 30
0.0
 11
-1256.25
 21
-1175.0
 31
0.0
  0
LINE
  5
18A
330
74
100
AcDbEntity
  8
0
 62
     0
100
AcDbLine
 10
-1255.0
 20
-1175.0
 30
0.0
 11
-1255.0
 21
-1175.0
 31
0.0
  0
LINE
  5
18B
330
74
100
AcDbEntity
  8
0
 62
     0
100
AcDbLine
 10
-1279.375
 20
-1173.75
 30
0.0
 11
-1279.375
 21
-1173.75
 31
0.0
  0
LINE
  5
18C
330
74
100
AcDbEntity
  8
0
 62
     0
100
AcDbLine
 10
-1278.125
 20
-1173.75
 30
0.0
 11
-1278.125
 21
-1173.75
 31
0.0
  0
LINE
  5
18D
330
74
100
AcDbEntity
  8
0
 62
     0
100
AcDbLine
 10
-1253.125
 20
-1173.75
 30
0.0
 11
-1253.125
 21
-1173.75
 31
0.0
  0
LINE
  5
18E
330
74
100
AcDbEntity
  8
0
 62
     0
100
AcDbLine
 10
-1274.375
 20
-1173.75
 30
0.0
 11
-1274.375
 21
-1173.75
 31
0.0
  0
LINE
  5
18F
330
74
100
AcDbEntity
  8
0
 62
     0
100
AcDbLine
 10
-1273.125
 20
-1173.75
 30
0.0
 11
-1273.125
 21
-1173.75
 31
0.0
  0
LINE
  5
190
330
74
100
AcDbEntity
  8
0
 62
     0
100
AcDbLine
 10
-1268.125
 20
-1173.75
 30
0.0
 11
-1268.125
 21
-1173.75
 31
0.0
  0
LINE
  5
191
330
74
100
AcDbEntity
  8
0
 62
     0
100
AcDbLine
 10
-1266.875
 20
-1173.75
 30
0.0
 11
-1266.875
 21
-1173.75
 31
0.0
  0
LINE
  5
192
330
74
100
AcDbEntity
  8
0
 62
     0
100
AcDbLine
 10
-1265.625
 20
-1173.75
 30
0.0
 11
-1265.625
 21
-1173.75
 31
0.0
  0
LINE
  5
193
330
74
100
AcDbEntity
  8
0
 62
     0
100
AcDbLine
 10
-1264.375
 20
-1173.75
 30
0.0
 11
-1264.375
 21
-1173.75
 31
0.0
  0
LINE
  5
194
330
74
100
AcDbEntity
  8
0
 62
     0
100
AcDbLine
 10
-1263.125
 20
-1173.75
 30
0.0
 11
-1263.125
 21
-1173.75
 31
0.0
  0
LINE
  5
195
330
74
100
AcDbEntity
  8
0
 62
     0
100
AcDbLine
 10
-1261.875
 20
-1173.75
 30
0.0
 11
-1261.875
 21
-1173.75
 31
0.0
  0
LINE
  5
196
330
74
100
AcDbEntity
  8
0
 62
     0
100
AcDbLine
 10
-1260.625
 20
-1173.75
 30
0.0
 11
-1260.625
 21
-1173.75
 31
0.0
  0
LINE
  5
197
330
74
100
AcDbEntity
  8
0
 62
     0
100
AcDbLine
 10
-1259.375
 20
-1173.75
 30
0.0
 11
-1259.375
 21
-1173.75
 31
0.0
  0
LINE
  5
198
330
74
100
AcDbEntity
  8
0
 62
     0
100
AcDbLine
 10
-1258.125
 20
-1173.75
 30
0.0
 11
-1258.125
 21
-1173.75
 31
0.0
  0
LINE
  5
199
330
74
100
AcDbEntity
  8
0
 62
     0
100
AcDbLine
 10
-1256.875
 20
-1173.75
 30
0.0
 11
-1256.875
 21
-1173.75
 31
0.0
  0
LINE
  5
19A
330
74
100
AcDbEntity
  8
0
 62
     0
100
AcDbLine
 10
-1255.625
 20
-1173.75
 30
0.0
 11
-1255.625
 21
-1173.75
 31
0.0
  0
LINE
  5
19B
330
74
100
AcDbEntity
  8
0
 62
     0
100
AcDbLine
 10
-1254.375
 20
-1173.75
 30
0.0
 11
-1254.375
 21
-1173.75
 31
0.0
  0
LINE
  5
19C
330
74
100
AcDbEntity
  8
0
 62
     0
100
AcDbLine
 10
-1271.875
 20
-1173.75
 30
0.0
 11
-1271.875
 21
-1173.75
 31
0.0
  0
LINE
  5
19D
330
74
100
AcDbEntity
  8
0
 62
     0
100
AcDbLine
 10
-1270.625
 20
-1173.75
 30
0.0
 11
-1270.625
 21
-1173.75
 31
0.0
  0
LINE
  5
19E
330
74
100
AcDbEntity
  8
0
 62
     0
100
AcDbLine
 10
-1269.375
 20
-1173.75
 30
0.0
 11
-1269.375
 21
-1173.75
 31
0.0
  0
LINE
  5
19F
330
74
100
AcDbEntity
  8
0
 62
     0
100
AcDbLine
 10
-1272.5
 20
-1172.5
 30
0.0
 11
-1272.5
 21
-1172.5
 31
0.0
  0
LINE
  5
1A0
330
74
100
AcDbEntity
  8
0
 62
     0
100
AcDbLine
 10
-1271.25
 20
-1172.5
 30
0.0
 11
-1271.25
 21
-1172.5
 31
0.0
  0
LINE
  5
1A1
330
74
100
AcDbEntity
  8
0
 62
     0
100
AcDbLine
 10
-1270.0
 20
-1172.5
 30
0.0
 11
-1270.0
 21
-1172.5
 31
0.0
  0
LINE
  5
1A2
330
74
100
AcDbEntity
  8
0
 62
     0
100
AcDbLine
 10
-1268.75
 20
-1172.5
 30
0.0
 11
-1268.75
 21
-1172.5
 31
0.0
  0
LINE
  5
1A3
330
74
100
AcDbEntity
  8
0
 62
     0
100
AcDbLine
 10
-1267.5
 20
-1172.5
 30
0.0
 11
-1267.5
 21
-1172.5
 31
0.0
  0
LINE
  5
1A4
330
74
100
AcDbEntity
  8
0
 62
     0
100
AcDbLine
 10
-1266.25
 20
-1172.5
 30
0.0
 11
-1266.25
 21
-1172.5
 31
0.0
  0
LINE
  5
1A5
330
74
100
AcDbEntity
  8
0
 62
     0
100
AcDbLine
 10
-1265.0
 20
-1172.5
 30
0.0
 11
-1265.0
 21
-1172.5
 31
0.0
  0
LINE
  5
1A6
330
74
100
AcDbEntity
  8
0
 62
     0
100
AcDbLine
 10
-1263.75
 20
-1172.5
 30
0.0
 11
-1263.75
 21
-1172.5
 31
0.0
  0
LINE
  5
1A7
330
74
100
AcDbEntity
  8
0
 62
     0
100
AcDbLine
 10
-1262.5
 20
-1172.5
 30
0.0
 11
-1262.5
 21
-1172.5
 31
0.0
  0
LINE
  5
1A8
330
74
100
AcDbEntity
  8
0
 62
     0
100
AcDbLine
 10
-1261.25
 20
-1172.5
 30
0.0
 11
-1261.25
 21
-1172.5
 31
0.0
  0
LINE
  5
1A9
330
74
100
AcDbEntity
  8
0
 62
     0
100
AcDbLine
 10
-1260.0
 20
-1172.5
 30
0.0
 11
-1260.0
 21
-1172.5
 31
0.0
  0
LINE
  5
1AA
330
74
100
AcDbEntity
  8
0
 62
     0
100
AcDbLine
 10
-1258.75
 20
-1172.5
 30
0.0
 11
-1258.75
 21
-1172.5
 31
0.0
  0
LINE
  5
1AB
330
74
100
AcDbEntity
  8
0
 62
     0
100
AcDbLine
 10
-1257.5
 20
-1172.5
 30
0.0
 11
-1257.5
 21
-1172.5
 31
0.0
  0
LINE
  5
1AC
330
74
100
AcDbEntity
  8
0
 62
     0
100
AcDbLine
 10
-1256.25
 20
-1172.5
 30
0.0
 11
-1256.25
 21
-1172.5
 31
0.0
  0
LINE
  5
1AD
330
74
100
AcDbEntity
  8
0
 62
     0
100
AcDbLine
 10
-1255.0
 20
-1172.5
 30
0.0
 11
-1255.0
 21
-1172.5
 31
0.0
  0
LINE
  5
1AE
330
74
100
AcDbEntity
  8
0
 62
     0
100
AcDbLine
 10
-1270.625
 20
-1171.25
 30
0.0
 11
-1270.625
 21
-1171.25
 31
0.0
  0
LINE
  5
1AF
330
74
100
AcDbEntity
  8
0
 62
     0
100
AcDbLine
 10
-1269.375
 20
-1171.25
 30
0.0
 11
-1269.375
 21
-1171.25
 31
0.0
  0
LINE
  5
1B0
330
74
100
AcDbEntity
  8
0
 62
     0
100
AcDbLine
 10
-1268.125
 20
-1171.25
 30
0.0
 11
-1268.125
 21
-1171.25
 31
0.0
  0
LINE
  5
1B1
330
74
100
AcDbEntity
  8
0
 62
     0
100
AcDbLine
 10
-1266.875
 20
-1171.25
 30
0.0
 11
-1266.875
 21
-1171.25
 31
0.0
  0
LINE
  5
1B2
330
74
100
AcDbEntity
  8
0
 62
     0
100
AcDbLine
 10
-1265.625
 20
-1171.25
 30
0.0
 11
-1265.625
 21
-1171.25
 31
0.0
  0
LINE
  5
1B3
330
74
100
AcDbEntity
  8
0
 62
     0
100
AcDbLine
 10
-1264.375
 20
-1171.25
 30
0.0
 11
-1264.375
 21
-1171.25
 31
0.0
  0
LINE
  5
1B4
330
74
100
AcDbEntity
  8
0
 62
     0
100
AcDbLine
 10
-1263.125
 20
-1171.25
 30
0.0
 11
-1263.125
 21
-1171.25
 31
0.0
  0
LINE
  5
1B5
330
74
100
AcDbEntity
  8
0
 62
     0
100
AcDbLine
 10
-1261.875
 20
-1171.25
 30
0.0
 11
-1261.875
 21
-1171.25
 31
0.0
  0
LINE
  5
1B6
330
74
100
AcDbEntity
  8
0
 62
     0
100
AcDbLine
 10
-1260.625
 20
-1171.25
 30
0.0
 11
-1260.625
 21
-1171.25
 31
0.0
  0
LINE
  5
1B7
330
74
100
AcDbEntity
  8
0
 62
     0
100
AcDbLine
 10
-1259.375
 20
-1171.25
 30
0.0
 11
-1259.375
 21
-1171.25
 31
0.0
  0
LINE
  5
1B8
330
74
100
AcDbEntity
  8
0
 62
     0
100
AcDbLine
 10
-1258.125
 20
-1171.25
 30
0.0
 11
-1258.125
 21
-1171.25
 31
0.0
  0
LINE
  5
1B9
330
74
100
AcDbEntity
  8
0
 62
     0
100
AcDbLine
 10
-1268.75
 20
-1170.0
 30
0.0
 11
-1268.75
 21
-1170.0
 31
0.0
  0
LINE
  5
1BA
330
74
100
AcDbEntity
  8
0
 62
     0
100
AcDbLine
 10
-1267.5
 20
-1170.0
 30
0.0
 11
-1267.5
 21
-1170.0
 31
0.0
  0
LINE
  5
1BB
330
74
100
AcDbEntity
  8
0
 62
     0
100
AcDbLine
 10
-1266.25
 20
-1170.0
 30
0.0
 11
-1266.25
 21
-1170.0
 31
0.0
  0
LINE
  5
1BC
330
74
100
AcDbEntity
  8
0
 62
     0
100
AcDbLine
 10
-1265.0
 20
-1170.0
 30
0.0
 11
-1265.0
 21
-1170.0
 31
0.0
  0
LINE
  5
1BD
330
74
100
AcDbEntity
  8
0
 62
     0
100
AcDbLine
 10
-1263.75
 20
-1170.0
 30
0.0
 11
-1263.75
 21
-1170.0
 31
0.0
  0
LINE
  5
1BE
330
74
100
AcDbEntity
  8
0
 62
     0
100
AcDbLine
 10
-1262.5
 20
-1170.0
 30
0.0
 11
-1262.5
 21
-1170.0
 31
0.0
  0
LINE
  5
1BF
330
74
100
AcDbEntity
  8
0
 62
     0
100
AcDbLine
 10
-1261.25
 20
-1170.0
 30
0.0
 11
-1261.25
 21
-1170.0
 31
0.0
  0
LINE
  5
1C0
330
74
100
AcDbEntity
  8
0
 62
     0
100
AcDbLine
 10
-1320.0
 20
-1167.5
 30
0.0
 11
-1320.0
 21
-1167.5
 31
0.0
  0
LINE
  5
1C1
330
74
100
AcDbEntity
  8
0
 62
     0
100
AcDbLine
 10
-1318.75
 20
-1167.5
 30
0.0
 11
-1318.75
 21
-1167.5
 31
0.0
  0
LINE
  5
1C2
330
74
100
AcDbEntity
  8
0
 62
     0
100
AcDbLine
 10
-1317.5
 20
-1167.5
 30
0.0
 11
-1317.5
 21
-1167.5
 31
0.0
  0
LINE
  5
1C3
330
74
100
AcDbEntity
  8
0
 62
     0
100
AcDbLine
 10
-1320.625
 20
-1166.25
 30
0.0
 11
-1320.625
 21
-1166.25
 31
0.0
  0
LINE
  5
1C4
330
74
100
AcDbEntity
  8
0
 62
     0
100
AcDbLine
 10
-1319.375
 20
-1166.25
 30
0.0
 11
-1319.375
 21
-1166.25
 31
0.0
  0
LINE
  5
1C5
330
74
100
AcDbEntity
  8
0
 62
     0
100
AcDbLine
 10
-1318.125
 20
-1166.25
 30
0.0
 11
-1318.125
 21
-1166.25
 31
0.0
  0
LINE
  5
1C6
330
74
100
AcDbEntity
  8
0
 62
     0
100
AcDbLine
 10
-1316.875
 20
-1166.25
 30
0.0
 11
-1316.875
 21
-1166.25
 31
0.0
  0
LINE
  5
1C7
330
74
100
AcDbEntity
  8
0
 62
     0
100
AcDbLine
 10
-1321.25
 20
-1165.0
 30
0.0
 11
-1321.25
 21
-1165.0
 31
0.0
  0
LINE
  5
1C8
330
74
100
AcDbEntity
  8
0
 62
     0
100
AcDbLine
 10
-1320.0
 20
-1165.0
 30
0.0
 11
-1320.0
 21
-1165.0
 31
0.0
  0
LINE
  5
1C9
330
74
100
AcDbEntity
  8
0
 62
     0
100
AcDbLine
 10
-1318.75
 20
-1165.0
 30
0.0
 11
-1318.75
 21
-1165.0
 31
0.0
  0
LINE
  5
1CA
330
74
100
AcDbEntity
  8
0
 62
     0
100
AcDbLine
 10
-1317.5
 20
-1165.0
 30
0.0
 11
-1317.5
 21
-1165.0
 31
0.0
  0
LINE
  5
1CB
330
74
100
AcDbEntity
  8
0
 62
     0
100
AcDbLine
 10
-1316.25
 20
-1165.0
 30
0.0
 11
-1316.25
 21
-1165.0
 31
0.0
  0
LINE
  5
1CC
330
74
100
AcDbEntity
  8
0
 62
     0
100
AcDbLine
 10
-1321.875
 20
-1163.75
 30
0.0
 11
-1321.875
 21
-1163.75
 31
0.0
  0
LINE
  5
1CD
330
74
100
AcDbEntity
  8
0
 62
     0
100
AcDbLine
 10
-1320.625
 20
-1163.75
 30
0.0
 11
-1320.625
 21
-1163.75
 31
0.0
  0
LINE
  5
1CE
330
74
100
AcDbEntity
  8
0
 62
     0
100
AcDbLine
 10
-1319.375
 20
-1163.75
 30
0.0
 11
-1319.375
 21
-1163.75
 31
0.0
  0
LINE
  5
1CF
330
74
100
AcDbEntity
  8
0
 62
     0
100
AcDbLine
 10
-1318.125
 20
-1163.75
 30
0.0
 11
-1318.125
 21
-1163.75
 31
0.0
  0
LINE
  5
1D0
330
74
100
AcDbEntity
  8
0
 62
     0
100
AcDbLine
 10
-1316.875
 20
-1163.75
 30
0.0
 11
-1316.875
 21
-1163.75
 31
0.0
  0
LINE
  5
1D1
330
74
100
AcDbEntity
  8
0
 62
     0
100
AcDbLine
 10
-1315.625
 20
-1163.75
 30
0.0
 11
-1315.625
 21
-1163.75
 31
0.0
  0
LINE
  5
1D2
330
74
100
AcDbEntity
  8
0
 62
     0
100
AcDbLine
 10
-1321.25
 20
-1162.5
 30
0.0
 11
-1321.25
 21
-1162.5
 31
0.0
  0
LINE
  5
1D3
330
74
100
AcDbEntity
  8
0
 62
     0
100
AcDbLine
 10
-1320.0
 20
-1162.5
 30
0.0
 11
-1320.0
 21
-1162.5
 31
0.0
  0
LINE
  5
1D4
330
74
100
AcDbEntity
  8
0
 62
     0
100
AcDbLine
 10
-1318.75
 20
-1162.5
 30
0.0
 11
-1318.75
 21
-1162.5
 31
0.0
  0
LINE
  5
1D5
330
74
100
AcDbEntity
  8
0
 62
     0
100
AcDbLine
 10
-1317.5
 20
-1162.5
 30
0.0
 11
-1317.5
 21
-1162.5
 31
0.0
  0
LINE
  5
1D6
330
74
100
AcDbEntity
  8
0
 62
     0
100
AcDbLine
 10
-1316.25
 20
-1162.5
 30
0.0
 11
-1316.25
 21
-1162.5
 31
0.0
  0
LINE
  5
1D7
330
74
100
AcDbEntity
  8
0
 62
     0
100
AcDbLine
 10
-1319.375
 20
-1161.25
 30
0.0
 11
-1319.375
 21
-1161.25
 31
0.0
  0
LINE
  5
1D8
330
74
100
AcDbEntity
  8
0
 62
     0
100
AcDbLine
 10
-1318.125
 20
-1161.25
 30
0.0
 11
-1318.125
 21
-1161.25
 31
0.0
  0
LINE
  5
1D9
330
74
100
AcDbEntity
  8
0
 62
     0
100
AcDbLine
 10
-1316.875
 20
-1161.25
 30
0.0
 11
-1316.875
 21
-1161.25
 31
0.0
  0
LINE
  5
1DA
330
74
100
AcDbEntity
  8
0
 62
     0
100
AcDbLine
 10
-1315.625
 20
-1161.25
 30
0.0
 11
-1315.625
 21
-1161.25
 31
0.0
  0
LINE
  5
1DB
330
74
100
AcDbEntity
  8
0
 62
     0
100
AcDbLine
 10
-1325.0
 20
-1160.0
 30
0.0
 11
-1325.0
 21
-1160.0
 31
0.0
  0
LINE
  5
1DC
330
74
100
AcDbEntity
  8
0
 62
     0
100
AcDbLine
 10
-1323.75
 20
-1160.0
 30
0.0
 11
-1323.75
 21
-1160.0
 31
0.0
  0
LINE
  5
1DD
330
74
100
AcDbEntity
  8
0
 62
     0
100
AcDbLine
 10
-1318.75
 20
-1160.0
 30
0.0
 11
-1318.75
 21
-1160.0
 31
0.0
  0
LINE
  5
1DE
330
74
100
AcDbEntity
  8
0
 62
     0
100
AcDbLine
 10
-1317.5
 20
-1160.0
 30
0.0
 11
-1317.5
 21
-1160.0
 31
0.0
  0
LINE
  5
1DF
330
74
100
AcDbEntity
  8
0
 62
     0
100
AcDbLine
 10
-1316.25
 20
-1160.0
 30
0.0
 11
-1316.25
 21
-1160.0
 31
0.0
  0
LINE
  5
1E0
330
74
100
AcDbEntity
  8
0
 62
     0
100
AcDbLine
 10
-1325.625
 20
-1158.75
 30
0.0
 11
-1325.625
 21
-1158.75
 31
0.0
  0
LINE
  5
1E1
330
74
100
AcDbEntity
  8
0
 62
     0
100
AcDbLine
 10
-1324.375
 20
-1158.75
 30
0.0
 11
-1324.375
 21
-1158.75
 31
0.0
  0
LINE
  5
1E2
330
74
100
AcDbEntity
  8
0
 62
     0
100
AcDbLine
 10
-1316.875
 20
-1158.75
 30
0.0
 11
-1316.875
 21
-1158.75
 31
0.0
  0
LINE
  5
1E3
330
74
100
AcDbEntity
  8
0
 62
     0
100
AcDbLine
 10
-1325.0
 20
-1157.5
 30
0.0
 11
-1325.0
 21
-1157.5
 31
0.0
  0
LINE
  5
1E4
330
74
100
AcDbEntity
  8
0
 62
     0
100
AcDbLine
 10
-1302.5
 20
-1225.0
 30
0.0
 11
-1302.5
 21
-1225.0
 31
0.0
  0
LINE
  5
1E5
330
74
100
AcDbEntity
  8
0
 62
     0
100
AcDbLine
 10
-1301.25
 20
-1225.0
 30
0.0
 11
-1301.25
 21
-1225.0
 31
0.0
  0
LINE
  5
1E6
330
74
100
AcDbEntity
  8
0
 62
     0
100
AcDbLine
 10
-1300.0
 20
-1225.0
 30
0.0
 11
-1300.0
 21
-1225.0
 31
0.0
  0
LINE
  5
1E7
330
74
100
AcDbEntity
  8
0
 62
     0
100
AcDbLine
 10
-1298.75
 20
-1225.0
 30
0.0
 11
-1298.75
 21
-1225.0
 31
0.0
  0
LINE
  5
1E8
330
74
100
AcDbEntity
  8
0
 62
     0
100
AcDbLine
 10
-1297.5
 20
-1225.0
 30
0.0
 11
-1297.5
 21
-1225.0
 31
0.0
  0
LINE
  5
1E9
330
74
100
AcDbEntity
  8
0
 62
     0
100
AcDbLine
 10
-1296.25
 20
-1225.0
 30
0.0
 11
-1296.25
 21
-1225.0
 31
0.0
  0
LINE
  5
1EA
330
74
100
AcDbEntity
  8
0
 62
     0
100
AcDbLine
 10
-1295.0
 20
-1225.0
 30
0.0
 11
-1295.0
 21
-1225.0
 31
0.0
  0
LINE
  5
1EB
330
74
100
AcDbEntity
  8
0
 62
     0
100
AcDbLine
 10
-1301.875
 20
-1226.25
 30
0.0
 11
-1301.875
 21
-1226.25
 31
0.0
  0
LINE
  5
1EC
330
74
100
AcDbEntity
  8
0
 62
     0
100
AcDbLine
 10
-1300.625
 20
-1226.25
 30
0.0
 11
-1300.625
 21
-1226.25
 31
0.0
  0
LINE
  5
1ED
330
74
100
AcDbEntity
  8
0
 62
     0
100
AcDbLine
 10
-1299.375
 20
-1226.25
 30
0.0
 11
-1299.375
 21
-1226.25
 31
0.0
  0
LINE
  5
1EE
330
74
100
AcDbEntity
  8
0
 62
     0
100
AcDbLine
 10
-1298.125
 20
-1226.25
 30
0.0
 11
-1298.125
 21
-1226.25
 31
0.0
  0
LINE
  5
1EF
330
74
100
AcDbEntity
  8
0
 62
     0
100
AcDbLine
 10
-1296.875
 20
-1226.25
 30
0.0
 11
-1296.875
 21
-1226.25
 31
0.0
  0
LINE
  5
1F0
330
74
100
AcDbEntity
  8
0
 62
     0
100
AcDbLine
 10
-1295.625
 20
-1226.25
 30
0.0
 11
-1295.625
 21
-1226.25
 31
0.0
  0
LINE
  5
1F1
330
74
100
AcDbEntity
  8
0
 62
     0
100
AcDbLine
 10
-1302.5
 20
-1227.5
 30
0.0
 11
-1302.5
 21
-1227.5
 31
0.0
  0
LINE
  5
1F2
330
74
100
AcDbEntity
  8
0
 62
     0
100
AcDbLine
 10
-1301.25
 20
-1227.5
 30
0.0
 11
-1301.25
 21
-1227.5
 31
0.0
  0
LINE
  5
1F3
330
74
100
AcDbEntity
  8
0
 62
     0
100
AcDbLine
 10
-1300.0
 20
-1227.5
 30
0.0
 11
-1300.0
 21
-1227.5
 31
0.0
  0
LINE
  5
1F4
330
74
100
AcDbEntity
  8
0
 62
     0
100
AcDbLine
 10
-1298.75
 20
-1227.5
 30
0.0
 11
-1298.75
 21
-1227.5
 31
0.0
  0
LINE
  5
1F5
330
74
100
AcDbEntity
  8
0
 62
     0
100
AcDbLine
 10
-1297.5
 20
-1227.5
 30
0.0
 11
-1297.5
 21
-1227.5
 31
0.0
  0
LINE
  5
1F6
330
74
100
AcDbEntity
  8
0
 62
     0
100
AcDbLine
 10
-1296.25
 20
-1227.5
 30
0.0
 11
-1296.25
 21
-1227.5
 31
0.0
  0
LINE
  5
1F7
330
74
100
AcDbEntity
  8
0
 62
     0
100
AcDbLine
 10
-1295.0
 20
-1227.5
 30
0.0
 11
-1295.0
 21
-1227.5
 31
0.0
  0
LINE
  5
1F8
330
74
100
AcDbEntity
  8
0
 62
     0
100
AcDbLine
 10
-1301.875
 20
-1228.75
 30
0.0
 11
-1301.875
 21
-1228.75
 31
0.0
  0
LINE
  5
1F9
330
74
100
AcDbEntity
  8
0
 62
     0
100
AcDbLine
 10
-1300.625
 20
-1228.75
 30
0.0
 11
-1300.625
 21
-1228.75
 31
0.0
  0
LINE
  5
1FA
330
74
100
AcDbEntity
  8
0
 62
     0
100
AcDbLine
 10
-1299.375
 20
-1228.75
 30
0.0
 11
-1299.375
 21
-1228.75
 31
0.0
  0
LINE
  5
1FB
330
74
100
AcDbEntity
  8
0
 62
     0
100
AcDbLine
 10
-1298.125
 20
-1228.75
 30
0.0
 11
-1298.125
 21
-1228.75
 31
0.0
  0
LINE
  5
1FC
330
74
100
AcDbEntity
  8
0
 62
     0
100
AcDbLine
 10
-1296.875
 20
-1228.75
 30
0.0
 11
-1296.875
 21
-1228.75
 31
0.0
  0
LINE
  5
1FD
330
74
100
AcDbEntity
  8
0
 62
     0
100
AcDbLine
 10
-1295.625
 20
-1228.75
 30
0.0
 11
-1295.625
 21
-1228.75
 31
0.0
  0
LINE
  5
1FE
330
74
100
AcDbEntity
  8
0
 62
     0
100
AcDbLine
 10
-1294.375
 20
-1228.75
 30
0.0
 11
-1294.375
 21
-1228.75
 31
0.0
  0
LINE
  5
1FF
330
74
100
AcDbEntity
  8
0
 62
     0
100
AcDbLine
 10
-1300.0
 20
-1230.0
 30
0.0
 11
-1300.0
 21
-1230.0
 31
0.0
  0
LINE
  5
200
330
74
100
AcDbEntity
  8
0
 62
     0
100
AcDbLine
 10
-1298.75
 20
-1230.0
 30
0.0
 11
-1298.75
 21
-1230.0
 31
0.0
  0
LINE
  5
201
330
74
100
AcDbEntity
  8
0
 62
     0
100
AcDbLine
 10
-1297.5
 20
-1230.0
 30
0.0
 11
-1297.5
 21
-1230.0
 31
0.0
  0
LINE
  5
202
330
74
100
AcDbEntity
  8
0
 62
     0
100
AcDbLine
 10
-1296.25
 20
-1230.0
 30
0.0
 11
-1296.25
 21
-1230.0
 31
0.0
  0
LINE
  5
203
330
74
100
AcDbEntity
  8
0
 62
     0
100
AcDbLine
 10
-1295.0
 20
-1230.0
 30
0.0
 11
-1295.0
 21
-1230.0
 31
0.0
  0
LINE
  5
204
330
74
100
AcDbEntity
  8
0
 62
     0
100
AcDbLine
 10
-1299.375
 20
-1231.25
 30
0.0
 11
-1299.375
 21
-1231.25
 31
0.0
  0
LINE
  5
205
330
74
100
AcDbEntity
  8
0
 62
     0
100
AcDbLine
 10
-1298.125
 20
-1231.25
 30
0.0
 11
-1298.125
 21
-1231.25
 31
0.0
  0
LINE
  5
206
330
74
100
AcDbEntity
  8
0
 62
     0
100
AcDbLine
 10
-1296.875
 20
-1231.25
 30
0.0
 11
-1296.875
 21
-1231.25
 31
0.0
  0
LINE
  5
207
330
74
100
AcDbEntity
  8
0
 62
     0
100
AcDbLine
 10
-1297.5
 20
-1232.5
 30
0.0
 11
-1297.5
 21
-1232.5
 31
0.0
  0
LINE
  5
208
330
74
100
AcDbEntity
  8
0
 62
     0
100
AcDbLine
 10
-1296.25
 20
-1232.5
 30
0.0
 11
-1296.25
 21
-1232.5
 31
0.0
  0
LINE
  5
209
330
74
100
AcDbEntity
  8
0
 62
     0
100
AcDbLine
 10
-1301.25
 20
-1245.0
 30
0.0
 11
-1301.25
 21
-1245.0
 31
0.0
  0
LINE
  5
20A
330
74
100
AcDbEntity
  8
0
 62
     0
100
AcDbLine
 10
-1300.0
 20
-1245.0
 30
0.0
 11
-1300.0
 21
-1245.0
 31
0.0
  0
LINE
  5
20B
330
74
100
AcDbEntity
  8
0
 62
     0
100
AcDbLine
 10
-1298.75
 20
-1245.0
 30
0.0
 11
-1298.75
 21
-1245.0
 31
0.0
  0
LINE
  5
20C
330
74
100
AcDbEntity
  8
0
 62
     0
100
AcDbLine
 10
-1300.625
 20
-1246.25
 30
0.0
 11
-1300.625
 21
-1246.25
 31
0.0
  0
LINE
  5
20D
330
74
100
AcDbEntity
  8
0
 62
     0
100
AcDbLine
 10
-1299.375
 20
-1246.25
 30
0.0
 11
-1299.375
 21
-1246.25
 31
0.0
  0
LINE
  5
20E
330
74
100
AcDbEntity
  8
0
 62
     0
100
AcDbLine
 10
-1298.125
 20
-1246.25
 30
0.0
 11
-1298.125
 21
-1246.25
 31
0.0
  0
LINE
  5
20F
330
74
100
AcDbEntity
  8
0
 62
     0
100
AcDbLine
 10
-1300.0
 20
-1247.5
 30
0.0
 11
-1300.0
 21
-1247.5
 31
0.0
  0
LINE
  5
210
330
74
100
AcDbEntity
  8
0
 62
     0
100
AcDbLine
 10
-1298.75
 20
-1247.5
 30
0.0
 11
-1298.75
 21
-1247.5
 31
0.0
  0
LINE
  5
211
330
74
100
AcDbEntity
  8
0
 62
     0
100
AcDbLine
 10
-1298.125
 20
-1256.25
 30
0.0
 11
-1298.125
 21
-1256.25
 31
0.0
  0
LINE
  5
212
330
74
100
AcDbEntity
  8
0
 62
     0
100
AcDbLine
 10
-1298.75
 20
-1257.5
 30
0.0
 11
-1298.75
 21
-1257.5
 31
0.0
  0
LINE
  5
213
330
74
100
AcDbEntity
  8
0
 62
     0
100
AcDbLine
 10
-1297.5
 20
-1257.5
 30
0.0
 11
-1297.5
 21
-1257.5
 31
0.0
  0
LINE
  5
214
330
74
100
AcDbEntity
  8
0
 62
     0
100
AcDbLine
 10
-1299.375
 20
-1258.75
 30
0.0
 11
-1299.375
 21
-1258.75
 31
0.0
  0
LINE
  5
215
330
74
100
AcDbEntity
  8
0
 62
     0
100
AcDbLine
 10
-1298.125
 20
-1258.75
 30
0.0
 11
-1298.125
 21
-1258.75
 31
0.0
  0
LINE
  5
216
330
74
100
AcDbEntity
  8
0
 62
     0
100
AcDbLine
 10
-1298.75
 20
-1260.0
 30
0.0
 11
-1298.75
 21
-1260.0
 31
0.0
  0
LINE
  5
217
330
74
100
AcDbEntity
  8
0
 62
     0
100
AcDbLine
 10
-1400.625
 20
-1261.25
 30
0.0
 11
-1400.625
 21
-1261.25
 31
0.0
  0
LINE
  5
218
330
74
100
AcDbEntity
  8
0
 62
     0
100
AcDbLine
 10
-1399.375
 20
-1261.25
 30
0.0
 11
-1399.375
 21
-1261.25
 31
0.0
  0
LINE
  5
219
330
74
100
AcDbEntity
  8
0
 62
     0
100
AcDbLine
 10
-1402.5
 20
-1262.5
 30
0.0
 11
-1402.5
 21
-1262.5
 31
0.0
  0
LINE
  5
21A
330
74
100
AcDbEntity
  8
0
 62
     0
100
AcDbLine
 10
-1401.25
 20
-1262.5
 30
0.0
 11
-1401.25
 21
-1262.5
 31
0.0
  0
LINE
  5
21B
330
74
100
AcDbEntity
  8
0
 62
     0
100
AcDbLine
 10
-1400.0
 20
-1262.5
 30
0.0
 11
-1400.0
 21
-1262.5
 31
0.0
  0
LINE
  5
21C
330
74
100
AcDbEntity
  8
0
 62
     0
100
AcDbLine
 10
-1398.75
 20
-1262.5
 30
0.0
 11
-1398.75
 21
-1262.5
 31
0.0
  0
LINE
  5
21D
330
74
100
AcDbEntity
  8
0
 62
     0
100
AcDbLine
 10
-1397.5
 20
-1262.5
 30
0.0
 11
-1397.5
 21
-1262.5
 31
0.0
  0
LINE
  5
21E
330
74
100
AcDbEntity
  8
0
 62
     0
100
AcDbLine
 10
-1401.875
 20
-1263.75
 30
0.0
 11
-1401.875
 21
-1263.75
 31
0.0
  0
LINE
  5
21F
330
74
100
AcDbEntity
  8
0
 62
     0
100
AcDbLine
 10
-1400.625
 20
-1263.75
 30
0.0
 11
-1400.625
 21
-1263.75
 31
0.0
  0
LINE
  5
220
330
74
100
AcDbEntity
  8
0
 62
     0
100
AcDbLine
 10
-1399.375
 20
-1263.75
 30
0.0
 11
-1399.375
 21
-1263.75
 31
0.0
  0
LINE
  5
221
330
74
100
AcDbEntity
  8
0
 62
     0
100
AcDbLine
 10
-1398.125
 20
-1263.75
 30
0.0
 11
-1398.125
 21
-1263.75
 31
0.0
  0
LINE
  5
222
330
74
100
AcDbEntity
  8
0
 62
     0
100
AcDbLine
 10
-1396.875
 20
-1263.75
 30
0.0
 11
-1396.875
 21
-1263.75
 31
0.0
  0
LINE
  5
223
330
74
100
AcDbEntity
  8
0
 62
     0
100
AcDbLine
 10
-1401.25
 20
-1265.0
 30
0.0
 11
-1401.25
 21
-1265.0
 31
0.0
  0
LINE
  5
224
330
74
100
AcDbEntity
  8
0
 62
     0
100
AcDbLine
 10
-1400.0
 20
-1265.0
 30
0.0
 11
-1400.0
 21
-1265.0
 31
0.0
  0
LINE
  5
225
330
74
100
AcDbEntity
  8
0
 62
     0
100
AcDbLine
 10
-1398.75
 20
-1265.0
 30
0.0
 11
-1398.75
 21
-1265.0
 31
0.0
  0
LINE
  5
226
330
74
100
AcDbEntity
  8
0
 62
     0
100
AcDbLine
 10
-1397.5
 20
-1265.0
 30
0.0
 11
-1397.5
 21
-1265.0
 31
0.0
  0
LINE
  5
227
330
74
100
AcDbEntity
  8
0
 62
     0
100
AcDbLine
 10
-1396.25
 20
-1265.0
 30
0.0
 11
-1396.25
 21
-1265.0
 31
0.0
  0
LINE
  5
228
330
74
100
AcDbEntity
  8
0
 62
     0
100
AcDbLine
 10
-1403.125
 20
-1266.25
 30
0.0
 11
-1403.125
 21
-1266.25
 31
0.0
  0
LINE
  5
229
330
74
100
AcDbEntity
  8
0
 62
     0
100
AcDbLine
 10
-1400.625
 20
-1266.25
 30
0.0
 11
-1400.625
 21
-1266.25
 31
0.0
  0
LINE
  5
22A
330
74
100
AcDbEntity
  8
0
 62
     0
100
AcDbLine
 10
-1399.375
 20
-1266.25
 30
0.0
 11
-1399.375
 21
-1266.25
 31
0.0
  0
LINE
  5
22B
330
74
100
AcDbEntity
  8
0
 62
     0
100
AcDbLine
 10
-1398.125
 20
-1266.25
 30
0.0
 11
-1398.125
 21
-1266.25
 31
0.0
  0
LINE
  5
22C
330
74
100
AcDbEntity
  8
0
 62
     0
100
AcDbLine
 10
-1396.875
 20
-1266.25
 30
0.0
 11
-1396.875
 21
-1266.25
 31
0.0
  0
LINE
  5
22D
330
74
100
AcDbEntity
  8
0
 62
     0
100
AcDbLine
 10
-1395.625
 20
-1266.25
 30
0.0
 11
-1395.625
 21
-1266.25
 31
0.0
  0
LINE
  5
22E
330
74
100
AcDbEntity
  8
0
 62
     0
100
AcDbLine
 10
-1394.375
 20
-1266.25
 30
0.0
 11
-1394.375
 21
-1266.25
 31
0.0
  0
LINE
  5
22F
330
74
100
AcDbEntity
  8
0
 62
     0
100
AcDbLine
 10
-1402.5
 20
-1267.5
 30
0.0
 11
-1402.5
 21
-1267.5
 31
0.0
  0
LINE
  5
230
330
74
100
AcDbEntity
  8
0
 62
     0
100
AcDbLine
 10
-1400.0
 20
-1267.5
 30
0.0
 11
-1400.0
 21
-1267.5
 31
0.0
  0
LINE
  5
231
330
74
100
AcDbEntity
  8
0
 62
     0
100
AcDbLine
 10
-1398.75
 20
-1267.5
 30
0.0
 11
-1398.75
 21
-1267.5
 31
0.0
  0
LINE
  5
232
330
74
100
AcDbEntity
  8
0
 62
     0
100
AcDbLine
 10
-1397.5
 20
-1267.5
 30
0.0
 11
-1397.5
 21
-1267.5
 31
0.0
  0
LINE
  5
233
330
74
100
AcDbEntity
  8
0
 62
     0
100
AcDbLine
 10
-1396.25
 20
-1267.5
 30
0.0
 11
-1396.25
 21
-1267.5
 31
0.0
  0
LINE
  5
234
330
74
100
AcDbEntity
  8
0
 62
     0
100
AcDbLine
 10
-1395.0
 20
-1267.5
 30
0.0
 11
-1395.0
 21
-1267.5
 31
0.0
  0
LINE
  5
235
330
74
100
AcDbEntity
  8
0
 62
     0
100
AcDbLine
 10
-1393.75
 20
-1267.5
 30
0.0
 11
-1393.75
 21
-1267.5
 31
0.0
  0
LINE
  5
236
330
74
100
AcDbEntity
  8
0
 62
     0
100
AcDbLine
 10
-1403.125
 20
-1268.75
 30
0.0
 11
-1403.125
 21
-1268.75
 31
0.0
  0
LINE
  5
237
330
74
100
AcDbEntity
  8
0
 62
     0
100
AcDbLine
 10
-1401.875
 20
-1268.75
 30
0.0
 11
-1401.875
 21
-1268.75
 31
0.0
  0
LINE
  5
238
330
74
100
AcDbEntity
  8
0
 62
     0
100
AcDbLine
 10
-1399.375
 20
-1268.75
 30
0.0
 11
-1399.375
 21
-1268.75
 31
0.0
  0
LINE
  5
239
330
74
100
AcDbEntity
  8
0
 62
     0
100
AcDbLine
 10
-1398.125
 20
-1268.75
 30
0.0
 11
-1398.125
 21
-1268.75
 31
0.0
  0
LINE
  5
23A
330
74
100
AcDbEntity
  8
0
 62
     0
100
AcDbLine
 10
-1396.875
 20
-1268.75
 30
0.0
 11
-1396.875
 21
-1268.75
 31
0.0
  0
LINE
  5
23B
330
74
100
AcDbEntity
  8
0
 62
     0
100
AcDbLine
 10
-1395.625
 20
-1268.75
 30
0.0
 11
-1395.625
 21
-1268.75
 31
0.0
  0
LINE
  5
23C
330
74
100
AcDbEntity
  8
0
 62
     0
100
AcDbLine
 10
-1394.375
 20
-1268.75
 30
0.0
 11
-1394.375
 21
-1268.75
 31
0.0
  0
LINE
  5
23D
330
74
100
AcDbEntity
  8
0
 62
     0
100
AcDbLine
 10
-1405.0
 20
-1270.0
 30
0.0
 11
-1405.0
 21
-1270.0
 31
0.0
  0
LINE
  5
23E
330
74
100
AcDbEntity
  8
0
 62
     0
100
AcDbLine
 10
-1403.75
 20
-1270.0
 30
0.0
 11
-1403.75
 21
-1270.0
 31
0.0
  0
LINE
  5
23F
330
74
100
AcDbEntity
  8
0
 62
     0
100
AcDbLine
 10
-1402.5
 20
-1270.0
 30
0.0
 11
-1402.5
 21
-1270.0
 31
0.0
  0
LINE
  5
240
330
74
100
AcDbEntity
  8
0
 62
     0
100
AcDbLine
 10
-1401.25
 20
-1270.0
 30
0.0
 11
-1401.25
 21
-1270.0
 31
0.0
  0
LINE
  5
241
330
74
100
AcDbEntity
  8
0
 62
     0
100
AcDbLine
 10
-1398.75
 20
-1270.0
 30
0.0
 11
-1398.75
 21
-1270.0
 31
0.0
  0
LINE
  5
242
330
74
100
AcDbEntity
  8
0
 62
     0
100
AcDbLine
 10
-1397.5
 20
-1270.0
 30
0.0
 11
-1397.5
 21
-1270.0
 31
0.0
  0
LINE
  5
243
330
74
100
AcDbEntity
  8
0
 62
     0
100
AcDbLine
 10
-1396.25
 20
-1270.0
 30
0.0
 11
-1396.25
 21
-1270.0
 31
0.0
  0
LINE
  5
244
330
74
100
AcDbEntity
  8
0
 62
     0
100
AcDbLine
 10
-1395.0
 20
-1270.0
 30
0.0
 11
-1395.0
 21
-1270.0
 31
0.0
  0
LINE
  5
245
330
74
100
AcDbEntity
  8
0
 62
     0
100
AcDbLine
 10
-1393.75
 20
-1270.0
 30
0.0
 11
-1393.75
 21
-1270.0
 31
0.0
  0
LINE
  5
246
330
74
100
AcDbEntity
  8
0
 62
     0
100
AcDbLine
 10
-1406.875
 20
-1271.25
 30
0.0
 11
-1406.875
 21
-1271.25
 31
0.0
  0
LINE
  5
247
330
74
100
AcDbEntity
  8
0
 62
     0
100
AcDbLine
 10
-1405.625
 20
-1271.25
 30
0.0
 11
-1405.625
 21
-1271.25
 31
0.0
  0
LINE
  5
248
330
74
100
AcDbEntity
  8
0
 62
     0
100
AcDbLine
 10
-1404.375
 20
-1271.25
 30
0.0
 11
-1404.375
 21
-1271.25
 31
0.0
  0
LINE
  5
249
330
74
100
AcDbEntity
  8
0
 62
     0
100
AcDbLine
 10
-1403.125
 20
-1271.25
 30
0.0
 11
-1403.125
 21
-1271.25
 31
0.0
  0
LINE
  5
24A
330
74
100
AcDbEntity
  8
0
 62
     0
100
AcDbLine
 10
-1401.875
 20
-1271.25
 30
0.0
 11
-1401.875
 21
-1271.25
 31
0.0
  0
LINE
  5
24B
330
74
100
AcDbEntity
  8
0
 62
     0
100
AcDbLine
 10
-1400.625
 20
-1271.25
 30
0.0
 11
-1400.625
 21
-1271.25
 31
0.0
  0
LINE
  5
24C
330
74
100
AcDbEntity
  8
0
 62
     0
100
AcDbLine
 10
-1398.125
 20
-1271.25
 30
0.0
 11
-1398.125
 21
-1271.25
 31
0.0
  0
LINE
  5
24D
330
74
100
AcDbEntity
  8
0
 62
     0
100
AcDbLine
 10
-1396.875
 20
-1271.25
 30
0.0
 11
-1396.875
 21
-1271.25
 31
0.0
  0
LINE
  5
24E
330
74
100
AcDbEntity
  8
0
 62
     0
100
AcDbLine
 10
-1395.625
 20
-1271.25
 30
0.0
 11
-1395.625
 21
-1271.25
 31
0.0
  0
LINE
  5
24F
330
74
100
AcDbEntity
  8
0
 62
     0
100
AcDbLine
 10
-1394.375
 20
-1271.25
 30
0.0
 11
-1394.375
 21
-1271.25
 31
0.0
  0
LINE
  5
250
330
74
100
AcDbEntity
  8
0
 62
     0
100
AcDbLine
 10
-1393.125
 20
-1271.25
 30
0.0
 11
-1393.125
 21
-1271.25
 31
0.0
  0
LINE
  5
251
330
74
100
AcDbEntity
  8
0
 62
     0
100
AcDbLine
 10
-1391.875
 20
-1271.25
 30
0.0
 11
-1391.875
 21
-1271.25
 31
0.0
  0
LINE
  5
252
330
74
100
AcDbEntity
  8
0
 62
     0
100
AcDbLine
 10
-1406.25
 20
-1272.5
 30
0.0
 11
-1406.25
 21
-1272.5
 31
0.0
  0
LINE
  5
253
330
74
100
AcDbEntity
  8
0
 62
     0
100
AcDbLine
 10
-1405.0
 20
-1272.5
 30
0.0
 11
-1405.0
 21
-1272.5
 31
0.0
  0
LINE
  5
254
330
74
100
AcDbEntity
  8
0
 62
     0
100
AcDbLine
 10
-1403.75
 20
-1272.5
 30
0.0
 11
-1403.75
 21
-1272.5
 31
0.0
  0
LINE
  5
255
330
74
100
AcDbEntity
  8
0
 62
     0
100
AcDbLine
 10
-1402.5
 20
-1272.5
 30
0.0
 11
-1402.5
 21
-1272.5
 31
0.0
  0
LINE
  5
256
330
74
100
AcDbEntity
  8
0
 62
     0
100
AcDbLine
 10
-1401.25
 20
-1272.5
 30
0.0
 11
-1401.25
 21
-1272.5
 31
0.0
  0
LINE
  5
257
330
74
100
AcDbEntity
  8
0
 62
     0
100
AcDbLine
 10
-1400.0
 20
-1272.5
 30
0.0
 11
-1400.0
 21
-1272.5
 31
0.0
  0
LINE
  5
258
330
74
100
AcDbEntity
  8
0
 62
     0
100
AcDbLine
 10
-1397.5
 20
-1272.5
 30
0.0
 11
-1397.5
 21
-1272.5
 31
0.0
  0
LINE
  5
259
330
74
100
AcDbEntity
  8
0
 62
     0
100
AcDbLine
 10
-1396.25
 20
-1272.5
 30
0.0
 11
-1396.25
 21
-1272.5
 31
0.0
  0
LINE
  5
25A
330
74
100
AcDbEntity
  8
0
 62
     0
100
AcDbLine
 10
-1395.0
 20
-1272.5
 30
0.0
 11
-1395.0
 21
-1272.5
 31
0.0
  0
LINE
  5
25B
330
74
100
AcDbEntity
  8
0
 62
     0
100
AcDbLine
 10
-1393.75
 20
-1272.5
 30
0.0
 11
-1393.75
 21
-1272.5
 31
0.0
  0
LINE
  5
25C
330
74
100
AcDbEntity
  8
0
 62
     0
100
AcDbLine
 10
-1392.5
 20
-1272.5
 30
0.0
 11
-1392.5
 21
-1272.5
 31
0.0
  0
LINE
  5
25D
330
74
100
AcDbEntity
  8
0
 62
     0
100
AcDbLine
 10
-1391.25
 20
-1272.5
 30
0.0
 11
-1391.25
 21
-1272.5
 31
0.0
  0
LINE
  5
25E
330
74
100
AcDbEntity
  8
0
 62
     0
100
AcDbLine
 10
-1405.625
 20
-1273.75
 30
0.0
 11
-1405.625
 21
-1273.75
 31
0.0
  0
LINE
  5
25F
330
74
100
AcDbEntity
  8
0
 62
     0
100
AcDbLine
 10
-1404.375
 20
-1273.75
 30
0.0
 11
-1404.375
 21
-1273.75
 31
0.0
  0
LINE
  5
260
330
74
100
AcDbEntity
  8
0
 62
     0
100
AcDbLine
 10
-1403.125
 20
-1273.75
 30
0.0
 11
-1403.125
 21
-1273.75
 31
0.0
  0
LINE
  5
261
330
74
100
AcDbEntity
  8
0
 62
     0
100
AcDbLine
 10
-1401.875
 20
-1273.75
 30
0.0
 11
-1401.875
 21
-1273.75
 31
0.0
  0
LINE
  5
262
330
74
100
AcDbEntity
  8
0
 62
     0
100
AcDbLine
 10
-1400.625
 20
-1273.75
 30
0.0
 11
-1400.625
 21
-1273.75
 31
0.0
  0
LINE
  5
263
330
74
100
AcDbEntity
  8
0
 62
     0
100
AcDbLine
 10
-1399.375
 20
-1273.75
 30
0.0
 11
-1399.375
 21
-1273.75
 31
0.0
  0
LINE
  5
264
330
74
100
AcDbEntity
  8
0
 62
     0
100
AcDbLine
 10
-1398.125
 20
-1273.75
 30
0.0
 11
-1398.125
 21
-1273.75
 31
0.0
  0
LINE
  5
265
330
74
100
AcDbEntity
  8
0
 62
     0
100
AcDbLine
 10
-1396.875
 20
-1273.75
 30
0.0
 11
-1396.875
 21
-1273.75
 31
0.0
  0
LINE
  5
266
330
74
100
AcDbEntity
  8
0
 62
     0
100
AcDbLine
 10
-1395.625
 20
-1273.75
 30
0.0
 11
-1395.625
 21
-1273.75
 31
0.0
  0
LINE
  5
267
330
74
100
AcDbEntity
  8
0
 62
     0
100
AcDbLine
 10
-1394.375
 20
-1273.75
 30
0.0
 11
-1394.375
 21
-1273.75
 31
0.0
  0
LINE
  5
268
330
74
100
AcDbEntity
  8
0
 62
     0
100
AcDbLine
 10
-1393.125
 20
-1273.75
 30
0.0
 11
-1393.125
 21
-1273.75
 31
0.0
  0
LINE
  5
269
330
74
100
AcDbEntity
  8
0
 62
     0
100
AcDbLine
 10
-1391.875
 20
-1273.75
 30
0.0
 11
-1391.875
 21
-1273.75
 31
0.0
  0
LINE
  5
26A
330
74
100
AcDbEntity
  8
0
 62
     0
100
AcDbLine
 10
-1390.625
 20
-1273.75
 30
0.0
 11
-1390.625
 21
-1273.75
 31
0.0
  0
LINE
  5
26B
330
74
100
AcDbEntity
  8
0
 62
     0
100
AcDbLine
 10
-1405.0
 20
-1275.0
 30
0.0
 11
-1405.0
 21
-1275.0
 31
0.0
  0
LINE
  5
26C
330
74
100
AcDbEntity
  8
0
 62
     0
100
AcDbLine
 10
-1403.75
 20
-1275.0
 30
0.0
 11
-1403.75
 21
-1275.0
 31
0.0
  0
LINE
  5
26D
330
74
100
AcDbEntity
  8
0
 62
     0
100
AcDbLine
 10
-1402.5
 20
-1275.0
 30
0.0
 11
-1402.5
 21
-1275.0
 31
0.0
  0
LINE
  5
26E
330
74
100
AcDbEntity
  8
0
 62
     0
100
AcDbLine
 10
-1401.25
 20
-1275.0
 30
0.0
 11
-1401.25
 21
-1275.0
 31
0.0
  0
LINE
  5
26F
330
74
100
AcDbEntity
  8
0
 62
     0
100
AcDbLine
 10
-1400.0
 20
-1275.0
 30
0.0
 11
-1400.0
 21
-1275.0
 31
0.0
  0
LINE
  5
270
330
74
100
AcDbEntity
  8
0
 62
     0
100
AcDbLine
 10
-1398.75
 20
-1275.0
 30
0.0
 11
-1398.75
 21
-1275.0
 31
0.0
  0
LINE
  5
271
330
74
100
AcDbEntity
  8
0
 62
     0
100
AcDbLine
 10
-1397.5
 20
-1275.0
 30
0.0
 11
-1397.5
 21
-1275.0
 31
0.0
  0
LINE
  5
272
330
74
100
AcDbEntity
  8
0
 62
     0
100
AcDbLine
 10
-1395.0
 20
-1275.0
 30
0.0
 11
-1395.0
 21
-1275.0
 31
0.0
  0
LINE
  5
273
330
74
100
AcDbEntity
  8
0
 62
     0
100
AcDbLine
 10
-1393.75
 20
-1275.0
 30
0.0
 11
-1393.75
 21
-1275.0
 31
0.0
  0
LINE
  5
274
330
74
100
AcDbEntity
  8
0
 62
     0
100
AcDbLine
 10
-1392.5
 20
-1275.0
 30
0.0
 11
-1392.5
 21
-1275.0
 31
0.0
  0
LINE
  5
275
330
74
100
AcDbEntity
  8
0
 62
     0
100
AcDbLine
 10
-1391.25
 20
-1275.0
 30
0.0
 11
-1391.25
 21
-1275.0
 31
0.0
  0
LINE
  5
276
330
74
100
AcDbEntity
  8
0
 62
     0
100
AcDbLine
 10
-1390.0
 20
-1275.0
 30
0.0
 11
-1390.0
 21
-1275.0
 31
0.0
  0
LINE
  5
277
330
74
100
AcDbEntity
  8
0
 62
     0
100
AcDbLine
 10
-1404.375
 20
-1276.25
 30
0.0
 11
-1404.375
 21
-1276.25
 31
0.0
  0
LINE
  5
278
330
74
100
AcDbEntity
  8
0
 62
     0
100
AcDbLine
 10
-1403.125
 20
-1276.25
 30
0.0
 11
-1403.125
 21
-1276.25
 31
0.0
  0
LINE
  5
279
330
74
100
AcDbEntity
  8
0
 62
     0
100
AcDbLine
 10
-1401.875
 20
-1276.25
 30
0.0
 11
-1401.875
 21
-1276.25
 31
0.0
  0
LINE
  5
27A
330
74
100
AcDbEntity
  8
0
 62
     0
100
AcDbLine
 10
-1400.625
 20
-1276.25
 30
0.0
 11
-1400.625
 21
-1276.25
 31
0.0
  0
LINE
  5
27B
330
74
100
AcDbEntity
  8
0
 62
     0
100
AcDbLine
 10
-1399.375
 20
-1276.25
 30
0.0
 11
-1399.375
 21
-1276.25
 31
0.0
  0
LINE
  5
27C
330
74
100
AcDbEntity
  8
0
 62
     0
100
AcDbLine
 10
-1398.125
 20
-1276.25
 30
0.0
 11
-1398.125
 21
-1276.25
 31
0.0
  0
LINE
  5
27D
330
74
100
AcDbEntity
  8
0
 62
     0
100
AcDbLine
 10
-1396.875
 20
-1276.25
 30
0.0
 11
-1396.875
 21
-1276.25
 31
0.0
  0
LINE
  5
27E
330
74
100
AcDbEntity
  8
0
 62
     0
100
AcDbLine
 10
-1394.375
 20
-1276.25
 30
0.0
 11
-1394.375
 21
-1276.25
 31
0.0
  0
LINE
  5
27F
330
74
100
AcDbEntity
  8
0
 62
     0
100
AcDbLine
 10
-1393.125
 20
-1276.25
 30
0.0
 11
-1393.125
 21
-1276.25
 31
0.0
  0
LINE
  5
280
330
74
100
AcDbEntity
  8
0
 62
     0
100
AcDbLine
 10
-1391.875
 20
-1276.25
 30
0.0
 11
-1391.875
 21
-1276.25
 31
0.0
  0
LINE
  5
281
330
74
100
AcDbEntity
  8
0
 62
     0
100
AcDbLine
 10
-1390.625
 20
-1276.25
 30
0.0
 11
-1390.625
 21
-1276.25
 31
0.0
  0
LINE
  5
282
330
74
100
AcDbEntity
  8
0
 62
     0
100
AcDbLine
 10
-1389.375
 20
-1276.25
 30
0.0
 11
-1389.375
 21
-1276.25
 31
0.0
  0
LINE
  5
283
330
74
100
AcDbEntity
  8
0
 62
     0
100
AcDbLine
 10
-1403.75
 20
-1277.5
 30
0.0
 11
-1403.75
 21
-1277.5
 31
0.0
  0
LINE
  5
284
330
74
100
AcDbEntity
  8
0
 62
     0
100
AcDbLine
 10
-1402.5
 20
-1277.5
 30
0.0
 11
-1402.5
 21
-1277.5
 31
0.0
  0
LINE
  5
285
330
74
100
AcDbEntity
  8
0
 62
     0
100
AcDbLine
 10
-1401.25
 20
-1277.5
 30
0.0
 11
-1401.25
 21
-1277.5
 31
0.0
  0
LINE
  5
286
330
74
100
AcDbEntity
  8
0
 62
     0
100
AcDbLine
 10
-1400.0
 20
-1277.5
 30
0.0
 11
-1400.0
 21
-1277.5
 31
0.0
  0
LINE
  5
287
330
74
100
AcDbEntity
  8
0
 62
     0
100
AcDbLine
 10
-1398.75
 20
-1277.5
 30
0.0
 11
-1398.75
 21
-1277.5
 31
0.0
  0
LINE
  5
288
330
74
100
AcDbEntity
  8
0
 62
     0
100
AcDbLine
 10
-1397.5
 20
-1277.5
 30
0.0
 11
-1397.5
 21
-1277.5
 31
0.0
  0
LINE
  5
289
330
74
100
AcDbEntity
  8
0
 62
     0
100
AcDbLine
 10
-1396.25
 20
-1277.5
 30
0.0
 11
-1396.25
 21
-1277.5
 31
0.0
  0
LINE
  5
28A
330
74
100
AcDbEntity
  8
0
 62
     0
100
AcDbLine
 10
-1393.75
 20
-1277.5
 30
0.0
 11
-1393.75
 21
-1277.5
 31
0.0
  0
LINE
  5
28B
330
74
100
AcDbEntity
  8
0
 62
     0
100
AcDbLine
 10
-1392.5
 20
-1277.5
 30
0.0
 11
-1392.5
 21
-1277.5
 31
0.0
  0
LINE
  5
28C
330
74
100
AcDbEntity
  8
0
 62
     0
100
AcDbLine
 10
-1391.25
 20
-1277.5
 30
0.0
 11
-1391.25
 21
-1277.5
 31
0.0
  0
LINE
  5
28D
330
74
100
AcDbEntity
  8
0
 62
     0
100
AcDbLine
 10
-1390.0
 20
-1277.5
 30
0.0
 11
-1390.0
 21
-1277.5
 31
0.0
  0
LINE
  5
28E
330
74
100
AcDbEntity
  8
0
 62
     0
100
AcDbLine
 10
-1388.75
 20
-1277.5
 30
0.0
 11
-1388.75
 21
-1277.5
 31
0.0
  0
LINE
  5
28F
330
74
100
AcDbEntity
  8
0
 62
     0
100
AcDbLine
 10
-1401.875
 20
-1278.75
 30
0.0
 11
-1401.875
 21
-1278.75
 31
0.0
  0
LINE
  5
290
330
74
100
AcDbEntity
  8
0
 62
     0
100
AcDbLine
 10
-1400.625
 20
-1278.75
 30
0.0
 11
-1400.625
 21
-1278.75
 31
0.0
  0
LINE
  5
291
330
74
100
AcDbEntity
  8
0
 62
     0
100
AcDbLine
 10
-1399.375
 20
-1278.75
 30
0.0
 11
-1399.375
 21
-1278.75
 31
0.0
  0
LINE
  5
292
330
74
100
AcDbEntity
  8
0
 62
     0
100
AcDbLine
 10
-1398.125
 20
-1278.75
 30
0.0
 11
-1398.125
 21
-1278.75
 31
0.0
  0
LINE
  5
293
330
74
100
AcDbEntity
  8
0
 62
     0
100
AcDbLine
 10
-1396.875
 20
-1278.75
 30
0.0
 11
-1396.875
 21
-1278.75
 31
0.0
  0
LINE
  5
294
330
74
100
AcDbEntity
  8
0
 62
     0
100
AcDbLine
 10
-1395.625
 20
-1278.75
 30
0.0
 11
-1395.625
 21
-1278.75
 31
0.0
  0
LINE
  5
295
330
74
100
AcDbEntity
  8
0
 62
     0
100
AcDbLine
 10
-1393.125
 20
-1278.75
 30
0.0
 11
-1393.125
 21
-1278.75
 31
0.0
  0
LINE
  5
296
330
74
100
AcDbEntity
  8
0
 62
     0
100
AcDbLine
 10
-1391.875
 20
-1278.75
 30
0.0
 11
-1391.875
 21
-1278.75
 31
0.0
  0
LINE
  5
297
330
74
100
AcDbEntity
  8
0
 62
     0
100
AcDbLine
 10
-1390.625
 20
-1278.75
 30
0.0
 11
-1390.625
 21
-1278.75
 31
0.0
  0
LINE
  5
298
330
74
100
AcDbEntity
  8
0
 62
     0
100
AcDbLine
 10
-1389.375
 20
-1278.75
 30
0.0
 11
-1389.375
 21
-1278.75
 31
0.0
  0
LINE
  5
299
330
74
100
AcDbEntity
  8
0
 62
     0
100
AcDbLine
 10
-1388.125
 20
-1278.75
 30
0.0
 11
-1388.125
 21
-1278.75
 31
0.0
  0
LINE
  5
29A
330
74
100
AcDbEntity
  8
0
 62
     0
100
AcDbLine
 10
-1401.25
 20
-1280.0
 30
0.0
 11
-1401.25
 21
-1280.0
 31
0.0
  0
LINE
  5
29B
330
74
100
AcDbEntity
  8
0
 62
     0
100
AcDbLine
 10
-1400.0
 20
-1280.0
 30
0.0
 11
-1400.0
 21
-1280.0
 31
0.0
  0
LINE
  5
29C
330
74
100
AcDbEntity
  8
0
 62
     0
100
AcDbLine
 10
-1398.75
 20
-1280.0
 30
0.0
 11
-1398.75
 21
-1280.0
 31
0.0
  0
LINE
  5
29D
330
74
100
AcDbEntity
  8
0
 62
     0
100
AcDbLine
 10
-1397.5
 20
-1280.0
 30
0.0
 11
-1397.5
 21
-1280.0
 31
0.0
  0
LINE
  5
29E
330
74
100
AcDbEntity
  8
0
 62
     0
100
AcDbLine
 10
-1396.25
 20
-1280.0
 30
0.0
 11
-1396.25
 21
-1280.0
 31
0.0
  0
LINE
  5
29F
330
74
100
AcDbEntity
  8
0
 62
     0
100
AcDbLine
 10
-1395.0
 20
-1280.0
 30
0.0
 11
-1395.0
 21
-1280.0
 31
0.0
  0
LINE
  5
2A0
330
74
100
AcDbEntity
  8
0
 62
     0
100
AcDbLine
 10
-1392.5
 20
-1280.0
 30
0.0
 11
-1392.5
 21
-1280.0
 31
0.0
  0
LINE
  5
2A1
330
74
100
AcDbEntity
  8
0
 62
     0
100
AcDbLine
 10
-1391.25
 20
-1280.0
 30
0.0
 11
-1391.25
 21
-1280.0
 31
0.0
  0
LINE
  5
2A2
330
74
100
AcDbEntity
  8
0
 62
     0
100
AcDbLine
 10
-1390.0
 20
-1280.0
 30
0.0
 11
-1390.0
 21
-1280.0
 31
0.0
  0
LINE
  5
2A3
330
74
100
AcDbEntity
  8
0
 62
     0
100
AcDbLine
 10
-1388.75
 20
-1280.0
 30
0.0
 11
-1388.75
 21
-1280.0
 31
0.0
  0
LINE
  5
2A4
330
74
100
AcDbEntity
  8
0
 62
     0
100
AcDbLine
 10
-1387.5
 20
-1280.0
 30
0.0
 11
-1387.5
 21
-1280.0
 31
0.0
  0
LINE
  5
2A5
330
74
100
AcDbEntity
  8
0
 62
     0
100
AcDbLine
 10
-1400.625
 20
-1281.25
 30
0.0
 11
-1400.625
 21
-1281.25
 31
0.0
  0
LINE
  5
2A6
330
74
100
AcDbEntity
  8
0
 62
     0
100
AcDbLine
 10
-1399.375
 20
-1281.25
 30
0.0
 11
-1399.375
 21
-1281.25
 31
0.0
  0
LINE
  5
2A7
330
74
100
AcDbEntity
  8
0
 62
     0
100
AcDbLine
 10
-1398.125
 20
-1281.25
 30
0.0
 11
-1398.125
 21
-1281.25
 31
0.0
  0
LINE
  5
2A8
330
74
100
AcDbEntity
  8
0
 62
     0
100
AcDbLine
 10
-1396.875
 20
-1281.25
 30
0.0
 11
-1396.875
 21
-1281.25
 31
0.0
  0
LINE
  5
2A9
330
74
100
AcDbEntity
  8
0
 62
     0
100
AcDbLine
 10
-1395.625
 20
-1281.25
 30
0.0
 11
-1395.625
 21
-1281.25
 31
0.0
  0
LINE
  5
2AA
330
74
100
AcDbEntity
  8
0
 62
     0
100
AcDbLine
 10
-1390.625
 20
-1281.25
 30
0.0
 11
-1390.625
 21
-1281.25
 31
0.0
  0
LINE
  5
2AB
330
74
100
AcDbEntity
  8
0
 62
     0
100
AcDbLine
 10
-1389.375
 20
-1281.25
 30
0.0
 11
-1389.375
 21
-1281.25
 31
0.0
  0
LINE
  5
2AC
330
74
100
AcDbEntity
  8
0
 62
     0
100
AcDbLine
 10
-1388.125
 20
-1281.25
 30
0.0
 11
-1388.125
 21
-1281.25
 31
0.0
  0
LINE
  5
2AD
330
74
100
AcDbEntity
  8
0
 62
     0
100
AcDbLine
 10
-1386.875
 20
-1281.25
 30
0.0
 11
-1386.875
 21
-1281.25
 31
0.0
  0
LINE
  5
2AE
330
74
100
AcDbEntity
  8
0
 62
     0
100
AcDbLine
 10
-1400.0
 20
-1282.5
 30
0.0
 11
-1400.0
 21
-1282.5
 31
0.0
  0
LINE
  5
2AF
330
74
100
AcDbEntity
  8
0
 62
     0
100
AcDbLine
 10
-1398.75
 20
-1282.5
 30
0.0
 11
-1398.75
 21
-1282.5
 31
0.0
  0
LINE
  5
2B0
330
74
100
AcDbEntity
  8
0
 62
     0
100
AcDbLine
 10
-1397.5
 20
-1282.5
 30
0.0
 11
-1397.5
 21
-1282.5
 31
0.0
  0
LINE
  5
2B1
330
74
100
AcDbEntity
  8
0
 62
     0
100
AcDbLine
 10
-1396.25
 20
-1282.5
 30
0.0
 11
-1396.25
 21
-1282.5
 31
0.0
  0
LINE
  5
2B2
330
74
100
AcDbEntity
  8
0
 62
     0
100
AcDbLine
 10
-1388.75
 20
-1282.5
 30
0.0
 11
-1388.75
 21
-1282.5
 31
0.0
  0
LINE
  5
2B3
330
74
100
AcDbEntity
  8
0
 62
     0
100
AcDbLine
 10
-1387.5
 20
-1282.5
 30
0.0
 11
-1387.5
 21
-1282.5
 31
0.0
  0
LINE
  5
2B4
330
74
100
AcDbEntity
  8
0
 62
     0
100
AcDbLine
 10
-1386.25
 20
-1282.5
 30
0.0
 11
-1386.25
 21
-1282.5
 31
0.0
  0
LINE
  5
2B5
330
74
100
AcDbEntity
  8
0
 62
     0
100
AcDbLine
 10
-1399.375
 20
-1283.75
 30
0.0
 11
-1399.375
 21
-1283.75
 31
0.0
  0
LINE
  5
2B6
330
74
100
AcDbEntity
  8
0
 62
     0
100
AcDbLine
 10
-1398.125
 20
-1283.75
 30
0.0
 11
-1398.125
 21
-1283.75
 31
0.0
  0
LINE
  5
2B7
330
74
100
AcDbEntity
  8
0
 62
     0
100
AcDbLine
 10
-1388.125
 20
-1283.75
 30
0.0
 11
-1388.125
 21
-1283.75
 31
0.0
  0
LINE
  5
2B8
330
74
100
AcDbEntity
  8
0
 62
     0
100
AcDbLine
 10
-1386.875
 20
-1283.75
 30
0.0
 11
-1386.875
 21
-1283.75
 31
0.0
  0
LINE
  5
2B9
330
74
100
AcDbEntity
  8
0
 62
     0
100
AcDbLine
 10
-1385.625
 20
-1283.75
 30
0.0
 11
-1385.625
 21
-1283.75
 31
0.0
  0
LINE
  5
2BA
330
74
100
AcDbEntity
  8
0
 62
     0
100
AcDbLine
 10
-1387.5
 20
-1285.0
 30
0.0
 11
-1387.5
 21
-1285.0
 31
0.0
  0
LINE
  5
2BB
330
74
100
AcDbEntity
  8
0
 62
     0
100
AcDbLine
 10
-1386.25
 20
-1285.0
 30
0.0
 11
-1386.25
 21
-1285.0
 31
0.0
  0
LINE
  5
2BC
330
74
100
AcDbEntity
  8
0
 62
     0
100
AcDbLine
 10
-1385.0
 20
-1285.0
 30
0.0
 11
-1385.0
 21
-1285.0
 31
0.0
  0
LINE
  5
2BD
330
74
100
AcDbEntity
  8
0
 62
     0
100
AcDbLine
 10
-1386.875
 20
-1286.25
 30
0.0
 11
-1386.875
 21
-1286.25
 31
0.0
  0
LINE
  5
2BE
330
74
100
AcDbEntity
  8
0
 62
     0
100
AcDbLine
 10
-1385.625
 20
-1286.25
 30
0.0
 11
-1385.625
 21
-1286.25
 31
0.0
  0
LINE
  5
2BF
330
74
100
AcDbEntity
  8
0
 62
     0
100
AcDbLine
 10
-1384.375
 20
-1286.25
 30
0.0
 11
-1384.375
 21
-1286.25
 31
0.0
  0
LINE
  5
2C0
330
74
100
AcDbEntity
  8
0
 62
     0
100
AcDbLine
 10
-1386.25
 20
-1287.5
 30
0.0
 11
-1386.25
 21
-1287.5
 31
0.0
  0
LINE
  5
2C1
330
74
100
AcDbEntity
  8
0
 62
     0
100
AcDbLine
 10
-1385.0
 20
-1287.5
 30
0.0
 11
-1385.0
 21
-1287.5
 31
0.0
  0
LINE
  5
2C2
330
74
100
AcDbEntity
  8
0
 62
     0
100
AcDbLine
 10
-1383.75
 20
-1287.5
 30
0.0
 11
-1383.75
 21
-1287.5
 31
0.0
  0
LINE
  5
2C3
330
74
100
AcDbEntity
  8
0
 62
     0
100
AcDbLine
 10
-1400.625
 20
-1288.75
 30
0.0
 11
-1400.625
 21
-1288.75
 31
0.0
  0
LINE
  5
2C4
330
74
100
AcDbEntity
  8
0
 62
     0
100
AcDbLine
 10
-1385.625
 20
-1288.75
 30
0.0
 11
-1385.625
 21
-1288.75
 31
0.0
  0
LINE
  5
2C5
330
74
100
AcDbEntity
  8
0
 62
     0
100
AcDbLine
 10
-1384.375
 20
-1288.75
 30
0.0
 11
-1384.375
 21
-1288.75
 31
0.0
  0
LINE
  5
2C6
330
74
100
AcDbEntity
  8
0
 62
     0
100
AcDbLine
 10
-1401.25
 20
-1290.0
 30
0.0
 11
-1401.25
 21
-1290.0
 31
0.0
  0
LINE
  5
2C7
330
74
100
AcDbEntity
  8
0
 62
     0
100
AcDbLine
 10
-1400.0
 20
-1290.0
 30
0.0
 11
-1400.0
 21
-1290.0
 31
0.0
  0
LINE
  5
2C8
330
74
100
AcDbEntity
  8
0
 62
     0
100
AcDbLine
 10
-1398.75
 20
-1290.0
 30
0.0
 11
-1398.75
 21
-1290.0
 31
0.0
  0
LINE
  5
2C9
330
74
100
AcDbEntity
  8
0
 62
     0
100
AcDbLine
 10
-1401.875
 20
-1291.25
 30
0.0
 11
-1401.875
 21
-1291.25
 31
0.0
  0
LINE
  5
2CA
330
74
100
AcDbEntity
  8
0
 62
     0
100
AcDbLine
 10
-1400.625
 20
-1291.25
 30
0.0
 11
-1400.625
 21
-1291.25
 31
0.0
  0
LINE
  5
2CB
330
74
100
AcDbEntity
  8
0
 62
     0
100
AcDbLine
 10
-1399.375
 20
-1291.25
 30
0.0
 11
-1399.375
 21
-1291.25
 31
0.0
  0
ENDBLK
  5
2CC
330
74
100
AcDbEntity
  8
0
100
AcDbBlockEnd
  0
BLOCK
  5
2CD
330
75
100
AcDbEntity
  8
0
100
AcDbBlockBegin
  2
*X2
 70
     1
 10
0.0
 20
0.0
 30
0.0
  3
*X2
  1

  0
LINE
  5
2CE
330
75
100
AcDbEntity
  8
0
 62
     0
100
AcDbLine
 10
-1275.312155973963
 20
-1188.691575278611
 30
0.0
 11
-1270.176743673756
 21
-1183.556162978404
 31
0.0
  0
LINE
  5
2CF
330
75
100
AcDbEntity
  8
0
 62
     0
100
AcDbLine
 10
-1275.979873719978
 20
-1187.59152607166
 30
0.0
 11
-1271.153100652463
 21
-1182.764753004145
 31
0.0
  0
LINE
  5
2D0
330
75
100
AcDbEntity
  8
0
 62
     0
100
AcDbLine
 10
-1276.258082681907
 20
-1186.101968080622
 30
0.0
 11
-1271.921847486474
 21
-1181.765732885189
 31
0.0
  0
LINE
  5
2D1
330
75
100
AcDbEntity
  8
0
 62
     0
100
AcDbLine
 10
-1274.644438227949
 20
-1189.791624485563
 30
0.0
 11
-1272.132649683705
 21
-1187.279835941319
 31
0.0
  0
LINE
  5
2D2
330
75
100
AcDbEntity
  8
0
 62
     0
100
AcDbLine
 10
-1273.387207443131
 20
-1190.302160653712
 30
0.0
 11
-1271.674440954787
 21
-1188.589394165368
 31
0.0
  0
LINE
  5
2D3
330
75
100
AcDbEntity
  8
0
 62
     0
100
AcDbLine
 10
-1272.049936387635
 20
-1190.732656551182
 30
0.0
 11
-1271.994348569328
 21
-1190.677068732875
 31
0.0
  0
ENDBLK
  5
2D4
330
75
100
AcDbEntity
  8
0
100
AcDbBlockEnd
  0
ENDSEC
  0
SECTION
  2
ENTITIES
  0
LWPOLYLINE
  5
2D5
330
6F
100
AcDbEntity
  8
GRABUNGSGRENZE
100
AcDbPolyline
 90
        2
 70
     0
 43
0.0
 10
-15.00208909908345
 20
-13.88029841850969
 10
-12.49783500463663
 20
-15.11946750626585
  0
LWPOLYLINE
  5
2D9
330
6F
100
AcDbEntity
  8
GRABUNGSGRENZE
100
AcDbPolyline
 90
        2
 70
     0
 43
0.0
 10
-13.52584425818734
 20
-13.74581520654001
 10
-12.50044535689485
 20
-14.3340654615841
  0
LWPOLYLINE
  5
2DD
330
6F
100
AcDbEntity
  8
BEFUND
100
AcDbPolyline
 90
        2
 70
     0
 43
0.0
 10
-12.98744535130844
 20
-14.03543589196199
 10
-12.99760569476578
 20
-13.99765898054841
  0
LWPOLYLINE
  5
2E1
330
6F
100
AcDbEntity
  8
BEFUND
100
AcDbPolyline
 90
        4
 70
     0
 43
0.0
 10
-12.60379229915493
 20
-14.12980662795181
 10
-12.61495080043733
 20
-14.07365659112641
 10
-12.63889942617135
 20
-14.04351775132119
 10
-12.64292706044914
 20
-13.99860372237131
  0
LWPOLYLINE
  5
2E7
330
6F
100
AcDbEntity
  8
BEFUND
100
AcDbPolyline
 90
        2
 70
     0
 43
0.0
 10
-12.6258602440753
 20
-14.23082506484567
 10
-12.60379229915493
 20
-14.12980662795181
  0
LWPOLYLINE
  5
2EB
330
6F
100
AcDbEntity
  8
STEINE
100
AcDbPolyline
 90
       11
 70
     0
 43
0.0
 10
-12.79466379607536
 20
-14.13620714637091
 10
-12.80432256040749
 20
-14.10557547818486
 10
-12.82523358399756
 20
-14.09534325361295
 10
-12.83133316535908
 20
-14.07543288806063
 10
-12.81393257059234
 20
-14.03513808017026
 10
-12.78230711995342
 20
-14.04742475033714
 10
-12.78230711995342
 20
-14.04742475033714
 10
-12.75423835207243
 20
-14.04694879839191
 10
-12.7410097788658
 20
-14.07962616142853
 10
-12.74310797818268
 20
-14.12606367934916
 10
-12.79466379607536
 20
-14.13620714637091
  0
LWPOLYLINE
  5
2F8
330
6F
100
AcDbEntity
  8
STEINE
100
AcDbPolyline
 90
        5
 70
     0
 43
0.0
 10
-12.74351454922602
 20
-14.04134829594292
 10
-12.72056345626391
 20
-14.0526036804667
 10
-12.73129663490786
 20
-14.06585913095965
 10
-12.73996161678712
 20
-14.05717289727261
 10
-12.74351454922602
 20
-14.04134829594292
  0
LWPOLYLINE
  5
2FF
330
6F
100
AcDbEntity
  8
GRABUNGSGRENZE
100
AcDbPolyline
 90
        2
 70
   128
 43
0.0
 10
-13.52584425818734
 20
-13.74581520654001
 10
-12.69629452225804
 20
-11.64660709930751
  0
LWPOLYLINE
  5
303
330
6F
100
AcDbEntity
  8
GRABUNGSGRENZE
100
AcDbPolyline
 90
        4
 70
   128
 43
0.0
 10
-12.91309078326474
 20
-11.50357054378019
 10
-13.46159325088234
 20
-12.83698582778064
 10
-14.2823165468062
 20
-12.50132678582819
 10
-13.78857416693541
 20
-11.01547674720603
  0
LWPOLYLINE
  5
309
330
6F
100
AcDbEntity
  8
GRABUNGSGRENZE
100
AcDbPolyline
 90
        8
 70
   128
 43
0.0
 10
-12.49268211632639
 20
-11.75344645869827
 10
-12.69629452225804
 20
-11.64660709930751
 10
-12.91309078326474
 20
-11.50357054378019
 10
-13.07801708942164
 20
-11.41717841613453
 10
-13.17930093008182
 20
-11.35637195081791
 10
-13.78857416693541
 20
-11.01547674720603
 10
-15.00501078072346
 20
-10.29242081956728
 10
-15.00208909908345
 20
-13.88029841850969
  0
LWPOLYLINE
  5
313
330
6F
100
AcDbEntity
  8
GRABUNGSGRENZE
100
AcDbPolyline
 90
        4
 70
   128
 43
0.0
 10
-13.17930093008182
 20
-11.35637195081791
 10
-13.31007855323092
 20
-11.55535719570141
 10
-13.19608219305999
 20
-11.63045169795081
 10
-13.07801708942164
 20
-11.41717841613453
  0
LWPOLYLINE
  5
319
330
6F
100
AcDbEntity
  8
STEINE
100
AcDbPolyline
 90
        6
 70
     0
 43
0.0
 10
-12.98277839480745
 20
-12.60854650497821
 10
-13.00210280884147
 20
-12.58762350056087
 10
-12.99288575845189
 20
-12.56114575013379
 10
-12.97402558060947
 20
-12.55608363780647
 10
-12.97051236305652
 20
-12.58665953131414
 10
-12.98277839480745
 20
-12.60854650497821
  0
LWPOLYLINE
  5
321
330
6F
100
AcDbEntity
  8
STEINE
100
AcDbPolyline
 90
        7
 70
     0
 43
0.0
 10
-12.99834732519483
 20
-12.47910734298623
 10
-13.01459702264142
 20
-12.44799976924624
 10
-13.00948521470514
 20
-12.43832824430255
 10
-12.98504278078373
 20
-12.44601326092794
 10
-12.97439131300472
 20
-12.4735446101822
 10
-12.98256275136142
 20
-12.48473929467418
 10
-12.99834732519483
 20
-12.47910734298623
  0
LWPOLYLINE
  5
32A
330
6F
100
AcDbEntity
  8
STEINE
100
AcDbPolyline
 90
       13
 70
     0
 43
0.0
 10
-12.96242978155943
 20
-12.33396347510382
 10
-12.99499928275811
 20
-12.31199840833996
 10
-13.02552193097047
 20
-12.28494194433635
 10
-13.03107312729385
 20
-12.25436250114233
 10
-13.01729902216163
 20
-12.24419656767304
 10
-12.97548407308254
 20
-12.22338005384633
 10
-12.95459834037192
 20
-12.22545441690189
 10
-12.94697366841456
 20
-12.23565762207791
 10
-12.94550464158317
 20
-12.26979642874749
 10
-12.93023754923666
 20
-12.28001294524733
 10
-12.94964271863524
 20
-12.30545395785742
 10
-12.95882427216127
 20
-12.31155192058014
 10
-12.96242978155943
 20
-12.33396347510382
  0
LWPOLYLINE
  5
339
330
6F
100
AcDbEntity
  8
STEINE
100
AcDbPolyline
 90
       10
 70
     0
 43
0.0
 10
-12.89986676481671
 20
-12.10174216070784
 10
-12.86730170072598
 20
-12.12625470093476
 10
-12.82907362519169
 20
-12.11715035308694
 10
-12.81226207517877
 20
-12.11819862738458
 10
-12.8051087387857
 20
-12.10649267335681
 10
-12.77399584051617
 20
-12.08718600775457
 10
-12.79329363190253
 20
-12.05097816255895
 10
-12.8416335081892
 20
-12.01522922902539
 10
-12.8502603085216
 20
-11.99534384984662
 10
-12.89986676481671
 20
-12.10174216070784
  0
LWPOLYLINE
  5
345
330
6F
100
AcDbEntity
  8
STEINE
100
AcDbPolyline
 90
        5
 70
     0
 43
0.0
 10
-12.84207733368426
 20
-11.97752573435072
 10
-12.82832541409175
 20
-11.98009716819666
 10
-12.80434721636193
 20
-11.96179706807739
 10
-12.8216105786642
 20
-11.92763075133856
 10
-12.84207733368426
 20
-11.97752573435072
  0
LWPOLYLINE
  5
34C
330
6F
100
AcDbEntity
  8
STEINE
100
AcDbPolyline
 90
        8
 70
     0
 43
0.0
 10
-12.49542038543099
 20
-11.8629833805013
 10
-12.52240053117797
 20
-11.84968948514926
 10
-12.53000834212516
 20
-11.82980588081368
 10
-12.52333432809068
 20
-11.8007762198156
 10
-12.53451658868043
 20
-11.78547185576238
 10
-12.51864504753134
 20
-11.74117332757463
 10
-12.49930465990872
 20
-11.75292542752501
 10
-12.49542038543099
 20
-11.8629833805013
  0
LWPOLYLINE
  5
356
330
6F
100
AcDbEntity
  8
STEINE
100
AcDbPolyline
 90
        4
 70
     0
 43
0.0
 10
-12.49542038543099
 20
-11.8629833805013
 10
-12.50060584935912
 20
-11.91494296493155
 10
-12.54893862627308
 20
-11.87511807385712
 10
-12.52240053117797
 20
-11.84968948514926
  0
LWPOLYLINE
  5
35C
330
6F
100
AcDbEntity
  8
STEINE
100
AcDbPolyline
 90
        8
 70
     0
 43
0.0
 10
-12.536450739125
 20
-11.72585742704075
 10
-12.55283532465305
 20
-11.77219304657735
 10
-12.59054680612202
 20
-11.77722232430589
 10
-12.62524391567158
 20
-11.80671267180919
 10
-12.6400778315821
 20
-11.84031358629533
 10
-12.65841786567285
 20
-11.83926264973292
 10
-12.66347997800016
 20
-11.8204024718905
 10
-12.68894938810109
 20
-11.81730113265541
  0
LWPOLYLINE
  5
366
330
6F
100
AcDbEntity
  8
STEINE
100
AcDbPolyline
 90
       11
 70
     0
 43
0.0
 10
-12.68894938810109
 20
-11.81730113265541
 10
-12.70269953285042
 20
-11.81371070942425
 10
-12.71287256569242
 20
-11.80401256183291
 10
-12.74803036174722
 20
-11.80547981382112
 10
-12.74288128210422
 20
-11.77440951178785
 10
-12.71784061133134
 20
-11.73114594657391
 10
-12.70306349040249
 20
-11.73015269241476
 10
-12.67557118769814
 20
-11.74191899111056
 10
-12.68427253144398
 20
-11.76483116611096
 10
-12.66135769417881
 20
-11.77200402577898
 10
-12.68894938810109
 20
-11.81730113265541
  0
LWPOLYLINE
  5
373
330
6F
100
AcDbEntity
  8
STEINE
100
AcDbPolyline
 90
       11
 70
     0
 43
0.0
 10
-12.71951906965764
 20
-11.81724788736009
 10
-12.74756701297722
 20
-11.83197442525839
 10
-12.76545967188656
 20
-11.86658900460021
 10
-12.74564617385647
 20
-11.89923127436915
 10
-12.72018563797143
 20
-11.90742756053033
 10
-12.71455457370508
 20
-11.89215248138953
 10
-12.72418705209886
 20
-11.86462290697845
 10
-12.70530557613831
 20
-11.84733292202852
 10
-12.69917477881682
 20
-11.83766317192801
 10
-12.7124030049713
 20
-11.82694071042191
 10
-12.71951906965764
 20
-11.81724788736009
  0
LWPOLYLINE
  5
380
330
6F
100
AcDbEntity
  8
STEINE
100
AcDbPolyline
 90
        3
 70
     0
 43
0.0
 10
-12.6400778315821
 20
-11.84031358629533
 10
-12.61716388173852
 20
-11.84799594065595
 10
-12.6038761983376
 20
-11.82458225775724
  0
LWPOLYLINE
  5
385
330
6F
100
AcDbEntity
  8
STEINE
100
AcDbPolyline
 90
        7
 70
     0
 43
0.0
 10
-12.62524391567158
 20
-11.80671267180919
 10
-12.6038761983376
 20
-11.82458225775724
 10
-12.58709215839392
 20
-11.84142486752576
 10
-12.5692207976027
 20
-11.81903816080656
 10
-12.56257695590224
 20
-11.8073313193572
 10
-12.55746514796597
 20
-11.79765979441351
 10
-12.59054680612202
 20
-11.77722232430589
  0
LWPOLYLINE
  5
38E
330
6F
100
AcDbEntity
  8
STEINE
100
AcDbPolyline
 90
        3
 70
     0
 43
0.0
 10
-12.55746514796597
 20
-11.79765979441351
 10
-12.53811411128429
 20
-11.80329795805258
 10
-12.53451658868043
 20
-11.78547185576238
  0
LWPOLYLINE
  5
393
330
6F
100
AcDbEntity
  8
STEINE
100
AcDbPolyline
 90
        2
 70
     0
 43
0.0
 10
-12.536450739125
 20
-11.72585742704075
 10
-12.51864504753134
 20
-11.74117332757463
  0
LWPOLYLINE
  5
397
330
6F
100
AcDbEntity
  8
STEINE
100
AcDbPolyline
 90
        8
 70
     0
 43
0.0
 10
-12.67598661570235
 20
-11.6879116662724
 10
-12.79973436875995
 20
-11.65355987842155
 10
-12.80799987380504
 20
-11.71876100033011
 10
-12.79374910857899
 20
-11.72744725790894
 10
-12.77441049579955
 20
-11.74021834724454
 10
-12.75352032598099
 20
-11.73974523683706
 10
-12.72087539394728
 20
-11.71840325472915
 10
-12.67598661570235
 20
-11.6879116662724
  0
LWPOLYLINE
  5
3A1
330
6F
100
AcDbEntity
  8
STEINE
100
AcDbPolyline
 90
       18
 70
     0
 43
0.0
 10
-12.77416911712745
 20
-11.60163579085485
 10
-12.81590686052833
 20
-11.57812626642455
 10
-12.90040488640165
 20
-11.53314342149124
 10
-12.91985886398761
 20
-11.58660664219484
 10
-12.93571265670493
 20
-11.6207152765304
 10
-12.93934567617234
 20
-11.65892116652497
 10
-12.922071664811
 20
-11.68697354695249
 10
-12.90071548395767
 20
-11.71146656390445
 10
-12.90177263247119
 20
-11.73337306084347
 10
-12.8768260283867
 20
-11.7441159330461
 10
-12.84981038577618
 20
-11.73703004069377
 10
-12.83909857332915
 20
-11.7299157508506
 10
-12.81919100861067
 20
-11.70855158320297
 10
-12.82524282541077
 20
-11.67287630566127
 10
-12.81347208960704
 20
-11.64283652949387
 10
-12.80376595522139
 20
-11.62807804441838
 10
-12.77878917880289
 20
-11.62149809707231
 10
-12.77416911712745
 20
-11.60163579085485
  0
LWPOLYLINE
  5
3B5
330
6F
100
AcDbEntity
  8
STEINE
100
AcDbPolyline
 90
        3
 70
     0
 43
0.0
 10
-12.83909857332915
 20
-11.7299157508506
 10
-12.80601070322197
 20
-11.74678675810997
 10
-12.79374910857899
 20
-11.72744725790894
  0
LWPOLYLINE
  5
3BA
330
6F
100
AcDbEntity
  8
STEINE
100
AcDbPolyline
 90
        2
 70
     0
 43
0.0
 10
-12.81347208960704
 20
-11.64283652949387
 10
-12.79973436875995
 20
-11.65355987842155
  0
LWPOLYLINE
  5
3BE
330
6F
100
AcDbEntity
  8
STEINE
100
AcDbPolyline
 90
        5
 70
     0
 43
0.0
 10
-12.74803036174722
 20
-11.80547981382112
 10
-12.78010722926347
 20
-11.79319603363842
 10
-12.80250014793379
 20
-11.77889113569547
 10
-12.8162210077707
 20
-11.7584873876082
 10
-12.80601070322197
 20
-11.74678675810997
  0
LWPOLYLINE
  5
3C5
330
6F
100
AcDbEntity
  8
STEINE
100
AcDbPolyline
 90
        3
 70
     0
 43
0.0
 10
-12.67598661570235
 20
-11.6879116662724
 10
-12.5919466140695
 20
-11.70334293161279
 10
-12.536450739125
 20
-11.72585742704075
  0
LWPOLYLINE
  5
3CA
330
6F
100
AcDbEntity
  8
STEINE
100
AcDbPolyline
 90
        8
 70
     0
 43
0.0
 10
-13.26022172934707
 20
-11.59773222250366
 10
-13.25713458885741
 20
-11.58041472748448
 10
-13.25406430937792
 20
-11.57277763162487
 10
-13.24437858568882
 20
-11.5697375244794
 10
-13.23013403241388
 20
-11.5819902449065
 10
-13.23730600466031
 20
-11.60439558747907
 10
-13.25208046332439
 20
-11.60386035756039
 10
-13.26022172934707
 20
-11.59773222250366
  0
LWPOLYLINE
  5
3D4
330
6F
100
AcDbEntity
  8
STEINE
100
AcDbPolyline
 90
        4
 70
     0
 43
0.0
 10
-13.25406430937792
 20
-11.57277763162487
 10
-13.25406430937792
 20
-11.57277763162487
 10
-13.25406430937792
 20
-11.57277763162487
 10
-13.25406430937792
 20
-11.57277763162487
  0
LWPOLYLINE
  5
3DA
330
6F
100
AcDbEntity
  8
STEINE
100
AcDbPolyline
 90
        7
 70
     0
 43
0.0
 10
-13.20280235301706
 20
-11.68597508296456
 10
-13.16966301245775
 20
-11.67329539805259
 10
-13.14254265409977
 20
-11.60608913197237
 10
-13.17663354000357
 20
-11.58004544540287
 10
-13.20321156907016
 20
-11.62840129527813
 10
-13.22916562605922
 20
-11.6110332172284
 10
-13.20280235301706
 20
-11.68597508296456
  0
LWPOLYLINE
  5
3E3
330
6F
100
AcDbEntity
  8
STEINE
100
AcDbPolyline
 90
       21
 70
     0
 43
0.0
 10
-13.85554623823257
 20
-12.90151517154662
 10
-13.89922345660755
 20
-12.82144818655036
 10
-13.90584954987623
 20
-12.82296513414754
 10
-13.91499649396031
 20
-12.80919280385849
 10
-13.92621336399201
 20
-12.81375873281703
 10
-13.95618125901073
 20
-12.76071892691194
 10
-14.03085601084872
 20
-12.63372429747873
 10
-14.01961606785572
 20
-12.61591150651236
 10
-13.99106395437306
 20
-12.60424282419131
 10
-13.9468284331181
 20
-12.65628848851566
 10
-13.93664297637386
 20
-12.65885371041048
 10
-13.92953933558976
 20
-12.67567945916882
 10
-13.93414608594137
 20
-12.68789934499714
 10
-13.90009069690112
 20
-12.73432281927101
 10
-13.89450400371419
 20
-12.74452247476067
 10
-13.89909655532038
 20
-12.74859044550725
 10
-13.87522928528913
 20
-12.79397718196413
 10
-13.8239265075352
 20
-12.88373787744379
 10
-13.83513627819419
 20
-12.88422784886145
 10
-13.83770061266742
 20
-12.89390381091308
 10
-13.85554623823257
 20
-12.90151517154662
  0
LWPOLYLINE
  5
3FA
330
6F
100
AcDbEntity
  8
STEINE
100
AcDbPolyline
 90
       16
 70
     0
 43
0.0
 10
-14.07633947625876
 20
-12.71312648900438
 10
-14.0615552559572
 20
-12.70805727730436
 10
-14.06000724860443
 20
-12.69685105633172
 10
-14.03758149533533
 20
-12.69230465064814
 10
-14.03703206667123
 20
-12.66937827690231
 10
-14.03496746525314
 20
-12.65409698581039
 10
-14.01616496981397
 20
-12.68215202850268
 10
-13.97348189301973
 20
-12.7479513872627
 10
-13.94453831191575
 20
-12.80404638648026
 10
-13.94813672194121
 20
-12.82238198346307
 10
-13.9562850873366
 20
-12.82032980594722
 10
-13.96445918795806
 20
-12.83305297451703
 10
-13.99709258351112
 20
-12.84777152562103
 10
-14.03061274263269
 20
-12.78657359268308
 10
-14.05857371863658
 20
-12.75136965070567
 10
-14.07633947625876
 20
-12.71312648900438
  0
LWPOLYLINE
  5
40C
330
6F
100
AcDbEntity
  8
STEINE
100
AcDbPolyline
 90
        6
 70
     0
 43
0.0
 10
-14.02318862795435
 20
-12.91192259838876
 10
-14.01090928487959
 20
-12.88239320433556
 10
-13.9864810497036
 20
-12.8982301360427
 10
-13.98854742596487
 20
-12.91453041651984
 10
-14.00333430853119
 20
-12.92112811229768
 10
-14.02318862795435
 20
-12.91192259838876
  0
LWPOLYLINE
  5
414
330
6F
100
AcDbEntity
  8
BEFUND
100
AcDbPolyline
 90
       12
 70
     0
 43
0.0
 10
-12.99760569476578
 20
-13.99765898054841
 10
-12.99731622582521
 20
-13.93473989172177
 10
-12.94215147383401
 20
-13.85484506651369
 10
-12.92169803013779
 20
-13.81259250389068
 10
-12.86763479773954
 20
-13.78007891025208
 10
-12.81922747741214
 20
-13.77710624714734
 10
-12.74848758308244
 20
-13.82308412108299
 10
-12.6894154836522
 20
-13.84000038684337
 10
-12.66911201420445
 20
-13.8838524272713
 10
-12.67374804946849
 20
-13.91288563795573
 10
-12.64884137935548
 20
-13.94655577132577
 10
-12.64292706044914
 20
-13.99860372237131
  0
LWPOLYLINE
  5
422
330
6F
100
AcDbEntity
  8
BEFUND
100
AcDbPolyline
 90
        6
 70
     0
 43
0.0
 10
-12.50793443642373
 20
-13.19733223201296
 10
-12.65506836231079
 20
-13.13389842529031
 10
-12.82253238029326
 20
-13.04189741891801
 10
-12.94209502295459
 20
-12.94488488324894
 10
-13.028965700238
 20
-12.79952714676368
 10
-13.09694070281545
 20
-12.62872751024673
  0
LWPOLYLINE
  5
42A
330
6F
100
AcDbEntity
  8
BEFUND
100
AcDbPolyline
 90
        2
 70
     0
 43
0.0
 10
-13.04725349115578
 20
-12.47596518235807
 10
-13.00210280884147
 20
-12.58762350056087
  0
LWPOLYLINE
  5
42E
330
6F
100
AcDbEntity
  8
BEFUND
100
AcDbPolyline
 90
        5
 70
     0
 43
0.0
 10
-12.98277839480745
 20
-12.60854650497821
 10
-12.91620497502066
 20
-12.70648573818728
 10
-12.80838910778019
 20
-12.8197816933233
 10
-12.68013399558891
 20
-12.89897700091805
 10
-12.51260519583047
 20
-12.95378489472988
  0
INSERT
  5
435
330
6F
100
AcDbEntity
  8
STEINESCHRAFF
100
AcDbBlockReference
  2
*X1
 10
0.0
 20
0.0
 30
0.0
 41
0.01
 42
0.01
 43
0.01
1001
ACAD
1000
HATCH
1002
{
1070
    16
1000
DOTS,I
1040
20.0
1040
0.0
1002
}
  0
INSERT
  5
436
330
6F
100
AcDbEntity
  8
FEUER
100
AcDbBlockReference
  2
*X2
 10
0.0
 20
0.0
 30
0.0
 41
0.01
 42
0.01
 43
0.01
1001
ACAD
1000
HATCH
1002
{
1070
    16
1000
ANSI31,I
1040
10.0
1040
0.0
1002
}
  0
ENDSEC
  0
SECTION
  2
OBJECTS
  0
DICTIONARY
  5
C
330
0
100
AcDbDictionary
281
     1
  3
ACAD_CIP_PREVIOUS_PRODUCT_INFO
350
439
  3
ACAD_COLOR
350
62
  3
ACAD_DETAILVIEWSTYLE
350
69
  3
ACAD_GROUP
350
D
  3
ACAD_LAYOUT
350
61
  3
ACAD_MATERIAL
350
10
  3
ACAD_MLEADERSTYLE
350
65
  3
ACAD_MLINESTYLE
350
5E
  3
ACAD_PLOTSETTINGS
350
60
  3
ACAD_PLOTSTYLENAME
350
E
  3
ACAD_SCALELIST
350
42
  3
ACAD_SECTIONVIEWSTYLE
350
67
  3
ACAD_TABLESTYLE
350
63
  3
ACAD_VISUALSTYLE
350
29
  3
ACDB_RECOMPOSE_DATA
350
4E4
  3
AcDbVariableDictionary
350
484
  0
DICTIONARY
  5
43D
330
2
100
AcDbDictionary
280
     1
281
     1
  3
ACAD_LAYERSTATES
360
43E
  0
XRECORD
  5
439
102
{ACAD_REACTORS
330
C
102
}
330
C
100
AcDbXrecord
280
     1
300
ACD
300
2014
300
DSADV_F_S
  0
DICTIONARY
  5
62
102
{ACAD_REACTORS
330
C
102
}
330
C
100
AcDbDictionary
281
     1
  0
DICTIONARY
  5
69
102
{ACAD_REACTORS
330
C
102
}
330
C
100
AcDbDictionary
281
     1
  3
Imperial24
350
6A
  0
DICTIONARY
  5
D
102
{ACAD_REACTORS
330
C
102
}
330
C
100
AcDbDictionary
281
     1
  0
DICTIONARY
  5
61
102
{ACAD_REACTORS
330
C
102
}
330
C
100
AcDbDictionary
281
     1
  3
Layout1
350
6E
  3
Model
350
72
  0
DICTIONARY
  5
10
102
{ACAD_REACTORS
330
C
102
}
330
C
100
AcDbDictionary
281
     1
  3
ByBlock
350
19
  3
ByLayer
350
11
  3
Global
350
21
  0
DICTIONARY
  5
65
102
{ACAD_REACTORS
330
C
102
}
330
C
100
AcDbDictionary
281
     1
  3
Standard
350
66
  0
DICTIONARY
  5
5E
102
{ACAD_REACTORS
330
C
102
}
330
C
100
AcDbDictionary
281
     1
  3
Standard
350
5F
  0
DICTIONARY
  5
60
102
{ACAD_REACTORS
330
C
102
}
330
C
100
AcDbDictionary
281
     1
  0
ACDBDICTIONARYWDFLT
  5
E
102
{ACAD_REACTORS
330
C
102
}
330
C
100
AcDbDictionary
281
     1
  3
Normal
350
F
100
AcDbDictionaryWithDefault
340
F
  0
DICTIONARY
  5
42
102
{ACAD_REACTORS
330
C
102
}
330
C
100
AcDbDictionary
281
     1
  3
A0
350
43
  3
A1
350
44
  3
A2
350
45
  3
A3
350
46
  3
A4
350
47
  3
A5
350
48
  3
A6
350
49
  3
A7
350
4A
  3
A8
350
4B
  3
A9
350
4C
  3
B0
350
4D
  3
B1
350
4E
  3
B2
350
4F
  3
B3
350
50
  3
B4
350
51
  3
B5
350
52
  3
B6
350
53
  0
DICTIONARY
  5
67
102
{ACAD_REACTORS
330
C
102
}
330
C
100
AcDbDictionary
281
     1
  3
Imperial24
350
68
  0
DICTIONARY
  5
63
102
{ACAD_REACTORS
330
C
102
}
330
C
100
AcDbDictionary
281
     1
  3
Standard
350
64
  0
DICTIONARY
  5
29
102
{ACAD_REACTORS
330
C
102
}
330
C
100
AcDbDictionary
281
     1
  3
2dWireframe
350
2F
  3
Basic
350
2E
  3
Brighten
350
35
  3
ColorChange
350
39
  3
Conceptual
350
32
  3
Dim
350
34
  3
EdgeColorOff
350
41
  3
Facepattern
350
38
  3
Flat
350
2A
  3
FlatWithEdges
350
2B
  3
Gouraud
350
2C
  3
GouraudWithEdges
350
2D
  3
Hidden
350
31
  3
JitterOff
350
3F
  3
Linepattern
350
37
  3
OverhangOff
350
40
  3
Realistic
350
33
  3
Shaded
350
3E
  3
Shaded with edges
350
3D
  3
Shades of Gray
350
3A
  3
Sketchy
350
3B
  3
Thicken
350
36
  3
Wireframe
350
30
  3
X-Ray
350
3C
  0
XRECORD
  5
4E4
102
{ACAD_REACTORS
330
C
102
}
330
C
100
AcDbXrecord
280
     1
 90
        1
330
64
330
68
330
6A
  0
DICTIONARY
  5
484
102
{ACAD_REACTORS
330
C
102
}
330
C
100
AcDbDictionary
281
     1
  3
CANNOSCALE
350
489
  3
CMLEADERSTYLE
350
486
  3
CTABLESTYLE
350
485
  3
CVIEWDETAILSTYLE
350
487
  3
CVIEWSECTIONSTYLE
350
488
  0
DICTIONARY
  5
43E
102
{ACAD_REACTORS
330
43D
102
}
330
43D
100
AcDbDictionary
281
     1
  0
ACDBDETAILVIEWSTYLE
  5
6A
102
{ACAD_XDICTIONARY
360
4E2
102
}
102
{ACAD_REACTORS
330
69
102
}
330
69
100
AcDbModelDocViewStyle
 70
     0
  3
Imperial24
290
     0
100
AcDbDetailViewStyle
 70
     0
 71
     0
 90
        3
 71
     1
340
55
 62
   256
 40
0.24
340
0
 62
   256
 40
0.24
300

 40
0.36
280
     3
 71
     2
340
5C
 90
       25
 62
   256
 71
     3
340
55
 62
   256
 40
0.24
 90
        1
 40
0.75
 90
        1
300
%<\AcVar ViewType \f "%tc1">% %<\AcVar ViewDetailId>%\PVARIA %<\AcVar ViewScale \f "%sn">%
 71
     4
340
5C
 90
       25
 62
   256
340
5C
 90
       25
 62
   256
280
     0
  0
LAYOUT
  5
6E
102
{ACAD_REACTORS
330
61
102
}
330
61
100
AcDbPlotSettings
  1

  2
Kyocera FS-1350DN KX
  4

  6

 40
0.0
 41
0.0
 42
0.0
 43
0.0
 44
0.0
 45
0.0
 46
0.0
 47
0.0
 48
0.0
 49
0.0
140
0.0
141
0.0
142
1.0
143
1.0
 70
   688
 72
     0
 73
     0
 74
     5
  7

 75
    16
147
1.0
 76
     0
 77
     2
 78
   300
148
0.0
149
0.0
100
AcDbLayout
  1
Layout1
 70
     0
 71
     1
 10
0.0
 20
0.0
 11
12.0
 21
9.0
 12
0.0
 22
0.0
 32
0.0
 14
1.000000000000000E+20
 24
1.000000000000000E+20
 34
1.000000000000000E+20
 15
-1.000000000000000E+20
 25
-1.000000000000000E+20
 35
-1.000000000000000E+20
146
0.0
 13
0.0
 23
0.0
 33
0.0
 16
1.0
 26
0.0
 36
0.0
 17
0.0
 27
1.0
 37
0.0
 76
     0
330
6B
  0
LAYOUT
  5
72
102
{ACAD_XDICTIONARY
360
482
102
}
102
{ACAD_REACTORS
330
61
102
}
330
61
100
AcDbPlotSettings
  1

  2
Kyocera FS-1350DN KX
  4

  6

 40
0.0
 41
0.0
 42
0.0
 43
0.0
 44
0.0
 45
0.0
 46
0.0
 47
0.0
 48
0.0
 49
0.0
140
0.0
141
0.0
142
1.0
143
1.0
 70
  1712
 72
     0
 73
     0
 74
     0
  7

 75
     0
147
1.0
 76
     0
 77
     2
 78
   300
148
0.0
149
0.0
100
AcDbLayout
  1
Model
 70
     1
 71
     0
 10
0.0
 20
0.0
 11
12.0
 21
9.0
 12
0.0
 22
0.0
 32
0.0
 14
0.0
 24
0.0
 34
0.0
 15
0.0
 25
0.0
 35
0.0
146
0.0
 13
0.0
 23
0.0
 33
0.0
 16
1.0
 26
0.0
 36
0.0
 17
0.0
 27
1.0
 37
0.0
 76
     0
330
6F
331
8F
  0
MATERIAL
  5
19
102
{ACAD_XDICTIONARY
360
1A
102
}
102
{ACAD_REACTORS
330
10
102
}
330
10
100
AcDbMaterial
  1
ByBlock
 72
     0
 43
0.0208333333333333
 43
0.0
 43
0.0
 43
0.0
 43
0.0
 43
0.0208333333333333
 43
0.0
 43
0.0
 43
0.0
 43
0.0
 43
1.0
 43
0.0
 43
0.0
 43
0.0
 43
0.0
 43
1.0
 77
     0
 47
0.0208333333333333
 47
0.0
 47
0.0
 47
0.0
 47
0.0
 47
0.0208333333333333
 47
0.0
 47
0.0
 47
0.0
 47
0.0
 47
1.0
 47
0.0
 47
0.0
 47
0.0
 47
0.0
 47
1.0
171
     0
 49
0.0208333333333333
 49
0.0
 49
0.0
 49
0.0
 49
0.0
 49
0.0208333333333333
 49
0.0
 49
0.0
 49
0.0
 49
0.0
 49
1.0
 49
0.0
 49
0.0
 49
0.0
 49
0.0
 49
1.0
175
     0
142
0.0208333333333333
142
0.0
142
0.0
142
0.0
142
0.0
142
0.0208333333333333
142
0.0
142
0.0
142
0.0
142
0.0
142
1.0
142
0.0
142
0.0
142
0.0
142
0.0
142
1.0
179
     0
144
0.0208333333333333
144
0.0
144
0.0
144
0.0
144
0.0
144
0.0208333333333333
144
0.0
144
0.0
144
0.0
144
0.0
144
1.0
144
0.0
144
0.0
144
0.0
144
0.0
144
1.0
147
0.0208333333333333
147
0.0
147
0.0
147
0.0
147
0.0
147
0.0208333333333333
147
0.0
147
0.0
147
0.0
147
0.0
147
1.0
147
0.0
147
0.0
147
0.0
147
0.0
147
1.0
  0
MATERIAL
  5
11
102
{ACAD_XDICTIONARY
360
12
102
}
102
{ACAD_REACTORS
330
10
102
}
330
10
100
AcDbMaterial
  1
ByLayer
 72
     0
 43
0.0208333333333333
 43
0.0
 43
0.0
 43
0.0
 43
0.0
 43
0.0208333333333333
 43
0.0
 43
0.0
 43
0.0
 43
0.0
 43
1.0
 43
0.0
 43
0.0
 43
0.0
 43
0.0
 43
1.0
 77
     0
 47
0.0208333333333333
 47
0.0
 47
0.0
 47
0.0
 47
0.0
 47
0.0208333333333333
 47
0.0
 47
0.0
 47
0.0
 47
0.0
 47
1.0
 47
0.0
 47
0.0
 47
0.0
 47
0.0
 47
1.0
171
     0
 49
0.0208333333333333
 49
0.0
 49
0.0
 49
0.0
 49
0.0
 49
0.0208333333333333
 49
0.0
 49
0.0
 49
0.0
 49
0.0
 49
1.0
 49
0.0
 49
0.0
 49
0.0
 49
0.0
 49
1.0
175
     0
142
0.0208333333333333
142
0.0
142
0.0
142
0.0
142
0.0
142
0.0208333333333333
142
0.0
142
0.0
142
0.0
142
0.0
142
1.0
142
0.0
142
0.0
142
0.0
142
0.0
142
1.0
179
     0
144
0.0208333333333333
144
0.0
144
0.0
144
0.0
144
0.0
144
0.0208333333333333
144
0.0
144
0.0
144
0.0
144
0.0
144
1.0
144
0.0
144
0.0
144
0.0
144
0.0
144
1.0
147
0.0208333333333333
147
0.0
147
0.0
147
0.0
147
0.0
147
0.0208333333333333
147
0.0
147
0.0
147
0.0
147
0.0
147
1.0
147
0.0
147
0.0
147
0.0
147
0.0
147
1.0
  0
MATERIAL
  5
21
102
{ACAD_XDICTIONARY
360
22
102
}
102
{ACAD_REACTORS
330
10
102
}
330
10
100
AcDbMaterial
  1
Global
 72
     0
 43
0.0208333333333333
 43
0.0
 43
0.0
 43
0.0
 43
0.0
 43
0.0208333333333333
 43
0.0
 43
0.0
 43
0.0
 43
0.0
 43
1.0
 43
0.0
 43
0.0
 43
0.0
 43
0.0
 43
1.0
 77
     0
 47
0.0208333333333333
 47
0.0
 47
0.0
 47
0.0
 47
0.0
 47
0.0208333333333333
 47
0.0
 47
0.0
 47
0.0
 47
0.0
 47
1.0
 47
0.0
 47
0.0
 47
0.0
 47
0.0
 47
1.0
171
     0
 49
0.0208333333333333
 49
0.0
 49
0.0
 49
0.0
 49
0.0
 49
0.0208333333333333
 49
0.0
 49
0.0
 49
0.0
 49
0.0
 49
1.0
 49
0.0
 49
0.0
 49
0.0
 49
0.0
 49
1.0
175
     0
142
0.0208333333333333
142
0.0
142
0.0
142
0.0
142
0.0
142
0.0208333333333333
142
0.0
142
0.0
142
0.0
142
0.0
142
1.0
142
0.0
142
0.0
142
0.0
142
0.0
142
1.0
179
     0
144
0.0208333333333333
144
0.0
144
0.0
144
0.0
144
0.0
144
0.0208333333333333
144
0.0
144
0.0
144
0.0
144
0.0
144
1.0
144
0.0
144
0.0
144
0.0
144
0.0
144
1.0
147
0.0208333333333333
147
0.0
147
0.0
147
0.0
147
0.0
147
0.0208333333333333
147
0.0
147
0.0
147
0.0
147
0.0
147
1.0
147
0.0
147
0.0
147
0.0
147
0.0
147
1.0
  0
MLEADERSTYLE
  5
66
102
{ACAD_REACTORS
330
65
102
}
330
65
100
AcDbMLeaderStyle
179
     2
170
     2
171
     1
172
     0
 90
        2
 40
0.0
 41
0.0
173
     1
 91
-1056964608
340
5A
 92
       -2
290
     1
 42
0.09
291
     1
 43
0.36
  3
Standard
 44
0.18
300

342
55
174
     1
178
     6
175
     1
176
     0
 93
-1056964608
 45
0.18
292
     0
297
     0
 46
0.18
 94
-1056964608
 47
1.0
 49
1.0
140
1.0
293
     1
141
0.0
294
     1
177
     0
142
1.0
295
     0
296
     0
143
0.125
271
     0
272
     9
273
     9
298
     1
  0
MLINESTYLE
  5
5F
102
{ACAD_REACTORS
330
5E
102
}
330
5E
100
AcDbMlineStyle
  2
STANDARD
 70
     0
  3

 62
   256
 51
90.0
 52
90.0
 71
     2
 49
0.5
 62
   256
  6
BYLAYER
 49
-0.5
 62
   256
  6
BYLAYER
  0
ACDBPLACEHOLDER
  5
F
102
{ACAD_REACTORS
330
E
102
}
330
E
  0
SCALE
  5
43
102
{ACAD_REACTORS
330
42
102
}
330
42
100
AcDbScale
 70
     0
300
1:1
140
1.0
141
1.0
290
     1
  0
SCALE
  5
44
102
{ACAD_REACTORS
330
42
102
}
330
42
100
AcDbScale
 70
     0
300
1/128" = 1'-0"
140
0.0078125
141
12.0
290
     0
  0
SCALE
  5
45
102
{ACAD_REACTORS
330
42
102
}
330
42
100
AcDbScale
 70
     0
300
1/64" = 1'-0"
140
0.015625
141
12.0
290
     0
  0
SCALE
  5
46
102
{ACAD_REACTORS
330
42
102
}
330
42
100
AcDbScale
 70
     0
300
1/32" = 1'-0"
140
0.03125
141
12.0
290
     0
  0
SCALE
  5
47
102
{ACAD_REACTORS
330
42
102
}
330
42
100
AcDbScale
 70
     0
300
1/16" = 1'-0"
140
0.0625
141
12.0
290
     0
  0
SCALE
  5
48
102
{ACAD_REACTORS
330
42
102
}
330
42
100
AcDbScale
 70
     0
300
3/32" = 1'-0"
140
0.09375
141
12.0
290
     0
  0
SCALE
  5
49
102
{ACAD_REACTORS
330
42
102
}
330
42
100
AcDbScale
 70
     0
300
1/8" = 1'-0"
140
0.125
141
12.0
290
     0
  0
SCALE
  5
4A
102
{ACAD_REACTORS
330
42
102
}
330
42
100
AcDbScale
 70
     0
300
3/16" = 1'-0"
140
0.1875
141
12.0
290
     0
  0
SCALE
  5
4B
102
{ACAD_REACTORS
330
42
102
}
330
42
100
AcDbScale
 70
     0
300
1/4" = 1'-0"
140
0.25
141
12.0
290
     0
  0
SCALE
  5
4C
102
{ACAD_REACTORS
330
42
102
}
330
42
100
AcDbScale
 70
     0
300
3/8" = 1'-0"
140
0.375
141
12.0
290
     0
  0
SCALE
  5
4D
102
{ACAD_REACTORS
330
42
102
}
330
42
100
AcDbScale
 70
     0
300
1/2" = 1'-0"
140
0.5
141
12.0
290
     0
  0
SCALE
  5
4E
102
{ACAD_REACTORS
330
42
102
}
330
42
100
AcDbScale
 70
     0
300
3/4" = 1'-0"
140
0.75
141
12.0
290
     0
  0
SCALE
  5
4F
102
{ACAD_REACTORS
330
42
102
}
330
42
100
AcDbScale
 70
     0
300
1" = 1'-0"
140
1.0
141
12.0
290
     0
  0
SCALE
  5
50
102
{ACAD_REACTORS
330
42
102
}
330
42
100
AcDbScale
 70
     0
300
1-1/2" = 1'-0"
140
1.5
141
12.0
290
     0
  0
SCALE
  5
51
102
{ACAD_REACTORS
330
42
102
}
330
42
100
AcDbScale
 70
     0
300
3" = 1'-0"
140
3.0
141
12.0
290
     0
  0
SCALE
  5
52
102
{ACAD_REACTORS
330
42
102
}
330
42
100
AcDbScale
 70
     0
300
6" = 1'-0"
140
6.0
141
12.0
290
     0
  0
SCALE
  5
53
102
{ACAD_REACTORS
330
42
102
}
330
42
100
AcDbScale
 70
     0
300
1'-0" = 1'-0"
140
12.0
141
12.0
290
     0
  0
ACDBSECTIONVIEWSTYLE
  5
68
102
{ACAD_XDICTIONARY
360
4E0
102
}
102
{ACAD_REACTORS
330
67
102
}
330
67
100
AcDbModelDocViewStyle
 70
     0
  3
Imperial24
290
     0
100
AcDbSectionViewStyle
 70
     0
 71
     0
 90
       78
 71
     1
340
55
 62
   256
 40
0.24
340
0
340
0
 62
   256
 40
0.24
300
I, O, Q, S, X, Z
 40
0.48
 90
        3
 40
0.18
 90
        1
 71
     2
340
5C
 90
       25
 62
   256
340
5C
 90
       50
 62
   256
 40
0.24
 40
0.0
 40
0.24
 71
     3
340
55
 62
   256
 40
0.24
 90
        1
 40
0.75
 90
        1
300
%<\AcVar ViewType \f "%tc1">% %<\AcVar ViewSectionStartId>%-%<\AcVar ViewSectionEndId>%\PVARIA %<\AcVar ViewScale \f "%sn">%
 71
     4
 62
   256
 62
   257
300
ANSI31
 40
1.0
 90
        0
290
     0
290
     0
 90
        6
 40
0.0
 40
1.570796326794896
 40
0.2617993877991494
 40
1.308996938995747
 40
-0.2617993877991494
 40
1.832595714594046
  0
TABLESTYLE
  5
64
102
{ACAD_XDICTIONARY
360
4DE
102
}
102
{ACAD_REACTORS
330
63
102
}
330
63
100
AcDbTableStyle
280
     0
  3
Standard
 70
     0
 71
     0
 40
0.06
 41
0.06
280
     0
281
     0
  7
STANDARD
140
0.18
170
     2
 62
     0
 63
     7
283
     0
 90
      512
 91
        0
  1

274
    -2
284
     1
 64
     0
275
    -2
285
     1
 65
     0
276
    -2
286
     1
 66
     0
277
    -2
287
     1
 67
     0
278
    -2
288
     1
 68
     0
279
    -2
289
     1
 69
     0
  7
STANDARD
140
0.25
170
     5
 62
     0
 63
     7
283
     0
 90
      512
 91
        0
  1

274
    -2
284
     1
 64
     0
275
    -2
285
     1
 65
     0
276
    -2
286
     1
 66
     0
277
    -2
287
     1
 67
     0
278
    -2
288
     1
 68
     0
279
    -2
289
     1
 69
     0
  7
STANDARD
140
0.18
170
     5
 62
     0
 63
     7
283
     0
 90
      512
 91
        0
  1

274
    -2
284
     1
 64
     0
275
    -2
285
     1
 65
     0
276
    -2
286
     1
 66
     0
277
    -2
287
     1
 67
     0
278
    -2
288
     1
 68
     0
279
    -2
289
     1
 69
     0
  0
VISUALSTYLE
  5
2F
102
{ACAD_REACTORS
330
29
102
}
330
29
100
AcDbVisualStyle
  2
2dWireframe
 70
     4
177
     3
291
     0
 70
    58
 90
        0
176
     1
 90
        2
176
     1
 90
        0
176
     1
 90
        0
176
     1
 40
0.6
176
     1
 40
30.0
176
     1
 62
     7
420
 16777215
176
     1
 90
        1
176
     1
 90
        4
176
     1
 62
     7
176
     1
 62
   257
176
     1
 90
        1
176
     1
 90
        1
176
     1
 40
1.0
176
     1
 90
        0
176
     1
 62
   257
176
     1
 40
1.0
176
     1
 90
        1
176
     1
 90
        6
176
     1
 90
        2
176
     1
 62
     7
176
     1
 90
        5
176
     1
 90
        0
176
     1
 90
        0
176
     1
290
     0
176
     1
 90
        1
176
     1
 40
0.0
176
     1
 90
        0
176
     1
290
     1
176
     1
290
     1
176
     1
290
     0
176
     1
290
     0
176
     1
290
     0
176
     1
290
     0
176
     1
290
     0
176
     1
290
     0
176
     1
290
     0
176
     1
 90
       50
176
     1
 40
0.0
176
     1
 40
1.0
176
     1
 90
        0
176
     1
 62
    18
420
        0
176
     1
 90
       50
176
     1
 90
        3
176
     1
 62
     5
420
      255
176
     1
290
     0
176
     1
 90
       50
176
     1
 90
       50
176
     1
 90
       50
176
     1
290
     0
176
     1
 90
       50
176
     1
 62
   256
176
     0
 40
1.0
176
     0
 90
        2
176
     1
  1
strokes_ogs.tif
176
     1
290
     0
176
     1
 40
1.0
176
     1
 40
1.0
176
     1
  0
VISUALSTYLE
  5
2E
102
{ACAD_REACTORS
330
29
102
}
330
29
100
AcDbVisualStyle
  2
Basic
 70
     7
177
     3
291
     1
 70
    58
 90
        1
176
     1
 90
        0
176
     1
 90
        1
176
     1
 90
        0
176
     1
 40
0.6
176
     1
 40
30.0
176
     1
 62
     7
420
 16777215
176
     1
 90
        0
176
     1
 90
        4
176
     1
 62
     7
176
     1
 62
   257
176
     1
 90
        1
176
     1
 90
        1
176
     1
 40
1.0
176
     1
 90
        8
176
     1
 62
     7
176
     1
 40
1.0
176
     1
 90
        1
176
     1
 90
        6
176
     1
 90
        2
176
     1
 62
     7
176
     1
 90
        5
176
     1
 90
        0
176
     1
 90
        0
176
     1
290
     0
176
     1
 90
        1
176
     1
 40
0.0
176
     1
 90
        0
176
     1
290
     0
176
     1
290
     1
176
     1
290
     1
176
     1
290
     0
176
     1
290
     0
176
     1
290
     0
176
     1
290
     0
176
     1
290
     0
176
     1
290
     0
176
     1
 90
       50
176
     1
 40
0.0
176
     1
 40
1.0
176
     1
 90
        0
176
     1
 62
    18
420
        0
176
     1
 90
       50
176
     1
 90
        3
176
     1
 62
     5
420
      255
176
     1
290
     0
176
     1
 90
       50
176
     1
 90
       50
176
     1
 90
       50
176
     1
290
     0
176
     1
 90
       50
176
     1
 62
   256
176
     0
 40
1.0
176
     0
 90
        2
176
     1
  1
strokes_ogs.tif
176
     1
290
     0
176
     1
 40
1.0
176
     1
 40
1.0
176
     1
  0
VISUALSTYLE
  5
35
102
{ACAD_REACTORS
330
29
102
}
330
29
100
AcDbVisualStyle
  2
Brighten
 70
    12
177
     3
291
     1
 70
    58
 90
        2
176
     1
 90
        2
176
     1
 90
        0
176
     1
 90
        0
176
     1
 40
0.6
176
     1
 40
30.0
176
     1
 62
     7
420
 16777215
176
     1
 90
        1
176
     1
 90
        4
176
     1
 62
     7
176
     1
 62
   257
176
     1
 90
        1
176
     1
 90
        1
176
     1
 40
1.0
176
     1
 90
        8
176
     1
 62
     7
176
     1
 40
1.0
176
     1
 90
        1
176
     1
 90
        6
176
     1
 90
        2
176
     1
 62
     7
176
     1
 90
        5
176
     1
 90
        0
176
     1
 90
        0
176
     1
290
     0
176
     1
 90
        1
176
     1
 40
50.0
176
     1
 90
        0
176
     1
290
     0
176
     1
290
     1
176
     1
290
     1
176
     1
290
     0
176
     1
290
     0
176
     1
290
     0
176
     1
290
     0
176
     1
290
     0
176
     1
290
     0
176
     1
 90
       50
176
     1
 40
0.0
176
     1
 40
1.0
176
     1
 90
        0
176
     1
 62
    18
420
        0
176
     1
 90
       50
176
     1
 90
        3
176
     1
 62
     5
420
      255
176
     1
290
     0
176
     1
 90
       50
176
     1
 90
       50
176
     1
 90
       50
176
     1
290
     0
176
     1
 90
       50
176
     1
 62
   256
176
     0
 40
1.0
176
     0
 90
        2
176
     1
  1
strokes_ogs.tif
176
     1
290
     0
176
     1
 40
1.0
176
     1
 40
1.0
176
     1
  0
VISUALSTYLE
  5
39
102
{ACAD_REACTORS
330
29
102
}
330
29
100
AcDbVisualStyle
  2
ColorChange
 70
    16
177
     3
291
     1
 70
    58
 90
        2
176
     1
 90
        2
176
     1
 90
        3
176
     1
 90
        0
176
     1
 40
0.6
176
     1
 40
30.0
176
     1
 62
     8
420
  8421504
176
     1
 90
        1
176
     1
 90
        4
176
     1
 62
     7
176
     1
 62
   257
176
     1
 90
        1
176
     1
 90
        1
176
     1
 40
1.0
176
     1
 90
        8
176
     1
 62
     8
420
  8421504
176
     1
 40
1.0
176
     1
 90
        1
176
     1
 90
        6
176
     1
 90
        2
176
     1
 62
     7
176
     1
 90
        5
176
     1
 90
        0
176
     1
 90
        0
176
     1
290
     0
176
     1
 90
        1
176
     1
 40
0.0
176
     1
 90
        0
176
     1
290
     0
176
     1
290
     1
176
     1
290
     1
176
     1
290
     0
176
     1
290
     0
176
     1
290
     0
176
     1
290
     0
176
     1
290
     0
176
     1
290
     0
176
     1
 90
       50
176
     1
 40
0.0
176
     1
 40
1.0
176
     1
 90
        0
176
     1
 62
    18
420
        0
176
     1
 90
       50
176
     1
 90
        3
176
     1
 62
     5
420
      255
176
     1
290
     0
176
     1
 90
       50
176
     1
 90
       50
176
     1
 90
       50
176
     1
290
     0
176
     1
 90
       50
176
     1
 62
   256
176
     0
 40
1.0
176
     0
 90
        2
176
     1
  1
strokes_ogs.tif
176
     1
290
     0
176
     1
 40
1.0
176
     1
 40
1.0
176
     1
  0
VISUALSTYLE
  5
32
102
{ACAD_REACTORS
330
29
102
}
330
29
100
AcDbVisualStyle
  2
Conceptual
 70
     9
177
     3
291
     0
 70
    58
 90
        3
176
     1
 90
        2
176
     1
 90
        0
176
     1
 90
        0
176
     1
 40
0.6
176
     1
 40
30.0
176
     1
 62
     7
420
 16777215
176
     1
 90
        2
176
     1
 90
        2
176
     1
 62
     7
176
     1
 62
   257
176
     1
 90
        1
176
     1
 90
        1
176
     1
 40
179.0
176
     1
 90
        8
176
     1
 62
     7
176
     1
 40
1.0
176
     1
 90
        1
176
     1
 90
        6
176
     1
 90
        2
176
     1
 62
     7
176
     1
 90
        3
176
     1
 90
        0
176
     1
 90
        0
176
     1
290
     0
176
     1
 90
        1
176
     1
 40
0.0
176
     1
 90
        0
176
     1
290
     0
176
     1
290
     1
176
     1
290
     1
176
     1
290
     0
176
     1
290
     0
176
     1
290
     0
176
     1
290
     0
176
     1
290
     0
176
     1
290
     0
176
     1
 90
       50
176
     1
 40
0.0
176
     1
 40
1.0
176
     1
 90
        0
176
     1
 62
    18
420
        0
176
     1
 90
       50
176
     1
 90
        3
176
     1
 62
     5
420
      255
176
     1
290
     0
176
     1
 90
       50
176
     1
 90
       50
176
     1
 90
       50
176
     1
290
     0
176
     1
 90
       50
176
     1
 62
   256
176
     0
 40
1.0
176
     0
 90
        2
176
     1
  1
strokes_ogs.tif
176
     1
290
     0
176
     1
 40
1.0
176
     1
 40
1.0
176
     1
  0
VISUALSTYLE
  5
34
102
{ACAD_REACTORS
330
29
102
}
330
29
100
AcDbVisualStyle
  2
Dim
 70
    11
177
     3
291
     1
 70
    58
 90
        2
176
     1
 90
        2
176
     1
 90
        0
176
     1
 90
        0
176
     1
 40
0.6
176
     1
 40
30.0
176
     1
 62
     7
420
 16777215
176
     1
 90
        1
176
     1
 90
        4
176
     1
 62
     7
176
     1
 62
   257
176
     1
 90
        1
176
     1
 90
        1
176
     1
 40
1.0
176
     1
 90
        8
176
     1
 62
     7
176
     1
 40
1.0
176
     1
 90
        1
176
     1
 90
        6
176
     1
 90
        2
176
     1
 62
     7
176
     1
 90
        5
176
     1
 90
        0
176
     1
 90
        0
176
     1
290
     0
176
     1
 90
        1
176
     1
 40
-50.0
176
     1
 90
        0
176
     1
290
     0
176
     1
290
     1
176
     1
290
     1
176
     1
290
     0
176
     1
290
     0
176
     1
290
     0
176
     1
290
     0
176
     1
290
     0
176
     1
290
     0
176
     1
 90
       50
176
     1
 40
0.0
176
     1
 40
1.0
176
     1
 90
        0
176
     1
 62
    18
420
        0
176
     1
 90
       50
176
     1
 90
        3
176
     1
 62
     5
420
      255
176
     1
290
     0
176
     1
 90
       50
176
     1
 90
       50
176
     1
 90
       50
176
     1
290
     0
176
     1
 90
       50
176
     1
 62
   256
176
     0
 40
1.0
176
     0
 90
        2
176
     1
  1
strokes_ogs.tif
176
     1
290
     0
176
     1
 40
1.0
176
     1
 40
1.0
176
     1
  0
VISUALSTYLE
  5
41
102
{ACAD_REACTORS
330
29
102
}
330
29
100
AcDbVisualStyle
  2
EdgeColorOff
 70
    22
177
     3
291
     1
 70
    58
 90
        2
176
     0
 90
        2
176
     0
 90
        0
176
     0
 90
        0
176
     0
 40
0.6
176
     0
 40
30.0
176
     0
 62
     7
420
 16777215
176
     0
 90
        1
176
     0
 90
        4
176
     0
 62
     7
176
     0
 62
   257
176
     0
 90
        1
176
     0
 90
        1
176
     0
 40
1.0
176
     0
 90
        8
176
     2
 62
     7
176
     0
 40
1.0
176
     0
 90
        1
176
     0
 90
        6
176
     0
 90
        2
176
     0
 62
     7
176
     0
 90
        5
176
     0
 90
        0
176
     0
 90
        0
176
     0
290
     0
176
     0
 90
        1
176
     0
 40
0.0
176
     0
 90
        0
176
     0
290
     0
176
     0
290
     1
176
     0
290
     1
176
     0
290
     0
176
     0
290
     0
176
     0
290
     0
176
     0
290
     0
176
     0
290
     0
176
     0
290
     0
176
     0
 90
       50
176
     0
 40
0.0
176
     0
 40
1.0
176
     0
 90
        0
176
     0
 62
    18
420
        0
176
     0
 90
       50
176
     0
 90
        3
176
     0
 62
     5
420
      255
176
     0
290
     0
176
     0
 90
       50
176
     0
 90
       50
176
     0
 90
       50
176
     0
290
     0
176
     0
 90
       50
176
     0
 62
   256
176
     0
 40
1.0
176
     0
 90
        2
176
     0
  1
strokes_ogs.tif
176
     0
290
     0
176
     0
 40
1.0
176
     0
 40
1.0
176
     0
  0
VISUALSTYLE
  5
38
102
{ACAD_REACTORS
330
29
102
}
330
29
100
AcDbVisualStyle
  2
Facepattern
 70
    15
177
     3
291
     1
 70
    58
 90
        2
176
     1
 90
        2
176
     1
 90
        0
176
     1
 90
        0
176
     1
 40
0.6
176
     1
 40
30.0
176
     1
 62
     7
420
 16777215
176
     1
 90
        1
176
     1
 90
        4
176
     1
 62
     7
176
     1
 62
   257
176
     1
 90
        1
176
     1
 90
        1
176
     1
 40
1.0
176
     1
 90
        8
176
     1
 62
     7
176
     1
 40
1.0
176
     1
 90
        1
176
     1
 90
        6
176
     1
 90
        2
176
     1
 62
     7
176
     1
 90
        5
176
     1
 90
        0
176
     1
 90
        0
176
     1
290
     0
176
     1
 90
        1
176
     1
 40
0.0
176
     1
 90
        0
176
     1
290
     0
176
     1
290
     1
176
     1
290
     1
176
     1
290
     0
176
     1
290
     0
176
     1
290
     0
176
     1
290
     0
176
     1
290
     0
176
     1
290
     0
176
     1
 90
       50
176
     1
 40
0.0
176
     1
 40
1.0
176
     1
 90
        0
176
     1
 62
    18
420
        0
176
     1
 90
       50
176
     1
 90
        3
176
     1
 62
     5
420
      255
176
     1
290
     0
176
     1
 90
       50
176
     1
 90
       50
176
     1
 90
       50
176
     1
290
     0
176
     1
 90
       50
176
     1
 62
   256
176
     0
 40
1.0
176
     0
 90
        2
176
     1
  1
strokes_ogs.tif
176
     1
290
     0
176
     1
 40
1.0
176
     1
 40
1.0
176
     1
  0
VISUALSTYLE
  5
2A
102
{ACAD_REACTORS
330
29
102
}
330
29
100
AcDbVisualStyle
  2
Flat
 70
     0
177
     3
291
     1
 70
    58
 90
        2
176
     1
 90
        1
176
     1
 90
        1
176
     1
 90
        2
176
     1
 40
0.6
176
     1
 40
30.0
176
     1
 62
     7
420
 16777215
176
     1
 90
        0
176
     1
 90
        0
176
     1
 62
     7
176
     1
 62
   257
176
     1
 90
        1
176
     1
 90
        1
176
     1
 40
1.0
176
     1
 90
        8
176
     1
 62
     7
176
     1
 40
1.0
176
     1
 90
        1
176
     1
 90
        6
176
     1
 90
        2
176
     1
 62
     7
176
     1
 90
        5
176
     1
 90
        0
176
     1
 90
        0
176
     1
290
     0
176
     1
 90
       13
176
     1
 40
0.0
176
     1
 90
        0
176
     1
290
     0
176
     1
290
     1
176
     1
290
     1
176
     1
290
     0
176
     1
290
     0
176
     1
290
     0
176
     1
290
     0
176
     1
290
     0
176
     1
290
     0
176
     1
 90
       50
176
     1
 40
0.0
176
     1
 40
1.0
176
     1
 90
        0
176
     1
 62
    18
420
        0
176
     1
 90
       50
176
     1
 90
        3
176
     1
 62
     5
420
      255
176
     1
290
     0
176
     1
 90
       50
176
     1
 90
       50
176
     1
 90
       50
176
     1
290
     0
176
     1
 90
       50
176
     1
 62
   256
176
     0
 40
1.0
176
     0
 90
        2
176
     1
  1
strokes_ogs.tif
176
     1
290
     0
176
     1
 40
1.0
176
     1
 40
1.0
176
     1
  0
VISUALSTYLE
  5
2B
102
{ACAD_REACTORS
330
29
102
}
330
29
100
AcDbVisualStyle
  2
FlatWithEdges
 70
     1
177
     3
291
     1
 70
    58
 90
        2
176
     1
 90
        1
176
     1
 90
        1
176
     1
 90
        2
176
     1
 40
0.6
176
     1
 40
30.0
176
     1
 62
     7
420
 16777215
176
     1
 90
        1
176
     1
 90
        0
176
     1
 62
     7
176
     1
 62
   257
176
     1
 90
        1
176
     1
 90
        1
176
     1
 40
1.0
176
     1
 90
        0
176
     1
 62
   257
176
     1
 40
1.0
176
     1
 90
        1
176
     1
 90
        6
176
     1
 90
        2
176
     1
 62
     7
176
     1
 90
        5
176
     1
 90
        0
176
     1
 90
        0
176
     1
290
     0
176
     1
 90
       13
176
     1
 40
0.0
176
     1
 90
        0
176
     1
290
     0
176
     1
290
     1
176
     1
290
     1
176
     1
290
     0
176
     1
290
     0
176
     1
290
     0
176
     1
290
     0
176
     1
290
     0
176
     1
290
     0
176
     1
 90
       50
176
     1
 40
0.0
176
     1
 40
1.0
176
     1
 90
        0
176
     1
 62
    18
420
        0
176
     1
 90
       50
176
     1
 90
        3
176
     1
 62
     5
420
      255
176
     1
290
     0
176
     1
 90
       50
176
     1
 90
       50
176
     1
 90
       50
176
     1
290
     0
176
     1
 90
       50
176
     1
 62
   256
176
     0
 40
1.0
176
     0
 90
        2
176
     1
  1
strokes_ogs.tif
176
     1
290
     0
176
     1
 40
1.0
176
     1
 40
1.0
176
     1
  0
VISUALSTYLE
  5
2C
102
{ACAD_REACTORS
330
29
102
}
330
29
100
AcDbVisualStyle
  2
Gouraud
 70
     2
177
     3
291
     1
 70
    58
 90
        2
176
     1
 90
        2
176
     1
 90
        1
176
     1
 90
        2
176
     1
 40
0.6
176
     1
 40
30.0
176
     1
 62
     7
420
 16777215
176
     1
 90
        0
176
     1
 90
        0
176
     1
 62
     7
176
     1
 62
   257
176
     1
 90
        1
176
     1
 90
        1
176
     1
 40
1.0
176
     1
 90
        0
176
     1
 62
     7
176
     1
 40
1.0
176
     1
 90
        1
176
     1
 90
        6
176
     1
 90
        2
176
     1
 62
     7
176
     1
 90
        5
176
     1
 90
        0
176
     1
 90
        0
176
     1
290
     0
176
     1
 90
       13
176
     1
 40
0.0
176
     1
 90
        0
176
     1
290
     0
176
     1
290
     1
176
     1
290
     1
176
     1
290
     0
176
     1
290
     0
176
     1
290
     0
176
     1
290
     0
176
     1
290
     0
176
     1
290
     0
176
     1
 90
       50
176
     1
 40
0.0
176
     1
 40
1.0
176
     1
 90
        0
176
     1
 62
    18
420
        0
176
     1
 90
       50
176
     1
 90
        3
176
     1
 62
     5
420
      255
176
     1
290
     0
176
     1
 90
       50
176
     1
 90
       50
176
     1
 90
       50
176
     1
290
     0
176
     1
 90
       50
176
     1
 62
   256
176
     0
 40
1.0
176
     0
 90
        2
176
     1
  1
strokes_ogs.tif
176
     1
290
     0
176
     1
 40
1.0
176
     1
 40
1.0
176
     1
  0
VISUALSTYLE
  5
2D
102
{ACAD_REACTORS
330
29
102
}
330
29
100
AcDbVisualStyle
  2
GouraudWithEdges
 70
     3
177
     3
291
     1
 70
    58
 90
        2
176
     1
 90
        2
176
     1
 90
        1
176
     1
 90
        2
176
     1
 40
0.6
176
     1
 40
30.0
176
     1
 62
     7
420
 16777215
176
     1
 90
        1
176
     1
 90
        0
176
     1
 62
     7
176
     1
 62
   257
176
     1
 90
        1
176
     1
 90
        1
176
     1
 40
1.0
176
     1
 90
        0
176
     1
 62
   257
176
     1
 40
1.0
176
     1
 90
        1
176
     1
 90
        6
176
     1
 90
        2
176
     1
 62
     7
176
     1
 90
        5
176
     1
 90
        0
176
     1
 90
        0
176
     1
290
     0
176
     1
 90
       13
176
     1
 40
0.0
176
     1
 90
        0
176
     1
290
     0
176
     1
290
     1
176
     1
290
     1
176
     1
290
     0
176
     1
290
     0
176
     1
290
     0
176
     1
290
     0
176
     1
290
     0
176
     1
290
     0
176
     1
 90
       50
176
     1
 40
0.0
176
     1
 40
1.0
176
     1
 90
        0
176
     1
 62
    18
420
        0
176
     1
 90
       50
176
     1
 90
        3
176
     1
 62
     5
420
      255
176
     1
290
     0
176
     1
 90
       50
176
     1
 90
       50
176
     1
 90
       50
176
     1
290
     0
176
     1
 90
       50
176
     1
 62
   256
176
     0
 40
1.0
176
     0
 90
        2
176
     1
  1
strokes_ogs.tif
176
     1
290
     0
176
     1
 40
1.0
176
     1
 40
1.0
176
     1
  0
VISUALSTYLE
  5
31
102
{ACAD_REACTORS
330
29
102
}
330
29
100
AcDbVisualStyle
  2
Hidden
 70
     6
177
     3
291
     0
 70
    58
 90
        1
176
     1
 90
        2
176
     1
 90
        2
176
     1
 90
        0
176
     1
 40
0.6
176
     1
 40
30.0
176
     1
 62
     7
420
 16777215
176
     1
 90
        2
176
     1
 90
        2
176
     1
 62
     7
176
     1
 62
   257
176
     1
 90
        2
176
     1
 90
        1
176
     1
 40
40.0
176
     1
 90
        0
176
     1
 62
   257
176
     1
 40
1.0
176
     1
 90
        1
176
     1
 90
        6
176
     1
 90
        2
176
     1
 62
     7
176
     1
 90
        3
176
     1
 90
        0
176
     1
 90
        0
176
     1
290
     0
176
     1
 90
        1
176
     1
 40
0.0
176
     1
 90
        0
176
     1
290
     0
176
     1
290
     1
176
     1
290
     1
176
     1
290
     0
176
     1
290
     0
176
     1
290
     0
176
     1
290
     0
176
     1
290
     0
176
     1
290
     0
176
     1
 90
       50
176
     1
 40
0.0
176
     1
 40
1.0
176
     1
 90
        0
176
     1
 62
    18
420
        0
176
     1
 90
       50
176
     1
 90
        3
176
     1
 62
     5
420
      255
176
     1
290
     0
176
     1
 90
       50
176
     1
 90
       50
176
     1
 90
       50
176
     1
290
     0
176
     1
 90
       50
176
     1
 62
   256
176
     0
 40
1.0
176
     0
 90
        2
176
     1
  1
strokes_ogs.tif
176
     1
290
     0
176
     1
 40
1.0
176
     1
 40
1.0
176
     1
  0
VISUALSTYLE
  5
3F
102
{ACAD_REACTORS
330
29
102
}
330
29
100
AcDbVisualStyle
  2
JitterOff
 70
    20
177
     3
291
     1
 70
    58
 90
        2
176
     0
 90
        2
176
     0
 90
        0
176
     0
 90
        0
176
     0
 40
0.6
176
     0
 40
30.0
176
     0
 62
     7
420
 16777215
176
     0
 90
        1
176
     0
 90
        4
176
     0
 62
     7
176
     0
 62
   257
176
     0
 90
        1
176
     0
 90
        1
176
     0
 40
1.0
176
     0
 90
       10
176
     2
 62
     7
176
     0
 40
1.0
176
     0
 90
        1
176
     0
 90
        6
176
     0
 90
        2
176
     0
 62
     7
176
     0
 90
        5
176
     0
 90
        0
176
     0
 90
        0
176
     0
290
     0
176
     0
 90
        1
176
     0
 40
0.0
176
     0
 90
        0
176
     0
290
     0
176
     0
290
     1
176
     0
290
     1
176
     0
290
     0
176
     0
290
     0
176
     0
290
     0
176
     0
290
     0
176
     0
290
     0
176
     0
290
     0
176
     0
 90
       50
176
     0
 40
0.0
176
     0
 40
1.0
176
     0
 90
        0
176
     0
 62
    18
420
        0
176
     0
 90
       50
176
     0
 90
        3
176
     0
 62
     5
420
      255
176
     0
290
     0
176
     0
 90
       50
176
     0
 90
       50
176
     0
 90
       50
176
     0
290
     0
176
     0
 90
       50
176
     0
 62
   256
176
     0
 40
1.0
176
     0
 90
        2
176
     0
  1
strokes_ogs.tif
176
     0
290
     0
176
     0
 40
1.0
176
     0
 40
1.0
176
     0
  0
VISUALSTYLE
  5
37
102
{ACAD_REACTORS
330
29
102
}
330
29
100
AcDbVisualStyle
  2
Linepattern
 70
    14
177
     3
291
     1
 70
    58
 90
        2
176
     1
 90
        2
176
     1
 90
        0
176
     1
 90
        0
176
     1
 40
0.6
176
     1
 40
30.0
176
     1
 62
     7
420
 16777215
176
     1
 90
        1
176
     1
 90
        4
176
     1
 62
     7
176
     1
 62
   257
176
     1
 90
        7
176
     1
 90
        7
176
     1
 40
1.0
176
     1
 90
        8
176
     1
 62
     7
176
     1
 40
1.0
176
     1
 90
        1
176
     1
 90
        6
176
     1
 90
        2
176
     1
 62
     7
176
     1
 90
        5
176
     1
 90
        0
176
     1
 90
        0
176
     1
290
     0
176
     1
 90
        1
176
     1
 40
0.0
176
     1
 90
        0
176
     1
290
     0
176
     1
290
     1
176
     1
290
     1
176
     1
290
     0
176
     1
290
     0
176
     1
290
     0
176
     1
290
     0
176
     1
290
     0
176
     1
290
     0
176
     1
 90
       50
176
     1
 40
0.0
176
     1
 40
1.0
176
     1
 90
        0
176
     1
 62
    18
420
        0
176
     1
 90
       50
176
     1
 90
        3
176
     1
 62
     5
420
      255
176
     1
290
     0
176
     1
 90
       50
176
     1
 90
       50
176
     1
 90
       50
176
     1
290
     0
176
     1
 90
       50
176
     1
 62
   256
176
     0
 40
1.0
176
     0
 90
        2
176
     1
  1
strokes_ogs.tif
176
     1
290
     0
176
     1
 40
1.0
176
     1
 40
1.0
176
     1
  0
VISUALSTYLE
  5
40
102
{ACAD_REACTORS
330
29
102
}
330
29
100
AcDbVisualStyle
  2
OverhangOff
 70
    21
177
     3
291
     1
 70
    58
 90
        2
176
     0
 90
        2
176
     0
 90
        0
176
     0
 90
        0
176
     0
 40
0.6
176
     0
 40
30.0
176
     0
 62
     7
420
 16777215
176
     0
 90
        1
176
     0
 90
        4
176
     0
 62
     7
176
     0
 62
   257
176
     0
 90
        1
176
     0
 90
        1
176
     0
 40
1.0
176
     0
 90
        9
176
     2
 62
     7
176
     0
 40
1.0
176
     0
 90
        1
176
     0
 90
        6
176
     0
 90
        2
176
     0
 62
     7
176
     0
 90
        5
176
     0
 90
        0
176
     0
 90
        0
176
     0
290
     0
176
     0
 90
        1
176
     0
 40
0.0
176
     0
 90
        0
176
     0
290
     0
176
     0
290
     1
176
     0
290
     1
176
     0
290
     0
176
     0
290
     0
176
     0
290
     0
176
     0
290
     0
176
     0
290
     0
176
     0
290
     0
176
     0
 90
       50
176
     0
 40
0.0
176
     0
 40
1.0
176
     0
 90
        0
176
     0
 62
    18
420
        0
176
     0
 90
       50
176
     0
 90
        3
176
     0
 62
     5
420
      255
176
     0
290
     0
176
     0
 90
       50
176
     0
 90
       50
176
     0
 90
       50
176
     0
290
     0
176
     0
 90
       50
176
     0
 62
   256
176
     0
 40
1.0
176
     0
 90
        2
176
     0
  1
strokes_ogs.tif
176
     0
290
     0
176
     0
 40
1.0
176
     0
 40
1.0
176
     0
  0
VISUALSTYLE
  5
33
102
{ACAD_REACTORS
330
29
102
}
330
29
100
AcDbVisualStyle
  2
Realistic
 70
     8
177
     3
291
     0
 70
    58
 90
        2
176
     1
 90
        3
176
     1
 90
        0
176
     1
 90
        2
176
     1
 40
0.6
176
     1
 40
30.0
176
     1
 62
     7
420
 16777215
176
     1
 90
        0
176
     1
 90
        0
176
     1
 62
     7
176
     1
 62
   257
176
     1
 90
        1
176
     1
 90
        1
176
     1
 40
1.0
176
     1
 90
        8
176
     1
 62
   257
176
     1
 40
1.0
176
     1
 90
        1
176
     1
 90
        6
176
     1
 90
        2
176
     1
 62
     7
176
     1
 90
        3
176
     1
 90
        0
176
     1
 90
        0
176
     1
290
     0
176
     1
 90
       13
176
     1
 40
0.0
176
     1
 90
        0
176
     1
290
     0
176
     1
290
     1
176
     1
290
     1
176
     1
290
     0
176
     1
290
     0
176
     1
290
     0
176
     1
290
     0
176
     1
290
     0
176
     1
290
     0
176
     1
 90
       50
176
     1
 40
0.0
176
     1
 40
1.0
176
     1
 90
        0
176
     1
 62
    18
420
        0
176
     1
 90
       50
176
     1
 90
        3
176
     1
 62
     5
420
      255
176
     1
290
     0
176
     1
 90
       50
176
     1
 90
       50
176
     1
 90
       50
176
     1
290
     0
176
     1
 90
       50
176
     1
 62
   256
176
     0
 40
1.0
176
     0
 90
        2
176
     1
  1
strokes_ogs.tif
176
     1
290
     0
176
     1
 40
1.0
176
     1
 40
1.0
176
     1
  0
VISUALSTYLE
  5
3E
102
{ACAD_REACTORS
330
29
102
}
330
29
100
AcDbVisualStyle
  2
Shaded
 70
    27
177
     3
291
     0
 70
    58
 90
        2
176
     1
 90
        2
176
     1
 90
        1
176
     1
 90
        2
176
     1
 40
0.6
176
     1
 40
30.0
176
     1
 62
     7
420
 16777215
176
     1
 90
        0
176
     1
 90
        4
176
     1
 62
     7
176
     1
 62
   257
176
     1
 90
        1
176
     1
 90
        1
176
     1
 40
1.0
176
     1
 90
        8
176
     1
 62
   257
176
     1
 40
1.0
176
     1
 90
        1
176
     1
 90
        6
176
     1
 90
        2
176
     1
 62
     8
420
  7895160
176
     1
 90
        3
176
     1
 90
        0
176
     1
 90
        0
176
     1
290
     0
176
     1
 90
        5
176
     1
 40
0.0
176
     1
 90
        0
176
     1
290
     0
176
     1
290
     1
176
     1
290
     1
176
     1
290
     0
176
     1
290
     0
176
     1
290
     0
176
     1
290
     0
176
     1
290
     0
176
     1
290
     0
176
     1
 90
       50
176
     1
 40
0.0
176
     1
 40
1.0
176
     1
 90
        0
176
     1
 62
    18
420
        0
176
     1
 90
       50
176
     1
 90
        3
176
     1
 62
     5
420
      255
176
     1
290
     0
176
     1
 90
       50
176
     1
 90
       50
176
     1
 90
       50
176
     1
290
     0
176
     1
 90
       50
176
     1
 62
   256
176
     0
 40
1.0
176
     0
 90
        2
176
     1
  1
strokes_ogs.tif
176
     1
290
     0
176
     1
 40
1.0
176
     1
 40
1.0
176
     1
  0
VISUALSTYLE
  5
3D
102
{ACAD_REACTORS
330
29
102
}
330
29
100
AcDbVisualStyle
  2
Shaded with edges
 70
    26
177
     3
291
     0
 70
    58
 90
        2
176
     1
 90
        2
176
     1
 90
        1
176
     1
 90
        2
176
     1
 40
0.6
176
     1
 40
30.0
176
     1
 62
     7
420
 16777215
176
     1
 90
        1
176
     1
 90
       10
176
     1
 62
     7
176
     1
 62
   257
176
     1
 90
        2
176
     1
 90
        1
176
     1
 40
1.0
176
     1
 90
        8
176
     1
 62
   257
176
     1
 40
1.0
176
     1
 90
        1
176
     1
 90
        6
176
     1
 90
        2
176
     1
 62
     7
176
     1
 90
        3
176
     1
 90
        0
176
     1
 90
        0
176
     1
290
     0
176
     1
 90
        5
176
     1
 40
0.0
176
     1
 90
        0
176
     1
290
     0
176
     1
290
     1
176
     1
290
     1
176
     1
290
     0
176
     1
290
     0
176
     1
290
     0
176
     1
290
     0
176
     1
290
     0
176
     1
290
     0
176
     1
 90
       50
176
     1
 40
0.0
176
     1
 40
1.0
176
     1
 90
        0
176
     1
 62
    18
420
        0
176
     1
 90
       50
176
     1
 90
        3
176
     1
 62
     5
420
      255
176
     1
290
     0
176
     1
 90
       50
176
     1
 90
       50
176
     1
 90
       50
176
     1
290
     0
176
     1
 90
       50
176
     1
 62
   256
176
     0
 40
1.0
176
     0
 90
        2
176
     1
  1
strokes_ogs.tif
176
     1
290
     0
176
     1
 40
1.0
176
     1
 40
1.0
176
     1
  0
VISUALSTYLE
  5
3A
102
{ACAD_REACTORS
330
29
102
}
330
29
100
AcDbVisualStyle
  2
Shades of Gray
 70
    23
177
     3
291
     0
 70
    58
 90
        2
176
     1
 90
        2
176
     1
 90
        3
176
     1
 90
        0
176
     1
 40
0.6
176
     1
 40
30.0
176
     1
 62
     7
420
 16777215
176
     1
 90
        2
176
     1
 90
        2
176
     1
 62
     7
176
     1
 62
     7
176
     1
 90
        1
176
     1
 90
        1
176
     1
 40
40.0
176
     1
 90
        8
176
     1
 62
     7
176
     1
 40
1.0
176
     1
 90
        1
176
     1
 90
        6
176
     1
 90
        2
176
     1
 62
     7
176
     1
 90
        3
176
     1
 90
        0
176
     1
 90
        0
176
     1
290
     0
176
     1
 90
        1
176
     1
 40
0.0
176
     1
 90
        0
176
     1
290
     0
176
     1
290
     1
176
     1
290
     1
176
     1
290
     0
176
     1
290
     0
176
     1
290
     0
176
     1
290
     0
176
     1
290
     0
176
     1
290
     0
176
     1
 90
       50
176
     1
 40
0.0
176
     1
 40
1.0
176
     1
 90
        0
176
     1
 62
    18
420
        0
176
     1
 90
       50
176
     1
 90
        3
176
     1
 62
     5
420
      255
176
     1
290
     0
176
     1
 90
       50
176
     1
 90
       50
176
     1
 90
       50
176
     1
290
     0
176
     1
 90
       50
176
     1
 62
   256
176
     0
 40
1.0
176
     0
 90
        2
176
     1
  1
strokes_ogs.tif
176
     1
290
     0
176
     1
 40
1.0
176
     1
 40
1.0
176
     1
  0
VISUALSTYLE
  5
3B
102
{ACAD_REACTORS
330
29
102
}
330
29
100
AcDbVisualStyle
  2
Sketchy
 70
    24
177
     3
291
     0
 70
    58
 90
        1
176
     1
 90
        2
176
     1
 90
        2
176
     1
 90
        0
176
     1
 40
0.6
176
     1
 40
30.0
176
     1
 62
     7
420
 16777215
176
     1
 90
        2
176
     1
 90
        2
176
     1
 62
     7
176
     1
 62
     7
176
     1
 90
        1
176
     1
 90
        1
176
     1
 40
40.0
176
     1
 90
       11
176
     1
 62
     7
176
     1
 40
1.0
176
     1
 90
        1
176
     1
 90
        6
176
     1
 90
        2
176
     1
 62
     7
176
     1
 90
        6
176
     1
 90
        0
176
     1
 90
        0
176
     1
290
     0
176
     1
 90
        1
176
     1
 40
0.0
176
     1
 90
        0
176
     1
290
     0
176
     1
290
     1
176
     1
290
     1
176
     1
290
     0
176
     1
290
     0
176
     1
290
     0
176
     1
290
     0
176
     1
290
     0
176
     1
290
     0
176
     1
 90
       50
176
     1
 40
0.0
176
     1
 40
1.0
176
     1
 90
        0
176
     1
 62
    18
420
        0
176
     1
 90
       50
176
     1
 90
        3
176
     1
 62
     5
420
      255
176
     1
290
     0
176
     1
 90
       50
176
     1
 90
       50
176
     1
 90
       50
176
     1
290
     0
176
     1
 90
       50
176
     1
 62
   256
176
     0
 40
1.0
176
     0
 90
        2
176
     1
  1
strokes_ogs.tif
176
     1
290
     0
176
     1
 40
1.0
176
     1
 40
1.0
176
     1
  0
VISUALSTYLE
  5
36
102
{ACAD_REACTORS
330
29
102
}
330
29
100
AcDbVisualStyle
  2
Thicken
 70
    13
177
     3
291
     1
 70
    58
 90
        2
176
     1
 90
        2
176
     1
 90
        0
176
     1
 90
        0
176
     1
 40
0.6
176
     1
 40
30.0
176
     1
 62
     7
420
 16777215
176
     1
 90
        1
176
     1
 90
        4
176
     1
 62
     7
176
     1
 62
   257
176
     1
 90
        1
176
     1
 90
        1
176
     1
 40
1.0
176
     1
 90
       12
176
     1
 62
     7
176
     1
 40
1.0
176
     1
 90
        1
176
     1
 90
        6
176
     1
 90
        2
176
     1
 62
     7
176
     1
 90
        5
176
     1
 90
        0
176
     1
 90
        0
176
     1
290
     0
176
     1
 90
        1
176
     1
 40
0.0
176
     1
 90
        0
176
     1
290
     0
176
     1
290
     1
176
     1
290
     1
176
     1
290
     0
176
     1
290
     0
176
     1
290
     0
176
     1
290
     0
176
     1
290
     0
176
     1
290
     0
176
     1
 90
       50
176
     1
 40
0.0
176
     1
 40
1.0
176
     1
 90
        0
176
     1
 62
    18
420
        0
176
     1
 90
       50
176
     1
 90
        3
176
     1
 62
     5
420
      255
176
     1
290
     0
176
     1
 90
       50
176
     1
 90
       50
176
     1
 90
       50
176
     1
290
     0
176
     1
 90
       50
176
     1
 62
   256
176
     0
 40
1.0
176
     0
 90
        2
176
     1
  1
strokes_ogs.tif
176
     1
290
     0
176
     1
 40
1.0
176
     1
 40
1.0
176
     1
  0
VISUALSTYLE
  5
30
102
{ACAD_REACTORS
330
29
102
}
330
29
100
AcDbVisualStyle
  2
Wireframe
 70
     5
177
     3
291
     0
 70
    58
 90
        0
176
     1
 90
        2
176
     1
 90
        0
176
     1
 90
        0
176
     1
 40
0.6
176
     1
 40
30.0
176
     1
 62
     7
420
 16777215
176
     1
 90
        1
176
     1
 90
        4
176
     1
 62
     7
176
     1
 62
   257
176
     1
 90
        1
176
     1
 90
        1
176
     1
 40
1.0
176
     1
 90
        0
176
     1
 62
   257
176
     1
 40
1.0
176
     1
 90
        1
176
     1
 90
        6
176
     1
 90
        2
176
     1
 62
     7
176
     1
 90
        3
176
     1
 90
        0
176
     1
 90
        0
176
     1
290
     0
176
     1
 90
        1
176
     1
 40
0.0
176
     1
 90
        0
176
     1
290
     0
176
     1
290
     1
176
     1
290
     1
176
     1
290
     0
176
     1
290
     0
176
     1
290
     0
176
     1
290
     0
176
     1
290
     0
176
     1
290
     0
176
     1
 90
       50
176
     1
 40
0.0
176
     1
 40
1.0
176
     1
 90
        0
176
     1
 62
    18
420
        0
176
     1
 90
       50
176
     1
 90
        3
176
     1
 62
     5
420
      255
176
     1
290
     0
176
     1
 90
       50
176
     1
 90
       50
176
     1
 90
       50
176
     1
290
     0
176
     1
 90
       50
176
     1
 62
   256
176
     0
 40
1.0
176
     0
 90
        2
176
     1
  1
strokes_ogs.tif
176
     1
290
     0
176
     1
 40
1.0
176
     1
 40
1.0
176
     1
  0
VISUALSTYLE
  5
3C
102
{ACAD_REACTORS
330
29
102
}
330
29
100
AcDbVisualStyle
  2
X-Ray
 70
    25
177
     3
291
     0
 70
    58
 90
        2
176
     1
 90
        2
176
     1
 90
        1
176
     1
 90
        1
176
     1
 40
0.5
176
     1
 40
30.0
176
     1
 62
     7
420
 16777215
176
     1
 90
        1
176
     1
 90
        0
176
     1
 62
     7
176
     1
 62
   257
176
     1
 90
        1
176
     1
 90
        1
176
     1
 40
1.0
176
     1
 90
        8
176
     1
 62
     7
176
     1
 40
1.0
176
     1
 90
        1
176
     1
 90
        6
176
     1
 90
        2
176
     1
 62
     7
176
     1
 90
        3
176
     1
 90
        0
176
     1
 90
        0
176
     1
290
     0
176
     1
 90
       13
176
     1
 40
0.0
176
     1
 90
        0
176
     1
290
     0
176
     1
290
     1
176
     1
290
     1
176
     1
290
     0
176
     1
290
     0
176
     1
290
     0
176
     1
290
     0
176
     1
290
     0
176
     1
290
     0
176
     1
 90
       50
176
     1
 40
0.0
176
     1
 40
1.0
176
     1
 90
        0
176
     1
 62
    18
420
        0
176
     1
 90
       50
176
     1
 90
        3
176
     1
 62
     5
420
      255
176
     1
290
     0
176
     1
 90
       50
176
     1
 90
       50
176
     1
 90
       50
176
     1
290
     0
176
     1
 90
       50
176
     1
 62
   256
176
     0
 40
1.0
176
     0
 90
        2
176
     1
  1
strokes_ogs.tif
176
     1
290
     0
176
     1
 40
1.0
176
     1
 40
1.0
176
     1
  0
DICTIONARYVAR
  5
489
102
{ACAD_REACTORS
330
484
102
}
330
484
100
DictionaryVariables
280
     0
  1
1:1
  0
DICTIONARYVAR
  5
486
102
{ACAD_REACTORS
330
484
102
}
330
484
100
DictionaryVariables
280
     0
  1
STANDARD
  0
DICTIONARYVAR
  5
485
102
{ACAD_REACTORS
330
484
102
}
330
484
100
DictionaryVariables
280
     0
  1
STANDARD
  0
DICTIONARYVAR
  5
487
102
{ACAD_REACTORS
330
484
102
}
330
484
100
DictionaryVariables
280
     0
  1
Imperial24
  0
DICTIONARYVAR
  5
488
102
{ACAD_REACTORS
330
484
102
}
330
484
100
DictionaryVariables
280
     0
  1
Imperial24
  0
DICTIONARY
  5
4E2
330
6A
100
AcDbDictionary
280
     1
281
     1
  3
ACAD_XREC_ROUNDTRIP
360
4E3
  0
DICTIONARY
  5
482
330
72
100
AcDbDictionary
280
     1
281
     1
  0
DICTIONARY
  5
1A
330
19
100
AcDbDictionary
280
     1
281
     1
  3
BUMPTILE
360
1C
  3
DIFFUSETILE
360
1B
  3
OPACITYTILE
360
1F
  3
REFLECTIONTILE
360
1E
  3
REFRACTIONTILE
360
20
  3
SPECULARTILE
360
1D
  0
DICTIONARY
  5
12
330
11
100
AcDbDictionary
280
     1
281
     1
  3
BUMPTILE
360
14
  3
DIFFUSETILE
360
13
  3
OPACITYTILE
360
17
  3
REFLECTIONTILE
360
16
  3
REFRACTIONTILE
360
18
  3
SPECULARTILE
360
15
  0
DICTIONARY
  5
22
330
21
100
AcDbDictionary
280
     1
281
     1
  3
BUMPTILE
360
24
  3
DIFFUSETILE
360
23
  3
OPACITYTILE
360
27
  3
REFLECTIONTILE
360
26
  3
REFRACTIONTILE
360
28
  3
SPECULARTILE
360
25
  0
DICTIONARY
  5
4E0
330
68
100
AcDbDictionary
280
     1
281
     1
  3
ACAD_XREC_ROUNDTRIP
360
4E1
  0
DICTIONARY
  5
4DE
330
64
100
AcDbDictionary
280
     1
281
     1
  3
ACAD_ROUNDTRIP_2008_TABLESTYLE_CELLSTYLEMAP
360
4DF
  0
XRECORD
  5
4E3
102
{ACAD_REACTORS
330
4E2
102
}
330
4E2
100
AcDbXrecord
280
     1
102
DISPLAYNAME
  1
Imperial24
102
FLAGS
 90
        0
  0
XRECORD
  5
1C
102
{ACAD_REACTORS
330
1A
102
}
330
1A
100
AcDbXrecord
280
     1
270
     1
271
     1
  0
XRECORD
  5
1B
102
{ACAD_REACTORS
330
1A
102
}
330
1A
100
AcDbXrecord
280
     1
270
     1
271
     1
  0
XRECORD
  5
1F
102
{ACAD_REACTORS
330
1A
102
}
330
1A
100
AcDbXrecord
280
     1
270
     1
271
     1
  0
XRECORD
  5
1E
102
{ACAD_REACTORS
330
1A
102
}
330
1A
100
AcDbXrecord
280
     1
270
     1
271
     1
  0
XRECORD
  5
20
102
{ACAD_REACTORS
330
1A
102
}
330
1A
100
AcDbXrecord
280
     1
270
     1
271
     1
  0
XRECORD
  5
1D
102
{ACAD_REACTORS
330
1A
102
}
330
1A
100
AcDbXrecord
280
     1
270
     1
271
     1
  0
XRECORD
  5
14
102
{ACAD_REACTORS
330
12
102
}
330
12
100
AcDbXrecord
280
     1
270
     1
271
     1
  0
XRECORD
  5
13
102
{ACAD_REACTORS
330
12
102
}
330
12
100
AcDbXrecord
280
     1
270
     1
271
     1
  0
XRECORD
  5
17
102
{ACAD_REACTORS
330
12
102
}
330
12
100
AcDbXrecord
280
     1
270
     1
271
     1
  0
XRECORD
  5
16
102
{ACAD_REACTORS
330
12
102
}
330
12
100
AcDbXrecord
280
     1
270
     1
271
     1
  0
XRECORD
  5
18
102
{ACAD_REACTORS
330
12
102
}
330
12
100
AcDbXrecord
280
     1
270
     1
271
     1
  0
XRECORD
  5
15
102
{ACAD_REACTORS
330
12
102
}
330
12
100
AcDbXrecord
280
     1
270
     1
271
     1
  0
XRECORD
  5
24
102
{ACAD_REACTORS
330
22
102
}
330
22
100
AcDbXrecord
280
     1
270
     1
271
     1
  0
XRECORD
  5
23
102
{ACAD_REACTORS
330
22
102
}
330
22
100
AcDbXrecord
280
     1
270
     1
271
     1
  0
XRECORD
  5
27
102
{ACAD_REACTORS
330
22
102
}
330
22
100
AcDbXrecord
280
     1
270
     1
271
     1
  0
XRECORD
  5
26
102
{ACAD_REACTORS
330
22
102
}
330
22
100
AcDbXrecord
280
     1
270
     1
271
     1
  0
XRECORD
  5
28
102
{ACAD_REACTORS
330
22
102
}
330
22
100
AcDbXrecord
280
     1
270
     1
271
     1
  0
XRECORD
  5
25
102
{ACAD_REACTORS
330
22
102
}
330
22
100
AcDbXrecord
280
     1
270
     1
271
     1
  0
XRECORD
  5
4E1
102
{ACAD_REACTORS
330
4E0
102
}
330
4E0
100
AcDbXrecord
280
     1
102
DISPLAYNAME
  1
Imperial24
102
FLAGS
 90
        0
  0
CELLSTYLEMAP
  5
4DF
102
{ACAD_REACTORS
330
4DE
102
}
330
4DE
100
AcDbCellStyleMap
 90
        3
300
CELLSTYLE
  1
TABLEFORMAT_BEGIN
 90
        5
170
     1
 91
        0
 92
    32768
 62
   257
 93
        1
300
CONTENTFORMAT
  1
CONTENTFORMAT_BEGIN
 90
        0
 91
        0
 92
      512
 93
        0
300

 40
0.0
140
1.0
 94
        5
 62
     0
340
55
144
0.25
309
CONTENTFORMAT_END
171
     0
 94
        0
309
TABLEFORMAT_END
  1
CELLSTYLE_BEGIN
 90
        1
 91
        1
300
_TITLE
309
CELLSTYLE_END
300
CELLSTYLE
  1
TABLEFORMAT_BEGIN
 90
        5
170
     1
 91
        0
 92
        0
 62
   257
 93
        1
300
CONTENTFORMAT
  1
CONTENTFORMAT_BEGIN
 90
        0
 91
        0
 92
      512
 93
        0
300

 40
0.0
140
1.0
 94
        5
 62
     0
340
55
144
0.18
309
CONTENTFORMAT_END
171
     0
 94
        0
309
TABLEFORMAT_END
  1
CELLSTYLE_BEGIN
 90
        2
 91
        1
300
_HEADER
309
CELLSTYLE_END
300
CELLSTYLE
  1
TABLEFORMAT_BEGIN
 90
        5
170
     1
 91
        0
 92
        0
 62
   257
 93
        1
300
CONTENTFORMAT
  1
CONTENTFORMAT_BEGIN
 90
        0
 91
        0
 92
      512
 93
        0
300

 40
0.0
140
1.0
 94
        2
 62
     0
340
55
144
0.18
309
CONTENTFORMAT_END
171
     0
 94
        0
309
TABLEFORMAT_END
  1
CELLSTYLE_BEGIN
 90
        3
 91
        2
300
_DATA
309
CELLSTYLE_END
  0
ENDSEC
  0
SECTION
  2
ACDSDATA
 70
     2
 71
     6
  0
ACDSSCHEMA
 90
        0
  1
AcDb_Thumbnail_Schema
  2
AcDbDs::ID
280
    10
 91
        8
  2
Thumbnail_Data
280
    15
 91
        0
101
ACDSRECORD
 95
        0
 90
        1
  2
AcDbDs::TreatedAsObjectData
280
     1
291
     1
101
ACDSRECORD
 95
        0
 90
        2
  2
AcDbDs::Legacy
280
     1
291
     1
101
ACDSRECORD
  1
AcDbDs::ID
 90
        3
  2
AcDs:Indexable
280
     1
291
     1
101
ACDSRECORD
  1
AcDbDs::ID
 90
        4
  2
AcDbDs::HandleAttribute
280
     7
282
     1
  0
ACDSSCHEMA
 90
        1
  1
AcDbDs::TreatedAsObjectDataSchema
  2
AcDbDs::TreatedAsObjectData
280
     1
 91
        0
  0
ACDSSCHEMA
 90
        2
  1
AcDbDs::LegacySchema
  2
AcDbDs::Legacy
280
     1
 91
        0
  0
ACDSSCHEMA
 90
        3
  1
AcDbDs::IndexedPropertySchema
  2
AcDs:Indexable
280
     1
 91
        0
  0
ACDSSCHEMA
 90
        4
  1
AcDbDs::HandleAttributeSchema
  2
AcDbDs::HandleAttribute
280
     7
 91
        1
284
     1
  0
ACDSRECORD
 90
        0
  2
AcDbDs::ID
280
    10
320
72
  2
Thumbnail_Data
280
    15
 94
     1584
310
89504E470D0A1A0A0000000D49484452000001000000009B0803000000BA7AB56000000300504C54455B5B5B000000C8C8C80000000000000000000000000000000000000000000000000000330000660000990000CC0000FF0033000033330033660033990033CC0033FF0066000066330066660066990066CC0066FF0099
310
000099330099660099990099CC0099FF00CC0000CC3300CC6600CC9900CCCC00CCFF00FF0000FF3300FF6600FF9900FFCC00FFFF3300003300333300663300993300CC3300FF3333003333333333663333993333CC3333FF3366003366333366663366993366CC3366FF3399003399333399663399993399CC3399FF33CC00
310
33CC3333CC6633CC9933CCCC33CCFF33FF0033FF3333FF6633FF9933FFCC33FFFF6600006600336600666600996600CC6600FF6633006633336633666633996633CC6633FF6666006666336666666666996666CC6666FF6699006699336699666699996699CC6699FF66CC0066CC3366CC6666CC9966CCCC66CCFF66FF0066
310
FF3366FF6666FF9966FFCC66FFFF9900009900339900669900999900CC9900FF9933009933339933669933999933CC9933FF9966009966339966669966999966CC9966FF9999009999339999669999999999CC9999FF99CC0099CC3399CC6699CC9999CCCC99CCFF99FF0099FF3399FF6699FF9999FFCC99FFFFCC0000CC00
310
33CC0066CC0099CC00CCCC00FFCC3300CC3333CC3366CC3399CC33CCCC33FFCC6600CC6633CC6666CC6699CC66CCCC66FFCC9900CC9933CC9966CC9999CC99CCCC99FFCCCC00CCCC33CCCC66CCCC99CCCCCCCCCCFFCCFF00CCFF33CCFF66CCFF99CCFFCCCCFFFFFF0000FF0033FF0066FF0099FF00CCFF00FFFF3300FF3333
310
FF3366FF3399FF33CCFF33FFFF6600FF6633FF6666FF6699FF66CCFF66FFFF9900FF9933FF9966FF9999FF99CCFF99FFFFCC00FFCC33FFCC66FFCC99FFCCCCFFCCFFFFFF00FFFF33FFFF66FFFF99FFFFCCFFFFFF0000000D0D0D1A1A1A2828283535354343435050505D5D5D6B6B6B787878868686939393A1A1A1AEAEAEBB
310
BBBBC9C9C9D6D6D6E4E4E4F1F1F1FFFFFF00000000000000000000000000000000000000000000000000000000000054549EDE000002EB4944415478DAEDDC4B9A82301004E01CA736B9FF2E671B465001154247175D55AC9C8F64D1FF249DA796E2E7370FE40100F916A04D00F57E80A523C827415902A88F07580F08F2F3
310
004502A8CF8BF03231929F0A8B11407D7D80F70B04F9D520D401741A010E16CAE20022FDE0304885467012223F01860BB003B037829EE8A809FA622326E804E02540772152025C284449804B85080970B10C1D012E97212340A00C150142458808102C4243807011A800807B72889106006100B0348220C0E362497A028CC5
310
9FBF1F8C03D40A3900A0D65297CF35370162EFEBFF730798FECC9B0A8200E50E30C75FF3A6822840D93480E9C97AE514D1D7F714F0FF61C2C0B35388003CDED739212C8F20C056800CA03743C80394DA9A3400E6F80B1B4077039800D663A31CC034156E9BC1510400BB4911DD44A87F0C28065004C06E5D4407706516A408
310
8097AD0151807945AC0780DE9E9216A0BB014803D4E47BC27100100C00C761F63680EC021869003781220D90FF8018DA6340148027FE5180F429207601E8F1B6F102F4ED14B542DB050E09569BA19516E0E017765629B03203DC56BAF5640C2007A8EF163BCF0C008234700EF072F2BF4D81D4008F03CF0DC12A05120874B4
310
80BACD88AB0CD008C6C25E80A7C13A0512089C4CE67767DE13C1E69797F801CAFECC1BDB75D022D078013E6F7A60FDCFCF4B70DA053E2DF9B05B0D6425E80138AAB80ABBA534C068C54DD00909305CAF31CF03FAEA357580D402F84AB5C4DD005FAA9696005FAB9594005FAC25340FF8544B651E20F6F5790330C76F000388
310
C76F0088C76F000388C76F000388C76F0088C76F80CB5DE0B5426BE4A7C32704F33D99A603F0E15024EDB638C62AB5379FA4080800A204FBA8731F912258A715128128010F4090608E7ABE4695FFCB03884E0AEA7C6B9CE1EB133182E5D7050900A204F365320A80180147161C200098E28F1230018408E8760AF073331310
310
1214798262021398C004263081094C60021398C004263081094C60021398C00426308109FC8C3D7FF3B1A5D375A0A2B50000000049454E44AE426082
  0
ENDSEC
  0
EOF
